<?xml version="1.0" encoding="UTF-8"?>
<svg xmlns="http://www.w3.org/2000/svg" xmlns:xlink="http://www.w3.org/1999/xlink" width="203.452275pt" height="38.000002pt" viewBox="0 0 203.452275 38.000002" version="1.1">
<g id="surface1">
<path style=" stroke:none;fill-rule:evenodd;fill:rgb(0%,0%,0%);fill-opacity:1;" d="M 3.199219 35.601562 C 4.894531 35.601562 7.214844 33.535156 7.441406 31.230469 C 7.761719 27.855469 9.601562 9.199219 9.679688 8.527344 C 9.871094 7.105469 10.769531 5.472656 11.742188 5.472656 C 12.222656 5.472656 12.65625 5.792969 12.976562 6.367188 C 13.230469 6.847656 13.441406 7.199219 13.664062 7.199219 C 14.015625 7.199219 14.433594 6.894531 14.433594 6.320312 C 14.433594 5.328125 13.566406 4.59375 12.191406 4.59375 C 10.160156 4.59375 8.59375 6.527344 8.207031 9.679688 L 6.078125 31.34375 C 5.824219 33.808594 4.769531 34.734375 3.953125 34.734375 C 3.441406 34.734375 3.070312 34.511719 2.769531 34.222656 C 2.449219 33.921875 2.238281 33.617188 2.015625 33.617188 C 1.761719 33.617188 1.28125 34.046875 1.28125 34.480469 C 1.28125 35.214844 2.097656 35.601562 3.199219 35.601562 Z M 3.199219 35.601562 "/>
<path style=" stroke:none;fill-rule:evenodd;fill:rgb(0%,0%,0%);fill-opacity:1;" d="M 17.839844 7.464844 C 18.824219 7.464844 19.351562 6.558594 19.664062 5.988281 C 19.722656 5.875 19.765625 5.863281 19.824219 5.953125 C 20.359375 6.804688 20.832031 7.464844 21.738281 7.464844 C 22.890625 7.464844 23.707031 6.355469 23.707031 5.257812 C 23.707031 4.230469 23.003906 3.277344 21.972656 3.277344 C 20.988281 3.277344 20.460938 4.160156 20.148438 4.734375 C 20.101562 4.8125 20.046875 4.855469 19.992188 4.765625 C 19.453125 3.914062 18.980469 3.277344 18.074219 3.277344 C 16.921875 3.277344 16.105469 4.386719 16.105469 5.484375 C 16.105469 6.511719 16.808594 7.464844 17.839844 7.464844 Z M 18.019531 6.660156 C 17.210938 6.660156 16.429688 6.132812 16.429688 5.328125 C 16.429688 4.664062 17.042969 4.0625 17.761719 4.0625 C 18.457031 4.0625 19.039062 4.832031 19.488281 5.484375 C 19.554688 5.574219 19.597656 5.640625 19.597656 5.707031 C 19.597656 5.742188 19.574219 5.785156 19.53125 5.839844 C 19.140625 6.324219 18.734375 6.660156 18.019531 6.660156 Z M 22.097656 6.703125 C 21.402344 6.703125 20.808594 5.921875 20.359375 5.269531 C 20.292969 5.179688 20.246094 5.113281 20.246094 5.046875 C 20.246094 5.011719 20.269531 4.96875 20.316406 4.910156 C 20.707031 4.429688 21.078125 4.082031 21.792969 4.082031 C 22.601562 4.082031 23.382812 4.609375 23.382812 5.414062 C 23.382812 6.078125 22.800781 6.703125 22.097656 6.703125 Z M 22.097656 6.703125 "/>
<path style=" stroke:none;fill-rule:evenodd;fill:rgb(0%,0%,0%);fill-opacity:1;" d="M 10.605469 35.511719 L 15.699219 35.511719 C 15.902344 35.511719 16.046875 35.222656 16.046875 34.976562 C 16.046875 34.910156 15.96875 34.839844 15.902344 34.839844 L 10.71875 34.839844 C 10.480469 34.839844 10.449219 35.277344 10.449219 35.378906 C 10.449219 35.445312 10.527344 35.511719 10.605469 35.511719 Z M 10.605469 35.511719 "/>
<path style=" stroke:none;fill-rule:evenodd;fill:rgb(0%,0%,0%);fill-opacity:1;" d="M 18.734375 37.195312 C 19.722656 37.195312 20.246094 36.285156 20.5625 35.714844 C 20.617188 35.601562 20.664062 35.59375 20.71875 35.679688 C 21.257812 36.53125 21.726562 37.195312 22.632812 37.195312 C 23.789062 37.195312 24.605469 36.085938 24.605469 34.988281 C 24.605469 33.957031 23.898438 33.003906 22.867188 33.003906 C 21.882812 33.003906 21.355469 33.890625 21.042969 34.460938 C 21 34.539062 20.941406 34.585938 20.886719 34.496094 C 20.347656 33.644531 19.878906 33.003906 18.972656 33.003906 C 17.816406 33.003906 17 34.113281 17 35.210938 C 17 36.242188 17.707031 37.195312 18.734375 37.195312 Z M 18.914062 36.386719 C 18.109375 36.386719 17.324219 35.859375 17.324219 35.054688 C 17.324219 34.394531 17.941406 33.789062 18.65625 33.789062 C 19.351562 33.789062 19.933594 34.5625 20.382812 35.210938 C 20.449219 35.300781 20.496094 35.367188 20.496094 35.433594 C 20.496094 35.46875 20.472656 35.511719 20.425781 35.570312 C 20.035156 36.050781 19.632812 36.386719 18.914062 36.386719 Z M 22.992188 36.433594 C 22.296875 36.433594 21.703125 35.648438 21.257812 35 C 21.1875 34.910156 21.144531 34.839844 21.144531 34.773438 C 21.144531 34.742188 21.167969 34.695312 21.210938 34.640625 C 21.601562 34.160156 21.972656 33.8125 22.691406 33.8125 C 23.496094 33.8125 24.28125 34.335938 24.28125 35.144531 C 24.28125 35.804688 23.699219 36.433594 22.992188 36.433594 Z M 22.992188 36.433594 "/>
<path style=" stroke:none;fill-rule:evenodd;fill:rgb(0%,0%,0%);fill-opacity:1;" d="M 30.929688 14.160156 C 32.320312 14.160156 33.28125 13.359375 33.28125 12.207031 C 33.28125 11.214844 32.671875 10.71875 31.441406 10.015625 C 30.578125 9.519531 30.335938 9.199219 30.335938 8.703125 C 30.335938 8.097656 30.832031 7.761719 31.359375 7.761719 C 31.96875 7.761719 32.367188 8.144531 32.65625 8.847656 C 32.6875 8.929688 32.832031 8.992188 32.960938 8.992188 C 33.042969 8.992188 33.121094 8.960938 33.121094 8.878906 C 33.121094 8.433594 32.976562 7.855469 32.816406 7.617188 C 32.609375 7.472656 32.175781 7.3125 31.535156 7.3125 C 30.097656 7.3125 29.378906 8.128906 29.378906 9.152344 C 29.378906 9.953125 29.808594 10.464844 30.898438 11.136719 C 31.855469 11.726562 32.191406 12.0625 32.191406 12.640625 C 32.191406 13.265625 31.695312 13.726562 31.074219 13.726562 C 30.449219 13.726562 29.761719 13.328125 29.488281 12.273438 C 29.472656 12.191406 29.378906 12.160156 29.296875 12.160156 C 29.183594 12.160156 29.089844 12.207031 29.089844 12.304688 C 29.105469 12.671875 29.152344 13.359375 29.265625 13.585938 C 29.664062 13.953125 30.273438 14.160156 30.929688 14.160156 Z M 30.929688 14.160156 "/>
<path style=" stroke:none;fill-rule:evenodd;fill:rgb(0%,0%,0%);fill-opacity:1;" d="M 35.777344 5.679688 C 36.242188 5.679688 36.59375 5.328125 36.59375 4.878906 C 36.59375 4.414062 36.242188 4.0625 35.777344 4.0625 C 35.328125 4.0625 34.976562 4.414062 34.976562 4.878906 C 34.976562 5.328125 35.328125 5.679688 35.777344 5.679688 Z M 34.496094 13.984375 C 35.121094 13.984375 35.234375 13.902344 35.792969 13.902344 C 36.351562 13.902344 36.480469 13.984375 37.089844 13.984375 C 37.296875 13.984375 37.410156 13.9375 37.410156 13.808594 C 37.410156 13.648438 37.21875 13.601562 37.042969 13.550781 C 36.609375 13.441406 36.351562 13.3125 36.351562 12.945312 L 36.351562 9.230469 C 36.351562 8.511719 36.496094 7.328125 36.496094 7.070312 C 36.496094 7.023438 36.464844 6.992188 36.402344 6.992188 C 36.335938 6.992188 36.257812 7.039062 36.175781 7.105469 C 35.90625 7.328125 35.34375 7.710938 34.496094 7.902344 C 34.402344 7.921875 34.351562 7.984375 34.351562 8.097656 C 34.351562 8.222656 34.402344 8.289062 34.511719 8.304688 C 35.058594 8.382812 35.234375 8.894531 35.234375 9.472656 L 35.234375 12.945312 C 35.234375 13.328125 34.992188 13.441406 34.546875 13.550781 C 34.367188 13.601562 34.175781 13.648438 34.175781 13.808594 C 34.175781 13.9375 34.304688 13.984375 34.496094 13.984375 Z M 34.496094 13.984375 "/>
<path style=" stroke:none;fill-rule:evenodd;fill:rgb(0%,0%,0%);fill-opacity:1;" d="M 38.417969 13.984375 C 39.058594 13.984375 39.152344 13.902344 39.714844 13.902344 C 40.273438 13.902344 40.367188 13.984375 41.007812 13.984375 C 41.21875 13.984375 41.328125 13.9375 41.328125 13.808594 C 41.328125 13.679688 41.21875 13.617188 40.960938 13.550781 C 40.640625 13.472656 40.273438 13.375 40.273438 12.945312 L 40.273438 9.089844 C 40.273438 8.960938 40.320312 8.800781 40.402344 8.71875 C 40.847656 8.351562 41.410156 8.078125 42.175781 8.078125 C 43.042969 8.097656 43.617188 8.65625 43.617188 9.585938 L 43.617188 12.945312 C 43.617188 13.375 43.25 13.457031 42.929688 13.550781 C 42.753906 13.617188 42.5625 13.679688 42.5625 13.839844 C 42.5625 13.96875 42.769531 13.984375 42.882812 13.984375 C 43.519531 13.984375 43.632812 13.902344 44.191406 13.902344 C 44.753906 13.902344 44.832031 13.984375 45.472656 13.984375 C 45.601562 13.984375 45.792969 13.96875 45.792969 13.839844 C 45.792969 13.679688 45.601562 13.617188 45.425781 13.550781 C 45.105469 13.457031 44.738281 13.375 44.738281 12.945312 L 44.738281 9.535156 C 44.738281 8.289062 43.96875 7.3125 42.929688 7.3125 C 41.921875 7.3125 41.105469 7.664062 40.351562 8.382812 C 40.335938 8.367188 40.320312 8.289062 40.320312 8.191406 C 40.320312 7.886719 40.402344 7.3125 40.402344 7.167969 C 40.402344 7.105469 40.367188 7.054688 40.320312 7.054688 C 40.257812 7.054688 40.210938 7.089844 40.144531 7.136719 C 39.695312 7.472656 39.28125 7.761719 38.546875 7.953125 C 38.449219 7.96875 38.402344 8.03125 38.402344 8.144531 C 38.402344 8.273438 38.464844 8.320312 38.5625 8.351562 C 39.105469 8.496094 39.152344 8.929688 39.152344 9.503906 L 39.152344 12.945312 C 39.152344 13.375 38.785156 13.472656 38.464844 13.550781 C 38.226562 13.617188 38.097656 13.648438 38.097656 13.808594 C 38.097656 13.9375 38.226562 13.984375 38.417969 13.984375 Z M 38.417969 13.984375 "/>
<path style=" stroke:none;fill-rule:evenodd;fill:rgb(0%,0%,0%);fill-opacity:1;" d="M 50.914062 17.296875 C 51.121094 17.296875 51.34375 17.167969 51.34375 16.945312 C 51.34375 16.910156 51.121094 16.65625 51.105469 16.625 C 50.128906 15.488281 49.089844 12.078125 49.089844 9.359375 C 49.089844 6.640625 50.175781 4.289062 51.152344 3.152344 C 51.183594 3.121094 51.359375 2.863281 51.359375 2.832031 C 51.359375 2.6875 51.121094 2.574219 51.007812 2.574219 C 50.847656 2.574219 50.671875 2.671875 50.578125 2.769531 C 49.441406 3.902344 47.761719 6.832031 47.761719 9.550781 C 47.761719 12.273438 49.503906 16.03125 50.640625 17.167969 C 50.722656 17.246094 50.816406 17.296875 50.914062 17.296875 Z M 50.914062 17.296875 "/>
<path style=" stroke:none;fill-rule:evenodd;fill:rgb(0%,0%,0%);fill-opacity:1;" d="M 52.929688 14.160156 C 53.3125 14.160156 53.664062 14.03125 54.113281 13.503906 C 54.640625 12.878906 55.152344 12.175781 55.664062 11.535156 C 55.792969 11.375 55.855469 11.375 55.921875 11.632812 L 56.273438 13.089844 C 56.464844 13.792969 56.6875 14.160156 57.28125 14.160156 C 58.210938 14.160156 58.945312 12.640625 58.945312 12.046875 C 58.945312 11.726562 58.882812 11.695312 58.800781 11.695312 C 58.722656 11.695312 58.65625 11.761719 58.59375 11.921875 C 58.273438 12.703125 57.839844 13.199219 57.535156 13.199219 C 57.425781 13.199219 57.28125 13.105469 57.199219 12.816406 L 56.65625 10.847656 C 56.578125 10.574219 56.609375 10.414062 56.6875 10.289062 C 57.089844 9.679688 57.441406 9.265625 57.746094 8.910156 C 58.113281 8.464844 58.402344 8.238281 58.65625 8.238281 C 58.800781 8.238281 58.898438 8.320312 59.007812 8.609375 C 59.074219 8.769531 59.167969 8.878906 59.296875 8.878906 C 59.570312 8.878906 59.96875 8.238281 59.953125 8 C 59.9375 7.742188 59.554688 7.3125 59.136719 7.3125 C 58.5625 7.3125 58.015625 7.808594 57.695312 8.257812 L 56.578125 9.855469 C 56.464844 10 56.386719 9.984375 56.351562 9.824219 L 55.953125 8.128906 C 55.808594 7.566406 55.617188 7.3125 55.28125 7.3125 C 54.578125 7.3125 53.570312 8.511719 53.570312 9.136719 C 53.570312 9.296875 53.601562 9.40625 53.679688 9.40625 C 53.824219 9.40625 53.90625 9.214844 53.953125 9.152344 C 54.351562 8.574219 54.6875 8.320312 54.847656 8.320312 C 54.976562 8.320312 55.023438 8.351562 55.089844 8.59375 L 55.695312 10.832031 C 55.730469 10.929688 55.730469 11.039062 55.648438 11.121094 C 54.976562 11.886719 54.625 12.351562 53.984375 13.007812 C 53.855469 13.136719 53.695312 13.214844 53.554688 13.199219 C 53.425781 13.199219 53.3125 13.089844 53.25 12.832031 C 53.21875 12.6875 53.152344 12.542969 52.992188 12.542969 C 52.722656 12.542969 52.273438 13.183594 52.273438 13.550781 C 52.273438 13.96875 52.609375 14.160156 52.929688 14.160156 Z M 52.929688 14.160156 "/>
<path style=" stroke:none;fill-rule:evenodd;fill:rgb(0%,0%,0%);fill-opacity:1;" d="M 61.378906 17.296875 C 61.472656 17.296875 61.570312 17.246094 61.648438 17.167969 C 62.785156 16.03125 64.527344 12.273438 64.527344 9.550781 C 64.527344 6.832031 62.847656 3.902344 61.714844 2.769531 C 61.617188 2.671875 61.441406 2.574219 61.28125 2.574219 C 61.167969 2.574219 60.929688 2.6875 60.929688 2.832031 C 60.929688 2.863281 61.105469 3.121094 61.136719 3.152344 C 62.113281 4.289062 63.199219 6.640625 63.199219 9.359375 C 63.199219 12.078125 62.160156 15.488281 61.183594 16.625 C 61.167969 16.65625 60.945312 16.910156 60.945312 16.945312 C 60.945312 17.167969 61.167969 17.296875 61.378906 17.296875 Z M 61.378906 17.296875 "/>
<path style=" stroke:none;fill-rule:nonzero;fill:rgb(0%,0%,0%);fill-opacity:1;" d="M 28.625 19.695312 L 66.128906 19.695312 L 66.128906 20.496094 L 28.625 20.496094 Z M 28.625 19.695312 "/>
<path style=" stroke:none;fill-rule:evenodd;fill:rgb(0%,0%,0%);fill-opacity:1;" d="M 44.160156 33.886719 C 44.546875 33.886719 44.898438 33.761719 45.34375 33.230469 C 45.875 32.609375 46.386719 31.902344 46.898438 31.265625 C 47.023438 31.105469 47.089844 31.105469 47.152344 31.359375 L 47.503906 32.816406 C 47.695312 33.519531 47.921875 33.886719 48.511719 33.886719 C 49.441406 33.886719 50.175781 32.367188 50.175781 31.777344 C 50.175781 31.457031 50.113281 31.425781 50.03125 31.425781 C 49.953125 31.425781 49.890625 31.488281 49.824219 31.648438 C 49.503906 32.433594 49.074219 32.929688 48.769531 32.929688 C 48.65625 32.929688 48.511719 32.832031 48.433594 32.542969 L 47.890625 30.574219 C 47.808594 30.304688 47.839844 30.144531 47.921875 30.015625 C 48.320312 29.40625 48.671875 28.992188 48.976562 28.640625 C 49.34375 28.191406 49.632812 27.96875 49.890625 27.96875 C 50.03125 27.96875 50.128906 28.046875 50.242188 28.335938 C 50.304688 28.496094 50.402344 28.609375 50.527344 28.609375 C 50.800781 28.609375 51.199219 27.96875 51.183594 27.726562 C 51.167969 27.472656 50.785156 27.039062 50.367188 27.039062 C 49.792969 27.039062 49.25 27.535156 48.929688 27.984375 L 47.808594 29.585938 C 47.695312 29.726562 47.617188 29.710938 47.585938 29.550781 L 47.183594 27.855469 C 47.042969 27.296875 46.847656 27.039062 46.511719 27.039062 C 45.808594 27.039062 44.800781 28.238281 44.800781 28.863281 C 44.800781 29.023438 44.832031 29.136719 44.914062 29.136719 C 45.058594 29.136719 45.136719 28.945312 45.183594 28.878906 C 45.585938 28.304688 45.921875 28.046875 46.082031 28.046875 C 46.210938 28.046875 46.257812 28.078125 46.320312 28.320312 L 46.929688 30.558594 C 46.960938 30.65625 46.960938 30.769531 46.882812 30.847656 C 46.210938 31.617188 45.855469 32.078125 45.21875 32.734375 C 45.089844 32.863281 44.929688 32.945312 44.785156 32.929688 C 44.65625 32.929688 44.546875 32.816406 44.480469 32.558594 C 44.449219 32.414062 44.386719 32.273438 44.226562 32.273438 C 43.953125 32.273438 43.503906 32.910156 43.503906 33.28125 C 43.503906 33.695312 43.839844 33.886719 44.160156 33.886719 Z M 44.160156 33.886719 "/>
<path style=" stroke:none;fill-rule:evenodd;fill:rgb(0%,0%,0%);fill-opacity:1;" d="M 78.773438 24.398438 C 78.839844 24.398438 78.855469 24.398438 79.03125 24.304688 C 79.78125 23.984375 80.308594 23.839844 80.902344 23.761719 C 81.015625 23.761719 81.125 23.617188 81.125 23.472656 C 81.125 23.34375 81.046875 23.3125 80.839844 23.328125 C 80.566406 23.359375 80.261719 23.375 80.152344 23.375 C 79.910156 23.375 79.8125 23.070312 79.8125 22.335938 L 79.8125 15.105469 C 79.8125 13.664062 79.925781 13.121094 79.925781 12.929688 C 79.910156 12.863281 79.878906 12.832031 79.8125 12.832031 C 79.765625 12.832031 79.6875 12.847656 79.605469 12.878906 C 79.300781 13.007812 78.824219 13.230469 77.878906 13.472656 C 77.78125 13.503906 77.75 13.585938 77.75 13.664062 C 77.75 13.761719 77.796875 13.855469 77.894531 13.871094 C 78.40625 13.96875 78.695312 14.175781 78.695312 15.039062 L 78.695312 17.3125 C 78.695312 17.601562 78.628906 17.695312 78.582031 17.695312 C 78.535156 17.695312 78.46875 17.679688 78.375 17.648438 C 78.132812 17.566406 77.65625 17.472656 77.222656 17.472656 C 74.980469 17.472656 73.621094 19.199219 73.621094 21.054688 C 73.621094 22.671875 74.757812 24.320312 76.582031 24.320312 C 77.636719 24.320312 78.359375 23.679688 78.679688 23.183594 L 78.679688 23.28125 C 78.679688 23.550781 78.597656 24.03125 78.597656 24.238281 C 78.597656 24.289062 78.726562 24.398438 78.773438 24.398438 Z M 77.160156 23.488281 C 76.453125 23.488281 74.757812 23.105469 74.757812 20.6875 C 74.757812 18.558594 75.992188 18.03125 76.726562 18.03125 C 77.910156 18.03125 78.695312 18.960938 78.695312 19.824219 L 78.679688 22.703125 C 78.277344 23.167969 77.71875 23.488281 77.160156 23.488281 Z M 77.160156 23.488281 "/>
<path style=" stroke:none;fill-rule:evenodd;fill:rgb(0%,0%,0%);fill-opacity:1;" d="M 81.925781 24.320312 C 82.308594 24.320312 82.664062 24.191406 83.109375 23.664062 C 83.636719 23.039062 84.152344 22.335938 84.664062 21.695312 C 84.789062 21.535156 84.855469 21.535156 84.917969 21.792969 L 85.269531 23.246094 C 85.460938 23.953125 85.6875 24.320312 86.277344 24.320312 C 87.207031 24.320312 87.941406 22.800781 87.941406 22.207031 C 87.941406 21.886719 87.878906 21.855469 87.796875 21.855469 C 87.71875 21.855469 87.65625 21.921875 87.589844 22.078125 C 87.269531 22.863281 86.839844 23.359375 86.535156 23.359375 C 86.421875 23.359375 86.277344 23.265625 86.199219 22.976562 L 85.65625 21.007812 C 85.574219 20.734375 85.605469 20.574219 85.6875 20.449219 C 86.085938 19.839844 86.4375 19.425781 86.742188 19.070312 C 87.109375 18.625 87.398438 18.398438 87.65625 18.398438 C 87.796875 18.398438 87.894531 18.480469 88.007812 18.769531 C 88.070312 18.929688 88.167969 19.039062 88.292969 19.039062 C 88.566406 19.039062 88.964844 18.398438 88.949219 18.160156 C 88.933594 17.902344 88.550781 17.472656 88.132812 17.472656 C 87.558594 17.472656 87.015625 17.96875 86.695312 18.414062 L 85.574219 20.015625 C 85.460938 20.160156 85.382812 20.144531 85.351562 19.984375 L 84.949219 18.289062 C 84.804688 17.726562 84.613281 17.472656 84.277344 17.472656 C 83.574219 17.472656 82.566406 18.671875 82.566406 19.296875 C 82.566406 19.457031 82.597656 19.566406 82.679688 19.566406 C 82.824219 19.566406 82.902344 19.375 82.949219 19.3125 C 83.351562 18.734375 83.6875 18.480469 83.847656 18.480469 C 83.972656 18.480469 84.023438 18.511719 84.085938 18.753906 L 84.695312 20.992188 C 84.726562 21.089844 84.726562 21.199219 84.644531 21.28125 C 83.972656 22.046875 83.621094 22.511719 82.980469 23.167969 C 82.855469 23.296875 82.695312 23.375 82.550781 23.359375 C 82.421875 23.359375 82.308594 23.246094 82.246094 22.992188 C 82.214844 22.847656 82.152344 22.703125 81.992188 22.703125 C 81.71875 22.703125 81.269531 23.34375 81.269531 23.710938 C 81.269531 24.128906 81.605469 24.320312 81.925781 24.320312 Z M 81.925781 24.320312 "/>
<path style=" stroke:none;fill-rule:evenodd;fill:rgb(0%,0%,0%);fill-opacity:1;" d="M 95.484375 19.070312 L 102.203125 19.070312 C 102.460938 19.070312 102.714844 18.671875 102.714844 18.449219 C 102.714844 18.351562 102.585938 18.273438 102.492188 18.273438 L 95.644531 18.273438 C 95.355469 18.273438 95.257812 18.734375 95.257812 18.878906 C 95.257812 18.976562 95.371094 19.070312 95.484375 19.070312 Z M 95.484375 21.808594 L 102.203125 21.808594 C 102.460938 21.808594 102.714844 21.472656 102.714844 21.183594 C 102.714844 21.089844 102.585938 21.007812 102.492188 21.007812 L 95.644531 21.007812 C 95.355469 21.007812 95.257812 21.472656 95.257812 21.617188 C 95.257812 21.710938 95.371094 21.808594 95.484375 21.808594 Z M 95.484375 21.808594 "/>
<path style=" stroke:none;fill-rule:evenodd;fill:rgb(0%,0%,0%);fill-opacity:1;" d="M 112.050781 35.601562 C 113.746094 35.601562 116.066406 33.535156 116.289062 31.230469 C 116.609375 27.855469 118.449219 9.199219 118.527344 8.527344 C 118.722656 7.105469 119.617188 5.472656 120.59375 5.472656 C 121.074219 5.472656 121.503906 5.792969 121.824219 6.367188 C 122.082031 6.847656 122.289062 7.199219 122.511719 7.199219 C 122.863281 7.199219 123.28125 6.894531 123.28125 6.320312 C 123.28125 5.328125 122.417969 4.59375 121.042969 4.59375 C 119.007812 4.59375 117.441406 6.527344 117.058594 9.679688 L 114.929688 31.34375 C 114.671875 33.808594 113.617188 34.734375 112.800781 34.734375 C 112.289062 34.734375 111.921875 34.511719 111.617188 34.222656 C 111.296875 33.921875 111.089844 33.617188 110.863281 33.617188 C 110.609375 33.617188 110.128906 34.046875 110.128906 34.480469 C 110.128906 35.214844 110.945312 35.601562 112.050781 35.601562 Z M 112.050781 35.601562 "/>
<path style=" stroke:none;fill-rule:evenodd;fill:rgb(0%,0%,0%);fill-opacity:1;" d="M 126.6875 7.464844 C 127.675781 7.464844 128.199219 6.558594 128.515625 5.988281 C 128.570312 5.875 128.617188 5.863281 128.671875 5.953125 C 129.210938 6.804688 129.679688 7.464844 130.585938 7.464844 C 131.742188 7.464844 132.558594 6.355469 132.558594 5.257812 C 132.558594 4.230469 131.851562 3.277344 130.820312 3.277344 C 129.835938 3.277344 129.308594 4.160156 128.996094 4.734375 C 128.953125 4.8125 128.894531 4.855469 128.839844 4.765625 C 128.300781 3.914062 127.832031 3.277344 126.925781 3.277344 C 125.769531 3.277344 124.953125 4.386719 124.953125 5.484375 C 124.953125 6.511719 125.660156 7.464844 126.6875 7.464844 Z M 126.867188 6.660156 C 126.0625 6.660156 125.277344 6.132812 125.277344 5.328125 C 125.277344 4.664062 125.894531 4.0625 126.609375 4.0625 C 127.304688 4.0625 127.886719 4.832031 128.335938 5.484375 C 128.402344 5.574219 128.449219 5.640625 128.449219 5.707031 C 128.449219 5.742188 128.425781 5.785156 128.378906 5.839844 C 127.988281 6.324219 127.585938 6.660156 126.867188 6.660156 Z M 130.945312 6.703125 C 130.25 6.703125 129.65625 5.921875 129.210938 5.269531 C 129.140625 5.179688 129.097656 5.113281 129.097656 5.046875 C 129.097656 5.011719 129.121094 4.96875 129.164062 4.910156 C 129.554688 4.429688 129.925781 4.082031 130.644531 4.082031 C 131.449219 4.082031 132.234375 4.609375 132.234375 5.414062 C 132.234375 6.078125 131.652344 6.703125 130.945312 6.703125 Z M 130.945312 6.703125 "/>
<path style=" stroke:none;fill-rule:evenodd;fill:rgb(0%,0%,0%);fill-opacity:1;" d="M 119.453125 35.511719 L 124.550781 35.511719 C 124.75 35.511719 124.898438 35.222656 124.898438 34.976562 C 124.898438 34.910156 124.820312 34.839844 124.75 34.839844 L 119.566406 34.839844 C 119.332031 34.839844 119.296875 35.277344 119.296875 35.378906 C 119.296875 35.445312 119.375 35.511719 119.453125 35.511719 Z M 119.453125 35.511719 "/>
<path style=" stroke:none;fill-rule:evenodd;fill:rgb(0%,0%,0%);fill-opacity:1;" d="M 127.585938 37.195312 C 128.570312 37.195312 129.097656 36.285156 129.410156 35.714844 C 129.464844 35.601562 129.511719 35.59375 129.566406 35.679688 C 130.105469 36.53125 130.574219 37.195312 131.484375 37.195312 C 132.636719 37.195312 133.453125 36.085938 133.453125 34.988281 C 133.453125 33.957031 132.75 33.003906 131.71875 33.003906 C 130.730469 33.003906 130.207031 33.890625 129.890625 34.460938 C 129.847656 34.539062 129.792969 34.585938 129.734375 34.496094 C 129.199219 33.644531 128.726562 33.003906 127.820312 33.003906 C 126.667969 33.003906 125.847656 34.113281 125.847656 35.210938 C 125.847656 36.242188 126.554688 37.195312 127.585938 37.195312 Z M 127.765625 36.386719 C 126.957031 36.386719 126.175781 35.859375 126.175781 35.054688 C 126.175781 34.394531 126.789062 33.789062 127.507812 33.789062 C 128.199219 33.789062 128.785156 34.5625 129.230469 35.210938 C 129.296875 35.300781 129.34375 35.367188 129.34375 35.433594 C 129.34375 35.46875 129.320312 35.511719 129.277344 35.570312 C 128.882812 36.050781 128.480469 36.386719 127.765625 36.386719 Z M 131.839844 36.433594 C 131.148438 36.433594 130.554688 35.648438 130.105469 35 C 130.039062 34.910156 129.992188 34.839844 129.992188 34.773438 C 129.992188 34.742188 130.015625 34.695312 130.058594 34.640625 C 130.453125 34.160156 130.820312 33.8125 131.539062 33.8125 C 132.34375 33.8125 133.128906 34.335938 133.128906 35.144531 C 133.128906 35.804688 132.546875 36.433594 131.839844 36.433594 Z M 131.839844 36.433594 "/>
<path style=" stroke:none;fill-rule:evenodd;fill:rgb(0%,0%,0%);fill-opacity:1;" d="M 139.777344 14.160156 C 141.171875 14.160156 142.128906 13.359375 142.128906 12.207031 C 142.128906 11.214844 141.523438 10.71875 140.289062 10.015625 C 139.425781 9.519531 139.1875 9.199219 139.1875 8.703125 C 139.1875 8.097656 139.683594 7.761719 140.210938 7.761719 C 140.816406 7.761719 141.21875 8.144531 141.507812 8.847656 C 141.539062 8.929688 141.683594 8.992188 141.808594 8.992188 C 141.890625 8.992188 141.96875 8.960938 141.96875 8.878906 C 141.96875 8.433594 141.824219 7.855469 141.667969 7.617188 C 141.457031 7.472656 141.027344 7.3125 140.386719 7.3125 C 138.945312 7.3125 138.226562 8.128906 138.226562 9.152344 C 138.226562 9.953125 138.65625 10.464844 139.746094 11.136719 C 140.707031 11.726562 141.042969 12.0625 141.042969 12.640625 C 141.042969 13.265625 140.546875 13.726562 139.921875 13.726562 C 139.296875 13.726562 138.609375 13.328125 138.339844 12.273438 C 138.320312 12.191406 138.226562 12.160156 138.144531 12.160156 C 138.035156 12.160156 137.9375 12.207031 137.9375 12.304688 C 137.953125 12.671875 138.003906 13.359375 138.113281 13.585938 C 138.515625 13.953125 139.121094 14.160156 139.777344 14.160156 Z M 139.777344 14.160156 "/>
<path style=" stroke:none;fill-rule:evenodd;fill:rgb(0%,0%,0%);fill-opacity:1;" d="M 144.625 5.679688 C 145.089844 5.679688 145.441406 5.328125 145.441406 4.878906 C 145.441406 4.414062 145.089844 4.0625 144.625 4.0625 C 144.179688 4.0625 143.824219 4.414062 143.824219 4.878906 C 143.824219 5.328125 144.179688 5.679688 144.625 5.679688 Z M 143.347656 13.984375 C 143.96875 13.984375 144.082031 13.902344 144.640625 13.902344 C 145.203125 13.902344 145.332031 13.984375 145.9375 13.984375 C 146.144531 13.984375 146.257812 13.9375 146.257812 13.808594 C 146.257812 13.648438 146.066406 13.601562 145.890625 13.550781 C 145.457031 13.441406 145.203125 13.3125 145.203125 12.945312 L 145.203125 9.230469 C 145.203125 8.511719 145.347656 7.328125 145.347656 7.070312 C 145.347656 7.023438 145.3125 6.992188 145.25 6.992188 C 145.1875 6.992188 145.105469 7.039062 145.027344 7.105469 C 144.753906 7.328125 144.195312 7.710938 143.347656 7.902344 C 143.25 7.921875 143.203125 7.984375 143.203125 8.097656 C 143.203125 8.222656 143.25 8.289062 143.363281 8.304688 C 143.90625 8.382812 144.082031 8.894531 144.082031 9.472656 L 144.082031 12.945312 C 144.082031 13.328125 143.84375 13.441406 143.394531 13.550781 C 143.21875 13.601562 143.027344 13.648438 143.027344 13.808594 C 143.027344 13.9375 143.152344 13.984375 143.347656 13.984375 Z M 143.347656 13.984375 "/>
<path style=" stroke:none;fill-rule:evenodd;fill:rgb(0%,0%,0%);fill-opacity:1;" d="M 147.265625 13.984375 C 147.90625 13.984375 148.003906 13.902344 148.5625 13.902344 C 149.121094 13.902344 149.21875 13.984375 149.859375 13.984375 C 150.066406 13.984375 150.179688 13.9375 150.179688 13.808594 C 150.179688 13.679688 150.066406 13.617188 149.808594 13.550781 C 149.488281 13.472656 149.121094 13.375 149.121094 12.945312 L 149.121094 9.089844 C 149.121094 8.960938 149.171875 8.800781 149.25 8.71875 C 149.699219 8.351562 150.257812 8.078125 151.027344 8.078125 C 151.890625 8.097656 152.464844 8.65625 152.464844 9.585938 L 152.464844 12.945312 C 152.464844 13.375 152.097656 13.457031 151.777344 13.550781 C 151.601562 13.617188 151.410156 13.679688 151.410156 13.839844 C 151.410156 13.96875 151.617188 13.984375 151.730469 13.984375 C 152.371094 13.984375 152.480469 13.902344 153.042969 13.902344 C 153.601562 13.902344 153.683594 13.984375 154.320312 13.984375 C 154.449219 13.984375 154.640625 13.96875 154.640625 13.839844 C 154.640625 13.679688 154.449219 13.617188 154.273438 13.550781 C 153.953125 13.457031 153.585938 13.375 153.585938 12.945312 L 153.585938 9.535156 C 153.585938 8.289062 152.816406 7.3125 151.777344 7.3125 C 150.769531 7.3125 149.953125 7.664062 149.203125 8.382812 C 149.1875 8.367188 149.171875 8.289062 149.171875 8.191406 C 149.171875 7.886719 149.25 7.3125 149.25 7.167969 C 149.25 7.105469 149.21875 7.054688 149.171875 7.054688 C 149.105469 7.054688 149.058594 7.089844 148.992188 7.136719 C 148.546875 7.472656 148.128906 7.761719 147.394531 7.953125 C 147.296875 7.96875 147.25 8.03125 147.25 8.144531 C 147.25 8.273438 147.3125 8.320312 147.410156 8.351562 C 147.953125 8.496094 148.003906 8.929688 148.003906 9.503906 L 148.003906 12.945312 C 148.003906 13.375 147.632812 13.472656 147.3125 13.550781 C 147.074219 13.617188 146.945312 13.648438 146.945312 13.808594 C 146.945312 13.9375 147.074219 13.984375 147.265625 13.984375 Z M 147.265625 13.984375 "/>
<path style=" stroke:none;fill-rule:evenodd;fill:rgb(0%,0%,0%);fill-opacity:1;" d="M 159.535156 7.089844 C 159.613281 7.089844 159.738281 7.054688 159.78125 6.820312 C 159.894531 6.261719 160.117188 5.800781 160.117188 5.691406 C 160.117188 5.632812 160.105469 5.554688 160.039062 5.554688 C 159.914062 5.554688 159.816406 5.722656 159.757812 5.8125 C 159.480469 6.261719 159.332031 6.304688 158.695312 6.339844 C 158.292969 6.363281 157.84375 6.371094 157.417969 6.371094 C 157.003906 6.371094 156.679688 6.363281 156.433594 6.339844 C 156.34375 6.328125 156.277344 6.316406 156.277344 6.261719 C 156.277344 6.203125 158.125 4.414062 158.628906 3.808594 C 159.097656 3.238281 159.445312 2.453125 159.445312 1.847656 C 159.445312 0.761719 158.773438 0 157.652344 0 C 156.386719 0 155.46875 1.097656 155.46875 1.445312 C 155.46875 1.644531 155.582031 1.78125 155.636719 1.78125 C 155.703125 1.78125 155.78125 1.714844 155.828125 1.625 C 156.140625 1.085938 156.691406 0.71875 157.304688 0.71875 C 157.945312 0.71875 158.503906 1.199219 158.503906 1.992188 C 158.503906 2.980469 157.957031 3.988281 157.207031 4.761719 L 155.289062 6.742188 C 155.222656 6.808594 155.199219 6.820312 155.199219 6.886719 C 155.199219 6.957031 155.367188 7.078125 155.425781 7.078125 C 155.648438 7.078125 157.464844 7.023438 158.023438 7.023438 C 158.582031 7.023438 159.3125 7.089844 159.535156 7.089844 Z M 159.535156 7.089844 "/>
<path style=" stroke:none;fill-rule:evenodd;fill:rgb(0%,0%,0%);fill-opacity:1;" d="M 165.238281 17.296875 C 165.445312 17.296875 165.671875 17.167969 165.671875 16.945312 C 165.671875 16.910156 165.445312 16.65625 165.429688 16.625 C 164.453125 15.488281 163.414062 12.078125 163.414062 9.359375 C 163.414062 6.640625 164.503906 4.289062 165.480469 3.152344 C 165.511719 3.121094 165.6875 2.863281 165.6875 2.832031 C 165.6875 2.6875 165.445312 2.574219 165.335938 2.574219 C 165.175781 2.574219 165 2.671875 164.902344 2.769531 C 163.765625 3.902344 162.085938 6.832031 162.085938 9.550781 C 162.085938 12.273438 163.832031 16.03125 164.96875 17.167969 C 165.046875 17.246094 165.144531 17.296875 165.238281 17.296875 Z M 165.238281 17.296875 "/>
<path style=" stroke:none;fill-rule:evenodd;fill:rgb(0%,0%,0%);fill-opacity:1;" d="M 167.253906 14.160156 C 167.640625 14.160156 167.992188 14.03125 168.4375 13.503906 C 168.96875 12.878906 169.480469 12.175781 169.992188 11.535156 C 170.117188 11.375 170.183594 11.375 170.246094 11.632812 L 170.597656 13.089844 C 170.789062 13.792969 171.015625 14.160156 171.605469 14.160156 C 172.535156 14.160156 173.269531 12.640625 173.269531 12.046875 C 173.269531 11.726562 173.207031 11.695312 173.125 11.695312 C 173.046875 11.695312 172.984375 11.761719 172.917969 11.921875 C 172.597656 12.703125 172.167969 13.199219 171.863281 13.199219 C 171.75 13.199219 171.605469 13.105469 171.527344 12.816406 L 170.984375 10.847656 C 170.902344 10.574219 170.933594 10.414062 171.015625 10.289062 C 171.414062 9.679688 171.765625 9.265625 172.070312 8.910156 C 172.4375 8.464844 172.726562 8.238281 172.984375 8.238281 C 173.125 8.238281 173.222656 8.320312 173.335938 8.609375 C 173.398438 8.769531 173.496094 8.878906 173.621094 8.878906 C 173.894531 8.878906 174.296875 8.238281 174.277344 8 C 174.261719 7.742188 173.878906 7.3125 173.464844 7.3125 C 172.886719 7.3125 172.34375 7.808594 172.023438 8.257812 L 170.902344 9.855469 C 170.789062 10 170.710938 9.984375 170.679688 9.824219 L 170.277344 8.128906 C 170.136719 7.566406 169.941406 7.3125 169.605469 7.3125 C 168.902344 7.3125 167.894531 8.511719 167.894531 9.136719 C 167.894531 9.296875 167.925781 9.40625 168.007812 9.40625 C 168.152344 9.40625 168.230469 9.214844 168.277344 9.152344 C 168.679688 8.574219 169.015625 8.320312 169.175781 8.320312 C 169.304688 8.320312 169.351562 8.351562 169.414062 8.59375 L 170.023438 10.832031 C 170.054688 10.929688 170.054688 11.039062 169.976562 11.121094 C 169.304688 11.886719 168.949219 12.351562 168.3125 13.007812 C 168.183594 13.136719 168.023438 13.214844 167.878906 13.199219 C 167.75 13.199219 167.640625 13.089844 167.574219 12.832031 C 167.542969 12.6875 167.480469 12.542969 167.320312 12.542969 C 167.046875 12.542969 166.597656 13.183594 166.597656 13.550781 C 166.597656 13.96875 166.933594 14.160156 167.253906 14.160156 Z M 167.253906 14.160156 "/>
<path style=" stroke:none;fill-rule:evenodd;fill:rgb(0%,0%,0%);fill-opacity:1;" d="M 175.703125 17.296875 C 175.800781 17.296875 175.894531 17.246094 175.976562 17.167969 C 177.109375 16.03125 178.855469 12.273438 178.855469 9.550781 C 178.855469 6.832031 177.175781 3.902344 176.039062 2.769531 C 175.941406 2.671875 175.765625 2.574219 175.605469 2.574219 C 175.496094 2.574219 175.253906 2.6875 175.253906 2.832031 C 175.253906 2.863281 175.429688 3.121094 175.464844 3.152344 C 176.4375 4.289062 177.527344 6.640625 177.527344 9.359375 C 177.527344 12.078125 176.488281 15.488281 175.511719 16.625 C 175.496094 16.65625 175.269531 16.910156 175.269531 16.945312 C 175.269531 17.167969 175.496094 17.296875 175.703125 17.296875 Z M 175.703125 17.296875 "/>
<path style=" stroke:none;fill-rule:nonzero;fill:rgb(0%,0%,0%);fill-opacity:1;" d="M 137.472656 19.695312 L 180.453125 19.695312 L 180.453125 20.496094 L 137.472656 20.496094 Z M 137.472656 19.695312 "/>
<path style=" stroke:none;fill-rule:evenodd;fill:rgb(0%,0%,0%);fill-opacity:1;" d="M 153.011719 34.976562 C 153.394531 34.976562 153.746094 34.847656 154.195312 34.320312 C 154.722656 33.695312 155.234375 32.992188 155.746094 32.351562 C 155.875 32.191406 155.9375 32.191406 156.003906 32.449219 L 156.355469 33.902344 C 156.546875 34.609375 156.769531 34.976562 157.363281 34.976562 C 158.289062 34.976562 159.027344 33.457031 159.027344 32.863281 C 159.027344 32.542969 158.960938 32.511719 158.882812 32.511719 C 158.800781 32.511719 158.738281 32.574219 158.675781 32.734375 C 158.355469 33.519531 157.921875 34.015625 157.617188 34.015625 C 157.507812 34.015625 157.363281 33.921875 157.28125 33.632812 L 156.738281 31.664062 C 156.65625 31.390625 156.691406 31.230469 156.769531 31.105469 C 157.171875 30.496094 157.523438 30.078125 157.824219 29.726562 C 158.195312 29.28125 158.480469 29.054688 158.738281 29.054688 C 158.882812 29.054688 158.976562 29.136719 159.089844 29.425781 C 159.152344 29.585938 159.25 29.695312 159.378906 29.695312 C 159.648438 29.695312 160.050781 29.054688 160.035156 28.816406 C 160.019531 28.558594 159.632812 28.128906 159.21875 28.128906 C 158.640625 28.128906 158.097656 28.625 157.777344 29.070312 L 156.65625 30.671875 C 156.546875 30.816406 156.464844 30.800781 156.433594 30.640625 L 156.035156 28.945312 C 155.890625 28.382812 155.699219 28.128906 155.363281 28.128906 C 154.65625 28.128906 153.648438 29.328125 153.648438 29.953125 C 153.648438 30.113281 153.683594 30.222656 153.761719 30.222656 C 153.90625 30.222656 153.984375 30.03125 154.035156 29.96875 C 154.433594 29.390625 154.769531 29.136719 154.929688 29.136719 C 155.058594 29.136719 155.105469 29.167969 155.171875 29.40625 L 155.777344 31.648438 C 155.808594 31.742188 155.808594 31.855469 155.730469 31.9375 C 155.058594 32.703125 154.707031 33.167969 154.066406 33.824219 C 153.9375 33.953125 153.777344 34.03125 153.632812 34.015625 C 153.507812 34.015625 153.394531 33.902344 153.332031 33.648438 C 153.296875 33.503906 153.234375 33.359375 153.074219 33.359375 C 152.800781 33.359375 152.355469 34 152.355469 34.367188 C 152.355469 34.785156 152.691406 34.976562 153.011719 34.976562 Z M 153.011719 34.976562 "/>
<path style=" stroke:none;fill-rule:evenodd;fill:rgb(0%,0%,0%);fill-opacity:1;" d="M 164.734375 29.984375 C 164.8125 29.984375 164.9375 29.953125 164.980469 29.71875 C 165.09375 29.15625 165.316406 28.699219 165.316406 28.585938 C 165.316406 28.53125 165.304688 28.453125 165.238281 28.453125 C 165.117188 28.453125 165.015625 28.621094 164.957031 28.707031 C 164.679688 29.15625 164.535156 29.203125 163.894531 29.234375 C 163.492188 29.257812 163.042969 29.269531 162.617188 29.269531 C 162.203125 29.269531 161.878906 29.257812 161.632812 29.234375 C 161.542969 29.222656 161.476562 29.210938 161.476562 29.15625 C 161.476562 29.101562 163.324219 27.308594 163.828125 26.703125 C 164.296875 26.132812 164.644531 25.347656 164.644531 24.742188 C 164.644531 23.65625 163.972656 22.894531 162.851562 22.894531 C 161.585938 22.894531 160.667969 23.992188 160.667969 24.339844 C 160.667969 24.542969 160.78125 24.675781 160.835938 24.675781 C 160.90625 24.675781 160.984375 24.609375 161.027344 24.519531 C 161.339844 23.980469 161.890625 23.613281 162.507812 23.613281 C 163.144531 23.613281 163.703125 24.09375 163.703125 24.890625 C 163.703125 25.875 163.15625 26.882812 162.40625 27.65625 L 160.488281 29.636719 C 160.421875 29.707031 160.402344 29.71875 160.402344 29.785156 C 160.402344 29.851562 160.570312 29.972656 160.625 29.972656 C 160.847656 29.972656 162.664062 29.917969 163.222656 29.917969 C 163.78125 29.917969 164.511719 29.984375 164.734375 29.984375 Z M 164.734375 29.984375 "/>
<path style=" stroke:none;fill-rule:evenodd;fill:rgb(0%,0%,0%);fill-opacity:1;" d="M 193.101562 24.398438 C 193.164062 24.398438 193.179688 24.398438 193.355469 24.304688 C 194.109375 23.984375 194.636719 23.839844 195.226562 23.761719 C 195.339844 23.761719 195.453125 23.617188 195.453125 23.472656 C 195.453125 23.34375 195.371094 23.3125 195.164062 23.328125 C 194.890625 23.359375 194.589844 23.375 194.476562 23.375 C 194.234375 23.375 194.140625 23.070312 194.140625 22.335938 L 194.140625 15.105469 C 194.140625 13.664062 194.253906 13.121094 194.253906 12.929688 C 194.234375 12.863281 194.203125 12.832031 194.140625 12.832031 C 194.09375 12.832031 194.011719 12.847656 193.933594 12.878906 C 193.628906 13.007812 193.148438 13.230469 192.203125 13.472656 C 192.109375 13.503906 192.078125 13.585938 192.078125 13.664062 C 192.078125 13.761719 192.125 13.855469 192.21875 13.871094 C 192.730469 13.96875 193.019531 14.175781 193.019531 15.039062 L 193.019531 17.3125 C 193.019531 17.601562 192.957031 17.695312 192.910156 17.695312 C 192.859375 17.695312 192.796875 17.679688 192.699219 17.648438 C 192.460938 17.566406 191.980469 17.472656 191.546875 17.472656 C 189.308594 17.472656 187.949219 19.199219 187.949219 21.054688 C 187.949219 22.671875 189.085938 24.320312 190.910156 24.320312 C 191.964844 24.320312 192.683594 23.679688 193.003906 23.183594 L 193.003906 23.28125 C 193.003906 23.550781 192.925781 24.03125 192.925781 24.238281 C 192.925781 24.289062 193.050781 24.398438 193.101562 24.398438 Z M 191.484375 23.488281 C 190.78125 23.488281 189.085938 23.105469 189.085938 20.6875 C 189.085938 18.558594 190.316406 18.03125 191.050781 18.03125 C 192.234375 18.03125 193.019531 18.960938 193.019531 19.824219 L 193.003906 22.703125 C 192.605469 23.167969 192.042969 23.488281 191.484375 23.488281 Z M 191.484375 23.488281 "/>
<path style=" stroke:none;fill-rule:evenodd;fill:rgb(0%,0%,0%);fill-opacity:1;" d="M 196.253906 24.320312 C 196.636719 24.320312 196.988281 24.191406 197.4375 23.664062 C 197.964844 23.039062 198.476562 22.335938 198.988281 21.695312 C 199.117188 21.535156 199.179688 21.535156 199.246094 21.792969 L 199.597656 23.246094 C 199.789062 23.953125 200.011719 24.320312 200.605469 24.320312 C 201.53125 24.320312 202.269531 22.800781 202.269531 22.207031 C 202.269531 21.886719 202.203125 21.855469 202.125 21.855469 C 202.042969 21.855469 201.980469 21.921875 201.917969 22.078125 C 201.597656 22.863281 201.164062 23.359375 200.859375 23.359375 C 200.75 23.359375 200.605469 23.265625 200.523438 22.976562 L 199.980469 21.007812 C 199.898438 20.734375 199.933594 20.574219 200.011719 20.449219 C 200.414062 19.839844 200.765625 19.425781 201.066406 19.070312 C 201.4375 18.625 201.722656 18.398438 201.980469 18.398438 C 202.125 18.398438 202.21875 18.480469 202.332031 18.769531 C 202.394531 18.929688 202.492188 19.039062 202.621094 19.039062 C 202.890625 19.039062 203.292969 18.398438 203.277344 18.160156 C 203.261719 17.902344 202.875 17.472656 202.460938 17.472656 C 201.882812 17.472656 201.339844 17.96875 201.019531 18.414062 L 199.898438 20.015625 C 199.789062 20.160156 199.707031 20.144531 199.675781 19.984375 L 199.277344 18.289062 C 199.132812 17.726562 198.941406 17.472656 198.605469 17.472656 C 197.898438 17.472656 196.890625 18.671875 196.890625 19.296875 C 196.890625 19.457031 196.925781 19.566406 197.003906 19.566406 C 197.148438 19.566406 197.226562 19.375 197.277344 19.3125 C 197.675781 18.734375 198.011719 18.480469 198.171875 18.480469 C 198.300781 18.480469 198.347656 18.511719 198.414062 18.753906 L 199.019531 20.992188 C 199.050781 21.089844 199.050781 21.199219 198.972656 21.28125 C 198.300781 22.046875 197.949219 22.511719 197.308594 23.167969 C 197.179688 23.296875 197.019531 23.375 196.875 23.359375 C 196.75 23.359375 196.636719 23.246094 196.574219 22.992188 C 196.539062 22.847656 196.476562 22.703125 196.316406 22.703125 C 196.042969 22.703125 195.597656 23.34375 195.597656 23.710938 C 195.597656 24.128906 195.933594 24.320312 196.253906 24.320312 Z M 196.253906 24.320312 "/>
</g>
</svg>
