<?xml version="1.0" encoding="UTF-8"?>
<svg xmlns="http://www.w3.org/2000/svg" xmlns:xlink="http://www.w3.org/1999/xlink" width="508.630687pt" height="95.000005pt" viewBox="0 0 508.630687 95.000005" version="1.1">
<g id="surface1">
<path style=" stroke:none;fill-rule:evenodd;fill:rgb(0%,0%,0%);fill-opacity:1;" d="M 8 89 C 12.238281 89 18.039062 83.839844 18.601562 78.078125 C 19.398438 69.640625 24 23 24.199219 21.320312 C 24.679688 17.761719 26.921875 13.679688 29.359375 13.679688 C 30.558594 13.679688 31.640625 14.480469 32.441406 15.921875 C 33.078125 17.121094 33.601562 18 34.160156 18 C 35.039062 18 36.078125 17.238281 36.078125 15.800781 C 36.078125 13.320312 33.921875 11.480469 30.480469 11.480469 C 25.398438 11.480469 21.480469 16.320312 20.519531 24.199219 L 15.199219 78.359375 C 14.558594 84.519531 11.921875 86.839844 9.878906 86.839844 C 8.601562 86.839844 7.679688 86.28125 6.921875 85.558594 C 6.121094 84.800781 5.601562 84.039062 5.039062 84.039062 C 4.398438 84.039062 3.199219 85.121094 3.199219 86.199219 C 3.199219 88.039062 5.238281 89 8 89 Z M 8 89 "/>
<path style=" stroke:none;fill-rule:evenodd;fill:rgb(0%,0%,0%);fill-opacity:1;" d="M 44.601562 18.664062 C 47.0625 18.664062 48.378906 16.394531 49.164062 14.96875 C 49.304688 14.6875 49.414062 14.660156 49.554688 14.882812 C 50.898438 17.011719 52.074219 18.664062 54.34375 18.664062 C 57.226562 18.664062 59.273438 15.890625 59.273438 13.148438 C 59.273438 10.570312 57.507812 8.191406 54.933594 8.191406 C 52.46875 8.191406 51.152344 10.402344 50.367188 11.832031 C 50.257812 12.027344 50.117188 12.140625 49.976562 11.914062 C 48.632812 9.789062 47.457031 8.191406 45.1875 8.191406 C 42.304688 8.191406 40.261719 10.964844 40.261719 13.707031 C 40.261719 16.285156 42.023438 18.664062 44.601562 18.664062 Z M 45.046875 16.648438 C 43.03125 16.648438 41.070312 15.332031 41.070312 13.316406 C 41.070312 11.664062 42.613281 10.152344 44.402344 10.152344 C 46.140625 10.152344 47.597656 12.085938 48.714844 13.707031 C 48.882812 13.933594 48.996094 14.101562 48.996094 14.269531 C 48.996094 14.351562 48.941406 14.464844 48.828125 14.605469 C 47.847656 15.808594 46.839844 16.648438 45.046875 16.648438 Z M 55.238281 16.761719 C 53.503906 16.761719 52.019531 14.800781 50.898438 13.175781 C 50.730469 12.953125 50.621094 12.785156 50.621094 12.617188 C 50.621094 12.53125 50.675781 12.421875 50.789062 12.28125 C 51.769531 11.074219 52.691406 10.207031 54.484375 10.207031 C 56.5 10.207031 58.460938 11.523438 58.460938 13.539062 C 58.460938 15.191406 57.003906 16.761719 55.238281 16.761719 Z M 55.238281 16.761719 "/>
<path style=" stroke:none;fill-rule:evenodd;fill:rgb(0%,0%,0%);fill-opacity:1;" d="M 26.511719 88.785156 L 39.253906 88.785156 C 39.757812 88.785156 40.121094 88.054688 40.121094 87.441406 C 40.121094 87.273438 39.925781 87.105469 39.757812 87.105469 L 26.792969 87.105469 C 26.203125 87.105469 26.121094 88.195312 26.121094 88.449219 C 26.121094 88.617188 26.316406 88.785156 26.511719 88.785156 Z M 26.511719 88.785156 "/>
<path style=" stroke:none;fill-rule:evenodd;fill:rgb(0%,0%,0%);fill-opacity:1;" d="M 46.839844 92.984375 C 49.304688 92.984375 50.621094 90.714844 51.402344 89.289062 C 51.542969 89.007812 51.65625 88.980469 51.796875 89.203125 C 53.140625 91.332031 54.316406 92.984375 56.585938 92.984375 C 59.46875 92.984375 61.511719 90.210938 61.511719 87.46875 C 61.511719 84.890625 59.746094 82.511719 57.171875 82.511719 C 54.707031 82.511719 53.390625 84.722656 52.609375 86.152344 C 52.496094 86.347656 52.355469 86.460938 52.214844 86.234375 C 50.871094 84.109375 49.695312 82.511719 47.429688 82.511719 C 44.542969 82.511719 42.5 85.285156 42.5 88.027344 C 42.5 90.605469 44.265625 92.984375 46.839844 92.984375 Z M 47.289062 90.96875 C 45.273438 90.96875 43.3125 89.652344 43.3125 87.636719 C 43.3125 85.984375 44.851562 84.472656 46.644531 84.472656 C 48.378906 84.472656 49.835938 86.402344 50.957031 88.027344 C 51.125 88.253906 51.234375 88.421875 51.234375 88.589844 C 51.234375 88.671875 51.179688 88.785156 51.066406 88.925781 C 50.089844 90.128906 49.078125 90.96875 47.289062 90.96875 Z M 57.480469 91.078125 C 55.742188 91.078125 54.261719 89.121094 53.140625 87.496094 C 52.972656 87.273438 52.859375 87.105469 52.859375 86.9375 C 52.859375 86.851562 52.914062 86.738281 53.027344 86.601562 C 54.007812 85.394531 54.933594 84.527344 56.722656 84.527344 C 58.738281 84.527344 60.699219 85.84375 60.699219 87.859375 C 60.699219 89.511719 59.242188 91.078125 57.480469 91.078125 Z M 57.480469 91.078125 "/>
<path style=" stroke:none;fill-rule:evenodd;fill:rgb(0%,0%,0%);fill-opacity:1;" d="M 77.324219 35.398438 C 80.800781 35.398438 83.203125 33.398438 83.203125 30.519531 C 83.203125 28.039062 81.683594 26.800781 78.601562 25.039062 C 76.441406 23.800781 75.84375 23 75.84375 21.761719 C 75.84375 20.238281 77.082031 19.398438 78.402344 19.398438 C 79.921875 19.398438 80.921875 20.359375 81.644531 22.121094 C 81.722656 22.320312 82.082031 22.480469 82.402344 22.480469 C 82.601562 22.480469 82.800781 22.398438 82.800781 22.199219 C 82.800781 21.078125 82.441406 19.640625 82.042969 19.039062 C 81.523438 18.679688 80.441406 18.28125 78.84375 18.28125 C 75.242188 18.28125 73.441406 20.320312 73.441406 22.878906 C 73.441406 24.878906 74.523438 26.160156 77.242188 27.839844 C 79.644531 29.320312 80.484375 30.160156 80.484375 31.601562 C 80.484375 33.160156 79.242188 34.320312 77.683594 34.320312 C 76.121094 34.320312 74.402344 33.320312 73.722656 30.679688 C 73.683594 30.480469 73.441406 30.398438 73.242188 30.398438 C 72.960938 30.398438 72.722656 30.519531 72.722656 30.761719 C 72.761719 31.679688 72.882812 33.398438 73.164062 33.960938 C 74.164062 34.878906 75.683594 35.398438 77.324219 35.398438 Z M 77.324219 35.398438 "/>
<path style=" stroke:none;fill-rule:evenodd;fill:rgb(0%,0%,0%);fill-opacity:1;" d="M 89.441406 14.199219 C 90.601562 14.199219 91.484375 13.320312 91.484375 12.199219 C 91.484375 11.039062 90.601562 10.160156 89.441406 10.160156 C 88.324219 10.160156 87.441406 11.039062 87.441406 12.199219 C 87.441406 13.320312 88.324219 14.199219 89.441406 14.199219 Z M 86.242188 34.960938 C 87.800781 34.960938 88.082031 34.761719 89.484375 34.761719 C 90.882812 34.761719 91.203125 34.960938 92.722656 34.960938 C 93.242188 34.960938 93.523438 34.839844 93.523438 34.519531 C 93.523438 34.121094 93.042969 34 92.601562 33.878906 C 91.523438 33.601562 90.882812 33.28125 90.882812 32.359375 L 90.882812 23.078125 C 90.882812 21.28125 91.242188 18.320312 91.242188 17.679688 C 91.242188 17.558594 91.164062 17.480469 91.003906 17.480469 C 90.84375 17.480469 90.644531 17.601562 90.441406 17.761719 C 89.761719 18.320312 88.363281 19.28125 86.242188 19.761719 C 86.003906 19.800781 85.882812 19.960938 85.882812 20.238281 C 85.882812 20.558594 86.003906 20.71875 86.28125 20.761719 C 87.644531 20.960938 88.082031 22.238281 88.082031 23.679688 L 88.082031 32.359375 C 88.082031 33.320312 87.484375 33.601562 86.363281 33.878906 C 85.921875 34 85.441406 34.121094 85.441406 34.519531 C 85.441406 34.839844 85.761719 34.960938 86.242188 34.960938 Z M 86.242188 34.960938 "/>
<path style=" stroke:none;fill-rule:evenodd;fill:rgb(0%,0%,0%);fill-opacity:1;" d="M 96.042969 34.960938 C 97.644531 34.960938 97.882812 34.761719 99.28125 34.761719 C 100.683594 34.761719 100.921875 34.960938 102.523438 34.960938 C 103.042969 34.960938 103.324219 34.839844 103.324219 34.519531 C 103.324219 34.199219 103.042969 34.039062 102.402344 33.878906 C 101.601562 33.679688 100.683594 33.441406 100.683594 32.359375 L 100.683594 22.71875 C 100.683594 22.398438 100.800781 22 101.003906 21.800781 C 102.121094 20.878906 103.523438 20.199219 105.441406 20.199219 C 107.601562 20.238281 109.042969 21.640625 109.042969 23.960938 L 109.042969 32.359375 C 109.042969 33.441406 108.121094 33.640625 107.324219 33.878906 C 106.882812 34.039062 106.402344 34.199219 106.402344 34.601562 C 106.402344 34.921875 106.921875 34.960938 107.203125 34.960938 C 108.800781 34.960938 109.082031 34.761719 110.484375 34.761719 C 111.882812 34.761719 112.082031 34.960938 113.683594 34.960938 C 114.003906 34.960938 114.484375 34.921875 114.484375 34.601562 C 114.484375 34.199219 114.003906 34.039062 113.5625 33.878906 C 112.761719 33.640625 111.84375 33.441406 111.84375 32.359375 L 111.84375 23.839844 C 111.84375 20.71875 109.921875 18.28125 107.324219 18.28125 C 104.800781 18.28125 102.761719 19.160156 100.882812 20.960938 C 100.84375 20.921875 100.800781 20.71875 100.800781 20.480469 C 100.800781 19.71875 101.003906 18.28125 101.003906 17.921875 C 101.003906 17.761719 100.921875 17.640625 100.800781 17.640625 C 100.644531 17.640625 100.523438 17.71875 100.363281 17.839844 C 99.242188 18.679688 98.203125 19.398438 96.363281 19.878906 C 96.121094 19.921875 96.003906 20.078125 96.003906 20.359375 C 96.003906 20.679688 96.164062 20.800781 96.402344 20.878906 C 97.761719 21.238281 97.882812 22.320312 97.882812 23.761719 L 97.882812 32.359375 C 97.882812 33.441406 96.960938 33.679688 96.164062 33.878906 C 95.5625 34.039062 95.242188 34.121094 95.242188 34.519531 C 95.242188 34.839844 95.5625 34.960938 96.042969 34.960938 Z M 96.042969 34.960938 "/>
<path style=" stroke:none;fill-rule:evenodd;fill:rgb(0%,0%,0%);fill-opacity:1;" d="M 127.28125 43.238281 C 127.800781 43.238281 128.363281 42.921875 128.363281 42.359375 C 128.363281 42.28125 127.800781 41.640625 127.761719 41.558594 C 125.324219 38.71875 122.722656 30.199219 122.722656 23.398438 C 122.722656 16.601562 125.441406 10.71875 127.882812 7.878906 C 127.960938 7.800781 128.402344 7.160156 128.402344 7.078125 C 128.402344 6.71875 127.800781 6.441406 127.523438 6.441406 C 127.121094 6.441406 126.683594 6.679688 126.441406 6.921875 C 123.601562 9.761719 119.402344 17.078125 119.402344 23.878906 C 119.402344 30.679688 123.761719 40.078125 126.601562 42.921875 C 126.800781 43.121094 127.042969 43.238281 127.28125 43.238281 Z M 127.28125 43.238281 "/>
<path style=" stroke:none;fill-rule:evenodd;fill:rgb(0%,0%,0%);fill-opacity:1;" d="M 132.324219 35.398438 C 133.28125 35.398438 134.164062 35.078125 135.28125 33.761719 C 136.601562 32.199219 137.882812 30.441406 139.164062 28.839844 C 139.484375 28.441406 139.644531 28.441406 139.800781 29.078125 L 140.683594 32.71875 C 141.164062 34.480469 141.722656 35.398438 143.203125 35.398438 C 145.523438 35.398438 147.363281 31.601562 147.363281 30.121094 C 147.363281 29.320312 147.203125 29.238281 147.003906 29.238281 C 146.800781 29.238281 146.644531 29.398438 146.484375 29.800781 C 145.683594 31.761719 144.601562 33 143.84375 33 C 143.5625 33 143.203125 32.761719 143.003906 32.039062 L 141.644531 27.121094 C 141.441406 26.441406 141.523438 26.039062 141.722656 25.71875 C 142.722656 24.199219 143.601562 23.160156 144.363281 22.28125 C 145.28125 21.160156 146.003906 20.601562 146.644531 20.601562 C 147.003906 20.601562 147.242188 20.800781 147.523438 21.519531 C 147.683594 21.921875 147.921875 22.199219 148.242188 22.199219 C 148.921875 22.199219 149.921875 20.601562 149.882812 20 C 149.84375 19.359375 148.882812 18.28125 147.84375 18.28125 C 146.402344 18.28125 145.042969 19.519531 144.242188 20.640625 L 141.441406 24.640625 C 141.164062 25 140.960938 24.960938 140.882812 24.558594 L 139.882812 20.320312 C 139.523438 18.921875 139.042969 18.28125 138.203125 18.28125 C 136.441406 18.28125 133.921875 21.28125 133.921875 22.839844 C 133.921875 23.238281 134.003906 23.519531 134.203125 23.519531 C 134.5625 23.519531 134.761719 23.039062 134.882812 22.878906 C 135.882812 21.441406 136.722656 20.800781 137.121094 20.800781 C 137.441406 20.800781 137.5625 20.878906 137.722656 21.480469 L 139.242188 27.078125 C 139.324219 27.320312 139.324219 27.601562 139.121094 27.800781 C 137.441406 29.71875 136.5625 30.878906 134.960938 32.519531 C 134.644531 32.839844 134.242188 33.039062 133.882812 33 C 133.5625 33 133.28125 32.71875 133.121094 32.078125 C 133.042969 31.71875 132.882812 31.359375 132.484375 31.359375 C 131.800781 31.359375 130.683594 32.960938 130.683594 33.878906 C 130.683594 34.921875 131.523438 35.398438 132.324219 35.398438 Z M 132.324219 35.398438 "/>
<path style=" stroke:none;fill-rule:evenodd;fill:rgb(0%,0%,0%);fill-opacity:1;" d="M 153.441406 43.238281 C 153.683594 43.238281 153.921875 43.121094 154.121094 42.921875 C 156.960938 40.078125 161.324219 30.679688 161.324219 23.878906 C 161.324219 17.078125 157.121094 9.761719 154.28125 6.921875 C 154.042969 6.679688 153.601562 6.441406 153.203125 6.441406 C 152.921875 6.441406 152.324219 6.71875 152.324219 7.078125 C 152.324219 7.160156 152.761719 7.800781 152.84375 7.878906 C 155.28125 10.71875 158.003906 16.601562 158.003906 23.398438 C 158.003906 30.199219 155.402344 38.71875 152.960938 41.558594 C 152.921875 41.640625 152.363281 42.28125 152.363281 42.359375 C 152.363281 42.921875 152.921875 43.238281 153.441406 43.238281 Z M 153.441406 43.238281 "/>
<path style=" stroke:none;fill-rule:nonzero;fill:rgb(0%,0%,0%);fill-opacity:1;" d="M 71.5625 49.238281 L 165.324219 49.238281 L 165.324219 51.238281 L 71.5625 51.238281 Z M 71.5625 49.238281 "/>
<path style=" stroke:none;fill-rule:evenodd;fill:rgb(0%,0%,0%);fill-opacity:1;" d="M 110.402344 84.71875 C 111.363281 84.71875 112.242188 84.398438 113.363281 83.078125 C 114.683594 81.519531 115.960938 79.761719 117.242188 78.160156 C 117.5625 77.761719 117.722656 77.761719 117.882812 78.398438 L 118.761719 82.039062 C 119.242188 83.800781 119.800781 84.71875 121.28125 84.71875 C 123.601562 84.71875 125.441406 80.921875 125.441406 79.441406 C 125.441406 78.640625 125.28125 78.558594 125.082031 78.558594 C 124.882812 78.558594 124.722656 78.71875 124.5625 79.121094 C 123.761719 81.078125 122.683594 82.320312 121.921875 82.320312 C 121.644531 82.320312 121.28125 82.078125 121.082031 81.359375 L 119.722656 76.441406 C 119.523438 75.761719 119.601562 75.359375 119.800781 75.039062 C 120.800781 73.519531 121.683594 72.480469 122.441406 71.601562 C 123.363281 70.480469 124.082031 69.921875 124.722656 69.921875 C 125.082031 69.921875 125.324219 70.121094 125.601562 70.839844 C 125.761719 71.238281 126.003906 71.519531 126.324219 71.519531 C 127.003906 71.519531 128.003906 69.921875 127.960938 69.320312 C 127.921875 68.679688 126.960938 67.601562 125.921875 67.601562 C 124.484375 67.601562 123.121094 68.839844 122.324219 69.960938 L 119.523438 73.960938 C 119.242188 74.320312 119.042969 74.28125 118.960938 73.878906 L 117.960938 69.640625 C 117.601562 68.238281 117.121094 67.601562 116.28125 67.601562 C 114.523438 67.601562 112.003906 70.601562 112.003906 72.160156 C 112.003906 72.558594 112.082031 72.839844 112.28125 72.839844 C 112.644531 72.839844 112.84375 72.359375 112.960938 72.199219 C 113.960938 70.761719 114.800781 70.121094 115.203125 70.121094 C 115.523438 70.121094 115.644531 70.199219 115.800781 70.800781 L 117.324219 76.398438 C 117.402344 76.640625 117.402344 76.921875 117.203125 77.121094 C 115.523438 79.039062 114.644531 80.199219 113.042969 81.839844 C 112.722656 82.160156 112.324219 82.359375 111.960938 82.320312 C 111.644531 82.320312 111.363281 82.039062 111.203125 81.398438 C 111.121094 81.039062 110.960938 80.679688 110.5625 80.679688 C 109.882812 80.679688 108.761719 82.28125 108.761719 83.199219 C 108.761719 84.238281 109.601562 84.71875 110.402344 84.71875 Z M 110.402344 84.71875 "/>
<path style=" stroke:none;fill-rule:evenodd;fill:rgb(0%,0%,0%);fill-opacity:1;" d="M 196.9375 61 C 197.097656 61 197.136719 61 197.574219 60.761719 C 199.457031 59.960938 200.777344 59.601562 202.257812 59.398438 C 202.535156 59.398438 202.816406 59.039062 202.816406 58.679688 C 202.816406 58.359375 202.617188 58.28125 202.097656 58.320312 C 201.414062 58.398438 200.65625 58.441406 200.375 58.441406 C 199.777344 58.441406 199.535156 57.679688 199.535156 55.839844 L 199.535156 37.761719 C 199.535156 34.160156 199.816406 32.800781 199.816406 32.320312 C 199.777344 32.160156 199.695312 32.078125 199.535156 32.078125 C 199.414062 32.078125 199.214844 32.121094 199.015625 32.199219 C 198.257812 32.519531 197.054688 33.078125 194.695312 33.679688 C 194.457031 33.761719 194.375 33.960938 194.375 34.160156 C 194.375 34.398438 194.496094 34.640625 194.734375 34.679688 C 196.015625 34.921875 196.734375 35.441406 196.734375 37.601562 L 196.734375 43.28125 C 196.734375 44 196.574219 44.238281 196.457031 44.238281 C 196.335938 44.238281 196.175781 44.199219 195.9375 44.121094 C 195.335938 43.921875 194.136719 43.679688 193.054688 43.679688 C 187.457031 43.679688 184.054688 48 184.054688 52.640625 C 184.054688 56.679688 186.894531 60.800781 191.457031 60.800781 C 194.097656 60.800781 195.894531 59.199219 196.695312 57.960938 L 196.695312 58.199219 C 196.695312 58.878906 196.496094 60.078125 196.496094 60.601562 C 196.496094 60.71875 196.816406 61 196.9375 61 Z M 192.894531 58.71875 C 191.136719 58.71875 186.894531 57.761719 186.894531 51.71875 C 186.894531 46.398438 189.976562 45.078125 191.816406 45.078125 C 194.777344 45.078125 196.734375 47.398438 196.734375 49.558594 L 196.695312 56.761719 C 195.695312 57.921875 194.296875 58.71875 192.894531 58.71875 Z M 192.894531 58.71875 "/>
<path style=" stroke:none;fill-rule:evenodd;fill:rgb(0%,0%,0%);fill-opacity:1;" d="M 204.816406 60.800781 C 205.777344 60.800781 206.65625 60.480469 207.777344 59.160156 C 209.097656 57.601562 210.375 55.839844 211.65625 54.238281 C 211.976562 53.839844 212.136719 53.839844 212.296875 54.480469 L 213.175781 58.121094 C 213.65625 59.878906 214.214844 60.800781 215.695312 60.800781 C 218.015625 60.800781 219.855469 57 219.855469 55.519531 C 219.855469 54.71875 219.695312 54.640625 219.496094 54.640625 C 219.296875 54.640625 219.136719 54.800781 218.976562 55.199219 C 218.175781 57.160156 217.097656 58.398438 216.335938 58.398438 C 216.054688 58.398438 215.695312 58.160156 215.496094 57.441406 L 214.136719 52.519531 C 213.9375 51.839844 214.015625 51.441406 214.214844 51.121094 C 215.214844 49.601562 216.097656 48.558594 216.855469 47.679688 C 217.777344 46.558594 218.496094 46 219.136719 46 C 219.496094 46 219.734375 46.199219 220.015625 46.921875 C 220.175781 47.320312 220.414062 47.601562 220.734375 47.601562 C 221.414062 47.601562 222.414062 46 222.375 45.398438 C 222.335938 44.761719 221.375 43.679688 220.335938 43.679688 C 218.894531 43.679688 217.535156 44.921875 216.734375 46.039062 L 213.9375 50.039062 C 213.65625 50.398438 213.457031 50.359375 213.375 49.960938 L 212.375 45.71875 C 212.015625 44.320312 211.535156 43.679688 210.695312 43.679688 C 208.9375 43.679688 206.414062 46.679688 206.414062 48.238281 C 206.414062 48.640625 206.496094 48.921875 206.695312 48.921875 C 207.054688 48.921875 207.257812 48.441406 207.375 48.28125 C 208.375 46.839844 209.214844 46.199219 209.617188 46.199219 C 209.9375 46.199219 210.054688 46.28125 210.214844 46.878906 L 211.734375 52.480469 C 211.816406 52.71875 211.816406 53 211.617188 53.199219 C 209.9375 55.121094 209.054688 56.28125 207.457031 57.921875 C 207.136719 58.238281 206.734375 58.441406 206.375 58.398438 C 206.054688 58.398438 205.777344 58.121094 205.617188 57.480469 C 205.535156 57.121094 205.375 56.761719 204.976562 56.761719 C 204.296875 56.761719 203.175781 58.359375 203.175781 59.28125 C 203.175781 60.320312 204.015625 60.800781 204.816406 60.800781 Z M 204.816406 60.800781 "/>
<path style=" stroke:none;fill-rule:evenodd;fill:rgb(0%,0%,0%);fill-opacity:1;" d="M 238.710938 47.679688 L 255.507812 47.679688 C 256.148438 47.679688 256.789062 46.679688 256.789062 46.121094 C 256.789062 45.878906 256.46875 45.679688 256.230469 45.679688 L 239.109375 45.679688 C 238.390625 45.679688 238.148438 46.839844 238.148438 47.199219 C 238.148438 47.441406 238.429688 47.679688 238.710938 47.679688 Z M 238.710938 54.519531 L 255.507812 54.519531 C 256.148438 54.519531 256.789062 53.679688 256.789062 52.960938 C 256.789062 52.71875 256.46875 52.519531 256.230469 52.519531 L 239.109375 52.519531 C 238.390625 52.519531 238.148438 53.679688 238.148438 54.039062 C 238.148438 54.28125 238.429688 54.519531 238.710938 54.519531 Z M 238.710938 54.519531 "/>
<path style=" stroke:none;fill-rule:evenodd;fill:rgb(0%,0%,0%);fill-opacity:1;" d="M 280.121094 89 C 284.363281 89 290.164062 83.839844 290.722656 78.078125 C 291.523438 69.640625 296.121094 23 296.324219 21.320312 C 296.800781 17.761719 299.042969 13.679688 301.484375 13.679688 C 302.683594 13.679688 303.761719 14.480469 304.5625 15.921875 C 305.203125 17.121094 305.722656 18 306.28125 18 C 307.164062 18 308.203125 17.238281 308.203125 15.800781 C 308.203125 13.320312 306.042969 11.480469 302.601562 11.480469 C 297.523438 11.480469 293.601562 16.320312 292.644531 24.199219 L 287.324219 78.359375 C 286.683594 84.519531 284.042969 86.839844 282.003906 86.839844 C 280.722656 86.839844 279.800781 86.28125 279.042969 85.558594 C 278.242188 84.800781 277.722656 84.039062 277.164062 84.039062 C 276.523438 84.039062 275.324219 85.121094 275.324219 86.199219 C 275.324219 88.039062 277.363281 89 280.121094 89 Z M 280.121094 89 "/>
<path style=" stroke:none;fill-rule:evenodd;fill:rgb(0%,0%,0%);fill-opacity:1;" d="M 316.722656 18.664062 C 319.1875 18.664062 320.503906 16.394531 321.285156 14.96875 C 321.425781 14.6875 321.539062 14.660156 321.679688 14.882812 C 323.023438 17.011719 324.199219 18.664062 326.464844 18.664062 C 329.351562 18.664062 331.394531 15.890625 331.394531 13.148438 C 331.394531 10.570312 329.628906 8.191406 327.054688 8.191406 C 324.589844 8.191406 323.273438 10.402344 322.492188 11.832031 C 322.378906 12.027344 322.238281 12.140625 322.097656 11.914062 C 320.753906 9.789062 319.578125 8.191406 317.3125 8.191406 C 314.425781 8.191406 312.382812 10.964844 312.382812 13.707031 C 312.382812 16.285156 314.148438 18.664062 316.722656 18.664062 Z M 317.171875 16.648438 C 315.15625 16.648438 313.195312 15.332031 313.195312 13.316406 C 313.195312 11.664062 314.734375 10.152344 316.527344 10.152344 C 318.261719 10.152344 319.71875 12.085938 320.839844 13.707031 C 321.007812 13.933594 321.117188 14.101562 321.117188 14.269531 C 321.117188 14.351562 321.0625 14.464844 320.949219 14.605469 C 319.96875 15.808594 318.960938 16.648438 317.171875 16.648438 Z M 327.363281 16.761719 C 325.625 16.761719 324.144531 14.800781 323.023438 13.175781 C 322.855469 12.953125 322.742188 12.785156 322.742188 12.617188 C 322.742188 12.53125 322.796875 12.421875 322.910156 12.28125 C 323.890625 11.074219 324.816406 10.207031 326.605469 10.207031 C 328.621094 10.207031 330.582031 11.523438 330.582031 13.539062 C 330.582031 15.191406 329.125 16.761719 327.363281 16.761719 Z M 327.363281 16.761719 "/>
<path style=" stroke:none;fill-rule:evenodd;fill:rgb(0%,0%,0%);fill-opacity:1;" d="M 298.632812 88.785156 L 311.375 88.785156 C 311.878906 88.785156 312.242188 88.054688 312.242188 87.441406 C 312.242188 87.273438 312.046875 87.105469 311.878906 87.105469 L 298.914062 87.105469 C 298.328125 87.105469 298.242188 88.195312 298.242188 88.449219 C 298.242188 88.617188 298.4375 88.785156 298.632812 88.785156 Z M 298.632812 88.785156 "/>
<path style=" stroke:none;fill-rule:evenodd;fill:rgb(0%,0%,0%);fill-opacity:1;" d="M 318.960938 92.984375 C 321.425781 92.984375 322.742188 90.714844 323.527344 89.289062 C 323.667969 89.007812 323.777344 88.980469 323.917969 89.203125 C 325.261719 91.332031 326.4375 92.984375 328.707031 92.984375 C 331.589844 92.984375 333.632812 90.210938 333.632812 87.46875 C 333.632812 84.890625 331.871094 82.511719 329.292969 82.511719 C 326.832031 82.511719 325.515625 84.722656 324.730469 86.152344 C 324.617188 86.347656 324.480469 86.460938 324.339844 86.234375 C 322.996094 84.109375 321.820312 82.511719 319.550781 82.511719 C 316.667969 82.511719 314.621094 85.285156 314.621094 88.027344 C 314.621094 90.605469 316.386719 92.984375 318.960938 92.984375 Z M 319.410156 90.96875 C 317.394531 90.96875 315.433594 89.652344 315.433594 87.636719 C 315.433594 85.984375 316.976562 84.472656 318.765625 84.472656 C 320.503906 84.472656 321.957031 86.402344 323.078125 88.027344 C 323.246094 88.253906 323.359375 88.421875 323.359375 88.589844 C 323.359375 88.671875 323.300781 88.785156 323.191406 88.925781 C 322.210938 90.128906 321.203125 90.96875 319.410156 90.96875 Z M 329.601562 91.078125 C 327.867188 91.078125 326.382812 89.121094 325.261719 87.496094 C 325.09375 87.273438 324.984375 87.105469 324.984375 86.9375 C 324.984375 86.851562 325.039062 86.738281 325.152344 86.601562 C 326.128906 85.394531 327.054688 84.527344 328.847656 84.527344 C 330.863281 84.527344 332.824219 85.84375 332.824219 87.859375 C 332.824219 89.511719 331.367188 91.078125 329.601562 91.078125 Z M 329.601562 91.078125 "/>
<path style=" stroke:none;fill-rule:evenodd;fill:rgb(0%,0%,0%);fill-opacity:1;" d="M 349.445312 35.398438 C 352.925781 35.398438 355.324219 33.398438 355.324219 30.519531 C 355.324219 28.039062 353.804688 26.800781 350.726562 25.039062 C 348.566406 23.800781 347.964844 23 347.964844 21.761719 C 347.964844 20.238281 349.207031 19.398438 350.523438 19.398438 C 352.046875 19.398438 353.046875 20.359375 353.765625 22.121094 C 353.84375 22.320312 354.207031 22.480469 354.523438 22.480469 C 354.726562 22.480469 354.925781 22.398438 354.925781 22.199219 C 354.925781 21.078125 354.566406 19.640625 354.164062 19.039062 C 353.644531 18.679688 352.566406 18.28125 350.964844 18.28125 C 347.367188 18.28125 345.566406 20.320312 345.566406 22.878906 C 345.566406 24.878906 346.644531 26.160156 349.367188 27.839844 C 351.765625 29.320312 352.605469 30.160156 352.605469 31.601562 C 352.605469 33.160156 351.367188 34.320312 349.804688 34.320312 C 348.246094 34.320312 346.523438 33.320312 345.84375 30.679688 C 345.804688 30.480469 345.566406 30.398438 345.367188 30.398438 C 345.085938 30.398438 344.84375 30.519531 344.84375 30.761719 C 344.886719 31.679688 345.003906 33.398438 345.285156 33.960938 C 346.285156 34.878906 347.804688 35.398438 349.445312 35.398438 Z M 349.445312 35.398438 "/>
<path style=" stroke:none;fill-rule:evenodd;fill:rgb(0%,0%,0%);fill-opacity:1;" d="M 361.566406 14.199219 C 362.726562 14.199219 363.605469 13.320312 363.605469 12.199219 C 363.605469 11.039062 362.726562 10.160156 361.566406 10.160156 C 360.445312 10.160156 359.566406 11.039062 359.566406 12.199219 C 359.566406 13.320312 360.445312 14.199219 361.566406 14.199219 Z M 358.367188 34.960938 C 359.925781 34.960938 360.207031 34.761719 361.605469 34.761719 C 363.003906 34.761719 363.324219 34.960938 364.84375 34.960938 C 365.367188 34.960938 365.644531 34.839844 365.644531 34.519531 C 365.644531 34.121094 365.164062 34 364.726562 33.878906 C 363.644531 33.601562 363.003906 33.28125 363.003906 32.359375 L 363.003906 23.078125 C 363.003906 21.28125 363.367188 18.320312 363.367188 17.679688 C 363.367188 17.558594 363.285156 17.480469 363.125 17.480469 C 362.964844 17.480469 362.765625 17.601562 362.566406 17.761719 C 361.886719 18.320312 360.484375 19.28125 358.367188 19.761719 C 358.125 19.800781 358.003906 19.960938 358.003906 20.238281 C 358.003906 20.558594 358.125 20.71875 358.40625 20.761719 C 359.765625 20.960938 360.207031 22.238281 360.207031 23.679688 L 360.207031 32.359375 C 360.207031 33.320312 359.605469 33.601562 358.484375 33.878906 C 358.046875 34 357.566406 34.121094 357.566406 34.519531 C 357.566406 34.839844 357.886719 34.960938 358.367188 34.960938 Z M 358.367188 34.960938 "/>
<path style=" stroke:none;fill-rule:evenodd;fill:rgb(0%,0%,0%);fill-opacity:1;" d="M 368.164062 34.960938 C 369.765625 34.960938 370.003906 34.761719 371.40625 34.761719 C 372.804688 34.761719 373.046875 34.960938 374.644531 34.960938 C 375.164062 34.960938 375.445312 34.839844 375.445312 34.519531 C 375.445312 34.199219 375.164062 34.039062 374.523438 33.878906 C 373.726562 33.679688 372.804688 33.441406 372.804688 32.359375 L 372.804688 22.71875 C 372.804688 22.398438 372.925781 22 373.125 21.800781 C 374.246094 20.878906 375.644531 20.199219 377.566406 20.199219 C 379.726562 20.238281 381.164062 21.640625 381.164062 23.960938 L 381.164062 32.359375 C 381.164062 33.441406 380.246094 33.640625 379.445312 33.878906 C 379.003906 34.039062 378.523438 34.199219 378.523438 34.601562 C 378.523438 34.921875 379.046875 34.960938 379.324219 34.960938 C 380.925781 34.960938 381.207031 34.761719 382.605469 34.761719 C 384.003906 34.761719 384.207031 34.960938 385.804688 34.960938 C 386.125 34.960938 386.605469 34.921875 386.605469 34.601562 C 386.605469 34.199219 386.125 34.039062 385.683594 33.878906 C 384.886719 33.640625 383.964844 33.441406 383.964844 32.359375 L 383.964844 23.839844 C 383.964844 20.71875 382.046875 18.28125 379.445312 18.28125 C 376.925781 18.28125 374.886719 19.160156 373.003906 20.960938 C 372.964844 20.921875 372.925781 20.71875 372.925781 20.480469 C 372.925781 19.71875 373.125 18.28125 373.125 17.921875 C 373.125 17.761719 373.046875 17.640625 372.925781 17.640625 C 372.765625 17.640625 372.644531 17.71875 372.484375 17.839844 C 371.367188 18.679688 370.324219 19.398438 368.484375 19.878906 C 368.246094 19.921875 368.125 20.078125 368.125 20.359375 C 368.125 20.679688 368.285156 20.800781 368.523438 20.878906 C 369.886719 21.238281 370.003906 22.320312 370.003906 23.761719 L 370.003906 32.359375 C 370.003906 33.441406 369.085938 33.679688 368.285156 33.878906 C 367.683594 34.039062 367.367188 34.121094 367.367188 34.519531 C 367.367188 34.839844 367.683594 34.960938 368.164062 34.960938 Z M 368.164062 34.960938 "/>
<path style=" stroke:none;fill-rule:evenodd;fill:rgb(0%,0%,0%);fill-opacity:1;" d="M 398.835938 17.722656 C 399.035156 17.722656 399.339844 17.640625 399.453125 17.050781 C 399.734375 15.652344 400.292969 14.503906 400.292969 14.222656 C 400.292969 14.085938 400.265625 13.886719 400.097656 13.886719 C 399.789062 13.886719 399.539062 14.308594 399.398438 14.53125 C 398.699219 15.652344 398.332031 15.765625 396.738281 15.847656 C 395.730469 15.902344 394.609375 15.933594 393.546875 15.933594 C 392.507812 15.933594 391.699219 15.902344 391.082031 15.847656 C 390.855469 15.820312 390.6875 15.792969 390.6875 15.652344 C 390.6875 15.511719 395.308594 11.03125 396.570312 9.519531 C 397.746094 8.09375 398.613281 6.132812 398.613281 4.621094 C 398.613281 1.902344 396.933594 0 394.132812 0 C 390.96875 0 388.671875 2.742188 388.671875 3.613281 C 388.671875 4.117188 388.953125 4.453125 389.09375 4.453125 C 389.261719 4.453125 389.457031 4.285156 389.570312 4.058594 C 390.351562 2.714844 391.726562 1.792969 393.265625 1.792969 C 394.863281 1.792969 396.261719 2.996094 396.261719 4.984375 C 396.261719 7.449219 394.890625 9.96875 393.011719 11.898438 L 388.226562 16.855469 C 388.058594 17.023438 388 17.050781 388 17.21875 C 388 17.386719 388.421875 17.695312 388.5625 17.695312 C 389.121094 17.695312 393.65625 17.554688 395.058594 17.554688 C 396.457031 17.554688 398.277344 17.722656 398.835938 17.722656 Z M 398.835938 17.722656 "/>
<path style=" stroke:none;fill-rule:evenodd;fill:rgb(0%,0%,0%);fill-opacity:1;" d="M 413.097656 43.238281 C 413.617188 43.238281 414.175781 42.921875 414.175781 42.359375 C 414.175781 42.28125 413.617188 41.640625 413.578125 41.558594 C 411.136719 38.71875 408.539062 30.199219 408.539062 23.398438 C 408.539062 16.601562 411.257812 10.71875 413.699219 7.878906 C 413.777344 7.800781 414.21875 7.160156 414.21875 7.078125 C 414.21875 6.71875 413.617188 6.441406 413.335938 6.441406 C 412.9375 6.441406 412.496094 6.679688 412.257812 6.921875 C 409.417969 9.761719 405.21875 17.078125 405.21875 23.878906 C 405.21875 30.679688 409.578125 40.078125 412.417969 42.921875 C 412.617188 43.121094 412.855469 43.238281 413.097656 43.238281 Z M 413.097656 43.238281 "/>
<path style=" stroke:none;fill-rule:evenodd;fill:rgb(0%,0%,0%);fill-opacity:1;" d="M 418.136719 35.398438 C 419.097656 35.398438 419.976562 35.078125 421.097656 33.761719 C 422.417969 32.199219 423.699219 30.441406 424.976562 28.839844 C 425.296875 28.441406 425.457031 28.441406 425.617188 29.078125 L 426.496094 32.71875 C 426.976562 34.480469 427.539062 35.398438 429.015625 35.398438 C 431.335938 35.398438 433.175781 31.601562 433.175781 30.121094 C 433.175781 29.320312 433.015625 29.238281 432.816406 29.238281 C 432.617188 29.238281 432.457031 29.398438 432.296875 29.800781 C 431.496094 31.761719 430.417969 33 429.65625 33 C 429.378906 33 429.015625 32.761719 428.816406 32.039062 L 427.457031 27.121094 C 427.257812 26.441406 427.335938 26.039062 427.539062 25.71875 C 428.539062 24.199219 429.417969 23.160156 430.175781 22.28125 C 431.097656 21.160156 431.816406 20.601562 432.457031 20.601562 C 432.816406 20.601562 433.058594 20.800781 433.335938 21.519531 C 433.496094 21.921875 433.738281 22.199219 434.058594 22.199219 C 434.738281 22.199219 435.738281 20.601562 435.699219 20 C 435.65625 19.359375 434.699219 18.28125 433.65625 18.28125 C 432.21875 18.28125 430.855469 19.519531 430.058594 20.640625 L 427.257812 24.640625 C 426.976562 25 426.777344 24.960938 426.699219 24.558594 L 425.699219 20.320312 C 425.335938 18.921875 424.855469 18.28125 424.015625 18.28125 C 422.257812 18.28125 419.738281 21.28125 419.738281 22.839844 C 419.738281 23.238281 419.816406 23.519531 420.015625 23.519531 C 420.378906 23.519531 420.578125 23.039062 420.699219 22.878906 C 421.699219 21.441406 422.539062 20.800781 422.9375 20.800781 C 423.257812 20.800781 423.378906 20.878906 423.539062 21.480469 L 425.058594 27.078125 C 425.136719 27.320312 425.136719 27.601562 424.9375 27.800781 C 423.257812 29.71875 422.378906 30.878906 420.777344 32.519531 C 420.457031 32.839844 420.058594 33.039062 419.699219 33 C 419.378906 33 419.097656 32.71875 418.9375 32.078125 C 418.855469 31.71875 418.699219 31.359375 418.296875 31.359375 C 417.617188 31.359375 416.496094 32.960938 416.496094 33.878906 C 416.496094 34.921875 417.335938 35.398438 418.136719 35.398438 Z M 418.136719 35.398438 "/>
<path style=" stroke:none;fill-rule:evenodd;fill:rgb(0%,0%,0%);fill-opacity:1;" d="M 439.257812 43.238281 C 439.496094 43.238281 439.738281 43.121094 439.9375 42.921875 C 442.777344 40.078125 447.136719 30.679688 447.136719 23.878906 C 447.136719 17.078125 442.9375 9.761719 440.097656 6.921875 C 439.855469 6.679688 439.417969 6.441406 439.015625 6.441406 C 438.738281 6.441406 438.136719 6.71875 438.136719 7.078125 C 438.136719 7.160156 438.578125 7.800781 438.65625 7.878906 C 441.097656 10.71875 443.816406 16.601562 443.816406 23.398438 C 443.816406 30.199219 441.21875 38.71875 438.777344 41.558594 C 438.738281 41.640625 438.175781 42.28125 438.175781 42.359375 C 438.175781 42.921875 438.738281 43.238281 439.257812 43.238281 Z M 439.257812 43.238281 "/>
<path style=" stroke:none;fill-rule:nonzero;fill:rgb(0%,0%,0%);fill-opacity:1;" d="M 343.683594 49.238281 L 451.136719 49.238281 L 451.136719 51.238281 L 343.683594 51.238281 Z M 343.683594 49.238281 "/>
<path style=" stroke:none;fill-rule:evenodd;fill:rgb(0%,0%,0%);fill-opacity:1;" d="M 382.523438 87.441406 C 383.484375 87.441406 384.367188 87.121094 385.484375 85.800781 C 386.804688 84.238281 388.085938 82.480469 389.367188 80.878906 C 389.683594 80.480469 389.84375 80.480469 390.003906 81.121094 L 390.886719 84.761719 C 391.367188 86.519531 391.925781 87.441406 393.40625 87.441406 C 395.726562 87.441406 397.566406 83.640625 397.566406 82.160156 C 397.566406 81.359375 397.40625 81.28125 397.207031 81.28125 C 397.003906 81.28125 396.84375 81.441406 396.683594 81.839844 C 395.886719 83.800781 394.804688 85.039062 394.046875 85.039062 C 393.765625 85.039062 393.40625 84.800781 393.207031 84.078125 L 391.84375 79.160156 C 391.644531 78.480469 391.726562 78.078125 391.925781 77.761719 C 392.925781 76.238281 393.804688 75.199219 394.566406 74.320312 C 395.484375 73.199219 396.207031 72.640625 396.84375 72.640625 C 397.207031 72.640625 397.445312 72.839844 397.726562 73.558594 C 397.886719 73.960938 398.125 74.238281 398.445312 74.238281 C 399.125 74.238281 400.125 72.640625 400.085938 72.039062 C 400.046875 71.398438 399.085938 70.320312 398.046875 70.320312 C 396.605469 70.320312 395.246094 71.558594 394.445312 72.679688 L 391.644531 76.679688 C 391.367188 77.039062 391.164062 77 391.085938 76.601562 L 390.085938 72.359375 C 389.726562 70.960938 389.246094 70.320312 388.40625 70.320312 C 386.644531 70.320312 384.125 73.320312 384.125 74.878906 C 384.125 75.28125 384.207031 75.558594 384.40625 75.558594 C 384.765625 75.558594 384.964844 75.078125 385.085938 74.921875 C 386.085938 73.480469 386.925781 72.839844 387.324219 72.839844 C 387.644531 72.839844 387.765625 72.921875 387.925781 73.519531 L 389.445312 79.121094 C 389.523438 79.359375 389.523438 79.640625 389.324219 79.839844 C 387.644531 81.761719 386.765625 82.921875 385.164062 84.558594 C 384.84375 84.878906 384.445312 85.078125 384.085938 85.039062 C 383.765625 85.039062 383.484375 84.761719 383.324219 84.121094 C 383.246094 83.761719 383.085938 83.398438 382.683594 83.398438 C 382.003906 83.398438 380.886719 85 380.886719 85.921875 C 380.886719 86.960938 381.726562 87.441406 382.523438 87.441406 Z M 382.523438 87.441406 "/>
<path style=" stroke:none;fill-rule:evenodd;fill:rgb(0%,0%,0%);fill-opacity:1;" d="M 411.835938 74.964844 C 412.035156 74.964844 412.339844 74.878906 412.453125 74.292969 C 412.734375 72.890625 413.292969 71.742188 413.292969 71.464844 C 413.292969 71.324219 413.265625 71.128906 413.097656 71.128906 C 412.789062 71.128906 412.539062 71.546875 412.398438 71.773438 C 411.699219 72.890625 411.332031 73.003906 409.738281 73.089844 C 408.730469 73.144531 407.609375 73.171875 406.546875 73.171875 C 405.507812 73.171875 404.699219 73.144531 404.082031 73.089844 C 403.855469 73.058594 403.6875 73.03125 403.6875 72.890625 C 403.6875 72.753906 408.308594 68.273438 409.570312 66.761719 C 410.746094 65.332031 411.613281 63.371094 411.613281 61.859375 C 411.613281 59.144531 409.933594 57.238281 407.132812 57.238281 C 403.96875 57.238281 401.671875 59.984375 401.671875 60.851562 C 401.671875 61.355469 401.953125 61.691406 402.09375 61.691406 C 402.261719 61.691406 402.457031 61.523438 402.570312 61.300781 C 403.351562 59.957031 404.726562 59.03125 406.265625 59.03125 C 407.863281 59.03125 409.261719 60.234375 409.261719 62.222656 C 409.261719 64.6875 407.890625 67.207031 406.011719 69.140625 L 401.226562 74.097656 C 401.058594 74.265625 401 74.292969 401 74.460938 C 401 74.628906 401.421875 74.9375 401.5625 74.9375 C 402.121094 74.9375 406.65625 74.796875 408.058594 74.796875 C 409.457031 74.796875 411.277344 74.964844 411.835938 74.964844 Z M 411.835938 74.964844 "/>
<path style=" stroke:none;fill-rule:evenodd;fill:rgb(0%,0%,0%);fill-opacity:1;" d="M 482.75 61 C 482.910156 61 482.949219 61 483.390625 60.761719 C 485.269531 59.960938 486.589844 59.601562 488.070312 59.398438 C 488.351562 59.398438 488.628906 59.039062 488.628906 58.679688 C 488.628906 58.359375 488.429688 58.28125 487.910156 58.320312 C 487.230469 58.398438 486.46875 58.441406 486.191406 58.441406 C 485.589844 58.441406 485.351562 57.679688 485.351562 55.839844 L 485.351562 37.761719 C 485.351562 34.160156 485.628906 32.800781 485.628906 32.320312 C 485.589844 32.160156 485.511719 32.078125 485.351562 32.078125 C 485.230469 32.078125 485.03125 32.121094 484.832031 32.199219 C 484.070312 32.519531 482.871094 33.078125 480.511719 33.679688 C 480.269531 33.761719 480.191406 33.960938 480.191406 34.160156 C 480.191406 34.398438 480.3125 34.640625 480.550781 34.679688 C 481.832031 34.921875 482.550781 35.441406 482.550781 37.601562 L 482.550781 43.28125 C 482.550781 44 482.390625 44.238281 482.269531 44.238281 C 482.152344 44.238281 481.992188 44.199219 481.75 44.121094 C 481.152344 43.921875 479.949219 43.679688 478.871094 43.679688 C 473.269531 43.679688 469.871094 48 469.871094 52.640625 C 469.871094 56.679688 472.710938 60.800781 477.269531 60.800781 C 479.910156 60.800781 481.710938 59.199219 482.511719 57.960938 L 482.511719 58.199219 C 482.511719 58.878906 482.3125 60.078125 482.3125 60.601562 C 482.3125 60.71875 482.628906 61 482.75 61 Z M 478.710938 58.71875 C 476.949219 58.71875 472.710938 57.761719 472.710938 51.71875 C 472.710938 46.398438 475.789062 45.078125 477.628906 45.078125 C 480.589844 45.078125 482.550781 47.398438 482.550781 49.558594 L 482.511719 56.761719 C 481.511719 57.921875 480.109375 58.71875 478.710938 58.71875 Z M 478.710938 58.71875 "/>
<path style=" stroke:none;fill-rule:evenodd;fill:rgb(0%,0%,0%);fill-opacity:1;" d="M 490.628906 60.800781 C 491.589844 60.800781 492.46875 60.480469 493.589844 59.160156 C 494.910156 57.601562 496.191406 55.839844 497.46875 54.238281 C 497.789062 53.839844 497.949219 53.839844 498.109375 54.480469 L 498.992188 58.121094 C 499.46875 59.878906 500.03125 60.800781 501.511719 60.800781 C 503.832031 60.800781 505.671875 57 505.671875 55.519531 C 505.671875 54.71875 505.511719 54.640625 505.3125 54.640625 C 505.109375 54.640625 504.949219 54.800781 504.789062 55.199219 C 503.992188 57.160156 502.910156 58.398438 502.152344 58.398438 C 501.871094 58.398438 501.511719 58.160156 501.3125 57.441406 L 499.949219 52.519531 C 499.75 51.839844 499.832031 51.441406 500.03125 51.121094 C 501.03125 49.601562 501.910156 48.558594 502.671875 47.679688 C 503.589844 46.558594 504.3125 46 504.949219 46 C 505.3125 46 505.550781 46.199219 505.832031 46.921875 C 505.992188 47.320312 506.230469 47.601562 506.550781 47.601562 C 507.230469 47.601562 508.230469 46 508.191406 45.398438 C 508.152344 44.761719 507.191406 43.679688 506.152344 43.679688 C 504.710938 43.679688 503.351562 44.921875 502.550781 46.039062 L 499.75 50.039062 C 499.46875 50.398438 499.269531 50.359375 499.191406 49.960938 L 498.191406 45.71875 C 497.832031 44.320312 497.351562 43.679688 496.511719 43.679688 C 494.75 43.679688 492.230469 46.679688 492.230469 48.238281 C 492.230469 48.640625 492.3125 48.921875 492.511719 48.921875 C 492.871094 48.921875 493.070312 48.441406 493.191406 48.28125 C 494.191406 46.839844 495.03125 46.199219 495.429688 46.199219 C 495.75 46.199219 495.871094 46.28125 496.03125 46.878906 L 497.550781 52.480469 C 497.628906 52.71875 497.628906 53 497.429688 53.199219 C 495.75 55.121094 494.871094 56.28125 493.269531 57.921875 C 492.949219 58.238281 492.550781 58.441406 492.191406 58.398438 C 491.871094 58.398438 491.589844 58.121094 491.429688 57.480469 C 491.351562 57.121094 491.191406 56.761719 490.789062 56.761719 C 490.109375 56.761719 488.992188 58.359375 488.992188 59.28125 C 488.992188 60.320312 489.832031 60.800781 490.628906 60.800781 Z M 490.628906 60.800781 "/>
</g>
</svg>
