<?xml version="1.0" encoding="UTF-8"?>
<svg xmlns="http://www.w3.org/2000/svg" xmlns:xlink="http://www.w3.org/1999/xlink" width="21.513601pt" height="45.568002pt" viewBox="0 0 21.513601 45.568002" version="1.1">
<g id="surface1">
<path style=" stroke:none;fill-rule:evenodd;fill:rgb(0%,0%,0%);fill-opacity:1;" d="M 0.769531 27.054688 C 1.152344 27.054688 1.503906 26.929688 1.953125 26.398438 C 2.480469 25.777344 2.992188 25.070312 3.503906 24.433594 C 3.632812 24.273438 3.695312 24.273438 3.761719 24.527344 L 4.113281 25.984375 C 4.304688 26.6875 4.527344 27.054688 5.121094 27.054688 C 6.046875 27.054688 6.785156 25.535156 6.785156 24.945312 C 6.785156 24.625 6.71875 24.59375 6.640625 24.59375 C 6.558594 24.59375 6.496094 24.65625 6.433594 24.816406 C 6.113281 25.601562 5.679688 26.097656 5.375 26.097656 C 5.265625 26.097656 5.121094 26 5.039062 25.710938 L 4.496094 23.742188 C 4.414062 23.472656 4.449219 23.3125 4.527344 23.183594 C 4.929688 22.574219 5.28125 22.160156 5.585938 21.808594 C 5.953125 21.359375 6.238281 21.136719 6.496094 21.136719 C 6.640625 21.136719 6.734375 21.214844 6.847656 21.503906 C 6.910156 21.664062 7.007812 21.777344 7.136719 21.777344 C 7.40625 21.777344 7.808594 21.136719 7.792969 20.894531 C 7.777344 20.640625 7.390625 20.207031 6.976562 20.207031 C 6.398438 20.207031 5.855469 20.703125 5.535156 21.152344 L 4.414062 22.753906 C 4.304688 22.894531 4.222656 22.878906 4.191406 22.71875 L 3.792969 21.023438 C 3.648438 20.464844 3.457031 20.207031 3.121094 20.207031 C 2.414062 20.207031 1.40625 21.40625 1.40625 22.03125 C 1.40625 22.191406 1.441406 22.304688 1.519531 22.304688 C 1.664062 22.304688 1.742188 22.113281 1.792969 22.046875 C 2.191406 21.472656 2.527344 21.214844 2.6875 21.214844 C 2.816406 21.214844 2.863281 21.246094 2.929688 21.488281 L 3.535156 23.726562 C 3.566406 23.824219 3.566406 23.9375 3.488281 24.015625 C 2.816406 24.785156 2.464844 25.246094 1.824219 25.902344 C 1.695312 26.03125 1.535156 26.113281 1.390625 26.097656 C 1.265625 26.097656 1.152344 25.984375 1.089844 25.726562 C 1.054688 25.585938 0.992188 25.441406 0.832031 25.441406 C 0.558594 25.441406 0.113281 26.078125 0.113281 26.449219 C 0.113281 26.863281 0.449219 27.054688 0.769531 27.054688 Z M 0.769531 27.054688 "/>
<path style=" stroke:none;fill-rule:evenodd;fill:rgb(0%,0%,0%);fill-opacity:1;" d="M 8.503906 13.234375 C 8.773438 13.234375 9.019531 13.144531 9.335938 12.773438 C 9.703125 12.335938 10.0625 11.84375 10.421875 11.394531 C 10.511719 11.285156 10.554688 11.285156 10.601562 11.464844 L 10.847656 12.480469 C 10.980469 12.976562 11.136719 13.234375 11.550781 13.234375 C 12.203125 13.234375 12.71875 12.167969 12.71875 11.753906 C 12.71875 11.53125 12.671875 11.507812 12.617188 11.507812 C 12.558594 11.507812 12.515625 11.554688 12.46875 11.664062 C 12.246094 12.214844 11.945312 12.5625 11.730469 12.5625 C 11.652344 12.5625 11.550781 12.492188 11.496094 12.292969 L 11.113281 10.914062 C 11.058594 10.722656 11.082031 10.613281 11.136719 10.523438 C 11.417969 10.097656 11.664062 9.804688 11.875 9.558594 C 12.132812 9.246094 12.335938 9.089844 12.515625 9.089844 C 12.617188 9.089844 12.683594 9.144531 12.761719 9.347656 C 12.804688 9.457031 12.875 9.535156 12.964844 9.535156 C 13.152344 9.535156 13.433594 9.089844 13.421875 8.921875 C 13.410156 8.742188 13.140625 8.4375 12.851562 8.4375 C 12.449219 8.4375 12.066406 8.785156 11.84375 9.101562 L 11.058594 10.21875 C 10.980469 10.320312 10.925781 10.308594 10.902344 10.199219 L 10.621094 9.011719 C 10.523438 8.617188 10.386719 8.4375 10.152344 8.4375 C 9.660156 8.4375 8.953125 9.277344 8.953125 9.714844 C 8.953125 9.828125 8.976562 9.90625 9.03125 9.90625 C 9.132812 9.90625 9.1875 9.773438 9.222656 9.726562 C 9.503906 9.324219 9.738281 9.144531 9.847656 9.144531 C 9.9375 9.144531 9.972656 9.167969 10.019531 9.335938 L 10.441406 10.902344 C 10.464844 10.96875 10.464844 11.046875 10.410156 11.105469 C 9.9375 11.640625 9.691406 11.96875 9.246094 12.425781 C 9.15625 12.515625 9.042969 12.570312 8.941406 12.5625 C 8.851562 12.5625 8.773438 12.480469 8.730469 12.304688 C 8.707031 12.203125 8.664062 12.101562 8.550781 12.101562 C 8.359375 12.101562 8.046875 12.550781 8.046875 12.808594 C 8.046875 13.097656 8.28125 13.234375 8.503906 13.234375 Z M 8.503906 13.234375 "/>
<path style=" stroke:none;fill-rule:evenodd;fill:rgb(0%,0%,0%);fill-opacity:1;" d="M 13.929688 6.863281 C 14.121094 6.863281 14.296875 6.800781 14.523438 6.535156 C 14.785156 6.222656 15.042969 5.871094 15.296875 5.550781 C 15.363281 5.472656 15.394531 5.472656 15.425781 5.601562 L 15.601562 6.328125 C 15.699219 6.679688 15.808594 6.863281 16.105469 6.863281 C 16.570312 6.863281 16.9375 6.105469 16.9375 5.808594 C 16.9375 5.648438 16.90625 5.632812 16.867188 5.632812 C 16.824219 5.632812 16.792969 5.664062 16.761719 5.742188 C 16.601562 6.136719 16.386719 6.382812 16.234375 6.382812 C 16.175781 6.382812 16.105469 6.335938 16.066406 6.191406 L 15.792969 5.207031 C 15.753906 5.070312 15.769531 4.992188 15.808594 4.929688 C 16.007812 4.625 16.1875 4.414062 16.335938 4.238281 C 16.523438 4.015625 16.664062 3.902344 16.792969 3.902344 C 16.867188 3.902344 16.914062 3.945312 16.96875 4.089844 C 17 4.167969 17.050781 4.222656 17.113281 4.222656 C 17.25 4.222656 17.449219 3.902344 17.441406 3.785156 C 17.433594 3.65625 17.242188 3.441406 17.035156 3.441406 C 16.746094 3.441406 16.472656 3.6875 16.3125 3.910156 L 15.753906 4.710938 C 15.699219 4.785156 15.65625 4.777344 15.640625 4.695312 L 15.441406 3.847656 C 15.371094 3.566406 15.273438 3.441406 15.105469 3.441406 C 14.753906 3.441406 14.25 4.039062 14.25 4.351562 C 14.25 4.433594 14.265625 4.488281 14.304688 4.488281 C 14.378906 4.488281 14.417969 4.390625 14.441406 4.359375 C 14.640625 4.070312 14.808594 3.945312 14.890625 3.945312 C 14.953125 3.945312 14.976562 3.960938 15.007812 4.078125 L 15.3125 5.199219 C 15.328125 5.246094 15.328125 5.304688 15.289062 5.34375 C 14.953125 5.726562 14.777344 5.960938 14.457031 6.289062 C 14.394531 6.351562 14.3125 6.390625 14.242188 6.382812 C 14.175781 6.382812 14.121094 6.328125 14.089844 6.199219 C 14.074219 6.128906 14.042969 6.054688 13.960938 6.054688 C 13.824219 6.054688 13.601562 6.375 13.601562 6.558594 C 13.601562 6.769531 13.769531 6.863281 13.929688 6.863281 Z M 13.929688 6.863281 "/>
<path style=" stroke:none;fill-rule:evenodd;fill:rgb(0%,0%,0%);fill-opacity:1;" d="M 17.914062 3.425781 C 18.105469 3.425781 18.28125 3.359375 18.503906 3.097656 C 18.769531 2.785156 19.027344 2.433594 19.28125 2.113281 C 19.34375 2.03125 19.378906 2.03125 19.410156 2.160156 L 19.585938 2.886719 C 19.679688 3.238281 19.792969 3.425781 20.089844 3.425781 C 20.554688 3.425781 20.921875 2.664062 20.921875 2.367188 C 20.921875 2.207031 20.890625 2.191406 20.847656 2.191406 C 20.808594 2.191406 20.777344 2.222656 20.746094 2.304688 C 20.585938 2.695312 20.371094 2.945312 20.21875 2.945312 C 20.160156 2.945312 20.089844 2.894531 20.050781 2.753906 L 19.777344 1.769531 C 19.738281 1.632812 19.753906 1.550781 19.792969 1.488281 C 19.992188 1.183594 20.167969 0.976562 20.320312 0.800781 C 20.503906 0.574219 20.648438 0.464844 20.777344 0.464844 C 20.847656 0.464844 20.898438 0.503906 20.953125 0.648438 C 20.984375 0.726562 21.035156 0.785156 21.097656 0.785156 C 21.234375 0.785156 21.433594 0.464844 21.425781 0.34375 C 21.417969 0.214844 21.226562 0 21.019531 0 C 20.730469 0 20.457031 0.246094 20.296875 0.472656 L 19.738281 1.273438 C 19.679688 1.34375 19.640625 1.335938 19.625 1.257812 L 19.425781 0.40625 C 19.355469 0.128906 19.257812 0 19.089844 0 C 18.738281 0 18.234375 0.601562 18.234375 0.910156 C 18.234375 0.992188 18.25 1.046875 18.289062 1.046875 C 18.363281 1.046875 18.402344 0.953125 18.425781 0.921875 C 18.625 0.632812 18.792969 0.503906 18.875 0.503906 C 18.9375 0.503906 18.960938 0.519531 18.992188 0.640625 L 19.296875 1.761719 C 19.3125 1.808594 19.3125 1.863281 19.273438 1.902344 C 18.9375 2.289062 18.761719 2.519531 18.441406 2.847656 C 18.378906 2.910156 18.296875 2.953125 18.226562 2.945312 C 18.160156 2.945312 18.105469 2.886719 18.074219 2.761719 C 18.058594 2.6875 18.027344 2.617188 17.945312 2.617188 C 17.808594 2.617188 17.585938 2.9375 17.585938 3.121094 C 17.585938 3.328125 17.753906 3.425781 17.914062 3.425781 Z M 17.914062 3.425781 "/>
<path style=" stroke:none;fill-rule:evenodd;fill:rgb(0%,0%,0%);fill-opacity:1;" d="M 17.019531 9.425781 C 17.210938 9.425781 17.386719 9.359375 17.609375 9.097656 C 17.875 8.785156 18.128906 8.433594 18.386719 8.113281 C 18.449219 8.03125 18.480469 8.03125 18.511719 8.160156 L 18.691406 8.886719 C 18.785156 9.238281 18.898438 9.425781 19.195312 9.425781 C 19.65625 9.425781 20.027344 8.664062 20.027344 8.367188 C 20.027344 8.207031 19.992188 8.191406 19.953125 8.191406 C 19.914062 8.191406 19.882812 8.222656 19.847656 8.304688 C 19.691406 8.695312 19.472656 8.945312 19.320312 8.945312 C 19.265625 8.945312 19.195312 8.894531 19.152344 8.753906 L 18.882812 7.769531 C 18.839844 7.632812 18.859375 7.550781 18.898438 7.488281 C 19.097656 7.183594 19.273438 6.976562 19.425781 6.800781 C 19.609375 6.574219 19.753906 6.464844 19.882812 6.464844 C 19.953125 6.464844 20 6.503906 20.058594 6.648438 C 20.089844 6.726562 20.136719 6.785156 20.203125 6.785156 C 20.335938 6.785156 20.539062 6.464844 20.53125 6.34375 C 20.523438 6.214844 20.328125 6 20.121094 6 C 19.832031 6 19.5625 6.246094 19.402344 6.472656 L 18.839844 7.273438 C 18.785156 7.34375 18.746094 7.335938 18.730469 7.257812 L 18.53125 6.40625 C 18.457031 6.128906 18.363281 6 18.195312 6 C 17.839844 6 17.335938 6.601562 17.335938 6.910156 C 17.335938 6.992188 17.355469 7.046875 17.394531 7.046875 C 17.464844 7.046875 17.503906 6.953125 17.53125 6.921875 C 17.730469 6.632812 17.898438 6.503906 17.976562 6.503906 C 18.042969 6.503906 18.066406 6.519531 18.097656 6.640625 L 18.402344 7.761719 C 18.417969 7.808594 18.417969 7.863281 18.378906 7.902344 C 18.042969 8.289062 17.867188 8.519531 17.546875 8.847656 C 17.480469 8.910156 17.402344 8.953125 17.328125 8.945312 C 17.265625 8.945312 17.210938 8.886719 17.175781 8.761719 C 17.160156 8.6875 17.128906 8.617188 17.050781 8.617188 C 16.914062 8.617188 16.691406 8.9375 16.691406 9.121094 C 16.691406 9.328125 16.859375 9.425781 17.019531 9.425781 Z M 17.019531 9.425781 "/>
<path style=" stroke:none;fill-rule:evenodd;fill:rgb(0%,0%,0%);fill-opacity:1;" d="M 13.929688 18.28125 C 14.121094 18.28125 14.296875 18.214844 14.523438 17.953125 C 14.785156 17.640625 15.042969 17.289062 15.296875 16.96875 C 15.363281 16.886719 15.394531 16.886719 15.425781 17.015625 L 15.601562 17.742188 C 15.699219 18.097656 15.808594 18.28125 16.105469 18.28125 C 16.570312 18.28125 16.9375 17.519531 16.9375 17.222656 C 16.9375 17.0625 16.90625 17.046875 16.867188 17.046875 C 16.824219 17.046875 16.792969 17.078125 16.761719 17.160156 C 16.601562 17.550781 16.386719 17.800781 16.234375 17.800781 C 16.175781 17.800781 16.105469 17.753906 16.066406 17.609375 L 15.792969 16.625 C 15.753906 16.488281 15.769531 16.40625 15.808594 16.34375 C 16.007812 16.039062 16.1875 15.832031 16.335938 15.65625 C 16.523438 15.433594 16.664062 15.320312 16.792969 15.320312 C 16.867188 15.320312 16.914062 15.359375 16.96875 15.503906 C 17 15.585938 17.050781 15.640625 17.113281 15.640625 C 17.25 15.640625 17.449219 15.320312 17.441406 15.199219 C 17.433594 15.070312 17.242188 14.855469 17.035156 14.855469 C 16.746094 14.855469 16.472656 15.105469 16.3125 15.328125 L 15.753906 16.128906 C 15.699219 16.199219 15.65625 16.191406 15.640625 16.113281 L 15.441406 15.265625 C 15.371094 14.984375 15.273438 14.855469 15.105469 14.855469 C 14.753906 14.855469 14.25 15.457031 14.25 15.769531 C 14.25 15.847656 14.265625 15.902344 14.304688 15.902344 C 14.378906 15.902344 14.417969 15.808594 14.441406 15.777344 C 14.640625 15.488281 14.808594 15.359375 14.890625 15.359375 C 14.953125 15.359375 14.976562 15.375 15.007812 15.496094 L 15.3125 16.617188 C 15.328125 16.664062 15.328125 16.71875 15.289062 16.761719 C 14.953125 17.144531 14.777344 17.375 14.457031 17.703125 C 14.394531 17.769531 14.3125 17.808594 14.242188 17.800781 C 14.175781 17.800781 14.121094 17.742188 14.089844 17.617188 C 14.074219 17.542969 14.042969 17.472656 13.960938 17.472656 C 13.824219 17.472656 13.601562 17.792969 13.601562 17.976562 C 13.601562 18.183594 13.769531 18.28125 13.929688 18.28125 Z M 13.929688 18.28125 "/>
<path style=" stroke:none;fill-rule:evenodd;fill:rgb(0%,0%,0%);fill-opacity:1;" d="M 17.914062 15.648438 C 18.105469 15.648438 18.28125 15.585938 18.503906 15.320312 C 18.769531 15.007812 19.027344 14.65625 19.28125 14.335938 C 19.34375 14.257812 19.378906 14.257812 19.410156 14.382812 L 19.585938 15.113281 C 19.679688 15.464844 19.792969 15.648438 20.089844 15.648438 C 20.554688 15.648438 20.921875 14.886719 20.921875 14.59375 C 20.921875 14.433594 20.890625 14.414062 20.847656 14.414062 C 20.808594 14.414062 20.777344 14.449219 20.746094 14.527344 C 20.585938 14.921875 20.371094 15.167969 20.21875 15.167969 C 20.160156 15.167969 20.089844 15.121094 20.050781 14.976562 L 19.777344 13.992188 C 19.738281 13.855469 19.753906 13.777344 19.792969 13.710938 C 19.992188 13.40625 20.167969 13.199219 20.320312 13.023438 C 20.503906 12.800781 20.648438 12.6875 20.777344 12.6875 C 20.847656 12.6875 20.898438 12.726562 20.953125 12.871094 C 20.984375 12.953125 21.035156 13.007812 21.097656 13.007812 C 21.234375 13.007812 21.433594 12.6875 21.425781 12.566406 C 21.417969 12.441406 21.226562 12.222656 21.019531 12.222656 C 20.730469 12.222656 20.457031 12.472656 20.296875 12.695312 L 19.738281 13.496094 C 19.679688 13.566406 19.640625 13.558594 19.625 13.480469 L 19.425781 12.632812 C 19.355469 12.351562 19.257812 12.222656 19.089844 12.222656 C 18.738281 12.222656 18.234375 12.824219 18.234375 13.136719 C 18.234375 13.214844 18.25 13.273438 18.289062 13.273438 C 18.363281 13.273438 18.402344 13.175781 18.425781 13.144531 C 18.625 12.855469 18.792969 12.726562 18.875 12.726562 C 18.9375 12.726562 18.960938 12.742188 18.992188 12.863281 L 19.296875 13.984375 C 19.3125 14.03125 19.3125 14.089844 19.273438 14.128906 C 18.9375 14.511719 18.761719 14.742188 18.441406 15.070312 C 18.378906 15.136719 18.296875 15.175781 18.226562 15.167969 C 18.160156 15.167969 18.105469 15.113281 18.074219 14.984375 C 18.058594 14.910156 18.027344 14.839844 17.945312 14.839844 C 17.808594 14.839844 17.585938 15.160156 17.585938 15.34375 C 17.585938 15.550781 17.753906 15.648438 17.914062 15.648438 Z M 17.914062 15.648438 "/>
<path style=" stroke:none;fill-rule:evenodd;fill:rgb(0%,0%,0%);fill-opacity:1;" d="M 17.019531 21.070312 C 17.210938 21.070312 17.386719 21.007812 17.609375 20.742188 C 17.875 20.433594 18.128906 20.078125 18.386719 19.761719 C 18.449219 19.679688 18.480469 19.679688 18.511719 19.808594 L 18.691406 20.535156 C 18.785156 20.886719 18.898438 21.070312 19.195312 21.070312 C 19.65625 21.070312 20.027344 20.3125 20.027344 20.015625 C 20.027344 19.855469 19.992188 19.839844 19.953125 19.839844 C 19.914062 19.839844 19.882812 19.871094 19.847656 19.953125 C 19.691406 20.34375 19.472656 20.59375 19.320312 20.59375 C 19.265625 20.59375 19.195312 20.542969 19.152344 20.398438 L 18.882812 19.414062 C 18.839844 19.28125 18.859375 19.199219 18.898438 19.136719 C 19.097656 18.832031 19.273438 18.625 19.425781 18.449219 C 19.609375 18.222656 19.753906 18.113281 19.882812 18.113281 C 19.953125 18.113281 20 18.152344 20.058594 18.296875 C 20.089844 18.375 20.136719 18.433594 20.203125 18.433594 C 20.335938 18.433594 20.539062 18.113281 20.53125 17.992188 C 20.523438 17.863281 20.328125 17.648438 20.121094 17.648438 C 19.832031 17.648438 19.5625 17.894531 19.402344 18.121094 L 18.839844 18.921875 C 18.785156 18.992188 18.746094 18.984375 18.730469 18.902344 L 18.53125 18.054688 C 18.457031 17.777344 18.363281 17.648438 18.195312 17.648438 C 17.839844 17.648438 17.335938 18.246094 17.335938 18.558594 C 17.335938 18.640625 17.355469 18.695312 17.394531 18.695312 C 17.464844 18.695312 17.503906 18.601562 17.53125 18.566406 C 17.730469 18.28125 17.898438 18.152344 17.976562 18.152344 C 18.042969 18.152344 18.066406 18.167969 18.097656 18.289062 L 18.402344 19.40625 C 18.417969 19.457031 18.417969 19.511719 18.378906 19.550781 C 18.042969 19.9375 17.867188 20.167969 17.546875 20.496094 C 17.480469 20.558594 17.402344 20.601562 17.328125 20.59375 C 17.265625 20.59375 17.210938 20.535156 17.175781 20.40625 C 17.160156 20.335938 17.128906 20.265625 17.050781 20.265625 C 16.914062 20.265625 16.691406 20.585938 16.691406 20.769531 C 16.691406 20.976562 16.859375 21.070312 17.019531 21.070312 Z M 17.019531 21.070312 "/>
<path style=" stroke:none;fill-rule:evenodd;fill:rgb(0%,0%,0%);fill-opacity:1;" d="M 8.503906 37.496094 C 8.773438 37.496094 9.019531 37.40625 9.335938 37.039062 C 9.703125 36.601562 10.0625 36.109375 10.421875 35.660156 C 10.511719 35.546875 10.554688 35.546875 10.601562 35.726562 L 10.847656 36.746094 C 10.980469 37.238281 11.136719 37.496094 11.550781 37.496094 C 12.203125 37.496094 12.71875 36.433594 12.71875 36.019531 C 12.71875 35.792969 12.671875 35.773438 12.617188 35.773438 C 12.558594 35.773438 12.515625 35.816406 12.46875 35.929688 C 12.246094 36.476562 11.945312 36.824219 11.730469 36.824219 C 11.652344 36.824219 11.550781 36.757812 11.496094 36.554688 L 11.113281 35.179688 C 11.058594 34.988281 11.082031 34.875 11.136719 34.785156 C 11.417969 34.359375 11.664062 34.070312 11.875 33.824219 C 12.132812 33.507812 12.335938 33.351562 12.515625 33.351562 C 12.617188 33.351562 12.683594 33.410156 12.761719 33.609375 C 12.804688 33.722656 12.875 33.800781 12.964844 33.800781 C 13.152344 33.800781 13.433594 33.351562 13.421875 33.183594 C 13.410156 33.003906 13.140625 32.703125 12.851562 32.703125 C 12.449219 32.703125 12.066406 33.050781 11.84375 33.363281 L 11.058594 34.484375 C 10.980469 34.585938 10.925781 34.574219 10.902344 34.460938 L 10.621094 33.273438 C 10.523438 32.882812 10.386719 32.703125 10.152344 32.703125 C 9.660156 32.703125 8.953125 33.542969 8.953125 33.980469 C 8.953125 34.09375 8.976562 34.171875 9.03125 34.171875 C 9.132812 34.171875 9.1875 34.035156 9.222656 33.992188 C 9.503906 33.589844 9.738281 33.410156 9.847656 33.410156 C 9.9375 33.410156 9.972656 33.429688 10.019531 33.597656 L 10.441406 35.167969 C 10.464844 35.234375 10.464844 35.3125 10.410156 35.367188 C 9.9375 35.90625 9.691406 36.230469 9.246094 36.691406 C 9.15625 36.78125 9.042969 36.835938 8.941406 36.824219 C 8.851562 36.824219 8.773438 36.746094 8.730469 36.566406 C 8.707031 36.464844 8.664062 36.367188 8.550781 36.367188 C 8.359375 36.367188 8.046875 36.8125 8.046875 37.070312 C 8.046875 37.363281 8.28125 37.496094 8.503906 37.496094 Z M 8.503906 37.496094 "/>
<path style=" stroke:none;fill-rule:evenodd;fill:rgb(0%,0%,0%);fill-opacity:1;" d="M 13.929688 31.128906 C 14.121094 31.128906 14.296875 31.0625 14.523438 30.800781 C 14.785156 30.488281 15.042969 30.136719 15.296875 29.816406 C 15.363281 29.734375 15.394531 29.734375 15.425781 29.863281 L 15.601562 30.59375 C 15.699219 30.945312 15.808594 31.128906 16.105469 31.128906 C 16.570312 31.128906 16.9375 30.367188 16.9375 30.070312 C 16.9375 29.910156 16.90625 29.894531 16.867188 29.894531 C 16.824219 29.894531 16.792969 29.929688 16.761719 30.007812 C 16.601562 30.398438 16.386719 30.648438 16.234375 30.648438 C 16.175781 30.648438 16.105469 30.601562 16.066406 30.457031 L 15.792969 29.472656 C 15.753906 29.335938 15.769531 29.257812 15.808594 29.191406 C 16.007812 28.886719 16.1875 28.679688 16.335938 28.503906 C 16.523438 28.28125 16.664062 28.167969 16.792969 28.167969 C 16.867188 28.167969 16.914062 28.207031 16.96875 28.351562 C 17 28.433594 17.050781 28.488281 17.113281 28.488281 C 17.25 28.488281 17.449219 28.167969 17.441406 28.046875 C 17.433594 27.921875 17.242188 27.703125 17.035156 27.703125 C 16.746094 27.703125 16.472656 27.953125 16.3125 28.175781 L 15.753906 28.976562 C 15.699219 29.046875 15.65625 29.039062 15.640625 28.960938 L 15.441406 28.113281 C 15.371094 27.832031 15.273438 27.703125 15.105469 27.703125 C 14.753906 27.703125 14.25 28.304688 14.25 28.617188 C 14.25 28.695312 14.265625 28.753906 14.304688 28.753906 C 14.378906 28.753906 14.417969 28.65625 14.441406 28.625 C 14.640625 28.335938 14.808594 28.207031 14.890625 28.207031 C 14.953125 28.207031 14.976562 28.222656 15.007812 28.34375 L 15.3125 29.464844 C 15.328125 29.511719 15.328125 29.566406 15.289062 29.609375 C 14.953125 29.992188 14.777344 30.222656 14.457031 30.550781 C 14.394531 30.617188 14.3125 30.65625 14.242188 30.648438 C 14.175781 30.648438 14.121094 30.59375 14.089844 30.464844 C 14.074219 30.390625 14.042969 30.320312 13.960938 30.320312 C 13.824219 30.320312 13.601562 30.640625 13.601562 30.824219 C 13.601562 31.03125 13.769531 31.128906 13.929688 31.128906 Z M 13.929688 31.128906 "/>
<path style=" stroke:none;fill-rule:evenodd;fill:rgb(0%,0%,0%);fill-opacity:1;" d="M 17.914062 28.496094 C 18.105469 28.496094 18.28125 28.433594 18.503906 28.167969 C 18.769531 27.855469 19.027344 27.503906 19.28125 27.183594 C 19.34375 27.105469 19.378906 27.105469 19.410156 27.230469 L 19.585938 27.960938 C 19.679688 28.3125 19.792969 28.496094 20.089844 28.496094 C 20.554688 28.496094 20.921875 27.734375 20.921875 27.441406 C 20.921875 27.28125 20.890625 27.265625 20.847656 27.265625 C 20.808594 27.265625 20.777344 27.296875 20.746094 27.375 C 20.585938 27.769531 20.371094 28.015625 20.21875 28.015625 C 20.160156 28.015625 20.089844 27.96875 20.050781 27.824219 L 19.777344 26.839844 C 19.738281 26.703125 19.753906 26.625 19.792969 26.558594 C 19.992188 26.257812 20.167969 26.046875 20.320312 25.871094 C 20.503906 25.648438 20.648438 25.535156 20.777344 25.535156 C 20.847656 25.535156 20.898438 25.574219 20.953125 25.71875 C 20.984375 25.800781 21.035156 25.855469 21.097656 25.855469 C 21.234375 25.855469 21.433594 25.535156 21.425781 25.414062 C 21.417969 25.289062 21.226562 25.070312 21.019531 25.070312 C 20.730469 25.070312 20.457031 25.320312 20.296875 25.542969 L 19.738281 26.34375 C 19.679688 26.414062 19.640625 26.40625 19.625 26.328125 L 19.425781 25.480469 C 19.355469 25.199219 19.257812 25.070312 19.089844 25.070312 C 18.738281 25.070312 18.234375 25.671875 18.234375 25.984375 C 18.234375 26.0625 18.25 26.121094 18.289062 26.121094 C 18.363281 26.121094 18.402344 26.023438 18.425781 25.992188 C 18.625 25.703125 18.792969 25.574219 18.875 25.574219 C 18.9375 25.574219 18.960938 25.59375 18.992188 25.710938 L 19.296875 26.832031 C 19.3125 26.878906 19.3125 26.9375 19.273438 26.976562 C 18.9375 27.359375 18.761719 27.59375 18.441406 27.921875 C 18.378906 27.984375 18.296875 28.023438 18.226562 28.015625 C 18.160156 28.015625 18.105469 27.960938 18.074219 27.832031 C 18.058594 27.761719 18.027344 27.6875 17.945312 27.6875 C 17.808594 27.6875 17.585938 28.007812 17.585938 28.191406 C 17.585938 28.398438 17.753906 28.496094 17.914062 28.496094 Z M 17.914062 28.496094 "/>
<path style=" stroke:none;fill-rule:evenodd;fill:rgb(0%,0%,0%);fill-opacity:1;" d="M 17.019531 33.921875 C 17.210938 33.921875 17.386719 33.855469 17.609375 33.59375 C 17.875 33.28125 18.128906 32.929688 18.386719 32.609375 C 18.449219 32.527344 18.480469 32.527344 18.511719 32.65625 L 18.691406 33.382812 C 18.785156 33.734375 18.898438 33.921875 19.195312 33.921875 C 19.65625 33.921875 20.027344 33.160156 20.027344 32.863281 C 20.027344 32.703125 19.992188 32.6875 19.953125 32.6875 C 19.914062 32.6875 19.882812 32.71875 19.847656 32.800781 C 19.691406 33.191406 19.472656 33.441406 19.320312 33.441406 C 19.265625 33.441406 19.195312 33.390625 19.152344 33.246094 L 18.882812 32.265625 C 18.839844 32.128906 18.859375 32.046875 18.898438 31.984375 C 19.097656 31.679688 19.273438 31.472656 19.425781 31.296875 C 19.609375 31.070312 19.753906 30.960938 19.882812 30.960938 C 19.953125 30.960938 20 31 20.058594 31.144531 C 20.089844 31.222656 20.136719 31.28125 20.203125 31.28125 C 20.335938 31.28125 20.539062 30.960938 20.53125 30.839844 C 20.523438 30.710938 20.328125 30.496094 20.121094 30.496094 C 19.832031 30.496094 19.5625 30.742188 19.402344 30.96875 L 18.839844 31.769531 C 18.785156 31.839844 18.746094 31.832031 18.730469 31.753906 L 18.53125 30.902344 C 18.457031 30.625 18.363281 30.496094 18.195312 30.496094 C 17.839844 30.496094 17.335938 31.097656 17.335938 31.40625 C 17.335938 31.488281 17.355469 31.542969 17.394531 31.542969 C 17.464844 31.542969 17.503906 31.449219 17.53125 31.414062 C 17.730469 31.128906 17.898438 31 17.976562 31 C 18.042969 31 18.066406 31.015625 18.097656 31.136719 L 18.402344 32.257812 C 18.417969 32.304688 18.417969 32.359375 18.378906 32.398438 C 18.042969 32.785156 17.867188 33.015625 17.546875 33.34375 C 17.480469 33.40625 17.402344 33.449219 17.328125 33.441406 C 17.265625 33.441406 17.210938 33.382812 17.175781 33.257812 C 17.160156 33.183594 17.128906 33.113281 17.050781 33.113281 C 16.914062 33.113281 16.691406 33.433594 16.691406 33.617188 C 16.691406 33.824219 16.859375 33.921875 17.019531 33.921875 Z M 17.019531 33.921875 "/>
<path style=" stroke:none;fill-rule:evenodd;fill:rgb(0%,0%,0%);fill-opacity:1;" d="M 13.929688 42.777344 C 14.121094 42.777344 14.296875 42.710938 14.523438 42.449219 C 14.785156 42.136719 15.042969 41.785156 15.296875 41.464844 C 15.363281 41.382812 15.394531 41.382812 15.425781 41.511719 L 15.601562 42.238281 C 15.699219 42.59375 15.808594 42.777344 16.105469 42.777344 C 16.570312 42.777344 16.9375 42.015625 16.9375 41.71875 C 16.9375 41.558594 16.90625 41.542969 16.867188 41.542969 C 16.824219 41.542969 16.792969 41.574219 16.761719 41.65625 C 16.601562 42.046875 16.386719 42.296875 16.234375 42.296875 C 16.175781 42.296875 16.105469 42.246094 16.066406 42.105469 L 15.792969 41.121094 C 15.753906 40.984375 15.769531 40.902344 15.808594 40.839844 C 16.007812 40.535156 16.1875 40.328125 16.335938 40.152344 C 16.523438 39.929688 16.664062 39.816406 16.792969 39.816406 C 16.867188 39.816406 16.914062 39.855469 16.96875 40 C 17 40.078125 17.050781 40.136719 17.113281 40.136719 C 17.25 40.136719 17.449219 39.816406 17.441406 39.695312 C 17.433594 39.566406 17.242188 39.351562 17.035156 39.351562 C 16.746094 39.351562 16.472656 39.601562 16.3125 39.824219 L 15.753906 40.625 C 15.699219 40.695312 15.65625 40.6875 15.640625 40.609375 L 15.441406 39.761719 C 15.371094 39.480469 15.273438 39.351562 15.105469 39.351562 C 14.753906 39.351562 14.25 39.953125 14.25 40.265625 C 14.25 40.34375 14.265625 40.398438 14.304688 40.398438 C 14.378906 40.398438 14.417969 40.304688 14.441406 40.273438 C 14.640625 39.984375 14.808594 39.855469 14.890625 39.855469 C 14.953125 39.855469 14.976562 39.871094 15.007812 39.992188 L 15.3125 41.113281 C 15.328125 41.160156 15.328125 41.214844 15.289062 41.257812 C 14.953125 41.640625 14.777344 41.871094 14.457031 42.199219 C 14.394531 42.265625 14.3125 42.304688 14.242188 42.296875 C 14.175781 42.296875 14.121094 42.238281 14.089844 42.113281 C 14.074219 42.039062 14.042969 41.96875 13.960938 41.96875 C 13.824219 41.96875 13.601562 42.289062 13.601562 42.472656 C 13.601562 42.679688 13.769531 42.777344 13.929688 42.777344 Z M 13.929688 42.777344 "/>
<path style=" stroke:none;fill-rule:evenodd;fill:rgb(0%,0%,0%);fill-opacity:1;" d="M 17.914062 40.144531 C 18.105469 40.144531 18.28125 40.078125 18.503906 39.816406 C 18.769531 39.503906 19.027344 39.152344 19.28125 38.832031 C 19.34375 38.753906 19.378906 38.753906 19.410156 38.878906 L 19.585938 39.609375 C 19.679688 39.960938 19.792969 40.144531 20.089844 40.144531 C 20.554688 40.144531 20.921875 39.382812 20.921875 39.089844 C 20.921875 38.929688 20.890625 38.910156 20.847656 38.910156 C 20.808594 38.910156 20.777344 38.945312 20.746094 39.023438 C 20.585938 39.414062 20.371094 39.664062 20.21875 39.664062 C 20.160156 39.664062 20.089844 39.617188 20.050781 39.472656 L 19.777344 38.488281 C 19.738281 38.351562 19.753906 38.273438 19.792969 38.207031 C 19.992188 37.902344 20.167969 37.695312 20.320312 37.519531 C 20.503906 37.296875 20.648438 37.183594 20.777344 37.183594 C 20.847656 37.183594 20.898438 37.222656 20.953125 37.367188 C 20.984375 37.449219 21.035156 37.503906 21.097656 37.503906 C 21.234375 37.503906 21.433594 37.183594 21.425781 37.0625 C 21.417969 36.9375 21.226562 36.71875 21.019531 36.71875 C 20.730469 36.71875 20.457031 36.96875 20.296875 37.191406 L 19.738281 37.992188 C 19.679688 38.0625 19.640625 38.054688 19.625 37.976562 L 19.425781 37.128906 C 19.355469 36.847656 19.257812 36.71875 19.089844 36.71875 C 18.738281 36.71875 18.234375 37.320312 18.234375 37.632812 C 18.234375 37.710938 18.25 37.769531 18.289062 37.769531 C 18.363281 37.769531 18.402344 37.671875 18.425781 37.640625 C 18.625 37.351562 18.792969 37.222656 18.875 37.222656 C 18.9375 37.222656 18.960938 37.238281 18.992188 37.359375 L 19.296875 38.480469 C 19.3125 38.527344 19.3125 38.585938 19.273438 38.625 C 18.9375 39.007812 18.761719 39.238281 18.441406 39.566406 C 18.378906 39.632812 18.296875 39.671875 18.226562 39.664062 C 18.160156 39.664062 18.105469 39.609375 18.074219 39.480469 C 18.058594 39.40625 18.027344 39.335938 17.945312 39.335938 C 17.808594 39.335938 17.585938 39.65625 17.585938 39.839844 C 17.585938 40.046875 17.753906 40.144531 17.914062 40.144531 Z M 17.914062 40.144531 "/>
<path style=" stroke:none;fill-rule:evenodd;fill:rgb(0%,0%,0%);fill-opacity:1;" d="M 17.019531 45.566406 C 17.210938 45.566406 17.386719 45.503906 17.609375 45.238281 C 17.875 44.929688 18.128906 44.574219 18.386719 44.257812 C 18.449219 44.175781 18.480469 44.175781 18.511719 44.304688 L 18.691406 45.03125 C 18.785156 45.382812 18.898438 45.566406 19.195312 45.566406 C 19.65625 45.566406 20.027344 44.808594 20.027344 44.511719 C 20.027344 44.351562 19.992188 44.335938 19.953125 44.335938 C 19.914062 44.335938 19.882812 44.367188 19.847656 44.449219 C 19.691406 44.839844 19.472656 45.089844 19.320312 45.089844 C 19.265625 45.089844 19.195312 45.039062 19.152344 44.894531 L 18.882812 43.910156 C 18.839844 43.777344 18.859375 43.695312 18.898438 43.632812 C 19.097656 43.328125 19.273438 43.121094 19.425781 42.945312 C 19.609375 42.71875 19.753906 42.609375 19.882812 42.609375 C 19.953125 42.609375 20 42.648438 20.058594 42.792969 C 20.089844 42.871094 20.136719 42.929688 20.203125 42.929688 C 20.335938 42.929688 20.539062 42.609375 20.53125 42.488281 C 20.523438 42.359375 20.328125 42.144531 20.121094 42.144531 C 19.832031 42.144531 19.5625 42.390625 19.402344 42.617188 L 18.839844 43.414062 C 18.785156 43.488281 18.746094 43.480469 18.730469 43.398438 L 18.53125 42.550781 C 18.457031 42.273438 18.363281 42.144531 18.195312 42.144531 C 17.839844 42.144531 17.335938 42.742188 17.335938 43.054688 C 17.335938 43.136719 17.355469 43.191406 17.394531 43.191406 C 17.464844 43.191406 17.503906 43.097656 17.53125 43.0625 C 17.730469 42.777344 17.898438 42.648438 17.976562 42.648438 C 18.042969 42.648438 18.066406 42.664062 18.097656 42.785156 L 18.402344 43.902344 C 18.417969 43.953125 18.417969 44.007812 18.378906 44.046875 C 18.042969 44.433594 17.867188 44.664062 17.546875 44.992188 C 17.480469 45.054688 17.402344 45.097656 17.328125 45.089844 C 17.265625 45.089844 17.210938 45.03125 17.175781 44.902344 C 17.160156 44.832031 17.128906 44.761719 17.050781 44.761719 C 16.914062 44.761719 16.691406 45.078125 16.691406 45.265625 C 16.691406 45.472656 16.859375 45.566406 17.019531 45.566406 Z M 17.019531 45.566406 "/>
</g>
</svg>
