<?xml version="1.0" encoding="UTF-8"?>
<svg xmlns="http://www.w3.org/2000/svg" xmlns:xlink="http://www.w3.org/1999/xlink" width="53.784003pt" height="113.920005pt" viewBox="0 0 53.784003 113.920005" version="1.1">
<g id="surface1">
<path style=" stroke:none;fill-rule:evenodd;fill:rgb(0%,0%,0%);fill-opacity:1;" d="M 1.921875 67.640625 C 2.878906 67.640625 3.761719 67.320312 4.878906 66 C 6.199219 64.441406 7.480469 62.679688 8.761719 61.078125 C 9.078125 60.679688 9.238281 60.679688 9.398438 61.320312 L 10.28125 64.960938 C 10.761719 66.71875 11.320312 67.640625 12.800781 67.640625 C 15.121094 67.640625 16.960938 63.839844 16.960938 62.359375 C 16.960938 61.558594 16.800781 61.480469 16.601562 61.480469 C 16.398438 61.480469 16.238281 61.640625 16.078125 62.039062 C 15.28125 64 14.199219 65.238281 13.441406 65.238281 C 13.160156 65.238281 12.800781 65 12.601562 64.28125 L 11.238281 59.359375 C 11.039062 58.679688 11.121094 58.28125 11.320312 57.960938 C 12.320312 56.441406 13.199219 55.398438 13.960938 54.519531 C 14.878906 53.398438 15.601562 52.839844 16.238281 52.839844 C 16.601562 52.839844 16.839844 53.039062 17.121094 53.761719 C 17.28125 54.160156 17.519531 54.441406 17.839844 54.441406 C 18.519531 54.441406 19.519531 52.839844 19.480469 52.238281 C 19.441406 51.601562 18.480469 50.519531 17.441406 50.519531 C 16 50.519531 14.640625 51.761719 13.839844 52.878906 L 11.039062 56.878906 C 10.761719 57.238281 10.558594 57.199219 10.480469 56.800781 L 9.480469 52.558594 C 9.121094 51.160156 8.640625 50.519531 7.800781 50.519531 C 6.039062 50.519531 3.519531 53.519531 3.519531 55.078125 C 3.519531 55.480469 3.601562 55.761719 3.800781 55.761719 C 4.160156 55.761719 4.359375 55.28125 4.480469 55.121094 C 5.480469 53.679688 6.320312 53.039062 6.71875 53.039062 C 7.039062 53.039062 7.160156 53.121094 7.320312 53.71875 L 8.839844 59.320312 C 8.921875 59.558594 8.921875 59.839844 8.71875 60.039062 C 7.039062 61.960938 6.160156 63.121094 4.558594 64.761719 C 4.238281 65.078125 3.839844 65.28125 3.480469 65.238281 C 3.160156 65.238281 2.878906 64.960938 2.71875 64.320312 C 2.640625 63.960938 2.480469 63.601562 2.078125 63.601562 C 1.398438 63.601562 0.28125 65.199219 0.28125 66.121094 C 0.28125 67.160156 1.121094 67.640625 1.921875 67.640625 Z M 1.921875 67.640625 "/>
<path style=" stroke:none;fill-rule:evenodd;fill:rgb(0%,0%,0%);fill-opacity:1;" d="M 21.265625 33.082031 C 21.9375 33.082031 22.550781 32.859375 23.335938 31.933594 C 24.261719 30.84375 25.15625 29.609375 26.050781 28.488281 C 26.277344 28.210938 26.386719 28.210938 26.5 28.65625 L 27.117188 31.207031 C 27.453125 32.4375 27.84375 33.082031 28.878906 33.082031 C 30.503906 33.082031 31.792969 30.421875 31.792969 29.386719 C 31.792969 28.824219 31.679688 28.769531 31.539062 28.769531 C 31.398438 28.769531 31.289062 28.882812 31.175781 29.160156 C 30.617188 30.535156 29.859375 31.402344 29.328125 31.402344 C 29.132812 31.402344 28.878906 31.234375 28.738281 30.730469 L 27.789062 27.285156 C 27.648438 26.808594 27.703125 26.53125 27.84375 26.304688 C 28.542969 25.242188 29.160156 24.515625 29.691406 23.898438 C 30.335938 23.113281 30.839844 22.722656 31.289062 22.722656 C 31.539062 22.722656 31.707031 22.863281 31.902344 23.367188 C 32.015625 23.644531 32.183594 23.84375 32.40625 23.84375 C 32.882812 23.84375 33.585938 22.722656 33.554688 22.300781 C 33.527344 21.855469 32.855469 21.097656 32.128906 21.097656 C 31.121094 21.097656 30.167969 21.964844 29.609375 22.75 L 27.648438 25.550781 C 27.453125 25.800781 27.3125 25.773438 27.257812 25.492188 L 26.554688 22.527344 C 26.304688 21.546875 25.96875 21.097656 25.378906 21.097656 C 24.148438 21.097656 22.382812 23.199219 22.382812 24.289062 C 22.382812 24.570312 22.441406 24.765625 22.578125 24.765625 C 22.832031 24.765625 22.972656 24.429688 23.054688 24.316406 C 23.757812 23.308594 24.34375 22.863281 24.625 22.863281 C 24.847656 22.863281 24.933594 22.917969 25.042969 23.339844 L 26.109375 27.257812 C 26.164062 27.425781 26.164062 27.621094 26.023438 27.761719 C 24.847656 29.105469 24.230469 29.917969 23.113281 31.066406 C 22.886719 31.289062 22.609375 31.429688 22.355469 31.402344 C 22.132812 31.402344 21.9375 31.207031 21.824219 30.757812 C 21.769531 30.507812 21.65625 30.253906 21.375 30.253906 C 20.898438 30.253906 20.117188 31.375 20.117188 32.019531 C 20.117188 32.746094 20.703125 33.082031 21.265625 33.082031 Z M 21.265625 33.082031 "/>
<path style=" stroke:none;fill-rule:evenodd;fill:rgb(0%,0%,0%);fill-opacity:1;" d="M 34.824219 17.160156 C 35.304688 17.160156 35.742188 17 36.304688 16.339844 C 36.964844 15.558594 37.605469 14.679688 38.242188 13.878906 C 38.402344 13.679688 38.484375 13.679688 38.5625 14 L 39.003906 15.820312 C 39.242188 16.699219 39.523438 17.160156 40.265625 17.160156 C 41.425781 17.160156 42.34375 15.261719 42.34375 14.519531 C 42.34375 14.121094 42.265625 14.078125 42.164062 14.078125 C 42.0625 14.078125 41.984375 14.160156 41.902344 14.359375 C 41.503906 15.339844 40.964844 15.960938 40.585938 15.960938 C 40.445312 15.960938 40.265625 15.839844 40.164062 15.480469 L 39.484375 13.019531 C 39.382812 12.679688 39.425781 12.480469 39.523438 12.320312 C 40.023438 11.558594 40.464844 11.039062 40.84375 10.601562 C 41.304688 10.039062 41.664062 9.761719 41.984375 9.761719 C 42.164062 9.761719 42.285156 9.859375 42.425781 10.21875 C 42.503906 10.421875 42.625 10.558594 42.785156 10.558594 C 43.125 10.558594 43.625 9.761719 43.605469 9.460938 C 43.585938 9.140625 43.105469 8.601562 42.585938 8.601562 C 41.863281 8.601562 41.183594 9.21875 40.785156 9.78125 L 39.382812 11.78125 C 39.242188 11.960938 39.144531 11.941406 39.105469 11.738281 L 38.605469 9.621094 C 38.425781 8.921875 38.183594 8.601562 37.765625 8.601562 C 36.882812 8.601562 35.625 10.101562 35.625 10.878906 C 35.625 11.078125 35.664062 11.21875 35.765625 11.21875 C 35.945312 11.21875 36.042969 10.980469 36.105469 10.898438 C 36.605469 10.179688 37.023438 9.859375 37.222656 9.859375 C 37.382812 9.859375 37.445312 9.898438 37.523438 10.199219 L 38.285156 13 C 38.324219 13.121094 38.324219 13.261719 38.222656 13.359375 C 37.382812 14.320312 36.945312 14.898438 36.144531 15.71875 C 35.984375 15.878906 35.785156 15.980469 35.605469 15.960938 C 35.445312 15.960938 35.304688 15.820312 35.222656 15.5 C 35.183594 15.320312 35.105469 15.140625 34.902344 15.140625 C 34.5625 15.140625 34.003906 15.941406 34.003906 16.398438 C 34.003906 16.921875 34.425781 17.160156 34.824219 17.160156 Z M 34.824219 17.160156 "/>
<path style=" stroke:none;fill-rule:evenodd;fill:rgb(0%,0%,0%);fill-opacity:1;" d="M 44.785156 8.558594 C 45.265625 8.558594 45.703125 8.398438 46.265625 7.738281 C 46.925781 6.960938 47.5625 6.078125 48.203125 5.28125 C 48.363281 5.078125 48.445312 5.078125 48.523438 5.398438 L 48.964844 7.21875 C 49.203125 8.101562 49.484375 8.558594 50.222656 8.558594 C 51.382812 8.558594 52.304688 6.660156 52.304688 5.921875 C 52.304688 5.519531 52.222656 5.480469 52.125 5.480469 C 52.023438 5.480469 51.945312 5.558594 51.863281 5.761719 C 51.464844 6.738281 50.925781 7.359375 50.542969 7.359375 C 50.402344 7.359375 50.222656 7.238281 50.125 6.878906 L 49.445312 4.421875 C 49.34375 4.078125 49.382812 3.878906 49.484375 3.71875 C 49.984375 2.960938 50.425781 2.441406 50.804688 2 C 51.265625 1.441406 51.625 1.160156 51.945312 1.160156 C 52.125 1.160156 52.242188 1.261719 52.382812 1.621094 C 52.464844 1.820312 52.585938 1.960938 52.742188 1.960938 C 53.085938 1.960938 53.585938 1.160156 53.5625 0.859375 C 53.542969 0.539062 53.0625 0 52.542969 0 C 51.824219 0 51.144531 0.621094 50.742188 1.179688 L 49.34375 3.179688 C 49.203125 3.359375 49.105469 3.339844 49.0625 3.140625 L 48.5625 1.019531 C 48.382812 0.320312 48.144531 0 47.722656 0 C 46.84375 0 45.585938 1.5 45.585938 2.28125 C 45.585938 2.480469 45.625 2.621094 45.722656 2.621094 C 45.902344 2.621094 46.003906 2.378906 46.0625 2.300781 C 46.5625 1.578125 46.984375 1.261719 47.183594 1.261719 C 47.34375 1.261719 47.402344 1.300781 47.484375 1.601562 L 48.242188 4.398438 C 48.285156 4.519531 48.285156 4.660156 48.183594 4.761719 C 47.34375 5.71875 46.902344 6.300781 46.105469 7.121094 C 45.945312 7.28125 45.742188 7.378906 45.5625 7.359375 C 45.402344 7.359375 45.265625 7.21875 45.183594 6.898438 C 45.144531 6.71875 45.0625 6.539062 44.863281 6.539062 C 44.523438 6.539062 43.964844 7.339844 43.964844 7.800781 C 43.964844 8.320312 44.382812 8.558594 44.785156 8.558594 Z M 44.785156 8.558594 "/>
<path style=" stroke:none;fill-rule:evenodd;fill:rgb(0%,0%,0%);fill-opacity:1;" d="M 42.542969 23.558594 C 43.023438 23.558594 43.464844 23.398438 44.023438 22.738281 C 44.683594 21.960938 45.324219 21.078125 45.964844 20.28125 C 46.125 20.078125 46.203125 20.078125 46.285156 20.398438 L 46.722656 22.21875 C 46.964844 23.101562 47.242188 23.558594 47.984375 23.558594 C 49.144531 23.558594 50.0625 21.660156 50.0625 20.921875 C 50.0625 20.519531 49.984375 20.480469 49.882812 20.480469 C 49.785156 20.480469 49.703125 20.558594 49.625 20.761719 C 49.222656 21.738281 48.683594 22.359375 48.304688 22.359375 C 48.164062 22.359375 47.984375 22.238281 47.882812 21.878906 L 47.203125 19.421875 C 47.105469 19.078125 47.144531 18.878906 47.242188 18.71875 C 47.742188 17.960938 48.183594 17.441406 48.5625 17 C 49.023438 16.441406 49.382812 16.160156 49.703125 16.160156 C 49.882812 16.160156 50.003906 16.261719 50.144531 16.621094 C 50.222656 16.820312 50.34375 16.960938 50.503906 16.960938 C 50.84375 16.960938 51.34375 16.160156 51.324219 15.859375 C 51.304688 15.539062 50.824219 15 50.304688 15 C 49.585938 15 48.902344 15.621094 48.503906 16.179688 L 47.105469 18.179688 C 46.964844 18.359375 46.863281 18.339844 46.824219 18.140625 L 46.324219 16.019531 C 46.144531 15.320312 45.902344 15 45.484375 15 C 44.605469 15 43.34375 16.5 43.34375 17.28125 C 43.34375 17.480469 43.382812 17.621094 43.484375 17.621094 C 43.664062 17.621094 43.765625 17.378906 43.824219 17.300781 C 44.324219 16.578125 44.742188 16.261719 44.945312 16.261719 C 45.105469 16.261719 45.164062 16.300781 45.242188 16.601562 L 46.003906 19.398438 C 46.042969 19.519531 46.042969 19.660156 45.945312 19.761719 C 45.105469 20.71875 44.664062 21.300781 43.863281 22.121094 C 43.703125 22.28125 43.503906 22.378906 43.324219 22.359375 C 43.164062 22.359375 43.023438 22.21875 42.945312 21.898438 C 42.902344 21.71875 42.824219 21.539062 42.625 21.539062 C 42.285156 21.539062 41.722656 22.339844 41.722656 22.800781 C 41.722656 23.320312 42.144531 23.558594 42.542969 23.558594 Z M 42.542969 23.558594 "/>
<path style=" stroke:none;fill-rule:evenodd;fill:rgb(0%,0%,0%);fill-opacity:1;" d="M 34.824219 45.699219 C 35.304688 45.699219 35.742188 45.539062 36.304688 44.878906 C 36.964844 44.101562 37.605469 43.21875 38.242188 42.421875 C 38.402344 42.21875 38.484375 42.21875 38.5625 42.539062 L 39.003906 44.359375 C 39.242188 45.238281 39.523438 45.699219 40.265625 45.699219 C 41.425781 45.699219 42.34375 43.800781 42.34375 43.058594 C 42.34375 42.660156 42.265625 42.621094 42.164062 42.621094 C 42.0625 42.621094 41.984375 42.699219 41.902344 42.898438 C 41.503906 43.878906 40.964844 44.5 40.585938 44.5 C 40.445312 44.5 40.265625 44.378906 40.164062 44.019531 L 39.484375 41.558594 C 39.382812 41.21875 39.425781 41.019531 39.523438 40.859375 C 40.023438 40.101562 40.464844 39.578125 40.84375 39.140625 C 41.304688 38.578125 41.664062 38.300781 41.984375 38.300781 C 42.164062 38.300781 42.285156 38.398438 42.425781 38.761719 C 42.503906 38.960938 42.625 39.101562 42.785156 39.101562 C 43.125 39.101562 43.625 38.300781 43.605469 38 C 43.585938 37.679688 43.105469 37.140625 42.585938 37.140625 C 41.863281 37.140625 41.183594 37.761719 40.785156 38.320312 L 39.382812 40.320312 C 39.242188 40.5 39.144531 40.480469 39.105469 40.28125 L 38.605469 38.160156 C 38.425781 37.460938 38.183594 37.140625 37.765625 37.140625 C 36.882812 37.140625 35.625 38.640625 35.625 39.421875 C 35.625 39.621094 35.664062 39.761719 35.765625 39.761719 C 35.945312 39.761719 36.042969 39.519531 36.105469 39.441406 C 36.605469 38.71875 37.023438 38.398438 37.222656 38.398438 C 37.382812 38.398438 37.445312 38.441406 37.523438 38.738281 L 38.285156 41.539062 C 38.324219 41.660156 38.324219 41.800781 38.222656 41.898438 C 37.382812 42.859375 36.945312 43.441406 36.144531 44.261719 C 35.984375 44.421875 35.785156 44.519531 35.605469 44.5 C 35.445312 44.5 35.304688 44.359375 35.222656 44.039062 C 35.183594 43.859375 35.105469 43.679688 34.902344 43.679688 C 34.5625 43.679688 34.003906 44.480469 34.003906 44.941406 C 34.003906 45.460938 34.425781 45.699219 34.824219 45.699219 Z M 34.824219 45.699219 "/>
<path style=" stroke:none;fill-rule:evenodd;fill:rgb(0%,0%,0%);fill-opacity:1;" d="M 44.785156 39.121094 C 45.265625 39.121094 45.703125 38.960938 46.265625 38.300781 C 46.925781 37.519531 47.5625 36.640625 48.203125 35.839844 C 48.363281 35.640625 48.445312 35.640625 48.523438 35.960938 L 48.964844 37.78125 C 49.203125 38.660156 49.484375 39.121094 50.222656 39.121094 C 51.382812 39.121094 52.304688 37.21875 52.304688 36.480469 C 52.304688 36.078125 52.222656 36.039062 52.125 36.039062 C 52.023438 36.039062 51.945312 36.121094 51.863281 36.320312 C 51.464844 37.300781 50.925781 37.921875 50.542969 37.921875 C 50.402344 37.921875 50.222656 37.800781 50.125 37.441406 L 49.445312 34.980469 C 49.34375 34.640625 49.382812 34.441406 49.484375 34.28125 C 49.984375 33.519531 50.425781 33 50.804688 32.558594 C 51.265625 32 51.625 31.71875 51.945312 31.71875 C 52.125 31.71875 52.242188 31.820312 52.382812 32.179688 C 52.464844 32.378906 52.585938 32.519531 52.742188 32.519531 C 53.085938 32.519531 53.585938 31.71875 53.5625 31.421875 C 53.542969 31.101562 53.0625 30.558594 52.542969 30.558594 C 51.824219 30.558594 51.144531 31.179688 50.742188 31.738281 L 49.34375 33.738281 C 49.203125 33.921875 49.105469 33.898438 49.0625 33.699219 L 48.5625 31.578125 C 48.382812 30.878906 48.144531 30.558594 47.722656 30.558594 C 46.84375 30.558594 45.585938 32.058594 45.585938 32.839844 C 45.585938 33.039062 45.625 33.179688 45.722656 33.179688 C 45.902344 33.179688 46.003906 32.941406 46.0625 32.859375 C 46.5625 32.140625 46.984375 31.820312 47.183594 31.820312 C 47.34375 31.820312 47.402344 31.859375 47.484375 32.160156 L 48.242188 34.960938 C 48.285156 35.078125 48.285156 35.21875 48.183594 35.320312 C 47.34375 36.28125 46.902344 36.859375 46.105469 37.679688 C 45.945312 37.839844 45.742188 37.941406 45.5625 37.921875 C 45.402344 37.921875 45.265625 37.78125 45.183594 37.460938 C 45.144531 37.28125 45.0625 37.101562 44.863281 37.101562 C 44.523438 37.101562 43.964844 37.898438 43.964844 38.359375 C 43.964844 38.878906 44.382812 39.121094 44.785156 39.121094 Z M 44.785156 39.121094 "/>
<path style=" stroke:none;fill-rule:evenodd;fill:rgb(0%,0%,0%);fill-opacity:1;" d="M 42.542969 52.679688 C 43.023438 52.679688 43.464844 52.519531 44.023438 51.859375 C 44.683594 51.078125 45.324219 50.199219 45.964844 49.398438 C 46.125 49.199219 46.203125 49.199219 46.285156 49.519531 L 46.722656 51.339844 C 46.964844 52.21875 47.242188 52.679688 47.984375 52.679688 C 49.144531 52.679688 50.0625 50.78125 50.0625 50.039062 C 50.0625 49.640625 49.984375 49.601562 49.882812 49.601562 C 49.785156 49.601562 49.703125 49.679688 49.625 49.878906 C 49.222656 50.859375 48.683594 51.480469 48.304688 51.480469 C 48.164062 51.480469 47.984375 51.359375 47.882812 51 L 47.203125 48.539062 C 47.105469 48.199219 47.144531 48 47.242188 47.839844 C 47.742188 47.078125 48.183594 46.558594 48.5625 46.121094 C 49.023438 45.558594 49.382812 45.28125 49.703125 45.28125 C 49.882812 45.28125 50.003906 45.378906 50.144531 45.738281 C 50.222656 45.941406 50.34375 46.078125 50.503906 46.078125 C 50.84375 46.078125 51.34375 45.28125 51.324219 44.980469 C 51.304688 44.660156 50.824219 44.121094 50.304688 44.121094 C 49.585938 44.121094 48.902344 44.738281 48.503906 45.300781 L 47.105469 47.300781 C 46.964844 47.480469 46.863281 47.460938 46.824219 47.261719 L 46.324219 45.140625 C 46.144531 44.441406 45.902344 44.121094 45.484375 44.121094 C 44.605469 44.121094 43.34375 45.621094 43.34375 46.398438 C 43.34375 46.601562 43.382812 46.738281 43.484375 46.738281 C 43.664062 46.738281 43.765625 46.5 43.824219 46.421875 C 44.324219 45.699219 44.742188 45.378906 44.945312 45.378906 C 45.105469 45.378906 45.164062 45.421875 45.242188 45.71875 L 46.003906 48.519531 C 46.042969 48.640625 46.042969 48.78125 45.945312 48.878906 C 45.105469 49.839844 44.664062 50.421875 43.863281 51.238281 C 43.703125 51.398438 43.503906 51.5 43.324219 51.480469 C 43.164062 51.480469 43.023438 51.339844 42.945312 51.019531 C 42.902344 50.839844 42.824219 50.660156 42.625 50.660156 C 42.285156 50.660156 41.722656 51.460938 41.722656 51.921875 C 41.722656 52.441406 42.144531 52.679688 42.542969 52.679688 Z M 42.542969 52.679688 "/>
<path style=" stroke:none;fill-rule:evenodd;fill:rgb(0%,0%,0%);fill-opacity:1;" d="M 21.265625 93.742188 C 21.9375 93.742188 22.550781 93.519531 23.335938 92.59375 C 24.261719 91.503906 25.15625 90.269531 26.050781 89.148438 C 26.277344 88.871094 26.386719 88.871094 26.5 89.316406 L 27.117188 91.867188 C 27.453125 93.097656 27.84375 93.742188 28.878906 93.742188 C 30.503906 93.742188 31.792969 91.082031 31.792969 90.046875 C 31.792969 89.484375 31.679688 89.429688 31.539062 89.429688 C 31.398438 89.429688 31.289062 89.542969 31.175781 89.820312 C 30.617188 91.195312 29.859375 92.0625 29.328125 92.0625 C 29.132812 92.0625 28.878906 91.894531 28.738281 91.390625 L 27.789062 87.945312 C 27.648438 87.46875 27.703125 87.191406 27.84375 86.964844 C 28.542969 85.902344 29.160156 85.175781 29.691406 84.558594 C 30.335938 83.773438 30.839844 83.382812 31.289062 83.382812 C 31.539062 83.382812 31.707031 83.523438 31.902344 84.027344 C 32.015625 84.304688 32.183594 84.503906 32.40625 84.503906 C 32.882812 84.503906 33.585938 83.382812 33.554688 82.960938 C 33.527344 82.515625 32.855469 81.757812 32.128906 81.757812 C 31.121094 81.757812 30.167969 82.625 29.609375 83.410156 L 27.648438 86.210938 C 27.453125 86.460938 27.3125 86.433594 27.257812 86.152344 L 26.554688 83.1875 C 26.304688 82.207031 25.96875 81.757812 25.378906 81.757812 C 24.148438 81.757812 22.382812 83.859375 22.382812 84.949219 C 22.382812 85.230469 22.441406 85.425781 22.578125 85.425781 C 22.832031 85.425781 22.972656 85.089844 23.054688 84.976562 C 23.757812 83.96875 24.34375 83.523438 24.625 83.523438 C 24.847656 83.523438 24.933594 83.578125 25.042969 83.996094 L 26.109375 87.917969 C 26.164062 88.085938 26.164062 88.28125 26.023438 88.421875 C 24.847656 89.765625 24.230469 90.578125 23.113281 91.726562 C 22.886719 91.949219 22.609375 92.089844 22.355469 92.0625 C 22.132812 92.0625 21.9375 91.867188 21.824219 91.417969 C 21.769531 91.164062 21.65625 90.914062 21.375 90.914062 C 20.898438 90.914062 20.117188 92.035156 20.117188 92.679688 C 20.117188 93.40625 20.703125 93.742188 21.265625 93.742188 Z M 21.265625 93.742188 "/>
<path style=" stroke:none;fill-rule:evenodd;fill:rgb(0%,0%,0%);fill-opacity:1;" d="M 34.824219 77.820312 C 35.304688 77.820312 35.742188 77.660156 36.304688 77 C 36.964844 76.21875 37.605469 75.339844 38.242188 74.539062 C 38.402344 74.339844 38.484375 74.339844 38.5625 74.660156 L 39.003906 76.480469 C 39.242188 77.359375 39.523438 77.820312 40.265625 77.820312 C 41.425781 77.820312 42.34375 75.921875 42.34375 75.179688 C 42.34375 74.78125 42.265625 74.738281 42.164062 74.738281 C 42.0625 74.738281 41.984375 74.820312 41.902344 75.019531 C 41.503906 76 40.964844 76.621094 40.585938 76.621094 C 40.445312 76.621094 40.265625 76.5 40.164062 76.140625 L 39.484375 73.679688 C 39.382812 73.339844 39.425781 73.140625 39.523438 72.980469 C 40.023438 72.21875 40.464844 71.699219 40.84375 71.261719 C 41.304688 70.699219 41.664062 70.421875 41.984375 70.421875 C 42.164062 70.421875 42.285156 70.519531 42.425781 70.878906 C 42.503906 71.078125 42.625 71.21875 42.785156 71.21875 C 43.125 71.21875 43.625 70.421875 43.605469 70.121094 C 43.585938 69.800781 43.105469 69.261719 42.585938 69.261719 C 41.863281 69.261719 41.183594 69.878906 40.785156 70.441406 L 39.382812 72.441406 C 39.242188 72.621094 39.144531 72.601562 39.105469 72.398438 L 38.605469 70.28125 C 38.425781 69.578125 38.183594 69.261719 37.765625 69.261719 C 36.882812 69.261719 35.625 70.761719 35.625 71.539062 C 35.625 71.738281 35.664062 71.878906 35.765625 71.878906 C 35.945312 71.878906 36.042969 71.640625 36.105469 71.558594 C 36.605469 70.839844 37.023438 70.519531 37.222656 70.519531 C 37.382812 70.519531 37.445312 70.558594 37.523438 70.859375 L 38.285156 73.660156 C 38.324219 73.78125 38.324219 73.921875 38.222656 74.019531 C 37.382812 74.980469 36.945312 75.558594 36.144531 76.378906 C 35.984375 76.539062 35.785156 76.640625 35.605469 76.621094 C 35.445312 76.621094 35.304688 76.480469 35.222656 76.160156 C 35.183594 75.980469 35.105469 75.800781 34.902344 75.800781 C 34.5625 75.800781 34.003906 76.601562 34.003906 77.058594 C 34.003906 77.578125 34.425781 77.820312 34.824219 77.820312 Z M 34.824219 77.820312 "/>
<path style=" stroke:none;fill-rule:evenodd;fill:rgb(0%,0%,0%);fill-opacity:1;" d="M 44.785156 71.238281 C 45.265625 71.238281 45.703125 71.078125 46.265625 70.421875 C 46.925781 69.640625 47.5625 68.761719 48.203125 67.960938 C 48.363281 67.761719 48.445312 67.761719 48.523438 68.078125 L 48.964844 69.898438 C 49.203125 70.78125 49.484375 71.238281 50.222656 71.238281 C 51.382812 71.238281 52.304688 69.339844 52.304688 68.601562 C 52.304688 68.199219 52.222656 68.160156 52.125 68.160156 C 52.023438 68.160156 51.945312 68.238281 51.863281 68.441406 C 51.464844 69.421875 50.925781 70.039062 50.542969 70.039062 C 50.402344 70.039062 50.222656 69.921875 50.125 69.558594 L 49.445312 67.101562 C 49.34375 66.761719 49.382812 66.558594 49.484375 66.398438 C 49.984375 65.640625 50.425781 65.121094 50.804688 64.679688 C 51.265625 64.121094 51.625 63.839844 51.945312 63.839844 C 52.125 63.839844 52.242188 63.941406 52.382812 64.300781 C 52.464844 64.5 52.585938 64.640625 52.742188 64.640625 C 53.085938 64.640625 53.585938 63.839844 53.5625 63.539062 C 53.542969 63.21875 53.0625 62.679688 52.542969 62.679688 C 51.824219 62.679688 51.144531 63.300781 50.742188 63.859375 L 49.34375 65.859375 C 49.203125 66.039062 49.105469 66.019531 49.0625 65.820312 L 48.5625 63.699219 C 48.382812 63 48.144531 62.679688 47.722656 62.679688 C 46.84375 62.679688 45.585938 64.179688 45.585938 64.960938 C 45.585938 65.160156 45.625 65.300781 45.722656 65.300781 C 45.902344 65.300781 46.003906 65.058594 46.0625 64.980469 C 46.5625 64.261719 46.984375 63.941406 47.183594 63.941406 C 47.34375 63.941406 47.402344 63.980469 47.484375 64.28125 L 48.242188 67.078125 C 48.285156 67.199219 48.285156 67.339844 48.183594 67.441406 C 47.34375 68.398438 46.902344 68.980469 46.105469 69.800781 C 45.945312 69.960938 45.742188 70.058594 45.5625 70.039062 C 45.402344 70.039062 45.265625 69.898438 45.183594 69.578125 C 45.144531 69.398438 45.0625 69.21875 44.863281 69.21875 C 44.523438 69.21875 43.964844 70.019531 43.964844 70.480469 C 43.964844 71 44.382812 71.238281 44.785156 71.238281 Z M 44.785156 71.238281 "/>
<path style=" stroke:none;fill-rule:evenodd;fill:rgb(0%,0%,0%);fill-opacity:1;" d="M 42.542969 84.800781 C 43.023438 84.800781 43.464844 84.640625 44.023438 83.980469 C 44.683594 83.199219 45.324219 82.320312 45.964844 81.519531 C 46.125 81.320312 46.203125 81.320312 46.285156 81.640625 L 46.722656 83.460938 C 46.964844 84.339844 47.242188 84.800781 47.984375 84.800781 C 49.144531 84.800781 50.0625 82.898438 50.0625 82.160156 C 50.0625 81.761719 49.984375 81.71875 49.882812 81.71875 C 49.785156 81.71875 49.703125 81.800781 49.625 82 C 49.222656 82.980469 48.683594 83.601562 48.304688 83.601562 C 48.164062 83.601562 47.984375 83.480469 47.882812 83.121094 L 47.203125 80.660156 C 47.105469 80.320312 47.144531 80.121094 47.242188 79.960938 C 47.742188 79.199219 48.183594 78.679688 48.5625 78.238281 C 49.023438 77.679688 49.382812 77.398438 49.703125 77.398438 C 49.882812 77.398438 50.003906 77.5 50.144531 77.859375 C 50.222656 78.058594 50.34375 78.199219 50.503906 78.199219 C 50.84375 78.199219 51.34375 77.398438 51.324219 77.101562 C 51.304688 76.78125 50.824219 76.238281 50.304688 76.238281 C 49.585938 76.238281 48.902344 76.859375 48.503906 77.421875 L 47.105469 79.421875 C 46.964844 79.601562 46.863281 79.578125 46.824219 79.378906 L 46.324219 77.261719 C 46.144531 76.558594 45.902344 76.238281 45.484375 76.238281 C 44.605469 76.238281 43.34375 77.738281 43.34375 78.519531 C 43.34375 78.71875 43.382812 78.859375 43.484375 78.859375 C 43.664062 78.859375 43.765625 78.621094 43.824219 78.539062 C 44.324219 77.820312 44.742188 77.5 44.945312 77.5 C 45.105469 77.5 45.164062 77.539062 45.242188 77.839844 L 46.003906 80.640625 C 46.042969 80.761719 46.042969 80.898438 45.945312 81 C 45.105469 81.960938 44.664062 82.539062 43.863281 83.359375 C 43.703125 83.519531 43.503906 83.621094 43.324219 83.601562 C 43.164062 83.601562 43.023438 83.460938 42.945312 83.140625 C 42.902344 82.960938 42.824219 82.78125 42.625 82.78125 C 42.285156 82.78125 41.722656 83.578125 41.722656 84.039062 C 41.722656 84.558594 42.144531 84.800781 42.542969 84.800781 Z M 42.542969 84.800781 "/>
<path style=" stroke:none;fill-rule:evenodd;fill:rgb(0%,0%,0%);fill-opacity:1;" d="M 34.824219 106.941406 C 35.304688 106.941406 35.742188 106.78125 36.304688 106.121094 C 36.964844 105.339844 37.605469 104.460938 38.242188 103.660156 C 38.402344 103.460938 38.484375 103.460938 38.5625 103.78125 L 39.003906 105.601562 C 39.242188 106.480469 39.523438 106.941406 40.265625 106.941406 C 41.425781 106.941406 42.34375 105.039062 42.34375 104.300781 C 42.34375 103.898438 42.265625 103.859375 42.164062 103.859375 C 42.0625 103.859375 41.984375 103.941406 41.902344 104.140625 C 41.503906 105.121094 40.964844 105.738281 40.585938 105.738281 C 40.445312 105.738281 40.265625 105.621094 40.164062 105.261719 L 39.484375 102.800781 C 39.382812 102.460938 39.425781 102.261719 39.523438 102.101562 C 40.023438 101.339844 40.464844 100.820312 40.84375 100.378906 C 41.304688 99.820312 41.664062 99.539062 41.984375 99.539062 C 42.164062 99.539062 42.285156 99.640625 42.425781 100 C 42.503906 100.199219 42.625 100.339844 42.785156 100.339844 C 43.125 100.339844 43.625 99.539062 43.605469 99.238281 C 43.585938 98.921875 43.105469 98.378906 42.585938 98.378906 C 41.863281 98.378906 41.183594 99 40.785156 99.558594 L 39.382812 101.558594 C 39.242188 101.738281 39.144531 101.71875 39.105469 101.519531 L 38.605469 99.398438 C 38.425781 98.699219 38.183594 98.378906 37.765625 98.378906 C 36.882812 98.378906 35.625 99.878906 35.625 100.660156 C 35.625 100.859375 35.664062 101 35.765625 101 C 35.945312 101 36.042969 100.761719 36.105469 100.679688 C 36.605469 99.960938 37.023438 99.640625 37.222656 99.640625 C 37.382812 99.640625 37.445312 99.679688 37.523438 99.980469 L 38.285156 102.78125 C 38.324219 102.898438 38.324219 103.039062 38.222656 103.140625 C 37.382812 104.101562 36.945312 104.679688 36.144531 105.5 C 35.984375 105.660156 35.785156 105.761719 35.605469 105.738281 C 35.445312 105.738281 35.304688 105.601562 35.222656 105.28125 C 35.183594 105.101562 35.105469 104.921875 34.902344 104.921875 C 34.5625 104.921875 34.003906 105.71875 34.003906 106.179688 C 34.003906 106.699219 34.425781 106.941406 34.824219 106.941406 Z M 34.824219 106.941406 "/>
<path style=" stroke:none;fill-rule:evenodd;fill:rgb(0%,0%,0%);fill-opacity:1;" d="M 44.785156 100.359375 C 45.265625 100.359375 45.703125 100.199219 46.265625 99.539062 C 46.925781 98.761719 47.5625 97.878906 48.203125 97.078125 C 48.363281 96.878906 48.445312 96.878906 48.523438 97.199219 L 48.964844 99.019531 C 49.203125 99.898438 49.484375 100.359375 50.222656 100.359375 C 51.382812 100.359375 52.304688 98.460938 52.304688 97.71875 C 52.304688 97.320312 52.222656 97.28125 52.125 97.28125 C 52.023438 97.28125 51.945312 97.359375 51.863281 97.558594 C 51.464844 98.539062 50.925781 99.160156 50.542969 99.160156 C 50.402344 99.160156 50.222656 99.039062 50.125 98.679688 L 49.445312 96.21875 C 49.34375 95.878906 49.382812 95.679688 49.484375 95.519531 C 49.984375 94.761719 50.425781 94.238281 50.804688 93.800781 C 51.265625 93.238281 51.625 92.960938 51.945312 92.960938 C 52.125 92.960938 52.242188 93.058594 52.382812 93.421875 C 52.464844 93.621094 52.585938 93.761719 52.742188 93.761719 C 53.085938 93.761719 53.585938 92.960938 53.5625 92.660156 C 53.542969 92.339844 53.0625 91.800781 52.542969 91.800781 C 51.824219 91.800781 51.144531 92.421875 50.742188 92.980469 L 49.34375 94.980469 C 49.203125 95.160156 49.105469 95.140625 49.0625 94.941406 L 48.5625 92.820312 C 48.382812 92.121094 48.144531 91.800781 47.722656 91.800781 C 46.84375 91.800781 45.585938 93.300781 45.585938 94.078125 C 45.585938 94.28125 45.625 94.421875 45.722656 94.421875 C 45.902344 94.421875 46.003906 94.179688 46.0625 94.101562 C 46.5625 93.378906 46.984375 93.058594 47.183594 93.058594 C 47.34375 93.058594 47.402344 93.101562 47.484375 93.398438 L 48.242188 96.199219 C 48.285156 96.320312 48.285156 96.460938 48.183594 96.558594 C 47.34375 97.519531 46.902344 98.101562 46.105469 98.921875 C 45.945312 99.078125 45.742188 99.179688 45.5625 99.160156 C 45.402344 99.160156 45.265625 99.019531 45.183594 98.699219 C 45.144531 98.519531 45.0625 98.339844 44.863281 98.339844 C 44.523438 98.339844 43.964844 99.140625 43.964844 99.601562 C 43.964844 100.121094 44.382812 100.359375 44.785156 100.359375 Z M 44.785156 100.359375 "/>
<path style=" stroke:none;fill-rule:evenodd;fill:rgb(0%,0%,0%);fill-opacity:1;" d="M 42.542969 113.921875 C 43.023438 113.921875 43.464844 113.761719 44.023438 113.101562 C 44.683594 112.320312 45.324219 111.441406 45.964844 110.640625 C 46.125 110.441406 46.203125 110.441406 46.285156 110.761719 L 46.722656 112.578125 C 46.964844 113.460938 47.242188 113.921875 47.984375 113.921875 C 49.144531 113.921875 50.0625 112.019531 50.0625 111.28125 C 50.0625 110.878906 49.984375 110.839844 49.882812 110.839844 C 49.785156 110.839844 49.703125 110.921875 49.625 111.121094 C 49.222656 112.101562 48.683594 112.71875 48.304688 112.71875 C 48.164062 112.71875 47.984375 112.601562 47.882812 112.238281 L 47.203125 109.78125 C 47.105469 109.441406 47.144531 109.238281 47.242188 109.078125 C 47.742188 108.320312 48.183594 107.800781 48.5625 107.359375 C 49.023438 106.800781 49.382812 106.519531 49.703125 106.519531 C 49.882812 106.519531 50.003906 106.621094 50.144531 106.980469 C 50.222656 107.179688 50.34375 107.320312 50.503906 107.320312 C 50.84375 107.320312 51.34375 106.519531 51.324219 106.21875 C 51.304688 105.898438 50.824219 105.359375 50.304688 105.359375 C 49.585938 105.359375 48.902344 105.980469 48.503906 106.539062 L 47.105469 108.539062 C 46.964844 108.71875 46.863281 108.699219 46.824219 108.5 L 46.324219 106.378906 C 46.144531 105.679688 45.902344 105.359375 45.484375 105.359375 C 44.605469 105.359375 43.34375 106.859375 43.34375 107.640625 C 43.34375 107.839844 43.382812 107.980469 43.484375 107.980469 C 43.664062 107.980469 43.765625 107.738281 43.824219 107.660156 C 44.324219 106.941406 44.742188 106.621094 44.945312 106.621094 C 45.105469 106.621094 45.164062 106.660156 45.242188 106.960938 L 46.003906 109.761719 C 46.042969 109.878906 46.042969 110.019531 45.945312 110.121094 C 45.105469 111.078125 44.664062 111.660156 43.863281 112.480469 C 43.703125 112.640625 43.503906 112.738281 43.324219 112.71875 C 43.164062 112.71875 43.023438 112.578125 42.945312 112.261719 C 42.902344 112.078125 42.824219 111.898438 42.625 111.898438 C 42.285156 111.898438 41.722656 112.699219 41.722656 113.160156 C 41.722656 113.679688 42.144531 113.921875 42.542969 113.921875 Z M 42.542969 113.921875 "/>
</g>
</svg>
