<?xml version="1.0" encoding="UTF-8"?>
<svg xmlns="http://www.w3.org/2000/svg" xmlns:xlink="http://www.w3.org/1999/xlink" width="385.888015pt" height="36.696002pt" viewBox="0 0 385.888015 36.696002" version="1.1">
<g id="surface1">
<path style=" stroke:none;fill-rule:evenodd;fill:rgb(0%,0%,0%);fill-opacity:1;" d="M 5.800781 36.695312 C 11.238281 36.695312 16.921875 33.054688 16.921875 27.054688 C 16.921875 23.65625 14.238281 20.777344 10.839844 20.777344 C 10.640625 20.777344 10.640625 20.617188 10.800781 20.535156 C 13.921875 18.734375 15 16.457031 15 14.535156 C 15 11.816406 12.441406 9.976562 9.800781 9.976562 C 4.359375 9.976562 2.078125 13.777344 2.078125 15.175781 C 2.078125 15.574219 2.519531 15.9375 2.71875 15.9375 C 3.320312 15.9375 3.960938 12.375 8.078125 12.375 C 10.238281 12.375 11.839844 14.335938 11.839844 16.535156 C 11.839844 19.375 7.71875 21.457031 6.800781 21.894531 C 6.28125 22.136719 5.800781 22.574219 5.601562 23.257812 C 5.519531 23.535156 6 23.777344 6.28125 23.617188 C 7.199219 23.097656 8.28125 23.015625 8.878906 23.015625 C 11.960938 23.015625 13.519531 26.257812 13.519531 29.335938 C 13.519531 32.65625 10.601562 35.175781 7.679688 35.175781 C 6.199219 35.175781 5.359375 34.535156 4.679688 33.9375 C 4.160156 33.535156 3.71875 33.136719 3.121094 33.136719 C 2.519531 33.136719 1.359375 34.414062 1.359375 34.976562 C 1.359375 35.617188 3.921875 36.695312 5.800781 36.695312 Z M 5.800781 36.695312 "/>
<path style=" stroke:none;fill-rule:evenodd;fill:rgb(0%,0%,0%);fill-opacity:1;" d="M 23.621094 19.039062 C 27.429688 19.039062 31.402344 16.492188 31.402344 12.292969 C 31.402344 9.910156 29.527344 7.894531 27.148438 7.894531 C 27.007812 7.894531 27.007812 7.785156 27.121094 7.726562 C 29.304688 6.46875 30.058594 4.871094 30.058594 3.527344 C 30.058594 1.625 28.269531 0.335938 26.421875 0.335938 C 22.613281 0.335938 21.015625 2.996094 21.015625 3.976562 C 21.015625 4.257812 21.324219 4.507812 21.464844 4.507812 C 21.882812 4.507812 22.332031 2.015625 25.214844 2.015625 C 26.726562 2.015625 27.847656 3.386719 27.847656 4.929688 C 27.847656 6.914062 24.964844 8.371094 24.320312 8.679688 C 23.957031 8.847656 23.621094 9.15625 23.480469 9.632812 C 23.425781 9.828125 23.761719 9.996094 23.957031 9.882812 C 24.601562 9.519531 25.355469 9.464844 25.777344 9.464844 C 27.933594 9.464844 29.023438 11.730469 29.023438 13.886719 C 29.023438 16.210938 26.980469 17.976562 24.9375 17.976562 C 23.898438 17.976562 23.3125 17.527344 22.835938 17.109375 C 22.472656 16.828125 22.164062 16.546875 21.742188 16.546875 C 21.324219 16.546875 20.511719 17.445312 20.511719 17.835938 C 20.511719 18.285156 22.304688 19.039062 23.621094 19.039062 Z M 23.621094 19.039062 "/>
<path style=" stroke:none;fill-rule:evenodd;fill:rgb(0%,0%,0%);fill-opacity:1;" d="M 53.421875 35.496094 C 53.78125 35.496094 55.339844 35.375 55.339844 34.535156 L 55.339844 26.457031 C 55.339844 26.335938 55.382812 26.296875 55.5 26.296875 L 62.902344 26.296875 C 63.660156 26.296875 64.140625 25.375 64.140625 24.695312 C 64.140625 24.457031 63.902344 24.296875 63.621094 24.296875 L 55.421875 24.296875 C 55.339844 24.296875 55.339844 24.257812 55.339844 24.054688 L 55.339844 16.414062 C 55.339844 16.136719 55.0625 15.894531 54.78125 15.894531 C 54.539062 15.894531 52.941406 16.257812 52.941406 17.136719 L 52.941406 23.976562 C 52.941406 24.214844 52.902344 24.296875 52.660156 24.296875 L 45.101562 24.296875 C 44.382812 24.296875 44.140625 25.457031 44.140625 25.816406 C 44.140625 26.054688 44.421875 26.296875 44.699219 26.296875 L 52.78125 26.296875 C 52.902344 26.296875 52.941406 26.375 52.941406 26.496094 L 52.941406 34.9375 C 52.941406 35.214844 53.179688 35.496094 53.421875 35.496094 Z M 53.421875 35.496094 "/>
<path style=" stroke:none;fill-rule:evenodd;fill:rgb(0%,0%,0%);fill-opacity:1;" d="M 83.070312 35.296875 C 85.230469 35.296875 85.628906 35.097656 87.667969 35.097656 C 89.550781 35.097656 89.910156 35.296875 92.191406 35.296875 C 92.511719 35.296875 92.789062 35.097656 92.789062 34.855469 C 92.789062 34.617188 92.390625 34.375 92.070312 34.296875 C 89.910156 33.734375 89.390625 33.375 89.390625 31.816406 L 89.390625 28.054688 C 89.390625 28.015625 89.710938 27.855469 89.910156 27.816406 C 90.230469 27.777344 90.667969 27.734375 91.148438 27.734375 C 91.789062 27.734375 92.511719 27.777344 93.109375 27.777344 C 93.269531 27.777344 93.949219 26.894531 93.949219 26.257812 C 93.949219 26.097656 93.75 25.9375 93.511719 25.9375 C 92.628906 25.976562 91.910156 26.015625 91.148438 26.015625 C 90.667969 26.015625 90.148438 26.015625 89.550781 25.976562 C 89.429688 25.976562 89.351562 25.855469 89.351562 25.734375 L 89.351562 20.574219 C 89.351562 18.894531 89.351562 18.015625 88.75 18.015625 C 88.390625 18.015625 87.308594 18.097656 86.511719 18.535156 C 86.191406 18.695312 86.148438 18.855469 86.148438 19.414062 L 86.148438 25.617188 C 86.148438 25.777344 85.871094 25.9375 85.667969 25.9375 L 78.75 25.9375 C 78.589844 25.9375 78.667969 25.695312 78.75 25.574219 L 89.550781 10.054688 C 89.550781 10.054688 89.871094 9.496094 89.628906 9.496094 L 88.789062 9.496094 C 88.390625 9.496094 87.910156 10.136719 87.589844 10.617188 L 77.03125 25.777344 C 76.511719 26.496094 76.46875 26.414062 75.46875 27.65625 C 75.429688 27.695312 75.429688 27.734375 75.429688 27.777344 C 75.429688 27.9375 75.628906 28.175781 75.828125 28.175781 C 80.03125 28.136719 82.269531 27.894531 85.550781 27.894531 C 85.589844 27.894531 86.148438 28.015625 86.148438 28.257812 L 86.148438 31.976562 C 86.148438 33.257812 85.550781 33.976562 83.070312 34.296875 C 82.75 34.335938 82.351562 34.496094 82.351562 34.777344 C 82.351562 35.136719 82.789062 35.296875 83.070312 35.296875 Z M 83.070312 35.296875 "/>
<path style=" stroke:none;fill-rule:evenodd;fill:rgb(0%,0%,0%);fill-opacity:1;" d="M 100.21875 18.058594 C 101.730469 18.058594 102.011719 17.921875 103.4375 17.921875 C 104.753906 17.921875 105.003906 18.058594 106.601562 18.058594 C 106.824219 18.058594 107.023438 17.921875 107.023438 17.753906 C 107.023438 17.585938 106.742188 17.414062 106.519531 17.359375 C 105.003906 16.96875 104.640625 16.714844 104.640625 15.625 L 104.640625 12.992188 C 104.640625 12.964844 104.867188 12.851562 105.003906 12.824219 C 105.230469 12.796875 105.539062 12.769531 105.875 12.769531 C 106.320312 12.769531 106.824219 12.796875 107.246094 12.796875 C 107.359375 12.796875 107.832031 12.179688 107.832031 11.730469 C 107.832031 11.621094 107.695312 11.507812 107.527344 11.507812 C 106.910156 11.535156 106.40625 11.5625 105.875 11.5625 C 105.539062 11.5625 105.171875 11.5625 104.753906 11.535156 C 104.667969 11.535156 104.613281 11.453125 104.613281 11.367188 L 104.613281 7.757812 C 104.613281 6.578125 104.613281 5.964844 104.195312 5.964844 C 103.941406 5.964844 103.1875 6.019531 102.625 6.328125 C 102.402344 6.441406 102.375 6.550781 102.375 6.945312 L 102.375 11.285156 C 102.375 11.394531 102.179688 11.507812 102.039062 11.507812 L 97.195312 11.507812 C 97.082031 11.507812 97.136719 11.339844 97.195312 11.257812 L 104.753906 0.390625 C 104.753906 0.390625 104.976562 0 104.808594 0 L 104.222656 0 C 103.941406 0 103.605469 0.449219 103.382812 0.785156 L 95.988281 11.394531 C 95.625 11.898438 95.597656 11.84375 94.898438 12.710938 C 94.871094 12.738281 94.871094 12.769531 94.871094 12.796875 C 94.871094 12.90625 95.011719 13.074219 95.148438 13.074219 C 98.089844 13.046875 99.65625 12.878906 101.953125 12.878906 C 101.980469 12.878906 102.375 12.964844 102.375 13.132812 L 102.375 15.734375 C 102.375 16.632812 101.953125 17.136719 100.21875 17.359375 C 99.992188 17.386719 99.714844 17.5 99.714844 17.695312 C 99.714844 17.949219 100.023438 18.058594 100.21875 18.058594 Z M 100.21875 18.058594 "/>
<path style=" stroke:none;fill-rule:evenodd;fill:rgb(0%,0%,0%);fill-opacity:1;" d="M 128.449219 35.496094 C 128.8125 35.496094 130.371094 35.375 130.371094 34.535156 L 130.371094 26.457031 C 130.371094 26.335938 130.410156 26.296875 130.53125 26.296875 L 137.929688 26.296875 C 138.691406 26.296875 139.171875 25.375 139.171875 24.695312 C 139.171875 24.457031 138.929688 24.296875 138.652344 24.296875 L 130.449219 24.296875 C 130.371094 24.296875 130.371094 24.257812 130.371094 24.054688 L 130.371094 16.414062 C 130.371094 16.136719 130.089844 15.894531 129.8125 15.894531 C 129.570312 15.894531 127.96875 16.257812 127.96875 17.136719 L 127.96875 23.976562 C 127.96875 24.214844 127.929688 24.296875 127.691406 24.296875 L 120.128906 24.296875 C 119.410156 24.296875 119.171875 25.457031 119.171875 25.816406 C 119.171875 26.054688 119.449219 26.296875 119.730469 26.296875 L 127.8125 26.296875 C 127.929688 26.296875 127.96875 26.375 127.96875 26.496094 L 127.96875 34.9375 C 127.96875 35.214844 128.210938 35.496094 128.449219 35.496094 Z M 128.449219 35.496094 "/>
<path style=" stroke:none;fill-rule:evenodd;fill:rgb(0%,0%,0%);fill-opacity:1;" d="M 155.859375 36.695312 C 161.300781 36.695312 166.980469 33.054688 166.980469 27.054688 C 166.980469 23.65625 164.300781 20.777344 160.898438 20.777344 C 160.699219 20.777344 160.699219 20.617188 160.859375 20.535156 C 163.980469 18.734375 165.058594 16.457031 165.058594 14.535156 C 165.058594 11.816406 162.5 9.976562 159.859375 9.976562 C 154.417969 9.976562 152.140625 13.777344 152.140625 15.175781 C 152.140625 15.574219 152.578125 15.9375 152.78125 15.9375 C 153.378906 15.9375 154.019531 12.375 158.140625 12.375 C 160.300781 12.375 161.898438 14.335938 161.898438 16.535156 C 161.898438 19.375 157.78125 21.457031 156.859375 21.894531 C 156.339844 22.136719 155.859375 22.574219 155.660156 23.257812 C 155.578125 23.535156 156.058594 23.777344 156.339844 23.617188 C 157.257812 23.097656 158.339844 23.015625 158.941406 23.015625 C 162.019531 23.015625 163.578125 26.257812 163.578125 29.335938 C 163.578125 32.65625 160.660156 35.175781 157.738281 35.175781 C 156.257812 35.175781 155.417969 34.535156 154.738281 33.9375 C 154.21875 33.535156 153.78125 33.136719 153.179688 33.136719 C 152.578125 33.136719 151.417969 34.414062 151.417969 34.976562 C 151.417969 35.617188 153.980469 36.695312 155.859375 36.695312 Z M 155.859375 36.695312 "/>
<path style=" stroke:none;fill-rule:evenodd;fill:rgb(0%,0%,0%);fill-opacity:1;" d="M 173.679688 19.039062 C 177.488281 19.039062 181.464844 16.492188 181.464844 12.292969 C 181.464844 9.910156 179.585938 7.894531 177.207031 7.894531 C 177.066406 7.894531 177.066406 7.785156 177.179688 7.726562 C 179.363281 6.46875 180.121094 4.871094 180.121094 3.527344 C 180.121094 1.625 178.328125 0.335938 176.480469 0.335938 C 172.671875 0.335938 171.074219 2.996094 171.074219 3.976562 C 171.074219 4.257812 171.382812 4.507812 171.523438 4.507812 C 171.945312 4.507812 172.390625 2.015625 175.277344 2.015625 C 176.789062 2.015625 177.90625 3.386719 177.90625 4.929688 C 177.90625 6.914062 175.023438 8.371094 174.378906 8.679688 C 174.015625 8.847656 173.679688 9.15625 173.539062 9.632812 C 173.484375 9.828125 173.820312 9.996094 174.015625 9.882812 C 174.660156 9.519531 175.414062 9.464844 175.835938 9.464844 C 177.992188 9.464844 179.082031 11.730469 179.082031 13.886719 C 179.082031 16.210938 177.039062 17.976562 174.996094 17.976562 C 173.960938 17.976562 173.371094 17.527344 172.894531 17.109375 C 172.53125 16.828125 172.222656 16.546875 171.804688 16.546875 C 171.382812 16.546875 170.570312 17.445312 170.570312 17.835938 C 170.570312 18.285156 172.363281 19.039062 173.679688 19.039062 Z M 173.679688 19.039062 "/>
<path style=" stroke:none;fill-rule:evenodd;fill:rgb(0%,0%,0%);fill-opacity:1;" d="M 203.480469 35.496094 C 203.839844 35.496094 205.402344 35.375 205.402344 34.535156 L 205.402344 26.457031 C 205.402344 26.335938 205.441406 26.296875 205.558594 26.296875 L 212.960938 26.296875 C 213.71875 26.296875 214.199219 25.375 214.199219 24.695312 C 214.199219 24.457031 213.960938 24.296875 213.679688 24.296875 L 205.480469 24.296875 C 205.402344 24.296875 205.402344 24.257812 205.402344 24.054688 L 205.402344 16.414062 C 205.402344 16.136719 205.121094 15.894531 204.839844 15.894531 C 204.601562 15.894531 203 16.257812 203 17.136719 L 203 23.976562 C 203 24.214844 202.960938 24.296875 202.71875 24.296875 L 195.160156 24.296875 C 194.441406 24.296875 194.199219 25.457031 194.199219 25.816406 C 194.199219 26.054688 194.480469 26.296875 194.761719 26.296875 L 202.839844 26.296875 C 202.960938 26.296875 203 26.375 203 26.496094 L 203 34.9375 C 203 35.214844 203.242188 35.496094 203.480469 35.496094 Z M 203.480469 35.496094 "/>
<path style=" stroke:none;fill-rule:evenodd;fill:rgb(0%,0%,0%);fill-opacity:1;" d="M 229.371094 36.695312 C 232.210938 36.695312 234.808594 35.976562 236.929688 34.777344 C 239.890625 33.054688 241.808594 30.375 241.808594 27.457031 C 241.808594 24.214844 240.328125 22.257812 237.371094 20.695312 C 235.53125 19.734375 233.089844 18.894531 230.089844 18.015625 C 229.609375 17.894531 229.53125 17.617188 229.570312 17.257812 C 229.609375 16.617188 230.769531 14.175781 231.328125 14.097656 C 232.53125 13.894531 236.128906 13.617188 238.210938 13.375 C 238.890625 13.296875 239.328125 12.894531 239.6875 12.097656 L 240.371094 10.777344 C 240.570312 10.414062 240.328125 10.054688 239.929688 10.097656 C 236.808594 10.375 234.089844 10.855469 231.648438 11.496094 C 230.808594 11.695312 230.289062 12.136719 230.007812 12.9375 C 229.449219 14.695312 228.089844 17.855469 228.089844 19.296875 C 228.089844 20.015625 228.328125 20.535156 229.050781 21.136719 C 236.128906 22.976562 238.648438 24.9375 238.648438 28.015625 C 238.648438 31.457031 235.648438 35.457031 229.328125 35.457031 C 228.847656 35.457031 227.890625 35.816406 227.890625 36.214844 C 227.890625 36.574219 228.769531 36.695312 229.371094 36.695312 Z M 229.371094 36.695312 "/>
<path style=" stroke:none;fill-rule:evenodd;fill:rgb(0%,0%,0%);fill-opacity:1;" d="M 247.644531 19.039062 C 249.632812 19.039062 251.453125 18.535156 252.9375 17.695312 C 255.007812 16.492188 256.351562 14.617188 256.351562 12.570312 C 256.351562 10.304688 255.316406 8.933594 253.246094 7.839844 C 251.957031 7.167969 250.25 6.578125 248.148438 5.964844 C 247.8125 5.878906 247.757812 5.683594 247.785156 5.433594 C 247.8125 4.984375 248.625 3.277344 249.015625 3.21875 C 249.855469 3.078125 252.378906 2.882812 253.832031 2.714844 C 254.308594 2.660156 254.617188 2.378906 254.871094 1.820312 L 255.34375 0.894531 C 255.484375 0.644531 255.316406 0.390625 255.039062 0.421875 C 252.851562 0.617188 250.949219 0.953125 249.242188 1.398438 C 248.652344 1.539062 248.289062 1.847656 248.09375 2.40625 C 247.703125 3.640625 246.75 5.851562 246.75 6.859375 C 246.75 7.363281 246.917969 7.726562 247.421875 8.148438 C 252.378906 9.4375 254.140625 10.808594 254.140625 12.964844 C 254.140625 15.371094 252.042969 18.171875 247.617188 18.171875 C 247.28125 18.171875 246.609375 18.425781 246.609375 18.703125 C 246.609375 18.957031 247.226562 19.039062 247.644531 19.039062 Z M 247.644531 19.039062 "/>
<path style=" stroke:none;fill-rule:evenodd;fill:rgb(0%,0%,0%);fill-opacity:1;" d="M 274.234375 22.617188 L 291.035156 22.617188 C 291.675781 22.617188 292.316406 21.617188 292.316406 21.054688 C 292.316406 20.816406 291.996094 20.617188 291.753906 20.617188 L 274.632812 20.617188 C 273.914062 20.617188 273.675781 21.777344 273.675781 22.136719 C 273.675781 22.375 273.953125 22.617188 274.234375 22.617188 Z M 274.234375 29.457031 L 291.035156 29.457031 C 291.675781 29.457031 292.316406 28.617188 292.316406 27.894531 C 292.316406 27.65625 291.996094 27.457031 291.753906 27.457031 L 274.632812 27.457031 C 273.914062 27.457031 273.675781 28.617188 273.675781 28.976562 C 273.675781 29.214844 273.953125 29.457031 274.234375 29.457031 Z M 274.234375 29.457031 "/>
<path style=" stroke:none;fill-rule:evenodd;fill:rgb(0%,0%,0%);fill-opacity:1;" d="M 313.449219 36.695312 C 318.886719 36.695312 324.566406 33.054688 324.566406 27.054688 C 324.566406 23.65625 321.886719 20.777344 318.488281 20.777344 C 318.289062 20.777344 318.289062 20.617188 318.449219 20.535156 C 321.566406 18.734375 322.648438 16.457031 322.648438 14.535156 C 322.648438 11.816406 320.089844 9.976562 317.449219 9.976562 C 312.007812 9.976562 309.726562 13.777344 309.726562 15.175781 C 309.726562 15.574219 310.167969 15.9375 310.367188 15.9375 C 310.96875 15.9375 311.609375 12.375 315.726562 12.375 C 317.886719 12.375 319.488281 14.335938 319.488281 16.535156 C 319.488281 19.375 315.367188 21.457031 314.449219 21.894531 C 313.929688 22.136719 313.449219 22.574219 313.246094 23.257812 C 313.167969 23.535156 313.648438 23.777344 313.929688 23.617188 C 314.847656 23.097656 315.929688 23.015625 316.527344 23.015625 C 319.609375 23.015625 321.167969 26.257812 321.167969 29.335938 C 321.167969 32.65625 318.246094 35.175781 315.328125 35.175781 C 313.847656 35.175781 313.007812 34.535156 312.328125 33.9375 C 311.808594 33.535156 311.367188 33.136719 310.769531 33.136719 C 310.167969 33.136719 309.007812 34.414062 309.007812 34.976562 C 309.007812 35.617188 311.566406 36.695312 313.449219 36.695312 Z M 313.449219 36.695312 "/>
<path style=" stroke:none;fill-rule:evenodd;fill:rgb(0%,0%,0%);fill-opacity:1;" d="M 335.246094 35.296875 C 337.40625 35.296875 337.808594 35.097656 339.847656 35.097656 C 341.726562 35.097656 342.089844 35.296875 344.367188 35.296875 C 344.6875 35.296875 344.96875 35.097656 344.96875 34.855469 C 344.96875 34.617188 344.566406 34.375 344.246094 34.296875 C 342.089844 33.734375 341.566406 33.375 341.566406 31.816406 L 341.566406 28.054688 C 341.566406 28.015625 341.886719 27.855469 342.089844 27.816406 C 342.40625 27.777344 342.847656 27.734375 343.328125 27.734375 C 343.96875 27.734375 344.6875 27.777344 345.289062 27.777344 C 345.449219 27.777344 346.128906 26.894531 346.128906 26.257812 C 346.128906 26.097656 345.929688 25.9375 345.6875 25.9375 C 344.808594 25.976562 344.089844 26.015625 343.328125 26.015625 C 342.847656 26.015625 342.328125 26.015625 341.726562 25.976562 C 341.609375 25.976562 341.527344 25.855469 341.527344 25.734375 L 341.527344 20.574219 C 341.527344 18.894531 341.527344 18.015625 340.929688 18.015625 C 340.566406 18.015625 339.488281 18.097656 338.6875 18.535156 C 338.367188 18.695312 338.328125 18.855469 338.328125 19.414062 L 338.328125 25.617188 C 338.328125 25.777344 338.046875 25.9375 337.847656 25.9375 L 330.929688 25.9375 C 330.769531 25.9375 330.847656 25.695312 330.929688 25.574219 L 341.726562 10.054688 C 341.726562 10.054688 342.046875 9.496094 341.808594 9.496094 L 340.96875 9.496094 C 340.566406 9.496094 340.089844 10.136719 339.769531 10.617188 L 329.207031 25.777344 C 328.6875 26.496094 328.648438 26.414062 327.648438 27.65625 C 327.609375 27.695312 327.609375 27.734375 327.609375 27.777344 C 327.609375 27.9375 327.808594 28.175781 328.007812 28.175781 C 332.207031 28.136719 334.449219 27.894531 337.726562 27.894531 C 337.769531 27.894531 338.328125 28.015625 338.328125 28.257812 L 338.328125 31.976562 C 338.328125 33.257812 337.726562 33.976562 335.246094 34.296875 C 334.929688 34.335938 334.527344 34.496094 334.527344 34.777344 C 334.527344 35.136719 334.96875 35.296875 335.246094 35.296875 Z M 335.246094 35.296875 "/>
<path style=" stroke:none;fill-rule:evenodd;fill:rgb(0%,0%,0%);fill-opacity:1;" d="M 352.566406 36.695312 C 358.007812 36.695312 363.6875 33.054688 363.6875 27.054688 C 363.6875 23.65625 361.007812 20.777344 357.609375 20.777344 C 357.40625 20.777344 357.40625 20.617188 357.566406 20.535156 C 360.6875 18.734375 361.769531 16.457031 361.769531 14.535156 C 361.769531 11.816406 359.207031 9.976562 356.566406 9.976562 C 351.128906 9.976562 348.847656 13.777344 348.847656 15.175781 C 348.847656 15.574219 349.289062 15.9375 349.488281 15.9375 C 350.089844 15.9375 350.726562 12.375 354.847656 12.375 C 357.007812 12.375 358.609375 14.335938 358.609375 16.535156 C 358.609375 19.375 354.488281 21.457031 353.566406 21.894531 C 353.046875 22.136719 352.566406 22.574219 352.367188 23.257812 C 352.289062 23.535156 352.769531 23.777344 353.046875 23.617188 C 353.96875 23.097656 355.046875 23.015625 355.648438 23.015625 C 358.726562 23.015625 360.289062 26.257812 360.289062 29.335938 C 360.289062 32.65625 357.367188 35.175781 354.449219 35.175781 C 352.96875 35.175781 352.128906 34.535156 351.449219 33.9375 C 350.929688 33.535156 350.488281 33.136719 349.886719 33.136719 C 349.289062 33.136719 348.128906 34.414062 348.128906 34.976562 C 348.128906 35.617188 350.6875 36.695312 352.566406 36.695312 Z M 352.566406 36.695312 "/>
<path style=" stroke:none;fill-rule:evenodd;fill:rgb(0%,0%,0%);fill-opacity:1;" d="M 370.609375 36.695312 C 373.449219 36.695312 376.046875 35.976562 378.167969 34.777344 C 381.128906 33.054688 383.046875 30.375 383.046875 27.457031 C 383.046875 24.214844 381.566406 22.257812 378.609375 20.695312 C 376.769531 19.734375 374.328125 18.894531 371.328125 18.015625 C 370.847656 17.894531 370.769531 17.617188 370.808594 17.257812 C 370.847656 16.617188 372.007812 14.175781 372.566406 14.097656 C 373.769531 13.894531 377.367188 13.617188 379.449219 13.375 C 380.128906 13.296875 380.566406 12.894531 380.929688 12.097656 L 381.609375 10.777344 C 381.808594 10.414062 381.566406 10.054688 381.167969 10.097656 C 378.046875 10.375 375.328125 10.855469 372.886719 11.496094 C 372.046875 11.695312 371.527344 12.136719 371.246094 12.9375 C 370.6875 14.695312 369.328125 17.855469 369.328125 19.296875 C 369.328125 20.015625 369.566406 20.535156 370.289062 21.136719 C 377.367188 22.976562 379.886719 24.9375 379.886719 28.015625 C 379.886719 31.457031 376.886719 35.457031 370.566406 35.457031 C 370.089844 35.457031 369.128906 35.816406 369.128906 36.214844 C 369.128906 36.574219 370.007812 36.695312 370.609375 36.695312 Z M 370.609375 36.695312 "/>
</g>
</svg>
