<?xml version="1.0" encoding="UTF-8"?>
<svg xmlns="http://www.w3.org/2000/svg" xmlns:xlink="http://www.w3.org/1999/xlink" width="154.355206pt" height="14.678401pt" viewBox="0 0 154.355206 14.678401" version="1.1">
<g id="surface1">
<path style=" stroke:none;fill-rule:evenodd;fill:rgb(0%,0%,0%);fill-opacity:1;" d="M 2.320312 14.679688 C 4.496094 14.679688 6.769531 13.222656 6.769531 10.824219 C 6.769531 9.460938 5.695312 8.308594 4.335938 8.308594 C 4.257812 8.308594 4.257812 8.246094 4.320312 8.214844 C 5.566406 7.496094 6 6.582031 6 5.8125 C 6 4.726562 4.976562 3.992188 3.921875 3.992188 C 1.742188 3.992188 0.832031 5.511719 0.832031 6.070312 C 0.832031 6.230469 1.007812 6.375 1.089844 6.375 C 1.328125 6.375 1.585938 4.949219 3.230469 4.949219 C 4.097656 4.949219 4.734375 5.734375 4.734375 6.613281 C 4.734375 7.75 3.089844 8.582031 2.71875 8.757812 C 2.511719 8.855469 2.320312 9.03125 2.238281 9.300781 C 2.207031 9.414062 2.398438 9.511719 2.511719 9.445312 C 2.878906 9.238281 3.3125 9.207031 3.550781 9.207031 C 4.785156 9.207031 5.40625 10.503906 5.40625 11.734375 C 5.40625 13.0625 4.238281 14.070312 3.070312 14.070312 C 2.480469 14.070312 2.144531 13.8125 1.871094 13.574219 C 1.664062 13.414062 1.488281 13.253906 1.246094 13.253906 C 1.007812 13.253906 0.542969 13.765625 0.542969 13.992188 C 0.542969 14.246094 1.566406 14.679688 2.320312 14.679688 Z M 2.320312 14.679688 "/>
<path style=" stroke:none;fill-rule:evenodd;fill:rgb(0%,0%,0%);fill-opacity:1;" d="M 9.449219 7.617188 C 10.972656 7.617188 12.5625 6.597656 12.5625 4.917969 C 12.5625 3.964844 11.8125 3.160156 10.859375 3.160156 C 10.804688 3.160156 10.804688 3.113281 10.847656 3.089844 C 11.722656 2.585938 12.023438 1.949219 12.023438 1.410156 C 12.023438 0.648438 11.308594 0.132812 10.566406 0.132812 C 9.042969 0.132812 8.40625 1.199219 8.40625 1.589844 C 8.40625 1.703125 8.53125 1.804688 8.585938 1.804688 C 8.753906 1.804688 8.933594 0.804688 10.085938 0.804688 C 10.691406 0.804688 11.140625 1.355469 11.140625 1.972656 C 11.140625 2.765625 9.984375 3.347656 9.726562 3.472656 C 9.582031 3.539062 9.449219 3.664062 9.390625 3.851562 C 9.371094 3.929688 9.503906 4 9.582031 3.953125 C 9.839844 3.808594 10.140625 3.785156 10.308594 3.785156 C 11.171875 3.785156 11.609375 4.691406 11.609375 5.554688 C 11.609375 6.484375 10.792969 7.191406 9.972656 7.191406 C 9.558594 7.191406 9.324219 7.011719 9.132812 6.84375 C 8.988281 6.730469 8.867188 6.621094 8.699219 6.621094 C 8.53125 6.621094 8.203125 6.976562 8.203125 7.132812 C 8.203125 7.3125 8.921875 7.617188 9.449219 7.617188 Z M 9.449219 7.617188 "/>
<path style=" stroke:none;fill-rule:evenodd;fill:rgb(0%,0%,0%);fill-opacity:1;" d="M 21.367188 14.199219 C 21.511719 14.199219 22.136719 14.152344 22.136719 13.8125 L 22.136719 10.582031 C 22.136719 10.535156 22.152344 10.519531 22.199219 10.519531 L 25.160156 10.519531 C 25.464844 10.519531 25.65625 10.152344 25.65625 9.878906 C 25.65625 9.78125 25.558594 9.71875 25.449219 9.71875 L 22.167969 9.71875 C 22.136719 9.71875 22.136719 9.703125 22.136719 9.621094 L 22.136719 6.566406 C 22.136719 6.453125 22.023438 6.359375 21.914062 6.359375 C 21.816406 6.359375 21.175781 6.503906 21.175781 6.855469 L 21.175781 9.589844 C 21.175781 9.6875 21.160156 9.71875 21.0625 9.71875 L 18.039062 9.71875 C 17.753906 9.71875 17.65625 10.183594 17.65625 10.328125 C 17.65625 10.421875 17.769531 10.519531 17.878906 10.519531 L 21.113281 10.519531 C 21.160156 10.519531 21.175781 10.550781 21.175781 10.597656 L 21.175781 13.972656 C 21.175781 14.085938 21.273438 14.199219 21.367188 14.199219 Z M 21.367188 14.199219 "/>
<path style=" stroke:none;fill-rule:evenodd;fill:rgb(0%,0%,0%);fill-opacity:1;" d="M 33.226562 14.117188 C 34.09375 14.117188 34.25 14.039062 35.066406 14.039062 C 35.820312 14.039062 35.964844 14.117188 36.875 14.117188 C 37.003906 14.117188 37.117188 14.039062 37.117188 13.941406 C 37.117188 13.847656 36.957031 13.75 36.828125 13.71875 C 35.964844 13.496094 35.757812 13.351562 35.757812 12.726562 L 35.757812 11.222656 C 35.757812 11.207031 35.882812 11.140625 35.964844 11.125 C 36.09375 11.109375 36.269531 11.09375 36.460938 11.09375 C 36.714844 11.09375 37.003906 11.109375 37.242188 11.109375 C 37.308594 11.109375 37.578125 10.757812 37.578125 10.503906 C 37.578125 10.4375 37.5 10.375 37.402344 10.375 C 37.050781 10.390625 36.765625 10.40625 36.460938 10.40625 C 36.269531 10.40625 36.058594 10.40625 35.820312 10.390625 C 35.773438 10.390625 35.738281 10.34375 35.738281 10.292969 L 35.738281 8.230469 C 35.738281 7.558594 35.738281 7.207031 35.5 7.207031 C 35.355469 7.207031 34.925781 7.238281 34.605469 7.414062 C 34.476562 7.476562 34.460938 7.542969 34.460938 7.765625 L 34.460938 10.246094 C 34.460938 10.308594 34.347656 10.375 34.269531 10.375 L 31.5 10.375 C 31.4375 10.375 31.46875 10.277344 31.5 10.230469 L 35.820312 4.023438 C 35.820312 4.023438 35.949219 3.796875 35.851562 3.796875 L 35.515625 3.796875 C 35.355469 3.796875 35.164062 4.054688 35.035156 4.246094 L 30.8125 10.308594 C 30.605469 10.597656 30.589844 10.566406 30.1875 11.0625 C 30.171875 11.078125 30.171875 11.09375 30.171875 11.109375 C 30.171875 11.175781 30.25 11.269531 30.332031 11.269531 C 32.011719 11.253906 32.90625 11.160156 34.21875 11.160156 C 34.234375 11.160156 34.460938 11.207031 34.460938 11.300781 L 34.460938 12.789062 C 34.460938 13.300781 34.21875 13.589844 33.226562 13.71875 C 33.101562 13.734375 32.941406 13.796875 32.941406 13.910156 C 32.941406 14.054688 33.117188 14.117188 33.226562 14.117188 Z M 33.226562 14.117188 "/>
<path style=" stroke:none;fill-rule:evenodd;fill:rgb(0%,0%,0%);fill-opacity:1;" d="M 40.085938 7.222656 C 40.691406 7.222656 40.804688 7.167969 41.375 7.167969 C 41.902344 7.167969 42.003906 7.222656 42.640625 7.222656 C 42.730469 7.222656 42.808594 7.167969 42.808594 7.101562 C 42.808594 7.035156 42.695312 6.964844 42.605469 6.945312 C 42.003906 6.789062 41.855469 6.6875 41.855469 6.25 L 41.855469 5.195312 C 41.855469 5.1875 41.945312 5.140625 42.003906 5.128906 C 42.09375 5.117188 42.214844 5.105469 42.347656 5.105469 C 42.527344 5.105469 42.730469 5.117188 42.898438 5.117188 C 42.941406 5.117188 43.132812 4.871094 43.132812 4.691406 C 43.132812 4.648438 43.078125 4.601562 43.011719 4.601562 C 42.765625 4.613281 42.5625 4.625 42.347656 4.625 C 42.214844 4.625 42.070312 4.625 41.902344 4.613281 C 41.867188 4.613281 41.84375 4.582031 41.84375 4.546875 L 41.84375 3.101562 C 41.84375 2.632812 41.84375 2.386719 41.675781 2.386719 C 41.578125 2.386719 41.273438 2.40625 41.050781 2.53125 C 40.960938 2.574219 40.949219 2.621094 40.949219 2.777344 L 40.949219 4.511719 C 40.949219 4.558594 40.871094 4.601562 40.816406 4.601562 L 38.878906 4.601562 C 38.832031 4.601562 38.855469 4.535156 38.878906 4.503906 L 41.902344 0.15625 C 41.902344 0.15625 41.992188 0 41.925781 0 L 41.6875 0 C 41.578125 0 41.441406 0.179688 41.351562 0.3125 L 38.394531 4.558594 C 38.25 4.761719 38.238281 4.738281 37.960938 5.085938 C 37.949219 5.097656 37.949219 5.105469 37.949219 5.117188 C 37.949219 5.164062 38.003906 5.230469 38.058594 5.230469 C 39.234375 5.21875 39.863281 5.152344 40.78125 5.152344 C 40.792969 5.152344 40.949219 5.1875 40.949219 5.253906 L 40.949219 6.292969 C 40.949219 6.652344 40.78125 6.855469 40.085938 6.945312 C 39.996094 6.957031 39.886719 7 39.886719 7.078125 C 39.886719 7.179688 40.007812 7.222656 40.085938 7.222656 Z M 40.085938 7.222656 "/>
<path style=" stroke:none;fill-rule:evenodd;fill:rgb(0%,0%,0%);fill-opacity:1;" d="M 51.378906 14.199219 C 51.523438 14.199219 52.148438 14.152344 52.148438 13.8125 L 52.148438 10.582031 C 52.148438 10.535156 52.164062 10.519531 52.210938 10.519531 L 55.171875 10.519531 C 55.476562 10.519531 55.667969 10.152344 55.667969 9.878906 C 55.667969 9.78125 55.574219 9.71875 55.460938 9.71875 L 52.179688 9.71875 C 52.148438 9.71875 52.148438 9.703125 52.148438 9.621094 L 52.148438 6.566406 C 52.148438 6.453125 52.035156 6.359375 51.925781 6.359375 C 51.828125 6.359375 51.1875 6.503906 51.1875 6.855469 L 51.1875 9.589844 C 51.1875 9.6875 51.171875 9.71875 51.078125 9.71875 L 48.050781 9.71875 C 47.765625 9.71875 47.667969 10.183594 47.667969 10.328125 C 47.667969 10.421875 47.78125 10.519531 47.890625 10.519531 L 51.125 10.519531 C 51.171875 10.519531 51.1875 10.550781 51.1875 10.597656 L 51.1875 13.972656 C 51.1875 14.085938 51.285156 14.199219 51.378906 14.199219 Z M 51.378906 14.199219 "/>
<path style=" stroke:none;fill-rule:evenodd;fill:rgb(0%,0%,0%);fill-opacity:1;" d="M 62.34375 14.679688 C 64.519531 14.679688 66.792969 13.222656 66.792969 10.824219 C 66.792969 9.460938 65.71875 8.308594 64.359375 8.308594 C 64.28125 8.308594 64.28125 8.246094 64.34375 8.214844 C 65.59375 7.496094 66.023438 6.582031 66.023438 5.8125 C 66.023438 4.726562 65 3.992188 63.945312 3.992188 C 61.769531 3.992188 60.855469 5.511719 60.855469 6.070312 C 60.855469 6.230469 61.03125 6.375 61.113281 6.375 C 61.351562 6.375 61.609375 4.949219 63.253906 4.949219 C 64.121094 4.949219 64.761719 5.734375 64.761719 6.613281 C 64.761719 7.75 63.113281 8.582031 62.742188 8.757812 C 62.535156 8.855469 62.34375 9.03125 62.265625 9.300781 C 62.230469 9.414062 62.421875 9.511719 62.535156 9.445312 C 62.902344 9.238281 63.335938 9.207031 63.574219 9.207031 C 64.808594 9.207031 65.433594 10.503906 65.433594 11.734375 C 65.433594 13.0625 64.265625 14.070312 63.097656 14.070312 C 62.503906 14.070312 62.167969 13.8125 61.894531 13.574219 C 61.6875 13.414062 61.511719 13.253906 61.273438 13.253906 C 61.03125 13.253906 60.566406 13.765625 60.566406 13.992188 C 60.566406 14.246094 61.59375 14.679688 62.34375 14.679688 Z M 62.34375 14.679688 "/>
<path style=" stroke:none;fill-rule:evenodd;fill:rgb(0%,0%,0%);fill-opacity:1;" d="M 69.472656 7.617188 C 70.996094 7.617188 72.585938 6.597656 72.585938 4.917969 C 72.585938 3.964844 71.835938 3.160156 70.882812 3.160156 C 70.828125 3.160156 70.828125 3.113281 70.871094 3.089844 C 71.746094 2.585938 72.046875 1.949219 72.046875 1.410156 C 72.046875 0.648438 71.332031 0.132812 70.59375 0.132812 C 69.070312 0.132812 68.429688 1.199219 68.429688 1.589844 C 68.429688 1.703125 68.554688 1.804688 68.609375 1.804688 C 68.777344 1.804688 68.957031 0.804688 70.109375 0.804688 C 70.714844 0.804688 71.164062 1.355469 71.164062 1.972656 C 71.164062 2.765625 70.007812 3.347656 69.75 3.472656 C 69.605469 3.539062 69.472656 3.664062 69.414062 3.851562 C 69.394531 3.929688 69.527344 4 69.605469 3.953125 C 69.863281 3.808594 70.167969 3.785156 70.335938 3.785156 C 71.195312 3.785156 71.632812 4.691406 71.632812 5.554688 C 71.632812 6.484375 70.816406 7.191406 70 7.191406 C 69.582031 7.191406 69.347656 7.011719 69.160156 6.84375 C 69.011719 6.730469 68.890625 6.621094 68.722656 6.621094 C 68.554688 6.621094 68.230469 6.976562 68.230469 7.132812 C 68.230469 7.3125 68.945312 7.617188 69.472656 7.617188 Z M 69.472656 7.617188 "/>
<path style=" stroke:none;fill-rule:evenodd;fill:rgb(0%,0%,0%);fill-opacity:1;" d="M 81.390625 14.199219 C 81.535156 14.199219 82.160156 14.152344 82.160156 13.8125 L 82.160156 10.582031 C 82.160156 10.535156 82.175781 10.519531 82.222656 10.519531 L 85.183594 10.519531 C 85.488281 10.519531 85.679688 10.152344 85.679688 9.878906 C 85.679688 9.78125 85.585938 9.71875 85.472656 9.71875 L 82.191406 9.71875 C 82.160156 9.71875 82.160156 9.703125 82.160156 9.621094 L 82.160156 6.566406 C 82.160156 6.453125 82.046875 6.359375 81.9375 6.359375 C 81.839844 6.359375 81.199219 6.503906 81.199219 6.855469 L 81.199219 9.589844 C 81.199219 9.6875 81.183594 9.71875 81.089844 9.71875 L 78.0625 9.71875 C 77.777344 9.71875 77.679688 10.183594 77.679688 10.328125 C 77.679688 10.421875 77.792969 10.519531 77.902344 10.519531 L 81.136719 10.519531 C 81.183594 10.519531 81.199219 10.550781 81.199219 10.597656 L 81.199219 13.972656 C 81.199219 14.085938 81.296875 14.199219 81.390625 14.199219 Z M 81.390625 14.199219 "/>
<path style=" stroke:none;fill-rule:evenodd;fill:rgb(0%,0%,0%);fill-opacity:1;" d="M 91.746094 14.679688 C 92.882812 14.679688 93.921875 14.390625 94.773438 13.910156 C 95.957031 13.222656 96.722656 12.152344 96.722656 10.980469 C 96.722656 9.6875 96.132812 8.902344 94.949219 8.277344 C 94.210938 7.894531 93.234375 7.558594 92.035156 7.207031 C 91.84375 7.160156 91.8125 7.046875 91.828125 6.902344 C 91.84375 6.644531 92.308594 5.671875 92.53125 5.636719 C 93.011719 5.558594 94.453125 5.445312 95.285156 5.351562 C 95.554688 5.320312 95.730469 5.160156 95.875 4.839844 L 96.148438 4.308594 C 96.226562 4.167969 96.132812 4.023438 95.972656 4.039062 C 94.722656 4.152344 93.636719 4.34375 92.660156 4.597656 C 92.324219 4.679688 92.117188 4.855469 92.003906 5.175781 C 91.78125 5.878906 91.234375 7.140625 91.234375 7.71875 C 91.234375 8.007812 91.332031 8.214844 91.621094 8.453125 C 94.453125 9.191406 95.460938 9.972656 95.460938 11.207031 C 95.460938 12.582031 94.257812 14.183594 91.730469 14.183594 C 91.539062 14.183594 91.15625 14.328125 91.15625 14.488281 C 91.15625 14.628906 91.507812 14.679688 91.746094 14.679688 Z M 91.746094 14.679688 "/>
<path style=" stroke:none;fill-rule:evenodd;fill:rgb(0%,0%,0%);fill-opacity:1;" d="M 99.058594 7.617188 C 99.851562 7.617188 100.582031 7.414062 101.175781 7.078125 C 102.003906 6.597656 102.542969 5.847656 102.542969 5.027344 C 102.542969 4.121094 102.125 3.574219 101.296875 3.136719 C 100.78125 2.867188 100.101562 2.632812 99.257812 2.386719 C 99.125 2.351562 99.101562 2.273438 99.113281 2.171875 C 99.125 1.992188 99.449219 1.308594 99.605469 1.289062 C 99.941406 1.230469 100.949219 1.152344 101.535156 1.085938 C 101.722656 1.0625 101.847656 0.953125 101.949219 0.726562 L 102.136719 0.359375 C 102.195312 0.257812 102.125 0.15625 102.015625 0.167969 C 101.140625 0.246094 100.378906 0.378906 99.695312 0.558594 C 99.460938 0.617188 99.316406 0.738281 99.238281 0.964844 C 99.082031 1.457031 98.699219 2.339844 98.699219 2.742188 C 98.699219 2.945312 98.765625 3.089844 98.96875 3.257812 C 100.949219 3.773438 101.65625 4.324219 101.65625 5.1875 C 101.65625 6.148438 100.816406 7.269531 99.046875 7.269531 C 98.914062 7.269531 98.644531 7.371094 98.644531 7.480469 C 98.644531 7.582031 98.890625 7.617188 99.058594 7.617188 Z M 99.058594 7.617188 "/>
<path style=" stroke:none;fill-rule:evenodd;fill:rgb(0%,0%,0%);fill-opacity:1;" d="M 109.695312 9.046875 L 116.414062 9.046875 C 116.667969 9.046875 116.925781 8.644531 116.925781 8.421875 C 116.925781 8.328125 116.796875 8.246094 116.703125 8.246094 L 109.855469 8.246094 C 109.566406 8.246094 109.46875 8.710938 109.46875 8.855469 C 109.46875 8.949219 109.582031 9.046875 109.695312 9.046875 Z M 109.695312 11.78125 L 116.414062 11.78125 C 116.667969 11.78125 116.925781 11.445312 116.925781 11.160156 C 116.925781 11.0625 116.796875 10.980469 116.703125 10.980469 L 109.855469 10.980469 C 109.566406 10.980469 109.46875 11.445312 109.46875 11.589844 C 109.46875 11.6875 109.582031 11.78125 109.695312 11.78125 Z M 109.695312 11.78125 "/>
<path style=" stroke:none;fill-rule:evenodd;fill:rgb(0%,0%,0%);fill-opacity:1;" d="M 125.378906 14.679688 C 127.554688 14.679688 129.828125 13.222656 129.828125 10.824219 C 129.828125 9.460938 128.753906 8.308594 127.394531 8.308594 C 127.316406 8.308594 127.316406 8.246094 127.378906 8.214844 C 128.628906 7.496094 129.058594 6.582031 129.058594 5.8125 C 129.058594 4.726562 128.035156 3.992188 126.980469 3.992188 C 124.804688 3.992188 123.890625 5.511719 123.890625 6.070312 C 123.890625 6.230469 124.066406 6.375 124.148438 6.375 C 124.386719 6.375 124.644531 4.949219 126.292969 4.949219 C 127.15625 4.949219 127.796875 5.734375 127.796875 6.613281 C 127.796875 7.75 126.148438 8.582031 125.777344 8.757812 C 125.570312 8.855469 125.378906 9.03125 125.300781 9.300781 C 125.265625 9.414062 125.460938 9.511719 125.570312 9.445312 C 125.9375 9.238281 126.371094 9.207031 126.609375 9.207031 C 127.84375 9.207031 128.46875 10.503906 128.46875 11.734375 C 128.46875 13.0625 127.300781 14.070312 126.132812 14.070312 C 125.539062 14.070312 125.203125 13.8125 124.929688 13.574219 C 124.722656 13.414062 124.546875 13.253906 124.308594 13.253906 C 124.066406 13.253906 123.601562 13.765625 123.601562 13.992188 C 123.601562 14.246094 124.628906 14.679688 125.378906 14.679688 Z M 125.378906 14.679688 "/>
<path style=" stroke:none;fill-rule:evenodd;fill:rgb(0%,0%,0%);fill-opacity:1;" d="M 134.097656 14.117188 C 134.964844 14.117188 135.125 14.039062 135.9375 14.039062 C 136.691406 14.039062 136.835938 14.117188 137.746094 14.117188 C 137.875 14.117188 137.988281 14.039062 137.988281 13.941406 C 137.988281 13.847656 137.828125 13.75 137.699219 13.71875 C 136.835938 13.496094 136.628906 13.351562 136.628906 12.726562 L 136.628906 11.222656 C 136.628906 11.207031 136.753906 11.140625 136.835938 11.125 C 136.964844 11.109375 137.140625 11.09375 137.332031 11.09375 C 137.585938 11.09375 137.875 11.109375 138.113281 11.109375 C 138.179688 11.109375 138.453125 10.757812 138.453125 10.503906 C 138.453125 10.4375 138.371094 10.375 138.273438 10.375 C 137.921875 10.390625 137.636719 10.40625 137.332031 10.40625 C 137.140625 10.40625 136.929688 10.40625 136.691406 10.390625 C 136.644531 10.390625 136.609375 10.34375 136.609375 10.292969 L 136.609375 8.230469 C 136.609375 7.558594 136.609375 7.207031 136.371094 7.207031 C 136.226562 7.207031 135.796875 7.238281 135.476562 7.414062 C 135.347656 7.476562 135.332031 7.542969 135.332031 7.765625 L 135.332031 10.246094 C 135.332031 10.308594 135.21875 10.375 135.140625 10.375 L 132.371094 10.375 C 132.308594 10.375 132.339844 10.277344 132.371094 10.230469 L 136.691406 4.023438 C 136.691406 4.023438 136.820312 3.796875 136.722656 3.796875 L 136.386719 3.796875 C 136.226562 3.796875 136.035156 4.054688 135.90625 4.246094 L 131.683594 10.308594 C 131.476562 10.597656 131.460938 10.566406 131.058594 11.0625 C 131.042969 11.078125 131.042969 11.09375 131.042969 11.109375 C 131.042969 11.175781 131.125 11.269531 131.203125 11.269531 C 132.882812 11.253906 133.777344 11.160156 135.089844 11.160156 C 135.105469 11.160156 135.332031 11.207031 135.332031 11.300781 L 135.332031 12.789062 C 135.332031 13.300781 135.089844 13.589844 134.097656 13.71875 C 133.972656 13.734375 133.8125 13.796875 133.8125 13.910156 C 133.8125 14.054688 133.988281 14.117188 134.097656 14.117188 Z M 134.097656 14.117188 "/>
<path style=" stroke:none;fill-rule:evenodd;fill:rgb(0%,0%,0%);fill-opacity:1;" d="M 141.027344 14.679688 C 143.203125 14.679688 145.476562 13.222656 145.476562 10.824219 C 145.476562 9.460938 144.402344 8.308594 143.042969 8.308594 C 142.964844 8.308594 142.964844 8.246094 143.027344 8.214844 C 144.273438 7.496094 144.707031 6.582031 144.707031 5.8125 C 144.707031 4.726562 143.683594 3.992188 142.628906 3.992188 C 140.453125 3.992188 139.539062 5.511719 139.539062 6.070312 C 139.539062 6.230469 139.714844 6.375 139.796875 6.375 C 140.035156 6.375 140.292969 4.949219 141.9375 4.949219 C 142.804688 4.949219 143.441406 5.734375 143.441406 6.613281 C 143.441406 7.75 141.796875 8.582031 141.425781 8.757812 C 141.21875 8.855469 141.027344 9.03125 140.945312 9.300781 C 140.914062 9.414062 141.105469 9.511719 141.21875 9.445312 C 141.585938 9.238281 142.019531 9.207031 142.257812 9.207031 C 143.492188 9.207031 144.113281 10.503906 144.113281 11.734375 C 144.113281 13.0625 142.945312 14.070312 141.777344 14.070312 C 141.1875 14.070312 140.851562 13.8125 140.578125 13.574219 C 140.371094 13.414062 140.195312 13.253906 139.957031 13.253906 C 139.714844 13.253906 139.25 13.765625 139.25 13.992188 C 139.25 14.246094 140.273438 14.679688 141.027344 14.679688 Z M 141.027344 14.679688 "/>
<path style=" stroke:none;fill-rule:evenodd;fill:rgb(0%,0%,0%);fill-opacity:1;" d="M 148.242188 14.679688 C 149.378906 14.679688 150.417969 14.390625 151.265625 13.910156 C 152.453125 13.222656 153.21875 12.152344 153.21875 10.980469 C 153.21875 9.6875 152.628906 8.902344 151.441406 8.277344 C 150.707031 7.894531 149.730469 7.558594 148.53125 7.207031 C 148.339844 7.160156 148.308594 7.046875 148.324219 6.902344 C 148.339844 6.644531 148.804688 5.671875 149.027344 5.636719 C 149.507812 5.558594 150.945312 5.445312 151.777344 5.351562 C 152.050781 5.320312 152.226562 5.160156 152.371094 4.839844 L 152.644531 4.308594 C 152.722656 4.167969 152.628906 4.023438 152.46875 4.039062 C 151.21875 4.152344 150.132812 4.34375 149.15625 4.597656 C 148.820312 4.679688 148.609375 4.855469 148.5 5.175781 C 148.273438 5.878906 147.730469 7.140625 147.730469 7.71875 C 147.730469 8.007812 147.828125 8.214844 148.113281 8.453125 C 150.945312 9.191406 151.957031 9.972656 151.957031 11.207031 C 151.957031 12.582031 150.753906 14.183594 148.226562 14.183594 C 148.035156 14.183594 147.652344 14.328125 147.652344 14.488281 C 147.652344 14.628906 148.003906 14.679688 148.242188 14.679688 Z M 148.242188 14.679688 "/>
</g>
</svg>
