<?xml version="1.0" encoding="UTF-8"?>
<svg xmlns="http://www.w3.org/2000/svg" xmlns:xlink="http://www.w3.org/1999/xlink" width="486.82713pt" height="100.316005pt" viewBox="0 0 486.82713 100.316005" version="1.1">
<g id="surface1">
<path style=" stroke:none;fill-rule:evenodd;fill:rgb(0%,0%,0%);fill-opacity:1;" d="M -0.558594 69.480469 C 1.679688 69.480469 6.078125 66.558594 7.199219 62.28125 C 8.761719 56.238281 10.519531 50.078125 12.398438 44.039062 C 12.519531 43.558594 12.839844 43.398438 13.398438 43.398438 L 17.039062 43.359375 C 17.761719 43.359375 18.199219 42.558594 18.199219 42.199219 C 18.199219 41.878906 18.078125 41.761719 17.921875 41.761719 C 16.558594 41.761719 15.121094 41.878906 13.519531 41.878906 C 13.28125 41.878906 13.121094 41.800781 13.121094 41.519531 C 13.121094 41.238281 13.199219 41.121094 13.320312 40.71875 C 13.640625 39.679688 13.839844 38.800781 14.160156 37.761719 C 15.761719 32.519531 16.640625 31.28125 18.921875 31.28125 C 20.078125 31.28125 20.800781 31.839844 21.28125 32.921875 C 21.679688 33.800781 21.960938 34.480469 22.359375 34.480469 C 23.078125 34.480469 24 33.800781 24 32.441406 C 24 30.800781 22.601562 29.640625 20.238281 29.640625 C 17.441406 29.640625 13 32.28125 11.078125 39.878906 L 10.761719 41.160156 C 10.640625 41.640625 10.359375 41.921875 10 41.960938 L 7.199219 42.121094 C 6.800781 42.160156 6.441406 42.71875 6.441406 43.160156 C 6.441406 43.441406 6.601562 43.640625 6.960938 43.640625 L 9.441406 43.601562 C 10 43.601562 10.160156 43.800781 10 44.320312 L 4.640625 62.480469 C 3.320312 66.878906 2.558594 67.878906 1.039062 67.878906 C 0.078125 67.878906 -0.558594 67.441406 -1.039062 66.921875 C -1.558594 66.359375 -1.921875 65.800781 -2.320312 65.800781 C -2.839844 65.800781 -3.878906 66.679688 -3.878906 67.480469 C -3.878906 68.800781 -2.558594 69.480469 -0.558594 69.480469 Z M -0.558594 69.480469 "/>
<path style=" stroke:none;fill-rule:evenodd;fill:rgb(0%,0%,0%);fill-opacity:1;" d="M 31.394531 44.71875 C 31.761719 44.71875 32.152344 44.496094 32.152344 44.105469 C 32.152344 44.046875 31.761719 43.601562 31.730469 43.542969 C 30.023438 41.554688 28.203125 35.59375 28.203125 30.832031 C 28.203125 26.070312 30.109375 21.957031 31.816406 19.96875 C 31.871094 19.910156 32.179688 19.464844 32.179688 19.40625 C 32.179688 19.15625 31.761719 18.960938 31.5625 18.960938 C 31.285156 18.960938 30.976562 19.128906 30.808594 19.296875 C 28.820312 21.285156 25.878906 26.40625 25.878906 31.167969 C 25.878906 35.929688 28.933594 42.507812 30.921875 44.496094 C 31.058594 44.636719 31.226562 44.71875 31.394531 44.71875 Z M 31.394531 44.71875 "/>
<path style=" stroke:none;fill-rule:evenodd;fill:rgb(0%,0%,0%);fill-opacity:1;" d="M 35.121094 39.289062 C 35.429688 39.289062 35.652344 39.035156 35.988281 38.421875 C 37.808594 35.257812 40.132812 31.671875 41 30.609375 C 42.230469 29.097656 43.210938 28.394531 43.828125 28.425781 C 44.359375 28.453125 44.640625 28.984375 44.050781 30.523438 C 43.070312 33.015625 41.953125 35.507812 40.859375 38 C 40.578125 38.617188 41.222656 39.230469 41.726562 39.230469 C 43.492188 39.230469 45.3125 37.914062 46.769531 36.152344 C 46.824219 36.066406 46.878906 35.898438 46.878906 35.761719 C 46.878906 35.621094 46.769531 35.507812 46.65625 35.507812 C 46.628906 35.507812 46.601562 35.507812 46.570312 35.535156 C 46.292969 35.816406 44.277344 37.441406 43.378906 37.441406 C 43.042969 37.441406 42.933594 37.160156 43.238281 36.433594 L 45.816406 30.328125 C 46.570312 28.5625 45.675781 27.246094 44.5 27.246094 C 42.792969 27.246094 40.242188 29.402344 37.949219 33.324219 C 37.835938 33.519531 37.585938 33.492188 37.695312 33.210938 L 39.542969 28.453125 C 39.796875 27.78125 39.207031 27.246094 38.621094 27.246094 C 37.359375 27.277344 36.378906 27.808594 35.820312 28.648438 C 35.597656 28.984375 35.203125 29.710938 35.230469 30.046875 C 35.289062 30.328125 35.511719 30.328125 35.652344 30.160156 C 36.546875 28.984375 37.164062 28.871094 37.722656 28.871094 C 38.089844 28.871094 38.003906 29.292969 37.667969 30.105469 L 34.421875 38.054688 C 34.222656 38.53125 34.671875 39.289062 35.121094 39.289062 Z M 35.121094 39.289062 "/>
<path style=" stroke:none;fill-rule:evenodd;fill:rgb(0%,0%,0%);fill-opacity:1;" d="M 50.015625 44.71875 C 50.183594 44.71875 50.351562 44.636719 50.492188 44.496094 C 52.480469 42.507812 55.53125 35.929688 55.53125 31.167969 C 55.53125 26.40625 52.59375 21.285156 50.605469 19.296875 C 50.4375 19.128906 50.128906 18.960938 49.847656 18.960938 C 49.652344 18.960938 49.230469 19.15625 49.230469 19.40625 C 49.230469 19.464844 49.539062 19.910156 49.597656 19.96875 C 51.304688 21.957031 53.207031 26.070312 53.207031 30.832031 C 53.207031 35.59375 51.386719 41.554688 49.679688 43.542969 C 49.652344 43.601562 49.261719 44.046875 49.261719 44.105469 C 49.261719 44.496094 49.652344 44.71875 50.015625 44.71875 Z M 50.015625 44.71875 "/>
<path style=" stroke:none;fill-rule:evenodd;fill:rgb(0%,0%,0%);fill-opacity:1;" d="M 70.210938 66.28125 C 70.730469 66.28125 71.292969 65.960938 71.292969 65.398438 C 71.292969 65.320312 70.730469 64.679688 70.691406 64.601562 C 68.253906 61.761719 65.652344 53.238281 65.652344 46.441406 C 65.652344 39.640625 68.371094 33.761719 70.8125 30.921875 C 70.890625 30.839844 71.332031 30.199219 71.332031 30.121094 C 71.332031 29.761719 70.730469 29.480469 70.453125 29.480469 C 70.050781 29.480469 69.613281 29.71875 69.371094 29.960938 C 66.53125 32.800781 62.332031 40.121094 62.332031 46.921875 C 62.332031 53.71875 66.691406 63.121094 69.53125 65.960938 C 69.730469 66.160156 69.972656 66.28125 70.210938 66.28125 Z M 70.210938 66.28125 "/>
<path style=" stroke:none;fill-rule:evenodd;fill:rgb(0%,0%,0%);fill-opacity:1;" d="M 90.132812 41.640625 C 90.132812 41.398438 89.933594 41.160156 89.773438 41.160156 C 89.371094 41.160156 88.851562 41.601562 88.570312 41.878906 C 87.972656 42.480469 87.570312 42.71875 86.773438 42.71875 C 86.09375 42.71875 85.210938 42.320312 84.253906 41.960938 C 83.371094 41.640625 82.492188 41.320312 81.613281 41.320312 C 80.730469 41.320312 78.730469 42.28125 77.8125 43.160156 C 76.53125 44.359375 75.8125 45.238281 75.8125 46.679688 C 75.8125 47.558594 76.371094 48.039062 76.652344 48.039062 C 76.890625 48.039062 77.933594 47.558594 78.292969 47.160156 C 78.492188 46.921875 78.492188 46.761719 78.292969 46.441406 C 77.972656 45.960938 77.890625 45.398438 77.890625 45 C 77.890625 44.199219 78.851562 43.238281 79.8125 43.238281 C 81.09375 43.238281 82.171875 43.761719 83.210938 44.28125 C 84.050781 44.679688 84.851562 45.078125 85.570312 45.121094 L 74.851562 55.519531 C 74.09375 56.238281 73.851562 57.078125 73.890625 57.640625 C 73.933594 58.160156 74.292969 58.679688 74.453125 58.679688 C 74.652344 58.679688 75.050781 58.640625 75.050781 58.121094 C 75.050781 56.878906 75.972656 55.800781 77.570312 55.800781 C 78.09375 55.800781 78.773438 56.480469 79.570312 57.238281 C 80.570312 58.199219 81.691406 59.238281 83.011719 59.238281 C 84.453125 59.238281 88.253906 56.441406 88.253906 54.199219 C 88.253906 52.921875 87.492188 52.160156 86.933594 52.160156 C 86.453125 52.160156 86.332031 52.359375 86.332031 53.320312 C 86.332031 55.121094 86.171875 57.160156 84.371094 57.160156 C 83.453125 57.160156 82.613281 56.398438 81.691406 55.640625 C 80.691406 54.800781 79.691406 53.960938 78.492188 53.960938 L 78.371094 53.960938 L 88.851562 43.640625 C 89.613281 42.878906 90.132812 42.039062 90.132812 41.640625 Z M 90.132812 41.640625 "/>
<path style=" stroke:none;fill-rule:evenodd;fill:rgb(0%,0%,0%);fill-opacity:1;" d="M 93.691406 66.28125 C 93.933594 66.28125 94.171875 66.160156 94.371094 65.960938 C 97.210938 63.121094 101.570312 53.71875 101.570312 46.921875 C 101.570312 40.121094 97.371094 32.800781 94.53125 29.960938 C 94.292969 29.71875 93.851562 29.480469 93.453125 29.480469 C 93.171875 29.480469 92.570312 29.761719 92.570312 30.121094 C 92.570312 30.199219 93.011719 30.839844 93.09375 30.921875 C 95.53125 33.761719 98.253906 39.640625 98.253906 46.441406 C 98.253906 53.238281 95.652344 61.761719 93.210938 64.601562 C 93.171875 64.679688 92.613281 65.320312 92.613281 65.398438 C 92.613281 65.960938 93.171875 66.28125 93.691406 66.28125 Z M 93.691406 66.28125 "/>
<path style=" stroke:none;fill-rule:evenodd;fill:rgb(0%,0%,0%);fill-opacity:1;" d="M 121.464844 45.320312 L 138.265625 45.320312 C 138.90625 45.320312 139.546875 44.320312 139.546875 43.761719 C 139.546875 43.519531 139.226562 43.320312 138.984375 43.320312 L 121.867188 43.320312 C 121.144531 43.320312 120.90625 44.480469 120.90625 44.839844 C 120.90625 45.078125 121.183594 45.320312 121.464844 45.320312 Z M 121.464844 52.160156 L 138.265625 52.160156 C 138.90625 52.160156 139.546875 51.320312 139.546875 50.601562 C 139.546875 50.359375 139.226562 50.160156 138.984375 50.160156 L 121.867188 50.160156 C 121.144531 50.160156 120.90625 51.320312 120.90625 51.679688 C 120.90625 51.921875 121.183594 52.160156 121.464844 52.160156 Z M 121.464844 52.160156 "/>
<path style=" stroke:none;fill-rule:evenodd;fill:rgb(0%,0%,0%);fill-opacity:1;" d="M 173.898438 33.160156 C 174.339844 33.160156 174.660156 32.800781 175.140625 31.921875 C 177.738281 27.398438 181.058594 22.28125 182.296875 20.761719 C 184.058594 18.601562 185.457031 17.601562 186.339844 17.640625 C 187.097656 17.679688 187.5 18.441406 186.660156 20.640625 C 185.257812 24.199219 183.660156 27.761719 182.097656 31.320312 C 181.699219 32.199219 182.617188 33.078125 183.339844 33.078125 C 185.859375 33.078125 188.457031 31.199219 190.539062 28.679688 C 190.617188 28.558594 190.699219 28.320312 190.699219 28.121094 C 190.699219 27.921875 190.539062 27.761719 190.378906 27.761719 C 190.339844 27.761719 190.296875 27.761719 190.257812 27.800781 C 189.859375 28.199219 186.980469 30.519531 185.699219 30.519531 C 185.21875 30.519531 185.058594 30.121094 185.5 29.078125 L 189.179688 20.359375 C 190.257812 17.839844 188.980469 15.960938 187.296875 15.960938 C 184.859375 15.960938 181.21875 19.039062 177.9375 24.640625 C 177.777344 24.921875 177.417969 24.878906 177.578125 24.480469 L 180.21875 17.679688 C 180.578125 16.71875 179.738281 15.960938 178.898438 15.960938 C 177.097656 16 175.699219 16.761719 174.898438 17.960938 C 174.578125 18.441406 174.019531 19.480469 174.058594 19.960938 C 174.140625 20.359375 174.457031 20.359375 174.660156 20.121094 C 175.9375 18.441406 176.820312 18.28125 177.617188 18.28125 C 178.140625 18.28125 178.019531 18.878906 177.539062 20.039062 L 172.898438 31.398438 C 172.617188 32.078125 173.257812 33.160156 173.898438 33.160156 Z M 173.898438 33.160156 "/>
<path style=" stroke:none;fill-rule:evenodd;fill:rgb(0%,0%,0%);fill-opacity:1;" d="M 196.980469 24.320312 C 197.378906 24.320312 197.617188 23.640625 197.699219 22.761719 C 198.179688 18.238281 198.898438 11.28125 198.898438 8.761719 C 198.898438 7.601562 198.179688 6.558594 197.097656 6.558594 C 196.019531 6.558594 195.21875 7.601562 195.21875 8.761719 C 195.21875 11.28125 195.777344 18.199219 196.257812 22.761719 C 196.378906 23.921875 196.578125 24.320312 196.980469 24.320312 Z M 197.058594 33.078125 C 198.378906 33.078125 199.457031 32 199.457031 30.679688 C 199.457031 29.359375 198.378906 28.28125 197.058594 28.28125 C 195.738281 28.28125 194.660156 29.359375 194.660156 30.679688 C 194.660156 32 195.738281 33.078125 197.058594 33.078125 Z M 197.058594 33.078125 "/>
<path style=" stroke:none;fill-rule:nonzero;fill:rgb(0%,0%,0%);fill-opacity:1;" d="M 158.878906 46.878906 L 214.878906 46.878906 L 214.878906 48.878906 L 158.878906 48.878906 Z M 158.878906 46.878906 "/>
<path style=" stroke:none;fill-rule:evenodd;fill:rgb(0%,0%,0%);fill-opacity:1;" d="M 175.039062 81.921875 C 175.320312 81.921875 175.757812 81.800781 175.917969 80.960938 C 176.320312 78.960938 177.117188 77.320312 177.117188 76.921875 C 177.117188 76.71875 177.078125 76.441406 176.839844 76.441406 C 176.398438 76.441406 176.039062 77.039062 175.839844 77.359375 C 174.839844 78.960938 174.320312 79.121094 172.039062 79.238281 C 170.597656 79.320312 169 79.359375 167.480469 79.359375 C 166 79.359375 164.839844 79.320312 163.957031 79.238281 C 163.640625 79.199219 163.398438 79.160156 163.398438 78.960938 C 163.398438 78.761719 170 72.359375 171.796875 70.199219 C 173.480469 68.160156 174.71875 65.359375 174.71875 63.199219 C 174.71875 59.320312 172.320312 56.601562 168.320312 56.601562 C 163.796875 56.601562 160.519531 60.519531 160.519531 61.761719 C 160.519531 62.480469 160.917969 62.960938 161.117188 62.960938 C 161.359375 62.960938 161.640625 62.71875 161.796875 62.398438 C 162.917969 60.480469 164.878906 59.160156 167.078125 59.160156 C 169.359375 59.160156 171.359375 60.878906 171.359375 63.71875 C 171.359375 67.238281 169.398438 70.839844 166.71875 73.601562 L 159.878906 80.679688 C 159.640625 80.921875 159.558594 80.960938 159.558594 81.199219 C 159.558594 81.441406 160.160156 81.878906 160.359375 81.878906 C 161.160156 81.878906 167.640625 81.679688 169.640625 81.679688 C 171.640625 81.679688 174.238281 81.921875 175.039062 81.921875 Z M 175.039062 81.921875 "/>
<path style=" stroke:none;fill-rule:evenodd;fill:rgb(0%,0%,0%);fill-opacity:1;" d="M 182.398438 82.320312 C 182.679688 82.320312 183.199219 81.839844 183.640625 80.839844 C 185 77.800781 187 72.480469 188.878906 68.71875 C 189.078125 68.320312 189.359375 68.121094 189.71875 68.160156 L 192.558594 68.398438 C 192.839844 68.441406 193.078125 68.601562 192.917969 69.039062 C 192.078125 71.320312 189.4375 77.960938 189.039062 79.640625 C 188.71875 81 189.320312 82.359375 190.519531 82.359375 C 192.4375 82.359375 196.640625 78.558594 196.640625 76.878906 C 196.640625 76.761719 196.519531 76.679688 196.398438 76.679688 C 196.320312 76.679688 196.277344 76.71875 196.238281 76.761719 C 194.71875 78.28125 193.160156 79.160156 191.878906 79.160156 C 191.238281 79.160156 191.078125 78.601562 191.359375 77.640625 C 191.957031 75.558594 193.199219 71.359375 194.277344 68.960938 C 194.4375 68.601562 194.640625 68.519531 194.757812 68.519531 C 195.359375 68.519531 196.117188 68.601562 196.597656 68.601562 C 198.917969 68.601562 201.117188 66.160156 201.117188 64.800781 C 201.117188 64.359375 200.917969 64.160156 200.519531 64.160156 C 200.359375 64.160156 199.917969 64.839844 199.398438 65.160156 C 198.679688 65.601562 197.796875 65.640625 196.71875 65.640625 C 194.078125 65.640625 190.640625 65.398438 187.480469 65.398438 C 182 65.398438 179.757812 68.398438 179.757812 71.078125 C 179.757812 71.640625 180.078125 72.238281 180.359375 72.238281 C 180.679688 72.238281 180.878906 71.878906 180.917969 71.519531 C 181.199219 69.121094 183.199219 67.601562 186.359375 67.839844 L 187.398438 67.921875 C 187.71875 67.960938 187.640625 68.238281 187.558594 68.441406 C 186.679688 70.679688 184 75.71875 180.679688 80.359375 L 180.679688 81.160156 C 180.597656 81.558594 181.839844 82.320312 182.398438 82.320312 Z M 182.398438 82.320312 "/>
<path style=" stroke:none;fill-rule:evenodd;fill:rgb(0%,0%,0%);fill-opacity:1;" d="M 211.957031 61.28125 C 213.160156 61.28125 214.160156 60.199219 214.160156 59 C 214.160156 58.160156 213.640625 57.28125 212.796875 57.28125 C 211.519531 57.28125 210.558594 58.441406 210.558594 59.71875 C 210.558594 60.519531 211.160156 61.28125 211.957031 61.28125 Z M 203.878906 82.359375 C 206.320312 82.359375 211 78.121094 211 76.441406 C 211 76.320312 210.878906 76.238281 210.757812 76.238281 C 210.679688 76.238281 210.640625 76.28125 210.597656 76.320312 C 209.078125 77.839844 207.277344 79.71875 206.199219 79.71875 C 205.917969 79.71875 205.558594 79.640625 205.558594 79.238281 C 205.558594 78.921875 205.640625 78.519531 205.839844 78.078125 L 210.71875 66.519531 C 210.878906 66.121094 210 64.960938 209.277344 65.28125 C 205.917969 66.800781 203.277344 69.121094 203.277344 69.800781 C 203.277344 70.078125 203.597656 70.199219 203.878906 70 C 204.839844 69.28125 206.558594 68.480469 207 68.480469 C 207.277344 68.480469 207.277344 68.71875 207.199219 68.960938 C 206.039062 71.878906 204.640625 75.960938 202.4375 80.359375 C 202.320312 80.601562 202.320312 80.800781 202.320312 81 C 202.320312 81.640625 202.957031 82.359375 203.878906 82.359375 Z M 203.878906 82.359375 "/>
<path style=" stroke:none;fill-rule:evenodd;fill:rgb(0%,0%,0%);fill-opacity:1;" d="M 246.226562 58.640625 C 245.945312 58.679688 245.824219 58.558594 245.867188 58.28125 C 246.503906 51.800781 247.226562 44.519531 247.867188 38 C 247.90625 37.71875 248.023438 37.601562 248.265625 37.679688 C 252.746094 39 255.90625 43.199219 255.90625 47.960938 C 255.90625 53.878906 251.464844 58.160156 246.226562 58.640625 Z M 233.546875 86.640625 C 237.785156 86.640625 243.585938 81.480469 244.144531 75.71875 C 244.386719 73.320312 244.945312 67.800781 245.585938 61.078125 C 245.625 60.800781 245.746094 60.640625 246.023438 60.640625 C 252.144531 60.238281 257.265625 55.480469 257.867188 49.160156 C 257.90625 48.761719 257.90625 48.320312 257.90625 47.921875 C 257.90625 42.121094 253.984375 37.160156 248.464844 35.679688 C 248.226562 35.601562 248.105469 35.441406 248.144531 35.160156 C 249.023438 26.398438 249.664062 19.601562 249.746094 18.960938 C 250.226562 15.398438 252.464844 11.320312 254.90625 11.320312 C 256.105469 11.320312 257.183594 12.121094 257.984375 13.558594 C 258.625 14.761719 259.144531 15.640625 259.707031 15.640625 C 260.585938 15.640625 261.625 14.878906 261.625 13.441406 C 261.625 10.960938 259.464844 9.121094 256.023438 9.121094 C 250.945312 9.121094 247.023438 13.960938 246.066406 21.839844 L 244.785156 34.839844 C 244.746094 35.121094 244.625 35.28125 244.34375 35.28125 C 238.226562 35.679688 233.144531 40.441406 232.546875 46.761719 C 232.503906 47.160156 232.464844 47.601562 232.464844 48 C 232.464844 53.800781 236.386719 58.761719 241.90625 60.238281 C 242.144531 60.320312 242.304688 60.480469 242.265625 60.761719 L 240.746094 76 C 240.105469 82.160156 237.464844 84.480469 235.425781 84.480469 C 234.144531 84.480469 233.226562 83.921875 232.464844 83.199219 C 231.664062 82.441406 231.144531 81.679688 230.585938 81.679688 C 229.945312 81.679688 228.746094 82.761719 228.746094 83.839844 C 228.746094 85.679688 230.785156 86.640625 233.546875 86.640625 Z M 244.546875 37.640625 L 242.546875 57.921875 C 242.503906 58.199219 242.34375 58.320312 242.105469 58.238281 C 237.625 56.878906 234.464844 52.71875 234.464844 47.960938 C 234.464844 42.078125 238.945312 37.761719 244.183594 37.28125 C 244.464844 37.238281 244.585938 37.359375 244.546875 37.640625 Z M 244.546875 37.640625 "/>
<path style=" stroke:none;fill-rule:evenodd;fill:rgb(0%,0%,0%);fill-opacity:1;" d="M 315.273438 40.878906 C 317.511719 40.878906 321.914062 37.960938 323.03125 33.679688 C 324.59375 27.640625 326.351562 21.480469 328.234375 15.441406 C 328.351562 14.960938 328.671875 14.800781 329.234375 14.800781 L 332.871094 14.761719 C 333.59375 14.761719 334.03125 13.960938 334.03125 13.601562 C 334.03125 13.28125 333.914062 13.160156 333.753906 13.160156 C 332.394531 13.160156 330.953125 13.28125 329.351562 13.28125 C 329.113281 13.28125 328.953125 13.199219 328.953125 12.921875 C 328.953125 12.640625 329.03125 12.519531 329.152344 12.121094 C 329.472656 11.078125 329.671875 10.199219 329.992188 9.160156 C 331.59375 3.921875 332.472656 2.679688 334.753906 2.679688 C 335.914062 2.679688 336.632812 3.238281 337.113281 4.320312 C 337.511719 5.199219 337.792969 5.878906 338.191406 5.878906 C 338.914062 5.878906 339.832031 5.199219 339.832031 3.839844 C 339.832031 2.199219 338.433594 1.039062 336.074219 1.039062 C 333.273438 1.039062 328.832031 3.679688 326.914062 11.28125 L 326.59375 12.558594 C 326.472656 13.039062 326.191406 13.320312 325.832031 13.359375 L 323.03125 13.519531 C 322.632812 13.558594 322.273438 14.121094 322.273438 14.558594 C 322.273438 14.839844 322.433594 15.039062 322.792969 15.039062 L 325.273438 15 C 325.832031 15 325.992188 15.199219 325.832031 15.71875 L 320.472656 33.878906 C 319.152344 38.28125 318.394531 39.28125 316.871094 39.28125 C 315.914062 39.28125 315.273438 38.839844 314.792969 38.320312 C 314.273438 37.761719 313.914062 37.199219 313.511719 37.199219 C 312.992188 37.199219 311.953125 38.078125 311.953125 38.878906 C 311.953125 40.199219 313.273438 40.878906 315.273438 40.878906 Z M 315.273438 40.878906 "/>
<path style=" stroke:none;fill-rule:evenodd;fill:rgb(0%,0%,0%);fill-opacity:1;" d="M 350.792969 37.679688 C 351.3125 37.679688 351.871094 37.359375 351.871094 36.800781 C 351.871094 36.71875 351.3125 36.078125 351.273438 36 C 348.832031 33.160156 346.234375 24.640625 346.234375 17.839844 C 346.234375 11.039062 348.953125 5.160156 351.394531 2.320312 C 351.472656 2.238281 351.914062 1.601562 351.914062 1.519531 C 351.914062 1.160156 351.3125 0.878906 351.03125 0.878906 C 350.632812 0.878906 350.191406 1.121094 349.953125 1.359375 C 347.113281 4.199219 342.914062 11.519531 342.914062 18.320312 C 342.914062 25.121094 347.273438 34.519531 350.113281 37.359375 C 350.3125 37.558594 350.554688 37.679688 350.792969 37.679688 Z M 350.792969 37.679688 "/>
<path style=" stroke:none;fill-rule:evenodd;fill:rgb(0%,0%,0%);fill-opacity:1;" d="M 358.273438 37.320312 C 362.191406 36.078125 366.671875 32.960938 366.671875 29.199219 C 366.671875 28.078125 365.554688 26 364.351562 26 C 364.03125 26 362.832031 26.121094 361.871094 26.160156 C 360.832031 26.238281 359.554688 26.28125 359.234375 26.28125 C 357.832031 26.28125 357.113281 25.878906 357.113281 24.640625 C 357.113281 21.679688 362.351562 17.761719 368.871094 16.238281 C 369.753906 16.039062 371.03125 14.761719 371.03125 14.078125 C 371.03125 13.480469 370.671875 13 369.753906 13 C 368.714844 13 366.074219 14 364.511719 15.039062 C 362.914062 15.039062 362.234375 14.238281 362.234375 12.960938 C 362.234375 9.519531 366.351562 6.839844 369.191406 6.558594 C 373.632812 5.679688 374.152344 4.640625 374.152344 3.359375 C 374.152344 2.71875 373.871094 2.160156 373.394531 2.160156 C 372.234375 2.160156 368.671875 3.640625 365.554688 5.878906 C 364.554688 5.71875 364.113281 4.878906 364.113281 3.878906 C 364.113281 2.761719 364.914062 1.441406 366.191406 0.960938 C 366.714844 0.761719 366.792969 0.640625 366.792969 0.441406 C 366.792969 0.160156 366.273438 0 365.992188 0 C 363.914062 0 361.3125 1.800781 361.3125 4.199219 C 361.3125 5.921875 363.3125 6.601562 364.632812 6.558594 C 362.191406 8.519531 360.191406 10.960938 360.191406 13.558594 C 360.191406 14.800781 361.234375 15.441406 362.472656 16 C 363.03125 16.238281 362.671875 16.398438 362.273438 16.640625 C 359.671875 18.398438 355.234375 22.238281 355.234375 26.441406 C 355.234375 27.761719 356.433594 29.519531 358.472656 29.519531 C 359.113281 29.519531 360.351562 29.359375 361.632812 29.238281 C 362.714844 29.121094 363.714844 29 364.273438 29 C 364.792969 29 365.273438 29.160156 365.273438 29.601562 C 365.273438 30.558594 363.113281 32.519531 357.273438 34.480469 C 356.753906 34.640625 356.714844 35.121094 356.714844 35.558594 C 356.714844 36.398438 357.433594 37.601562 358.273438 37.320312 Z M 358.273438 37.320312 "/>
<path style=" stroke:none;fill-rule:evenodd;fill:rgb(0%,0%,0%);fill-opacity:1;" d="M 377.03125 37.679688 C 377.273438 37.679688 377.511719 37.558594 377.714844 37.359375 C 380.554688 34.519531 384.914062 25.121094 384.914062 18.320312 C 384.914062 11.519531 380.714844 4.199219 377.871094 1.359375 C 377.632812 1.121094 377.191406 0.878906 376.792969 0.878906 C 376.511719 0.878906 375.914062 1.160156 375.914062 1.519531 C 375.914062 1.601562 376.351562 2.238281 376.433594 2.320312 C 378.871094 5.160156 381.59375 11.039062 381.59375 17.839844 C 381.59375 24.640625 378.992188 33.160156 376.554688 36 C 376.511719 36.078125 375.953125 36.71875 375.953125 36.800781 C 375.953125 37.359375 376.511719 37.679688 377.03125 37.679688 Z M 377.03125 37.679688 "/>
<path style=" stroke:none;fill-rule:nonzero;fill:rgb(0%,0%,0%);fill-opacity:1;" d="M 275.492188 46.878906 L 429.253906 46.878906 L 429.253906 48.878906 L 275.492188 48.878906 Z M 275.492188 46.878906 "/>
<path style=" stroke:none;fill-rule:evenodd;fill:rgb(0%,0%,0%);fill-opacity:1;" d="M 287.371094 100.316406 C 287.890625 100.316406 288.453125 99.996094 288.453125 99.4375 C 288.453125 99.355469 287.890625 98.714844 287.851562 98.636719 C 285.410156 95.796875 282.8125 87.277344 282.8125 80.476562 C 282.8125 73.675781 285.53125 67.796875 287.972656 64.957031 C 288.050781 64.875 288.492188 64.234375 288.492188 64.15625 C 288.492188 63.796875 287.890625 63.515625 287.613281 63.515625 C 287.210938 63.515625 286.773438 63.757812 286.53125 63.996094 C 283.691406 66.835938 279.492188 74.15625 279.492188 80.957031 C 279.492188 87.757812 283.851562 97.15625 286.691406 99.996094 C 286.890625 100.195312 287.132812 100.316406 287.371094 100.316406 Z M 287.371094 100.316406 "/>
<path style=" stroke:none;fill-rule:evenodd;fill:rgb(0%,0%,0%);fill-opacity:1;" d="M 294.851562 99.957031 C 298.773438 98.714844 303.253906 95.597656 303.253906 91.835938 C 303.253906 90.714844 302.132812 88.636719 300.933594 88.636719 C 300.613281 88.636719 299.410156 88.757812 298.453125 88.796875 C 297.410156 88.875 296.132812 88.914062 295.8125 88.914062 C 294.410156 88.914062 293.691406 88.515625 293.691406 87.277344 C 293.691406 84.316406 298.933594 80.394531 305.453125 78.875 C 306.332031 78.675781 307.613281 77.394531 307.613281 76.714844 C 307.613281 76.117188 307.253906 75.636719 306.332031 75.636719 C 305.292969 75.636719 302.652344 76.636719 301.09375 77.675781 C 299.492188 77.675781 298.8125 76.875 298.8125 75.597656 C 298.8125 72.15625 302.933594 69.476562 305.773438 69.195312 C 310.210938 68.316406 310.730469 67.277344 310.730469 65.996094 C 310.730469 65.355469 310.453125 64.796875 309.972656 64.796875 C 308.8125 64.796875 305.253906 66.277344 302.132812 68.515625 C 301.132812 68.355469 300.691406 67.515625 300.691406 66.515625 C 300.691406 65.394531 301.492188 64.074219 302.773438 63.597656 C 303.292969 63.394531 303.371094 63.277344 303.371094 63.074219 C 303.371094 62.796875 302.851562 62.636719 302.570312 62.636719 C 300.492188 62.636719 297.890625 64.4375 297.890625 66.835938 C 297.890625 68.554688 299.890625 69.234375 301.210938 69.195312 C 298.773438 71.15625 296.773438 73.597656 296.773438 76.195312 C 296.773438 77.4375 297.8125 78.074219 299.050781 78.636719 C 299.613281 78.875 299.253906 79.035156 298.851562 79.277344 C 296.253906 81.035156 291.8125 84.875 291.8125 89.074219 C 291.8125 90.394531 293.011719 92.15625 295.050781 92.15625 C 295.691406 92.15625 296.933594 91.996094 298.210938 91.875 C 299.292969 91.757812 300.292969 91.636719 300.851562 91.636719 C 301.371094 91.636719 301.851562 91.796875 301.851562 92.234375 C 301.851562 93.195312 299.691406 95.15625 293.851562 97.117188 C 293.332031 97.277344 293.292969 97.757812 293.292969 98.195312 C 293.292969 99.035156 294.011719 100.234375 294.851562 99.957031 Z M 294.851562 99.957031 "/>
<path style=" stroke:none;fill-rule:evenodd;fill:rgb(0%,0%,0%);fill-opacity:1;" d="M 321.941406 83.035156 L 340.140625 83.035156 C 340.859375 83.035156 341.382812 81.996094 341.382812 81.117188 C 341.382812 80.875 341.101562 80.636719 340.859375 80.636719 L 322.339844 80.636719 C 321.5 80.636719 321.382812 82.195312 321.382812 82.554688 C 321.382812 82.796875 321.660156 83.035156 321.941406 83.035156 Z M 321.941406 83.035156 "/>
<path style=" stroke:none;fill-rule:evenodd;fill:rgb(0%,0%,0%);fill-opacity:1;" d="M 369.070312 75.675781 C 369.070312 75.4375 368.871094 75.195312 368.710938 75.195312 C 368.308594 75.195312 367.789062 75.636719 367.511719 75.914062 C 366.910156 76.515625 366.511719 76.757812 365.710938 76.757812 C 365.03125 76.757812 364.148438 76.355469 363.191406 75.996094 C 362.308594 75.675781 361.429688 75.355469 360.550781 75.355469 C 359.667969 75.355469 357.667969 76.316406 356.75 77.195312 C 355.46875 78.394531 354.75 79.277344 354.75 80.714844 C 354.75 81.597656 355.308594 82.074219 355.589844 82.074219 C 355.828125 82.074219 356.871094 81.597656 357.230469 81.195312 C 357.429688 80.957031 357.429688 80.796875 357.230469 80.476562 C 356.910156 79.996094 356.828125 79.4375 356.828125 79.035156 C 356.828125 78.234375 357.789062 77.277344 358.75 77.277344 C 360.03125 77.277344 361.109375 77.796875 362.148438 78.316406 C 362.988281 78.714844 363.789062 79.117188 364.511719 79.15625 L 353.789062 89.554688 C 353.03125 90.277344 352.789062 91.117188 352.828125 91.675781 C 352.871094 92.195312 353.230469 92.714844 353.390625 92.714844 C 353.589844 92.714844 353.988281 92.675781 353.988281 92.15625 C 353.988281 90.914062 354.910156 89.835938 356.511719 89.835938 C 357.03125 89.835938 357.710938 90.515625 358.511719 91.277344 C 359.511719 92.234375 360.628906 93.277344 361.949219 93.277344 C 363.390625 93.277344 367.191406 90.476562 367.191406 88.234375 C 367.191406 86.957031 366.429688 86.195312 365.871094 86.195312 C 365.390625 86.195312 365.269531 86.394531 365.269531 87.355469 C 365.269531 89.15625 365.109375 91.195312 363.308594 91.195312 C 362.390625 91.195312 361.550781 90.4375 360.628906 89.675781 C 359.628906 88.835938 358.628906 87.996094 357.429688 87.996094 L 357.308594 87.996094 L 367.789062 77.675781 C 368.550781 76.914062 369.070312 76.074219 369.070312 75.675781 Z M 369.070312 75.675781 "/>
<path style=" stroke:none;fill-rule:evenodd;fill:rgb(0%,0%,0%);fill-opacity:1;" d="M 372.628906 100.316406 C 372.871094 100.316406 373.109375 100.195312 373.308594 99.996094 C 376.148438 97.15625 380.511719 87.757812 380.511719 80.957031 C 380.511719 74.15625 376.308594 66.835938 373.46875 63.996094 C 373.230469 63.757812 372.789062 63.515625 372.390625 63.515625 C 372.109375 63.515625 371.511719 63.796875 371.511719 64.15625 C 371.511719 64.234375 371.949219 64.875 372.03125 64.957031 C 374.46875 67.796875 377.191406 73.675781 377.191406 80.476562 C 377.191406 87.277344 374.589844 95.796875 372.148438 98.636719 C 372.109375 98.714844 371.550781 99.355469 371.550781 99.4375 C 371.550781 99.996094 372.109375 100.316406 372.628906 100.316406 Z M 372.628906 100.316406 "/>
<path style=" stroke:none;fill-rule:evenodd;fill:rgb(0%,0%,0%);fill-opacity:1;" d="M 386.050781 73.164062 C 386.359375 73.164062 386.582031 72.910156 386.917969 72.296875 C 388.738281 69.132812 391.0625 65.546875 391.929688 64.484375 C 393.160156 62.972656 394.140625 62.273438 394.757812 62.300781 C 395.289062 62.328125 395.570312 62.859375 394.980469 64.398438 C 394 66.890625 392.882812 69.382812 391.789062 71.875 C 391.511719 72.492188 392.152344 73.109375 392.65625 73.109375 C 394.421875 73.109375 396.242188 71.792969 397.699219 70.027344 C 397.753906 69.945312 397.808594 69.777344 397.808594 69.636719 C 397.808594 69.496094 397.699219 69.382812 397.585938 69.382812 C 397.558594 69.382812 397.53125 69.382812 397.5 69.410156 C 397.222656 69.691406 395.207031 71.316406 394.308594 71.316406 C 393.972656 71.316406 393.863281 71.035156 394.167969 70.308594 L 396.746094 64.203125 C 397.5 62.441406 396.605469 61.125 395.429688 61.125 C 393.722656 61.125 391.171875 63.28125 388.878906 67.199219 C 388.765625 67.394531 388.515625 67.367188 388.625 67.089844 L 390.472656 62.328125 C 390.726562 61.65625 390.136719 61.125 389.550781 61.125 C 388.289062 61.152344 387.308594 61.683594 386.75 62.523438 C 386.527344 62.859375 386.132812 63.589844 386.160156 63.925781 C 386.21875 64.203125 386.441406 64.203125 386.582031 64.035156 C 387.476562 62.859375 388.09375 62.746094 388.652344 62.746094 C 389.019531 62.746094 388.933594 63.167969 388.597656 63.980469 L 385.351562 71.933594 C 385.152344 72.40625 385.601562 73.164062 386.050781 73.164062 Z M 386.050781 73.164062 "/>
<path style=" stroke:none;fill-rule:evenodd;fill:rgb(0%,0%,0%);fill-opacity:1;" d="M 406.65625 72.941406 C 406.910156 72.941406 408 72.855469 408 72.269531 L 408 66.613281 C 408 66.527344 408.03125 66.5 408.113281 66.5 L 413.292969 66.5 C 413.824219 66.5 414.160156 65.855469 414.160156 65.378906 C 414.160156 65.210938 413.992188 65.101562 413.796875 65.101562 L 408.058594 65.101562 C 408 65.101562 408 65.070312 408 64.933594 L 408 59.585938 C 408 59.386719 407.804688 59.21875 407.609375 59.21875 C 407.441406 59.21875 406.320312 59.472656 406.320312 60.089844 L 406.320312 64.875 C 406.320312 65.042969 406.292969 65.101562 406.125 65.101562 L 400.832031 65.101562 C 400.328125 65.101562 400.160156 65.910156 400.160156 66.164062 C 400.160156 66.332031 400.359375 66.5 400.554688 66.5 L 406.210938 66.5 C 406.292969 66.5 406.320312 66.554688 406.320312 66.640625 L 406.320312 72.546875 C 406.320312 72.742188 406.488281 72.941406 406.65625 72.941406 Z M 406.65625 72.941406 "/>
<path style=" stroke:none;fill-rule:evenodd;fill:rgb(0%,0%,0%);fill-opacity:1;" d="M 418.5 72.800781 C 420.015625 72.800781 421.191406 72.660156 422.703125 72.660156 C 424.1875 72.660156 425.222656 72.800781 426.816406 72.800781 C 427.042969 72.800781 427.210938 72.660156 427.210938 72.492188 C 427.210938 72.324219 426.957031 72.183594 426.734375 72.128906 C 424.4375 71.566406 423.765625 71.429688 423.765625 70 L 423.765625 57.121094 C 423.765625 56.335938 423.792969 55.691406 423.878906 55.132812 C 423.90625 54.992188 423.710938 54.878906 423.542969 54.878906 C 423.484375 54.878906 423.429688 54.878906 423.402344 54.90625 C 422.140625 56.167969 420.882812 56.390625 419.203125 56.644531 C 418.808594 56.699219 418.5 56.894531 418.5 57.148438 C 418.5 57.457031 418.867188 57.597656 419.230469 57.625 C 420.433594 57.707031 421.582031 57.902344 421.582031 58.96875 L 421.582031 69.664062 C 421.582031 71.316406 420.628906 71.566406 418.5 72.101562 C 418.277344 72.15625 418.082031 72.324219 418.082031 72.464844 C 418.082031 72.632812 418.222656 72.800781 418.5 72.800781 Z M 418.5 72.800781 "/>
<path style=" stroke:none;fill-rule:evenodd;fill:rgb(0%,0%,0%);fill-opacity:1;" d="M 460.867188 58.640625 C 461.027344 58.640625 461.066406 58.640625 461.507812 58.398438 C 463.386719 57.601562 464.707031 57.238281 466.1875 57.039062 C 466.46875 57.039062 466.746094 56.679688 466.746094 56.320312 C 466.746094 56 466.546875 55.921875 466.027344 55.960938 C 465.347656 56.039062 464.585938 56.078125 464.308594 56.078125 C 463.707031 56.078125 463.46875 55.320312 463.46875 53.480469 L 463.46875 35.398438 C 463.46875 31.800781 463.746094 30.441406 463.746094 29.960938 C 463.707031 29.800781 463.628906 29.71875 463.46875 29.71875 C 463.347656 29.71875 463.148438 29.761719 462.945312 29.839844 C 462.1875 30.160156 460.988281 30.71875 458.628906 31.320312 C 458.386719 31.398438 458.308594 31.601562 458.308594 31.800781 C 458.308594 32.039062 458.425781 32.28125 458.667969 32.320312 C 459.945312 32.558594 460.667969 33.078125 460.667969 35.238281 L 460.667969 40.921875 C 460.667969 41.640625 460.507812 41.878906 460.386719 41.878906 C 460.265625 41.878906 460.105469 41.839844 459.867188 41.761719 C 459.265625 41.558594 458.066406 41.320312 456.988281 41.320312 C 451.386719 41.320312 447.988281 45.640625 447.988281 50.28125 C 447.988281 54.320312 450.828125 58.441406 455.386719 58.441406 C 458.027344 58.441406 459.828125 56.839844 460.628906 55.601562 L 460.628906 55.839844 C 460.628906 56.519531 460.425781 57.71875 460.425781 58.238281 C 460.425781 58.359375 460.746094 58.640625 460.867188 58.640625 Z M 456.828125 56.359375 C 455.066406 56.359375 450.828125 55.398438 450.828125 49.359375 C 450.828125 44.039062 453.90625 42.71875 455.746094 42.71875 C 458.707031 42.71875 460.667969 45.039062 460.667969 47.199219 L 460.628906 54.398438 C 459.628906 55.558594 458.226562 56.359375 456.828125 56.359375 Z M 456.828125 56.359375 "/>
<path style=" stroke:none;fill-rule:evenodd;fill:rgb(0%,0%,0%);fill-opacity:1;" d="M 471.1875 65.921875 C 475.105469 64.679688 479.585938 61.558594 479.585938 57.800781 C 479.585938 56.679688 478.46875 54.601562 477.265625 54.601562 C 476.945312 54.601562 475.746094 54.71875 474.789062 54.761719 C 473.746094 54.839844 472.46875 54.878906 472.148438 54.878906 C 470.746094 54.878906 470.027344 54.480469 470.027344 53.238281 C 470.027344 50.28125 475.265625 46.359375 481.789062 44.839844 C 482.667969 44.640625 483.945312 43.359375 483.945312 42.679688 C 483.945312 42.078125 483.585938 41.601562 482.667969 41.601562 C 481.628906 41.601562 478.988281 42.601562 477.425781 43.640625 C 475.828125 43.640625 475.148438 42.839844 475.148438 41.558594 C 475.148438 38.121094 479.265625 35.441406 482.105469 35.160156 C 486.546875 34.28125 487.066406 33.238281 487.066406 31.960938 C 487.066406 31.320312 486.789062 30.761719 486.308594 30.761719 C 485.148438 30.761719 481.585938 32.238281 478.46875 34.480469 C 477.46875 34.320312 477.027344 33.480469 477.027344 32.480469 C 477.027344 31.359375 477.828125 30.039062 479.105469 29.558594 C 479.628906 29.359375 479.707031 29.238281 479.707031 29.039062 C 479.707031 28.761719 479.1875 28.601562 478.90625 28.601562 C 476.828125 28.601562 474.226562 30.398438 474.226562 32.800781 C 474.226562 34.519531 476.226562 35.199219 477.546875 35.160156 C 475.105469 37.121094 473.105469 39.558594 473.105469 42.160156 C 473.105469 43.398438 474.148438 44.039062 475.386719 44.601562 C 475.945312 44.839844 475.585938 45 475.1875 45.238281 C 472.585938 47 468.148438 50.839844 468.148438 55.039062 C 468.148438 56.359375 469.347656 58.121094 471.386719 58.121094 C 472.027344 58.121094 473.265625 57.960938 474.546875 57.839844 C 475.628906 57.71875 476.628906 57.601562 477.1875 57.601562 C 477.707031 57.601562 478.1875 57.761719 478.1875 58.199219 C 478.1875 59.160156 476.027344 61.121094 470.1875 63.078125 C 469.667969 63.238281 469.628906 63.71875 469.628906 64.160156 C 469.628906 65 470.347656 66.199219 471.1875 65.921875 Z M 471.1875 65.921875 "/>
</g>
</svg>
