<?xml version="1.0" encoding="UTF-8"?>
<svg xmlns="http://www.w3.org/2000/svg" xmlns:xlink="http://www.w3.org/1999/xlink" width="544.366686pt" height="155.660007pt" viewBox="0 0 544.366686 155.660007" version="1.1">
<g id="surface1">
<path style=" stroke:none;fill-rule:evenodd;fill:rgb(0%,0%,0%);fill-opacity:1;" d="M 118.085938 34.960938 C 120.246094 34.960938 121.925781 34.761719 124.085938 34.761719 C 126.207031 34.761719 127.6875 34.960938 129.964844 34.960938 C 130.285156 34.960938 130.527344 34.761719 130.527344 34.519531 C 130.527344 34.28125 130.167969 34.078125 129.847656 34 C 126.566406 33.199219 125.605469 33 125.605469 30.960938 L 125.605469 12.558594 C 125.605469 11.441406 125.644531 10.519531 125.765625 9.71875 C 125.804688 9.519531 125.527344 9.359375 125.285156 9.359375 C 125.207031 9.359375 125.125 9.359375 125.085938 9.398438 C 123.285156 11.199219 121.484375 11.519531 119.085938 11.878906 C 118.527344 11.960938 118.085938 12.238281 118.085938 12.601562 C 118.085938 13.039062 118.605469 13.238281 119.125 13.28125 C 120.847656 13.398438 122.484375 13.679688 122.484375 15.199219 L 122.484375 30.480469 C 122.484375 32.839844 121.125 33.199219 118.085938 33.960938 C 117.765625 34.039062 117.484375 34.28125 117.484375 34.480469 C 117.484375 34.71875 117.6875 34.960938 118.085938 34.960938 Z M 118.085938 34.960938 "/>
<path style=" stroke:none;fill-rule:nonzero;fill:rgb(0%,0%,0%);fill-opacity:1;" d="M 4 49.199219 L 243.332031 49.199219 L 243.332031 51.199219 L 4 51.199219 Z M 4 49.199219 "/>
<path style=" stroke:none;fill-rule:evenodd;fill:rgb(0%,0%,0%);fill-opacity:1;" d="M 16.679688 116.058594 C 17.199219 116.058594 17.761719 115.738281 17.761719 115.179688 C 17.761719 115.101562 17.199219 114.460938 17.160156 114.378906 C 14.441406 111.261719 11.320312 99.019531 11.320312 86.21875 C 11.320312 73.421875 14.558594 63.820312 17.28125 60.699219 C 17.359375 60.621094 17.800781 59.980469 17.800781 59.898438 C 17.800781 59.539062 17.199219 59.261719 16.921875 59.261719 C 16.519531 59.261719 16.078125 59.5 15.839844 59.738281 C 12.71875 62.859375 8 73.898438 8 86.699219 C 8 99.5 12.878906 112.621094 16 115.738281 C 16.199219 115.941406 16.441406 116.058594 16.679688 116.058594 Z M 16.679688 116.058594 "/>
<path style=" stroke:none;fill-rule:evenodd;fill:rgb(0%,0%,0%);fill-opacity:1;" d="M 42.519531 61.921875 C 43.320312 61.921875 43.800781 61.238281 43.800781 60.441406 C 43.800781 60.199219 43.441406 59.921875 43.121094 59.921875 L 41.359375 59.921875 C 40.558594 59.921875 40.078125 60.199219 39.921875 61 L 31 103.320312 C 30.960938 103.601562 30.878906 103.558594 30.800781 103.320312 L 27.519531 90.199219 C 27.320312 89.441406 26.800781 89.039062 26 89.039062 L 22.238281 89.039062 C 21.558594 89.039062 21.199219 89.71875 21.199219 90.359375 C 21.199219 90.601562 21.480469 90.800781 21.761719 90.800781 L 23.441406 90.800781 C 23.71875 90.800781 23.878906 90.960938 23.960938 91.199219 L 28.238281 108.238281 C 28.519531 109.359375 29.839844 110 30.960938 110 C 31.320312 110 31.839844 109.558594 31.921875 109.078125 L 41.761719 62.320312 C 41.800781 62.039062 41.960938 61.921875 42.238281 61.921875 Z M 42.519531 61.921875 "/>
<path style=" stroke:none;fill-rule:nonzero;fill:rgb(0%,0%,0%);fill-opacity:1;" d="M 42.359375 59.921875 L 106.878906 59.921875 L 106.878906 61.921875 L 42.359375 61.921875 Z M 42.359375 59.921875 "/>
<path style=" stroke:none;fill-rule:evenodd;fill:rgb(0%,0%,0%);fill-opacity:1;" d="M 46.878906 109.058594 C 47.640625 109.058594 48.199219 108.578125 48.199219 108.21875 C 48.199219 108.140625 48.839844 104.019531 50.398438 98.539062 C 57.601562 98.539062 63.960938 92.621094 63.960938 86.421875 C 63.960938 83.539062 63 82.140625 61.320312 81.460938 C 61.480469 81.179688 61.519531 80.941406 61.519531 80.660156 C 61.519531 79.78125 60.441406 78.738281 58.398438 78.738281 C 50.28125 78.738281 44.121094 85.019531 44.121094 91.578125 C 44.121094 94.738281 45.558594 97.261719 48.921875 98.421875 C 47.640625 102.261719 46.199219 106.339844 45.761719 107.460938 C 45.679688 107.660156 45.679688 107.859375 45.679688 108.101562 C 45.679688 108.78125 46.160156 109.058594 46.878906 109.058594 Z M 49.761719 95.660156 C 47.160156 95.300781 45.558594 93.941406 45.558594 90.578125 C 45.558594 86.421875 51.039062 81.300781 56.878906 81.300781 C 53.800781 83.941406 51.28125 90.898438 49.761719 95.660156 Z M 51.238281 95.738281 C 52.398438 92.019531 55.679688 82.78125 59.640625 82.78125 C 61.359375 82.78125 62.238281 84.898438 62.238281 87.140625 C 62.238281 91.699219 56.839844 95.738281 51.238281 95.738281 Z M 51.238281 95.738281 "/>
<path style=" stroke:none;fill-rule:evenodd;fill:rgb(0%,0%,0%);fill-opacity:1;" d="M 87.480469 66.519531 C 88.28125 66.519531 88.71875 65.839844 88.71875 65.039062 C 88.71875 64.800781 88.398438 64.519531 88.078125 64.519531 L 86.398438 64.519531 C 85.601562 64.519531 85.078125 64.839844 84.878906 65.601562 L 76.519531 98.199219 C 76.441406 98.441406 76.398438 98.441406 76.320312 98.199219 L 73.359375 89.199219 C 73.121094 88.441406 72.601562 88.039062 71.800781 88.039062 L 68.078125 88.039062 C 67.398438 88.039062 67.039062 88.71875 67.039062 89.359375 C 67.039062 89.601562 67.320312 89.800781 67.601562 89.800781 L 69.28125 89.800781 C 69.558594 89.800781 69.71875 89.960938 69.800781 90.199219 L 73.71875 102.078125 C 74.078125 103.199219 75.359375 103.800781 76.480469 103.800781 C 76.839844 103.800781 77.359375 103.320312 77.480469 102.878906 L 86.679688 66.921875 C 86.761719 66.679688 86.921875 66.519531 87.199219 66.519531 Z M 87.480469 66.519531 "/>
<path style=" stroke:none;fill-rule:nonzero;fill:rgb(0%,0%,0%);fill-opacity:1;" d="M 87.320312 64.519531 L 106.878906 64.519531 L 106.878906 66.519531 L 87.320312 66.519531 Z M 87.320312 64.519531 "/>
<path style=" stroke:none;fill-rule:evenodd;fill:rgb(0%,0%,0%);fill-opacity:1;" d="M 91.601562 99.179688 C 94.441406 99.179688 97.039062 98.460938 99.160156 97.261719 C 102.121094 95.539062 104.039062 92.859375 104.039062 89.941406 C 104.039062 86.699219 102.558594 84.738281 99.601562 83.179688 C 97.761719 82.21875 95.320312 81.378906 92.320312 80.5 C 91.839844 80.378906 91.761719 80.101562 91.800781 79.738281 C 91.839844 79.101562 93 76.660156 93.558594 76.578125 C 94.761719 76.378906 98.359375 76.101562 100.441406 75.859375 C 101.121094 75.78125 101.558594 75.378906 101.921875 74.578125 L 102.601562 73.261719 C 102.800781 72.898438 102.558594 72.539062 102.160156 72.578125 C 99.039062 72.859375 96.320312 73.339844 93.878906 73.980469 C 93.039062 74.179688 92.519531 74.621094 92.238281 75.421875 C 91.679688 77.179688 90.320312 80.339844 90.320312 81.78125 C 90.320312 82.5 90.558594 83.019531 91.28125 83.621094 C 98.359375 85.460938 100.878906 87.421875 100.878906 90.5 C 100.878906 93.941406 97.878906 97.941406 91.558594 97.941406 C 91.078125 97.941406 90.121094 98.300781 90.121094 98.699219 C 90.121094 99.058594 91 99.179688 91.601562 99.179688 Z M 91.601562 99.179688 "/>
<path style=" stroke:none;fill-rule:evenodd;fill:rgb(0%,0%,0%);fill-opacity:1;" d="M 118.328125 88.78125 L 136.527344 88.78125 C 137.25 88.78125 137.769531 87.738281 137.769531 86.859375 C 137.769531 86.621094 137.488281 86.378906 137.25 86.378906 L 118.730469 86.378906 C 117.890625 86.378906 117.769531 87.941406 117.769531 88.300781 C 117.769531 88.539062 118.050781 88.78125 118.328125 88.78125 Z M 118.328125 88.78125 "/>
<path style=" stroke:none;fill-rule:evenodd;fill:rgb(0%,0%,0%);fill-opacity:1;" d="M 153.179688 109.058594 C 153.9375 109.058594 154.496094 108.578125 154.496094 108.21875 C 154.496094 108.140625 155.136719 104.019531 156.699219 98.539062 C 163.898438 98.539062 170.257812 92.621094 170.257812 86.421875 C 170.257812 83.539062 169.296875 82.140625 167.617188 81.460938 C 167.777344 81.179688 167.816406 80.941406 167.816406 80.660156 C 167.816406 79.78125 166.738281 78.738281 164.699219 78.738281 C 156.578125 78.738281 150.417969 85.019531 150.417969 91.578125 C 150.417969 94.738281 151.859375 97.261719 155.21875 98.421875 C 153.9375 102.261719 152.496094 106.339844 152.058594 107.460938 C 151.976562 107.660156 151.976562 107.859375 151.976562 108.101562 C 151.976562 108.78125 152.457031 109.058594 153.179688 109.058594 Z M 156.058594 95.660156 C 153.457031 95.300781 151.859375 93.941406 151.859375 90.578125 C 151.859375 86.421875 157.335938 81.300781 163.179688 81.300781 C 160.097656 83.941406 157.578125 90.898438 156.058594 95.660156 Z M 157.539062 95.738281 C 158.699219 92.019531 161.976562 82.78125 165.9375 82.78125 C 167.65625 82.78125 168.539062 84.898438 168.539062 87.140625 C 168.539062 91.699219 163.136719 95.738281 157.539062 95.738281 Z M 157.539062 95.738281 "/>
<path style=" stroke:none;fill-rule:evenodd;fill:rgb(0%,0%,0%);fill-opacity:1;" d="M 175.058594 116.058594 C 175.296875 116.058594 175.539062 115.941406 175.738281 115.738281 C 178.859375 112.621094 183.738281 99.5 183.738281 86.699219 C 183.738281 73.898438 179.019531 62.859375 175.898438 59.738281 C 175.65625 59.5 175.21875 59.261719 174.816406 59.261719 C 174.539062 59.261719 173.9375 59.539062 173.9375 59.898438 C 173.9375 59.980469 174.378906 60.621094 174.457031 60.699219 C 177.179688 63.820312 180.417969 73.421875 180.417969 86.21875 C 180.417969 99.019531 177.296875 111.261719 174.578125 114.378906 C 174.539062 114.460938 173.976562 115.101562 173.976562 115.179688 C 173.976562 115.738281 174.539062 116.058594 175.058594 116.058594 Z M 175.058594 116.058594 "/>
<path style=" stroke:none;fill-rule:evenodd;fill:rgb(0%,0%,0%);fill-opacity:1;" d="M 199.40625 98.261719 C 202.003906 98.261719 204.203125 96.820312 205.804688 94.21875 C 205.882812 94.101562 205.882812 93.980469 205.882812 93.898438 C 205.882812 93.660156 205.722656 93.5 205.484375 93.5 C 205.285156 93.5 205.042969 93.621094 204.765625 93.941406 C 203.882812 94.898438 202.605469 96.101562 200.683594 96.101562 C 199.285156 96.101562 198.5625 95.058594 198.5625 93.179688 C 198.5625 91.941406 199.003906 90.460938 199.40625 89.300781 C 199.523438 88.980469 199.683594 88.980469 200.003906 88.898438 C 204.445312 88.058594 209.125 86.660156 209.125 83.300781 C 209.125 81.941406 208.042969 81.101562 206.164062 81.101562 C 200.484375 81.101562 195.722656 88.738281 195.722656 94.101562 C 195.722656 95.980469 197.683594 98.261719 199.40625 98.261719 Z M 200.285156 87.980469 C 200.085938 87.980469 200.003906 87.980469 200.003906 87.738281 C 200.003906 86.539062 203.523438 82.101562 205.722656 82.101562 C 206.40625 82.101562 206.804688 82.699219 206.804688 83.378906 C 206.804688 86.578125 201.484375 87.980469 200.285156 87.980469 Z M 200.285156 87.980469 "/>
<path style=" stroke:none;fill-rule:evenodd;fill:rgb(0%,0%,0%);fill-opacity:1;" d="M 221.644531 69.859375 C 221.785156 69.859375 222.003906 69.800781 222.085938 69.378906 C 222.285156 68.378906 222.683594 67.558594 222.683594 67.359375 C 222.683594 67.261719 222.664062 67.121094 222.542969 67.121094 C 222.324219 67.121094 222.144531 67.421875 222.042969 67.578125 C 221.542969 68.378906 221.285156 68.460938 220.144531 68.519531 C 219.425781 68.558594 218.625 68.578125 217.863281 68.578125 C 217.125 68.578125 216.542969 68.558594 216.105469 68.519531 C 215.945312 68.5 215.824219 68.480469 215.824219 68.378906 C 215.824219 68.28125 219.125 65.078125 220.023438 64 C 220.863281 62.980469 221.484375 61.578125 221.484375 60.5 C 221.484375 58.558594 220.285156 57.199219 218.285156 57.199219 C 216.023438 57.199219 214.382812 59.160156 214.382812 59.78125 C 214.382812 60.140625 214.585938 60.378906 214.683594 60.378906 C 214.804688 60.378906 214.945312 60.261719 215.023438 60.101562 C 215.585938 59.140625 216.566406 58.480469 217.664062 58.480469 C 218.804688 58.480469 219.804688 59.339844 219.804688 60.761719 C 219.804688 62.519531 218.824219 64.320312 217.484375 65.699219 L 214.0625 69.238281 C 213.945312 69.359375 213.90625 69.378906 213.90625 69.5 C 213.90625 69.621094 214.203125 69.839844 214.304688 69.839844 C 214.703125 69.839844 217.945312 69.738281 218.945312 69.738281 C 219.945312 69.738281 221.246094 69.859375 221.644531 69.859375 Z M 221.644531 69.859375 "/>
<path style=" stroke:none;fill-rule:nonzero;fill:rgb(0%,0%,0%);fill-opacity:1;" d="M 213.5625 74.140625 L 223.34375 74.140625 L 223.34375 75.539062 L 213.5625 75.539062 Z M 213.5625 74.140625 "/>
<path style=" stroke:none;fill-rule:evenodd;fill:rgb(0%,0%,0%);fill-opacity:1;" d="M 215.703125 91.660156 C 217.125 91.660156 218.425781 91.300781 219.484375 90.699219 C 220.964844 89.839844 221.925781 88.5 221.925781 87.039062 C 221.925781 85.421875 221.183594 84.441406 219.703125 83.660156 C 218.785156 83.179688 217.566406 82.761719 216.066406 82.320312 C 215.824219 82.261719 215.785156 82.121094 215.804688 81.941406 C 215.824219 81.621094 216.40625 80.398438 216.683594 80.359375 C 217.285156 80.261719 219.085938 80.121094 220.125 80 C 220.464844 79.960938 220.683594 79.761719 220.863281 79.359375 L 221.203125 78.699219 C 221.304688 78.519531 221.183594 78.339844 220.984375 78.359375 C 219.425781 78.5 218.066406 78.738281 216.84375 79.058594 C 216.425781 79.160156 216.164062 79.378906 216.023438 79.78125 C 215.746094 80.660156 215.0625 82.238281 215.0625 82.960938 C 215.0625 83.320312 215.183594 83.578125 215.542969 83.878906 C 219.085938 84.800781 220.34375 85.78125 220.34375 87.320312 C 220.34375 89.039062 218.84375 91.039062 215.683594 91.039062 C 215.445312 91.039062 214.964844 91.21875 214.964844 91.421875 C 214.964844 91.601562 215.40625 91.660156 215.703125 91.660156 Z M 215.703125 91.660156 "/>
<path style=" stroke:none;fill-rule:evenodd;fill:rgb(0%,0%,0%);fill-opacity:1;" d="M 230.117188 82.203125 C 230.3125 82.203125 230.675781 81.867188 230.984375 81.167969 C 231.9375 79.039062 233.335938 75.316406 234.652344 72.683594 C 234.792969 72.402344 234.988281 72.265625 235.242188 72.292969 L 237.226562 72.460938 C 237.425781 72.488281 237.59375 72.601562 237.480469 72.90625 C 236.890625 74.503906 235.042969 79.152344 234.765625 80.328125 C 234.539062 81.28125 234.960938 82.230469 235.800781 82.230469 C 237.144531 82.230469 240.085938 79.570312 240.085938 78.394531 C 240.085938 78.3125 240 78.257812 239.917969 78.257812 C 239.859375 78.257812 239.832031 78.285156 239.804688 78.3125 C 238.742188 79.375 237.648438 79.992188 236.753906 79.992188 C 236.304688 79.992188 236.191406 79.601562 236.386719 78.929688 C 236.808594 77.472656 237.675781 74.53125 238.433594 72.851562 C 238.542969 72.601562 238.683594 72.542969 238.769531 72.542969 C 239.1875 72.542969 239.71875 72.601562 240.054688 72.601562 C 241.679688 72.601562 243.21875 70.890625 243.21875 69.941406 C 243.21875 69.632812 243.082031 69.492188 242.800781 69.492188 C 242.6875 69.492188 242.378906 69.96875 242.015625 70.191406 C 241.511719 70.5 240.894531 70.527344 240.140625 70.527344 C 238.292969 70.527344 235.882812 70.359375 233.671875 70.359375 C 229.835938 70.359375 228.269531 72.460938 228.269531 74.335938 C 228.269531 74.726562 228.492188 75.148438 228.6875 75.148438 C 228.914062 75.148438 229.050781 74.894531 229.082031 74.644531 C 229.277344 72.964844 230.675781 71.898438 232.886719 72.066406 L 233.617188 72.125 C 233.839844 72.152344 233.785156 72.347656 233.726562 72.488281 C 233.113281 74.054688 231.238281 77.585938 228.914062 80.832031 L 228.914062 81.390625 C 228.855469 81.671875 229.722656 82.203125 230.117188 82.203125 Z M 230.117188 82.203125 "/>
<path style=" stroke:none;fill-rule:evenodd;fill:rgb(0%,0%,0%);fill-opacity:1;" d="M 263.226562 47.640625 L 280.027344 47.640625 C 280.664062 47.640625 281.304688 46.640625 281.304688 46.078125 C 281.304688 45.839844 280.984375 45.640625 280.746094 45.640625 L 263.625 45.640625 C 262.90625 45.640625 262.664062 46.800781 262.664062 47.160156 C 262.664062 47.398438 262.945312 47.640625 263.226562 47.640625 Z M 263.226562 54.480469 L 280.027344 54.480469 C 280.664062 54.480469 281.304688 53.640625 281.304688 52.921875 C 281.304688 52.679688 280.984375 52.480469 280.746094 52.480469 L 263.625 52.480469 C 262.90625 52.480469 262.664062 53.640625 262.664062 54 C 262.664062 54.238281 262.945312 54.480469 263.226562 54.480469 Z M 263.226562 54.480469 "/>
<path style=" stroke:none;fill-rule:evenodd;fill:rgb(0%,0%,0%);fill-opacity:1;" d="M 300.839844 60.320312 C 303 60.320312 304.679688 60.121094 306.839844 60.121094 C 308.960938 60.121094 310.4375 60.320312 312.71875 60.320312 C 313.039062 60.320312 313.277344 60.121094 313.277344 59.878906 C 313.277344 59.640625 312.917969 59.441406 312.597656 59.359375 C 309.320312 58.558594 308.359375 58.359375 308.359375 56.320312 L 308.359375 37.921875 C 308.359375 36.800781 308.398438 35.878906 308.519531 35.078125 C 308.558594 34.878906 308.277344 34.71875 308.039062 34.71875 C 307.960938 34.71875 307.878906 34.71875 307.839844 34.761719 C 306.039062 36.558594 304.238281 36.878906 301.839844 37.238281 C 301.277344 37.320312 300.839844 37.601562 300.839844 37.960938 C 300.839844 38.398438 301.359375 38.601562 301.878906 38.640625 C 303.597656 38.761719 305.238281 39.039062 305.238281 40.558594 L 305.238281 55.839844 C 305.238281 58.199219 303.878906 58.558594 300.839844 59.320312 C 300.519531 59.398438 300.238281 59.640625 300.238281 59.839844 C 300.238281 60.078125 300.4375 60.320312 300.839844 60.320312 Z M 300.839844 60.320312 "/>
<path style=" stroke:none;fill-rule:evenodd;fill:rgb(0%,0%,0%);fill-opacity:1;" d="M 336.367188 60.519531 C 336.726562 60.519531 338.289062 60.398438 338.289062 59.558594 L 338.289062 51.480469 C 338.289062 51.359375 338.328125 51.320312 338.449219 51.320312 L 345.847656 51.320312 C 346.609375 51.320312 347.089844 50.398438 347.089844 49.71875 C 347.089844 49.480469 346.847656 49.320312 346.566406 49.320312 L 338.367188 49.320312 C 338.289062 49.320312 338.289062 49.28125 338.289062 49.078125 L 338.289062 41.441406 C 338.289062 41.160156 338.007812 40.921875 337.726562 40.921875 C 337.488281 40.921875 335.886719 41.28125 335.886719 42.160156 L 335.886719 49 C 335.886719 49.238281 335.847656 49.320312 335.609375 49.320312 L 328.046875 49.320312 C 327.328125 49.320312 327.089844 50.480469 327.089844 50.839844 C 327.089844 51.078125 327.367188 51.320312 327.648438 51.320312 L 335.726562 51.320312 C 335.847656 51.320312 335.886719 51.398438 335.886719 51.519531 L 335.886719 59.960938 C 335.886719 60.238281 336.128906 60.519531 336.367188 60.519531 Z M 336.367188 60.519531 "/>
<path style=" stroke:none;fill-rule:evenodd;fill:rgb(0%,0%,0%);fill-opacity:1;" d="M 425.351562 35.441406 C 427.953125 35.441406 430.152344 34 431.75 31.398438 C 431.832031 31.28125 431.832031 31.160156 431.832031 31.078125 C 431.832031 30.839844 431.671875 30.679688 431.433594 30.679688 C 431.230469 30.679688 430.992188 30.800781 430.710938 31.121094 C 429.832031 32.078125 428.550781 33.28125 426.632812 33.28125 C 425.230469 33.28125 424.511719 32.238281 424.511719 30.359375 C 424.511719 29.121094 424.953125 27.640625 425.351562 26.480469 C 425.472656 26.160156 425.632812 26.160156 425.953125 26.078125 C 430.390625 25.238281 435.070312 23.839844 435.070312 20.480469 C 435.070312 19.121094 433.992188 18.28125 432.113281 18.28125 C 426.433594 18.28125 421.671875 25.921875 421.671875 31.28125 C 421.671875 33.160156 423.632812 35.441406 425.351562 35.441406 Z M 426.230469 25.160156 C 426.03125 25.160156 425.953125 25.160156 425.953125 24.921875 C 425.953125 23.71875 429.472656 19.28125 431.671875 19.28125 C 432.351562 19.28125 432.75 19.878906 432.75 20.558594 C 432.75 23.761719 427.433594 25.160156 426.230469 25.160156 Z M 426.230469 25.160156 "/>
<path style=" stroke:none;fill-rule:evenodd;fill:rgb(0%,0%,0%);fill-opacity:1;" d="M 437.304688 11.425781 L 450.042969 11.425781 C 450.546875 11.425781 450.910156 10.695312 450.910156 10.078125 C 450.910156 9.910156 450.714844 9.742188 450.546875 9.742188 L 437.582031 9.742188 C 436.996094 9.742188 436.910156 10.835938 436.910156 11.089844 C 436.910156 11.257812 437.109375 11.425781 437.304688 11.425781 Z M 437.304688 11.425781 "/>
<path style=" stroke:none;fill-rule:evenodd;fill:rgb(0%,0%,0%);fill-opacity:1;" d="M 463.625 17.722656 C 463.820312 17.722656 464.128906 17.640625 464.238281 17.050781 C 464.519531 15.652344 465.078125 14.503906 465.078125 14.222656 C 465.078125 14.085938 465.050781 13.886719 464.882812 13.886719 C 464.574219 13.886719 464.324219 14.308594 464.183594 14.53125 C 463.484375 15.652344 463.121094 15.765625 461.523438 15.847656 C 460.515625 15.902344 459.394531 15.933594 458.332031 15.933594 C 457.296875 15.933594 456.484375 15.902344 455.867188 15.847656 C 455.644531 15.820312 455.476562 15.792969 455.476562 15.652344 C 455.476562 15.511719 460.097656 11.03125 461.355469 9.519531 C 462.53125 8.09375 463.398438 6.132812 463.398438 4.621094 C 463.398438 1.902344 461.71875 0 458.917969 0 C 455.753906 0 453.460938 2.742188 453.460938 3.613281 C 453.460938 4.117188 453.738281 4.453125 453.878906 4.453125 C 454.046875 4.453125 454.242188 4.285156 454.355469 4.058594 C 455.140625 2.714844 456.511719 1.792969 458.050781 1.792969 C 459.648438 1.792969 461.046875 2.996094 461.046875 4.984375 C 461.046875 7.449219 459.675781 9.96875 457.800781 11.898438 L 453.011719 16.855469 C 452.84375 17.023438 452.789062 17.050781 452.789062 17.21875 C 452.789062 17.386719 453.207031 17.695312 453.347656 17.695312 C 453.90625 17.695312 458.445312 17.554688 459.84375 17.554688 C 461.242188 17.554688 463.0625 17.722656 463.625 17.722656 Z M 463.625 17.722656 "/>
<path style=" stroke:none;fill-rule:evenodd;fill:rgb(0%,0%,0%);fill-opacity:1;" d="M 468.777344 18.003906 C 468.972656 18.003906 469.335938 17.667969 469.644531 16.96875 C 470.597656 14.839844 471.996094 11.117188 473.3125 8.484375 C 473.453125 8.203125 473.648438 8.0625 473.898438 8.09375 L 475.886719 8.261719 C 476.082031 8.289062 476.25 8.398438 476.140625 8.707031 C 475.550781 10.304688 473.703125 14.953125 473.421875 16.128906 C 473.199219 17.078125 473.621094 18.03125 474.460938 18.03125 C 475.804688 18.03125 478.742188 15.371094 478.742188 14.195312 C 478.742188 14.113281 478.660156 14.054688 478.574219 14.054688 C 478.519531 14.054688 478.492188 14.085938 478.464844 14.113281 C 477.398438 15.175781 476.308594 15.792969 475.410156 15.792969 C 474.964844 15.792969 474.851562 15.398438 475.046875 14.726562 C 475.46875 13.273438 476.335938 10.332031 477.089844 8.652344 C 477.203125 8.398438 477.34375 8.34375 477.429688 8.34375 C 477.847656 8.34375 478.378906 8.398438 478.714844 8.398438 C 480.339844 8.398438 481.878906 6.691406 481.878906 5.738281 C 481.878906 5.433594 481.738281 5.292969 481.460938 5.292969 C 481.347656 5.292969 481.039062 5.769531 480.675781 5.992188 C 480.171875 6.300781 479.554688 6.328125 478.800781 6.328125 C 476.953125 6.328125 474.542969 6.160156 472.332031 6.160156 C 468.496094 6.160156 466.929688 8.261719 466.929688 10.136719 C 466.929688 10.527344 467.152344 10.949219 467.347656 10.949219 C 467.570312 10.949219 467.710938 10.695312 467.738281 10.445312 C 467.9375 8.765625 469.335938 7.699219 471.546875 7.867188 L 472.277344 7.925781 C 472.5 7.953125 472.445312 8.148438 472.386719 8.289062 C 471.773438 9.855469 469.894531 13.382812 467.570312 16.632812 L 467.570312 17.191406 C 467.515625 17.472656 468.382812 18.003906 468.777344 18.003906 Z M 468.777344 18.003906 "/>
<path style=" stroke:none;fill-rule:nonzero;fill:rgb(0%,0%,0%);fill-opacity:1;" d="M 361.976562 49.199219 L 540.367188 49.199219 L 540.367188 51.199219 L 361.976562 51.199219 Z M 361.976562 49.199219 "/>
<path style=" stroke:none;fill-rule:evenodd;fill:rgb(0%,0%,0%);fill-opacity:1;" d="M 366.175781 95.761719 C 368.335938 95.761719 370.015625 95.558594 372.175781 95.558594 C 374.296875 95.558594 375.777344 95.761719 378.058594 95.761719 C 378.375 95.761719 378.617188 95.558594 378.617188 95.320312 C 378.617188 95.078125 378.257812 94.878906 377.9375 94.800781 C 374.65625 94 373.695312 93.800781 373.695312 91.761719 L 373.695312 73.359375 C 373.695312 72.238281 373.738281 71.320312 373.855469 70.519531 C 373.898438 70.320312 373.617188 70.160156 373.375 70.160156 C 373.296875 70.160156 373.21875 70.160156 373.175781 70.199219 C 371.375 72 369.578125 72.320312 367.175781 72.679688 C 366.617188 72.761719 366.175781 73.039062 366.175781 73.398438 C 366.175781 73.839844 366.695312 74.039062 367.21875 74.078125 C 368.9375 74.199219 370.578125 74.480469 370.578125 76 L 370.578125 91.28125 C 370.578125 93.640625 369.21875 94 366.175781 94.761719 C 365.855469 94.839844 365.578125 95.078125 365.578125 95.28125 C 365.578125 95.519531 365.777344 95.761719 366.175781 95.761719 Z M 366.175781 95.761719 "/>
<path style=" stroke:none;fill-rule:evenodd;fill:rgb(0%,0%,0%);fill-opacity:1;" d="M 401.707031 95.960938 C 402.066406 95.960938 403.625 95.839844 403.625 95 L 403.625 86.921875 C 403.625 86.800781 403.664062 86.761719 403.785156 86.761719 L 411.1875 86.761719 C 411.945312 86.761719 412.425781 85.839844 412.425781 85.160156 C 412.425781 84.921875 412.1875 84.761719 411.90625 84.761719 L 403.707031 84.761719 C 403.625 84.761719 403.625 84.71875 403.625 84.519531 L 403.625 76.878906 C 403.625 76.601562 403.347656 76.359375 403.066406 76.359375 C 402.824219 76.359375 401.226562 76.71875 401.226562 77.601562 L 401.226562 84.441406 C 401.226562 84.679688 401.1875 84.761719 400.945312 84.761719 L 393.386719 84.761719 C 392.664062 84.761719 392.425781 85.921875 392.425781 86.28125 C 392.425781 86.519531 392.707031 86.761719 392.984375 86.761719 L 401.066406 86.761719 C 401.1875 86.761719 401.226562 86.839844 401.226562 86.960938 L 401.226562 95.398438 C 401.226562 95.679688 401.464844 95.960938 401.707031 95.960938 Z M 401.707031 95.960938 "/>
<path style=" stroke:none;fill-rule:evenodd;fill:rgb(0%,0%,0%);fill-opacity:1;" d="M 463.433594 78.859375 C 465.253906 78.859375 466.792969 77.851562 467.914062 76.03125 C 467.96875 75.949219 467.96875 75.863281 467.96875 75.808594 C 467.96875 75.640625 467.859375 75.527344 467.691406 75.527344 C 467.550781 75.527344 467.382812 75.613281 467.1875 75.835938 C 466.570312 76.507812 465.675781 77.347656 464.332031 77.347656 C 463.351562 77.347656 462.847656 76.621094 462.847656 75.304688 C 462.847656 74.4375 463.15625 73.398438 463.433594 72.589844 C 463.519531 72.363281 463.628906 72.363281 463.855469 72.308594 C 466.960938 71.71875 470.238281 70.738281 470.238281 68.386719 C 470.238281 67.4375 469.484375 66.847656 468.167969 66.847656 C 464.191406 66.847656 460.859375 72.195312 460.859375 75.949219 C 460.859375 77.265625 462.230469 78.859375 463.433594 78.859375 Z M 464.050781 71.664062 C 463.910156 71.664062 463.855469 71.664062 463.855469 71.496094 C 463.855469 70.65625 466.320312 67.546875 467.859375 67.546875 C 468.335938 67.546875 468.613281 67.96875 468.613281 68.445312 C 468.613281 70.683594 464.890625 71.664062 464.050781 71.664062 Z M 464.050781 71.664062 "/>
<path style=" stroke:none;fill-rule:evenodd;fill:rgb(0%,0%,0%);fill-opacity:1;" d="M 471.828125 65.601562 L 480.925781 65.601562 C 481.285156 65.601562 481.546875 65.078125 481.546875 64.640625 C 481.546875 64.519531 481.40625 64.398438 481.285156 64.398438 L 472.027344 64.398438 C 471.605469 64.398438 471.546875 65.179688 471.546875 65.359375 C 471.546875 65.480469 471.6875 65.601562 471.828125 65.601562 Z M 471.828125 65.601562 "/>
<path style=" stroke:none;fill-rule:evenodd;fill:rgb(0%,0%,0%);fill-opacity:1;" d="M 486.566406 70.101562 C 487.648438 70.101562 487.847656 70 488.867188 70 C 489.808594 70 489.988281 70.101562 491.125 70.101562 C 491.285156 70.101562 491.425781 70 491.425781 69.878906 C 491.425781 69.761719 491.226562 69.640625 491.066406 69.601562 C 489.988281 69.320312 489.726562 69.140625 489.726562 68.359375 L 489.726562 66.480469 C 489.726562 66.460938 489.886719 66.378906 489.988281 66.359375 C 490.148438 66.339844 490.367188 66.320312 490.605469 66.320312 C 490.925781 66.320312 491.285156 66.339844 491.585938 66.339844 C 491.667969 66.339844 492.007812 65.898438 492.007812 65.578125 C 492.007812 65.5 491.90625 65.421875 491.785156 65.421875 C 491.347656 65.441406 490.988281 65.460938 490.605469 65.460938 C 490.367188 65.460938 490.105469 65.460938 489.808594 65.441406 C 489.746094 65.441406 489.707031 65.378906 489.707031 65.320312 L 489.707031 62.738281 C 489.707031 61.898438 489.707031 61.460938 489.40625 61.460938 C 489.226562 61.460938 488.6875 61.5 488.285156 61.71875 C 488.125 61.800781 488.105469 61.878906 488.105469 62.160156 L 488.105469 65.261719 C 488.105469 65.339844 487.964844 65.421875 487.867188 65.421875 L 484.40625 65.421875 C 484.328125 65.421875 484.367188 65.300781 484.40625 65.238281 L 489.808594 57.480469 C 489.808594 57.480469 489.964844 57.199219 489.847656 57.199219 L 489.425781 57.199219 C 489.226562 57.199219 488.988281 57.519531 488.828125 57.761719 L 483.546875 65.339844 C 483.285156 65.699219 483.265625 65.660156 482.765625 66.28125 C 482.746094 66.300781 482.746094 66.320312 482.746094 66.339844 C 482.746094 66.421875 482.847656 66.539062 482.945312 66.539062 C 485.046875 66.519531 486.167969 66.398438 487.808594 66.398438 C 487.828125 66.398438 488.105469 66.460938 488.105469 66.578125 L 488.105469 68.441406 C 488.105469 69.078125 487.808594 69.441406 486.566406 69.601562 C 486.40625 69.621094 486.207031 69.699219 486.207031 69.839844 C 486.207031 70.019531 486.425781 70.101562 486.566406 70.101562 Z M 486.566406 70.101562 "/>
<path style=" stroke:none;fill-rule:evenodd;fill:rgb(0%,0%,0%);fill-opacity:1;" d="M 494.308594 70.300781 C 494.445312 70.300781 494.707031 70.058594 494.925781 69.558594 C 495.605469 68.039062 496.605469 65.378906 497.546875 63.5 C 497.648438 63.300781 497.785156 63.199219 497.964844 63.21875 L 499.386719 63.339844 C 499.527344 63.359375 499.648438 63.441406 499.566406 63.660156 C 499.148438 64.800781 497.828125 68.121094 497.625 68.960938 C 497.464844 69.640625 497.765625 70.320312 498.367188 70.320312 C 499.328125 70.320312 501.425781 68.421875 501.425781 67.578125 C 501.425781 67.519531 501.367188 67.480469 501.308594 67.480469 C 501.265625 67.480469 501.246094 67.5 501.226562 67.519531 C 500.464844 68.28125 499.6875 68.71875 499.046875 68.71875 C 498.726562 68.71875 498.648438 68.441406 498.785156 67.960938 C 499.085938 66.921875 499.707031 64.820312 500.246094 63.621094 C 500.328125 63.441406 500.425781 63.398438 500.488281 63.398438 C 500.785156 63.398438 501.167969 63.441406 501.40625 63.441406 C 502.566406 63.441406 503.667969 62.21875 503.667969 61.539062 C 503.667969 61.320312 503.566406 61.21875 503.367188 61.21875 C 503.285156 61.21875 503.066406 61.558594 502.808594 61.71875 C 502.445312 61.941406 502.007812 61.960938 501.464844 61.960938 C 500.148438 61.960938 498.425781 61.839844 496.847656 61.839844 C 494.105469 61.839844 492.988281 63.339844 492.988281 64.679688 C 492.988281 64.960938 493.148438 65.261719 493.285156 65.261719 C 493.445312 65.261719 493.546875 65.078125 493.566406 64.898438 C 493.707031 63.699219 494.707031 62.941406 496.285156 63.058594 L 496.808594 63.101562 C 496.964844 63.121094 496.925781 63.261719 496.886719 63.359375 C 496.445312 64.480469 495.105469 67 493.445312 69.320312 L 493.445312 69.71875 C 493.40625 69.921875 494.027344 70.300781 494.308594 70.300781 Z M 494.308594 70.300781 "/>
<path style=" stroke:none;fill-rule:nonzero;fill:rgb(0%,0%,0%);fill-opacity:1;" d="M 427.316406 84.640625 L 536.367188 84.640625 L 536.367188 86.640625 L 427.316406 86.640625 Z M 427.316406 84.640625 "/>
<path style=" stroke:none;fill-rule:evenodd;fill:rgb(0%,0%,0%);fill-opacity:1;" d="M 430.253906 121.644531 C 431.765625 121.644531 432.941406 121.503906 434.453125 121.503906 C 435.9375 121.503906 436.976562 121.644531 438.570312 121.644531 C 438.792969 121.644531 438.960938 121.503906 438.960938 121.335938 C 438.960938 121.167969 438.710938 121.027344 438.488281 120.972656 C 436.191406 120.410156 435.519531 120.273438 435.519531 118.84375 L 435.519531 105.964844 C 435.519531 105.179688 435.546875 104.535156 435.628906 103.976562 C 435.660156 103.835938 435.460938 103.722656 435.292969 103.722656 C 435.238281 103.722656 435.183594 103.722656 435.15625 103.753906 C 433.894531 105.011719 432.632812 105.234375 430.953125 105.488281 C 430.5625 105.542969 430.253906 105.738281 430.253906 105.992188 C 430.253906 106.300781 430.617188 106.441406 430.984375 106.46875 C 432.1875 106.550781 433.335938 106.746094 433.335938 107.8125 L 433.335938 118.507812 C 433.335938 120.160156 432.382812 120.410156 430.253906 120.945312 C 430.03125 121 429.835938 121.167969 429.835938 121.308594 C 429.835938 121.476562 429.976562 121.644531 430.253906 121.644531 Z M 430.253906 121.644531 "/>
<path style=" stroke:none;fill-rule:evenodd;fill:rgb(0%,0%,0%);fill-opacity:1;" d="M 448.902344 121.785156 C 449.15625 121.785156 450.246094 121.699219 450.246094 121.113281 L 450.246094 115.457031 C 450.246094 115.371094 450.273438 115.34375 450.359375 115.34375 L 455.539062 115.34375 C 456.070312 115.34375 456.40625 114.699219 456.40625 114.222656 C 456.40625 114.054688 456.238281 113.945312 456.042969 113.945312 L 450.300781 113.945312 C 450.246094 113.945312 450.246094 113.914062 450.246094 113.777344 L 450.246094 108.429688 C 450.246094 108.230469 450.050781 108.0625 449.855469 108.0625 C 449.6875 108.0625 448.566406 108.316406 448.566406 108.933594 L 448.566406 113.71875 C 448.566406 113.886719 448.539062 113.945312 448.371094 113.945312 L 443.078125 113.945312 C 442.574219 113.945312 442.40625 114.757812 442.40625 115.007812 C 442.40625 115.175781 442.601562 115.34375 442.796875 115.34375 L 448.453125 115.34375 C 448.539062 115.34375 448.566406 115.398438 448.566406 115.484375 L 448.566406 121.390625 C 448.566406 121.589844 448.734375 121.785156 448.902344 121.785156 Z M 448.902344 121.785156 "/>
<path style=" stroke:none;fill-rule:evenodd;fill:rgb(0%,0%,0%);fill-opacity:1;" d="M 479.195312 109.820312 C 480.496094 109.820312 481.597656 109.101562 482.398438 107.800781 C 482.4375 107.738281 482.4375 107.679688 482.4375 107.640625 C 482.4375 107.519531 482.355469 107.441406 482.238281 107.441406 C 482.136719 107.441406 482.015625 107.5 481.875 107.660156 C 481.4375 108.140625 480.796875 108.738281 479.835938 108.738281 C 479.136719 108.738281 478.777344 108.21875 478.777344 107.28125 C 478.777344 106.660156 478.996094 105.921875 479.195312 105.339844 C 479.257812 105.179688 479.335938 105.179688 479.496094 105.140625 C 481.714844 104.71875 484.058594 104.019531 484.058594 102.339844 C 484.058594 101.660156 483.515625 101.238281 482.578125 101.238281 C 479.738281 101.238281 477.355469 105.058594 477.355469 107.738281 C 477.355469 108.679688 478.335938 109.820312 479.195312 109.820312 Z M 479.636719 104.679688 C 479.535156 104.679688 479.496094 104.679688 479.496094 104.558594 C 479.496094 103.960938 481.257812 101.738281 482.355469 101.738281 C 482.695312 101.738281 482.898438 102.039062 482.898438 102.378906 C 482.898438 103.980469 480.238281 104.679688 479.636719 104.679688 Z M 479.636719 104.679688 "/>
<path style=" stroke:none;fill-rule:evenodd;fill:rgb(0%,0%,0%);fill-opacity:1;" d="M 485.558594 99.078125 L 494.65625 99.078125 C 495.015625 99.078125 495.277344 98.558594 495.277344 98.121094 C 495.277344 98 495.136719 97.878906 495.015625 97.878906 L 485.757812 97.878906 C 485.335938 97.878906 485.277344 98.660156 485.277344 98.839844 C 485.277344 98.960938 485.417969 99.078125 485.558594 99.078125 Z M 485.558594 99.078125 "/>
<path style=" stroke:none;fill-rule:evenodd;fill:rgb(0%,0%,0%);fill-opacity:1;" d="M 501.195312 103.839844 C 503.136719 103.839844 505.296875 102.21875 505.296875 99.71875 C 505.296875 98.28125 504.058594 97.261719 502.675781 97.261719 C 501.9375 97.261719 501.015625 97.699219 500.714844 97.921875 C 500.496094 98.078125 500.375 98.179688 500.175781 98.398438 C 500.035156 98.558594 500.078125 98.738281 500.316406 98.621094 C 500.777344 98.378906 501.214844 98.320312 501.917969 98.320312 C 502.976562 98.320312 503.738281 99.460938 503.738281 100.679688 C 503.738281 102.339844 502.757812 103.101562 501.675781 103.078125 C 500.355469 103.058594 498.855469 101.839844 498.816406 99.621094 C 498.816406 97.539062 499.996094 95.359375 500.65625 94.398438 C 501.675781 92.941406 502.898438 92.019531 504.695312 91.238281 C 504.835938 91.179688 505.097656 91.078125 505.214844 90.839844 C 505.257812 90.761719 505.097656 90.640625 504.855469 90.699219 C 502.398438 91.359375 500.515625 92.960938 499.515625 93.980469 C 498.757812 94.738281 497.097656 96.679688 497.097656 99.660156 C 497.097656 102.460938 499.136719 103.839844 501.195312 103.839844 Z M 501.195312 103.839844 "/>
<path style=" stroke:none;fill-rule:evenodd;fill:rgb(0%,0%,0%);fill-opacity:1;" d="M 508.035156 103.78125 C 508.175781 103.78125 508.4375 103.539062 508.65625 103.039062 C 509.335938 101.519531 510.335938 98.859375 511.277344 96.980469 C 511.375 96.78125 511.515625 96.679688 511.695312 96.699219 L 513.117188 96.820312 C 513.257812 96.839844 513.375 96.921875 513.296875 97.140625 C 512.875 98.28125 511.558594 101.601562 511.355469 102.441406 C 511.195312 103.121094 511.496094 103.800781 512.097656 103.800781 C 513.058594 103.800781 515.15625 101.898438 515.15625 101.058594 C 515.15625 101 515.097656 100.960938 515.035156 100.960938 C 514.996094 100.960938 514.976562 100.980469 514.957031 101 C 514.195312 101.761719 513.417969 102.199219 512.777344 102.199219 C 512.457031 102.199219 512.375 101.921875 512.515625 101.441406 C 512.816406 100.398438 513.4375 98.300781 513.976562 97.101562 C 514.058594 96.921875 514.15625 96.878906 514.214844 96.878906 C 514.515625 96.878906 514.898438 96.921875 515.136719 96.921875 C 516.296875 96.921875 517.398438 95.699219 517.398438 95.019531 C 517.398438 94.800781 517.296875 94.699219 517.097656 94.699219 C 517.015625 94.699219 516.796875 95.039062 516.535156 95.199219 C 516.175781 95.421875 515.738281 95.441406 515.195312 95.441406 C 513.875 95.441406 512.15625 95.320312 510.578125 95.320312 C 507.835938 95.320312 506.714844 96.820312 506.714844 98.160156 C 506.714844 98.441406 506.875 98.738281 507.015625 98.738281 C 507.175781 98.738281 507.277344 98.558594 507.296875 98.378906 C 507.4375 97.179688 508.4375 96.421875 510.015625 96.539062 L 510.535156 96.578125 C 510.695312 96.601562 510.65625 96.738281 510.617188 96.839844 C 510.175781 97.960938 508.835938 100.480469 507.175781 102.800781 L 507.175781 103.199219 C 507.136719 103.398438 507.757812 103.78125 508.035156 103.78125 Z M 508.035156 103.78125 "/>
<path style=" stroke:none;fill-rule:nonzero;fill:rgb(0%,0%,0%);fill-opacity:1;" d="M 461.808594 113.859375 L 532.367188 113.859375 L 532.367188 115.257812 L 461.808594 115.257812 Z M 461.808594 113.859375 "/>
<path style=" stroke:none;fill-rule:evenodd;fill:rgb(0%,0%,0%);fill-opacity:1;" d="M 463.90625 145.320312 C 464.988281 145.320312 465.828125 145.21875 466.90625 145.21875 C 467.964844 145.21875 468.707031 145.320312 469.847656 145.320312 C 470.007812 145.320312 470.125 145.21875 470.125 145.101562 C 470.125 144.980469 469.945312 144.878906 469.785156 144.839844 C 468.148438 144.441406 467.667969 144.339844 467.667969 143.320312 L 467.667969 134.121094 C 467.667969 133.558594 467.6875 133.101562 467.746094 132.699219 C 467.765625 132.601562 467.625 132.519531 467.507812 132.519531 C 467.464844 132.519531 467.425781 132.519531 467.40625 132.539062 C 466.507812 133.441406 465.605469 133.601562 464.40625 133.78125 C 464.125 133.820312 463.90625 133.960938 463.90625 134.140625 C 463.90625 134.359375 464.167969 134.460938 464.425781 134.480469 C 465.285156 134.539062 466.105469 134.679688 466.105469 135.441406 L 466.105469 143.078125 C 466.105469 144.261719 465.425781 144.441406 463.90625 144.820312 C 463.746094 144.859375 463.605469 144.980469 463.605469 145.078125 C 463.605469 145.199219 463.707031 145.320312 463.90625 145.320312 Z M 463.90625 145.320312 "/>
<path style=" stroke:none;fill-rule:evenodd;fill:rgb(0%,0%,0%);fill-opacity:1;" d="M 477.226562 145.421875 C 477.40625 145.421875 478.1875 145.359375 478.1875 144.941406 L 478.1875 140.898438 C 478.1875 140.839844 478.207031 140.820312 478.265625 140.820312 L 481.964844 140.820312 C 482.347656 140.820312 482.585938 140.359375 482.585938 140.019531 C 482.585938 139.898438 482.464844 139.820312 482.328125 139.820312 L 478.226562 139.820312 C 478.1875 139.820312 478.1875 139.800781 478.1875 139.699219 L 478.1875 135.878906 C 478.1875 135.738281 478.046875 135.621094 477.90625 135.621094 C 477.785156 135.621094 476.988281 135.800781 476.988281 136.238281 L 476.988281 139.660156 C 476.988281 139.78125 476.964844 139.820312 476.847656 139.820312 L 473.066406 139.820312 C 472.707031 139.820312 472.585938 140.398438 472.585938 140.578125 C 472.585938 140.699219 472.726562 140.820312 472.867188 140.820312 L 476.90625 140.820312 C 476.964844 140.820312 476.988281 140.859375 476.988281 140.921875 L 476.988281 145.140625 C 476.988281 145.28125 477.105469 145.421875 477.226562 145.421875 Z M 477.226562 145.421875 "/>
<path style=" stroke:none;fill-rule:evenodd;fill:rgb(0%,0%,0%);fill-opacity:1;" d="M 490.085938 136.960938 C 491.386719 136.960938 492.488281 136.238281 493.285156 134.941406 C 493.328125 134.878906 493.328125 134.820312 493.328125 134.78125 C 493.328125 134.660156 493.246094 134.578125 493.125 134.578125 C 493.027344 134.578125 492.90625 134.640625 492.765625 134.800781 C 492.328125 135.28125 491.6875 135.878906 490.726562 135.878906 C 490.027344 135.878906 489.667969 135.359375 489.667969 134.421875 C 489.667969 133.800781 489.886719 133.058594 490.085938 132.480469 C 490.148438 132.320312 490.226562 132.320312 490.386719 132.28125 C 492.605469 131.859375 494.945312 131.160156 494.945312 129.480469 C 494.945312 128.800781 494.40625 128.378906 493.464844 128.378906 C 490.625 128.378906 488.246094 132.199219 488.246094 134.878906 C 488.246094 135.820312 489.226562 136.960938 490.085938 136.960938 Z M 490.527344 131.820312 C 490.425781 131.820312 490.386719 131.820312 490.386719 131.699219 C 490.386719 131.101562 492.148438 128.878906 493.246094 128.878906 C 493.585938 128.878906 493.785156 129.179688 493.785156 129.519531 C 493.785156 131.121094 491.125 131.820312 490.527344 131.820312 Z M 490.527344 131.820312 "/>
<path style=" stroke:none;fill-rule:evenodd;fill:rgb(0%,0%,0%);fill-opacity:1;" d="M 496.445312 126.21875 L 505.546875 126.21875 C 505.90625 126.21875 506.167969 125.699219 506.167969 125.261719 C 506.167969 125.140625 506.027344 125.019531 505.90625 125.019531 L 496.648438 125.019531 C 496.226562 125.019531 496.167969 125.800781 496.167969 125.980469 C 496.167969 126.101562 496.308594 126.21875 496.445312 126.21875 Z M 496.445312 126.21875 "/>
<path style=" stroke:none;fill-rule:evenodd;fill:rgb(0%,0%,0%);fill-opacity:1;" d="M 511.867188 130.941406 C 513.828125 130.941406 515.808594 129.460938 515.808594 127.378906 C 515.808594 125.839844 514.726562 124.960938 513.226562 123.921875 C 513.007812 123.78125 512.988281 123.738281 513.328125 123.5 C 513.785156 123.160156 514.007812 122.980469 514.386719 122.660156 C 514.847656 122.261719 515.445312 121.699219 515.445312 120.738281 C 515.445312 119.121094 513.867188 118.058594 512.265625 118.058594 C 510.488281 118.058594 508.625 119.320312 508.625 120.878906 C 508.625 122.578125 509.746094 123.339844 510.945312 124.359375 C 511.105469 124.5 511.1875 124.519531 511.007812 124.621094 C 509.988281 125.179688 508.328125 126.078125 508.328125 127.839844 C 508.328125 129.679688 510.027344 130.941406 511.867188 130.941406 Z M 512.785156 123.5 C 512.707031 123.558594 512.585938 123.5 512.507812 123.441406 C 511.105469 122.300781 510.167969 122.019531 510.167969 120.480469 C 510.167969 119.398438 511.246094 118.539062 512.167969 118.539062 C 513.328125 118.539062 513.90625 119.480469 513.90625 120.601562 C 513.90625 121.820312 513.707031 122.738281 512.785156 123.5 Z M 512.148438 130.359375 C 510.746094 130.359375 509.925781 128.921875 509.925781 127.519531 C 509.925781 126.238281 510.347656 125.679688 511.207031 124.980469 C 511.308594 124.898438 511.386719 124.859375 511.445312 124.859375 C 511.566406 124.859375 511.6875 124.941406 511.847656 125.058594 C 513.007812 125.859375 514.207031 126.941406 514.207031 128.179688 C 514.207031 129.359375 513.328125 130.359375 512.148438 130.359375 Z M 512.148438 130.359375 "/>
<path style=" stroke:none;fill-rule:evenodd;fill:rgb(0%,0%,0%);fill-opacity:1;" d="M 518.925781 130.921875 C 519.066406 130.921875 519.328125 130.679688 519.546875 130.179688 C 520.226562 128.660156 521.226562 126 522.167969 124.121094 C 522.265625 123.921875 522.40625 123.820312 522.585938 123.839844 L 524.007812 123.960938 C 524.148438 123.980469 524.265625 124.058594 524.1875 124.28125 C 523.765625 125.421875 522.445312 128.738281 522.246094 129.578125 C 522.085938 130.261719 522.386719 130.941406 522.988281 130.941406 C 523.945312 130.941406 526.046875 129.039062 526.046875 128.199219 C 526.046875 128.140625 525.988281 128.101562 525.925781 128.101562 C 525.886719 128.101562 525.867188 128.121094 525.847656 128.140625 C 525.085938 128.898438 524.308594 129.339844 523.667969 129.339844 C 523.347656 129.339844 523.265625 129.058594 523.40625 128.578125 C 523.707031 127.539062 524.328125 125.441406 524.867188 124.238281 C 524.945312 124.058594 525.046875 124.019531 525.105469 124.019531 C 525.40625 124.019531 525.785156 124.058594 526.027344 124.058594 C 527.1875 124.058594 528.285156 122.839844 528.285156 122.160156 C 528.285156 121.941406 528.1875 121.839844 527.988281 121.839844 C 527.90625 121.839844 527.6875 122.179688 527.425781 122.339844 C 527.066406 122.558594 526.625 122.578125 526.085938 122.578125 C 524.765625 122.578125 523.046875 122.460938 521.464844 122.460938 C 518.726562 122.460938 517.605469 123.960938 517.605469 125.300781 C 517.605469 125.578125 517.765625 125.878906 517.90625 125.878906 C 518.066406 125.878906 518.167969 125.699219 518.1875 125.519531 C 518.328125 124.320312 519.328125 123.558594 520.90625 123.679688 L 521.425781 123.71875 C 521.585938 123.738281 521.546875 123.878906 521.507812 123.980469 C 521.066406 125.101562 519.726562 127.621094 518.066406 129.941406 L 518.066406 130.339844 C 518.027344 130.539062 518.648438 130.921875 518.925781 130.921875 Z M 518.925781 130.921875 "/>
<path style=" stroke:none;fill-rule:nonzero;fill:rgb(0%,0%,0%);fill-opacity:1;" d="M 487.585938 139.761719 L 528.367188 139.761719 L 528.367188 140.761719 L 487.585938 140.761719 Z M 487.585938 139.761719 "/>
<path style=" stroke:none;fill-rule:evenodd;fill:rgb(0%,0%,0%);fill-opacity:1;" d="M 492.886719 155.558594 C 493.964844 155.558594 494.808594 155.460938 495.886719 155.460938 C 496.945312 155.460938 497.6875 155.558594 498.828125 155.558594 C 498.988281 155.558594 499.105469 155.460938 499.105469 155.339844 C 499.105469 155.21875 498.925781 155.121094 498.765625 155.078125 C 497.125 154.679688 496.648438 154.578125 496.648438 153.558594 L 496.648438 144.359375 C 496.648438 143.800781 496.667969 143.339844 496.726562 142.941406 C 496.746094 142.839844 496.605469 142.761719 496.488281 142.761719 C 496.445312 142.761719 496.40625 142.761719 496.386719 142.78125 C 495.488281 143.679688 494.585938 143.839844 493.386719 144.019531 C 493.105469 144.058594 492.886719 144.199219 492.886719 144.378906 C 492.886719 144.601562 493.148438 144.699219 493.40625 144.71875 C 494.265625 144.78125 495.085938 144.921875 495.085938 145.679688 L 495.085938 153.320312 C 495.085938 154.5 494.40625 154.679688 492.886719 155.058594 C 492.726562 155.101562 492.585938 155.21875 492.585938 155.320312 C 492.585938 155.441406 492.6875 155.558594 492.886719 155.558594 Z M 492.886719 155.558594 "/>
<path style=" stroke:none;fill-rule:evenodd;fill:rgb(0%,0%,0%);fill-opacity:1;" d="M 506.207031 155.660156 C 506.386719 155.660156 507.167969 155.601562 507.167969 155.179688 L 507.167969 151.140625 C 507.167969 151.078125 507.1875 151.058594 507.246094 151.058594 L 510.945312 151.058594 C 511.328125 151.058594 511.566406 150.601562 511.566406 150.261719 C 511.566406 150.140625 511.445312 150.058594 511.308594 150.058594 L 507.207031 150.058594 C 507.167969 150.058594 507.167969 150.039062 507.167969 149.941406 L 507.167969 146.121094 C 507.167969 145.980469 507.027344 145.859375 506.886719 145.859375 C 506.765625 145.859375 505.964844 146.039062 505.964844 146.480469 L 505.964844 149.898438 C 505.964844 150.019531 505.945312 150.058594 505.828125 150.058594 L 502.046875 150.058594 C 501.6875 150.058594 501.566406 150.640625 501.566406 150.820312 C 501.566406 150.941406 501.707031 151.058594 501.847656 151.058594 L 505.886719 151.058594 C 505.945312 151.058594 505.964844 151.101562 505.964844 151.160156 L 505.964844 155.378906 C 505.964844 155.519531 506.085938 155.660156 506.207031 155.660156 Z M 506.207031 155.660156 "/>
<path style=" stroke:none;fill-rule:evenodd;fill:rgb(0%,0%,0%);fill-opacity:1;" d="M 523.066406 152.5 C 523.667969 152.5 524.167969 152 524.167969 151.398438 C 524.167969 150.800781 523.667969 150.300781 523.066406 150.300781 C 522.464844 150.300781 521.964844 150.800781 521.964844 151.398438 C 521.964844 152 522.464844 152.5 523.066406 152.5 Z M 518.847656 152.5 C 519.445312 152.5 519.945312 152 519.945312 151.398438 C 519.945312 150.800781 519.445312 150.300781 518.847656 150.300781 C 518.246094 150.300781 517.746094 150.800781 517.746094 151.398438 C 517.746094 152 518.246094 152.5 518.847656 152.5 Z M 514.667969 152.5 C 515.265625 152.5 515.765625 152 515.765625 151.398438 C 515.765625 150.800781 515.265625 150.300781 514.667969 150.300781 C 514.066406 150.300781 513.566406 150.800781 513.566406 151.398438 C 513.566406 152 514.066406 152.5 514.667969 152.5 Z M 514.667969 152.5 "/>
</g>
</svg>
