<?xml version="1.0" encoding="UTF-8"?>
<svg xmlns="http://www.w3.org/2000/svg" xmlns:xlink="http://www.w3.org/1999/xlink" width="194.730852pt" height="40.126402pt" viewBox="0 0 194.730852 40.126402" version="1.1">
<g id="surface1">
<path style=" stroke:none;fill-rule:evenodd;fill:rgb(0%,0%,0%);fill-opacity:1;" d="M -0.222656 27.792969 C 0.671875 27.792969 2.433594 26.625 2.878906 24.910156 C 3.503906 22.496094 4.207031 20.03125 4.960938 17.617188 C 5.007812 17.425781 5.136719 17.359375 5.359375 17.359375 L 6.816406 17.34375 C 7.105469 17.34375 7.28125 17.023438 7.28125 16.878906 C 7.28125 16.753906 7.230469 16.703125 7.167969 16.703125 C 6.625 16.703125 6.046875 16.753906 5.40625 16.753906 C 5.3125 16.753906 5.246094 16.71875 5.246094 16.609375 C 5.246094 16.496094 5.28125 16.449219 5.328125 16.289062 C 5.457031 15.871094 5.535156 15.519531 5.664062 15.105469 C 6.304688 13.007812 6.65625 12.511719 7.566406 12.511719 C 8.03125 12.511719 8.320312 12.734375 8.511719 13.167969 C 8.671875 13.519531 8.785156 13.792969 8.945312 13.792969 C 9.230469 13.792969 9.601562 13.519531 9.601562 12.976562 C 9.601562 12.320312 9.039062 11.855469 8.097656 11.855469 C 6.976562 11.855469 5.199219 12.910156 4.433594 15.953125 L 4.304688 16.464844 C 4.257812 16.65625 4.144531 16.769531 4 16.785156 L 2.878906 16.847656 C 2.71875 16.863281 2.574219 17.089844 2.574219 17.265625 C 2.574219 17.375 2.640625 17.457031 2.785156 17.457031 L 3.777344 17.441406 C 4 17.441406 4.0625 17.519531 4 17.726562 L 1.855469 24.992188 C 1.328125 26.753906 1.023438 27.152344 0.414062 27.152344 C 0.03125 27.152344 -0.222656 26.976562 -0.414062 26.769531 C -0.625 26.542969 -0.769531 26.320312 -0.929688 26.320312 C -1.136719 26.320312 -1.550781 26.671875 -1.550781 26.992188 C -1.550781 27.519531 -1.023438 27.792969 -0.222656 27.792969 Z M -0.222656 27.792969 "/>
<path style=" stroke:none;fill-rule:evenodd;fill:rgb(0%,0%,0%);fill-opacity:1;" d="M 12.558594 17.886719 C 12.703125 17.886719 12.859375 17.796875 12.859375 17.640625 C 12.859375 17.621094 12.703125 17.441406 12.691406 17.417969 C 12.007812 16.621094 11.28125 14.238281 11.28125 12.332031 C 11.28125 10.429688 12.042969 8.78125 12.726562 7.988281 C 12.75 7.964844 12.871094 7.785156 12.871094 7.761719 C 12.871094 7.664062 12.703125 7.585938 12.625 7.585938 C 12.511719 7.585938 12.390625 7.652344 12.324219 7.71875 C 11.527344 8.511719 10.351562 10.5625 10.351562 12.46875 C 10.351562 14.371094 11.574219 17.003906 12.367188 17.796875 C 12.425781 17.855469 12.492188 17.886719 12.558594 17.886719 Z M 12.558594 17.886719 "/>
<path style=" stroke:none;fill-rule:evenodd;fill:rgb(0%,0%,0%);fill-opacity:1;" d="M 14.046875 15.714844 C 14.171875 15.714844 14.261719 15.613281 14.394531 15.367188 C 15.125 14.101562 16.054688 12.667969 16.398438 12.242188 C 16.894531 11.636719 17.285156 11.359375 17.53125 11.371094 C 17.742188 11.378906 17.855469 11.59375 17.621094 12.210938 C 17.230469 13.207031 16.78125 14.203125 16.34375 15.199219 C 16.230469 15.445312 16.488281 15.691406 16.691406 15.691406 C 17.398438 15.691406 18.125 15.167969 18.707031 14.460938 C 18.730469 14.425781 18.753906 14.359375 18.753906 14.304688 C 18.753906 14.246094 18.707031 14.203125 18.664062 14.203125 C 18.652344 14.203125 18.640625 14.203125 18.628906 14.214844 C 18.515625 14.328125 17.710938 14.976562 17.351562 14.976562 C 17.21875 14.976562 17.171875 14.863281 17.296875 14.574219 L 18.328125 12.132812 C 18.628906 11.425781 18.269531 10.898438 17.800781 10.898438 C 17.117188 10.898438 16.097656 11.761719 15.179688 13.328125 C 15.132812 13.40625 15.035156 13.398438 15.078125 13.285156 L 15.816406 11.378906 C 15.917969 11.113281 15.683594 10.898438 15.449219 10.898438 C 14.945312 10.910156 14.550781 11.125 14.328125 11.460938 C 14.238281 11.59375 14.082031 11.886719 14.09375 12.019531 C 14.113281 12.132812 14.203125 12.132812 14.261719 12.0625 C 14.621094 11.59375 14.867188 11.546875 15.089844 11.546875 C 15.234375 11.546875 15.203125 11.71875 15.066406 12.042969 L 13.769531 15.222656 C 13.691406 15.414062 13.867188 15.714844 14.046875 15.714844 Z M 14.046875 15.714844 "/>
<path style=" stroke:none;fill-rule:evenodd;fill:rgb(0%,0%,0%);fill-opacity:1;" d="M 20.007812 17.886719 C 20.074219 17.886719 20.140625 17.855469 20.195312 17.796875 C 20.992188 17.003906 22.210938 14.371094 22.210938 12.46875 C 22.210938 10.5625 21.035156 8.511719 20.242188 7.71875 C 20.175781 7.652344 20.050781 7.585938 19.9375 7.585938 C 19.859375 7.585938 19.691406 7.664062 19.691406 7.761719 C 19.691406 7.785156 19.816406 7.964844 19.839844 7.988281 C 20.523438 8.78125 21.28125 10.429688 21.28125 12.332031 C 21.28125 14.238281 20.554688 16.621094 19.871094 17.417969 C 19.859375 17.441406 19.703125 17.621094 19.703125 17.640625 C 19.703125 17.796875 19.859375 17.886719 20.007812 17.886719 Z M 20.007812 17.886719 "/>
<path style=" stroke:none;fill-rule:evenodd;fill:rgb(0%,0%,0%);fill-opacity:1;" d="M 28.085938 26.511719 C 28.292969 26.511719 28.515625 26.382812 28.515625 26.160156 C 28.515625 26.128906 28.292969 25.871094 28.277344 25.839844 C 27.300781 24.703125 26.261719 21.296875 26.261719 18.574219 C 26.261719 15.855469 27.347656 13.503906 28.324219 12.367188 C 28.355469 12.335938 28.53125 12.078125 28.53125 12.046875 C 28.53125 11.902344 28.292969 11.792969 28.179688 11.792969 C 28.019531 11.792969 27.84375 11.886719 27.75 11.984375 C 26.613281 13.121094 24.933594 16.046875 24.933594 18.769531 C 24.933594 21.488281 26.675781 25.246094 27.8125 26.382812 C 27.894531 26.464844 27.988281 26.511719 28.085938 26.511719 Z M 28.085938 26.511719 "/>
<path style=" stroke:none;fill-rule:evenodd;fill:rgb(0%,0%,0%);fill-opacity:1;" d="M 36.054688 16.65625 C 36.054688 16.558594 35.972656 16.464844 35.910156 16.464844 C 35.75 16.464844 35.539062 16.640625 35.429688 16.753906 C 35.1875 16.992188 35.027344 17.089844 34.707031 17.089844 C 34.4375 17.089844 34.085938 16.929688 33.699219 16.785156 C 33.347656 16.65625 32.996094 16.527344 32.644531 16.527344 C 32.292969 16.527344 31.492188 16.910156 31.125 17.265625 C 30.613281 17.742188 30.324219 18.097656 30.324219 18.671875 C 30.324219 19.023438 30.546875 19.214844 30.660156 19.214844 C 30.757812 19.214844 31.171875 19.023438 31.316406 18.863281 C 31.398438 18.769531 31.398438 18.703125 31.316406 18.574219 C 31.1875 18.382812 31.15625 18.160156 31.15625 18 C 31.15625 17.679688 31.539062 17.296875 31.925781 17.296875 C 32.4375 17.296875 32.867188 17.503906 33.285156 17.710938 C 33.621094 17.871094 33.941406 18.03125 34.230469 18.046875 L 29.941406 22.207031 C 29.636719 22.496094 29.539062 22.832031 29.558594 23.054688 C 29.574219 23.265625 29.71875 23.472656 29.78125 23.472656 C 29.859375 23.472656 30.019531 23.457031 30.019531 23.246094 C 30.019531 22.753906 30.390625 22.320312 31.027344 22.320312 C 31.238281 22.320312 31.507812 22.59375 31.828125 22.894531 C 32.230469 23.28125 32.675781 23.695312 33.203125 23.695312 C 33.78125 23.695312 35.300781 22.574219 35.300781 21.679688 C 35.300781 21.167969 34.996094 20.863281 34.773438 20.863281 C 34.582031 20.863281 34.53125 20.945312 34.53125 21.328125 C 34.53125 22.046875 34.46875 22.863281 33.75 22.863281 C 33.378906 22.863281 33.042969 22.558594 32.675781 22.257812 C 32.277344 21.921875 31.875 21.585938 31.398438 21.585938 L 31.347656 21.585938 L 35.539062 17.457031 C 35.84375 17.152344 36.054688 16.816406 36.054688 16.65625 Z M 36.054688 16.65625 "/>
<path style=" stroke:none;fill-rule:evenodd;fill:rgb(0%,0%,0%);fill-opacity:1;" d="M 37.476562 26.511719 C 37.574219 26.511719 37.667969 26.464844 37.75 26.382812 C 38.886719 25.246094 40.628906 21.488281 40.628906 18.769531 C 40.628906 16.046875 38.949219 13.121094 37.8125 11.984375 C 37.71875 11.886719 37.539062 11.792969 37.378906 11.792969 C 37.269531 11.792969 37.027344 11.902344 37.027344 12.046875 C 37.027344 12.078125 37.203125 12.335938 37.238281 12.367188 C 38.210938 13.503906 39.300781 15.855469 39.300781 18.574219 C 39.300781 21.296875 38.261719 24.703125 37.285156 25.839844 C 37.269531 25.871094 37.042969 26.128906 37.042969 26.160156 C 37.042969 26.382812 37.269531 26.511719 37.476562 26.511719 Z M 37.476562 26.511719 "/>
<path style=" stroke:none;fill-rule:evenodd;fill:rgb(0%,0%,0%);fill-opacity:1;" d="M 48.585938 18.128906 L 55.304688 18.128906 C 55.5625 18.128906 55.816406 17.726562 55.816406 17.503906 C 55.816406 17.40625 55.691406 17.328125 55.59375 17.328125 L 48.746094 17.328125 C 48.457031 17.328125 48.363281 17.792969 48.363281 17.9375 C 48.363281 18.03125 48.472656 18.128906 48.585938 18.128906 Z M 48.585938 20.863281 L 55.304688 20.863281 C 55.5625 20.863281 55.816406 20.527344 55.816406 20.238281 C 55.816406 20.144531 55.691406 20.0625 55.59375 20.0625 L 48.746094 20.0625 C 48.457031 20.0625 48.363281 20.527344 48.363281 20.671875 C 48.363281 20.769531 48.472656 20.863281 48.585938 20.863281 Z M 48.585938 20.863281 "/>
<path style=" stroke:none;fill-rule:evenodd;fill:rgb(0%,0%,0%);fill-opacity:1;" d="M 69.558594 13.265625 C 69.734375 13.265625 69.863281 13.121094 70.054688 12.769531 C 71.09375 10.960938 72.421875 8.910156 72.917969 8.304688 C 73.625 7.441406 74.183594 7.039062 74.535156 7.054688 C 74.839844 7.070312 75 7.375 74.664062 8.257812 C 74.101562 9.679688 73.464844 11.105469 72.839844 12.527344 C 72.679688 12.878906 73.046875 13.230469 73.335938 13.230469 C 74.34375 13.230469 75.382812 12.480469 76.214844 11.472656 C 76.246094 11.425781 76.28125 11.328125 76.28125 11.246094 C 76.28125 11.167969 76.214844 11.105469 76.152344 11.105469 C 76.136719 11.105469 76.121094 11.105469 76.101562 11.121094 C 75.945312 11.28125 74.792969 12.207031 74.28125 12.207031 C 74.085938 12.207031 74.023438 12.046875 74.199219 11.632812 L 75.671875 8.144531 C 76.101562 7.136719 75.589844 6.382812 74.917969 6.382812 C 73.945312 6.382812 72.488281 7.617188 71.175781 9.855469 C 71.113281 9.96875 70.96875 9.953125 71.03125 9.792969 L 72.085938 7.070312 C 72.230469 6.6875 71.894531 6.382812 71.558594 6.382812 C 70.839844 6.398438 70.28125 6.703125 69.960938 7.183594 C 69.832031 7.375 69.609375 7.792969 69.625 7.984375 C 69.65625 8.144531 69.785156 8.144531 69.863281 8.046875 C 70.375 7.375 70.726562 7.3125 71.046875 7.3125 C 71.253906 7.3125 71.207031 7.550781 71.015625 8.015625 L 69.160156 12.558594 C 69.046875 12.832031 69.304688 13.265625 69.558594 13.265625 Z M 69.558594 13.265625 "/>
<path style=" stroke:none;fill-rule:evenodd;fill:rgb(0%,0%,0%);fill-opacity:1;" d="M 78.792969 9.726562 C 78.953125 9.726562 79.046875 9.457031 79.078125 9.105469 C 79.269531 7.296875 79.558594 4.511719 79.558594 3.503906 C 79.558594 3.039062 79.269531 2.625 78.839844 2.625 C 78.40625 2.625 78.085938 3.039062 78.085938 3.503906 C 78.085938 4.511719 78.3125 7.28125 78.503906 9.105469 C 78.550781 9.566406 78.632812 9.726562 78.792969 9.726562 Z M 78.824219 13.230469 C 79.351562 13.230469 79.785156 12.800781 79.785156 12.273438 C 79.785156 11.742188 79.351562 11.3125 78.824219 11.3125 C 78.296875 11.3125 77.863281 11.742188 77.863281 12.273438 C 77.863281 12.800781 78.296875 13.230469 78.824219 13.230469 Z M 78.824219 13.230469 "/>
<path style=" stroke:none;fill-rule:nonzero;fill:rgb(0%,0%,0%);fill-opacity:1;" d="M 63.550781 18.753906 L 85.949219 18.753906 L 85.949219 19.554688 L 63.550781 19.554688 Z M 63.550781 18.753906 "/>
<path style=" stroke:none;fill-rule:evenodd;fill:rgb(0%,0%,0%);fill-opacity:1;" d="M 70.015625 32.769531 C 70.128906 32.769531 70.304688 32.71875 70.367188 32.382812 C 70.527344 31.585938 70.847656 30.929688 70.847656 30.769531 C 70.847656 30.6875 70.832031 30.574219 70.734375 30.574219 C 70.558594 30.574219 70.414062 30.816406 70.335938 30.945312 C 69.933594 31.585938 69.726562 31.648438 68.816406 31.695312 C 68.238281 31.726562 67.597656 31.742188 66.992188 31.742188 C 66.398438 31.742188 65.933594 31.726562 65.582031 31.695312 C 65.457031 31.679688 65.359375 31.664062 65.359375 31.585938 C 65.359375 31.503906 68 28.945312 68.71875 28.078125 C 69.390625 27.265625 69.886719 26.144531 69.886719 25.28125 C 69.886719 23.726562 68.925781 22.640625 67.328125 22.640625 C 65.519531 22.640625 64.207031 24.207031 64.207031 24.703125 C 64.207031 24.992188 64.367188 25.183594 64.449219 25.183594 C 64.542969 25.183594 64.65625 25.089844 64.71875 24.960938 C 65.167969 24.191406 65.953125 23.664062 66.832031 23.664062 C 67.742188 23.664062 68.542969 24.351562 68.542969 25.488281 C 68.542969 26.894531 67.757812 28.335938 66.6875 29.441406 L 63.953125 32.273438 C 63.855469 32.367188 63.824219 32.382812 63.824219 32.480469 C 63.824219 32.574219 64.0625 32.753906 64.144531 32.753906 C 64.464844 32.753906 67.054688 32.671875 67.855469 32.671875 C 68.65625 32.671875 69.695312 32.769531 70.015625 32.769531 Z M 70.015625 32.769531 "/>
<path style=" stroke:none;fill-rule:evenodd;fill:rgb(0%,0%,0%);fill-opacity:1;" d="M 72.960938 32.929688 C 73.070312 32.929688 73.28125 32.734375 73.457031 32.335938 C 74 31.121094 74.800781 28.992188 75.550781 27.488281 C 75.632812 27.328125 75.742188 27.246094 75.886719 27.265625 L 77.023438 27.359375 C 77.136719 27.375 77.230469 27.441406 77.167969 27.617188 C 76.832031 28.527344 75.777344 31.183594 75.617188 31.855469 C 75.488281 32.398438 75.726562 32.945312 76.207031 32.945312 C 76.976562 32.945312 78.65625 31.425781 78.65625 30.753906 C 78.65625 30.703125 78.609375 30.671875 78.558594 30.671875 C 78.527344 30.671875 78.511719 30.6875 78.496094 30.703125 C 77.886719 31.3125 77.261719 31.664062 76.75 31.664062 C 76.496094 31.664062 76.429688 31.441406 76.542969 31.054688 C 76.785156 30.222656 77.28125 28.542969 77.710938 27.585938 C 77.777344 27.441406 77.855469 27.40625 77.902344 27.40625 C 78.144531 27.40625 78.449219 27.441406 78.640625 27.441406 C 79.566406 27.441406 80.449219 26.464844 80.449219 25.921875 C 80.449219 25.742188 80.367188 25.664062 80.207031 25.664062 C 80.144531 25.664062 79.96875 25.9375 79.757812 26.0625 C 79.472656 26.238281 79.121094 26.257812 78.6875 26.257812 C 77.632812 26.257812 76.253906 26.160156 74.992188 26.160156 C 72.800781 26.160156 71.902344 27.359375 71.902344 28.433594 C 71.902344 28.65625 72.03125 28.894531 72.144531 28.894531 C 72.269531 28.894531 72.351562 28.753906 72.367188 28.609375 C 72.480469 27.648438 73.28125 27.039062 74.542969 27.136719 L 74.960938 27.167969 C 75.085938 27.183594 75.054688 27.296875 75.023438 27.375 C 74.671875 28.273438 73.597656 30.289062 72.269531 32.144531 L 72.269531 32.464844 C 72.238281 32.625 72.734375 32.929688 72.960938 32.929688 Z M 72.960938 32.929688 "/>
<path style=" stroke:none;fill-rule:evenodd;fill:rgb(0%,0%,0%);fill-opacity:1;" d="M 84.785156 24.511719 C 85.261719 24.511719 85.664062 24.078125 85.664062 23.601562 C 85.664062 23.265625 85.457031 22.910156 85.121094 22.910156 C 84.609375 22.910156 84.222656 23.375 84.222656 23.886719 C 84.222656 24.207031 84.464844 24.511719 84.785156 24.511719 Z M 81.550781 32.945312 C 82.527344 32.945312 84.398438 31.246094 84.398438 30.574219 C 84.398438 30.527344 84.351562 30.496094 84.304688 30.496094 C 84.269531 30.496094 84.253906 30.511719 84.238281 30.527344 C 83.632812 31.136719 82.910156 31.886719 82.480469 31.886719 C 82.367188 31.886719 82.222656 31.855469 82.222656 31.695312 C 82.222656 31.566406 82.253906 31.40625 82.335938 31.230469 L 84.289062 26.609375 C 84.351562 26.449219 84 25.984375 83.710938 26.113281 C 82.367188 26.71875 81.3125 27.648438 81.3125 27.921875 C 81.3125 28.03125 81.441406 28.078125 81.550781 28 C 81.933594 27.710938 82.625 27.390625 82.800781 27.390625 C 82.910156 27.390625 82.910156 27.488281 82.878906 27.585938 C 82.414062 28.753906 81.855469 30.382812 80.976562 32.144531 C 80.925781 32.238281 80.925781 32.320312 80.925781 32.398438 C 80.925781 32.65625 81.183594 32.945312 81.550781 32.945312 Z M 81.550781 32.945312 "/>
<path style=" stroke:none;fill-rule:evenodd;fill:rgb(0%,0%,0%);fill-opacity:1;" d="M 98.488281 23.457031 C 98.378906 23.472656 98.332031 23.425781 98.347656 23.3125 C 98.601562 20.71875 98.890625 17.808594 99.144531 15.199219 C 99.164062 15.089844 99.210938 15.039062 99.304688 15.070312 C 101.097656 15.601562 102.363281 17.28125 102.363281 19.183594 C 102.363281 21.550781 100.585938 23.265625 98.488281 23.457031 Z M 93.417969 34.65625 C 95.113281 34.65625 97.433594 32.59375 97.65625 30.289062 C 97.753906 29.328125 97.976562 27.121094 98.234375 24.433594 C 98.25 24.320312 98.296875 24.257812 98.410156 24.257812 C 100.859375 24.097656 102.90625 22.191406 103.144531 19.664062 C 103.164062 19.503906 103.164062 19.328125 103.164062 19.167969 C 103.164062 16.847656 101.59375 14.863281 99.386719 14.273438 C 99.289062 14.238281 99.242188 14.175781 99.257812 14.0625 C 99.609375 10.558594 99.867188 7.839844 99.898438 7.585938 C 100.089844 6.160156 100.984375 4.527344 101.960938 4.527344 C 102.441406 4.527344 102.875 4.847656 103.195312 5.425781 C 103.449219 5.902344 103.65625 6.257812 103.882812 6.257812 C 104.234375 6.257812 104.648438 5.953125 104.648438 5.375 C 104.648438 4.382812 103.785156 3.648438 102.410156 3.648438 C 100.378906 3.648438 98.808594 5.585938 98.425781 8.734375 L 97.914062 13.9375 C 97.898438 14.046875 97.851562 14.113281 97.738281 14.113281 C 95.289062 14.273438 93.257812 16.175781 93.019531 18.703125 C 93.003906 18.863281 92.984375 19.039062 92.984375 19.199219 C 92.984375 21.519531 94.554688 23.503906 96.761719 24.097656 C 96.859375 24.128906 96.921875 24.191406 96.90625 24.304688 L 96.296875 30.398438 C 96.042969 32.863281 94.984375 33.792969 94.171875 33.792969 C 93.65625 33.792969 93.289062 33.566406 92.984375 33.28125 C 92.667969 32.976562 92.457031 32.671875 92.234375 32.671875 C 91.976562 32.671875 91.5 33.105469 91.5 33.535156 C 91.5 34.273438 92.3125 34.65625 93.417969 34.65625 Z M 97.816406 15.054688 L 97.019531 23.167969 C 97.003906 23.28125 96.9375 23.328125 96.84375 23.296875 C 95.050781 22.753906 93.785156 21.089844 93.785156 19.183594 C 93.785156 16.832031 95.578125 15.105469 97.675781 14.910156 C 97.785156 14.894531 97.835938 14.945312 97.816406 15.054688 Z M 97.816406 15.054688 "/>
<path style=" stroke:none;fill-rule:evenodd;fill:rgb(0%,0%,0%);fill-opacity:1;" d="M 126.109375 16.351562 C 127.003906 16.351562 128.765625 15.183594 129.214844 13.472656 C 129.835938 11.054688 130.542969 8.59375 131.292969 6.175781 C 131.339844 5.984375 131.46875 5.921875 131.691406 5.921875 L 133.148438 5.902344 C 133.4375 5.902344 133.613281 5.585938 133.613281 5.441406 C 133.613281 5.3125 133.566406 5.265625 133.5 5.265625 C 132.957031 5.265625 132.382812 5.3125 131.742188 5.3125 C 131.644531 5.3125 131.582031 5.28125 131.582031 5.167969 C 131.582031 5.054688 131.613281 5.007812 131.660156 4.847656 C 131.789062 4.433594 131.871094 4.078125 131.996094 3.664062 C 132.636719 1.566406 132.988281 1.070312 133.902344 1.070312 C 134.363281 1.070312 134.652344 1.296875 134.84375 1.726562 C 135.003906 2.078125 135.117188 2.351562 135.277344 2.351562 C 135.566406 2.351562 135.933594 2.078125 135.933594 1.535156 C 135.933594 0.878906 135.375 0.414062 134.429688 0.414062 C 133.308594 0.414062 131.53125 1.472656 130.765625 4.511719 L 130.636719 5.023438 C 130.589844 5.214844 130.476562 5.328125 130.332031 5.34375 L 129.214844 5.40625 C 129.054688 5.425781 128.910156 5.648438 128.910156 5.824219 C 128.910156 5.9375 128.972656 6.015625 129.117188 6.015625 L 130.109375 6 C 130.332031 6 130.398438 6.078125 130.332031 6.289062 L 128.1875 13.550781 C 127.660156 15.3125 127.355469 15.710938 126.75 15.710938 C 126.363281 15.710938 126.109375 15.535156 125.917969 15.328125 C 125.710938 15.105469 125.566406 14.878906 125.40625 14.878906 C 125.195312 14.878906 124.78125 15.230469 124.78125 15.550781 C 124.78125 16.078125 125.308594 16.351562 126.109375 16.351562 Z M 126.109375 16.351562 "/>
<path style=" stroke:none;fill-rule:evenodd;fill:rgb(0%,0%,0%);fill-opacity:1;" d="M 140.316406 15.070312 C 140.523438 15.070312 140.75 14.945312 140.75 14.71875 C 140.75 14.6875 140.523438 14.433594 140.507812 14.398438 C 139.53125 13.265625 138.492188 9.855469 138.492188 7.136719 C 138.492188 4.414062 139.582031 2.0625 140.558594 0.929688 C 140.589844 0.894531 140.765625 0.640625 140.765625 0.609375 C 140.765625 0.464844 140.523438 0.351562 140.414062 0.351562 C 140.253906 0.351562 140.078125 0.449219 139.980469 0.542969 C 138.84375 1.679688 137.164062 4.609375 137.164062 7.328125 C 137.164062 10.046875 138.910156 13.808594 140.046875 14.945312 C 140.125 15.023438 140.222656 15.070312 140.316406 15.070312 Z M 140.316406 15.070312 "/>
<path style=" stroke:none;fill-rule:evenodd;fill:rgb(0%,0%,0%);fill-opacity:1;" d="M 143.308594 14.929688 C 144.878906 14.433594 146.667969 13.183594 146.667969 11.679688 C 146.667969 11.230469 146.222656 10.398438 145.742188 10.398438 C 145.613281 10.398438 145.132812 10.449219 144.75 10.464844 C 144.332031 10.496094 143.820312 10.511719 143.691406 10.511719 C 143.132812 10.511719 142.84375 10.351562 142.84375 9.855469 C 142.84375 8.671875 144.941406 7.105469 147.550781 6.496094 C 147.902344 6.414062 148.414062 5.902344 148.414062 5.632812 C 148.414062 5.390625 148.269531 5.199219 147.902344 5.199219 C 147.484375 5.199219 146.429688 5.601562 145.804688 6.015625 C 145.164062 6.015625 144.894531 5.695312 144.894531 5.183594 C 144.894531 3.808594 146.542969 2.734375 147.675781 2.625 C 149.453125 2.273438 149.660156 1.855469 149.660156 1.34375 C 149.660156 1.089844 149.550781 0.863281 149.355469 0.863281 C 148.894531 0.863281 147.46875 1.457031 146.222656 2.351562 C 145.820312 2.289062 145.644531 1.953125 145.644531 1.550781 C 145.644531 1.105469 145.964844 0.574219 146.476562 0.382812 C 146.683594 0.304688 146.71875 0.257812 146.71875 0.175781 C 146.71875 0.0625 146.507812 0 146.398438 0 C 145.566406 0 144.523438 0.71875 144.523438 1.679688 C 144.523438 2.367188 145.324219 2.640625 145.851562 2.625 C 144.878906 3.40625 144.078125 4.382812 144.078125 5.425781 C 144.078125 5.921875 144.492188 6.175781 144.988281 6.398438 C 145.214844 6.496094 145.070312 6.558594 144.910156 6.65625 C 143.871094 7.359375 142.09375 8.894531 142.09375 10.574219 C 142.09375 11.105469 142.574219 11.808594 143.390625 11.808594 C 143.644531 11.808594 144.140625 11.742188 144.652344 11.695312 C 145.085938 11.648438 145.484375 11.601562 145.710938 11.601562 C 145.917969 11.601562 146.109375 11.664062 146.109375 11.839844 C 146.109375 12.222656 145.246094 13.007812 142.910156 13.792969 C 142.699219 13.855469 142.683594 14.046875 142.683594 14.222656 C 142.683594 14.558594 142.972656 15.039062 143.308594 14.929688 Z M 143.308594 14.929688 "/>
<path style=" stroke:none;fill-rule:evenodd;fill:rgb(0%,0%,0%);fill-opacity:1;" d="M 150.8125 15.070312 C 150.910156 15.070312 151.003906 15.023438 151.085938 14.945312 C 152.222656 13.808594 153.964844 10.046875 153.964844 7.328125 C 153.964844 4.609375 152.285156 1.679688 151.148438 0.542969 C 151.054688 0.449219 150.878906 0.351562 150.71875 0.351562 C 150.605469 0.351562 150.363281 0.464844 150.363281 0.609375 C 150.363281 0.640625 150.542969 0.894531 150.574219 0.929688 C 151.550781 2.0625 152.636719 4.414062 152.636719 7.136719 C 152.636719 9.855469 151.597656 13.265625 150.621094 14.398438 C 150.605469 14.433594 150.382812 14.6875 150.382812 14.71875 C 150.382812 14.945312 150.605469 15.070312 150.8125 15.070312 Z M 150.8125 15.070312 "/>
<path style=" stroke:none;fill-rule:nonzero;fill:rgb(0%,0%,0%);fill-opacity:1;" d="M 110.195312 18.753906 L 171.699219 18.753906 L 171.699219 19.554688 L 110.195312 19.554688 Z M 110.195312 18.753906 "/>
<path style=" stroke:none;fill-rule:evenodd;fill:rgb(0%,0%,0%);fill-opacity:1;" d="M 114.949219 40.125 C 115.15625 40.125 115.378906 40 115.378906 39.773438 C 115.378906 39.742188 115.15625 39.488281 115.140625 39.453125 C 114.164062 38.320312 113.125 34.910156 113.125 32.191406 C 113.125 29.46875 114.210938 27.117188 115.1875 25.980469 C 115.222656 25.949219 115.398438 25.695312 115.398438 25.664062 C 115.398438 25.519531 115.15625 25.40625 115.042969 25.40625 C 114.886719 25.40625 114.707031 25.503906 114.613281 25.597656 C 113.476562 26.734375 111.796875 29.664062 111.796875 32.382812 C 111.796875 35.101562 113.539062 38.863281 114.675781 40 C 114.757812 40.078125 114.851562 40.125 114.949219 40.125 Z M 114.949219 40.125 "/>
<path style=" stroke:none;fill-rule:evenodd;fill:rgb(0%,0%,0%);fill-opacity:1;" d="M 117.941406 39.980469 C 119.507812 39.488281 121.300781 38.238281 121.300781 36.734375 C 121.300781 36.285156 120.851562 35.453125 120.371094 35.453125 C 120.246094 35.453125 119.765625 35.503906 119.378906 35.519531 C 118.964844 35.550781 118.453125 35.566406 118.324219 35.566406 C 117.765625 35.566406 117.476562 35.40625 117.476562 34.910156 C 117.476562 33.726562 119.574219 32.160156 122.179688 31.550781 C 122.53125 31.46875 123.042969 30.957031 123.042969 30.6875 C 123.042969 30.445312 122.902344 30.253906 122.53125 30.253906 C 122.117188 30.253906 121.0625 30.65625 120.4375 31.070312 C 119.796875 31.070312 119.523438 30.75 119.523438 30.238281 C 119.523438 28.863281 121.171875 27.789062 122.308594 27.679688 C 124.085938 27.328125 124.292969 26.910156 124.292969 26.398438 C 124.292969 26.140625 124.179688 25.917969 123.988281 25.917969 C 123.523438 25.917969 122.101562 26.511719 120.851562 27.40625 C 120.453125 27.34375 120.277344 27.007812 120.277344 26.605469 C 120.277344 26.160156 120.597656 25.628906 121.109375 25.4375 C 121.316406 25.359375 121.347656 25.308594 121.347656 25.230469 C 121.347656 25.117188 121.140625 25.054688 121.027344 25.054688 C 120.195312 25.054688 119.15625 25.773438 119.15625 26.734375 C 119.15625 27.421875 119.957031 27.695312 120.484375 27.679688 C 119.507812 28.460938 118.707031 29.4375 118.707031 30.476562 C 118.707031 30.972656 119.125 31.230469 119.621094 31.453125 C 119.84375 31.550781 119.699219 31.613281 119.539062 31.710938 C 118.5 32.414062 116.726562 33.949219 116.726562 35.628906 C 116.726562 36.160156 117.203125 36.863281 118.019531 36.863281 C 118.277344 36.863281 118.773438 36.796875 119.285156 36.75 C 119.71875 36.703125 120.117188 36.65625 120.339844 36.65625 C 120.546875 36.65625 120.742188 36.71875 120.742188 36.894531 C 120.742188 37.277344 119.875 38.0625 117.539062 38.847656 C 117.332031 38.910156 117.316406 39.101562 117.316406 39.277344 C 117.316406 39.613281 117.605469 40.09375 117.941406 39.980469 Z M 117.941406 39.980469 "/>
<path style=" stroke:none;fill-rule:evenodd;fill:rgb(0%,0%,0%);fill-opacity:1;" d="M 128.777344 33.214844 L 136.054688 33.214844 C 136.34375 33.214844 136.550781 32.796875 136.550781 32.445312 C 136.550781 32.351562 136.441406 32.253906 136.34375 32.253906 L 128.9375 32.253906 C 128.601562 32.253906 128.550781 32.878906 128.550781 33.023438 C 128.550781 33.117188 128.664062 33.214844 128.777344 33.214844 Z M 128.777344 33.214844 "/>
<path style=" stroke:none;fill-rule:evenodd;fill:rgb(0%,0%,0%);fill-opacity:1;" d="M 147.628906 30.269531 C 147.628906 30.175781 147.546875 30.078125 147.484375 30.078125 C 147.324219 30.078125 147.117188 30.253906 147.003906 30.367188 C 146.765625 30.605469 146.605469 30.703125 146.285156 30.703125 C 146.011719 30.703125 145.660156 30.542969 145.277344 30.398438 C 144.925781 30.269531 144.570312 30.140625 144.21875 30.140625 C 143.867188 30.140625 143.066406 30.527344 142.699219 30.878906 C 142.1875 31.359375 141.898438 31.710938 141.898438 32.285156 C 141.898438 32.636719 142.125 32.832031 142.234375 32.832031 C 142.332031 32.832031 142.746094 32.636719 142.890625 32.476562 C 142.972656 32.382812 142.972656 32.320312 142.890625 32.191406 C 142.765625 32 142.730469 31.773438 142.730469 31.613281 C 142.730469 31.292969 143.117188 30.910156 143.5 30.910156 C 144.011719 30.910156 144.445312 31.117188 144.859375 31.328125 C 145.195312 31.488281 145.515625 31.644531 145.804688 31.664062 L 141.515625 35.824219 C 141.210938 36.109375 141.117188 36.445312 141.132812 36.671875 C 141.148438 36.878906 141.292969 37.085938 141.355469 37.085938 C 141.4375 37.085938 141.597656 37.070312 141.597656 36.863281 C 141.597656 36.367188 141.964844 35.933594 142.605469 35.933594 C 142.8125 35.933594 143.082031 36.207031 143.402344 36.511719 C 143.804688 36.894531 144.25 37.308594 144.78125 37.308594 C 145.355469 37.308594 146.875 36.191406 146.875 35.292969 C 146.875 34.78125 146.570312 34.476562 146.347656 34.476562 C 146.15625 34.476562 146.109375 34.558594 146.109375 34.941406 C 146.109375 35.664062 146.042969 36.476562 145.324219 36.476562 C 144.957031 36.476562 144.621094 36.175781 144.25 35.871094 C 143.851562 35.535156 143.453125 35.199219 142.972656 35.199219 L 142.925781 35.199219 L 147.117188 31.070312 C 147.417969 30.765625 147.628906 30.429688 147.628906 30.269531 Z M 147.628906 30.269531 "/>
<path style=" stroke:none;fill-rule:evenodd;fill:rgb(0%,0%,0%);fill-opacity:1;" d="M 149.050781 40.125 C 149.148438 40.125 149.242188 40.078125 149.324219 40 C 150.460938 38.863281 152.203125 35.101562 152.203125 32.382812 C 152.203125 29.664062 150.523438 26.734375 149.386719 25.597656 C 149.292969 25.503906 149.117188 25.40625 148.957031 25.40625 C 148.84375 25.40625 148.605469 25.519531 148.605469 25.664062 C 148.605469 25.695312 148.78125 25.949219 148.8125 25.980469 C 149.789062 27.117188 150.875 29.46875 150.875 32.191406 C 150.875 34.910156 149.835938 38.320312 148.859375 39.453125 C 148.84375 39.488281 148.621094 39.742188 148.621094 39.773438 C 148.621094 40 148.84375 40.125 149.050781 40.125 Z M 149.050781 40.125 "/>
<path style=" stroke:none;fill-rule:evenodd;fill:rgb(0%,0%,0%);fill-opacity:1;" d="M 154.417969 29.265625 C 154.542969 29.265625 154.632812 29.164062 154.765625 28.917969 C 155.496094 27.652344 156.425781 26.21875 156.773438 25.792969 C 157.265625 25.1875 157.65625 24.910156 157.902344 24.921875 C 158.117188 24.929688 158.226562 25.144531 157.992188 25.761719 C 157.601562 26.757812 157.152344 27.753906 156.714844 28.75 C 156.605469 28.996094 156.863281 29.242188 157.0625 29.242188 C 157.769531 29.242188 158.496094 28.71875 159.078125 28.011719 C 159.101562 27.976562 159.125 27.910156 159.125 27.855469 C 159.125 27.796875 159.078125 27.753906 159.035156 27.753906 C 159.023438 27.753906 159.011719 27.753906 159 27.765625 C 158.890625 27.875 158.082031 28.527344 157.722656 28.527344 C 157.589844 28.527344 157.542969 28.414062 157.667969 28.125 L 158.699219 25.679688 C 159 24.976562 158.640625 24.449219 158.171875 24.449219 C 157.488281 24.449219 156.46875 25.3125 155.550781 26.878906 C 155.507812 26.957031 155.40625 26.945312 155.449219 26.835938 L 156.191406 24.929688 C 156.289062 24.664062 156.054688 24.449219 155.820312 24.449219 C 155.316406 24.460938 154.925781 24.671875 154.699219 25.007812 C 154.609375 25.144531 154.453125 25.433594 154.464844 25.570312 C 154.488281 25.679688 154.578125 25.679688 154.632812 25.613281 C 154.992188 25.144531 155.238281 25.097656 155.460938 25.097656 C 155.605469 25.097656 155.574219 25.265625 155.4375 25.59375 L 154.140625 28.773438 C 154.0625 28.964844 154.242188 29.265625 154.417969 29.265625 Z M 154.417969 29.265625 "/>
<path style=" stroke:none;fill-rule:evenodd;fill:rgb(0%,0%,0%);fill-opacity:1;" d="M 162.664062 29.175781 C 162.765625 29.175781 163.199219 29.140625 163.199219 28.90625 L 163.199219 26.644531 C 163.199219 26.609375 163.210938 26.601562 163.246094 26.601562 L 165.316406 26.601562 C 165.53125 26.601562 165.664062 26.34375 165.664062 26.152344 C 165.664062 26.085938 165.597656 26.039062 165.519531 26.039062 L 163.222656 26.039062 C 163.199219 26.039062 163.199219 26.027344 163.199219 25.972656 L 163.199219 23.832031 C 163.199219 23.753906 163.121094 23.6875 163.042969 23.6875 C 162.976562 23.6875 162.527344 23.789062 162.527344 24.035156 L 162.527344 25.949219 C 162.527344 26.019531 162.515625 26.039062 162.449219 26.039062 L 160.332031 26.039062 C 160.132812 26.039062 160.066406 26.363281 160.066406 26.464844 C 160.066406 26.53125 160.144531 26.601562 160.222656 26.601562 L 162.484375 26.601562 C 162.515625 26.601562 162.527344 26.621094 162.527344 26.65625 L 162.527344 29.019531 C 162.527344 29.097656 162.597656 29.175781 162.664062 29.175781 Z M 162.664062 29.175781 "/>
<path style=" stroke:none;fill-rule:evenodd;fill:rgb(0%,0%,0%);fill-opacity:1;" d="M 167.402344 29.121094 C 168.003906 29.121094 168.476562 29.0625 169.082031 29.0625 C 169.675781 29.0625 170.089844 29.121094 170.726562 29.121094 C 170.816406 29.121094 170.882812 29.0625 170.882812 28.996094 C 170.882812 28.929688 170.78125 28.875 170.695312 28.851562 C 169.773438 28.628906 169.507812 28.570312 169.507812 28 L 169.507812 22.847656 C 169.507812 22.535156 169.515625 22.277344 169.550781 22.054688 C 169.5625 21.996094 169.484375 21.953125 169.417969 21.953125 C 169.394531 21.953125 169.371094 21.953125 169.359375 21.964844 C 168.855469 22.46875 168.351562 22.558594 167.679688 22.65625 C 167.523438 22.679688 167.402344 22.757812 167.402344 22.859375 C 167.402344 22.980469 167.546875 23.039062 167.691406 23.050781 C 168.171875 23.082031 168.632812 23.160156 168.632812 23.585938 L 168.632812 27.867188 C 168.632812 28.527344 168.25 28.628906 167.402344 28.839844 C 167.3125 28.863281 167.234375 28.929688 167.234375 28.984375 C 167.234375 29.054688 167.289062 29.121094 167.402344 29.121094 Z M 167.402344 29.121094 "/>
<path style=" stroke:none;fill-rule:evenodd;fill:rgb(0%,0%,0%);fill-opacity:1;" d="M 184.347656 23.457031 C 184.410156 23.457031 184.425781 23.457031 184.601562 23.359375 C 185.355469 23.039062 185.882812 22.894531 186.476562 22.816406 C 186.585938 22.816406 186.699219 22.671875 186.699219 22.527344 C 186.699219 22.398438 186.617188 22.367188 186.410156 22.382812 C 186.140625 22.414062 185.835938 22.433594 185.722656 22.433594 C 185.484375 22.433594 185.386719 22.128906 185.386719 21.390625 L 185.386719 14.160156 C 185.386719 12.71875 185.5 12.175781 185.5 11.984375 C 185.484375 11.921875 185.449219 11.886719 185.386719 11.886719 C 185.339844 11.886719 185.257812 11.902344 185.179688 11.9375 C 184.875 12.0625 184.394531 12.289062 183.449219 12.527344 C 183.355469 12.558594 183.324219 12.640625 183.324219 12.71875 C 183.324219 12.816406 183.371094 12.910156 183.46875 12.929688 C 183.980469 13.023438 184.265625 13.230469 184.265625 14.097656 L 184.265625 16.367188 C 184.265625 16.65625 184.203125 16.753906 184.15625 16.753906 C 184.105469 16.753906 184.042969 16.734375 183.945312 16.703125 C 183.707031 16.625 183.226562 16.527344 182.792969 16.527344 C 180.554688 16.527344 179.195312 18.257812 179.195312 20.113281 C 179.195312 21.726562 180.332031 23.375 182.15625 23.375 C 183.210938 23.375 183.929688 22.734375 184.25 22.238281 L 184.25 22.335938 C 184.25 22.609375 184.171875 23.089844 184.171875 23.296875 C 184.171875 23.34375 184.300781 23.457031 184.347656 23.457031 Z M 182.730469 22.542969 C 182.027344 22.542969 180.332031 22.160156 180.332031 19.742188 C 180.332031 17.617188 181.5625 17.089844 182.300781 17.089844 C 183.484375 17.089844 184.265625 18.015625 184.265625 18.878906 L 184.25 21.761719 C 183.851562 22.222656 183.289062 22.542969 182.730469 22.542969 Z M 182.730469 22.542969 "/>
<path style=" stroke:none;fill-rule:evenodd;fill:rgb(0%,0%,0%);fill-opacity:1;" d="M 188.476562 26.367188 C 190.042969 25.871094 191.835938 24.625 191.835938 23.121094 C 191.835938 22.671875 191.386719 21.839844 190.90625 21.839844 C 190.777344 21.839844 190.300781 21.886719 189.914062 21.902344 C 189.5 21.9375 188.988281 21.953125 188.859375 21.953125 C 188.300781 21.953125 188.011719 21.792969 188.011719 21.296875 C 188.011719 20.113281 190.105469 18.542969 192.714844 17.9375 C 193.066406 17.855469 193.578125 17.34375 193.578125 17.070312 C 193.578125 16.832031 193.433594 16.640625 193.066406 16.640625 C 192.652344 16.640625 191.59375 17.039062 190.972656 17.457031 C 190.332031 17.457031 190.058594 17.136719 190.058594 16.625 C 190.058594 15.246094 191.707031 14.175781 192.84375 14.0625 C 194.617188 13.710938 194.828125 13.296875 194.828125 12.785156 C 194.828125 12.527344 194.714844 12.304688 194.523438 12.304688 C 194.058594 12.304688 192.636719 12.894531 191.386719 13.792969 C 190.988281 13.726562 190.8125 13.390625 190.8125 12.992188 C 190.8125 12.542969 191.128906 12.015625 191.644531 11.824219 C 191.851562 11.742188 191.882812 11.695312 191.882812 11.617188 C 191.882812 11.503906 191.675781 11.441406 191.5625 11.441406 C 190.730469 11.441406 189.691406 12.160156 189.691406 13.121094 C 189.691406 13.808594 190.492188 14.078125 191.019531 14.0625 C 190.042969 14.847656 189.242188 15.824219 189.242188 16.863281 C 189.242188 17.359375 189.660156 17.617188 190.15625 17.839844 C 190.378906 17.9375 190.234375 18 190.074219 18.097656 C 189.035156 18.800781 187.257812 20.335938 187.257812 22.015625 C 187.257812 22.542969 187.738281 23.246094 188.554688 23.246094 C 188.8125 23.246094 189.308594 23.183594 189.820312 23.136719 C 190.25 23.089844 190.652344 23.039062 190.875 23.039062 C 191.082031 23.039062 191.273438 23.105469 191.273438 23.28125 C 191.273438 23.664062 190.410156 24.449219 188.074219 25.230469 C 187.867188 25.296875 187.851562 25.488281 187.851562 25.664062 C 187.851562 26 188.140625 26.480469 188.476562 26.367188 Z M 188.476562 26.367188 "/>
</g>
</svg>
