<?xml version="1.0" encoding="UTF-8"?>
<svg xmlns="http://www.w3.org/2000/svg" xmlns:xlink="http://www.w3.org/1999/xlink" width="217.746674pt" height="62.264003pt" viewBox="0 0 217.746674 62.264003" version="1.1">
<g id="surface1">
<path style=" stroke:none;fill-rule:evenodd;fill:rgb(0%,0%,0%);fill-opacity:1;" d="M 47.234375 13.984375 C 48.097656 13.984375 48.769531 13.902344 49.632812 13.902344 C 50.484375 13.902344 51.074219 13.984375 51.988281 13.984375 C 52.113281 13.984375 52.210938 13.902344 52.210938 13.808594 C 52.210938 13.710938 52.066406 13.632812 51.9375 13.601562 C 50.625 13.28125 50.242188 13.199219 50.242188 12.382812 L 50.242188 5.023438 C 50.242188 4.574219 50.257812 4.207031 50.304688 3.886719 C 50.324219 3.808594 50.210938 3.742188 50.113281 3.742188 C 50.082031 3.742188 50.050781 3.742188 50.035156 3.761719 C 49.316406 4.480469 48.59375 4.609375 47.632812 4.753906 C 47.410156 4.785156 47.234375 4.894531 47.234375 5.039062 C 47.234375 5.214844 47.441406 5.296875 47.652344 5.3125 C 48.339844 5.359375 48.996094 5.472656 48.996094 6.078125 L 48.996094 12.191406 C 48.996094 13.136719 48.449219 13.28125 47.234375 13.585938 C 47.105469 13.617188 46.996094 13.710938 46.996094 13.792969 C 46.996094 13.886719 47.074219 13.984375 47.234375 13.984375 Z M 47.234375 13.984375 "/>
<path style=" stroke:none;fill-rule:nonzero;fill:rgb(0%,0%,0%);fill-opacity:1;" d="M 1.601562 19.679688 L 97.335938 19.679688 L 97.335938 20.480469 L 1.601562 20.480469 Z M 1.601562 19.679688 "/>
<path style=" stroke:none;fill-rule:evenodd;fill:rgb(0%,0%,0%);fill-opacity:1;" d="M 6.671875 46.425781 C 6.878906 46.425781 7.105469 46.296875 7.105469 46.070312 C 7.105469 46.039062 6.878906 45.785156 6.863281 45.753906 C 5.777344 44.503906 4.527344 39.609375 4.527344 34.488281 C 4.527344 29.367188 5.824219 25.527344 6.910156 24.28125 C 6.945312 24.246094 7.121094 23.992188 7.121094 23.960938 C 7.121094 23.816406 6.878906 23.703125 6.769531 23.703125 C 6.609375 23.703125 6.433594 23.800781 6.335938 23.894531 C 5.089844 25.144531 3.199219 29.558594 3.199219 34.679688 C 3.199219 39.800781 5.152344 45.046875 6.398438 46.296875 C 6.480469 46.375 6.574219 46.425781 6.671875 46.425781 Z M 6.671875 46.425781 "/>
<path style=" stroke:none;fill-rule:evenodd;fill:rgb(0%,0%,0%);fill-opacity:1;" d="M 17.007812 24.769531 C 17.328125 24.769531 17.519531 24.496094 17.519531 24.175781 C 17.519531 24.078125 17.375 23.96875 17.246094 23.96875 L 16.542969 23.96875 C 16.222656 23.96875 16.03125 24.078125 15.96875 24.398438 L 12.398438 41.328125 C 12.382812 41.441406 12.351562 41.425781 12.320312 41.328125 L 11.007812 36.078125 C 10.929688 35.777344 10.71875 35.617188 10.398438 35.617188 L 8.894531 35.617188 C 8.625 35.617188 8.480469 35.886719 8.480469 36.144531 C 8.480469 36.238281 8.59375 36.320312 8.703125 36.320312 L 9.375 36.320312 C 9.488281 36.320312 9.550781 36.382812 9.585938 36.480469 L 11.296875 43.296875 C 11.40625 43.742188 11.9375 44 12.382812 44 C 12.527344 44 12.734375 43.824219 12.769531 43.632812 L 16.703125 24.929688 C 16.71875 24.816406 16.785156 24.769531 16.894531 24.769531 Z M 17.007812 24.769531 "/>
<path style=" stroke:none;fill-rule:nonzero;fill:rgb(0%,0%,0%);fill-opacity:1;" d="M 16.945312 23.96875 L 42.753906 23.96875 L 42.753906 24.769531 L 16.945312 24.769531 Z M 16.945312 23.96875 "/>
<path style=" stroke:none;fill-rule:evenodd;fill:rgb(0%,0%,0%);fill-opacity:1;" d="M 18.753906 43.625 C 19.054688 43.625 19.28125 43.433594 19.28125 43.289062 C 19.28125 43.257812 19.535156 41.609375 20.160156 39.414062 C 23.039062 39.414062 25.585938 37.046875 25.585938 34.566406 C 25.585938 33.414062 25.199219 32.855469 24.527344 32.585938 C 24.59375 32.472656 24.609375 32.375 24.609375 32.265625 C 24.609375 31.910156 24.175781 31.496094 23.359375 31.496094 C 20.113281 31.496094 17.648438 34.007812 17.648438 36.632812 C 17.648438 37.894531 18.222656 38.902344 19.566406 39.367188 C 19.054688 40.902344 18.480469 42.535156 18.304688 42.984375 C 18.273438 43.0625 18.273438 43.144531 18.273438 43.238281 C 18.273438 43.511719 18.464844 43.625 18.753906 43.625 Z M 19.902344 38.265625 C 18.863281 38.121094 18.222656 37.574219 18.222656 36.230469 C 18.222656 34.566406 20.414062 32.519531 22.753906 32.519531 C 21.519531 33.574219 20.511719 36.359375 19.902344 38.265625 Z M 20.496094 38.296875 C 20.960938 36.808594 22.273438 33.113281 23.855469 33.113281 C 24.542969 33.113281 24.894531 33.960938 24.894531 34.855469 C 24.894531 36.679688 22.734375 38.296875 20.496094 38.296875 Z M 20.496094 38.296875 "/>
<path style=" stroke:none;fill-rule:evenodd;fill:rgb(0%,0%,0%);fill-opacity:1;" d="M 34.992188 26.609375 C 35.3125 26.609375 35.488281 26.335938 35.488281 26.015625 C 35.488281 25.921875 35.359375 25.808594 35.230469 25.808594 L 34.558594 25.808594 C 34.238281 25.808594 34.03125 25.9375 33.953125 26.238281 L 30.609375 39.28125 C 30.574219 39.375 30.558594 39.375 30.527344 39.28125 L 29.34375 35.679688 C 29.246094 35.375 29.039062 35.214844 28.71875 35.214844 L 27.230469 35.214844 C 26.960938 35.214844 26.816406 35.488281 26.816406 35.742188 C 26.816406 35.839844 26.929688 35.921875 27.039062 35.921875 L 27.710938 35.921875 C 27.824219 35.921875 27.886719 35.984375 27.921875 36.078125 L 29.488281 40.832031 C 29.632812 41.28125 30.144531 41.519531 30.59375 41.519531 C 30.734375 41.519531 30.945312 41.328125 30.992188 41.152344 L 34.671875 26.769531 C 34.703125 26.671875 34.769531 26.609375 34.878906 26.609375 Z M 34.992188 26.609375 "/>
<path style=" stroke:none;fill-rule:nonzero;fill:rgb(0%,0%,0%);fill-opacity:1;" d="M 34.929688 25.808594 L 42.753906 25.808594 L 42.753906 26.609375 L 34.929688 26.609375 Z M 34.929688 25.808594 "/>
<path style=" stroke:none;fill-rule:evenodd;fill:rgb(0%,0%,0%);fill-opacity:1;" d="M 36.640625 39.671875 C 37.777344 39.671875 38.816406 39.382812 39.664062 38.902344 C 40.847656 38.214844 41.617188 37.144531 41.617188 35.976562 C 41.617188 34.679688 41.023438 33.894531 39.839844 33.273438 C 39.105469 32.886719 38.128906 32.550781 36.929688 32.199219 C 36.734375 32.152344 36.703125 32.039062 36.71875 31.894531 C 36.734375 31.640625 37.199219 30.664062 37.425781 30.632812 C 37.902344 30.550781 39.34375 30.441406 40.175781 30.34375 C 40.449219 30.3125 40.625 30.152344 40.769531 29.832031 L 41.039062 29.304688 C 41.121094 29.160156 41.023438 29.015625 40.863281 29.03125 C 39.617188 29.144531 38.527344 29.335938 37.550781 29.59375 C 37.214844 29.671875 37.007812 29.847656 36.894531 30.167969 C 36.671875 30.871094 36.128906 32.136719 36.128906 32.710938 C 36.128906 33 36.222656 33.207031 36.511719 33.449219 C 39.34375 34.183594 40.351562 34.96875 40.351562 36.199219 C 40.351562 37.574219 39.152344 39.175781 36.625 39.175781 C 36.433594 39.175781 36.046875 39.320312 36.046875 39.480469 C 36.046875 39.625 36.398438 39.671875 36.640625 39.671875 Z M 36.640625 39.671875 "/>
<path style=" stroke:none;fill-rule:evenodd;fill:rgb(0%,0%,0%);fill-opacity:1;" d="M 47.332031 35.511719 L 54.613281 35.511719 C 54.898438 35.511719 55.109375 35.097656 55.109375 34.742188 C 55.109375 34.648438 54.996094 34.550781 54.898438 34.550781 L 47.492188 34.550781 C 47.15625 34.550781 47.109375 35.175781 47.109375 35.320312 C 47.109375 35.414062 47.21875 35.511719 47.332031 35.511719 Z M 47.332031 35.511719 "/>
<path style=" stroke:none;fill-rule:evenodd;fill:rgb(0%,0%,0%);fill-opacity:1;" d="M 61.269531 43.625 C 61.574219 43.625 61.800781 43.433594 61.800781 43.289062 C 61.800781 43.257812 62.054688 41.609375 62.679688 39.414062 C 65.558594 39.414062 68.101562 37.046875 68.101562 34.566406 C 68.101562 33.414062 67.71875 32.855469 67.046875 32.585938 C 67.109375 32.472656 67.128906 32.375 67.128906 32.265625 C 67.128906 31.910156 66.695312 31.496094 65.878906 31.496094 C 62.632812 31.496094 60.167969 34.007812 60.167969 36.632812 C 60.167969 37.894531 60.742188 38.902344 62.085938 39.367188 C 61.574219 40.902344 61 42.535156 60.824219 42.984375 C 60.792969 43.0625 60.792969 43.144531 60.792969 43.238281 C 60.792969 43.511719 60.984375 43.625 61.269531 43.625 Z M 62.421875 38.265625 C 61.382812 38.121094 60.742188 37.574219 60.742188 36.230469 C 60.742188 34.566406 62.933594 32.519531 65.269531 32.519531 C 64.039062 33.574219 63.03125 36.359375 62.421875 38.265625 Z M 63.015625 38.296875 C 63.480469 36.808594 64.792969 33.113281 66.375 33.113281 C 67.0625 33.113281 67.414062 33.960938 67.414062 34.855469 C 67.414062 36.679688 65.253906 38.296875 63.015625 38.296875 Z M 63.015625 38.296875 "/>
<path style=" stroke:none;fill-rule:evenodd;fill:rgb(0%,0%,0%);fill-opacity:1;" d="M 70.023438 46.425781 C 70.117188 46.425781 70.214844 46.375 70.296875 46.296875 C 71.542969 45.046875 73.496094 39.800781 73.496094 34.679688 C 73.496094 29.558594 71.605469 25.144531 70.359375 23.894531 C 70.261719 23.800781 70.085938 23.703125 69.925781 23.703125 C 69.816406 23.703125 69.574219 23.816406 69.574219 23.960938 C 69.574219 23.992188 69.75 24.246094 69.78125 24.28125 C 70.871094 25.527344 72.167969 29.367188 72.167969 34.488281 C 72.167969 39.609375 70.917969 44.503906 69.832031 45.753906 C 69.816406 45.785156 69.589844 46.039062 69.589844 46.070312 C 69.589844 46.296875 69.816406 46.425781 70.023438 46.425781 Z M 70.023438 46.425781 "/>
<path style=" stroke:none;fill-rule:evenodd;fill:rgb(0%,0%,0%);fill-opacity:1;" d="M 79.761719 39.304688 C 80.800781 39.304688 81.683594 38.726562 82.320312 37.6875 C 82.355469 37.640625 82.355469 37.59375 82.355469 37.558594 C 82.355469 37.464844 82.289062 37.398438 82.195312 37.398438 C 82.113281 37.398438 82.019531 37.449219 81.90625 37.574219 C 81.554688 37.960938 81.042969 38.441406 80.273438 38.441406 C 79.714844 38.441406 79.425781 38.023438 79.425781 37.273438 C 79.425781 36.777344 79.601562 36.183594 79.761719 35.71875 C 79.808594 35.59375 79.875 35.59375 80 35.558594 C 81.777344 35.222656 83.648438 34.664062 83.648438 33.320312 C 83.648438 32.777344 83.21875 32.441406 82.464844 32.441406 C 80.195312 32.441406 78.289062 35.496094 78.289062 37.640625 C 78.289062 38.390625 79.074219 39.304688 79.761719 39.304688 Z M 80.113281 35.191406 C 80.035156 35.191406 80 35.191406 80 35.097656 C 80 34.617188 81.410156 32.839844 82.289062 32.839844 C 82.5625 32.839844 82.722656 33.078125 82.722656 33.351562 C 82.722656 34.632812 80.59375 35.191406 80.113281 35.191406 Z M 80.113281 35.191406 "/>
<path style=" stroke:none;fill-rule:evenodd;fill:rgb(0%,0%,0%);fill-opacity:1;" d="M 88.65625 27.945312 C 88.714844 27.945312 88.800781 27.921875 88.832031 27.753906 C 88.914062 27.351562 89.074219 27.023438 89.074219 26.945312 C 89.074219 26.902344 89.066406 26.847656 89.019531 26.847656 C 88.929688 26.847656 88.859375 26.96875 88.816406 27.03125 C 88.617188 27.351562 88.515625 27.382812 88.058594 27.40625 C 87.769531 27.425781 87.449219 27.433594 87.144531 27.433594 C 86.851562 27.433594 86.617188 27.425781 86.441406 27.40625 C 86.378906 27.398438 86.328125 27.390625 86.328125 27.351562 C 86.328125 27.3125 87.648438 26.03125 88.011719 25.601562 C 88.347656 25.191406 88.59375 24.632812 88.59375 24.199219 C 88.59375 23.425781 88.113281 22.878906 87.3125 22.878906 C 86.410156 22.878906 85.753906 23.664062 85.753906 23.910156 C 85.753906 24.054688 85.832031 24.152344 85.875 24.152344 C 85.921875 24.152344 85.976562 24.105469 86.011719 24.039062 C 86.234375 23.65625 86.625 23.390625 87.066406 23.390625 C 87.523438 23.390625 87.921875 23.734375 87.921875 24.304688 C 87.921875 25.007812 87.53125 25.726562 86.992188 26.28125 L 85.625 27.695312 C 85.578125 27.742188 85.5625 27.753906 85.5625 27.800781 C 85.5625 27.847656 85.683594 27.9375 85.722656 27.9375 C 85.882812 27.9375 87.179688 27.894531 87.578125 27.894531 C 87.976562 27.894531 88.496094 27.945312 88.65625 27.945312 Z M 88.65625 27.945312 "/>
<path style=" stroke:none;fill-rule:nonzero;fill:rgb(0%,0%,0%);fill-opacity:1;" d="M 85.425781 29.65625 L 89.335938 29.65625 L 89.335938 30.214844 L 85.425781 30.214844 Z M 85.425781 29.65625 "/>
<path style=" stroke:none;fill-rule:evenodd;fill:rgb(0%,0%,0%);fill-opacity:1;" d="M 86.28125 36.664062 C 86.851562 36.664062 87.371094 36.519531 87.792969 36.28125 C 88.386719 35.9375 88.769531 35.398438 88.769531 34.816406 C 88.769531 34.167969 88.472656 33.777344 87.882812 33.464844 C 87.515625 33.273438 87.027344 33.105469 86.425781 32.929688 C 86.328125 32.902344 86.3125 32.847656 86.320312 32.777344 C 86.328125 32.648438 86.5625 32.160156 86.671875 32.144531 C 86.914062 32.105469 87.632812 32.046875 88.050781 32 C 88.1875 31.984375 88.273438 31.902344 88.347656 31.742188 L 88.480469 31.480469 C 88.523438 31.40625 88.472656 31.335938 88.394531 31.34375 C 87.769531 31.398438 87.226562 31.496094 86.738281 31.625 C 86.570312 31.664062 86.464844 31.753906 86.410156 31.910156 C 86.296875 32.265625 86.027344 32.894531 86.027344 33.183594 C 86.027344 33.328125 86.074219 33.433594 86.21875 33.550781 C 87.632812 33.921875 88.136719 34.3125 88.136719 34.929688 C 88.136719 35.617188 87.539062 36.414062 86.273438 36.414062 C 86.179688 36.414062 85.984375 36.488281 85.984375 36.566406 C 85.984375 36.640625 86.160156 36.664062 86.28125 36.664062 Z M 86.28125 36.664062 "/>
<path style=" stroke:none;fill-rule:evenodd;fill:rgb(0%,0%,0%);fill-opacity:1;" d="M 92.046875 32.882812 C 92.125 32.882812 92.269531 32.746094 92.394531 32.46875 C 92.773438 31.617188 93.335938 30.125 93.859375 29.074219 C 93.917969 28.960938 93.996094 28.90625 94.097656 28.917969 L 94.890625 28.984375 C 94.96875 28.996094 95.035156 29.039062 94.992188 29.164062 C 94.757812 29.800781 94.019531 31.660156 93.90625 32.132812 C 93.816406 32.511719 93.984375 32.894531 94.320312 32.894531 C 94.859375 32.894531 96.035156 31.828125 96.035156 31.359375 C 96.035156 31.324219 96 31.300781 95.964844 31.300781 C 95.945312 31.300781 95.933594 31.3125 95.921875 31.324219 C 95.496094 31.75 95.058594 31.996094 94.699219 31.996094 C 94.523438 31.996094 94.476562 31.839844 94.554688 31.570312 C 94.722656 30.988281 95.070312 29.8125 95.371094 29.140625 C 95.417969 29.039062 95.472656 29.019531 95.507812 29.019531 C 95.675781 29.019531 95.886719 29.039062 96.023438 29.039062 C 96.671875 29.039062 97.289062 28.355469 97.289062 27.976562 C 97.289062 27.851562 97.230469 27.796875 97.121094 27.796875 C 97.074219 27.796875 96.953125 27.988281 96.804688 28.078125 C 96.605469 28.199219 96.359375 28.210938 96.054688 28.210938 C 95.316406 28.210938 94.355469 28.144531 93.46875 28.144531 C 91.933594 28.144531 91.308594 28.984375 91.308594 29.734375 C 91.308594 29.890625 91.398438 30.058594 91.476562 30.058594 C 91.566406 30.058594 91.621094 29.957031 91.632812 29.859375 C 91.710938 29.1875 92.269531 28.761719 93.15625 28.828125 L 93.445312 28.847656 C 93.535156 28.859375 93.515625 28.9375 93.492188 28.996094 C 93.246094 29.621094 92.496094 31.035156 91.566406 32.332031 L 91.566406 32.558594 C 91.542969 32.667969 91.890625 32.882812 92.046875 32.882812 Z M 92.046875 32.882812 "/>
<path style=" stroke:none;fill-rule:evenodd;fill:rgb(0%,0%,0%);fill-opacity:1;" d="M 105.289062 19.054688 L 112.011719 19.054688 C 112.265625 19.054688 112.523438 18.65625 112.523438 18.433594 C 112.523438 18.335938 112.394531 18.257812 112.296875 18.257812 L 105.449219 18.257812 C 105.164062 18.257812 105.066406 18.71875 105.066406 18.863281 C 105.066406 18.960938 105.179688 19.054688 105.289062 19.054688 Z M 105.289062 21.792969 L 112.011719 21.792969 C 112.265625 21.792969 112.523438 21.457031 112.523438 21.167969 C 112.523438 21.070312 112.394531 20.992188 112.296875 20.992188 L 105.449219 20.992188 C 105.164062 20.992188 105.066406 21.457031 105.066406 21.601562 C 105.066406 21.695312 105.179688 21.792969 105.289062 21.792969 Z M 105.289062 21.792969 "/>
<path style=" stroke:none;fill-rule:evenodd;fill:rgb(0%,0%,0%);fill-opacity:1;" d="M 120.335938 24.128906 C 121.199219 24.128906 121.871094 24.046875 122.734375 24.046875 C 123.582031 24.046875 124.175781 24.128906 125.085938 24.128906 C 125.214844 24.128906 125.3125 24.046875 125.3125 23.953125 C 125.3125 23.855469 125.167969 23.777344 125.039062 23.742188 C 123.726562 23.425781 123.34375 23.34375 123.34375 22.527344 L 123.34375 15.167969 C 123.34375 14.71875 123.359375 14.351562 123.40625 14.03125 C 123.421875 13.953125 123.3125 13.886719 123.214844 13.886719 C 123.183594 13.886719 123.152344 13.886719 123.136719 13.902344 C 122.414062 14.625 121.695312 14.753906 120.734375 14.894531 C 120.511719 14.929688 120.335938 15.039062 120.335938 15.183594 C 120.335938 15.359375 120.542969 15.441406 120.75 15.457031 C 121.441406 15.503906 122.09375 15.617188 122.09375 16.222656 L 122.09375 22.335938 C 122.09375 23.28125 121.550781 23.425781 120.335938 23.726562 C 120.207031 23.761719 120.09375 23.855469 120.09375 23.9375 C 120.09375 24.03125 120.175781 24.128906 120.335938 24.128906 Z M 120.335938 24.128906 "/>
<path style=" stroke:none;fill-rule:evenodd;fill:rgb(0%,0%,0%);fill-opacity:1;" d="M 134.546875 24.207031 C 134.691406 24.207031 135.316406 24.160156 135.316406 23.824219 L 135.316406 20.59375 C 135.316406 20.542969 135.332031 20.527344 135.378906 20.527344 L 138.339844 20.527344 C 138.644531 20.527344 138.835938 20.160156 138.835938 19.886719 C 138.835938 19.792969 138.738281 19.726562 138.628906 19.726562 L 135.347656 19.726562 C 135.316406 19.726562 135.316406 19.710938 135.316406 19.632812 L 135.316406 16.574219 C 135.316406 16.464844 135.203125 16.367188 135.089844 16.367188 C 134.996094 16.367188 134.355469 16.511719 134.355469 16.863281 L 134.355469 19.601562 C 134.355469 19.695312 134.339844 19.726562 134.242188 19.726562 L 131.21875 19.726562 C 130.929688 19.726562 130.835938 20.191406 130.835938 20.335938 C 130.835938 20.433594 130.945312 20.527344 131.058594 20.527344 L 134.292969 20.527344 C 134.339844 20.527344 134.355469 20.558594 134.355469 20.609375 L 134.355469 23.984375 C 134.355469 24.097656 134.453125 24.207031 134.546875 24.207031 Z M 134.546875 24.207031 "/>
<path style=" stroke:none;fill-rule:evenodd;fill:rgb(0%,0%,0%);fill-opacity:1;" d="M 170.140625 14.175781 C 171.179688 14.175781 172.0625 13.601562 172.699219 12.558594 C 172.734375 12.511719 172.734375 12.464844 172.734375 12.433594 C 172.734375 12.335938 172.667969 12.273438 172.574219 12.273438 C 172.492188 12.273438 172.398438 12.320312 172.285156 12.449219 C 171.933594 12.832031 171.421875 13.3125 170.652344 13.3125 C 170.09375 13.3125 169.804688 12.894531 169.804688 12.144531 C 169.804688 11.648438 169.980469 11.054688 170.140625 10.59375 C 170.1875 10.464844 170.253906 10.464844 170.378906 10.433594 C 172.15625 10.097656 174.027344 9.535156 174.027344 8.191406 C 174.027344 7.648438 173.597656 7.3125 172.84375 7.3125 C 170.574219 7.3125 168.667969 10.367188 168.667969 12.511719 C 168.667969 13.265625 169.453125 14.175781 170.140625 14.175781 Z M 170.492188 10.0625 C 170.414062 10.0625 170.378906 10.0625 170.378906 9.96875 C 170.378906 9.488281 171.789062 7.710938 172.667969 7.710938 C 172.941406 7.710938 173.101562 7.953125 173.101562 8.222656 C 173.101562 9.503906 170.972656 10.0625 170.492188 10.0625 Z M 170.492188 10.0625 "/>
<path style=" stroke:none;fill-rule:evenodd;fill:rgb(0%,0%,0%);fill-opacity:1;" d="M 174.921875 4.570312 L 180.015625 4.570312 C 180.21875 4.570312 180.363281 4.277344 180.363281 4.03125 C 180.363281 3.964844 180.285156 3.898438 180.21875 3.898438 L 175.035156 3.898438 C 174.796875 3.898438 174.765625 4.335938 174.765625 4.433594 C 174.765625 4.503906 174.84375 4.570312 174.921875 4.570312 Z M 174.921875 4.570312 "/>
<path style=" stroke:none;fill-rule:evenodd;fill:rgb(0%,0%,0%);fill-opacity:1;" d="M 185.449219 7.089844 C 185.527344 7.089844 185.652344 7.054688 185.695312 6.820312 C 185.808594 6.261719 186.03125 5.800781 186.03125 5.691406 C 186.03125 5.632812 186.019531 5.554688 185.953125 5.554688 C 185.832031 5.554688 185.730469 5.722656 185.671875 5.8125 C 185.394531 6.261719 185.246094 6.304688 184.609375 6.339844 C 184.207031 6.363281 183.757812 6.371094 183.332031 6.371094 C 182.917969 6.371094 182.59375 6.363281 182.347656 6.339844 C 182.257812 6.328125 182.191406 6.316406 182.191406 6.261719 C 182.191406 6.203125 184.039062 4.414062 184.542969 3.808594 C 185.011719 3.238281 185.359375 2.453125 185.359375 1.847656 C 185.359375 0.761719 184.6875 0 183.566406 0 C 182.300781 0 181.382812 1.097656 181.382812 1.445312 C 181.382812 1.644531 181.496094 1.78125 181.550781 1.78125 C 181.617188 1.78125 181.699219 1.714844 181.742188 1.625 C 182.054688 1.085938 182.605469 0.71875 183.222656 0.71875 C 183.859375 0.71875 184.417969 1.199219 184.417969 1.992188 C 184.417969 2.980469 183.871094 3.988281 183.121094 4.761719 L 181.203125 6.742188 C 181.136719 6.808594 181.113281 6.820312 181.113281 6.886719 C 181.113281 6.957031 181.28125 7.078125 181.339844 7.078125 C 181.5625 7.078125 183.378906 7.023438 183.9375 7.023438 C 184.496094 7.023438 185.226562 7.089844 185.449219 7.089844 Z M 185.449219 7.089844 "/>
<path style=" stroke:none;fill-rule:evenodd;fill:rgb(0%,0%,0%);fill-opacity:1;" d="M 187.511719 7.203125 C 187.589844 7.203125 187.734375 7.066406 187.859375 6.789062 C 188.238281 5.9375 188.796875 4.445312 189.324219 3.394531 C 189.378906 3.28125 189.460938 3.226562 189.558594 3.238281 L 190.355469 3.304688 C 190.433594 3.316406 190.5 3.359375 190.457031 3.484375 C 190.222656 4.121094 189.480469 5.980469 189.371094 6.453125 C 189.28125 6.832031 189.449219 7.210938 189.785156 7.210938 C 190.320312 7.210938 191.496094 6.148438 191.496094 5.679688 C 191.496094 5.644531 191.464844 5.621094 191.429688 5.621094 C 191.40625 5.621094 191.398438 5.632812 191.386719 5.644531 C 190.960938 6.070312 190.523438 6.316406 190.164062 6.316406 C 189.984375 6.316406 189.941406 6.160156 190.019531 5.890625 C 190.1875 5.308594 190.535156 4.132812 190.835938 3.460938 C 190.882812 3.359375 190.9375 3.335938 190.972656 3.335938 C 191.140625 3.335938 191.351562 3.359375 191.484375 3.359375 C 192.136719 3.359375 192.75 2.675781 192.75 2.296875 C 192.75 2.171875 192.695312 2.117188 192.582031 2.117188 C 192.539062 2.117188 192.414062 2.308594 192.269531 2.398438 C 192.070312 2.519531 191.824219 2.53125 191.519531 2.53125 C 190.78125 2.53125 189.816406 2.464844 188.933594 2.464844 C 187.398438 2.464844 186.769531 3.304688 186.769531 4.054688 C 186.769531 4.210938 186.859375 4.378906 186.9375 4.378906 C 187.027344 4.378906 187.085938 4.277344 187.097656 4.175781 C 187.175781 3.503906 187.734375 3.078125 188.617188 3.148438 L 188.910156 3.167969 C 189 3.179688 188.976562 3.257812 188.957031 3.316406 C 188.707031 3.941406 187.957031 5.355469 187.027344 6.652344 L 187.027344 6.875 C 187.007812 6.988281 187.355469 7.203125 187.511719 7.203125 Z M 187.511719 7.203125 "/>
<path style=" stroke:none;fill-rule:nonzero;fill:rgb(0%,0%,0%);fill-opacity:1;" d="M 144.789062 19.679688 L 216.144531 19.679688 L 216.144531 20.480469 L 144.789062 20.480469 Z M 144.789062 19.679688 "/>
<path style=" stroke:none;fill-rule:evenodd;fill:rgb(0%,0%,0%);fill-opacity:1;" d="M 146.472656 38.304688 C 147.335938 38.304688 148.007812 38.222656 148.871094 38.222656 C 149.71875 38.222656 150.3125 38.304688 151.222656 38.304688 C 151.351562 38.304688 151.445312 38.222656 151.445312 38.128906 C 151.445312 38.03125 151.304688 37.953125 151.175781 37.921875 C 149.863281 37.601562 149.480469 37.519531 149.480469 36.703125 L 149.480469 29.34375 C 149.480469 28.894531 149.496094 28.527344 149.542969 28.207031 C 149.558594 28.128906 149.445312 28.0625 149.351562 28.0625 C 149.320312 28.0625 149.285156 28.0625 149.269531 28.078125 C 148.550781 28.800781 147.832031 28.929688 146.871094 29.070312 C 146.648438 29.105469 146.472656 29.214844 146.472656 29.359375 C 146.472656 29.535156 146.679688 29.617188 146.886719 29.632812 C 147.574219 29.679688 148.230469 29.792969 148.230469 30.398438 L 148.230469 36.511719 C 148.230469 37.457031 147.6875 37.601562 146.472656 37.902344 C 146.34375 37.9375 146.230469 38.03125 146.230469 38.113281 C 146.230469 38.207031 146.3125 38.304688 146.472656 38.304688 Z M 146.472656 38.304688 "/>
<path style=" stroke:none;fill-rule:evenodd;fill:rgb(0%,0%,0%);fill-opacity:1;" d="M 160.683594 38.382812 C 160.828125 38.382812 161.449219 38.335938 161.449219 38 L 161.449219 34.769531 C 161.449219 34.71875 161.464844 34.703125 161.515625 34.703125 L 164.472656 34.703125 C 164.777344 34.703125 164.96875 34.335938 164.96875 34.0625 C 164.96875 33.96875 164.875 33.902344 164.761719 33.902344 L 161.480469 33.902344 C 161.449219 33.902344 161.449219 33.886719 161.449219 33.808594 L 161.449219 30.753906 C 161.449219 30.640625 161.339844 30.542969 161.226562 30.542969 C 161.128906 30.542969 160.492188 30.6875 160.492188 31.039062 L 160.492188 33.777344 C 160.492188 33.871094 160.472656 33.902344 160.378906 33.902344 L 157.355469 33.902344 C 157.066406 33.902344 156.96875 34.367188 156.96875 34.511719 C 156.96875 34.609375 157.082031 34.703125 157.195312 34.703125 L 160.425781 34.703125 C 160.472656 34.703125 160.492188 34.734375 160.492188 34.785156 L 160.492188 38.160156 C 160.492188 38.273438 160.585938 38.382812 160.683594 38.382812 Z M 160.683594 38.382812 "/>
<path style=" stroke:none;fill-rule:evenodd;fill:rgb(0%,0%,0%);fill-opacity:1;" d="M 185.375 31.542969 C 186.101562 31.542969 186.71875 31.140625 187.164062 30.414062 C 187.1875 30.378906 187.1875 30.34375 187.1875 30.324219 C 187.1875 30.257812 187.144531 30.210938 187.078125 30.210938 C 187.019531 30.210938 186.953125 30.246094 186.875 30.335938 C 186.628906 30.601562 186.269531 30.9375 185.730469 30.9375 C 185.339844 30.9375 185.140625 30.648438 185.140625 30.121094 C 185.140625 29.773438 185.261719 29.359375 185.375 29.035156 C 185.40625 28.945312 185.453125 28.945312 185.542969 28.921875 C 186.785156 28.6875 188.09375 28.296875 188.09375 27.355469 C 188.09375 26.972656 187.792969 26.738281 187.265625 26.738281 C 185.675781 26.738281 184.34375 28.878906 184.34375 30.378906 C 184.34375 30.90625 184.890625 31.542969 185.375 31.542969 Z M 185.621094 28.664062 C 185.5625 28.664062 185.542969 28.664062 185.542969 28.597656 C 185.542969 28.261719 186.527344 27.019531 187.144531 27.019531 C 187.332031 27.019531 187.445312 27.1875 187.445312 27.378906 C 187.445312 28.273438 185.957031 28.664062 185.621094 28.664062 Z M 185.621094 28.664062 "/>
<path style=" stroke:none;fill-rule:evenodd;fill:rgb(0%,0%,0%);fill-opacity:1;" d="M 188.730469 26.238281 L 192.371094 26.238281 C 192.515625 26.238281 192.617188 26.03125 192.617188 25.855469 C 192.617188 25.808594 192.5625 25.761719 192.515625 25.761719 L 188.8125 25.761719 C 188.644531 25.761719 188.617188 26.070312 188.617188 26.144531 C 188.617188 26.191406 188.675781 26.238281 188.730469 26.238281 Z M 188.730469 26.238281 "/>
<path style=" stroke:none;fill-rule:evenodd;fill:rgb(0%,0%,0%);fill-opacity:1;" d="M 194.625 28.039062 C 195.058594 28.039062 195.140625 28 195.546875 28 C 195.921875 28 195.996094 28.039062 196.449219 28.039062 C 196.515625 28.039062 196.570312 28 196.570312 27.953125 C 196.570312 27.902344 196.492188 27.855469 196.425781 27.839844 C 195.996094 27.726562 195.890625 27.65625 195.890625 27.34375 L 195.890625 26.59375 C 195.890625 26.585938 195.953125 26.550781 195.996094 26.542969 C 196.058594 26.535156 196.148438 26.527344 196.242188 26.527344 C 196.371094 26.527344 196.515625 26.535156 196.632812 26.535156 C 196.667969 26.535156 196.800781 26.359375 196.800781 26.230469 C 196.800781 26.199219 196.761719 26.167969 196.714844 26.167969 C 196.539062 26.175781 196.394531 26.183594 196.242188 26.183594 C 196.148438 26.183594 196.042969 26.183594 195.921875 26.175781 C 195.898438 26.175781 195.882812 26.152344 195.882812 26.128906 L 195.882812 25.097656 C 195.882812 24.761719 195.882812 24.585938 195.761719 24.585938 C 195.691406 24.585938 195.476562 24.601562 195.316406 24.6875 C 195.25 24.71875 195.242188 24.753906 195.242188 24.863281 L 195.242188 26.105469 C 195.242188 26.136719 195.1875 26.167969 195.148438 26.167969 L 193.761719 26.167969 C 193.730469 26.167969 193.746094 26.121094 193.761719 26.097656 L 195.921875 22.992188 C 195.921875 22.992188 195.988281 22.878906 195.9375 22.878906 L 195.769531 22.878906 C 195.691406 22.878906 195.59375 23.007812 195.53125 23.105469 L 193.417969 26.136719 C 193.316406 26.28125 193.308594 26.265625 193.105469 26.511719 C 193.097656 26.519531 193.097656 26.527344 193.097656 26.535156 C 193.097656 26.566406 193.140625 26.617188 193.179688 26.617188 C 194.019531 26.609375 194.464844 26.558594 195.121094 26.558594 C 195.128906 26.558594 195.242188 26.585938 195.242188 26.632812 L 195.242188 27.375 C 195.242188 27.632812 195.121094 27.777344 194.625 27.839844 C 194.5625 27.847656 194.484375 27.878906 194.484375 27.9375 C 194.484375 28.007812 194.570312 28.039062 194.625 28.039062 Z M 194.625 28.039062 "/>
<path style=" stroke:none;fill-rule:evenodd;fill:rgb(0%,0%,0%);fill-opacity:1;" d="M 197.722656 28.121094 C 197.777344 28.121094 197.882812 28.023438 197.96875 27.824219 C 198.242188 27.214844 198.644531 26.152344 199.019531 25.398438 C 199.058594 25.320312 199.113281 25.28125 199.1875 25.289062 L 199.753906 25.335938 C 199.8125 25.34375 199.859375 25.375 199.828125 25.464844 C 199.660156 25.921875 199.128906 27.246094 199.050781 27.585938 C 198.988281 27.855469 199.105469 28.128906 199.347656 28.128906 C 199.730469 28.128906 200.570312 27.367188 200.570312 27.03125 C 200.570312 27.007812 200.546875 26.992188 200.523438 26.992188 C 200.507812 26.992188 200.5 27 200.492188 27.007812 C 200.1875 27.3125 199.875 27.488281 199.617188 27.488281 C 199.492188 27.488281 199.457031 27.375 199.515625 27.183594 C 199.632812 26.769531 199.882812 25.929688 200.097656 25.449219 C 200.128906 25.375 200.171875 25.359375 200.195312 25.359375 C 200.316406 25.359375 200.464844 25.375 200.5625 25.375 C 201.027344 25.375 201.464844 24.886719 201.464844 24.617188 C 201.464844 24.527344 201.425781 24.488281 201.347656 24.488281 C 201.316406 24.488281 201.226562 24.625 201.121094 24.6875 C 200.980469 24.777344 200.800781 24.785156 200.585938 24.785156 C 200.058594 24.785156 199.371094 24.734375 198.738281 24.734375 C 197.644531 24.734375 197.195312 25.335938 197.195312 25.871094 C 197.195312 25.984375 197.257812 26.105469 197.316406 26.105469 C 197.378906 26.105469 197.417969 26.03125 197.425781 25.960938 C 197.484375 25.480469 197.882812 25.175781 198.515625 25.222656 L 198.722656 25.238281 C 198.785156 25.246094 198.769531 25.304688 198.753906 25.34375 C 198.578125 25.792969 198.042969 26.800781 197.378906 27.726562 L 197.378906 27.886719 C 197.363281 27.96875 197.609375 28.121094 197.722656 28.121094 Z M 197.722656 28.121094 "/>
<path style=" stroke:none;fill-rule:nonzero;fill:rgb(0%,0%,0%);fill-opacity:1;" d="M 170.925781 33.855469 L 214.546875 33.855469 L 214.546875 34.65625 L 170.925781 34.65625 Z M 170.925781 33.855469 "/>
<path style=" stroke:none;fill-rule:evenodd;fill:rgb(0%,0%,0%);fill-opacity:1;" d="M 172.101562 48.65625 C 172.707031 48.65625 173.175781 48.601562 173.78125 48.601562 C 174.375 48.601562 174.789062 48.65625 175.429688 48.65625 C 175.519531 48.65625 175.585938 48.601562 175.585938 48.535156 C 175.585938 48.46875 175.484375 48.410156 175.394531 48.390625 C 174.476562 48.164062 174.207031 48.109375 174.207031 47.539062 L 174.207031 42.386719 C 174.207031 42.070312 174.21875 41.8125 174.253906 41.589844 C 174.261719 41.535156 174.183594 41.488281 174.117188 41.488281 C 174.09375 41.488281 174.074219 41.488281 174.0625 41.5 C 173.558594 42.003906 173.054688 42.09375 172.382812 42.195312 C 172.226562 42.21875 172.101562 42.296875 172.101562 42.398438 C 172.101562 42.519531 172.246094 42.574219 172.394531 42.585938 C 172.875 42.621094 173.332031 42.699219 173.332031 43.125 L 173.332031 47.402344 C 173.332031 48.0625 172.953125 48.164062 172.101562 48.378906 C 172.011719 48.398438 171.933594 48.46875 171.933594 48.523438 C 171.933594 48.589844 171.988281 48.65625 172.101562 48.65625 Z M 172.101562 48.65625 "/>
<path style=" stroke:none;fill-rule:evenodd;fill:rgb(0%,0%,0%);fill-opacity:1;" d="M 179.5625 48.714844 C 179.660156 48.714844 180.097656 48.679688 180.097656 48.445312 L 180.097656 46.183594 C 180.097656 46.148438 180.109375 46.136719 180.144531 46.136719 L 182.214844 46.136719 C 182.429688 46.136719 182.5625 45.878906 182.5625 45.691406 C 182.5625 45.621094 182.496094 45.578125 182.417969 45.578125 L 180.121094 45.578125 C 180.097656 45.578125 180.097656 45.566406 180.097656 45.511719 L 180.097656 43.371094 C 180.097656 43.292969 180.019531 43.226562 179.941406 43.226562 C 179.875 43.226562 179.425781 43.328125 179.425781 43.574219 L 179.425781 45.488281 C 179.425781 45.554688 179.414062 45.578125 179.347656 45.578125 L 177.230469 45.578125 C 177.03125 45.578125 176.960938 45.902344 176.960938 46.003906 C 176.960938 46.070312 177.042969 46.136719 177.121094 46.136719 L 179.382812 46.136719 C 179.414062 46.136719 179.425781 46.160156 179.425781 46.195312 L 179.425781 48.558594 C 179.425781 48.636719 179.492188 48.714844 179.5625 48.714844 Z M 179.5625 48.714844 "/>
<path style=" stroke:none;fill-rule:evenodd;fill:rgb(0%,0%,0%);fill-opacity:1;" d="M 191.679688 43.929688 C 192.199219 43.929688 192.640625 43.640625 192.957031 43.121094 C 192.976562 43.097656 192.976562 43.070312 192.976562 43.054688 C 192.976562 43.007812 192.941406 42.976562 192.894531 42.976562 C 192.855469 42.976562 192.808594 43 192.75 43.0625 C 192.574219 43.257812 192.320312 43.496094 191.933594 43.496094 C 191.65625 43.496094 191.511719 43.289062 191.511719 42.910156 C 191.511719 42.664062 191.597656 42.367188 191.679688 42.136719 C 191.703125 42.070312 191.734375 42.070312 191.796875 42.054688 C 192.6875 41.886719 193.621094 41.609375 193.621094 40.9375 C 193.621094 40.664062 193.40625 40.496094 193.03125 40.496094 C 191.894531 40.496094 190.941406 42.023438 190.941406 43.097656 C 190.941406 43.472656 191.335938 43.929688 191.679688 43.929688 Z M 191.855469 41.871094 C 191.816406 41.871094 191.796875 41.871094 191.796875 41.824219 C 191.796875 41.585938 192.503906 40.695312 192.941406 40.695312 C 193.078125 40.695312 193.160156 40.816406 193.160156 40.953125 C 193.160156 41.59375 192.09375 41.871094 191.855469 41.871094 Z M 191.855469 41.871094 "/>
<path style=" stroke:none;fill-rule:evenodd;fill:rgb(0%,0%,0%);fill-opacity:1;" d="M 194.222656 39.632812 L 197.863281 39.632812 C 198.007812 39.632812 198.109375 39.425781 198.109375 39.246094 C 198.109375 39.199219 198.054688 39.152344 198.007812 39.152344 L 194.300781 39.152344 C 194.132812 39.152344 194.109375 39.464844 194.109375 39.535156 C 194.109375 39.585938 194.167969 39.632812 194.222656 39.632812 Z M 194.222656 39.632812 "/>
<path style=" stroke:none;fill-rule:evenodd;fill:rgb(0%,0%,0%);fill-opacity:1;" d="M 200.480469 41.535156 C 201.253906 41.535156 202.117188 40.886719 202.117188 39.886719 C 202.117188 39.3125 201.621094 38.902344 201.070312 38.902344 C 200.773438 38.902344 200.40625 39.078125 200.285156 39.167969 C 200.199219 39.230469 200.152344 39.273438 200.070312 39.359375 C 200.015625 39.425781 200.03125 39.496094 200.125 39.449219 C 200.3125 39.351562 200.488281 39.328125 200.765625 39.328125 C 201.191406 39.328125 201.496094 39.785156 201.496094 40.273438 C 201.496094 40.9375 201.101562 41.238281 200.671875 41.230469 C 200.144531 41.222656 199.542969 40.734375 199.527344 39.847656 C 199.527344 39.015625 200 38.144531 200.261719 37.761719 C 200.671875 37.175781 201.160156 36.808594 201.878906 36.496094 C 201.933594 36.472656 202.039062 36.433594 202.085938 36.335938 C 202.101562 36.304688 202.039062 36.257812 201.941406 36.28125 C 200.957031 36.542969 200.207031 37.183594 199.808594 37.59375 C 199.503906 37.894531 198.839844 38.671875 198.839844 39.863281 C 198.839844 40.984375 199.65625 41.535156 200.480469 41.535156 Z M 200.480469 41.535156 "/>
<path style=" stroke:none;fill-rule:evenodd;fill:rgb(0%,0%,0%);fill-opacity:1;" d="M 203.214844 41.511719 C 203.269531 41.511719 203.375 41.414062 203.460938 41.214844 C 203.734375 40.609375 204.132812 39.542969 204.511719 38.792969 C 204.550781 38.710938 204.605469 38.671875 204.679688 38.679688 L 205.246094 38.726562 C 205.300781 38.734375 205.351562 38.769531 205.320312 38.855469 C 205.152344 39.3125 204.621094 40.640625 204.542969 40.976562 C 204.480469 41.246094 204.597656 41.519531 204.839844 41.519531 C 205.222656 41.519531 206.0625 40.761719 206.0625 40.425781 C 206.0625 40.398438 206.039062 40.382812 206.015625 40.382812 C 206 40.382812 205.992188 40.390625 205.984375 40.398438 C 205.679688 40.703125 205.367188 40.878906 205.109375 40.878906 C 204.984375 40.878906 204.949219 40.769531 205.007812 40.574219 C 205.125 40.160156 205.375 39.320312 205.589844 38.839844 C 205.621094 38.769531 205.664062 38.753906 205.6875 38.753906 C 205.808594 38.753906 205.957031 38.769531 206.054688 38.769531 C 206.519531 38.769531 206.957031 38.28125 206.957031 38.007812 C 206.957031 37.921875 206.917969 37.878906 206.839844 37.878906 C 206.808594 37.878906 206.71875 38.015625 206.613281 38.078125 C 206.46875 38.167969 206.292969 38.175781 206.078125 38.175781 C 205.550781 38.175781 204.863281 38.128906 204.230469 38.128906 C 203.132812 38.128906 202.6875 38.726562 202.6875 39.265625 C 202.6875 39.375 202.75 39.496094 202.808594 39.496094 C 202.871094 39.496094 202.910156 39.425781 202.917969 39.351562 C 202.976562 38.871094 203.375 38.566406 204.007812 38.617188 L 204.214844 38.632812 C 204.277344 38.640625 204.261719 38.695312 204.246094 38.734375 C 204.070312 39.183594 203.535156 40.191406 202.871094 41.121094 L 202.871094 41.28125 C 202.855469 41.359375 203.101562 41.511719 203.214844 41.511719 Z M 203.214844 41.511719 "/>
<path style=" stroke:none;fill-rule:nonzero;fill:rgb(0%,0%,0%);fill-opacity:1;" d="M 184.722656 45.542969 L 212.945312 45.542969 L 212.945312 46.101562 L 184.722656 46.101562 Z M 184.722656 45.542969 "/>
<path style=" stroke:none;fill-rule:evenodd;fill:rgb(0%,0%,0%);fill-opacity:1;" d="M 185.5625 58.128906 C 185.996094 58.128906 186.332031 58.089844 186.761719 58.089844 C 187.1875 58.089844 187.484375 58.128906 187.9375 58.128906 C 188.003906 58.128906 188.050781 58.089844 188.050781 58.039062 C 188.050781 57.992188 187.980469 57.953125 187.914062 57.9375 C 187.257812 57.777344 187.066406 57.734375 187.066406 57.328125 L 187.066406 53.648438 C 187.066406 53.425781 187.074219 53.238281 187.097656 53.078125 C 187.105469 53.039062 187.050781 53.007812 187.003906 53.007812 C 186.988281 53.007812 186.96875 53.007812 186.960938 53.015625 C 186.601562 53.375 186.242188 53.441406 185.761719 53.511719 C 185.652344 53.527344 185.5625 53.585938 185.5625 53.65625 C 185.5625 53.742188 185.667969 53.785156 185.769531 53.792969 C 186.113281 53.816406 186.441406 53.871094 186.441406 54.175781 L 186.441406 57.230469 C 186.441406 57.703125 186.171875 57.777344 185.5625 57.929688 C 185.5 57.945312 185.441406 57.992188 185.441406 58.03125 C 185.441406 58.078125 185.484375 58.128906 185.5625 58.128906 Z M 185.5625 58.128906 "/>
<path style=" stroke:none;fill-rule:evenodd;fill:rgb(0%,0%,0%);fill-opacity:1;" d="M 190.890625 58.167969 C 190.960938 58.167969 191.273438 58.144531 191.273438 57.976562 L 191.273438 56.359375 C 191.273438 56.335938 191.28125 56.328125 191.308594 56.328125 L 192.785156 56.328125 C 192.9375 56.328125 193.035156 56.144531 193.035156 56.007812 C 193.035156 55.960938 192.988281 55.929688 192.929688 55.929688 L 191.289062 55.929688 C 191.273438 55.929688 191.273438 55.921875 191.273438 55.878906 L 191.273438 54.351562 C 191.273438 54.296875 191.21875 54.246094 191.164062 54.246094 C 191.113281 54.246094 190.792969 54.320312 190.792969 54.496094 L 190.792969 55.863281 C 190.792969 55.910156 190.785156 55.929688 190.738281 55.929688 L 189.226562 55.929688 C 189.082031 55.929688 189.035156 56.160156 189.035156 56.230469 C 189.035156 56.28125 189.089844 56.328125 189.148438 56.328125 L 190.761719 56.328125 C 190.785156 56.328125 190.792969 56.34375 190.792969 56.367188 L 190.792969 58.054688 C 190.792969 58.113281 190.84375 58.167969 190.890625 58.167969 Z M 190.890625 58.167969 "/>
<path style=" stroke:none;fill-rule:evenodd;fill:rgb(0%,0%,0%);fill-opacity:1;" d="M 196.035156 54.785156 C 196.554688 54.785156 196.996094 54.496094 197.316406 53.976562 C 197.332031 53.953125 197.332031 53.929688 197.332031 53.910156 C 197.332031 53.863281 197.296875 53.832031 197.25 53.832031 C 197.210938 53.832031 197.164062 53.855469 197.105469 53.921875 C 196.929688 54.113281 196.675781 54.351562 196.289062 54.351562 C 196.011719 54.351562 195.867188 54.144531 195.867188 53.769531 C 195.867188 53.519531 195.953125 53.222656 196.035156 52.992188 C 196.058594 52.929688 196.089844 52.929688 196.15625 52.910156 C 197.042969 52.742188 197.980469 52.464844 197.980469 51.792969 C 197.980469 51.519531 197.761719 51.351562 197.386719 51.351562 C 196.25 51.351562 195.296875 52.878906 195.296875 53.953125 C 195.296875 54.328125 195.691406 54.785156 196.035156 54.785156 Z M 196.210938 52.726562 C 196.171875 52.726562 196.15625 52.726562 196.15625 52.679688 C 196.15625 52.441406 196.859375 51.550781 197.296875 51.550781 C 197.433594 51.550781 197.515625 51.671875 197.515625 51.808594 C 197.515625 52.449219 196.449219 52.726562 196.210938 52.726562 Z M 196.210938 52.726562 "/>
<path style=" stroke:none;fill-rule:evenodd;fill:rgb(0%,0%,0%);fill-opacity:1;" d="M 198.578125 50.488281 L 202.21875 50.488281 C 202.363281 50.488281 202.464844 50.28125 202.464844 50.105469 C 202.464844 50.054688 202.410156 50.007812 202.363281 50.007812 L 198.660156 50.007812 C 198.492188 50.007812 198.464844 50.320312 198.464844 50.390625 C 198.464844 50.441406 198.523438 50.488281 198.578125 50.488281 Z M 198.578125 50.488281 "/>
<path style=" stroke:none;fill-rule:evenodd;fill:rgb(0%,0%,0%);fill-opacity:1;" d="M 204.746094 52.375 C 205.53125 52.375 206.324219 51.785156 206.324219 50.953125 C 206.324219 50.335938 205.890625 49.984375 205.289062 49.566406 C 205.203125 49.511719 205.195312 49.496094 205.332031 49.398438 C 205.515625 49.265625 205.601562 49.191406 205.753906 49.0625 C 205.9375 48.902344 206.179688 48.679688 206.179688 48.296875 C 206.179688 47.648438 205.546875 47.222656 204.90625 47.222656 C 204.195312 47.222656 203.449219 47.726562 203.449219 48.351562 C 203.449219 49.03125 203.898438 49.335938 204.378906 49.742188 C 204.441406 49.800781 204.476562 49.808594 204.402344 49.847656 C 203.996094 50.070312 203.332031 50.433594 203.332031 51.136719 C 203.332031 51.871094 204.011719 52.375 204.746094 52.375 Z M 205.113281 49.398438 C 205.082031 49.425781 205.035156 49.398438 205.003906 49.375 C 204.441406 48.921875 204.066406 48.808594 204.066406 48.191406 C 204.066406 47.761719 204.5 47.414062 204.867188 47.414062 C 205.332031 47.414062 205.5625 47.792969 205.5625 48.238281 C 205.5625 48.726562 205.484375 49.097656 205.113281 49.398438 Z M 204.859375 52.144531 C 204.296875 52.144531 203.96875 51.566406 203.96875 51.007812 C 203.96875 50.496094 204.140625 50.273438 204.484375 49.992188 C 204.523438 49.960938 204.554688 49.945312 204.578125 49.945312 C 204.625 49.945312 204.675781 49.976562 204.738281 50.023438 C 205.203125 50.34375 205.683594 50.777344 205.683594 51.273438 C 205.683594 51.742188 205.332031 52.144531 204.859375 52.144531 Z M 204.859375 52.144531 "/>
<path style=" stroke:none;fill-rule:evenodd;fill:rgb(0%,0%,0%);fill-opacity:1;" d="M 207.570312 52.367188 C 207.625 52.367188 207.730469 52.273438 207.820312 52.070312 C 208.089844 51.464844 208.492188 50.398438 208.867188 49.648438 C 208.90625 49.566406 208.960938 49.527344 209.035156 49.535156 L 209.601562 49.585938 C 209.660156 49.59375 209.707031 49.625 209.675781 49.710938 C 209.507812 50.167969 208.980469 51.496094 208.898438 51.832031 C 208.835938 52.105469 208.953125 52.375 209.195312 52.375 C 209.578125 52.375 210.417969 51.617188 210.417969 51.28125 C 210.417969 51.257812 210.394531 51.238281 210.371094 51.238281 C 210.355469 51.238281 210.347656 51.246094 210.339844 51.257812 C 210.035156 51.558594 209.722656 51.734375 209.464844 51.734375 C 209.339844 51.734375 209.308594 51.625 209.363281 51.433594 C 209.484375 51.015625 209.730469 50.175781 209.945312 49.695312 C 209.980469 49.625 210.019531 49.609375 210.042969 49.609375 C 210.164062 49.609375 210.316406 49.625 210.410156 49.625 C 210.875 49.625 211.316406 49.136719 211.316406 48.863281 C 211.316406 48.777344 211.273438 48.734375 211.195312 48.734375 C 211.164062 48.734375 211.074219 48.871094 210.96875 48.9375 C 210.828125 49.023438 210.652344 49.03125 210.433594 49.03125 C 209.90625 49.03125 209.21875 48.984375 208.585938 48.984375 C 207.492188 48.984375 207.042969 49.585938 207.042969 50.121094 C 207.042969 50.230469 207.105469 50.351562 207.164062 50.351562 C 207.226562 50.351562 207.265625 50.28125 207.273438 50.207031 C 207.332031 49.726562 207.730469 49.425781 208.363281 49.472656 L 208.570312 49.488281 C 208.632812 49.496094 208.617188 49.550781 208.601562 49.59375 C 208.425781 50.039062 207.890625 51.046875 207.226562 51.976562 L 207.226562 52.136719 C 207.210938 52.214844 207.457031 52.367188 207.570312 52.367188 Z M 207.570312 52.367188 "/>
<path style=" stroke:none;fill-rule:nonzero;fill:rgb(0%,0%,0%);fill-opacity:1;" d="M 195.035156 55.902344 L 211.347656 55.902344 L 211.347656 56.300781 L 195.035156 56.300781 Z M 195.035156 55.902344 "/>
<path style=" stroke:none;fill-rule:evenodd;fill:rgb(0%,0%,0%);fill-opacity:1;" d="M 197.15625 62.222656 C 197.585938 62.222656 197.921875 62.183594 198.355469 62.183594 C 198.777344 62.183594 199.074219 62.222656 199.53125 62.222656 C 199.59375 62.222656 199.644531 62.183594 199.644531 62.136719 C 199.644531 62.089844 199.570312 62.046875 199.507812 62.03125 C 198.851562 61.871094 198.660156 61.832031 198.660156 61.425781 L 198.660156 57.742188 C 198.660156 57.519531 198.667969 57.335938 198.691406 57.175781 C 198.699219 57.136719 198.644531 57.105469 198.59375 57.105469 C 198.578125 57.105469 198.5625 57.105469 198.554688 57.113281 C 198.195312 57.472656 197.835938 57.535156 197.355469 57.609375 C 197.242188 57.625 197.15625 57.679688 197.15625 57.753906 C 197.15625 57.839844 197.257812 57.878906 197.363281 57.886719 C 197.707031 57.910156 198.035156 57.96875 198.035156 58.273438 L 198.035156 61.328125 C 198.035156 61.800781 197.761719 61.871094 197.15625 62.023438 C 197.089844 62.039062 197.035156 62.089844 197.035156 62.128906 C 197.035156 62.175781 197.074219 62.222656 197.15625 62.222656 Z M 197.15625 62.222656 "/>
<path style=" stroke:none;fill-rule:evenodd;fill:rgb(0%,0%,0%);fill-opacity:1;" d="M 202.484375 62.265625 C 202.554688 62.265625 202.867188 62.238281 202.867188 62.070312 L 202.867188 60.457031 C 202.867188 60.433594 202.875 60.425781 202.898438 60.425781 L 204.378906 60.425781 C 204.53125 60.425781 204.625 60.238281 204.625 60.105469 C 204.625 60.054688 204.578125 60.023438 204.523438 60.023438 L 202.882812 60.023438 C 202.867188 60.023438 202.867188 60.015625 202.867188 59.976562 L 202.867188 58.449219 C 202.867188 58.390625 202.8125 58.34375 202.753906 58.34375 C 202.707031 58.34375 202.386719 58.414062 202.386719 58.59375 L 202.386719 59.960938 C 202.386719 60.007812 202.378906 60.023438 202.332031 60.023438 L 200.820312 60.023438 C 200.675781 60.023438 200.625 60.257812 200.625 60.328125 C 200.625 60.375 200.683594 60.425781 200.738281 60.425781 L 202.355469 60.425781 C 202.378906 60.425781 202.386719 60.441406 202.386719 60.464844 L 202.386719 62.152344 C 202.386719 62.207031 202.433594 62.265625 202.484375 62.265625 Z M 202.484375 62.265625 "/>
<path style=" stroke:none;fill-rule:evenodd;fill:rgb(0%,0%,0%);fill-opacity:1;" d="M 209.226562 61 C 209.464844 61 209.667969 60.800781 209.667969 60.558594 C 209.667969 60.320312 209.464844 60.121094 209.226562 60.121094 C 208.988281 60.121094 208.785156 60.320312 208.785156 60.558594 C 208.785156 60.800781 208.988281 61 209.226562 61 Z M 207.539062 61 C 207.777344 61 207.980469 60.800781 207.980469 60.558594 C 207.980469 60.320312 207.777344 60.121094 207.539062 60.121094 C 207.296875 60.121094 207.097656 60.320312 207.097656 60.558594 C 207.097656 60.800781 207.296875 61 207.539062 61 Z M 205.867188 61 C 206.105469 61 206.308594 60.800781 206.308594 60.558594 C 206.308594 60.320312 206.105469 60.121094 205.867188 60.121094 C 205.625 60.121094 205.425781 60.320312 205.425781 60.558594 C 205.425781 60.800781 205.625 61 205.867188 61 Z M 205.867188 61 "/>
</g>
</svg>
