<?xml version="1.0" encoding="UTF-8"?>
<svg xmlns="http://www.w3.org/2000/svg" xmlns:xlink="http://www.w3.org/1999/xlink" width="193.842141pt" height="46.566402pt" viewBox="0 0 193.842141 46.566402" version="1.1">
<g id="surface1">
<path style=" stroke:none;fill-rule:evenodd;fill:rgb(0%,0%,0%);fill-opacity:1;" d="M 3.519531 44.9375 L 3.519531 6.488281 C 3.519531 6.167969 3.214844 5.992188 2.894531 5.992188 C 2.800781 5.992188 2.6875 6.121094 2.6875 6.246094 L 2.6875 44.695312 C 2.6875 45.015625 2.992188 45.191406 3.3125 45.191406 C 3.40625 45.191406 3.519531 45.0625 3.519531 44.9375 Z M 3.519531 44.9375 "/>
<path style=" stroke:none;fill-rule:evenodd;fill:rgb(0%,0%,0%);fill-opacity:1;" d="M 7.742188 14.96875 C 7.742188 15.160156 15.3125 23.894531 16.71875 25.65625 C 16.769531 25.71875 16.785156 25.769531 16.734375 25.832031 C 15.425781 27.398438 7.488281 36.425781 7.488281 36.585938 C 7.488281 36.742188 7.679688 36.824219 7.824219 36.824219 C 8.59375 36.824219 8.816406 36.742188 9.617188 36.726562 C 10.191406 36.710938 15.664062 36.710938 16.335938 36.710938 C 17.246094 36.710938 21.488281 36.710938 22.511719 36.726562 C 22.960938 36.726562 23.3125 36.808594 23.792969 36.808594 C 23.953125 36.808594 23.984375 36.679688 24.015625 36.535156 C 24.097656 36.136719 24.65625 34.328125 24.945312 33.511719 C 24.945312 33.496094 24.960938 33.464844 24.960938 33.449219 C 24.960938 33.367188 24.894531 33.304688 24.816406 33.304688 C 24.609375 33.304688 24.464844 33.558594 24.320312 33.816406 C 23.871094 34.664062 23.328125 35.320312 22.414062 35.320312 C 21.023438 35.320312 10.847656 35.382812 9.886719 35.257812 C 9.710938 35.238281 9.648438 35.113281 9.761719 34.984375 L 18.144531 25.257812 C 18.207031 25.175781 18.320312 25.0625 18.160156 24.902344 C 17.121094 23.769531 11.425781 17.128906 10.320312 15.71875 C 10.289062 15.671875 10.257812 15.625 10.257812 15.574219 C 10.257812 15.511719 10.320312 15.464844 10.558594 15.464844 C 11.632812 15.464844 20.703125 15.496094 21.664062 15.558594 C 22.175781 15.59375 22.769531 16.136719 23.054688 16.921875 C 23.136719 17.113281 23.167969 17.433594 23.40625 17.433594 C 23.535156 17.433594 23.566406 17.320312 23.566406 17.175781 C 23.566406 17.0625 23.550781 16.9375 23.535156 16.824219 C 23.472656 16.457031 23.246094 15.304688 23.152344 14.632812 C 23.121094 14.390625 22.992188 14.359375 22.910156 14.359375 C 22.832031 14.359375 22.671875 14.457031 22.511719 14.585938 C 22.382812 14.679688 21.808594 14.710938 21.34375 14.710938 C 20.464844 14.726562 16.320312 14.726562 15.535156 14.726562 C 14.113281 14.726562 9.183594 14.710938 8 14.679688 C 7.902344 14.679688 7.742188 14.761719 7.742188 14.96875 Z M 7.742188 14.96875 "/>
<path style=" stroke:none;fill-rule:evenodd;fill:rgb(0%,0%,0%);fill-opacity:1;" d="M 16.945312 46.566406 C 17.292969 46.566406 18.210938 45.703125 18.210938 45.234375 C 18.210938 45.175781 18.167969 45.097656 18.144531 45.097656 C 18.089844 45.097656 18.042969 45.109375 17.964844 45.246094 C 17.765625 45.570312 17.460938 45.894531 17.179688 45.894531 C 17.011719 45.894531 16.878906 45.726562 16.8125 45.570312 L 16.296875 44.347656 C 16.261719 44.269531 16.273438 44.246094 16.351562 44.226562 C 17.113281 44.011719 18.636719 42.972656 18.636719 42.1875 C 18.636719 41.851562 18.277344 41.683594 17.976562 41.683594 C 17.226562 41.683594 16.253906 42.378906 15.492188 43.441406 C 15.433594 43.519531 15.332031 43.566406 15.390625 43.398438 L 16.902344 38.792969 C 16.933594 38.691406 16.933594 38.660156 16.933594 38.535156 C 16.933594 38.425781 16.824219 38.425781 16.757812 38.425781 C 16.578125 38.425781 15.828125 38.671875 15.492188 38.839844 C 15.445312 38.859375 15.421875 38.90625 15.421875 38.960938 C 15.421875 39.007812 15.570312 39.0625 15.714844 39.117188 C 15.871094 39.175781 15.960938 39.253906 15.960938 39.34375 C 15.960938 39.523438 15.9375 39.699219 15.847656 39.980469 L 13.976562 45.78125 C 13.910156 46.007812 13.890625 46.1875 13.890625 46.253906 C 13.890625 46.386719 14.066406 46.5 14.179688 46.5 C 14.359375 46.5 14.382812 46.398438 14.472656 46.152344 C 14.550781 45.9375 14.90625 45.019531 14.996094 44.808594 C 15.066406 44.652344 15.199219 44.335938 15.300781 44.335938 C 15.546875 44.335938 15.726562 44.585938 15.816406 44.832031 L 16.242188 46.019531 C 16.398438 46.375 16.589844 46.566406 16.945312 46.566406 Z M 15.769531 44.058594 C 15.679688 44.058594 15.636719 43.957031 15.636719 43.867188 C 15.636719 43.554688 16.824219 42.164062 17.449219 42.164062 C 17.71875 42.164062 17.855469 42.300781 17.855469 42.523438 C 17.855469 43.015625 16.699219 44.058594 15.769531 44.058594 Z M 15.769531 44.058594 "/>
<path style=" stroke:none;fill-rule:evenodd;fill:rgb(0%,0%,0%);fill-opacity:1;" d="M 29.980469 29.816406 C 30.9375 29.816406 31.929688 29.078125 33.882812 26.902344 C 34.011719 26.761719 34.027344 26.921875 33.914062 27.144531 C 33.59375 27.816406 32.96875 29.207031 33.164062 28.824219 C 33.097656 28.953125 33.066406 29.097656 33.066406 29.191406 C 33.066406 29.496094 33.417969 29.816406 33.753906 29.816406 C 34.265625 29.816406 34.890625 29.511719 35.5 28.953125 C 35.820312 28.632812 36.1875 28.089844 36.1875 27.945312 C 36.1875 27.816406 36.15625 27.769531 36.074219 27.769531 C 36.027344 27.769531 35.960938 27.800781 35.929688 27.847656 C 35.53125 28.390625 34.90625 28.808594 34.523438 28.808594 C 34.265625 28.808594 34.1875 28.601562 34.316406 28.265625 L 36.105469 23.511719 C 36.1875 23.289062 36.21875 23.175781 36.21875 23.113281 C 36.21875 22.953125 35.898438 22.777344 35.609375 22.777344 C 35.546875 22.777344 35.484375 22.824219 35.417969 22.9375 C 35.355469 23.03125 35.257812 23.222656 35.148438 23.414062 C 35.097656 23.480469 35.082031 23.511719 35.050781 23.511719 C 35.035156 23.511719 34.96875 23.433594 34.859375 23.273438 C 34.746094 23.144531 34.570312 23.046875 34.410156 23.046875 C 34.074219 23.046875 33.355469 23.542969 32.203125 24.550781 C 30.394531 26.136719 29.164062 27.976562 29.164062 29.113281 C 29.164062 29.464844 29.578125 29.816406 29.980469 29.816406 Z M 30.875 28.808594 C 30.601562 28.808594 30.410156 28.585938 30.410156 28.265625 C 30.410156 27.527344 31.417969 25.960938 32.492188 24.921875 C 33.035156 24.390625 33.820312 23.945312 34.203125 23.945312 C 34.316406 23.945312 34.476562 24.023438 34.601562 24.121094 C 34.714844 24.214844 34.8125 24.34375 34.8125 24.425781 C 34.8125 24.808594 34.296875 25.65625 33.5 26.601562 C 32.332031 27.992188 31.339844 28.808594 30.875 28.808594 Z M 30.875 28.808594 "/>
<path style=" stroke:none;fill-rule:evenodd;fill:rgb(0%,0%,0%);fill-opacity:1;" d="M 39.191406 34.945312 C 39.535156 34.945312 40.457031 34.085938 40.457031 33.613281 C 40.457031 33.558594 40.410156 33.480469 40.386719 33.480469 C 40.332031 33.480469 40.289062 33.492188 40.210938 33.625 C 40.007812 33.949219 39.703125 34.273438 39.425781 34.273438 C 39.257812 34.273438 39.121094 34.105469 39.054688 33.949219 L 38.539062 32.730469 C 38.507812 32.652344 38.519531 32.628906 38.597656 32.605469 C 39.359375 32.394531 40.882812 31.351562 40.882812 30.566406 C 40.882812 30.230469 40.523438 30.0625 40.21875 30.0625 C 39.46875 30.0625 38.496094 30.757812 37.734375 31.824219 C 37.679688 31.902344 37.578125 31.945312 37.632812 31.777344 L 39.144531 27.175781 C 39.179688 27.074219 39.179688 27.039062 39.179688 26.917969 C 39.179688 26.804688 39.066406 26.804688 39 26.804688 C 38.820312 26.804688 38.070312 27.050781 37.734375 27.21875 C 37.6875 27.242188 37.667969 27.285156 37.667969 27.34375 C 37.667969 27.386719 37.8125 27.441406 37.957031 27.5 C 38.113281 27.554688 38.203125 27.632812 38.203125 27.722656 C 38.203125 27.902344 38.183594 28.082031 38.09375 28.363281 L 36.222656 34.164062 C 36.15625 34.386719 36.132812 34.566406 36.132812 34.632812 C 36.132812 34.769531 36.3125 34.878906 36.421875 34.878906 C 36.601562 34.878906 36.625 34.777344 36.714844 34.53125 C 36.792969 34.320312 37.152344 33.402344 37.242188 33.1875 C 37.308594 33.03125 37.441406 32.71875 37.542969 32.71875 C 37.789062 32.71875 37.96875 32.964844 38.058594 33.210938 L 38.484375 34.398438 C 38.640625 34.757812 38.832031 34.945312 39.191406 34.945312 Z M 38.015625 32.4375 C 37.925781 32.4375 37.878906 32.335938 37.878906 32.246094 C 37.878906 31.933594 39.066406 30.546875 39.695312 30.546875 C 39.960938 30.546875 40.097656 30.679688 40.097656 30.902344 C 40.097656 31.398438 38.945312 32.4375 38.015625 32.4375 Z M 38.015625 32.4375 "/>
<path style=" stroke:none;fill-rule:evenodd;fill:rgb(0%,0%,0%);fill-opacity:1;" d="M 43.132812 29.71875 C 45.292969 29.71875 48.027344 26.601562 48.027344 24.152344 C 48.027344 23.464844 47.53125 22.96875 46.84375 22.96875 C 46.042969 22.96875 44.875 23.894531 43.613281 25.558594 C 43.46875 25.753906 43.339844 25.703125 43.421875 25.480469 C 43.867188 24.070312 45.246094 20.054688 45.660156 18.96875 C 45.742188 18.742188 45.773438 18.632812 45.773438 18.441406 C 45.773438 18.328125 45.691406 18.28125 45.515625 18.28125 C 45.324219 18.28125 44.15625 18.601562 43.675781 18.777344 C 43.484375 18.839844 43.421875 18.902344 43.421875 19 C 43.421875 19.0625 43.613281 19.160156 43.917969 19.238281 C 44.203125 19.320312 44.316406 19.398438 44.316406 19.511719 C 44.316406 19.785156 44.269531 20.070312 44.15625 20.375 L 42.140625 26.472656 C 41.898438 27.175781 41.773438 27.878906 41.773438 28.40625 C 41.773438 29.207031 42.300781 29.71875 43.132812 29.71875 Z M 43.546875 29.207031 C 43.101562 29.207031 42.714844 28.710938 42.714844 28.136719 C 42.714844 27.734375 43.179688 26.839844 43.882812 25.847656 C 45.003906 24.3125 45.835938 23.574219 46.507812 23.574219 C 46.765625 23.574219 46.972656 23.847656 46.972656 24.214844 C 46.972656 24.984375 46.347656 26.457031 45.582031 27.480469 C 44.828125 28.472656 43.964844 29.207031 43.546875 29.207031 Z M 43.546875 29.207031 "/>
<path style=" stroke:none;fill-rule:evenodd;fill:rgb(0%,0%,0%);fill-opacity:1;" d="M 49.785156 34.945312 C 50.128906 34.945312 51.050781 34.085938 51.050781 33.613281 C 51.050781 33.558594 51.003906 33.480469 50.980469 33.480469 C 50.925781 33.480469 50.882812 33.492188 50.800781 33.625 C 50.601562 33.949219 50.296875 34.273438 50.019531 34.273438 C 49.851562 34.273438 49.714844 34.105469 49.648438 33.949219 L 49.132812 32.730469 C 49.101562 32.652344 49.113281 32.628906 49.191406 32.605469 C 49.953125 32.394531 51.476562 31.351562 51.476562 30.566406 C 51.476562 30.230469 51.117188 30.0625 50.8125 30.0625 C 50.0625 30.0625 49.089844 30.757812 48.328125 31.824219 C 48.269531 31.902344 48.171875 31.945312 48.226562 31.777344 L 49.738281 27.175781 C 49.773438 27.074219 49.773438 27.039062 49.773438 26.917969 C 49.773438 26.804688 49.660156 26.804688 49.59375 26.804688 C 49.414062 26.804688 48.664062 27.050781 48.328125 27.21875 C 48.28125 27.242188 48.261719 27.285156 48.261719 27.34375 C 48.261719 27.386719 48.40625 27.441406 48.550781 27.5 C 48.707031 27.554688 48.796875 27.632812 48.796875 27.722656 C 48.796875 27.902344 48.777344 28.082031 48.6875 28.363281 L 46.816406 34.164062 C 46.75 34.386719 46.726562 34.566406 46.726562 34.632812 C 46.726562 34.769531 46.90625 34.878906 47.015625 34.878906 C 47.195312 34.878906 47.21875 34.777344 47.308594 34.53125 C 47.386719 34.320312 47.746094 33.402344 47.835938 33.1875 C 47.902344 33.03125 48.035156 32.71875 48.136719 32.71875 C 48.382812 32.71875 48.5625 32.964844 48.652344 33.210938 L 49.078125 34.398438 C 49.234375 34.757812 49.425781 34.945312 49.785156 34.945312 Z M 48.609375 32.4375 C 48.519531 32.4375 48.472656 32.335938 48.472656 32.246094 C 48.472656 31.933594 49.660156 30.546875 50.289062 30.546875 C 50.554688 30.546875 50.691406 30.679688 50.691406 30.902344 C 50.691406 31.398438 49.535156 32.4375 48.609375 32.4375 Z M 48.609375 32.4375 "/>
<path style=" stroke:none;fill-rule:evenodd;fill:rgb(0%,0%,0%);fill-opacity:1;" d="M 55.230469 44.9375 L 55.230469 6.488281 C 55.230469 6.167969 54.925781 5.992188 54.605469 5.992188 C 54.511719 5.992188 54.398438 6.121094 54.398438 6.246094 L 54.398438 44.695312 C 54.398438 45.015625 54.703125 45.191406 55.023438 45.191406 C 55.117188 45.191406 55.230469 45.0625 55.230469 44.9375 Z M 55.230469 44.9375 "/>
<path style=" stroke:none;fill-rule:evenodd;fill:rgb(0%,0%,0%);fill-opacity:1;" d="M 71.171875 28.902344 L 64.53125 28.902344 C 64.257812 28.902344 64.050781 29.175781 64.050781 29.527344 C 64.050781 29.625 64.164062 29.703125 64.257812 29.703125 L 71.011719 29.703125 C 71.347656 29.703125 71.394531 29.238281 71.394531 29.097656 C 71.394531 29 71.28125 28.902344 71.171875 28.902344 Z M 71.21875 28.375 C 71.316406 28.375 71.394531 28.246094 71.394531 28.167969 C 71.394531 28.023438 71.316406 27.527344 71.011719 27.398438 L 65.410156 24.9375 C 65.363281 24.921875 65.347656 24.871094 65.394531 24.855469 L 70.882812 22.390625 C 71.234375 22.246094 71.378906 21.769531 71.378906 21.574219 C 71.378906 21.382812 71.234375 21.433594 71.171875 21.433594 L 64.660156 24.3125 C 64.339844 24.441406 64.132812 24.902344 64.132812 25.046875 C 64.132812 25.144531 64.5 25.367188 64.789062 25.480469 L 71.171875 28.359375 C 71.1875 28.359375 71.203125 28.375 71.21875 28.375 Z M 71.21875 28.375 "/>
<path style=" stroke:none;fill-rule:evenodd;fill:rgb(0%,0%,0%);fill-opacity:1;" d="M 83.242188 44.953125 C 83.449219 44.953125 83.671875 44.824219 83.671875 44.601562 C 83.671875 44.566406 83.449219 44.3125 83.433594 44.28125 C 82.121094 42.808594 80.457031 34.9375 80.457031 25.015625 C 80.457031 15.097656 82.167969 8.28125 83.480469 6.808594 C 83.511719 6.777344 83.6875 6.519531 83.6875 6.488281 C 83.6875 6.34375 83.449219 6.230469 83.335938 6.230469 C 83.175781 6.230469 83 6.328125 82.90625 6.425781 C 81.433594 7.894531 79.128906 15.289062 79.128906 25.207031 C 79.128906 35.128906 81.496094 43.351562 82.96875 44.824219 C 83.046875 44.902344 83.144531 44.953125 83.242188 44.953125 Z M 83.242188 44.953125 "/>
<path style=" stroke:none;fill-rule:evenodd;fill:rgb(0%,0%,0%);fill-opacity:1;" d="M 86.023438 14.96875 C 86.023438 15.160156 93.59375 23.894531 95 25.65625 C 95.046875 25.71875 95.066406 25.769531 95.015625 25.832031 C 93.703125 27.398438 85.769531 36.425781 85.769531 36.585938 C 85.769531 36.742188 85.960938 36.824219 86.105469 36.824219 C 86.871094 36.824219 87.097656 36.742188 87.898438 36.726562 C 88.472656 36.710938 93.945312 36.710938 94.617188 36.710938 C 95.527344 36.710938 99.769531 36.710938 100.792969 36.726562 C 101.242188 36.726562 101.59375 36.808594 102.074219 36.808594 C 102.234375 36.808594 102.265625 36.679688 102.296875 36.535156 C 102.375 36.136719 102.9375 34.328125 103.222656 33.511719 C 103.222656 33.496094 103.242188 33.464844 103.242188 33.449219 C 103.242188 33.367188 103.175781 33.304688 103.097656 33.304688 C 102.886719 33.304688 102.746094 33.558594 102.601562 33.816406 C 102.152344 34.664062 101.609375 35.320312 100.695312 35.320312 C 99.304688 35.320312 89.128906 35.382812 88.167969 35.257812 C 87.992188 35.238281 87.929688 35.113281 88.039062 34.984375 L 96.425781 25.257812 C 96.488281 25.175781 96.601562 25.0625 96.441406 24.902344 C 95.402344 23.769531 89.703125 17.128906 88.601562 15.71875 C 88.570312 15.671875 88.535156 15.625 88.535156 15.574219 C 88.535156 15.511719 88.601562 15.464844 88.839844 15.464844 C 89.914062 15.464844 98.984375 15.496094 99.945312 15.558594 C 100.457031 15.59375 101.046875 16.136719 101.335938 16.921875 C 101.417969 17.113281 101.449219 17.433594 101.6875 17.433594 C 101.816406 17.433594 101.847656 17.320312 101.847656 17.175781 C 101.847656 17.0625 101.832031 16.9375 101.816406 16.824219 C 101.753906 16.457031 101.527344 15.304688 101.433594 14.632812 C 101.402344 14.390625 101.273438 14.359375 101.191406 14.359375 C 101.113281 14.359375 100.953125 14.457031 100.792969 14.585938 C 100.664062 14.679688 100.089844 14.710938 99.625 14.710938 C 98.746094 14.726562 94.601562 14.726562 93.816406 14.726562 C 92.390625 14.726562 87.464844 14.710938 86.28125 14.679688 C 86.183594 14.679688 86.023438 14.761719 86.023438 14.96875 Z M 86.023438 14.96875 "/>
<path style=" stroke:none;fill-rule:evenodd;fill:rgb(0%,0%,0%);fill-opacity:1;" d="M 95.226562 46.566406 C 95.574219 46.566406 96.492188 45.703125 96.492188 45.234375 C 96.492188 45.175781 96.449219 45.097656 96.425781 45.097656 C 96.371094 45.097656 96.324219 45.109375 96.246094 45.246094 C 96.042969 45.570312 95.742188 45.894531 95.460938 45.894531 C 95.292969 45.894531 95.160156 45.726562 95.09375 45.570312 L 94.578125 44.347656 C 94.542969 44.269531 94.554688 44.246094 94.632812 44.226562 C 95.394531 44.011719 96.917969 42.972656 96.917969 42.1875 C 96.917969 41.851562 96.558594 41.683594 96.257812 41.683594 C 95.507812 41.683594 94.53125 42.378906 93.769531 43.441406 C 93.714844 43.519531 93.613281 43.566406 93.671875 43.398438 L 95.183594 38.792969 C 95.214844 38.691406 95.214844 38.660156 95.214844 38.535156 C 95.214844 38.425781 95.105469 38.425781 95.035156 38.425781 C 94.855469 38.425781 94.105469 38.671875 93.769531 38.839844 C 93.726562 38.859375 93.703125 38.90625 93.703125 38.960938 C 93.703125 39.007812 93.847656 39.0625 93.996094 39.117188 C 94.152344 39.175781 94.242188 39.253906 94.242188 39.34375 C 94.242188 39.523438 94.21875 39.699219 94.128906 39.980469 L 92.257812 45.78125 C 92.191406 46.007812 92.167969 46.1875 92.167969 46.253906 C 92.167969 46.386719 92.347656 46.5 92.460938 46.5 C 92.640625 46.5 92.664062 46.398438 92.75 46.152344 C 92.832031 45.9375 93.1875 45.019531 93.277344 44.808594 C 93.34375 44.652344 93.480469 44.335938 93.582031 44.335938 C 93.828125 44.335938 94.007812 44.585938 94.097656 44.832031 L 94.519531 46.019531 C 94.679688 46.375 94.867188 46.566406 95.226562 46.566406 Z M 94.050781 44.058594 C 93.960938 44.058594 93.917969 43.957031 93.917969 43.867188 C 93.917969 43.554688 95.105469 42.164062 95.730469 42.164062 C 96 42.164062 96.132812 42.300781 96.132812 42.523438 C 96.132812 43.015625 94.980469 44.058594 94.050781 44.058594 Z M 94.050781 44.058594 "/>
<path style=" stroke:none;fill-rule:evenodd;fill:rgb(0%,0%,0%);fill-opacity:1;" d="M 108.257812 29.816406 C 109.21875 29.816406 110.210938 29.078125 112.164062 26.902344 C 112.292969 26.761719 112.308594 26.921875 112.195312 27.144531 C 111.875 27.816406 111.25 29.207031 111.441406 28.824219 C 111.378906 28.953125 111.347656 29.097656 111.347656 29.191406 C 111.347656 29.496094 111.699219 29.816406 112.035156 29.816406 C 112.546875 29.816406 113.171875 29.511719 113.777344 28.953125 C 114.097656 28.632812 114.46875 28.089844 114.46875 27.945312 C 114.46875 27.816406 114.433594 27.769531 114.355469 27.769531 C 114.308594 27.769531 114.242188 27.800781 114.210938 27.847656 C 113.8125 28.390625 113.1875 28.808594 112.804688 28.808594 C 112.546875 28.808594 112.46875 28.601562 112.59375 28.265625 L 114.386719 23.511719 C 114.46875 23.289062 114.5 23.175781 114.5 23.113281 C 114.5 22.953125 114.179688 22.777344 113.890625 22.777344 C 113.828125 22.777344 113.761719 22.824219 113.699219 22.9375 C 113.636719 23.03125 113.539062 23.222656 113.425781 23.414062 C 113.378906 23.480469 113.363281 23.511719 113.332031 23.511719 C 113.316406 23.511719 113.25 23.433594 113.140625 23.273438 C 113.027344 23.144531 112.851562 23.046875 112.691406 23.046875 C 112.355469 23.046875 111.636719 23.542969 110.484375 24.550781 C 108.675781 26.136719 107.441406 27.976562 107.441406 29.113281 C 107.441406 29.464844 107.859375 29.816406 108.257812 29.816406 Z M 109.15625 28.808594 C 108.882812 28.808594 108.691406 28.585938 108.691406 28.265625 C 108.691406 27.527344 109.699219 25.960938 110.769531 24.921875 C 111.316406 24.390625 112.097656 23.945312 112.484375 23.945312 C 112.59375 23.945312 112.753906 24.023438 112.882812 24.121094 C 112.996094 24.214844 113.089844 24.34375 113.089844 24.425781 C 113.089844 24.808594 112.578125 25.65625 111.777344 26.601562 C 110.609375 27.992188 109.621094 28.808594 109.15625 28.808594 Z M 109.15625 28.808594 "/>
<path style=" stroke:none;fill-rule:evenodd;fill:rgb(0%,0%,0%);fill-opacity:1;" d="M 119.550781 22.746094 C 119.628906 22.746094 119.753906 22.710938 119.796875 22.476562 C 119.910156 21.917969 120.132812 21.457031 120.132812 21.34375 C 120.132812 21.289062 120.125 21.210938 120.054688 21.210938 C 119.933594 21.210938 119.832031 21.378906 119.777344 21.46875 C 119.496094 21.917969 119.351562 21.960938 118.710938 21.996094 C 118.308594 22.019531 117.859375 22.027344 117.433594 22.027344 C 117.019531 22.027344 116.695312 22.019531 116.449219 21.996094 C 116.359375 21.984375 116.292969 21.972656 116.292969 21.917969 C 116.292969 21.859375 118.140625 20.070312 118.644531 19.464844 C 119.113281 18.894531 119.460938 18.109375 119.460938 17.503906 C 119.460938 16.417969 118.789062 15.65625 117.671875 15.65625 C 116.40625 15.65625 115.488281 16.753906 115.488281 17.101562 C 115.488281 17.300781 115.597656 17.4375 115.65625 17.4375 C 115.722656 17.4375 115.800781 17.371094 115.84375 17.28125 C 116.160156 16.742188 116.707031 16.371094 117.324219 16.371094 C 117.960938 16.371094 118.523438 16.855469 118.523438 17.648438 C 118.523438 18.636719 117.972656 19.644531 117.222656 20.414062 L 115.308594 22.398438 C 115.238281 22.464844 115.21875 22.476562 115.21875 22.542969 C 115.21875 22.609375 115.386719 22.734375 115.441406 22.734375 C 115.664062 22.734375 117.480469 22.679688 118.039062 22.679688 C 118.601562 22.679688 119.328125 22.746094 119.550781 22.746094 Z M 119.550781 22.746094 "/>
<path style=" stroke:none;fill-rule:evenodd;fill:rgb(0%,0%,0%);fill-opacity:1;" d="M 117.46875 34.945312 C 117.816406 34.945312 118.734375 34.085938 118.734375 33.613281 C 118.734375 33.558594 118.691406 33.480469 118.667969 33.480469 C 118.613281 33.480469 118.566406 33.492188 118.488281 33.625 C 118.289062 33.949219 117.984375 34.273438 117.707031 34.273438 C 117.539062 34.273438 117.402344 34.105469 117.335938 33.949219 L 116.820312 32.730469 C 116.789062 32.652344 116.796875 32.628906 116.875 32.605469 C 117.636719 32.394531 119.160156 31.351562 119.160156 30.566406 C 119.160156 30.230469 118.804688 30.0625 118.5 30.0625 C 117.75 30.0625 116.777344 30.757812 116.015625 31.824219 C 115.957031 31.902344 115.859375 31.945312 115.914062 31.777344 L 117.425781 27.175781 C 117.460938 27.074219 117.460938 27.039062 117.460938 26.917969 C 117.460938 26.804688 117.347656 26.804688 117.28125 26.804688 C 117.101562 26.804688 116.351562 27.050781 116.015625 27.21875 C 115.96875 27.242188 115.945312 27.285156 115.945312 27.34375 C 115.945312 27.386719 116.09375 27.441406 116.238281 27.5 C 116.394531 27.554688 116.484375 27.632812 116.484375 27.722656 C 116.484375 27.902344 116.460938 28.082031 116.371094 28.363281 L 114.503906 34.164062 C 114.433594 34.386719 114.414062 34.566406 114.414062 34.632812 C 114.414062 34.769531 114.59375 34.878906 114.703125 34.878906 C 114.882812 34.878906 114.90625 34.777344 114.996094 34.53125 C 115.074219 34.320312 115.433594 33.402344 115.523438 33.1875 C 115.589844 33.03125 115.722656 32.71875 115.824219 32.71875 C 116.070312 32.71875 116.25 32.964844 116.339844 33.210938 L 116.765625 34.398438 C 116.921875 34.757812 117.113281 34.945312 117.46875 34.945312 Z M 116.292969 32.4375 C 116.203125 32.4375 116.160156 32.335938 116.160156 32.246094 C 116.160156 31.933594 117.347656 30.546875 117.972656 30.546875 C 118.242188 30.546875 118.378906 30.679688 118.378906 30.902344 C 118.378906 31.398438 117.222656 32.4375 116.292969 32.4375 Z M 116.292969 32.4375 "/>
<path style=" stroke:none;fill-rule:evenodd;fill:rgb(0%,0%,0%);fill-opacity:1;" d="M 121.753906 44.953125 C 121.847656 44.953125 121.945312 44.902344 122.023438 44.824219 C 123.496094 43.351562 125.863281 35.128906 125.863281 25.207031 C 125.863281 15.289062 123.558594 7.894531 122.089844 6.425781 C 121.992188 6.328125 121.816406 6.230469 121.65625 6.230469 C 121.542969 6.230469 121.304688 6.34375 121.304688 6.488281 C 121.304688 6.519531 121.480469 6.777344 121.511719 6.808594 C 122.824219 8.28125 124.535156 15.097656 124.535156 25.015625 C 124.535156 34.9375 122.871094 42.808594 121.558594 44.28125 C 121.542969 44.3125 121.320312 44.566406 121.320312 44.601562 C 121.320312 44.824219 121.542969 44.953125 121.753906 44.953125 Z M 121.753906 44.953125 "/>
<path style=" stroke:none;fill-rule:evenodd;fill:rgb(0%,0%,0%);fill-opacity:1;" d="M 129.902344 5.121094 C 130.335938 5.121094 130.671875 5.078125 131.105469 5.078125 C 131.527344 5.078125 131.824219 5.121094 132.28125 5.121094 C 132.34375 5.121094 132.390625 5.078125 132.390625 5.03125 C 132.390625 4.984375 132.320312 4.945312 132.257812 4.929688 C 131.601562 4.769531 131.40625 4.726562 131.40625 4.320312 L 131.40625 0.640625 C 131.40625 0.414062 131.414062 0.230469 131.441406 0.0703125 C 131.449219 0.03125 131.390625 0 131.34375 0 C 131.328125 0 131.3125 0 131.304688 0.0078125 C 130.945312 0.367188 130.585938 0.433594 130.105469 0.503906 C 129.992188 0.519531 129.902344 0.574219 129.902344 0.648438 C 129.902344 0.734375 130.007812 0.777344 130.113281 0.785156 C 130.457031 0.808594 130.785156 0.863281 130.785156 1.167969 L 130.785156 4.222656 C 130.785156 4.695312 130.511719 4.769531 129.902344 4.921875 C 129.839844 4.9375 129.785156 4.984375 129.785156 5.023438 C 129.785156 5.070312 129.824219 5.121094 129.902344 5.121094 Z M 129.902344 5.121094 "/>
<path style=" stroke:none;fill-rule:nonzero;fill:rgb(0%,0%,0%);fill-opacity:1;" d="M 129.0625 6.832031 L 132.972656 6.832031 L 132.972656 7.390625 L 129.0625 7.390625 Z M 129.0625 6.832031 "/>
<path style=" stroke:none;fill-rule:evenodd;fill:rgb(0%,0%,0%);fill-opacity:1;" d="M 132.296875 13.574219 C 132.351562 13.574219 132.441406 13.550781 132.472656 13.382812 C 132.550781 12.984375 132.710938 12.65625 132.710938 12.574219 C 132.710938 12.535156 132.703125 12.480469 132.65625 12.480469 C 132.566406 12.480469 132.496094 12.601562 132.457031 12.664062 C 132.257812 12.984375 132.152344 13.015625 131.695312 13.039062 C 131.40625 13.054688 131.089844 13.0625 130.785156 13.0625 C 130.488281 13.0625 130.257812 13.054688 130.078125 13.039062 C 130.015625 13.03125 129.96875 13.023438 129.96875 12.984375 C 129.96875 12.945312 131.289062 11.664062 131.648438 11.230469 C 131.984375 10.824219 132.230469 10.265625 132.230469 9.832031 C 132.230469 9.054688 131.753906 8.511719 130.953125 8.511719 C 130.046875 8.511719 129.390625 9.296875 129.390625 9.542969 C 129.390625 9.6875 129.472656 9.785156 129.511719 9.785156 C 129.558594 9.785156 129.617188 9.734375 129.648438 9.671875 C 129.871094 9.289062 130.265625 9.023438 130.703125 9.023438 C 131.160156 9.023438 131.558594 9.367188 131.558594 9.9375 C 131.558594 10.640625 131.167969 11.359375 130.632812 11.910156 L 129.265625 13.328125 C 129.214844 13.375 129.199219 13.382812 129.199219 13.433594 C 129.199219 13.480469 129.320312 13.566406 129.359375 13.566406 C 129.519531 13.566406 130.816406 13.527344 131.214844 13.527344 C 131.617188 13.527344 132.136719 13.574219 132.296875 13.574219 Z M 132.296875 13.574219 "/>
<path style=" stroke:none;fill-rule:evenodd;fill:rgb(0%,0%,0%);fill-opacity:1;" d="M 142.953125 44.953125 C 143.164062 44.953125 143.386719 44.824219 143.386719 44.601562 C 143.386719 44.566406 143.164062 44.3125 143.148438 44.28125 C 141.835938 42.808594 140.171875 34.9375 140.171875 25.015625 C 140.171875 15.097656 141.882812 8.28125 143.195312 6.808594 C 143.226562 6.777344 143.402344 6.519531 143.402344 6.488281 C 143.402344 6.34375 143.164062 6.230469 143.050781 6.230469 C 142.890625 6.230469 142.714844 6.328125 142.617188 6.425781 C 141.148438 7.894531 138.84375 15.289062 138.84375 25.207031 C 138.84375 35.128906 141.210938 43.351562 142.683594 44.824219 C 142.761719 44.902344 142.859375 44.953125 142.953125 44.953125 Z M 142.953125 44.953125 "/>
<path style=" stroke:none;fill-rule:evenodd;fill:rgb(0%,0%,0%);fill-opacity:1;" d="M 145.738281 14.96875 C 145.738281 15.160156 153.308594 23.894531 154.714844 25.65625 C 154.761719 25.71875 154.777344 25.769531 154.730469 25.832031 C 153.417969 27.398438 145.484375 36.425781 145.484375 36.585938 C 145.484375 36.742188 145.675781 36.824219 145.820312 36.824219 C 146.585938 36.824219 146.8125 36.742188 147.609375 36.726562 C 148.1875 36.710938 153.660156 36.710938 154.332031 36.710938 C 155.242188 36.710938 159.484375 36.710938 160.507812 36.726562 C 160.953125 36.726562 161.308594 36.808594 161.785156 36.808594 C 161.945312 36.808594 161.980469 36.679688 162.011719 36.535156 C 162.089844 36.136719 162.652344 34.328125 162.9375 33.511719 C 162.9375 33.496094 162.953125 33.464844 162.953125 33.449219 C 162.953125 33.367188 162.890625 33.304688 162.8125 33.304688 C 162.601562 33.304688 162.457031 33.558594 162.316406 33.816406 C 161.867188 34.664062 161.324219 35.320312 160.410156 35.320312 C 159.019531 35.320312 148.84375 35.382812 147.882812 35.257812 C 147.707031 35.238281 147.644531 35.113281 147.753906 34.984375 L 156.140625 25.257812 C 156.203125 25.175781 156.316406 25.0625 156.15625 24.902344 C 155.113281 23.769531 149.417969 17.128906 148.316406 15.71875 C 148.28125 15.671875 148.25 15.625 148.25 15.574219 C 148.25 15.511719 148.316406 15.464844 148.554688 15.464844 C 149.625 15.464844 158.699219 15.496094 159.660156 15.558594 C 160.171875 15.59375 160.761719 16.136719 161.050781 16.921875 C 161.128906 17.113281 161.164062 17.433594 161.402344 17.433594 C 161.53125 17.433594 161.5625 17.320312 161.5625 17.175781 C 161.5625 17.0625 161.546875 16.9375 161.53125 16.824219 C 161.464844 16.457031 161.242188 15.304688 161.148438 14.632812 C 161.113281 14.390625 160.988281 14.359375 160.90625 14.359375 C 160.828125 14.359375 160.667969 14.457031 160.507812 14.585938 C 160.378906 14.679688 159.800781 14.710938 159.339844 14.710938 C 158.457031 14.726562 154.316406 14.726562 153.53125 14.726562 C 152.105469 14.726562 147.179688 14.710938 145.996094 14.679688 C 145.898438 14.679688 145.738281 14.761719 145.738281 14.96875 Z M 145.738281 14.96875 "/>
<path style=" stroke:none;fill-rule:evenodd;fill:rgb(0%,0%,0%);fill-opacity:1;" d="M 154.941406 46.566406 C 155.289062 46.566406 156.207031 45.703125 156.207031 45.234375 C 156.207031 45.175781 156.160156 45.097656 156.140625 45.097656 C 156.082031 45.097656 156.039062 45.109375 155.960938 45.246094 C 155.757812 45.570312 155.457031 45.894531 155.175781 45.894531 C 155.007812 45.894531 154.875 45.726562 154.808594 45.570312 L 154.292969 44.347656 C 154.257812 44.269531 154.269531 44.246094 154.347656 44.226562 C 155.109375 44.011719 156.632812 42.972656 156.632812 42.1875 C 156.632812 41.851562 156.273438 41.683594 155.972656 41.683594 C 155.222656 41.683594 154.246094 42.378906 153.484375 43.441406 C 153.429688 43.519531 153.328125 43.566406 153.382812 43.398438 L 154.894531 38.792969 C 154.929688 38.691406 154.929688 38.660156 154.929688 38.535156 C 154.929688 38.425781 154.816406 38.425781 154.75 38.425781 C 154.570312 38.425781 153.820312 38.671875 153.484375 38.839844 C 153.441406 38.859375 153.417969 38.90625 153.417969 38.960938 C 153.417969 39.007812 153.5625 39.0625 153.710938 39.117188 C 153.867188 39.175781 153.957031 39.253906 153.957031 39.34375 C 153.957031 39.523438 153.933594 39.699219 153.84375 39.980469 L 151.972656 45.78125 C 151.90625 46.007812 151.882812 46.1875 151.882812 46.253906 C 151.882812 46.386719 152.0625 46.5 152.175781 46.5 C 152.355469 46.5 152.375 46.398438 152.464844 46.152344 C 152.542969 45.9375 152.902344 45.019531 152.992188 44.808594 C 153.058594 44.652344 153.195312 44.335938 153.292969 44.335938 C 153.542969 44.335938 153.71875 44.585938 153.808594 44.832031 L 154.234375 46.019531 C 154.390625 46.375 154.582031 46.566406 154.941406 46.566406 Z M 153.765625 44.058594 C 153.675781 44.058594 153.628906 43.957031 153.628906 43.867188 C 153.628906 43.554688 154.816406 42.164062 155.445312 42.164062 C 155.714844 42.164062 155.847656 42.300781 155.847656 42.523438 C 155.847656 43.015625 154.695312 44.058594 153.765625 44.058594 Z M 153.765625 44.058594 "/>
<path style=" stroke:none;fill-rule:evenodd;fill:rgb(0%,0%,0%);fill-opacity:1;" d="M 168.917969 29.71875 C 171.078125 29.71875 173.8125 26.601562 173.8125 24.152344 C 173.8125 23.464844 173.316406 22.96875 172.628906 22.96875 C 171.828125 22.96875 170.660156 23.894531 169.398438 25.558594 C 169.253906 25.753906 169.125 25.703125 169.207031 25.480469 C 169.652344 24.070312 171.03125 20.054688 171.445312 18.96875 C 171.523438 18.742188 171.558594 18.632812 171.558594 18.441406 C 171.558594 18.328125 171.476562 18.28125 171.300781 18.28125 C 171.109375 18.28125 169.941406 18.601562 169.460938 18.777344 C 169.269531 18.839844 169.207031 18.902344 169.207031 19 C 169.207031 19.0625 169.398438 19.160156 169.703125 19.238281 C 169.988281 19.320312 170.101562 19.398438 170.101562 19.511719 C 170.101562 19.785156 170.054688 20.070312 169.941406 20.375 L 167.925781 26.472656 C 167.683594 27.175781 167.558594 27.878906 167.558594 28.40625 C 167.558594 29.207031 168.085938 29.71875 168.917969 29.71875 Z M 169.332031 29.207031 C 168.886719 29.207031 168.5 28.710938 168.5 28.136719 C 168.5 27.734375 168.964844 26.839844 169.667969 25.847656 C 170.789062 24.3125 171.621094 23.574219 172.292969 23.574219 C 172.550781 23.574219 172.757812 23.847656 172.757812 24.214844 C 172.757812 24.984375 172.132812 26.457031 171.367188 27.480469 C 170.613281 28.472656 169.75 29.207031 169.332031 29.207031 Z M 169.332031 29.207031 "/>
<path style=" stroke:none;fill-rule:evenodd;fill:rgb(0%,0%,0%);fill-opacity:1;" d="M 178.816406 21.992188 C 178.898438 21.992188 179.019531 21.960938 179.066406 21.726562 C 179.175781 21.164062 179.402344 20.707031 179.402344 20.59375 C 179.402344 20.539062 179.390625 20.460938 179.320312 20.460938 C 179.199219 20.460938 179.097656 20.628906 179.042969 20.71875 C 178.761719 21.164062 178.617188 21.210938 177.976562 21.242188 C 177.574219 21.265625 177.125 21.277344 176.703125 21.277344 C 176.285156 21.277344 175.960938 21.265625 175.714844 21.242188 C 175.625 21.230469 175.558594 21.222656 175.558594 21.164062 C 175.558594 21.109375 177.40625 19.316406 177.910156 18.710938 C 178.382812 18.140625 178.730469 17.355469 178.730469 16.753906 C 178.730469 15.664062 178.054688 14.902344 176.9375 14.902344 C 175.671875 14.902344 174.753906 16 174.753906 16.347656 C 174.753906 16.550781 174.863281 16.683594 174.921875 16.683594 C 174.988281 16.683594 175.066406 16.617188 175.109375 16.527344 C 175.425781 15.992188 175.972656 15.621094 176.589844 15.621094 C 177.226562 15.621094 177.789062 16.101562 177.789062 16.898438 C 177.789062 17.882812 177.238281 18.890625 176.488281 19.664062 L 174.574219 21.644531 C 174.507812 21.714844 174.484375 21.726562 174.484375 21.792969 C 174.484375 21.859375 174.652344 21.980469 174.707031 21.980469 C 174.933594 21.980469 176.746094 21.925781 177.304688 21.925781 C 177.867188 21.925781 178.59375 21.992188 178.816406 21.992188 Z M 178.816406 21.992188 "/>
<path style=" stroke:none;fill-rule:evenodd;fill:rgb(0%,0%,0%);fill-opacity:1;" d="M 175.570312 34.945312 C 175.914062 34.945312 176.835938 34.085938 176.835938 33.613281 C 176.835938 33.558594 176.789062 33.480469 176.765625 33.480469 C 176.710938 33.480469 176.667969 33.492188 176.585938 33.625 C 176.386719 33.949219 176.082031 34.273438 175.804688 34.273438 C 175.636719 34.273438 175.5 34.105469 175.433594 33.949219 L 174.917969 32.730469 C 174.886719 32.652344 174.898438 32.628906 174.976562 32.605469 C 175.738281 32.394531 177.257812 31.351562 177.257812 30.566406 C 177.257812 30.230469 176.902344 30.0625 176.597656 30.0625 C 175.847656 30.0625 174.875 30.757812 174.113281 31.824219 C 174.054688 31.902344 173.957031 31.945312 174.011719 31.777344 L 175.523438 27.175781 C 175.558594 27.074219 175.558594 27.039062 175.558594 26.917969 C 175.558594 26.804688 175.445312 26.804688 175.378906 26.804688 C 175.199219 26.804688 174.449219 27.050781 174.113281 27.21875 C 174.066406 27.242188 174.046875 27.285156 174.046875 27.34375 C 174.046875 27.386719 174.191406 27.441406 174.335938 27.5 C 174.492188 27.554688 174.582031 27.632812 174.582031 27.722656 C 174.582031 27.902344 174.558594 28.082031 174.472656 28.363281 L 172.601562 34.164062 C 172.535156 34.386719 172.511719 34.566406 172.511719 34.632812 C 172.511719 34.769531 172.691406 34.878906 172.800781 34.878906 C 172.980469 34.878906 173.003906 34.777344 173.09375 34.53125 C 173.171875 34.320312 173.53125 33.402344 173.621094 33.1875 C 173.6875 33.03125 173.820312 32.71875 173.921875 32.71875 C 174.167969 32.71875 174.347656 32.964844 174.4375 33.210938 L 174.863281 34.398438 C 175.019531 34.757812 175.210938 34.945312 175.570312 34.945312 Z M 174.390625 32.4375 C 174.304688 32.4375 174.257812 32.335938 174.257812 32.246094 C 174.257812 31.933594 175.445312 30.546875 176.074219 30.546875 C 176.339844 30.546875 176.476562 30.679688 176.476562 30.902344 C 176.476562 31.398438 175.320312 32.4375 174.390625 32.4375 Z M 174.390625 32.4375 "/>
<path style=" stroke:none;fill-rule:evenodd;fill:rgb(0%,0%,0%);fill-opacity:1;" d="M 181.019531 44.953125 C 181.113281 44.953125 181.210938 44.902344 181.289062 44.824219 C 182.761719 43.351562 185.128906 35.128906 185.128906 25.207031 C 185.128906 15.289062 182.824219 7.894531 181.355469 6.425781 C 181.257812 6.328125 181.082031 6.230469 180.921875 6.230469 C 180.808594 6.230469 180.570312 6.34375 180.570312 6.488281 C 180.570312 6.519531 180.746094 6.777344 180.777344 6.808594 C 182.089844 8.28125 183.800781 15.097656 183.800781 25.015625 C 183.800781 34.9375 182.136719 42.808594 180.824219 44.28125 C 180.808594 44.3125 180.585938 44.566406 180.585938 44.601562 C 180.585938 44.824219 180.808594 44.953125 181.019531 44.953125 Z M 181.019531 44.953125 "/>
<path style=" stroke:none;fill-rule:evenodd;fill:rgb(0%,0%,0%);fill-opacity:1;" d="M 189.171875 5.121094 C 189.601562 5.121094 189.9375 5.078125 190.371094 5.078125 C 190.792969 5.078125 191.089844 5.121094 191.546875 5.121094 C 191.609375 5.121094 191.65625 5.078125 191.65625 5.03125 C 191.65625 4.984375 191.585938 4.945312 191.523438 4.929688 C 190.867188 4.769531 190.675781 4.726562 190.675781 4.320312 L 190.675781 0.640625 C 190.675781 0.414062 190.683594 0.230469 190.707031 0.0703125 C 190.714844 0.03125 190.65625 0 190.609375 0 C 190.59375 0 190.578125 0 190.570312 0.0078125 C 190.210938 0.367188 189.851562 0.433594 189.371094 0.503906 C 189.257812 0.519531 189.171875 0.574219 189.171875 0.648438 C 189.171875 0.734375 189.273438 0.777344 189.378906 0.785156 C 189.722656 0.808594 190.050781 0.863281 190.050781 1.167969 L 190.050781 4.222656 C 190.050781 4.695312 189.777344 4.769531 189.171875 4.921875 C 189.105469 4.9375 189.050781 4.984375 189.050781 5.023438 C 189.050781 5.070312 189.089844 5.121094 189.171875 5.121094 Z M 189.171875 5.121094 "/>
<path style=" stroke:none;fill-rule:nonzero;fill:rgb(0%,0%,0%);fill-opacity:1;" d="M 188.332031 6.832031 L 192.242188 6.832031 L 192.242188 7.390625 L 188.332031 7.390625 Z M 188.332031 6.832031 "/>
<path style=" stroke:none;fill-rule:evenodd;fill:rgb(0%,0%,0%);fill-opacity:1;" d="M 191.5625 13.574219 C 191.617188 13.574219 191.707031 13.550781 191.738281 13.382812 C 191.816406 12.984375 191.976562 12.65625 191.976562 12.574219 C 191.976562 12.535156 191.96875 12.480469 191.921875 12.480469 C 191.835938 12.480469 191.761719 12.601562 191.722656 12.664062 C 191.523438 12.984375 191.417969 13.015625 190.960938 13.039062 C 190.675781 13.054688 190.355469 13.0625 190.050781 13.0625 C 189.753906 13.0625 189.523438 13.054688 189.347656 13.039062 C 189.28125 13.03125 189.234375 13.023438 189.234375 12.984375 C 189.234375 12.945312 190.554688 11.664062 190.914062 11.230469 C 191.25 10.824219 191.5 10.265625 191.5 9.832031 C 191.5 9.054688 191.019531 8.511719 190.21875 8.511719 C 189.3125 8.511719 188.65625 9.296875 188.65625 9.542969 C 188.65625 9.6875 188.738281 9.785156 188.777344 9.785156 C 188.824219 9.785156 188.882812 9.734375 188.914062 9.671875 C 189.136719 9.289062 189.53125 9.023438 189.96875 9.023438 C 190.425781 9.023438 190.824219 9.367188 190.824219 9.9375 C 190.824219 10.640625 190.433594 11.359375 189.898438 11.910156 L 188.53125 13.328125 C 188.480469 13.375 188.464844 13.382812 188.464844 13.433594 C 188.464844 13.480469 188.585938 13.566406 188.625 13.566406 C 188.785156 13.566406 190.082031 13.527344 190.480469 13.527344 C 190.882812 13.527344 191.402344 13.574219 191.5625 13.574219 Z M 191.5625 13.574219 "/>
</g>
</svg>
