<?xml version="1.0" encoding="UTF-8"?>
<svg xmlns="http://www.w3.org/2000/svg" xmlns:xlink="http://www.w3.org/1999/xlink" width="484.605353pt" height="116.416006pt" viewBox="0 0 484.605353 116.416006" version="1.1">
<g id="surface1">
<path style=" stroke:none;fill-rule:evenodd;fill:rgb(0%,0%,0%);fill-opacity:1;" d="M 8.800781 112.339844 L 8.800781 16.21875 C 8.800781 15.421875 8.039062 14.980469 7.238281 14.980469 C 7 14.980469 6.71875 15.300781 6.71875 15.621094 L 6.71875 111.738281 C 6.71875 112.539062 7.480469 112.980469 8.28125 112.980469 C 8.519531 112.980469 8.800781 112.660156 8.800781 112.339844 Z M 8.800781 112.339844 "/>
<path style=" stroke:none;fill-rule:evenodd;fill:rgb(0%,0%,0%);fill-opacity:1;" d="M 19.359375 37.421875 C 19.359375 37.898438 38.28125 59.738281 41.800781 64.140625 C 41.921875 64.300781 41.960938 64.421875 41.839844 64.578125 C 38.558594 68.5 18.71875 91.058594 18.71875 91.460938 C 18.71875 91.859375 19.199219 92.058594 19.558594 92.058594 C 21.480469 92.058594 22.039062 91.859375 24.039062 91.820312 C 25.480469 91.78125 39.160156 91.78125 40.839844 91.78125 C 43.121094 91.78125 53.71875 91.78125 56.28125 91.820312 C 57.398438 91.820312 58.28125 92.019531 59.480469 92.019531 C 59.878906 92.019531 59.960938 91.699219 60.039062 91.339844 C 60.238281 90.339844 61.640625 85.820312 62.359375 83.78125 C 62.359375 83.738281 62.398438 83.660156 62.398438 83.621094 C 62.398438 83.421875 62.238281 83.261719 62.039062 83.261719 C 61.519531 83.261719 61.160156 83.898438 60.800781 84.539062 C 59.679688 86.660156 58.320312 88.300781 56.039062 88.300781 C 52.558594 88.300781 27.121094 88.460938 24.71875 88.140625 C 24.28125 88.101562 24.121094 87.78125 24.398438 87.460938 L 45.359375 63.140625 C 45.519531 62.941406 45.800781 62.660156 45.398438 62.261719 C 42.800781 59.421875 28.558594 42.820312 25.800781 39.300781 C 25.71875 39.179688 25.640625 39.058594 25.640625 38.941406 C 25.640625 38.78125 25.800781 38.660156 26.398438 38.660156 C 29.078125 38.660156 51.761719 38.738281 54.160156 38.898438 C 55.441406 38.980469 56.921875 40.339844 57.640625 42.300781 C 57.839844 42.78125 57.921875 43.578125 58.519531 43.578125 C 58.839844 43.578125 58.921875 43.300781 58.921875 42.941406 C 58.921875 42.660156 58.878906 42.339844 58.839844 42.058594 C 58.679688 41.140625 58.121094 38.261719 57.878906 36.578125 C 57.800781 35.980469 57.480469 35.898438 57.28125 35.898438 C 57.078125 35.898438 56.679688 36.140625 56.28125 36.460938 C 55.960938 36.699219 54.519531 36.78125 53.359375 36.78125 C 51.160156 36.820312 40.800781 36.820312 38.839844 36.820312 C 35.28125 36.820312 22.960938 36.78125 20 36.699219 C 19.761719 36.699219 19.359375 36.898438 19.359375 37.421875 Z M 19.359375 37.421875 "/>
<path style=" stroke:none;fill-rule:evenodd;fill:rgb(0%,0%,0%);fill-opacity:1;" d="M 42.367188 116.414062 C 43.234375 116.414062 45.53125 114.261719 45.53125 113.085938 C 45.53125 112.945312 45.417969 112.746094 45.363281 112.746094 C 45.222656 112.746094 45.109375 112.777344 44.914062 113.113281 C 44.410156 113.925781 43.652344 114.734375 42.953125 114.734375 C 42.535156 114.734375 42.199219 114.316406 42.03125 113.925781 L 40.742188 110.871094 C 40.65625 110.675781 40.6875 110.621094 40.882812 110.5625 C 42.785156 110.03125 46.59375 107.429688 46.59375 105.46875 C 46.59375 104.628906 45.699219 104.207031 44.941406 104.207031 C 43.066406 104.207031 40.628906 105.945312 38.726562 108.605469 C 38.585938 108.800781 38.335938 108.910156 38.472656 108.492188 L 42.253906 96.984375 C 42.339844 96.730469 42.339844 96.648438 42.339844 96.339844 C 42.339844 96.058594 42.058594 96.058594 41.890625 96.058594 C 41.441406 96.058594 39.566406 96.675781 38.726562 97.097656 C 38.613281 97.152344 38.558594 97.265625 38.558594 97.402344 C 38.558594 97.515625 38.921875 97.65625 39.285156 97.796875 C 39.679688 97.9375 39.902344 98.132812 39.902344 98.355469 C 39.902344 98.804688 39.847656 99.253906 39.621094 99.953125 L 34.945312 114.457031 C 34.777344 115.015625 34.722656 115.464844 34.722656 115.632812 C 34.722656 115.96875 35.171875 116.246094 35.449219 116.246094 C 35.898438 116.246094 35.953125 115.996094 36.179688 115.378906 C 36.375 114.847656 37.269531 112.550781 37.492188 112.019531 C 37.660156 111.628906 37.996094 110.84375 38.25 110.84375 C 38.867188 110.84375 39.3125 111.460938 39.539062 112.074219 L 40.601562 115.042969 C 40.992188 115.941406 41.46875 116.414062 42.367188 116.414062 Z M 39.425781 110.144531 C 39.203125 110.144531 39.089844 109.890625 39.089844 109.667969 C 39.089844 108.882812 42.058594 105.410156 43.625 105.410156 C 44.296875 105.410156 44.632812 105.746094 44.632812 106.308594 C 44.632812 107.539062 41.75 110.144531 39.425781 110.144531 Z M 39.425781 110.144531 "/>
<path style=" stroke:none;fill-rule:evenodd;fill:rgb(0%,0%,0%);fill-opacity:1;" d="M 74.945312 74.539062 C 77.347656 74.539062 79.828125 72.699219 84.707031 67.261719 C 85.027344 66.898438 85.066406 67.300781 84.785156 67.859375 C 83.988281 69.539062 82.425781 73.019531 82.90625 72.058594 C 82.746094 72.378906 82.667969 72.738281 82.667969 72.980469 C 82.667969 73.738281 83.546875 74.539062 84.386719 74.539062 C 85.667969 74.539062 87.226562 73.78125 88.746094 72.378906 C 89.546875 71.578125 90.464844 70.21875 90.464844 69.859375 C 90.464844 69.539062 90.386719 69.421875 90.1875 69.421875 C 90.066406 69.421875 89.90625 69.5 89.828125 69.621094 C 88.828125 70.980469 87.265625 72.019531 86.308594 72.019531 C 85.667969 72.019531 85.464844 71.5 85.785156 70.660156 L 90.265625 58.78125 C 90.464844 58.21875 90.546875 57.941406 90.546875 57.78125 C 90.546875 57.378906 89.746094 56.941406 89.027344 56.941406 C 88.867188 56.941406 88.707031 57.058594 88.546875 57.339844 C 88.386719 57.578125 88.148438 58.058594 87.867188 58.539062 C 87.746094 58.699219 87.707031 58.78125 87.625 58.78125 C 87.585938 58.78125 87.425781 58.578125 87.148438 58.179688 C 86.867188 57.859375 86.425781 57.621094 86.027344 57.621094 C 85.1875 57.621094 83.386719 58.859375 80.507812 61.378906 C 75.988281 65.339844 72.90625 69.941406 72.90625 72.78125 C 72.90625 73.660156 73.945312 74.539062 74.945312 74.539062 Z M 77.1875 72.019531 C 76.507812 72.019531 76.027344 71.460938 76.027344 70.660156 C 76.027344 68.820312 78.546875 64.898438 81.226562 62.300781 C 82.585938 60.980469 84.546875 59.859375 85.507812 59.859375 C 85.785156 59.859375 86.1875 60.058594 86.507812 60.300781 C 86.785156 60.539062 87.027344 60.859375 87.027344 61.058594 C 87.027344 62.019531 85.746094 64.140625 83.746094 66.5 C 80.828125 69.980469 78.347656 72.019531 77.1875 72.019531 Z M 77.1875 72.019531 "/>
<path style=" stroke:none;fill-rule:evenodd;fill:rgb(0%,0%,0%);fill-opacity:1;" d="M 97.976562 87.367188 C 98.84375 87.367188 101.136719 85.210938 101.136719 84.035156 C 101.136719 83.894531 101.027344 83.699219 100.96875 83.699219 C 100.832031 83.699219 100.71875 83.726562 100.523438 84.0625 C 100.019531 84.875 99.261719 85.6875 98.5625 85.6875 C 98.144531 85.6875 97.808594 85.269531 97.636719 84.875 L 96.351562 81.824219 C 96.265625 81.628906 96.292969 81.570312 96.492188 81.515625 C 98.394531 80.984375 102.203125 78.378906 102.203125 76.421875 C 102.203125 75.578125 101.308594 75.160156 100.550781 75.160156 C 98.675781 75.160156 96.238281 76.894531 94.335938 79.554688 C 94.195312 79.753906 93.941406 79.863281 94.082031 79.445312 L 97.863281 67.9375 C 97.945312 67.683594 97.945312 67.601562 97.945312 67.292969 C 97.945312 67.011719 97.667969 67.011719 97.5 67.011719 C 97.050781 67.011719 95.175781 67.628906 94.335938 68.046875 C 94.222656 68.105469 94.167969 68.214844 94.167969 68.355469 C 94.167969 68.46875 94.53125 68.609375 94.894531 68.746094 C 95.285156 68.886719 95.511719 69.085938 95.511719 69.308594 C 95.511719 69.757812 95.453125 70.203125 95.230469 70.902344 L 90.554688 85.40625 C 90.386719 85.96875 90.332031 86.414062 90.332031 86.585938 C 90.332031 86.921875 90.777344 87.199219 91.058594 87.199219 C 91.507812 87.199219 91.5625 86.949219 91.785156 86.332031 C 91.984375 85.800781 92.878906 83.503906 93.101562 82.972656 C 93.269531 82.578125 93.605469 81.796875 93.859375 81.796875 C 94.476562 81.796875 94.921875 82.410156 95.148438 83.027344 L 96.210938 85.996094 C 96.601562 86.890625 97.078125 87.367188 97.976562 87.367188 Z M 95.035156 81.097656 C 94.8125 81.097656 94.699219 80.84375 94.699219 80.621094 C 94.699219 79.835938 97.667969 76.363281 99.234375 76.363281 C 99.90625 76.363281 100.242188 76.699219 100.242188 77.261719 C 100.242188 78.492188 97.359375 81.097656 95.035156 81.097656 Z M 95.035156 81.097656 "/>
<path style=" stroke:none;fill-rule:evenodd;fill:rgb(0%,0%,0%);fill-opacity:1;" d="M 107.832031 74.300781 C 113.230469 74.300781 120.070312 66.5 120.070312 60.378906 C 120.070312 58.660156 118.832031 57.421875 117.109375 57.421875 C 115.109375 57.421875 112.191406 59.738281 109.03125 63.898438 C 108.671875 64.378906 108.351562 64.261719 108.550781 63.699219 C 109.671875 60.179688 113.109375 50.140625 114.152344 47.421875 C 114.351562 46.859375 114.429688 46.578125 114.429688 46.101562 C 114.429688 45.820312 114.230469 45.699219 113.789062 45.699219 C 113.3125 45.699219 110.390625 46.5 109.191406 46.941406 C 108.710938 47.101562 108.550781 47.261719 108.550781 47.5 C 108.550781 47.660156 109.03125 47.898438 109.789062 48.101562 C 110.511719 48.300781 110.789062 48.5 110.789062 48.78125 C 110.789062 49.460938 110.671875 50.179688 110.390625 50.941406 L 105.351562 66.179688 C 104.75 67.941406 104.429688 69.699219 104.429688 71.019531 C 104.429688 73.019531 105.75 74.300781 107.832031 74.300781 Z M 108.871094 73.019531 C 107.75 73.019531 106.789062 71.78125 106.789062 70.339844 C 106.789062 69.339844 107.949219 67.101562 109.710938 64.621094 C 112.511719 60.78125 114.589844 58.941406 116.269531 58.941406 C 116.910156 58.941406 117.429688 59.621094 117.429688 60.539062 C 117.429688 62.460938 115.871094 66.140625 113.949219 68.699219 C 112.070312 71.179688 109.910156 73.019531 108.871094 73.019531 Z M 108.871094 73.019531 "/>
<path style=" stroke:none;fill-rule:evenodd;fill:rgb(0%,0%,0%);fill-opacity:1;" d="M 124.457031 87.367188 C 125.328125 87.367188 127.621094 85.210938 127.621094 84.035156 C 127.621094 83.894531 127.511719 83.699219 127.453125 83.699219 C 127.316406 83.699219 127.203125 83.726562 127.007812 84.0625 C 126.503906 84.875 125.746094 85.6875 125.046875 85.6875 C 124.625 85.6875 124.289062 85.269531 124.121094 84.875 L 122.835938 81.824219 C 122.75 81.628906 122.777344 81.570312 122.976562 81.515625 C 124.878906 80.984375 128.6875 78.378906 128.6875 76.421875 C 128.6875 75.578125 127.789062 75.160156 127.035156 75.160156 C 125.160156 75.160156 122.722656 76.894531 120.820312 79.554688 C 120.679688 79.753906 120.425781 79.863281 120.566406 79.445312 L 124.347656 67.9375 C 124.429688 67.683594 124.429688 67.601562 124.429688 67.292969 C 124.429688 67.011719 124.152344 67.011719 123.984375 67.011719 C 123.535156 67.011719 121.660156 67.628906 120.820312 68.046875 C 120.707031 68.105469 120.652344 68.214844 120.652344 68.355469 C 120.652344 68.46875 121.015625 68.609375 121.378906 68.746094 C 121.769531 68.886719 121.996094 69.085938 121.996094 69.308594 C 121.996094 69.757812 121.9375 70.203125 121.714844 70.902344 L 117.039062 85.40625 C 116.871094 85.96875 116.816406 86.414062 116.816406 86.585938 C 116.816406 86.921875 117.261719 87.199219 117.542969 87.199219 C 117.992188 87.199219 118.046875 86.949219 118.269531 86.332031 C 118.464844 85.800781 119.363281 83.503906 119.585938 82.972656 C 119.753906 82.578125 120.089844 81.796875 120.34375 81.796875 C 120.957031 81.796875 121.40625 82.410156 121.628906 83.027344 L 122.695312 85.996094 C 123.085938 86.890625 123.5625 87.367188 124.457031 87.367188 Z M 121.519531 81.097656 C 121.292969 81.097656 121.183594 80.84375 121.183594 80.621094 C 121.183594 79.835938 124.152344 76.363281 125.71875 76.363281 C 126.390625 76.363281 126.726562 76.699219 126.726562 77.261719 C 126.726562 78.492188 123.84375 81.097656 121.519531 81.097656 Z M 121.519531 81.097656 "/>
<path style=" stroke:none;fill-rule:evenodd;fill:rgb(0%,0%,0%);fill-opacity:1;" d="M 138.074219 112.339844 L 138.074219 16.21875 C 138.074219 15.421875 137.316406 14.980469 136.515625 14.980469 C 136.273438 14.980469 135.996094 15.300781 135.996094 15.621094 L 135.996094 111.738281 C 135.996094 112.539062 136.753906 112.980469 137.554688 112.980469 C 137.792969 112.980469 138.074219 112.660156 138.074219 112.339844 Z M 138.074219 112.339844 "/>
<path style=" stroke:none;fill-rule:evenodd;fill:rgb(0%,0%,0%);fill-opacity:1;" d="M 177.929688 72.261719 L 161.328125 72.261719 C 160.648438 72.261719 160.128906 72.941406 160.128906 73.820312 C 160.128906 74.058594 160.40625 74.261719 160.648438 74.261719 L 177.527344 74.261719 C 178.367188 74.261719 178.488281 73.101562 178.488281 72.738281 C 178.488281 72.5 178.207031 72.261719 177.929688 72.261719 Z M 178.046875 70.941406 C 178.289062 70.941406 178.488281 70.621094 178.488281 70.421875 C 178.488281 70.058594 178.289062 68.820312 177.527344 68.5 L 163.527344 62.339844 C 163.40625 62.300781 163.367188 62.179688 163.488281 62.140625 L 177.207031 55.980469 C 178.089844 55.621094 178.449219 54.421875 178.449219 53.941406 C 178.449219 53.460938 178.089844 53.578125 177.929688 53.578125 L 161.648438 60.78125 C 160.847656 61.101562 160.328125 62.261719 160.328125 62.621094 C 160.328125 62.859375 161.246094 63.421875 161.96875 63.699219 L 177.929688 70.898438 C 177.96875 70.898438 178.007812 70.941406 178.046875 70.941406 Z M 178.046875 70.941406 "/>
<path style=" stroke:none;fill-rule:evenodd;fill:rgb(0%,0%,0%);fill-opacity:1;" d="M 208.101562 112.378906 C 208.621094 112.378906 209.179688 112.058594 209.179688 111.5 C 209.179688 111.421875 208.621094 110.78125 208.582031 110.699219 C 205.300781 107.019531 201.140625 87.339844 201.140625 62.539062 C 201.140625 37.738281 205.421875 20.699219 208.703125 17.019531 C 208.78125 16.941406 209.222656 16.300781 209.222656 16.21875 C 209.222656 15.859375 208.621094 15.578125 208.339844 15.578125 C 207.941406 15.578125 207.5 15.820312 207.261719 16.058594 C 203.582031 19.738281 197.820312 38.21875 197.820312 63.019531 C 197.820312 87.820312 203.742188 108.378906 207.421875 112.058594 C 207.621094 112.261719 207.863281 112.378906 208.101562 112.378906 Z M 208.101562 112.378906 "/>
<path style=" stroke:none;fill-rule:evenodd;fill:rgb(0%,0%,0%);fill-opacity:1;" d="M 215.0625 37.421875 C 215.0625 37.898438 233.980469 59.738281 237.5 64.140625 C 237.621094 64.300781 237.660156 64.421875 237.542969 64.578125 C 234.261719 68.5 214.421875 91.058594 214.421875 91.460938 C 214.421875 91.859375 214.902344 92.058594 215.261719 92.058594 C 217.179688 92.058594 217.742188 91.859375 219.742188 91.820312 C 221.179688 91.78125 234.863281 91.78125 236.542969 91.78125 C 238.820312 91.78125 249.421875 91.78125 251.980469 91.820312 C 253.101562 91.820312 253.980469 92.019531 255.179688 92.019531 C 255.582031 92.019531 255.660156 91.699219 255.742188 91.339844 C 255.941406 90.339844 257.339844 85.820312 258.0625 83.78125 C 258.0625 83.738281 258.101562 83.660156 258.101562 83.621094 C 258.101562 83.421875 257.941406 83.261719 257.742188 83.261719 C 257.222656 83.261719 256.863281 83.898438 256.5 84.539062 C 255.382812 86.660156 254.019531 88.300781 251.742188 88.300781 C 248.261719 88.300781 222.820312 88.460938 220.421875 88.140625 C 219.980469 88.101562 219.820312 87.78125 220.101562 87.460938 L 241.0625 63.140625 C 241.222656 62.941406 241.5 62.660156 241.101562 62.261719 C 238.5 59.421875 224.261719 42.820312 221.5 39.300781 C 221.421875 39.179688 221.339844 39.058594 221.339844 38.941406 C 221.339844 38.78125 221.5 38.660156 222.101562 38.660156 C 224.78125 38.660156 247.460938 38.738281 249.863281 38.898438 C 251.140625 38.980469 252.621094 40.339844 253.339844 42.300781 C 253.542969 42.78125 253.621094 43.578125 254.222656 43.578125 C 254.542969 43.578125 254.621094 43.300781 254.621094 42.941406 C 254.621094 42.660156 254.582031 42.339844 254.542969 42.058594 C 254.382812 41.140625 253.820312 38.261719 253.582031 36.578125 C 253.5 35.980469 253.179688 35.898438 252.980469 35.898438 C 252.78125 35.898438 252.382812 36.140625 251.980469 36.460938 C 251.660156 36.699219 250.222656 36.78125 249.0625 36.78125 C 246.863281 36.820312 236.5 36.820312 234.542969 36.820312 C 230.980469 36.820312 218.660156 36.78125 215.703125 36.699219 C 215.460938 36.699219 215.0625 36.898438 215.0625 37.421875 Z M 215.0625 37.421875 "/>
<path style=" stroke:none;fill-rule:evenodd;fill:rgb(0%,0%,0%);fill-opacity:1;" d="M 238.066406 116.414062 C 238.933594 116.414062 241.230469 114.261719 241.230469 113.085938 C 241.230469 112.945312 241.121094 112.746094 241.0625 112.746094 C 240.921875 112.746094 240.8125 112.777344 240.617188 113.113281 C 240.113281 113.925781 239.355469 114.734375 238.65625 114.734375 C 238.234375 114.734375 237.898438 114.316406 237.730469 113.925781 L 236.441406 110.871094 C 236.359375 110.675781 236.386719 110.621094 236.582031 110.5625 C 238.488281 110.03125 242.296875 107.429688 242.296875 105.46875 C 242.296875 104.628906 241.398438 104.207031 240.644531 104.207031 C 238.765625 104.207031 236.332031 105.945312 234.425781 108.605469 C 234.289062 108.800781 234.035156 108.910156 234.175781 108.492188 L 237.957031 96.984375 C 238.039062 96.730469 238.039062 96.648438 238.039062 96.339844 C 238.039062 96.058594 237.757812 96.058594 237.589844 96.058594 C 237.144531 96.058594 235.265625 96.675781 234.425781 97.097656 C 234.316406 97.152344 234.257812 97.265625 234.257812 97.402344 C 234.257812 97.515625 234.625 97.65625 234.988281 97.796875 C 235.378906 97.9375 235.601562 98.132812 235.601562 98.355469 C 235.601562 98.804688 235.546875 99.253906 235.324219 99.953125 L 230.648438 114.457031 C 230.480469 115.015625 230.421875 115.464844 230.421875 115.632812 C 230.421875 115.96875 230.871094 116.246094 231.152344 116.246094 C 231.597656 116.246094 231.65625 115.996094 231.878906 115.378906 C 232.074219 114.847656 232.972656 112.550781 233.195312 112.019531 C 233.363281 111.628906 233.699219 110.84375 233.953125 110.84375 C 234.566406 110.84375 235.015625 111.460938 235.238281 112.074219 L 236.304688 115.042969 C 236.695312 115.941406 237.171875 116.414062 238.066406 116.414062 Z M 235.128906 110.144531 C 234.902344 110.144531 234.792969 109.890625 234.792969 109.667969 C 234.792969 108.882812 237.757812 105.410156 239.328125 105.410156 C 240 105.410156 240.335938 105.746094 240.335938 106.308594 C 240.335938 107.539062 237.453125 110.144531 235.128906 110.144531 Z M 235.128906 110.144531 "/>
<path style=" stroke:none;fill-rule:evenodd;fill:rgb(0%,0%,0%);fill-opacity:1;" d="M 270.648438 74.539062 C 273.046875 74.539062 275.527344 72.699219 280.40625 67.261719 C 280.726562 66.898438 280.769531 67.300781 280.488281 67.859375 C 279.6875 69.539062 278.128906 73.019531 278.609375 72.058594 C 278.449219 72.378906 278.367188 72.738281 278.367188 72.980469 C 278.367188 73.738281 279.246094 74.539062 280.089844 74.539062 C 281.367188 74.539062 282.929688 73.78125 284.449219 72.378906 C 285.246094 71.578125 286.167969 70.21875 286.167969 69.859375 C 286.167969 69.539062 286.089844 69.421875 285.886719 69.421875 C 285.769531 69.421875 285.609375 69.5 285.527344 69.621094 C 284.527344 70.980469 282.96875 72.019531 282.007812 72.019531 C 281.367188 72.019531 281.167969 71.5 281.488281 70.660156 L 285.96875 58.78125 C 286.167969 58.21875 286.246094 57.941406 286.246094 57.78125 C 286.246094 57.378906 285.449219 56.941406 284.726562 56.941406 C 284.566406 56.941406 284.40625 57.058594 284.246094 57.339844 C 284.089844 57.578125 283.847656 58.058594 283.566406 58.539062 C 283.449219 58.699219 283.40625 58.78125 283.328125 58.78125 C 283.289062 58.78125 283.128906 58.578125 282.847656 58.179688 C 282.566406 57.859375 282.128906 57.621094 281.726562 57.621094 C 280.886719 57.621094 279.089844 58.859375 276.207031 61.378906 C 271.6875 65.339844 268.609375 69.941406 268.609375 72.78125 C 268.609375 73.660156 269.648438 74.539062 270.648438 74.539062 Z M 272.886719 72.019531 C 272.207031 72.019531 271.726562 71.460938 271.726562 70.660156 C 271.726562 68.820312 274.246094 64.898438 276.929688 62.300781 C 278.289062 60.980469 280.246094 59.859375 281.207031 59.859375 C 281.488281 59.859375 281.886719 60.058594 282.207031 60.300781 C 282.488281 60.539062 282.726562 60.859375 282.726562 61.058594 C 282.726562 62.019531 281.449219 64.140625 279.449219 66.5 C 276.527344 69.980469 274.046875 72.019531 272.886719 72.019531 Z M 272.886719 72.019531 "/>
<path style=" stroke:none;fill-rule:evenodd;fill:rgb(0%,0%,0%);fill-opacity:1;" d="M 298.878906 56.863281 C 299.074219 56.863281 299.382812 56.78125 299.496094 56.191406 C 299.777344 54.792969 300.335938 53.644531 300.335938 53.363281 C 300.335938 53.222656 300.308594 53.027344 300.140625 53.027344 C 299.832031 53.027344 299.578125 53.449219 299.441406 53.671875 C 298.738281 54.792969 298.375 54.902344 296.78125 54.988281 C 295.773438 55.042969 294.652344 55.070312 293.589844 55.070312 C 292.550781 55.070312 291.738281 55.042969 291.125 54.988281 C 290.898438 54.960938 290.730469 54.933594 290.730469 54.792969 C 290.730469 54.652344 295.351562 50.171875 296.613281 48.660156 C 297.789062 47.230469 298.65625 45.273438 298.65625 43.761719 C 298.65625 41.042969 296.976562 39.140625 294.175781 39.140625 C 291.011719 39.140625 288.714844 41.882812 288.714844 42.753906 C 288.714844 43.257812 288.996094 43.59375 289.136719 43.59375 C 289.304688 43.59375 289.5 43.425781 289.613281 43.199219 C 290.394531 41.855469 291.769531 40.933594 293.308594 40.933594 C 294.902344 40.933594 296.304688 42.136719 296.304688 44.125 C 296.304688 46.589844 294.933594 49.109375 293.054688 51.039062 L 288.269531 55.996094 C 288.101562 56.164062 288.042969 56.191406 288.042969 56.359375 C 288.042969 56.527344 288.464844 56.835938 288.605469 56.835938 C 289.164062 56.835938 293.699219 56.695312 295.101562 56.695312 C 296.5 56.695312 298.320312 56.863281 298.878906 56.863281 Z M 298.878906 56.863281 "/>
<path style=" stroke:none;fill-rule:evenodd;fill:rgb(0%,0%,0%);fill-opacity:1;" d="M 293.675781 87.367188 C 294.542969 87.367188 296.839844 85.210938 296.839844 84.035156 C 296.839844 83.894531 296.726562 83.699219 296.671875 83.699219 C 296.53125 83.699219 296.421875 83.726562 296.222656 84.0625 C 295.71875 84.875 294.964844 85.6875 294.265625 85.6875 C 293.84375 85.6875 293.507812 85.269531 293.339844 84.875 L 292.050781 81.824219 C 291.96875 81.628906 291.996094 81.570312 292.191406 81.515625 C 294.097656 80.984375 297.902344 78.378906 297.902344 76.421875 C 297.902344 75.578125 297.007812 75.160156 296.253906 75.160156 C 294.375 75.160156 291.941406 76.894531 290.035156 79.554688 C 289.894531 79.753906 289.644531 79.863281 289.785156 79.445312 L 293.5625 67.9375 C 293.648438 67.683594 293.648438 67.601562 293.648438 67.292969 C 293.648438 67.011719 293.367188 67.011719 293.199219 67.011719 C 292.753906 67.011719 290.875 67.628906 290.035156 68.046875 C 289.925781 68.105469 289.867188 68.214844 289.867188 68.355469 C 289.867188 68.46875 290.230469 68.609375 290.597656 68.746094 C 290.988281 68.886719 291.210938 69.085938 291.210938 69.308594 C 291.210938 69.757812 291.15625 70.203125 290.933594 70.902344 L 286.257812 85.40625 C 286.089844 85.96875 286.03125 86.414062 286.03125 86.585938 C 286.03125 86.921875 286.480469 87.199219 286.761719 87.199219 C 287.207031 87.199219 287.265625 86.949219 287.488281 86.332031 C 287.683594 85.800781 288.578125 83.503906 288.804688 82.972656 C 288.972656 82.578125 289.308594 81.796875 289.558594 81.796875 C 290.175781 81.796875 290.625 82.410156 290.847656 83.027344 L 291.910156 85.996094 C 292.304688 86.890625 292.78125 87.367188 293.675781 87.367188 Z M 290.734375 81.097656 C 290.511719 81.097656 290.398438 80.84375 290.398438 80.621094 C 290.398438 79.835938 293.367188 76.363281 294.9375 76.363281 C 295.609375 76.363281 295.945312 76.699219 295.945312 77.261719 C 295.945312 78.492188 293.058594 81.097656 290.734375 81.097656 Z M 290.734375 81.097656 "/>
<path style=" stroke:none;fill-rule:evenodd;fill:rgb(0%,0%,0%);fill-opacity:1;" d="M 304.378906 112.378906 C 304.621094 112.378906 304.859375 112.261719 305.058594 112.058594 C 308.738281 108.378906 314.660156 87.820312 314.660156 63.019531 C 314.660156 38.21875 308.898438 19.738281 305.21875 16.058594 C 304.980469 15.820312 304.539062 15.578125 304.140625 15.578125 C 303.859375 15.578125 303.261719 15.859375 303.261719 16.21875 C 303.261719 16.300781 303.699219 16.941406 303.78125 17.019531 C 307.058594 20.699219 311.339844 37.738281 311.339844 62.539062 C 311.339844 87.339844 307.179688 107.019531 303.898438 110.699219 C 303.859375 110.78125 303.300781 111.421875 303.300781 111.5 C 303.300781 112.058594 303.859375 112.378906 304.378906 112.378906 Z M 304.378906 112.378906 "/>
<path style=" stroke:none;fill-rule:evenodd;fill:rgb(0%,0%,0%);fill-opacity:1;" d="M 324.761719 12.800781 C 325.839844 12.800781 326.679688 12.699219 327.761719 12.699219 C 328.820312 12.699219 329.558594 12.800781 330.699219 12.800781 C 330.859375 12.800781 330.980469 12.699219 330.980469 12.578125 C 330.980469 12.460938 330.800781 12.359375 330.640625 12.320312 C 329 11.921875 328.519531 11.820312 328.519531 10.800781 L 328.519531 1.601562 C 328.519531 1.039062 328.539062 0.578125 328.601562 0.179688 C 328.621094 0.078125 328.480469 0 328.359375 0 C 328.320312 0 328.28125 0 328.261719 0.0195312 C 327.359375 0.921875 326.460938 1.078125 325.261719 1.261719 C 324.980469 1.300781 324.761719 1.441406 324.761719 1.621094 C 324.761719 1.839844 325.019531 1.941406 325.28125 1.960938 C 326.140625 2.019531 326.960938 2.160156 326.960938 2.921875 L 326.960938 10.558594 C 326.960938 11.738281 326.28125 11.921875 324.761719 12.300781 C 324.601562 12.339844 324.460938 12.460938 324.460938 12.558594 C 324.460938 12.679688 324.558594 12.800781 324.761719 12.800781 Z M 324.761719 12.800781 "/>
<path style=" stroke:none;fill-rule:nonzero;fill:rgb(0%,0%,0%);fill-opacity:1;" d="M 322.660156 17.078125 L 332.441406 17.078125 L 332.441406 18.476562 L 322.660156 18.476562 Z M 322.660156 17.078125 "/>
<path style=" stroke:none;fill-rule:evenodd;fill:rgb(0%,0%,0%);fill-opacity:1;" d="M 330.738281 33.941406 C 330.878906 33.941406 331.101562 33.878906 331.179688 33.460938 C 331.378906 32.460938 331.78125 31.640625 331.78125 31.441406 C 331.78125 31.339844 331.761719 31.199219 331.640625 31.199219 C 331.421875 31.199219 331.238281 31.5 331.140625 31.660156 C 330.640625 32.460938 330.378906 32.539062 329.238281 32.601562 C 328.519531 32.640625 327.71875 32.660156 326.960938 32.660156 C 326.21875 32.660156 325.640625 32.640625 325.199219 32.601562 C 325.039062 32.578125 324.921875 32.558594 324.921875 32.460938 C 324.921875 32.359375 328.21875 29.160156 329.121094 28.078125 C 329.960938 27.058594 330.578125 25.660156 330.578125 24.578125 C 330.578125 22.640625 329.378906 21.28125 327.378906 21.28125 C 325.121094 21.28125 323.480469 23.238281 323.480469 23.859375 C 323.480469 24.21875 323.679688 24.460938 323.78125 24.460938 C 323.898438 24.460938 324.039062 24.339844 324.121094 24.179688 C 324.679688 23.21875 325.660156 22.558594 326.761719 22.558594 C 327.898438 22.558594 328.898438 23.421875 328.898438 24.839844 C 328.898438 26.601562 327.921875 28.398438 326.578125 29.78125 L 323.160156 33.320312 C 323.039062 33.441406 323 33.460938 323 33.578125 C 323 33.699219 323.300781 33.921875 323.398438 33.921875 C 323.800781 33.921875 327.039062 33.820312 328.039062 33.820312 C 329.039062 33.820312 330.339844 33.941406 330.738281 33.941406 Z M 330.738281 33.941406 "/>
<path style=" stroke:none;fill-rule:evenodd;fill:rgb(0%,0%,0%);fill-opacity:1;" d="M 357.386719 112.378906 C 357.90625 112.378906 358.464844 112.058594 358.464844 111.5 C 358.464844 111.421875 357.90625 110.78125 357.867188 110.699219 C 354.585938 107.019531 350.425781 87.339844 350.425781 62.539062 C 350.425781 37.738281 354.707031 20.699219 357.988281 17.019531 C 358.066406 16.941406 358.507812 16.300781 358.507812 16.21875 C 358.507812 15.859375 357.90625 15.578125 357.625 15.578125 C 357.226562 15.578125 356.785156 15.820312 356.546875 16.058594 C 352.867188 19.738281 347.105469 38.21875 347.105469 63.019531 C 347.105469 87.820312 353.027344 108.378906 356.707031 112.058594 C 356.90625 112.261719 357.148438 112.378906 357.386719 112.378906 Z M 357.386719 112.378906 "/>
<path style=" stroke:none;fill-rule:evenodd;fill:rgb(0%,0%,0%);fill-opacity:1;" d="M 364.347656 37.421875 C 364.347656 37.898438 383.265625 59.738281 386.785156 64.140625 C 386.90625 64.300781 386.945312 64.421875 386.828125 64.578125 C 383.546875 68.5 363.707031 91.058594 363.707031 91.460938 C 363.707031 91.859375 364.1875 92.058594 364.546875 92.058594 C 366.464844 92.058594 367.027344 91.859375 369.027344 91.820312 C 370.464844 91.78125 384.148438 91.78125 385.828125 91.78125 C 388.105469 91.78125 398.707031 91.78125 401.265625 91.820312 C 402.386719 91.820312 403.265625 92.019531 404.464844 92.019531 C 404.867188 92.019531 404.945312 91.699219 405.027344 91.339844 C 405.226562 90.339844 406.625 85.820312 407.347656 83.78125 C 407.347656 83.738281 407.386719 83.660156 407.386719 83.621094 C 407.386719 83.421875 407.226562 83.261719 407.027344 83.261719 C 406.507812 83.261719 406.148438 83.898438 405.785156 84.539062 C 404.667969 86.660156 403.308594 88.300781 401.027344 88.300781 C 397.546875 88.300781 372.105469 88.460938 369.707031 88.140625 C 369.265625 88.101562 369.105469 87.78125 369.386719 87.460938 L 390.347656 63.140625 C 390.507812 62.941406 390.785156 62.660156 390.386719 62.261719 C 387.785156 59.421875 373.546875 42.820312 370.785156 39.300781 C 370.707031 39.179688 370.625 39.058594 370.625 38.941406 C 370.625 38.78125 370.785156 38.660156 371.386719 38.660156 C 374.066406 38.660156 396.746094 38.738281 399.148438 38.898438 C 400.425781 38.980469 401.90625 40.339844 402.625 42.300781 C 402.828125 42.78125 402.90625 43.578125 403.507812 43.578125 C 403.828125 43.578125 403.90625 43.300781 403.90625 42.941406 C 403.90625 42.660156 403.867188 42.339844 403.828125 42.058594 C 403.667969 41.140625 403.105469 38.261719 402.867188 36.578125 C 402.785156 35.980469 402.464844 35.898438 402.265625 35.898438 C 402.066406 35.898438 401.667969 36.140625 401.265625 36.460938 C 400.945312 36.699219 399.507812 36.78125 398.347656 36.78125 C 396.148438 36.820312 385.785156 36.820312 383.828125 36.820312 C 380.265625 36.820312 367.945312 36.78125 364.988281 36.699219 C 364.746094 36.699219 364.347656 36.898438 364.347656 37.421875 Z M 364.347656 37.421875 "/>
<path style=" stroke:none;fill-rule:evenodd;fill:rgb(0%,0%,0%);fill-opacity:1;" d="M 387.351562 116.414062 C 388.21875 116.414062 390.515625 114.261719 390.515625 113.085938 C 390.515625 112.945312 390.40625 112.746094 390.347656 112.746094 C 390.207031 112.746094 390.097656 112.777344 389.902344 113.113281 C 389.398438 113.925781 388.640625 114.734375 387.941406 114.734375 C 387.519531 114.734375 387.183594 114.316406 387.015625 113.925781 L 385.730469 110.871094 C 385.644531 110.675781 385.671875 110.621094 385.867188 110.5625 C 387.773438 110.03125 391.582031 107.429688 391.582031 105.46875 C 391.582031 104.628906 390.683594 104.207031 389.929688 104.207031 C 388.050781 104.207031 385.617188 105.945312 383.710938 108.605469 C 383.574219 108.800781 383.320312 108.910156 383.460938 108.492188 L 387.242188 96.984375 C 387.324219 96.730469 387.324219 96.648438 387.324219 96.339844 C 387.324219 96.058594 387.042969 96.058594 386.875 96.058594 C 386.429688 96.058594 384.550781 96.675781 383.710938 97.097656 C 383.601562 97.152344 383.542969 97.265625 383.542969 97.402344 C 383.542969 97.515625 383.910156 97.65625 384.273438 97.796875 C 384.664062 97.9375 384.890625 98.132812 384.890625 98.355469 C 384.890625 98.804688 384.832031 99.253906 384.609375 99.953125 L 379.933594 114.457031 C 379.765625 115.015625 379.707031 115.464844 379.707031 115.632812 C 379.707031 115.96875 380.15625 116.246094 380.4375 116.246094 C 380.882812 116.246094 380.941406 115.996094 381.164062 115.378906 C 381.359375 114.847656 382.257812 112.550781 382.480469 112.019531 C 382.648438 111.628906 382.984375 110.84375 383.238281 110.84375 C 383.851562 110.84375 384.300781 111.460938 384.523438 112.074219 L 385.589844 115.042969 C 385.980469 115.941406 386.457031 116.414062 387.351562 116.414062 Z M 384.414062 110.144531 C 384.1875 110.144531 384.078125 109.890625 384.078125 109.667969 C 384.078125 108.882812 387.042969 105.410156 388.613281 105.410156 C 389.285156 105.410156 389.621094 105.746094 389.621094 106.308594 C 389.621094 107.539062 386.738281 110.144531 384.414062 110.144531 Z M 384.414062 110.144531 "/>
<path style=" stroke:none;fill-rule:evenodd;fill:rgb(0%,0%,0%);fill-opacity:1;" d="M 422.292969 74.300781 C 427.691406 74.300781 434.535156 66.5 434.535156 60.378906 C 434.535156 58.660156 433.292969 57.421875 431.574219 57.421875 C 429.574219 57.421875 426.652344 59.738281 423.492188 63.898438 C 423.132812 64.378906 422.8125 64.261719 423.011719 63.699219 C 424.132812 60.179688 427.574219 50.140625 428.613281 47.421875 C 428.8125 46.859375 428.894531 46.578125 428.894531 46.101562 C 428.894531 45.820312 428.691406 45.699219 428.253906 45.699219 C 427.773438 45.699219 424.851562 46.5 423.652344 46.941406 C 423.171875 47.101562 423.011719 47.261719 423.011719 47.5 C 423.011719 47.660156 423.492188 47.898438 424.253906 48.101562 C 424.972656 48.300781 425.253906 48.5 425.253906 48.78125 C 425.253906 49.460938 425.132812 50.179688 424.851562 50.941406 L 419.8125 66.179688 C 419.214844 67.941406 418.894531 69.699219 418.894531 71.019531 C 418.894531 73.019531 420.214844 74.300781 422.292969 74.300781 Z M 423.332031 73.019531 C 422.214844 73.019531 421.253906 71.78125 421.253906 70.339844 C 421.253906 69.339844 422.414062 67.101562 424.171875 64.621094 C 426.972656 60.78125 429.054688 58.941406 430.734375 58.941406 C 431.375 58.941406 431.894531 59.621094 431.894531 60.539062 C 431.894531 62.460938 430.332031 66.140625 428.414062 68.699219 C 426.535156 71.179688 424.375 73.019531 423.332031 73.019531 Z M 423.332031 73.019531 "/>
<path style=" stroke:none;fill-rule:evenodd;fill:rgb(0%,0%,0%);fill-opacity:1;" d="M 447.046875 54.984375 C 447.242188 54.984375 447.550781 54.898438 447.660156 54.3125 C 447.941406 52.910156 448.5 51.765625 448.5 51.484375 C 448.5 51.34375 448.472656 51.148438 448.304688 51.148438 C 447.996094 51.148438 447.746094 51.566406 447.605469 51.792969 C 446.90625 52.910156 446.542969 53.023438 444.945312 53.109375 C 443.9375 53.164062 442.816406 53.191406 441.753906 53.191406 C 440.71875 53.191406 439.90625 53.164062 439.289062 53.109375 C 439.066406 53.078125 438.898438 53.050781 438.898438 52.910156 C 438.898438 52.773438 443.515625 48.292969 444.777344 46.78125 C 445.953125 45.351562 446.820312 43.390625 446.820312 41.878906 C 446.820312 39.164062 445.140625 37.261719 442.339844 37.261719 C 439.175781 37.261719 436.882812 40.003906 436.882812 40.871094 C 436.882812 41.375 437.160156 41.710938 437.300781 41.710938 C 437.46875 41.710938 437.664062 41.542969 437.777344 41.320312 C 438.5625 39.976562 439.933594 39.050781 441.472656 39.050781 C 443.070312 39.050781 444.46875 40.257812 444.46875 42.242188 C 444.46875 44.707031 443.097656 47.226562 441.222656 49.160156 L 436.433594 54.117188 C 436.265625 54.285156 436.210938 54.3125 436.210938 54.480469 C 436.210938 54.648438 436.628906 54.957031 436.769531 54.957031 C 437.328125 54.957031 441.867188 54.816406 443.265625 54.816406 C 444.664062 54.816406 446.484375 54.984375 447.046875 54.984375 Z M 447.046875 54.984375 "/>
<path style=" stroke:none;fill-rule:evenodd;fill:rgb(0%,0%,0%);fill-opacity:1;" d="M 438.921875 87.367188 C 439.789062 87.367188 442.085938 85.210938 442.085938 84.035156 C 442.085938 83.894531 441.972656 83.699219 441.917969 83.699219 C 441.777344 83.699219 441.664062 83.726562 441.46875 84.0625 C 440.964844 84.875 440.210938 85.6875 439.507812 85.6875 C 439.089844 85.6875 438.753906 85.269531 438.585938 84.875 L 437.296875 81.824219 C 437.214844 81.628906 437.242188 81.570312 437.4375 81.515625 C 439.339844 80.984375 443.148438 78.378906 443.148438 76.421875 C 443.148438 75.578125 442.253906 75.160156 441.496094 75.160156 C 439.621094 75.160156 437.183594 76.894531 435.28125 79.554688 C 435.140625 79.753906 434.890625 79.863281 435.03125 79.445312 L 438.808594 67.9375 C 438.894531 67.683594 438.894531 67.601562 438.894531 67.292969 C 438.894531 67.011719 438.613281 67.011719 438.445312 67.011719 C 437.996094 67.011719 436.121094 67.628906 435.28125 68.046875 C 435.167969 68.105469 435.113281 68.214844 435.113281 68.355469 C 435.113281 68.46875 435.476562 68.609375 435.839844 68.746094 C 436.234375 68.886719 436.457031 69.085938 436.457031 69.308594 C 436.457031 69.757812 436.402344 70.203125 436.175781 70.902344 L 431.5 85.40625 C 431.332031 85.96875 431.277344 86.414062 431.277344 86.585938 C 431.277344 86.921875 431.726562 87.199219 432.003906 87.199219 C 432.453125 87.199219 432.507812 86.949219 432.734375 86.332031 C 432.929688 85.800781 433.824219 83.503906 434.050781 82.972656 C 434.21875 82.578125 434.554688 81.796875 434.804688 81.796875 C 435.421875 81.796875 435.871094 82.410156 436.09375 83.027344 L 437.15625 85.996094 C 437.550781 86.890625 438.023438 87.367188 438.921875 87.367188 Z M 435.980469 81.097656 C 435.757812 81.097656 435.644531 80.84375 435.644531 80.621094 C 435.644531 79.835938 438.613281 76.363281 440.179688 76.363281 C 440.851562 76.363281 441.1875 76.699219 441.1875 77.261719 C 441.1875 78.492188 438.304688 81.097656 435.980469 81.097656 Z M 435.980469 81.097656 "/>
<path style=" stroke:none;fill-rule:evenodd;fill:rgb(0%,0%,0%);fill-opacity:1;" d="M 452.546875 112.378906 C 452.785156 112.378906 453.023438 112.261719 453.226562 112.058594 C 456.90625 108.378906 462.824219 87.820312 462.824219 63.019531 C 462.824219 38.21875 457.066406 19.738281 453.386719 16.058594 C 453.144531 15.820312 452.707031 15.578125 452.304688 15.578125 C 452.023438 15.578125 451.425781 15.859375 451.425781 16.21875 C 451.425781 16.300781 451.867188 16.941406 451.945312 17.019531 C 455.226562 20.699219 459.503906 37.738281 459.503906 62.539062 C 459.503906 87.339844 455.34375 107.019531 452.066406 110.699219 C 452.023438 110.78125 451.464844 111.421875 451.464844 111.5 C 451.464844 112.058594 452.023438 112.378906 452.546875 112.378906 Z M 452.546875 112.378906 "/>
<path style=" stroke:none;fill-rule:evenodd;fill:rgb(0%,0%,0%);fill-opacity:1;" d="M 472.925781 12.800781 C 474.003906 12.800781 474.84375 12.699219 475.925781 12.699219 C 476.984375 12.699219 477.726562 12.800781 478.867188 12.800781 C 479.023438 12.800781 479.144531 12.699219 479.144531 12.578125 C 479.144531 12.460938 478.964844 12.359375 478.804688 12.320312 C 477.164062 11.921875 476.683594 11.820312 476.683594 10.800781 L 476.683594 1.601562 C 476.683594 1.039062 476.707031 0.578125 476.765625 0.179688 C 476.785156 0.078125 476.644531 0 476.523438 0 C 476.484375 0 476.445312 0 476.425781 0.0195312 C 475.523438 0.921875 474.625 1.078125 473.425781 1.261719 C 473.144531 1.300781 472.925781 1.441406 472.925781 1.621094 C 472.925781 1.839844 473.183594 1.941406 473.445312 1.960938 C 474.304688 2.019531 475.125 2.160156 475.125 2.921875 L 475.125 10.558594 C 475.125 11.738281 474.445312 11.921875 472.925781 12.300781 C 472.765625 12.339844 472.625 12.460938 472.625 12.558594 C 472.625 12.679688 472.726562 12.800781 472.925781 12.800781 Z M 472.925781 12.800781 "/>
<path style=" stroke:none;fill-rule:nonzero;fill:rgb(0%,0%,0%);fill-opacity:1;" d="M 470.824219 17.078125 L 480.605469 17.078125 L 480.605469 18.476562 L 470.824219 18.476562 Z M 470.824219 17.078125 "/>
<path style=" stroke:none;fill-rule:evenodd;fill:rgb(0%,0%,0%);fill-opacity:1;" d="M 478.90625 33.941406 C 479.046875 33.941406 479.265625 33.878906 479.34375 33.460938 C 479.546875 32.460938 479.945312 31.640625 479.945312 31.441406 C 479.945312 31.339844 479.925781 31.199219 479.804688 31.199219 C 479.585938 31.199219 479.40625 31.5 479.304688 31.660156 C 478.804688 32.460938 478.546875 32.539062 477.40625 32.601562 C 476.683594 32.640625 475.886719 32.660156 475.125 32.660156 C 474.386719 32.660156 473.804688 32.640625 473.367188 32.601562 C 473.207031 32.578125 473.085938 32.558594 473.085938 32.460938 C 473.085938 32.359375 476.386719 29.160156 477.285156 28.078125 C 478.125 27.058594 478.746094 25.660156 478.746094 24.578125 C 478.746094 22.640625 477.546875 21.28125 475.546875 21.28125 C 473.285156 21.28125 471.644531 23.238281 471.644531 23.859375 C 471.644531 24.21875 471.84375 24.460938 471.945312 24.460938 C 472.066406 24.460938 472.207031 24.339844 472.285156 24.179688 C 472.84375 23.21875 473.824219 22.558594 474.925781 22.558594 C 476.066406 22.558594 477.066406 23.421875 477.066406 24.839844 C 477.066406 26.601562 476.085938 28.398438 474.746094 29.78125 L 471.324219 33.320312 C 471.207031 33.441406 471.164062 33.460938 471.164062 33.578125 C 471.164062 33.699219 471.464844 33.921875 471.566406 33.921875 C 471.964844 33.921875 475.207031 33.820312 476.207031 33.820312 C 477.207031 33.820312 478.503906 33.941406 478.90625 33.941406 Z M 478.90625 33.941406 "/>
</g>
</svg>
