<?xml version="1.0" encoding="UTF-8"?>
<svg xmlns="http://www.w3.org/2000/svg" xmlns:xlink="http://www.w3.org/1999/xlink" width="441.338239pt" height="83.912004pt" viewBox="0 0 441.338239 83.912004" version="1.1">
<g id="surface1">
<path style=" stroke:none;fill-rule:evenodd;fill:rgb(0%,0%,0%);fill-opacity:1;" d="M 8 77.519531 C 12.238281 77.519531 18.039062 72.359375 18.601562 66.601562 C 19.398438 58.160156 24 11.519531 24.199219 9.839844 C 24.679688 6.28125 26.921875 2.199219 29.359375 2.199219 C 30.558594 2.199219 31.640625 3 32.441406 4.441406 C 33.078125 5.640625 33.601562 6.519531 34.160156 6.519531 C 35.039062 6.519531 36.078125 5.761719 36.078125 4.320312 C 36.078125 1.839844 33.921875 0 30.480469 0 C 25.398438 0 21.480469 4.839844 20.519531 12.71875 L 15.199219 66.878906 C 14.558594 73.039062 11.921875 75.359375 9.878906 75.359375 C 8.601562 75.359375 7.679688 74.800781 6.921875 74.078125 C 6.121094 73.320312 5.601562 72.558594 5.039062 72.558594 C 4.398438 72.558594 3.199219 73.640625 3.199219 74.71875 C 3.199219 76.558594 5.238281 77.519531 8 77.519531 Z M 8 77.519531 "/>
<path style=" stroke:none;fill-rule:evenodd;fill:rgb(0%,0%,0%);fill-opacity:1;" d="M 29.921875 83.714844 C 37.003906 83.714844 41.902344 78.648438 41.902344 72.964844 C 41.902344 67.839844 38.375 65.179688 33.140625 65.179688 C 31.824219 65.179688 31.375 65.347656 30.257812 65.347656 C 29.078125 65.347656 27.902344 65.234375 26.421875 65.234375 C 25.972656 65.234375 25.578125 65.320312 25.578125 65.542969 C 25.578125 65.796875 25.691406 65.992188 26.253906 66.105469 C 27.484375 66.355469 29.109375 66.496094 28.6875 67.839844 L 24.488281 80.746094 C 24.039062 82.09375 23.703125 82.792969 21.941406 82.847656 C 21.296875 82.875 20.933594 83.101562 20.933594 83.351562 C 20.933594 83.574219 21.15625 83.660156 21.605469 83.660156 C 22.976562 83.660156 23.480469 83.519531 24.515625 83.519531 C 26.558594 83.519531 29.386719 83.714844 29.921875 83.714844 Z M 30.058594 82.875 C 27.484375 82.875 26.167969 82.0625 26.953125 79.570312 L 30.761719 67.53125 C 31.066406 66.578125 31.066406 66.105469 33.421875 66.105469 C 37.199219 66.105469 39.496094 68.175781 39.496094 72.460938 C 39.496094 77.722656 35.632812 82.875 30.058594 82.875 Z M 30.058594 82.875 "/>
<path style=" stroke:none;fill-rule:evenodd;fill:rgb(0%,0%,0%);fill-opacity:1;" d="M 55.238281 57.160156 C 55.761719 57.160156 56.320312 56.839844 56.320312 56.28125 C 56.320312 56.199219 55.761719 55.558594 55.71875 55.480469 C 53.28125 52.640625 50.679688 44.121094 50.679688 37.320312 C 50.679688 30.519531 53.398438 24.640625 55.839844 21.800781 C 55.921875 21.71875 56.359375 21.078125 56.359375 21 C 56.359375 20.640625 55.761719 20.359375 55.480469 20.359375 C 55.078125 20.359375 54.640625 20.601562 54.398438 20.839844 C 51.558594 23.679688 47.359375 31 47.359375 37.800781 C 47.359375 44.601562 51.71875 54 54.558594 56.839844 C 54.761719 57.039062 55 57.160156 55.238281 57.160156 Z M 55.238281 57.160156 "/>
<path style=" stroke:none;fill-rule:evenodd;fill:rgb(0%,0%,0%);fill-opacity:1;" d="M 83.480469 23.039062 L 61.359375 23.039062 C 61 23.039062 60.761719 23.441406 60.761719 23.839844 C 60.761719 23.960938 60.761719 24.039062 60.800781 24.121094 L 70.320312 49.28125 C 70.441406 49.640625 70.519531 49.839844 70.71875 49.839844 C 70.921875 49.839844 71.320312 48.839844 71.921875 48.558594 C 72.359375 48.359375 72.640625 48.320312 73.121094 48.160156 C 73.199219 48.121094 73.160156 47.480469 73.28125 47.039062 C 73.398438 46.558594 73.519531 46.199219 73.679688 45.839844 L 84 24.121094 C 84.039062 24 84.078125 23.878906 84.078125 23.71875 C 84.078125 23.359375 83.921875 23.039062 83.480469 23.039062 Z M 79.359375 25.238281 C 80.121094 25.238281 80.800781 25.28125 80.800781 26 C 80.800781 26.28125 80.679688 26.640625 80.441406 27.199219 L 72.558594 44.640625 C 72.359375 45.078125 72.238281 45.320312 72.160156 45.320312 C 72.039062 45.320312 71.960938 45.078125 71.800781 44.601562 L 65.960938 27.839844 C 65.601562 26.800781 65.320312 26.121094 65.320312 25.71875 C 65.320312 25.398438 65.519531 25.238281 66 25.238281 Z M 79.359375 25.238281 "/>
<path style=" stroke:none;fill-rule:evenodd;fill:rgb(0%,0%,0%);fill-opacity:1;" d="M 98.488281 40.960938 C 99.6875 40.960938 100.6875 39.960938 100.6875 38.761719 C 100.6875 37.558594 99.6875 36.558594 98.488281 36.558594 C 97.289062 36.558594 96.289062 37.558594 96.289062 38.761719 C 96.289062 39.960938 97.289062 40.960938 98.488281 40.960938 Z M 98.488281 40.960938 "/>
<path style=" stroke:none;fill-rule:evenodd;fill:rgb(0%,0%,0%);fill-opacity:1;" d="M 111.699219 48.960938 C 113.699219 48.960938 114.617188 48.679688 116.457031 48.679688 C 118.019531 48.679688 118.738281 48.960938 120.738281 48.960938 C 121.378906 48.960938 121.9375 48.878906 121.9375 48.519531 C 121.9375 48.121094 121.738281 47.960938 120.9375 47.800781 C 118.816406 47.359375 118.019531 47 118.816406 44.238281 L 120.859375 37.121094 C 121.179688 35.960938 121.859375 35.878906 122.777344 35.878906 C 123.496094 35.878906 126.457031 35.878906 127.378906 35.960938 C 128.21875 36 128.859375 36.441406 128.859375 38 C 128.859375 38.28125 129.019531 38.921875 129.457031 38.921875 C 129.738281 38.921875 129.859375 38.601562 129.976562 38.238281 C 130.496094 36.199219 130.898438 35.039062 131.816406 33 C 131.976562 32.640625 131.738281 32.359375 131.457031 32.359375 C 131.257812 32.359375 130.777344 32.761719 130.417969 33.199219 C 129.699219 34.078125 128.65625 34.640625 127.578125 34.679688 L 122.179688 34.800781 C 121.816406 34.800781 121.777344 34.238281 121.898438 33.800781 C 122.496094 31.839844 124.496094 25.601562 124.65625 25.238281 C 124.9375 24.601562 125.21875 24.039062 126.21875 24.039062 L 131.976562 24.039062 C 132.738281 24.039062 133.179688 24.238281 133.457031 24.519531 C 133.976562 25.039062 133.898438 25.960938 133.898438 26.921875 C 133.898438 27.359375 133.9375 27.839844 134.335938 27.839844 C 134.859375 27.839844 134.976562 27.441406 135.019531 27.160156 C 135.179688 26.078125 135.65625 24.480469 135.9375 23.558594 C 136.058594 23.160156 136.136719 22.878906 136.136719 22.679688 C 136.136719 22.398438 136.097656 22.28125 135.816406 22.28125 C 135.617188 22.28125 133.816406 22.761719 130.179688 22.761719 L 123.816406 22.761719 C 122.136719 22.761719 120.058594 22.640625 119.457031 22.640625 C 118.816406 22.640625 118.21875 22.761719 118.21875 23.078125 C 118.21875 23.441406 118.417969 23.71875 119.21875 23.878906 C 120.976562 24.238281 121.65625 24.878906 121.019531 26.800781 L 115.539062 44.800781 C 114.9375 46.761719 114.136719 47.441406 112.179688 47.800781 C 111.257812 47.960938 110.738281 48.121094 110.738281 48.519531 C 110.738281 48.878906 111.058594 48.960938 111.699219 48.960938 Z M 111.699219 48.960938 "/>
<path style=" stroke:none;fill-rule:evenodd;fill:rgb(0%,0%,0%);fill-opacity:1;" d="M 138.816406 57.160156 C 139.058594 57.160156 139.296875 57.039062 139.496094 56.839844 C 142.335938 54 146.699219 44.601562 146.699219 37.800781 C 146.699219 31 142.496094 23.679688 139.65625 20.839844 C 139.417969 20.601562 138.976562 20.359375 138.578125 20.359375 C 138.296875 20.359375 137.699219 20.640625 137.699219 21 C 137.699219 21.078125 138.136719 21.71875 138.21875 21.800781 C 140.65625 24.640625 143.378906 30.519531 143.378906 37.320312 C 143.378906 44.121094 140.777344 52.640625 138.335938 55.480469 C 138.296875 55.558594 137.738281 56.199219 137.738281 56.28125 C 137.738281 56.839844 138.296875 57.160156 138.816406 57.160156 Z M 138.816406 57.160156 "/>
<path style=" stroke:none;fill-rule:evenodd;fill:rgb(0%,0%,0%);fill-opacity:1;" d="M 171.644531 49.519531 C 171.804688 49.519531 171.84375 49.519531 172.285156 49.28125 C 174.164062 48.480469 175.484375 48.121094 176.964844 47.921875 C 177.246094 47.921875 177.523438 47.558594 177.523438 47.199219 C 177.523438 46.878906 177.324219 46.800781 176.804688 46.839844 C 176.125 46.921875 175.363281 46.960938 175.085938 46.960938 C 174.484375 46.960938 174.246094 46.199219 174.246094 44.359375 L 174.246094 26.28125 C 174.246094 22.679688 174.523438 21.320312 174.523438 20.839844 C 174.484375 20.679688 174.40625 20.601562 174.246094 20.601562 C 174.125 20.601562 173.925781 20.640625 173.722656 20.71875 C 172.964844 21.039062 171.765625 21.601562 169.40625 22.199219 C 169.164062 22.28125 169.085938 22.480469 169.085938 22.679688 C 169.085938 22.921875 169.203125 23.160156 169.445312 23.199219 C 170.722656 23.441406 171.445312 23.960938 171.445312 26.121094 L 171.445312 31.800781 C 171.445312 32.519531 171.285156 32.761719 171.164062 32.761719 C 171.042969 32.761719 170.882812 32.71875 170.644531 32.640625 C 170.042969 32.441406 168.84375 32.199219 167.765625 32.199219 C 162.164062 32.199219 158.765625 36.519531 158.765625 41.160156 C 158.765625 45.199219 161.605469 49.320312 166.164062 49.320312 C 168.804688 49.320312 170.605469 47.71875 171.40625 46.480469 L 171.40625 46.71875 C 171.40625 47.398438 171.203125 48.601562 171.203125 49.121094 C 171.203125 49.238281 171.523438 49.519531 171.644531 49.519531 Z M 167.605469 47.238281 C 165.84375 47.238281 161.605469 46.28125 161.605469 40.238281 C 161.605469 34.921875 164.683594 33.601562 166.523438 33.601562 C 169.484375 33.601562 171.445312 35.921875 171.445312 38.078125 L 171.40625 45.28125 C 170.40625 46.441406 169.003906 47.238281 167.605469 47.238281 Z M 167.605469 47.238281 "/>
<path style=" stroke:none;fill-rule:evenodd;fill:rgb(0%,0%,0%);fill-opacity:1;" d="M 181.445312 49.320312 C 182.042969 49.320312 183.484375 46.960938 185.164062 44.960938 L 200.003906 27.039062 C 201.5625 25.121094 203.285156 24.359375 204.683594 23.960938 C 205.605469 23.679688 206.164062 23.398438 206.164062 23.039062 C 206.164062 22.71875 205.882812 22.519531 205.246094 22.519531 C 204.003906 22.519531 203.246094 22.761719 201.605469 22.761719 C 200.246094 22.761719 198.644531 22.679688 197.964844 22.679688 C 197.324219 22.679688 196.765625 22.800781 196.765625 23.121094 C 196.765625 23.480469 196.882812 23.800781 197.722656 23.921875 C 198.84375 24.078125 199.363281 25.558594 196.484375 29.078125 L 185.285156 42.921875 C 184.605469 43.761719 184.324219 44.28125 184.125 44.28125 C 183.882812 44.28125 183.804688 43.960938 183.964844 43.039062 L 186.644531 26.640625 C 186.964844 24.640625 187.804688 24.121094 189.363281 23.921875 C 190.085938 23.839844 190.765625 23.519531 190.765625 23.160156 C 190.765625 22.839844 190.445312 22.71875 189.804688 22.71875 C 188.925781 22.71875 187.363281 22.761719 185.925781 22.761719 C 184.246094 22.761719 182.722656 22.519531 181.683594 22.519531 C 181.042969 22.519531 180.484375 22.679688 180.484375 23.039062 C 180.484375 23.398438 180.644531 23.71875 181.445312 23.839844 C 183.5625 24.160156 183.605469 25.039062 183.484375 26.761719 C 183.125 31.199219 182.085938 37.28125 180.523438 46.238281 C 180.085938 48.679688 180.722656 49.320312 181.445312 49.320312 Z M 181.445312 49.320312 "/>
<path style=" stroke:none;fill-rule:evenodd;fill:rgb(0%,0%,0%);fill-opacity:1;" d="M 221.21875 36.199219 L 238.019531 36.199219 C 238.65625 36.199219 239.296875 35.199219 239.296875 34.640625 C 239.296875 34.398438 238.976562 34.199219 238.738281 34.199219 L 221.617188 34.199219 C 220.898438 34.199219 220.65625 35.359375 220.65625 35.71875 C 220.65625 35.960938 220.9375 36.199219 221.21875 36.199219 Z M 221.21875 43.039062 L 238.019531 43.039062 C 238.65625 43.039062 239.296875 42.199219 239.296875 41.480469 C 239.296875 41.238281 238.976562 41.039062 238.738281 41.039062 L 221.617188 41.039062 C 220.898438 41.039062 220.65625 42.199219 220.65625 42.558594 C 220.65625 42.800781 220.9375 43.039062 221.21875 43.039062 Z M 221.21875 43.039062 "/>
<path style=" stroke:none;fill-rule:evenodd;fill:rgb(0%,0%,0%);fill-opacity:1;" d="M 262.632812 77.519531 C 266.871094 77.519531 272.671875 72.359375 273.230469 66.601562 C 274.03125 58.160156 278.632812 11.519531 278.832031 9.839844 C 279.3125 6.28125 281.550781 2.199219 283.992188 2.199219 C 285.191406 2.199219 286.269531 3 287.070312 4.441406 C 287.710938 5.640625 288.230469 6.519531 288.792969 6.519531 C 289.671875 6.519531 290.710938 5.761719 290.710938 4.320312 C 290.710938 1.839844 288.550781 0 285.109375 0 C 280.03125 0 276.109375 4.839844 275.152344 12.71875 L 269.832031 66.878906 C 269.191406 73.039062 266.550781 75.359375 264.511719 75.359375 C 263.230469 75.359375 262.3125 74.800781 261.550781 74.078125 C 260.75 73.320312 260.230469 72.558594 259.671875 72.558594 C 259.03125 72.558594 257.832031 73.640625 257.832031 74.71875 C 257.832031 76.558594 259.871094 77.519531 262.632812 77.519531 Z M 262.632812 77.519531 "/>
<path style=" stroke:none;fill-rule:evenodd;fill:rgb(0%,0%,0%);fill-opacity:1;" d="M 285.820312 83.910156 C 290.019531 83.910156 292.117188 79.796875 292.117188 76.519531 C 292.117188 69.015625 287.75 63.78125 281.871094 63.78125 C 281.480469 63.78125 281.144531 63.863281 281.144531 64.117188 C 281.144531 64.394531 281.480469 64.480469 281.703125 64.535156 C 285.566406 65.375 288.03125 68.09375 289.179688 72.320312 C 289.234375 72.601562 289.207031 72.683594 288.957031 72.570312 C 288.171875 72.152344 287.414062 71.929688 286.519531 71.929688 C 283.074219 71.929688 280.050781 74.839844 280.050781 78.3125 C 280.050781 81.671875 282.683594 83.910156 285.820312 83.910156 Z M 286.40625 83.070312 C 284.167969 83.070312 282.375 80.410156 282.375 77.640625 C 282.375 75.316406 283.578125 72.878906 285.960938 72.878906 C 287.105469 72.878906 288.226562 73.46875 289.011719 74.308594 C 289.683594 75.007812 289.933594 76.101562 289.933594 77.386719 C 289.933594 80.410156 288.367188 83.070312 286.40625 83.070312 Z M 286.40625 83.070312 "/>
<path style=" stroke:none;fill-rule:evenodd;fill:rgb(0%,0%,0%);fill-opacity:1;" d="M 301.386719 83.714844 C 308.472656 83.714844 313.371094 78.648438 313.371094 72.964844 C 313.371094 67.839844 309.84375 65.179688 304.605469 65.179688 C 303.292969 65.179688 302.84375 65.347656 301.722656 65.347656 C 300.546875 65.347656 299.371094 65.234375 297.886719 65.234375 C 297.4375 65.234375 297.046875 65.320312 297.046875 65.542969 C 297.046875 65.796875 297.160156 65.992188 297.71875 66.105469 C 298.949219 66.355469 300.574219 66.496094 300.15625 67.839844 L 295.957031 80.746094 C 295.507812 82.09375 295.171875 82.792969 293.40625 82.847656 C 292.761719 82.875 292.398438 83.101562 292.398438 83.351562 C 292.398438 83.574219 292.625 83.660156 293.070312 83.660156 C 294.441406 83.660156 294.945312 83.519531 295.984375 83.519531 C 298.027344 83.519531 300.855469 83.714844 301.386719 83.714844 Z M 301.527344 82.875 C 298.949219 82.875 297.636719 82.0625 298.417969 79.570312 L 302.226562 67.53125 C 302.535156 66.578125 302.535156 66.105469 304.886719 66.105469 C 308.667969 66.105469 310.964844 68.175781 310.964844 72.460938 C 310.964844 77.722656 307.097656 82.875 301.527344 82.875 Z M 301.527344 82.875 "/>
<path style=" stroke:none;fill-rule:evenodd;fill:rgb(0%,0%,0%);fill-opacity:1;" d="M 321.613281 48.960938 C 323.613281 48.960938 324.535156 48.679688 326.375 48.679688 C 327.933594 48.679688 328.652344 48.960938 330.652344 48.960938 C 331.292969 48.960938 331.855469 48.878906 331.855469 48.519531 C 331.855469 48.121094 331.652344 47.960938 330.855469 47.800781 C 328.734375 47.359375 327.933594 47 328.734375 44.238281 L 330.773438 37.121094 C 331.09375 35.960938 331.773438 35.878906 332.695312 35.878906 C 333.414062 35.878906 336.375 35.878906 337.292969 35.960938 C 338.132812 36 338.773438 36.441406 338.773438 38 C 338.773438 38.28125 338.933594 38.921875 339.375 38.921875 C 339.652344 38.921875 339.773438 38.601562 339.894531 38.238281 C 340.414062 36.199219 340.8125 35.039062 341.734375 33 C 341.894531 32.640625 341.652344 32.359375 341.375 32.359375 C 341.171875 32.359375 340.695312 32.761719 340.332031 33.199219 C 339.613281 34.078125 338.574219 34.640625 337.492188 34.679688 L 332.09375 34.800781 C 331.734375 34.800781 331.695312 34.238281 331.8125 33.800781 C 332.414062 31.839844 334.414062 25.601562 334.574219 25.238281 C 334.855469 24.601562 335.132812 24.039062 336.132812 24.039062 L 341.894531 24.039062 C 342.652344 24.039062 343.09375 24.238281 343.375 24.519531 C 343.894531 25.039062 343.8125 25.960938 343.8125 26.921875 C 343.8125 27.359375 343.855469 27.839844 344.253906 27.839844 C 344.773438 27.839844 344.894531 27.441406 344.933594 27.160156 C 345.09375 26.078125 345.574219 24.480469 345.855469 23.558594 C 345.972656 23.160156 346.054688 22.878906 346.054688 22.679688 C 346.054688 22.398438 346.015625 22.28125 345.734375 22.28125 C 345.535156 22.28125 343.734375 22.761719 340.09375 22.761719 L 333.734375 22.761719 C 332.054688 22.761719 329.972656 22.640625 329.375 22.640625 C 328.734375 22.640625 328.132812 22.761719 328.132812 23.078125 C 328.132812 23.441406 328.332031 23.71875 329.132812 23.878906 C 330.894531 24.238281 331.574219 24.878906 330.933594 26.800781 L 325.453125 44.800781 C 324.855469 46.761719 324.054688 47.441406 322.09375 47.800781 C 321.171875 47.960938 320.652344 48.121094 320.652344 48.519531 C 320.652344 48.878906 320.972656 48.960938 321.613281 48.960938 Z M 321.613281 48.960938 "/>
<path style=" stroke:none;fill-rule:evenodd;fill:rgb(0%,0%,0%);fill-opacity:1;" d="M 358.703125 40.960938 C 359.902344 40.960938 360.902344 39.960938 360.902344 38.761719 C 360.902344 37.558594 359.902344 36.558594 358.703125 36.558594 C 357.503906 36.558594 356.503906 37.558594 356.503906 38.761719 C 356.503906 39.960938 357.503906 40.960938 358.703125 40.960938 Z M 358.703125 40.960938 "/>
<path style=" stroke:none;fill-rule:evenodd;fill:rgb(0%,0%,0%);fill-opacity:1;" d="M 373.992188 49.398438 C 374.429688 49.398438 374.75 49.039062 375.230469 48.160156 C 377.832031 43.640625 381.152344 38.519531 382.390625 37 C 384.152344 34.839844 385.550781 33.839844 386.429688 33.878906 C 387.191406 33.921875 387.589844 34.679688 386.75 36.878906 C 385.351562 40.441406 383.75 44 382.191406 47.558594 C 381.792969 48.441406 382.710938 49.320312 383.429688 49.320312 C 385.953125 49.320312 388.550781 47.441406 390.632812 44.921875 C 390.710938 44.800781 390.792969 44.558594 390.792969 44.359375 C 390.792969 44.160156 390.632812 44 390.472656 44 C 390.429688 44 390.390625 44 390.351562 44.039062 C 389.953125 44.441406 387.070312 46.761719 385.792969 46.761719 C 385.3125 46.761719 385.152344 46.359375 385.589844 45.320312 L 389.273438 36.601562 C 390.351562 34.078125 389.070312 32.199219 387.390625 32.199219 C 384.953125 32.199219 381.3125 35.28125 378.03125 40.878906 C 377.871094 41.160156 377.511719 41.121094 377.671875 40.71875 L 380.3125 33.921875 C 380.671875 32.960938 379.832031 32.199219 378.992188 32.199219 C 377.191406 32.238281 375.792969 33 374.992188 34.199219 C 374.671875 34.679688 374.113281 35.71875 374.152344 36.199219 C 374.230469 36.601562 374.550781 36.601562 374.75 36.359375 C 376.03125 34.679688 376.910156 34.519531 377.710938 34.519531 C 378.230469 34.519531 378.113281 35.121094 377.632812 36.28125 L 372.992188 47.640625 C 372.710938 48.320312 373.351562 49.398438 373.992188 49.398438 Z M 373.992188 49.398438 "/>
<path style=" stroke:none;fill-rule:evenodd;fill:rgb(0%,0%,0%);fill-opacity:1;" d="M 413.097656 49.519531 C 413.257812 49.519531 413.296875 49.519531 413.738281 49.28125 C 415.617188 48.480469 416.9375 48.121094 418.417969 47.921875 C 418.699219 47.921875 418.976562 47.558594 418.976562 47.199219 C 418.976562 46.878906 418.777344 46.800781 418.257812 46.839844 C 417.578125 46.921875 416.816406 46.960938 416.539062 46.960938 C 415.9375 46.960938 415.699219 46.199219 415.699219 44.359375 L 415.699219 26.28125 C 415.699219 22.679688 415.976562 21.320312 415.976562 20.839844 C 415.9375 20.679688 415.859375 20.601562 415.699219 20.601562 C 415.578125 20.601562 415.378906 20.640625 415.179688 20.71875 C 414.417969 21.039062 413.21875 21.601562 410.859375 22.199219 C 410.617188 22.28125 410.539062 22.480469 410.539062 22.679688 C 410.539062 22.921875 410.660156 23.160156 410.898438 23.199219 C 412.179688 23.441406 412.898438 23.960938 412.898438 26.121094 L 412.898438 31.800781 C 412.898438 32.519531 412.738281 32.761719 412.617188 32.761719 C 412.5 32.761719 412.339844 32.71875 412.097656 32.640625 C 411.5 32.441406 410.296875 32.199219 409.21875 32.199219 C 403.617188 32.199219 400.21875 36.519531 400.21875 41.160156 C 400.21875 45.199219 403.058594 49.320312 407.617188 49.320312 C 410.257812 49.320312 412.058594 47.71875 412.859375 46.480469 L 412.859375 46.71875 C 412.859375 47.398438 412.660156 48.601562 412.660156 49.121094 C 412.660156 49.238281 412.976562 49.519531 413.097656 49.519531 Z M 409.058594 47.238281 C 407.296875 47.238281 403.058594 46.28125 403.058594 40.238281 C 403.058594 34.921875 406.136719 33.601562 407.976562 33.601562 C 410.9375 33.601562 412.898438 35.921875 412.898438 38.078125 L 412.859375 45.28125 C 411.859375 46.441406 410.457031 47.238281 409.058594 47.238281 Z M 409.058594 47.238281 "/>
<path style=" stroke:none;fill-rule:evenodd;fill:rgb(0%,0%,0%);fill-opacity:1;" d="M 426.976562 49.359375 C 432.859375 49.359375 436.058594 45.800781 436.058594 41.398438 C 436.058594 39.160156 434.699219 37.320312 431.976562 34.839844 C 429.257812 32.320312 428.257812 30.640625 428.257812 28.519531 C 428.257812 25.960938 430.539062 23.359375 433.378906 23.359375 C 436.179688 23.359375 438.058594 25.359375 438.058594 29.078125 C 438.058594 29.679688 438.136719 30.121094 438.539062 30.121094 C 438.699219 30.121094 439.058594 29.640625 439.179688 28.839844 C 439.777344 24.71875 440.699219 23.71875 440.699219 23.601562 C 440.699219 23.398438 440.617188 22.960938 440.21875 22.960938 C 439.9375 22.960938 439.738281 23.039062 439.539062 23.160156 C 439.339844 23.28125 439.136719 23.359375 438.777344 23.359375 C 438.378906 23.359375 437.660156 23 436.617188 22.679688 C 435.699219 22.441406 434.699219 22.199219 433.859375 22.199219 C 429.136719 22.199219 425.5 25.238281 425.5 29.480469 C 425.5 32.519531 427.378906 34.601562 429.660156 36.679688 C 432.21875 39.078125 432.976562 40.480469 432.976562 42.558594 C 432.976562 46.121094 430.257812 48.160156 426.859375 48.160156 C 423.539062 48.160156 422.097656 45.761719 422.097656 42.679688 C 422.097656 41.601562 422.058594 41.121094 421.617188 41.121094 C 421.21875 41.121094 421.058594 41.359375 420.976562 41.921875 C 420.539062 45.078125 419.136719 47.519531 419.136719 48 C 419.136719 48.320312 419.660156 48.761719 419.898438 48.761719 C 420.097656 48.761719 420.378906 48.558594 420.699219 48.359375 C 420.976562 48.238281 421.257812 48.121094 421.539062 48.121094 C 421.699219 48.121094 422.179688 48.320312 422.859375 48.601562 C 424.21875 49.121094 425.617188 49.359375 426.976562 49.359375 Z M 426.976562 49.359375 "/>
</g>
</svg>
