<?xml version="1.0" encoding="UTF-8"?>
<svg xmlns="http://www.w3.org/2000/svg" xmlns:xlink="http://www.w3.org/1999/xlink" width="176.535296pt" height="33.564802pt" viewBox="0 0 176.535296 33.564802" version="1.1">
<g id="surface1">
<path style=" stroke:none;fill-rule:evenodd;fill:rgb(0%,0%,0%);fill-opacity:1;" d="M 3.199219 31.007812 C 4.894531 31.007812 7.214844 28.945312 7.441406 26.640625 C 7.761719 23.265625 9.601562 4.609375 9.679688 3.9375 C 9.871094 2.511719 10.769531 0.878906 11.742188 0.878906 C 12.222656 0.878906 12.65625 1.199219 12.976562 1.777344 C 13.230469 2.257812 13.441406 2.609375 13.664062 2.609375 C 14.015625 2.609375 14.433594 2.304688 14.433594 1.726562 C 14.433594 0.734375 13.566406 0 12.191406 0 C 10.160156 0 8.59375 1.9375 8.207031 5.089844 L 6.078125 26.753906 C 5.824219 29.214844 4.769531 30.144531 3.953125 30.144531 C 3.441406 30.144531 3.070312 29.921875 2.769531 29.632812 C 2.449219 29.328125 2.238281 29.023438 2.015625 29.023438 C 1.761719 29.023438 1.28125 29.457031 1.28125 29.886719 C 1.28125 30.625 2.097656 31.007812 3.199219 31.007812 Z M 3.199219 31.007812 "/>
<path style=" stroke:none;fill-rule:evenodd;fill:rgb(0%,0%,0%);fill-opacity:1;" d="M 11.96875 33.488281 C 14.800781 33.488281 16.761719 31.460938 16.761719 29.1875 C 16.761719 27.136719 15.351562 26.070312 13.257812 26.070312 C 12.730469 26.070312 12.550781 26.140625 12.101562 26.140625 C 11.632812 26.140625 11.160156 26.09375 10.566406 26.09375 C 10.390625 26.09375 10.230469 26.128906 10.230469 26.21875 C 10.230469 26.320312 10.277344 26.398438 10.5 26.441406 C 10.992188 26.542969 11.644531 26.597656 11.476562 27.136719 L 9.796875 32.300781 C 9.617188 32.835938 9.480469 33.117188 8.777344 33.140625 C 8.519531 33.152344 8.371094 33.238281 8.371094 33.339844 C 8.371094 33.429688 8.460938 33.464844 8.640625 33.464844 C 9.191406 33.464844 9.390625 33.40625 9.804688 33.40625 C 10.625 33.40625 11.753906 33.488281 11.96875 33.488281 Z M 12.023438 33.152344 C 10.992188 33.152344 10.46875 32.824219 10.78125 31.828125 L 12.304688 27.011719 C 12.425781 26.632812 12.425781 26.441406 13.367188 26.441406 C 14.878906 26.441406 15.796875 27.269531 15.796875 28.984375 C 15.796875 31.089844 14.253906 33.152344 12.023438 33.152344 Z M 12.023438 33.152344 "/>
<path style=" stroke:none;fill-rule:evenodd;fill:rgb(0%,0%,0%);fill-opacity:1;" d="M 22.097656 22.863281 C 22.304688 22.863281 22.527344 22.734375 22.527344 22.511719 C 22.527344 22.480469 22.304688 22.222656 22.289062 22.191406 C 21.3125 21.054688 20.273438 17.648438 20.273438 14.929688 C 20.273438 12.207031 21.359375 9.855469 22.335938 8.71875 C 22.367188 8.6875 22.542969 8.433594 22.542969 8.398438 C 22.542969 8.257812 22.304688 8.144531 22.191406 8.144531 C 22.03125 8.144531 21.855469 8.238281 21.761719 8.335938 C 20.625 9.472656 18.945312 12.398438 18.945312 15.121094 C 18.945312 17.839844 20.6875 21.601562 21.824219 22.734375 C 21.902344 22.816406 22 22.863281 22.097656 22.863281 Z M 22.097656 22.863281 "/>
<path style=" stroke:none;fill-rule:evenodd;fill:rgb(0%,0%,0%);fill-opacity:1;" d="M 33.390625 9.214844 L 24.542969 9.214844 C 24.398438 9.214844 24.304688 9.375 24.304688 9.535156 C 24.304688 9.585938 24.304688 9.617188 24.320312 9.648438 L 28.128906 19.710938 C 28.175781 19.855469 28.207031 19.9375 28.289062 19.9375 C 28.367188 19.9375 28.527344 19.535156 28.769531 19.425781 C 28.945312 19.34375 29.054688 19.328125 29.246094 19.265625 C 29.28125 19.246094 29.265625 18.992188 29.3125 18.816406 C 29.359375 18.625 29.40625 18.480469 29.472656 18.335938 L 33.601562 9.648438 C 33.617188 9.601562 33.632812 9.550781 33.632812 9.488281 C 33.632812 9.34375 33.566406 9.214844 33.390625 9.214844 Z M 31.742188 10.097656 C 32.046875 10.097656 32.320312 10.113281 32.320312 10.398438 C 32.320312 10.511719 32.273438 10.65625 32.175781 10.878906 L 29.023438 17.855469 C 28.945312 18.03125 28.894531 18.128906 28.863281 18.128906 C 28.816406 18.128906 28.785156 18.03125 28.71875 17.839844 L 26.382812 11.136719 C 26.238281 10.71875 26.128906 10.449219 26.128906 10.289062 C 26.128906 10.160156 26.207031 10.097656 26.398438 10.097656 Z M 31.742188 10.097656 "/>
<path style=" stroke:none;fill-rule:evenodd;fill:rgb(0%,0%,0%);fill-opacity:1;" d="M 39.394531 16.382812 C 39.875 16.382812 40.277344 15.984375 40.277344 15.503906 C 40.277344 15.023438 39.875 14.625 39.394531 14.625 C 38.914062 14.625 38.515625 15.023438 38.515625 15.503906 C 38.515625 15.984375 38.914062 16.382812 39.394531 16.382812 Z M 39.394531 16.382812 "/>
<path style=" stroke:none;fill-rule:evenodd;fill:rgb(0%,0%,0%);fill-opacity:1;" d="M 44.679688 19.585938 C 45.480469 19.585938 45.847656 19.472656 46.582031 19.472656 C 47.207031 19.472656 47.496094 19.585938 48.296875 19.585938 C 48.550781 19.585938 48.773438 19.550781 48.773438 19.40625 C 48.773438 19.246094 48.695312 19.183594 48.375 19.121094 C 47.527344 18.945312 47.207031 18.800781 47.527344 17.695312 L 48.34375 14.847656 C 48.472656 14.382812 48.742188 14.351562 49.109375 14.351562 C 49.398438 14.351562 50.582031 14.351562 50.949219 14.382812 C 51.289062 14.398438 51.542969 14.574219 51.542969 15.199219 C 51.542969 15.3125 51.605469 15.566406 51.78125 15.566406 C 51.894531 15.566406 51.941406 15.441406 51.992188 15.296875 C 52.199219 14.480469 52.359375 14.015625 52.726562 13.199219 C 52.792969 13.054688 52.695312 12.945312 52.582031 12.945312 C 52.503906 12.945312 52.3125 13.105469 52.167969 13.28125 C 51.878906 13.632812 51.464844 13.855469 51.03125 13.871094 L 48.871094 13.921875 C 48.726562 13.921875 48.710938 13.695312 48.757812 13.519531 C 49 12.734375 49.800781 10.238281 49.863281 10.097656 C 49.976562 9.839844 50.085938 9.617188 50.488281 9.617188 L 52.792969 9.617188 C 53.09375 9.617188 53.269531 9.695312 53.382812 9.808594 C 53.589844 10.015625 53.558594 10.382812 53.558594 10.769531 C 53.558594 10.945312 53.574219 11.136719 53.734375 11.136719 C 53.941406 11.136719 53.992188 10.976562 54.007812 10.863281 C 54.070312 10.433594 54.261719 9.792969 54.375 9.425781 C 54.421875 9.265625 54.457031 9.152344 54.457031 9.070312 C 54.457031 8.960938 54.4375 8.910156 54.328125 8.910156 C 54.246094 8.910156 53.527344 9.105469 52.070312 9.105469 L 49.527344 9.105469 C 48.855469 9.105469 48.023438 9.054688 47.78125 9.054688 C 47.527344 9.054688 47.289062 9.105469 47.289062 9.230469 C 47.289062 9.375 47.367188 9.488281 47.6875 9.550781 C 48.390625 9.695312 48.664062 9.953125 48.40625 10.71875 L 46.214844 17.921875 C 45.976562 18.703125 45.65625 18.976562 44.871094 19.121094 C 44.503906 19.183594 44.296875 19.246094 44.296875 19.40625 C 44.296875 19.550781 44.421875 19.585938 44.679688 19.585938 Z M 44.679688 19.585938 "/>
<path style=" stroke:none;fill-rule:evenodd;fill:rgb(0%,0%,0%);fill-opacity:1;" d="M 55.527344 22.863281 C 55.625 22.863281 55.71875 22.816406 55.800781 22.734375 C 56.933594 21.601562 58.679688 17.839844 58.679688 15.121094 C 58.679688 12.398438 57 9.472656 55.863281 8.335938 C 55.765625 8.238281 55.589844 8.144531 55.429688 8.144531 C 55.320312 8.144531 55.078125 8.257812 55.078125 8.398438 C 55.078125 8.433594 55.253906 8.6875 55.289062 8.71875 C 56.261719 9.855469 57.351562 12.207031 57.351562 14.929688 C 57.351562 17.648438 56.3125 21.054688 55.335938 22.191406 C 55.320312 22.222656 55.09375 22.480469 55.09375 22.511719 C 55.09375 22.734375 55.320312 22.863281 55.527344 22.863281 Z M 55.527344 22.863281 "/>
<path style=" stroke:none;fill-rule:evenodd;fill:rgb(0%,0%,0%);fill-opacity:1;" d="M 68.65625 19.808594 C 68.722656 19.808594 68.738281 19.808594 68.914062 19.710938 C 69.664062 19.390625 70.195312 19.246094 70.785156 19.167969 C 70.898438 19.167969 71.011719 19.023438 71.011719 18.878906 C 71.011719 18.753906 70.929688 18.71875 70.722656 18.734375 C 70.449219 18.769531 70.144531 18.785156 70.035156 18.785156 C 69.792969 18.785156 69.699219 18.480469 69.699219 17.742188 L 69.699219 10.511719 C 69.699219 9.070312 69.808594 8.527344 69.808594 8.335938 C 69.792969 8.273438 69.761719 8.238281 69.699219 8.238281 C 69.648438 8.238281 69.570312 8.257812 69.488281 8.289062 C 69.1875 8.414062 68.707031 8.640625 67.761719 8.878906 C 67.664062 8.910156 67.632812 8.992188 67.632812 9.070312 C 67.632812 9.167969 67.683594 9.265625 67.777344 9.28125 C 68.289062 9.375 68.578125 9.585938 68.578125 10.449219 L 68.578125 12.71875 C 68.578125 13.007812 68.515625 13.105469 68.464844 13.105469 C 68.417969 13.105469 68.355469 13.089844 68.257812 13.054688 C 68.019531 12.976562 67.539062 12.878906 67.105469 12.878906 C 64.867188 12.878906 63.503906 14.609375 63.503906 16.464844 C 63.503906 18.078125 64.640625 19.726562 66.464844 19.726562 C 67.523438 19.726562 68.242188 19.089844 68.5625 18.59375 L 68.5625 18.6875 C 68.5625 18.960938 68.480469 19.441406 68.480469 19.648438 C 68.480469 19.695312 68.609375 19.808594 68.65625 19.808594 Z M 67.042969 18.894531 C 66.335938 18.894531 64.640625 18.511719 64.640625 16.097656 C 64.640625 13.96875 65.875 13.441406 66.609375 13.441406 C 67.792969 13.441406 68.578125 14.367188 68.578125 15.230469 L 68.5625 18.113281 C 68.160156 18.574219 67.601562 18.894531 67.042969 18.894531 Z M 67.042969 18.894531 "/>
<path style=" stroke:none;fill-rule:evenodd;fill:rgb(0%,0%,0%);fill-opacity:1;" d="M 72.578125 19.726562 C 72.816406 19.726562 73.394531 18.785156 74.066406 17.984375 L 80 10.816406 C 80.625 10.046875 81.3125 9.742188 81.875 9.585938 C 82.242188 9.472656 82.464844 9.359375 82.464844 9.214844 C 82.464844 9.089844 82.355469 9.007812 82.097656 9.007812 C 81.601562 9.007812 81.296875 9.105469 80.640625 9.105469 C 80.097656 9.105469 79.457031 9.070312 79.1875 9.070312 C 78.929688 9.070312 78.707031 9.121094 78.707031 9.246094 C 78.707031 9.390625 78.753906 9.519531 79.089844 9.566406 C 79.539062 9.632812 79.746094 10.222656 78.59375 11.632812 L 74.113281 17.167969 C 73.839844 17.503906 73.730469 17.710938 73.648438 17.710938 C 73.554688 17.710938 73.523438 17.585938 73.585938 17.214844 L 74.65625 10.65625 C 74.785156 9.855469 75.121094 9.648438 75.746094 9.566406 C 76.035156 9.535156 76.304688 9.40625 76.304688 9.265625 C 76.304688 9.136719 76.179688 9.089844 75.921875 9.089844 C 75.570312 9.089844 74.945312 9.105469 74.371094 9.105469 C 73.699219 9.105469 73.089844 9.007812 72.671875 9.007812 C 72.417969 9.007812 72.195312 9.070312 72.195312 9.214844 C 72.195312 9.359375 72.257812 9.488281 72.578125 9.535156 C 73.425781 9.664062 73.441406 10.015625 73.394531 10.703125 C 73.25 12.480469 72.832031 14.910156 72.210938 18.496094 C 72.035156 19.472656 72.289062 19.726562 72.578125 19.726562 Z M 72.578125 19.726562 "/>
<path style=" stroke:none;fill-rule:evenodd;fill:rgb(0%,0%,0%);fill-opacity:1;" d="M 88.488281 14.480469 L 95.207031 14.480469 C 95.464844 14.480469 95.71875 14.078125 95.71875 13.855469 C 95.71875 13.761719 95.589844 13.679688 95.496094 13.679688 L 88.648438 13.679688 C 88.359375 13.679688 88.261719 14.144531 88.261719 14.289062 C 88.261719 14.382812 88.375 14.480469 88.488281 14.480469 Z M 88.488281 17.214844 L 95.207031 17.214844 C 95.464844 17.214844 95.71875 16.878906 95.71875 16.59375 C 95.71875 16.496094 95.589844 16.414062 95.496094 16.414062 L 88.648438 16.414062 C 88.359375 16.414062 88.261719 16.878906 88.261719 17.023438 C 88.261719 17.121094 88.375 17.214844 88.488281 17.214844 Z M 88.488281 17.214844 "/>
<path style=" stroke:none;fill-rule:evenodd;fill:rgb(0%,0%,0%);fill-opacity:1;" d="M 105.050781 31.007812 C 106.75 31.007812 109.070312 28.945312 109.292969 26.640625 C 109.613281 23.265625 111.453125 4.609375 111.53125 3.9375 C 111.722656 2.511719 112.621094 0.878906 113.597656 0.878906 C 114.078125 0.878906 114.507812 1.199219 114.828125 1.777344 C 115.085938 2.257812 115.292969 2.609375 115.515625 2.609375 C 115.867188 2.609375 116.285156 2.304688 116.285156 1.726562 C 116.285156 0.734375 115.421875 0 114.042969 0 C 112.011719 0 110.445312 1.9375 110.058594 5.089844 L 107.933594 26.753906 C 107.675781 29.214844 106.621094 30.144531 105.804688 30.144531 C 105.292969 30.144531 104.925781 29.921875 104.621094 29.632812 C 104.300781 29.328125 104.09375 29.023438 103.867188 29.023438 C 103.613281 29.023438 103.132812 29.457031 103.132812 29.886719 C 103.132812 30.625 103.949219 31.007812 105.050781 31.007812 Z M 105.050781 31.007812 "/>
<path style=" stroke:none;fill-rule:evenodd;fill:rgb(0%,0%,0%);fill-opacity:1;" d="M 114.328125 33.566406 C 116.007812 33.566406 116.847656 31.917969 116.847656 30.609375 C 116.847656 27.605469 115.101562 25.511719 112.75 25.511719 C 112.589844 25.511719 112.457031 25.546875 112.457031 25.644531 C 112.457031 25.757812 112.589844 25.792969 112.679688 25.8125 C 114.226562 26.152344 115.210938 27.238281 115.671875 28.929688 C 115.695312 29.039062 115.683594 29.074219 115.582031 29.027344 C 115.269531 28.859375 114.964844 28.769531 114.609375 28.769531 C 113.230469 28.769531 112.019531 29.9375 112.019531 31.324219 C 112.019531 32.667969 113.074219 33.566406 114.328125 33.566406 Z M 114.5625 33.230469 C 113.667969 33.230469 112.949219 32.164062 112.949219 31.054688 C 112.949219 30.125 113.433594 29.152344 114.382812 29.152344 C 114.84375 29.152344 115.289062 29.386719 115.605469 29.722656 C 115.875 30.003906 115.972656 30.441406 115.972656 30.957031 C 115.972656 32.164062 115.347656 33.230469 114.5625 33.230469 Z M 114.5625 33.230469 "/>
<path style=" stroke:none;fill-rule:evenodd;fill:rgb(0%,0%,0%);fill-opacity:1;" d="M 120.554688 33.488281 C 123.386719 33.488281 125.347656 31.460938 125.347656 29.1875 C 125.347656 27.136719 123.9375 26.070312 121.84375 26.070312 C 121.316406 26.070312 121.136719 26.140625 120.6875 26.140625 C 120.21875 26.140625 119.75 26.09375 119.15625 26.09375 C 118.976562 26.09375 118.820312 26.128906 118.820312 26.21875 C 118.820312 26.320312 118.863281 26.398438 119.085938 26.441406 C 119.582031 26.542969 120.230469 26.597656 120.0625 27.136719 L 118.382812 32.300781 C 118.203125 32.835938 118.070312 33.117188 117.363281 33.140625 C 117.105469 33.152344 116.960938 33.238281 116.960938 33.339844 C 116.960938 33.429688 117.050781 33.464844 117.226562 33.464844 C 117.777344 33.464844 117.980469 33.40625 118.394531 33.40625 C 119.210938 33.40625 120.34375 33.488281 120.554688 33.488281 Z M 120.609375 33.152344 C 119.582031 33.152344 119.054688 32.824219 119.367188 31.828125 L 120.890625 27.011719 C 121.015625 26.632812 121.015625 26.441406 121.953125 26.441406 C 123.46875 26.441406 124.386719 27.269531 124.386719 28.984375 C 124.386719 31.089844 122.839844 33.152344 120.609375 33.152344 Z M 120.609375 33.152344 "/>
<path style=" stroke:none;fill-rule:evenodd;fill:rgb(0%,0%,0%);fill-opacity:1;" d="M 128.644531 19.585938 C 129.445312 19.585938 129.8125 19.472656 130.550781 19.472656 C 131.171875 19.472656 131.460938 19.585938 132.261719 19.585938 C 132.515625 19.585938 132.742188 19.550781 132.742188 19.40625 C 132.742188 19.246094 132.660156 19.183594 132.339844 19.121094 C 131.492188 18.945312 131.171875 18.800781 131.492188 17.695312 L 132.308594 14.847656 C 132.4375 14.382812 132.710938 14.351562 133.078125 14.351562 C 133.367188 14.351562 134.550781 14.351562 134.917969 14.382812 C 135.253906 14.398438 135.507812 14.574219 135.507812 15.199219 C 135.507812 15.3125 135.574219 15.566406 135.75 15.566406 C 135.863281 15.566406 135.910156 15.441406 135.957031 15.296875 C 136.164062 14.480469 136.324219 14.015625 136.695312 13.199219 C 136.757812 13.054688 136.660156 12.945312 136.550781 12.945312 C 136.46875 12.945312 136.277344 13.105469 136.132812 13.28125 C 135.84375 13.632812 135.429688 13.855469 134.996094 13.871094 L 132.835938 13.921875 C 132.695312 13.921875 132.675781 13.695312 132.726562 13.519531 C 132.964844 12.734375 133.765625 10.238281 133.828125 10.097656 C 133.941406 9.839844 134.054688 9.617188 134.453125 9.617188 L 136.757812 9.617188 C 137.0625 9.617188 137.238281 9.695312 137.347656 9.808594 C 137.558594 10.015625 137.527344 10.382812 137.527344 10.769531 C 137.527344 10.945312 137.542969 11.136719 137.703125 11.136719 C 137.910156 11.136719 137.957031 10.976562 137.972656 10.863281 C 138.039062 10.433594 138.230469 9.792969 138.339844 9.425781 C 138.390625 9.265625 138.421875 9.152344 138.421875 9.070312 C 138.421875 8.960938 138.40625 8.910156 138.292969 8.910156 C 138.214844 8.910156 137.492188 9.105469 136.039062 9.105469 L 133.492188 9.105469 C 132.820312 9.105469 131.988281 9.054688 131.75 9.054688 C 131.492188 9.054688 131.253906 9.105469 131.253906 9.230469 C 131.253906 9.375 131.332031 9.488281 131.652344 9.550781 C 132.359375 9.695312 132.628906 9.953125 132.375 10.71875 L 130.179688 17.921875 C 129.941406 18.703125 129.621094 18.976562 128.835938 19.121094 C 128.46875 19.183594 128.261719 19.246094 128.261719 19.40625 C 128.261719 19.550781 128.390625 19.585938 128.644531 19.585938 Z M 128.644531 19.585938 "/>
<path style=" stroke:none;fill-rule:evenodd;fill:rgb(0%,0%,0%);fill-opacity:1;" d="M 143.480469 16.382812 C 143.960938 16.382812 144.359375 15.984375 144.359375 15.503906 C 144.359375 15.023438 143.960938 14.625 143.480469 14.625 C 143 14.625 142.601562 15.023438 142.601562 15.503906 C 142.601562 15.984375 143 16.382812 143.480469 16.382812 Z M 143.480469 16.382812 "/>
<path style=" stroke:none;fill-rule:evenodd;fill:rgb(0%,0%,0%);fill-opacity:1;" d="M 149.597656 19.761719 C 149.773438 19.761719 149.902344 19.617188 150.09375 19.265625 C 151.132812 17.457031 152.460938 15.40625 152.957031 14.800781 C 153.660156 13.9375 154.21875 13.535156 154.574219 13.550781 C 154.875 13.566406 155.035156 13.871094 154.699219 14.753906 C 154.140625 16.175781 153.5 17.601562 152.875 19.023438 C 152.714844 19.375 153.085938 19.726562 153.371094 19.726562 C 154.378906 19.726562 155.421875 18.976562 156.253906 17.96875 C 156.285156 17.921875 156.316406 17.824219 156.316406 17.742188 C 156.316406 17.664062 156.253906 17.601562 156.1875 17.601562 C 156.171875 17.601562 156.15625 17.601562 156.140625 17.617188 C 155.980469 17.777344 154.828125 18.703125 154.316406 18.703125 C 154.125 18.703125 154.0625 18.542969 154.238281 18.128906 L 155.707031 14.640625 C 156.140625 13.632812 155.628906 12.878906 154.957031 12.878906 C 153.980469 12.878906 152.523438 14.113281 151.210938 16.351562 C 151.148438 16.464844 151.003906 16.449219 151.070312 16.289062 L 152.125 13.566406 C 152.269531 13.183594 151.933594 12.878906 151.597656 12.878906 C 150.875 12.894531 150.316406 13.199219 149.996094 13.679688 C 149.867188 13.871094 149.644531 14.289062 149.660156 14.480469 C 149.691406 14.640625 149.820312 14.640625 149.902344 14.542969 C 150.414062 13.871094 150.765625 13.808594 151.085938 13.808594 C 151.292969 13.808594 151.246094 14.046875 151.050781 14.511719 L 149.195312 19.054688 C 149.085938 19.328125 149.339844 19.761719 149.597656 19.761719 Z M 149.597656 19.761719 "/>
<path style=" stroke:none;fill-rule:evenodd;fill:rgb(0%,0%,0%);fill-opacity:1;" d="M 165.238281 19.808594 C 165.304688 19.808594 165.320312 19.808594 165.496094 19.710938 C 166.246094 19.390625 166.773438 19.246094 167.367188 19.167969 C 167.480469 19.167969 167.589844 19.023438 167.589844 18.878906 C 167.589844 18.753906 167.511719 18.71875 167.304688 18.734375 C 167.03125 18.769531 166.726562 18.785156 166.617188 18.785156 C 166.375 18.785156 166.277344 18.480469 166.277344 17.742188 L 166.277344 10.511719 C 166.277344 9.070312 166.390625 8.527344 166.390625 8.335938 C 166.375 8.273438 166.34375 8.238281 166.277344 8.238281 C 166.230469 8.238281 166.152344 8.257812 166.070312 8.289062 C 165.765625 8.414062 165.289062 8.640625 164.34375 8.878906 C 164.246094 8.910156 164.214844 8.992188 164.214844 9.070312 C 164.214844 9.167969 164.261719 9.265625 164.359375 9.28125 C 164.871094 9.375 165.160156 9.585938 165.160156 10.449219 L 165.160156 12.71875 C 165.160156 13.007812 165.09375 13.105469 165.046875 13.105469 C 165 13.105469 164.933594 13.089844 164.839844 13.054688 C 164.597656 12.976562 164.121094 12.878906 163.6875 12.878906 C 161.449219 12.878906 160.085938 14.609375 160.085938 16.464844 C 160.085938 18.078125 161.222656 19.726562 163.046875 19.726562 C 164.101562 19.726562 164.824219 19.089844 165.144531 18.59375 L 165.144531 18.6875 C 165.144531 18.960938 165.0625 19.441406 165.0625 19.648438 C 165.0625 19.695312 165.191406 19.808594 165.238281 19.808594 Z M 163.625 18.894531 C 162.917969 18.894531 161.222656 18.511719 161.222656 16.097656 C 161.222656 13.96875 162.457031 13.441406 163.191406 13.441406 C 164.375 13.441406 165.160156 14.367188 165.160156 15.230469 L 165.144531 18.113281 C 164.742188 18.574219 164.183594 18.894531 163.625 18.894531 Z M 163.625 18.894531 "/>
<path style=" stroke:none;fill-rule:evenodd;fill:rgb(0%,0%,0%);fill-opacity:1;" d="M 170.792969 19.742188 C 173.144531 19.742188 174.421875 18.320312 174.421875 16.558594 C 174.421875 15.664062 173.878906 14.929688 172.792969 13.9375 C 171.703125 12.929688 171.304688 12.257812 171.304688 11.40625 C 171.304688 10.382812 172.214844 9.34375 173.351562 9.34375 C 174.472656 9.34375 175.222656 10.144531 175.222656 11.632812 C 175.222656 11.871094 175.253906 12.046875 175.414062 12.046875 C 175.480469 12.046875 175.625 11.855469 175.671875 11.535156 C 175.910156 9.886719 176.277344 9.488281 176.277344 9.441406 C 176.277344 9.359375 176.246094 9.183594 176.085938 9.183594 C 175.976562 9.183594 175.894531 9.214844 175.816406 9.265625 C 175.734375 9.3125 175.65625 9.34375 175.511719 9.34375 C 175.351562 9.34375 175.0625 9.199219 174.648438 9.070312 C 174.277344 8.976562 173.878906 8.878906 173.542969 8.878906 C 171.65625 8.878906 170.199219 10.097656 170.199219 11.792969 C 170.199219 13.007812 170.953125 13.839844 171.863281 14.671875 C 172.886719 15.632812 173.191406 16.191406 173.191406 17.023438 C 173.191406 18.449219 172.101562 19.265625 170.742188 19.265625 C 169.414062 19.265625 168.839844 18.304688 168.839844 17.070312 C 168.839844 16.640625 168.824219 16.449219 168.648438 16.449219 C 168.488281 16.449219 168.421875 16.542969 168.390625 16.769531 C 168.214844 18.03125 167.65625 19.007812 167.65625 19.199219 C 167.65625 19.328125 167.863281 19.503906 167.960938 19.503906 C 168.039062 19.503906 168.152344 19.425781 168.277344 19.34375 C 168.390625 19.296875 168.503906 19.246094 168.617188 19.246094 C 168.679688 19.246094 168.871094 19.328125 169.144531 19.441406 C 169.6875 19.648438 170.246094 19.742188 170.792969 19.742188 Z M 170.792969 19.742188 "/>
</g>
</svg>
