<?xml version="1.0" encoding="UTF-8"?>
<svg xmlns="http://www.w3.org/2000/svg" xmlns:xlink="http://www.w3.org/1999/xlink" width="260.350233pt" height="15.920001pt" viewBox="0 0 260.350233 15.920001" version="1.1">
<g id="surface1">
<path style=" stroke:none;fill-rule:evenodd;fill:rgb(0%,0%,0%);fill-opacity:1;" d="M 2.304688 11.585938 C 3.695312 11.585938 4.65625 10.785156 4.65625 9.632812 C 4.65625 8.640625 4.046875 8.144531 2.816406 7.441406 C 1.953125 6.945312 1.710938 6.625 1.710938 6.128906 C 1.710938 5.519531 2.207031 5.183594 2.734375 5.183594 C 3.34375 5.183594 3.742188 5.566406 4.03125 6.273438 C 4.0625 6.351562 4.207031 6.414062 4.335938 6.414062 C 4.414062 6.414062 4.496094 6.382812 4.496094 6.304688 C 4.496094 5.855469 4.351562 5.28125 4.191406 5.039062 C 3.984375 4.894531 3.550781 4.734375 2.910156 4.734375 C 1.472656 4.734375 0.753906 5.550781 0.753906 6.574219 C 0.753906 7.375 1.183594 7.886719 2.273438 8.558594 C 3.230469 9.152344 3.566406 9.488281 3.566406 10.0625 C 3.566406 10.6875 3.070312 11.152344 2.449219 11.152344 C 1.824219 11.152344 1.136719 10.753906 0.863281 9.695312 C 0.847656 9.617188 0.753906 9.585938 0.671875 9.585938 C 0.558594 9.585938 0.464844 9.632812 0.464844 9.726562 C 0.480469 10.097656 0.527344 10.785156 0.640625 11.007812 C 1.039062 11.375 1.648438 11.585938 2.304688 11.585938 Z M 2.304688 11.585938 "/>
<path style=" stroke:none;fill-rule:evenodd;fill:rgb(0%,0%,0%);fill-opacity:1;" d="M 7.152344 3.105469 C 7.617188 3.105469 7.96875 2.753906 7.96875 2.304688 C 7.96875 1.839844 7.617188 1.488281 7.152344 1.488281 C 6.703125 1.488281 6.351562 1.839844 6.351562 2.304688 C 6.351562 2.753906 6.703125 3.105469 7.152344 3.105469 Z M 5.871094 11.40625 C 6.496094 11.40625 6.609375 11.328125 7.167969 11.328125 C 7.726562 11.328125 7.855469 11.40625 8.464844 11.40625 C 8.671875 11.40625 8.785156 11.359375 8.785156 11.230469 C 8.785156 11.070312 8.59375 11.023438 8.414062 10.976562 C 7.984375 10.863281 7.726562 10.734375 7.726562 10.367188 L 7.726562 6.65625 C 7.726562 5.9375 7.871094 4.753906 7.871094 4.496094 C 7.871094 4.449219 7.839844 4.414062 7.777344 4.414062 C 7.710938 4.414062 7.632812 4.464844 7.550781 4.527344 C 7.28125 4.753906 6.71875 5.136719 5.871094 5.328125 C 5.777344 5.34375 5.726562 5.40625 5.726562 5.519531 C 5.726562 5.648438 5.777344 5.710938 5.886719 5.726562 C 6.433594 5.808594 6.609375 6.320312 6.609375 6.894531 L 6.609375 10.367188 C 6.609375 10.753906 6.367188 10.863281 5.921875 10.976562 C 5.742188 11.023438 5.550781 11.070312 5.550781 11.230469 C 5.550781 11.359375 5.679688 11.40625 5.871094 11.40625 Z M 5.871094 11.40625 "/>
<path style=" stroke:none;fill-rule:evenodd;fill:rgb(0%,0%,0%);fill-opacity:1;" d="M 9.792969 11.40625 C 10.433594 11.40625 10.527344 11.328125 11.089844 11.328125 C 11.648438 11.328125 11.742188 11.40625 12.382812 11.40625 C 12.59375 11.40625 12.703125 11.359375 12.703125 11.230469 C 12.703125 11.105469 12.59375 11.039062 12.335938 10.976562 C 12.015625 10.894531 11.648438 10.800781 11.648438 10.367188 L 11.648438 6.511719 C 11.648438 6.382812 11.695312 6.222656 11.777344 6.144531 C 12.222656 5.777344 12.785156 5.503906 13.550781 5.503906 C 14.414062 5.519531 14.992188 6.078125 14.992188 7.007812 L 14.992188 10.367188 C 14.992188 10.800781 14.625 10.878906 14.304688 10.976562 C 14.128906 11.039062 13.9375 11.105469 13.9375 11.265625 C 13.9375 11.390625 14.144531 11.40625 14.257812 11.40625 C 14.894531 11.40625 15.007812 11.328125 15.566406 11.328125 C 16.128906 11.328125 16.207031 11.40625 16.847656 11.40625 C 16.976562 11.40625 17.167969 11.390625 17.167969 11.265625 C 17.167969 11.105469 16.976562 11.039062 16.800781 10.976562 C 16.480469 10.878906 16.113281 10.800781 16.113281 10.367188 L 16.113281 6.960938 C 16.113281 5.710938 15.34375 4.734375 14.304688 4.734375 C 13.296875 4.734375 12.480469 5.089844 11.726562 5.808594 C 11.710938 5.792969 11.695312 5.710938 11.695312 5.617188 C 11.695312 5.3125 11.777344 4.734375 11.777344 4.59375 C 11.777344 4.527344 11.742188 4.480469 11.695312 4.480469 C 11.632812 4.480469 11.585938 4.511719 11.519531 4.558594 C 11.070312 4.894531 10.65625 5.183594 9.921875 5.375 C 9.824219 5.390625 9.777344 5.457031 9.777344 5.566406 C 9.777344 5.695312 9.839844 5.742188 9.9375 5.777344 C 10.480469 5.921875 10.527344 6.351562 10.527344 6.929688 L 10.527344 10.367188 C 10.527344 10.800781 10.160156 10.894531 9.839844 10.976562 C 9.601562 11.039062 9.472656 11.070312 9.472656 11.230469 C 9.472656 11.359375 9.601562 11.40625 9.792969 11.40625 Z M 9.792969 11.40625 "/>
<path style=" stroke:none;fill-rule:evenodd;fill:rgb(0%,0%,0%);fill-opacity:1;" d="M 22.289062 14.71875 C 22.496094 14.71875 22.71875 14.59375 22.71875 14.367188 C 22.71875 14.335938 22.496094 14.078125 22.480469 14.046875 C 21.503906 12.910156 20.464844 9.503906 20.464844 6.785156 C 20.464844 4.0625 21.550781 1.710938 22.527344 0.574219 C 22.558594 0.542969 22.734375 0.289062 22.734375 0.257812 C 22.734375 0.113281 22.496094 0 22.382812 0 C 22.222656 0 22.046875 0.0976562 21.953125 0.191406 C 20.816406 1.328125 19.136719 4.257812 19.136719 6.976562 C 19.136719 9.695312 20.878906 13.457031 22.015625 14.59375 C 22.097656 14.671875 22.191406 14.71875 22.289062 14.71875 Z M 22.289062 14.71875 "/>
<path style=" stroke:none;fill-rule:evenodd;fill:rgb(0%,0%,0%);fill-opacity:1;" d="M 25.585938 11.585938 C 27.777344 11.585938 30.640625 6.03125 30.640625 3.007812 C 30.640625 1.183594 30.238281 0.207031 29.265625 0.207031 C 26.929688 0.207031 24.367188 5.824219 24.367188 9.121094 C 24.367188 10.304688 24.945312 11.585938 25.585938 11.585938 Z M 26.144531 5.167969 C 26 5.167969 26 5.070312 26.046875 4.960938 C 27.28125 2.289062 28.304688 1.425781 28.960938 1.425781 C 29.792969 1.425781 30.097656 1.792969 30.097656 2.511719 C 30.097656 3.007812 29.855469 4.160156 29.601562 4.960938 C 29.566406 5.070312 29.457031 5.167969 29.34375 5.167969 Z M 26 10.289062 C 25.121094 10.289062 24.847656 9.886719 24.847656 9.246094 C 24.847656 8.320312 25.265625 6.976562 25.550781 6.175781 C 25.601562 6.0625 25.679688 5.9375 25.808594 5.9375 L 29.039062 5.953125 C 29.230469 5.953125 29.246094 6.015625 29.167969 6.191406 C 28.382812 8.191406 27.054688 10.289062 26 10.289062 Z M 26 10.289062 "/>
<path style=" stroke:none;fill-rule:evenodd;fill:rgb(0%,0%,0%);fill-opacity:1;" d="M 38.980469 11.488281 C 39.125 11.488281 39.746094 11.441406 39.746094 11.105469 L 39.746094 7.871094 C 39.746094 7.824219 39.761719 7.808594 39.8125 7.808594 L 42.773438 7.808594 C 43.074219 7.808594 43.265625 7.441406 43.265625 7.167969 C 43.265625 7.070312 43.171875 7.007812 43.058594 7.007812 L 39.78125 7.007812 C 39.746094 7.007812 39.746094 6.992188 39.746094 6.910156 L 39.746094 3.855469 C 39.746094 3.742188 39.636719 3.648438 39.523438 3.648438 C 39.425781 3.648438 38.789062 3.792969 38.789062 4.144531 L 38.789062 6.878906 C 38.789062 6.976562 38.773438 7.007812 38.675781 7.007812 L 35.652344 7.007812 C 35.363281 7.007812 35.265625 7.472656 35.265625 7.617188 C 35.265625 7.710938 35.378906 7.808594 35.492188 7.808594 L 38.722656 7.808594 C 38.773438 7.808594 38.789062 7.839844 38.789062 7.886719 L 38.789062 11.265625 C 38.789062 11.375 38.882812 11.488281 38.980469 11.488281 Z M 38.980469 11.488281 "/>
<path style=" stroke:none;fill-rule:evenodd;fill:rgb(0%,0%,0%);fill-opacity:1;" d="M 49.429688 15.921875 C 49.734375 15.921875 49.960938 15.726562 49.960938 15.585938 C 49.960938 15.550781 50.214844 13.902344 50.839844 11.710938 C 53.71875 11.710938 56.261719 9.34375 56.261719 6.863281 C 56.261719 5.710938 55.878906 5.152344 55.207031 4.878906 C 55.269531 4.769531 55.289062 4.671875 55.289062 4.558594 C 55.289062 4.207031 54.855469 3.792969 54.039062 3.792969 C 50.792969 3.792969 48.328125 6.304688 48.328125 8.929688 C 48.328125 10.191406 48.902344 11.199219 50.246094 11.664062 C 49.734375 13.199219 49.160156 14.832031 48.984375 15.28125 C 48.949219 15.359375 48.949219 15.441406 48.949219 15.535156 C 48.949219 15.808594 49.144531 15.921875 49.429688 15.921875 Z M 50.582031 10.558594 C 49.542969 10.414062 48.902344 9.871094 48.902344 8.527344 C 48.902344 6.863281 51.09375 4.816406 53.429688 4.816406 C 52.199219 5.871094 51.191406 8.65625 50.582031 10.558594 Z M 51.175781 10.59375 C 51.640625 9.105469 52.949219 5.40625 54.535156 5.40625 C 55.222656 5.40625 55.574219 6.257812 55.574219 7.152344 C 55.574219 8.976562 53.414062 10.59375 51.175781 10.59375 Z M 51.175781 10.59375 "/>
<path style=" stroke:none;fill-rule:evenodd;fill:rgb(0%,0%,0%);fill-opacity:1;" d="M 58.183594 14.71875 C 58.277344 14.71875 58.375 14.671875 58.457031 14.59375 C 59.589844 13.457031 61.335938 9.695312 61.335938 6.976562 C 61.335938 4.257812 59.65625 1.328125 58.519531 0.191406 C 58.421875 0.0976562 58.246094 0 58.085938 0 C 57.976562 0 57.734375 0.113281 57.734375 0.257812 C 57.734375 0.289062 57.910156 0.542969 57.941406 0.574219 C 58.917969 1.710938 60.007812 4.0625 60.007812 6.785156 C 60.007812 9.503906 58.96875 12.910156 57.992188 14.046875 C 57.976562 14.078125 57.75 14.335938 57.75 14.367188 C 57.75 14.59375 57.976562 14.71875 58.183594 14.71875 Z M 58.183594 14.71875 "/>
<path style=" stroke:none;fill-rule:evenodd;fill:rgb(0%,0%,0%);fill-opacity:1;" d="M 69.292969 6.335938 L 76.011719 6.335938 C 76.269531 6.335938 76.523438 5.9375 76.523438 5.710938 C 76.523438 5.617188 76.394531 5.535156 76.300781 5.535156 L 69.453125 5.535156 C 69.164062 5.535156 69.070312 6 69.070312 6.144531 C 69.070312 6.238281 69.179688 6.335938 69.292969 6.335938 Z M 69.292969 9.070312 L 76.011719 9.070312 C 76.269531 9.070312 76.523438 8.734375 76.523438 8.449219 C 76.523438 8.351562 76.394531 8.273438 76.300781 8.273438 L 69.453125 8.273438 C 69.164062 8.273438 69.070312 8.734375 69.070312 8.878906 C 69.070312 8.976562 69.179688 9.070312 69.292969 9.070312 Z M 69.292969 9.070312 "/>
<path style=" stroke:none;fill-rule:evenodd;fill:rgb(0%,0%,0%);fill-opacity:1;" d="M 84.960938 11.585938 C 86.355469 11.585938 87.3125 10.785156 87.3125 9.632812 C 87.3125 8.640625 86.707031 8.144531 85.472656 7.441406 C 84.609375 6.945312 84.371094 6.625 84.371094 6.128906 C 84.371094 5.519531 84.867188 5.183594 85.394531 5.183594 C 86 5.183594 86.402344 5.566406 86.691406 6.273438 C 86.722656 6.351562 86.867188 6.414062 86.992188 6.414062 C 87.074219 6.414062 87.152344 6.382812 87.152344 6.304688 C 87.152344 5.855469 87.011719 5.28125 86.851562 5.039062 C 86.640625 4.894531 86.210938 4.734375 85.570312 4.734375 C 84.128906 4.734375 83.410156 5.550781 83.410156 6.574219 C 83.410156 7.375 83.839844 7.886719 84.929688 8.558594 C 85.890625 9.152344 86.226562 9.488281 86.226562 10.0625 C 86.226562 10.6875 85.730469 11.152344 85.105469 11.152344 C 84.480469 11.152344 83.792969 10.753906 83.523438 9.695312 C 83.503906 9.617188 83.410156 9.585938 83.328125 9.585938 C 83.21875 9.585938 83.121094 9.632812 83.121094 9.726562 C 83.136719 10.097656 83.1875 10.785156 83.296875 11.007812 C 83.699219 11.375 84.304688 11.585938 84.960938 11.585938 Z M 84.960938 11.585938 "/>
<path style=" stroke:none;fill-rule:evenodd;fill:rgb(0%,0%,0%);fill-opacity:1;" d="M 89.808594 3.105469 C 90.273438 3.105469 90.625 2.753906 90.625 2.304688 C 90.625 1.839844 90.273438 1.488281 89.808594 1.488281 C 89.363281 1.488281 89.011719 1.839844 89.011719 2.304688 C 89.011719 2.753906 89.363281 3.105469 89.808594 3.105469 Z M 88.53125 11.40625 C 89.152344 11.40625 89.265625 11.328125 89.824219 11.328125 C 90.386719 11.328125 90.515625 11.40625 91.121094 11.40625 C 91.328125 11.40625 91.441406 11.359375 91.441406 11.230469 C 91.441406 11.070312 91.25 11.023438 91.074219 10.976562 C 90.640625 10.863281 90.386719 10.734375 90.386719 10.367188 L 90.386719 6.65625 C 90.386719 5.9375 90.53125 4.753906 90.53125 4.496094 C 90.53125 4.449219 90.496094 4.414062 90.433594 4.414062 C 90.371094 4.414062 90.289062 4.464844 90.210938 4.527344 C 89.9375 4.753906 89.378906 5.136719 88.53125 5.328125 C 88.433594 5.34375 88.386719 5.40625 88.386719 5.519531 C 88.386719 5.648438 88.433594 5.710938 88.546875 5.726562 C 89.089844 5.808594 89.265625 6.320312 89.265625 6.894531 L 89.265625 10.367188 C 89.265625 10.753906 89.027344 10.863281 88.578125 10.976562 C 88.402344 11.023438 88.210938 11.070312 88.210938 11.230469 C 88.210938 11.359375 88.335938 11.40625 88.53125 11.40625 Z M 88.53125 11.40625 "/>
<path style=" stroke:none;fill-rule:evenodd;fill:rgb(0%,0%,0%);fill-opacity:1;" d="M 92.449219 11.40625 C 93.089844 11.40625 93.1875 11.328125 93.746094 11.328125 C 94.304688 11.328125 94.402344 11.40625 95.042969 11.40625 C 95.25 11.40625 95.363281 11.359375 95.363281 11.230469 C 95.363281 11.105469 95.25 11.039062 94.992188 10.976562 C 94.671875 10.894531 94.304688 10.800781 94.304688 10.367188 L 94.304688 6.511719 C 94.304688 6.382812 94.355469 6.222656 94.433594 6.144531 C 94.882812 5.777344 95.441406 5.503906 96.210938 5.503906 C 97.074219 5.519531 97.648438 6.078125 97.648438 7.007812 L 97.648438 10.367188 C 97.648438 10.800781 97.28125 10.878906 96.960938 10.976562 C 96.785156 11.039062 96.59375 11.105469 96.59375 11.265625 C 96.59375 11.390625 96.800781 11.40625 96.914062 11.40625 C 97.554688 11.40625 97.664062 11.328125 98.226562 11.328125 C 98.785156 11.328125 98.867188 11.40625 99.503906 11.40625 C 99.632812 11.40625 99.824219 11.390625 99.824219 11.265625 C 99.824219 11.105469 99.632812 11.039062 99.457031 10.976562 C 99.136719 10.878906 98.769531 10.800781 98.769531 10.367188 L 98.769531 6.960938 C 98.769531 5.710938 98 4.734375 96.960938 4.734375 C 95.953125 4.734375 95.136719 5.089844 94.386719 5.808594 C 94.371094 5.792969 94.355469 5.710938 94.355469 5.617188 C 94.355469 5.3125 94.433594 4.734375 94.433594 4.59375 C 94.433594 4.527344 94.402344 4.480469 94.355469 4.480469 C 94.289062 4.480469 94.242188 4.511719 94.179688 4.558594 C 93.730469 4.894531 93.3125 5.183594 92.578125 5.375 C 92.480469 5.390625 92.433594 5.457031 92.433594 5.566406 C 92.433594 5.695312 92.496094 5.742188 92.59375 5.777344 C 93.136719 5.921875 93.1875 6.351562 93.1875 6.929688 L 93.1875 10.367188 C 93.1875 10.800781 92.816406 10.894531 92.496094 10.976562 C 92.257812 11.039062 92.128906 11.070312 92.128906 11.230469 C 92.128906 11.359375 92.257812 11.40625 92.449219 11.40625 Z M 92.449219 11.40625 "/>
<path style=" stroke:none;fill-rule:evenodd;fill:rgb(0%,0%,0%);fill-opacity:1;" d="M 104.945312 14.71875 C 105.152344 14.71875 105.378906 14.59375 105.378906 14.367188 C 105.378906 14.335938 105.152344 14.078125 105.136719 14.046875 C 104.160156 12.910156 103.121094 9.503906 103.121094 6.785156 C 103.121094 4.0625 104.210938 1.710938 105.1875 0.574219 C 105.21875 0.542969 105.394531 0.289062 105.394531 0.257812 C 105.394531 0.113281 105.152344 0 105.042969 0 C 104.882812 0 104.707031 0.0976562 104.609375 0.191406 C 103.472656 1.328125 101.792969 4.257812 101.792969 6.976562 C 101.792969 9.695312 103.539062 13.457031 104.671875 14.59375 C 104.753906 14.671875 104.851562 14.71875 104.945312 14.71875 Z M 104.945312 14.71875 "/>
<path style=" stroke:none;fill-rule:evenodd;fill:rgb(0%,0%,0%);fill-opacity:1;" d="M 108.242188 11.585938 C 110.433594 11.585938 113.296875 6.03125 113.296875 3.007812 C 113.296875 1.183594 112.898438 0.207031 111.921875 0.207031 C 109.585938 0.207031 107.027344 5.824219 107.027344 9.121094 C 107.027344 10.304688 107.601562 11.585938 108.242188 11.585938 Z M 108.800781 5.167969 C 108.65625 5.167969 108.65625 5.070312 108.707031 4.960938 C 109.9375 2.289062 110.960938 1.425781 111.617188 1.425781 C 112.449219 1.425781 112.753906 1.792969 112.753906 2.511719 C 112.753906 3.007812 112.515625 4.160156 112.257812 4.960938 C 112.226562 5.070312 112.113281 5.167969 112 5.167969 Z M 108.65625 10.289062 C 107.777344 10.289062 107.503906 9.886719 107.503906 9.246094 C 107.503906 8.320312 107.921875 6.976562 108.210938 6.175781 C 108.257812 6.0625 108.335938 5.9375 108.464844 5.9375 L 111.699219 5.953125 C 111.890625 5.953125 111.90625 6.015625 111.824219 6.191406 C 111.042969 8.191406 109.714844 10.289062 108.65625 10.289062 Z M 108.65625 10.289062 "/>
<path style=" stroke:none;fill-rule:evenodd;fill:rgb(0%,0%,0%);fill-opacity:1;" d="M 114.816406 14.71875 C 114.914062 14.71875 115.011719 14.671875 115.089844 14.59375 C 116.226562 13.457031 117.96875 9.695312 117.96875 6.976562 C 117.96875 4.257812 116.289062 1.328125 115.152344 0.191406 C 115.058594 0.0976562 114.882812 0 114.722656 0 C 114.609375 0 114.371094 0.113281 114.371094 0.257812 C 114.371094 0.289062 114.546875 0.542969 114.578125 0.574219 C 115.554688 1.710938 116.640625 4.0625 116.640625 6.785156 C 116.640625 9.503906 115.601562 12.910156 114.625 14.046875 C 114.609375 14.078125 114.386719 14.335938 114.386719 14.367188 C 114.386719 14.59375 114.609375 14.71875 114.816406 14.71875 Z M 114.816406 14.71875 "/>
<path style=" stroke:none;fill-rule:evenodd;fill:rgb(0%,0%,0%);fill-opacity:1;" d="M 125.644531 11.601562 C 126.621094 11.601562 127.4375 11.246094 127.949219 10.59375 C 128.109375 10.382812 128.1875 10.222656 128.1875 10.097656 C 128.1875 9.96875 128.109375 9.871094 128.011719 9.871094 C 127.964844 9.871094 127.902344 9.902344 127.851562 9.953125 C 127.339844 10.464844 126.957031 10.640625 126.332031 10.640625 C 124.972656 10.640625 123.902344 9.472656 123.902344 7.96875 C 123.902344 6.398438 124.621094 5.328125 125.660156 5.328125 C 126.042969 5.328125 126.699219 5.726562 127.164062 6.078125 C 127.292969 6.175781 127.386719 6.257812 127.5 6.257812 C 127.773438 6.257812 128.1875 5.871094 128.1875 5.601562 C 128.1875 5.488281 128.125 5.390625 127.996094 5.296875 C 127.484375 4.929688 126.859375 4.734375 126.171875 4.734375 C 124.300781 4.734375 122.796875 6.398438 122.796875 8.480469 C 122.796875 10.257812 124.027344 11.601562 125.644531 11.601562 Z M 125.644531 11.601562 "/>
<path style=" stroke:none;fill-rule:evenodd;fill:rgb(0%,0%,0%);fill-opacity:1;" d="M 132.492188 11.585938 C 134.890625 11.585938 136.109375 9.824219 136.109375 7.953125 C 136.109375 6.222656 134.667969 4.734375 132.8125 4.734375 C 130.84375 4.734375 129.308594 6.59375 129.308594 8.367188 C 129.308594 10.238281 130.699219 11.585938 132.492188 11.585938 Z M 132.828125 11.105469 C 131.546875 11.105469 130.621094 9.585938 130.621094 8 C 130.621094 7.230469 130.699219 6.414062 131.132812 5.871094 C 131.515625 5.375 131.964844 5.230469 132.539062 5.230469 C 133.902344 5.230469 134.796875 6.816406 134.796875 8.335938 C 134.796875 8.960938 134.734375 9.726562 134.476562 10.222656 C 134.15625 10.847656 133.546875 11.105469 132.828125 11.105469 Z M 132.828125 11.105469 "/>
<path style=" stroke:none;fill-rule:evenodd;fill:rgb(0%,0%,0%);fill-opacity:1;" d="M 138.972656 11.585938 C 140.363281 11.585938 141.324219 10.785156 141.324219 9.632812 C 141.324219 8.640625 140.714844 8.144531 139.484375 7.441406 C 138.621094 6.945312 138.378906 6.625 138.378906 6.128906 C 138.378906 5.519531 138.875 5.183594 139.40625 5.183594 C 140.011719 5.183594 140.414062 5.566406 140.699219 6.273438 C 140.734375 6.351562 140.875 6.414062 141.003906 6.414062 C 141.085938 6.414062 141.164062 6.382812 141.164062 6.304688 C 141.164062 5.855469 141.019531 5.28125 140.859375 5.039062 C 140.652344 4.894531 140.21875 4.734375 139.582031 4.734375 C 138.140625 4.734375 137.421875 5.550781 137.421875 6.574219 C 137.421875 7.375 137.851562 7.886719 138.941406 8.558594 C 139.902344 9.152344 140.238281 9.488281 140.238281 10.0625 C 140.238281 10.6875 139.742188 11.152344 139.117188 11.152344 C 138.492188 11.152344 137.804688 10.753906 137.53125 9.695312 C 137.515625 9.617188 137.421875 9.585938 137.339844 9.585938 C 137.226562 9.585938 137.132812 9.632812 137.132812 9.726562 C 137.148438 10.097656 137.195312 10.785156 137.308594 11.007812 C 137.707031 11.375 138.316406 11.585938 138.972656 11.585938 Z M 138.972656 11.585938 "/>
<path style=" stroke:none;fill-rule:evenodd;fill:rgb(0%,0%,0%);fill-opacity:1;" d="M 146.589844 14.71875 C 146.796875 14.71875 147.019531 14.59375 147.019531 14.367188 C 147.019531 14.335938 146.796875 14.078125 146.78125 14.046875 C 145.804688 12.910156 144.765625 9.503906 144.765625 6.785156 C 144.765625 4.0625 145.851562 1.710938 146.828125 0.574219 C 146.859375 0.542969 147.035156 0.289062 147.035156 0.257812 C 147.035156 0.113281 146.796875 0 146.683594 0 C 146.523438 0 146.347656 0.0976562 146.253906 0.191406 C 145.117188 1.328125 143.4375 4.257812 143.4375 6.976562 C 143.4375 9.695312 145.179688 13.457031 146.316406 14.59375 C 146.394531 14.671875 146.492188 14.71875 146.589844 14.71875 Z M 146.589844 14.71875 "/>
<path style=" stroke:none;fill-rule:evenodd;fill:rgb(0%,0%,0%);fill-opacity:1;" d="M 149.644531 15.921875 C 149.949219 15.921875 150.171875 15.726562 150.171875 15.585938 C 150.171875 15.550781 150.429688 13.902344 151.050781 11.710938 C 153.933594 11.710938 156.476562 9.34375 156.476562 6.863281 C 156.476562 5.710938 156.09375 5.152344 155.421875 4.878906 C 155.484375 4.769531 155.5 4.671875 155.5 4.558594 C 155.5 4.207031 155.070312 3.792969 154.253906 3.792969 C 151.003906 3.792969 148.539062 6.304688 148.539062 8.929688 C 148.539062 10.191406 149.117188 11.199219 150.460938 11.664062 C 149.949219 13.199219 149.371094 14.832031 149.195312 15.28125 C 149.164062 15.359375 149.164062 15.441406 149.164062 15.535156 C 149.164062 15.808594 149.355469 15.921875 149.644531 15.921875 Z M 150.796875 10.558594 C 149.757812 10.414062 149.117188 9.871094 149.117188 8.527344 C 149.117188 6.863281 151.308594 4.816406 153.644531 4.816406 C 152.414062 5.871094 151.40625 8.65625 150.796875 10.558594 Z M 151.386719 10.59375 C 151.851562 9.105469 153.164062 5.40625 154.75 5.40625 C 155.4375 5.40625 155.789062 6.257812 155.789062 7.152344 C 155.789062 8.976562 153.628906 10.59375 151.386719 10.59375 Z M 151.386719 10.59375 "/>
<path style=" stroke:none;fill-rule:evenodd;fill:rgb(0%,0%,0%);fill-opacity:1;" d="M 158.394531 14.71875 C 158.492188 14.71875 158.589844 14.671875 158.667969 14.59375 C 159.804688 13.457031 161.546875 9.695312 161.546875 6.976562 C 161.546875 4.257812 159.867188 1.328125 158.734375 0.191406 C 158.636719 0.0976562 158.460938 0 158.300781 0 C 158.1875 0 157.949219 0.113281 157.949219 0.257812 C 157.949219 0.289062 158.125 0.542969 158.15625 0.574219 C 159.132812 1.710938 160.21875 4.0625 160.21875 6.785156 C 160.21875 9.503906 159.179688 12.910156 158.203125 14.046875 C 158.1875 14.078125 157.964844 14.335938 157.964844 14.367188 C 157.964844 14.59375 158.1875 14.71875 158.394531 14.71875 Z M 158.394531 14.71875 "/>
<path style=" stroke:none;fill-rule:evenodd;fill:rgb(0%,0%,0%);fill-opacity:1;" d="M 171.214844 11.488281 C 171.359375 11.488281 171.984375 11.441406 171.984375 11.105469 L 171.984375 7.871094 C 171.984375 7.824219 172 7.808594 172.046875 7.808594 L 175.007812 7.808594 C 175.3125 7.808594 175.503906 7.441406 175.503906 7.167969 C 175.503906 7.070312 175.40625 7.007812 175.296875 7.007812 L 172.015625 7.007812 C 171.984375 7.007812 171.984375 6.992188 171.984375 6.910156 L 171.984375 3.855469 C 171.984375 3.742188 171.871094 3.648438 171.761719 3.648438 C 171.664062 3.648438 171.023438 3.792969 171.023438 4.144531 L 171.023438 6.878906 C 171.023438 6.976562 171.007812 7.007812 170.910156 7.007812 L 167.886719 7.007812 C 167.601562 7.007812 167.503906 7.472656 167.503906 7.617188 C 167.503906 7.710938 167.617188 7.808594 167.726562 7.808594 L 170.960938 7.808594 C 171.007812 7.808594 171.023438 7.839844 171.023438 7.886719 L 171.023438 11.265625 C 171.023438 11.375 171.121094 11.488281 171.214844 11.488281 Z M 171.214844 11.488281 "/>
<path style=" stroke:none;fill-rule:evenodd;fill:rgb(0%,0%,0%);fill-opacity:1;" d="M 182.164062 11.585938 C 183.554688 11.585938 184.515625 10.785156 184.515625 9.632812 C 184.515625 8.640625 183.90625 8.144531 182.675781 7.441406 C 181.8125 6.945312 181.570312 6.625 181.570312 6.128906 C 181.570312 5.519531 182.066406 5.183594 182.59375 5.183594 C 183.203125 5.183594 183.605469 5.566406 183.890625 6.273438 C 183.921875 6.351562 184.066406 6.414062 184.195312 6.414062 C 184.277344 6.414062 184.355469 6.382812 184.355469 6.304688 C 184.355469 5.855469 184.210938 5.28125 184.050781 5.039062 C 183.84375 4.894531 183.410156 4.734375 182.773438 4.734375 C 181.332031 4.734375 180.613281 5.550781 180.613281 6.574219 C 180.613281 7.375 181.042969 7.886719 182.132812 8.558594 C 183.089844 9.152344 183.425781 9.488281 183.425781 10.0625 C 183.425781 10.6875 182.929688 11.152344 182.308594 11.152344 C 181.683594 11.152344 180.996094 10.753906 180.722656 9.695312 C 180.707031 9.617188 180.613281 9.585938 180.53125 9.585938 C 180.417969 9.585938 180.324219 9.632812 180.324219 9.726562 C 180.339844 10.097656 180.386719 10.785156 180.5 11.007812 C 180.898438 11.375 181.507812 11.585938 182.164062 11.585938 Z M 182.164062 11.585938 "/>
<path style=" stroke:none;fill-rule:evenodd;fill:rgb(0%,0%,0%);fill-opacity:1;" d="M 187.011719 3.105469 C 187.476562 3.105469 187.828125 2.753906 187.828125 2.304688 C 187.828125 1.839844 187.476562 1.488281 187.011719 1.488281 C 186.5625 1.488281 186.210938 1.839844 186.210938 2.304688 C 186.210938 2.753906 186.5625 3.105469 187.011719 3.105469 Z M 185.730469 11.40625 C 186.355469 11.40625 186.46875 11.328125 187.027344 11.328125 C 187.585938 11.328125 187.714844 11.40625 188.324219 11.40625 C 188.53125 11.40625 188.644531 11.359375 188.644531 11.230469 C 188.644531 11.070312 188.453125 11.023438 188.277344 10.976562 C 187.84375 10.863281 187.585938 10.734375 187.585938 10.367188 L 187.585938 6.65625 C 187.585938 5.9375 187.730469 4.753906 187.730469 4.496094 C 187.730469 4.449219 187.699219 4.414062 187.636719 4.414062 C 187.570312 4.414062 187.492188 4.464844 187.410156 4.527344 C 187.140625 4.753906 186.578125 5.136719 185.730469 5.328125 C 185.636719 5.34375 185.585938 5.40625 185.585938 5.519531 C 185.585938 5.648438 185.636719 5.710938 185.746094 5.726562 C 186.292969 5.808594 186.46875 6.320312 186.46875 6.894531 L 186.46875 10.367188 C 186.46875 10.753906 186.226562 10.863281 185.78125 10.976562 C 185.605469 11.023438 185.410156 11.070312 185.410156 11.230469 C 185.410156 11.359375 185.539062 11.40625 185.730469 11.40625 Z M 185.730469 11.40625 "/>
<path style=" stroke:none;fill-rule:evenodd;fill:rgb(0%,0%,0%);fill-opacity:1;" d="M 189.652344 11.40625 C 190.292969 11.40625 190.386719 11.328125 190.949219 11.328125 C 191.507812 11.328125 191.605469 11.40625 192.242188 11.40625 C 192.453125 11.40625 192.5625 11.359375 192.5625 11.230469 C 192.5625 11.105469 192.453125 11.039062 192.195312 10.976562 C 191.875 10.894531 191.507812 10.800781 191.507812 10.367188 L 191.507812 6.511719 C 191.507812 6.382812 191.554688 6.222656 191.636719 6.144531 C 192.082031 5.777344 192.644531 5.503906 193.410156 5.503906 C 194.277344 5.519531 194.851562 6.078125 194.851562 7.007812 L 194.851562 10.367188 C 194.851562 10.800781 194.484375 10.878906 194.164062 10.976562 C 193.988281 11.039062 193.796875 11.105469 193.796875 11.265625 C 193.796875 11.390625 194.003906 11.40625 194.117188 11.40625 C 194.753906 11.40625 194.867188 11.328125 195.425781 11.328125 C 195.988281 11.328125 196.066406 11.40625 196.707031 11.40625 C 196.835938 11.40625 197.027344 11.390625 197.027344 11.265625 C 197.027344 11.105469 196.835938 11.039062 196.660156 10.976562 C 196.339844 10.878906 195.972656 10.800781 195.972656 10.367188 L 195.972656 6.960938 C 195.972656 5.710938 195.203125 4.734375 194.164062 4.734375 C 193.15625 4.734375 192.339844 5.089844 191.585938 5.808594 C 191.570312 5.792969 191.554688 5.710938 191.554688 5.617188 C 191.554688 5.3125 191.636719 4.734375 191.636719 4.59375 C 191.636719 4.527344 191.605469 4.480469 191.554688 4.480469 C 191.492188 4.480469 191.445312 4.511719 191.378906 4.558594 C 190.929688 4.894531 190.515625 5.183594 189.78125 5.375 C 189.683594 5.390625 189.636719 5.457031 189.636719 5.566406 C 189.636719 5.695312 189.699219 5.742188 189.796875 5.777344 C 190.339844 5.921875 190.386719 6.351562 190.386719 6.929688 L 190.386719 10.367188 C 190.386719 10.800781 190.019531 10.894531 189.699219 10.976562 C 189.460938 11.039062 189.332031 11.070312 189.332031 11.230469 C 189.332031 11.359375 189.460938 11.40625 189.652344 11.40625 Z M 189.652344 11.40625 "/>
<path style=" stroke:none;fill-rule:evenodd;fill:rgb(0%,0%,0%);fill-opacity:1;" d="M 202.148438 14.71875 C 202.355469 14.71875 202.578125 14.59375 202.578125 14.367188 C 202.578125 14.335938 202.355469 14.078125 202.339844 14.046875 C 201.363281 12.910156 200.324219 9.503906 200.324219 6.785156 C 200.324219 4.0625 201.410156 1.710938 202.386719 0.574219 C 202.417969 0.542969 202.59375 0.289062 202.59375 0.257812 C 202.59375 0.113281 202.355469 0 202.242188 0 C 202.082031 0 201.90625 0.0976562 201.8125 0.191406 C 200.675781 1.328125 198.996094 4.257812 198.996094 6.976562 C 198.996094 9.695312 200.738281 13.457031 201.875 14.59375 C 201.957031 14.671875 202.050781 14.71875 202.148438 14.71875 Z M 202.148438 14.71875 "/>
<path style=" stroke:none;fill-rule:evenodd;fill:rgb(0%,0%,0%);fill-opacity:1;" d="M 205.203125 15.921875 C 205.507812 15.921875 205.730469 15.726562 205.730469 15.585938 C 205.730469 15.550781 205.988281 13.902344 206.613281 11.710938 C 209.492188 11.710938 212.035156 9.34375 212.035156 6.863281 C 212.035156 5.710938 211.652344 5.152344 210.980469 4.878906 C 211.042969 4.769531 211.058594 4.671875 211.058594 4.558594 C 211.058594 4.207031 210.628906 3.792969 209.8125 3.792969 C 206.5625 3.792969 204.097656 6.304688 204.097656 8.929688 C 204.097656 10.191406 204.675781 11.199219 206.019531 11.664062 C 205.507812 13.199219 204.929688 14.832031 204.753906 15.28125 C 204.722656 15.359375 204.722656 15.441406 204.722656 15.535156 C 204.722656 15.808594 204.914062 15.921875 205.203125 15.921875 Z M 206.355469 10.558594 C 205.316406 10.414062 204.675781 9.871094 204.675781 8.527344 C 204.675781 6.863281 206.867188 4.816406 209.203125 4.816406 C 207.972656 5.871094 206.964844 8.65625 206.355469 10.558594 Z M 206.949219 10.59375 C 207.410156 9.105469 208.722656 5.40625 210.308594 5.40625 C 210.996094 5.40625 211.347656 6.257812 211.347656 7.152344 C 211.347656 8.976562 209.1875 10.59375 206.949219 10.59375 Z M 206.949219 10.59375 "/>
<path style=" stroke:none;fill-rule:evenodd;fill:rgb(0%,0%,0%);fill-opacity:1;" d="M 213.957031 14.71875 C 214.050781 14.71875 214.148438 14.671875 214.226562 14.59375 C 215.363281 13.457031 217.109375 9.695312 217.109375 6.976562 C 217.109375 4.257812 215.425781 1.328125 214.292969 0.191406 C 214.195312 0.0976562 214.019531 0 213.859375 0 C 213.746094 0 213.507812 0.113281 213.507812 0.257812 C 213.507812 0.289062 213.683594 0.542969 213.714844 0.574219 C 214.691406 1.710938 215.78125 4.0625 215.78125 6.785156 C 215.78125 9.503906 214.738281 12.910156 213.761719 14.046875 C 213.746094 14.078125 213.523438 14.335938 213.523438 14.367188 C 213.523438 14.59375 213.746094 14.71875 213.957031 14.71875 Z M 213.957031 14.71875 "/>
<path style=" stroke:none;fill-rule:evenodd;fill:rgb(0%,0%,0%);fill-opacity:1;" d="M 224.78125 11.601562 C 225.757812 11.601562 226.574219 11.246094 227.085938 10.59375 C 227.246094 10.382812 227.328125 10.222656 227.328125 10.097656 C 227.328125 9.96875 227.246094 9.871094 227.148438 9.871094 C 227.101562 9.871094 227.039062 9.902344 226.988281 9.953125 C 226.476562 10.464844 226.09375 10.640625 225.46875 10.640625 C 224.109375 10.640625 223.039062 9.472656 223.039062 7.96875 C 223.039062 6.398438 223.757812 5.328125 224.796875 5.328125 C 225.183594 5.328125 225.839844 5.726562 226.300781 6.078125 C 226.429688 6.175781 226.527344 6.257812 226.636719 6.257812 C 226.910156 6.257812 227.328125 5.871094 227.328125 5.601562 C 227.328125 5.488281 227.261719 5.390625 227.132812 5.296875 C 226.621094 4.929688 226 4.734375 225.308594 4.734375 C 223.4375 4.734375 221.933594 6.398438 221.933594 8.480469 C 221.933594 10.257812 223.167969 11.601562 224.78125 11.601562 Z M 224.78125 11.601562 "/>
<path style=" stroke:none;fill-rule:evenodd;fill:rgb(0%,0%,0%);fill-opacity:1;" d="M 231.628906 11.585938 C 234.03125 11.585938 235.246094 9.824219 235.246094 7.953125 C 235.246094 6.222656 233.804688 4.734375 231.949219 4.734375 C 229.980469 4.734375 228.445312 6.59375 228.445312 8.367188 C 228.445312 10.238281 229.839844 11.585938 231.628906 11.585938 Z M 231.964844 11.105469 C 230.6875 11.105469 229.757812 9.585938 229.757812 8 C 229.757812 7.230469 229.839844 6.414062 230.269531 5.871094 C 230.652344 5.375 231.101562 5.230469 231.679688 5.230469 C 233.039062 5.230469 233.933594 6.816406 233.933594 8.335938 C 233.933594 8.960938 233.871094 9.726562 233.613281 10.222656 C 233.292969 10.847656 232.6875 11.105469 231.964844 11.105469 Z M 231.964844 11.105469 "/>
<path style=" stroke:none;fill-rule:evenodd;fill:rgb(0%,0%,0%);fill-opacity:1;" d="M 238.109375 11.585938 C 239.503906 11.585938 240.460938 10.785156 240.460938 9.632812 C 240.460938 8.640625 239.855469 8.144531 238.621094 7.441406 C 237.757812 6.945312 237.519531 6.625 237.519531 6.128906 C 237.519531 5.519531 238.015625 5.183594 238.542969 5.183594 C 239.148438 5.183594 239.550781 5.566406 239.839844 6.273438 C 239.871094 6.351562 240.015625 6.414062 240.140625 6.414062 C 240.222656 6.414062 240.300781 6.382812 240.300781 6.304688 C 240.300781 5.855469 240.160156 5.28125 240 5.039062 C 239.789062 4.894531 239.359375 4.734375 238.71875 4.734375 C 237.277344 4.734375 236.558594 5.550781 236.558594 6.574219 C 236.558594 7.375 236.988281 7.886719 238.078125 8.558594 C 239.039062 9.152344 239.375 9.488281 239.375 10.0625 C 239.375 10.6875 238.878906 11.152344 238.253906 11.152344 C 237.628906 11.152344 236.941406 10.753906 236.671875 9.695312 C 236.652344 9.617188 236.558594 9.585938 236.476562 9.585938 C 236.367188 9.585938 236.269531 9.632812 236.269531 9.726562 C 236.285156 10.097656 236.335938 10.785156 236.445312 11.007812 C 236.847656 11.375 237.453125 11.585938 238.109375 11.585938 Z M 238.109375 11.585938 "/>
<path style=" stroke:none;fill-rule:evenodd;fill:rgb(0%,0%,0%);fill-opacity:1;" d="M 245.726562 14.71875 C 245.933594 14.71875 246.160156 14.59375 246.160156 14.367188 C 246.160156 14.335938 245.933594 14.078125 245.917969 14.046875 C 244.941406 12.910156 243.902344 9.503906 243.902344 6.785156 C 243.902344 4.0625 244.988281 1.710938 245.964844 0.574219 C 246 0.542969 246.175781 0.289062 246.175781 0.257812 C 246.175781 0.113281 245.933594 0 245.820312 0 C 245.664062 0 245.484375 0.0976562 245.390625 0.191406 C 244.253906 1.328125 242.574219 4.257812 242.574219 6.976562 C 242.574219 9.695312 244.316406 13.457031 245.453125 14.59375 C 245.535156 14.671875 245.628906 14.71875 245.726562 14.71875 Z M 245.726562 14.71875 "/>
<path style=" stroke:none;fill-rule:evenodd;fill:rgb(0%,0%,0%);fill-opacity:1;" d="M 249.023438 11.585938 C 251.214844 11.585938 254.078125 6.03125 254.078125 3.007812 C 254.078125 1.183594 253.679688 0.207031 252.703125 0.207031 C 250.367188 0.207031 247.804688 5.824219 247.804688 9.121094 C 247.804688 10.304688 248.382812 11.585938 249.023438 11.585938 Z M 249.582031 5.167969 C 249.4375 5.167969 249.4375 5.070312 249.484375 4.960938 C 250.71875 2.289062 251.742188 1.425781 252.398438 1.425781 C 253.230469 1.425781 253.535156 1.792969 253.535156 2.511719 C 253.535156 3.007812 253.292969 4.160156 253.039062 4.960938 C 253.007812 5.070312 252.894531 5.167969 252.78125 5.167969 Z M 249.4375 10.289062 C 248.558594 10.289062 248.285156 9.886719 248.285156 9.246094 C 248.285156 8.320312 248.703125 6.976562 248.988281 6.175781 C 249.039062 6.0625 249.117188 5.9375 249.246094 5.9375 L 252.476562 5.953125 C 252.671875 5.953125 252.6875 6.015625 252.605469 6.191406 C 251.820312 8.191406 250.496094 10.289062 249.4375 10.289062 Z M 249.4375 10.289062 "/>
<path style=" stroke:none;fill-rule:evenodd;fill:rgb(0%,0%,0%);fill-opacity:1;" d="M 255.597656 14.71875 C 255.695312 14.71875 255.789062 14.671875 255.871094 14.59375 C 257.007812 13.457031 258.75 9.695312 258.75 6.976562 C 258.75 4.257812 257.070312 1.328125 255.933594 0.191406 C 255.839844 0.0976562 255.664062 0 255.503906 0 C 255.390625 0 255.148438 0.113281 255.148438 0.257812 C 255.148438 0.289062 255.328125 0.542969 255.359375 0.574219 C 256.335938 1.710938 257.421875 4.0625 257.421875 6.785156 C 257.421875 9.503906 256.382812 12.910156 255.40625 14.046875 C 255.390625 14.078125 255.167969 14.335938 255.167969 14.367188 C 255.167969 14.59375 255.390625 14.71875 255.597656 14.71875 Z M 255.597656 14.71875 "/>
</g>
</svg>
