<?xml version="1.0" encoding="UTF-8"?>
<svg xmlns="http://www.w3.org/2000/svg" xmlns:xlink="http://www.w3.org/1999/xlink" width="650.875583pt" height="39.800002pt" viewBox="0 0 650.875583 39.800002" version="1.1">
<g id="surface1">
<path style=" stroke:none;fill-rule:evenodd;fill:rgb(0%,0%,0%);fill-opacity:1;" d="M 5.761719 28.960938 C 9.238281 28.960938 11.640625 26.960938 11.640625 24.078125 C 11.640625 21.601562 10.121094 20.359375 7.039062 18.601562 C 4.878906 17.359375 4.28125 16.558594 4.28125 15.320312 C 4.28125 13.800781 5.519531 12.960938 6.839844 12.960938 C 8.359375 12.960938 9.359375 13.921875 10.078125 15.679688 C 10.160156 15.878906 10.519531 16.039062 10.839844 16.039062 C 11.039062 16.039062 11.238281 15.960938 11.238281 15.761719 C 11.238281 14.640625 10.878906 13.199219 10.480469 12.601562 C 9.960938 12.238281 8.878906 11.839844 7.28125 11.839844 C 3.679688 11.839844 1.878906 13.878906 1.878906 16.441406 C 1.878906 18.441406 2.960938 19.71875 5.679688 21.398438 C 8.078125 22.878906 8.921875 23.71875 8.921875 25.160156 C 8.921875 26.71875 7.679688 27.878906 6.121094 27.878906 C 4.558594 27.878906 2.839844 26.878906 2.160156 24.238281 C 2.121094 24.039062 1.878906 23.960938 1.679688 23.960938 C 1.398438 23.960938 1.160156 24.078125 1.160156 24.320312 C 1.199219 25.238281 1.320312 26.960938 1.601562 27.519531 C 2.601562 28.441406 4.121094 28.960938 5.761719 28.960938 Z M 5.761719 28.960938 "/>
<path style=" stroke:none;fill-rule:evenodd;fill:rgb(0%,0%,0%);fill-opacity:1;" d="M 17.878906 7.761719 C 19.039062 7.761719 19.921875 6.878906 19.921875 5.761719 C 19.921875 4.601562 19.039062 3.71875 17.878906 3.71875 C 16.761719 3.71875 15.878906 4.601562 15.878906 5.761719 C 15.878906 6.878906 16.761719 7.761719 17.878906 7.761719 Z M 14.679688 28.519531 C 16.238281 28.519531 16.519531 28.320312 17.921875 28.320312 C 19.320312 28.320312 19.640625 28.519531 21.160156 28.519531 C 21.679688 28.519531 21.960938 28.398438 21.960938 28.078125 C 21.960938 27.679688 21.480469 27.558594 21.039062 27.441406 C 19.960938 27.160156 19.320312 26.839844 19.320312 25.921875 L 19.320312 16.640625 C 19.320312 14.839844 19.679688 11.878906 19.679688 11.238281 C 19.679688 11.121094 19.601562 11.039062 19.441406 11.039062 C 19.28125 11.039062 19.078125 11.160156 18.878906 11.320312 C 18.199219 11.878906 16.800781 12.839844 14.679688 13.320312 C 14.441406 13.359375 14.320312 13.519531 14.320312 13.800781 C 14.320312 14.121094 14.441406 14.28125 14.71875 14.320312 C 16.078125 14.519531 16.519531 15.800781 16.519531 17.238281 L 16.519531 25.921875 C 16.519531 26.878906 15.921875 27.160156 14.800781 27.441406 C 14.359375 27.558594 13.878906 27.679688 13.878906 28.078125 C 13.878906 28.398438 14.199219 28.519531 14.679688 28.519531 Z M 14.679688 28.519531 "/>
<path style=" stroke:none;fill-rule:evenodd;fill:rgb(0%,0%,0%);fill-opacity:1;" d="M 24.480469 28.519531 C 26.078125 28.519531 26.320312 28.320312 27.71875 28.320312 C 29.121094 28.320312 29.359375 28.519531 30.960938 28.519531 C 31.480469 28.519531 31.761719 28.398438 31.761719 28.078125 C 31.761719 27.761719 31.480469 27.601562 30.839844 27.441406 C 30.039062 27.238281 29.121094 27 29.121094 25.921875 L 29.121094 16.28125 C 29.121094 15.960938 29.238281 15.558594 29.441406 15.359375 C 30.558594 14.441406 31.960938 13.761719 33.878906 13.761719 C 36.039062 13.800781 37.480469 15.199219 37.480469 17.519531 L 37.480469 25.921875 C 37.480469 27 36.558594 27.199219 35.761719 27.441406 C 35.320312 27.601562 34.839844 27.761719 34.839844 28.160156 C 34.839844 28.480469 35.359375 28.519531 35.640625 28.519531 C 37.238281 28.519531 37.519531 28.320312 38.921875 28.320312 C 40.320312 28.320312 40.519531 28.519531 42.121094 28.519531 C 42.441406 28.519531 42.921875 28.480469 42.921875 28.160156 C 42.921875 27.761719 42.441406 27.601562 42 27.441406 C 41.199219 27.199219 40.28125 27 40.28125 25.921875 L 40.28125 17.398438 C 40.28125 14.28125 38.359375 11.839844 35.761719 11.839844 C 33.238281 11.839844 31.199219 12.71875 29.320312 14.519531 C 29.28125 14.480469 29.238281 14.28125 29.238281 14.039062 C 29.238281 13.28125 29.441406 11.839844 29.441406 11.480469 C 29.441406 11.320312 29.359375 11.199219 29.238281 11.199219 C 29.078125 11.199219 28.960938 11.28125 28.800781 11.398438 C 27.679688 12.238281 26.640625 12.960938 24.800781 13.441406 C 24.558594 13.480469 24.441406 13.640625 24.441406 13.921875 C 24.441406 14.238281 24.601562 14.359375 24.839844 14.441406 C 26.199219 14.800781 26.320312 15.878906 26.320312 17.320312 L 26.320312 25.921875 C 26.320312 27 25.398438 27.238281 24.601562 27.441406 C 24 27.601562 23.679688 27.679688 23.679688 28.078125 C 23.679688 28.398438 24 28.519531 24.480469 28.519531 Z M 24.480469 28.519531 "/>
<path style=" stroke:none;fill-rule:evenodd;fill:rgb(0%,0%,0%);fill-opacity:1;" d="M 55.71875 36.800781 C 56.238281 36.800781 56.800781 36.480469 56.800781 35.921875 C 56.800781 35.839844 56.238281 35.199219 56.199219 35.121094 C 53.761719 32.28125 51.160156 23.761719 51.160156 16.960938 C 51.160156 10.160156 53.878906 4.28125 56.320312 1.441406 C 56.398438 1.359375 56.839844 0.71875 56.839844 0.640625 C 56.839844 0.28125 56.238281 0 55.960938 0 C 55.558594 0 55.121094 0.238281 54.878906 0.480469 C 52.039062 3.320312 47.839844 10.640625 47.839844 17.441406 C 47.839844 24.238281 52.199219 33.640625 55.039062 36.480469 C 55.238281 36.679688 55.480469 36.800781 55.71875 36.800781 Z M 55.71875 36.800781 "/>
<path style=" stroke:none;fill-rule:evenodd;fill:rgb(0%,0%,0%);fill-opacity:1;" d="M 63.960938 28.960938 C 69.441406 28.960938 76.601562 15.078125 76.601562 7.519531 C 76.601562 2.960938 75.601562 0.519531 73.160156 0.519531 C 67.320312 0.519531 60.921875 14.558594 60.921875 22.800781 C 60.921875 25.761719 62.359375 28.960938 63.960938 28.960938 Z M 65.359375 12.921875 C 65 12.921875 65 12.679688 65.121094 12.398438 C 68.199219 5.71875 70.761719 3.558594 72.398438 3.558594 C 74.480469 3.558594 75.238281 4.480469 75.238281 6.28125 C 75.238281 7.519531 74.640625 10.398438 74 12.398438 C 73.921875 12.679688 73.640625 12.921875 73.359375 12.921875 Z M 65 25.71875 C 62.800781 25.71875 62.121094 24.71875 62.121094 23.121094 C 62.121094 20.800781 63.160156 17.441406 63.878906 15.441406 C 64 15.160156 64.199219 14.839844 64.519531 14.839844 L 72.601562 14.878906 C 73.078125 14.878906 73.121094 15.039062 72.921875 15.480469 C 70.960938 20.480469 67.640625 25.71875 65 25.71875 Z M 65 25.71875 "/>
<path style=" stroke:none;fill-rule:evenodd;fill:rgb(0%,0%,0%);fill-opacity:1;" d="M 97.449219 28.71875 C 97.808594 28.71875 99.367188 28.601562 99.367188 27.761719 L 99.367188 19.679688 C 99.367188 19.558594 99.410156 19.519531 99.527344 19.519531 L 106.929688 19.519531 C 107.6875 19.519531 108.167969 18.601562 108.167969 17.921875 C 108.167969 17.679688 107.929688 17.519531 107.648438 17.519531 L 99.449219 17.519531 C 99.367188 17.519531 99.367188 17.480469 99.367188 17.28125 L 99.367188 9.640625 C 99.367188 9.359375 99.089844 9.121094 98.808594 9.121094 C 98.570312 9.121094 96.96875 9.480469 96.96875 10.359375 L 96.96875 17.199219 C 96.96875 17.441406 96.929688 17.519531 96.6875 17.519531 L 89.128906 17.519531 C 88.410156 17.519531 88.167969 18.679688 88.167969 19.039062 C 88.167969 19.28125 88.449219 19.519531 88.730469 19.519531 L 96.808594 19.519531 C 96.929688 19.519531 96.96875 19.601562 96.96875 19.71875 L 96.96875 28.160156 C 96.96875 28.441406 97.207031 28.71875 97.449219 28.71875 Z M 97.449219 28.71875 "/>
<path style=" stroke:none;fill-rule:evenodd;fill:rgb(0%,0%,0%);fill-opacity:1;" d="M 123.578125 39.800781 C 124.335938 39.800781 124.898438 39.320312 124.898438 38.960938 C 124.898438 38.878906 125.539062 34.761719 127.097656 29.28125 C 134.296875 29.28125 140.65625 23.359375 140.65625 17.160156 C 140.65625 14.28125 139.699219 12.878906 138.019531 12.199219 C 138.179688 11.921875 138.21875 11.679688 138.21875 11.398438 C 138.21875 10.519531 137.136719 9.480469 135.097656 9.480469 C 126.976562 9.480469 120.816406 15.761719 120.816406 22.320312 C 120.816406 25.480469 122.257812 28 125.617188 29.160156 C 124.335938 33 122.898438 37.078125 122.457031 38.199219 C 122.378906 38.398438 122.378906 38.601562 122.378906 38.839844 C 122.378906 39.519531 122.859375 39.800781 123.578125 39.800781 Z M 126.457031 26.398438 C 123.859375 26.039062 122.257812 24.679688 122.257812 21.320312 C 122.257812 17.160156 127.738281 12.039062 133.578125 12.039062 C 130.496094 14.679688 127.976562 21.640625 126.457031 26.398438 Z M 127.9375 26.480469 C 129.097656 22.761719 132.378906 13.519531 136.335938 13.519531 C 138.058594 13.519531 138.9375 15.640625 138.9375 17.878906 C 138.9375 22.441406 133.539062 26.480469 127.9375 26.480469 Z M 127.9375 26.480469 "/>
<path style=" stroke:none;fill-rule:evenodd;fill:rgb(0%,0%,0%);fill-opacity:1;" d="M 145.457031 36.800781 C 145.699219 36.800781 145.9375 36.679688 146.136719 36.480469 C 148.976562 33.640625 153.335938 24.238281 153.335938 17.441406 C 153.335938 10.640625 149.136719 3.320312 146.296875 0.480469 C 146.058594 0.238281 145.617188 0 145.21875 0 C 144.9375 0 144.335938 0.28125 144.335938 0.640625 C 144.335938 0.71875 144.777344 1.359375 144.859375 1.441406 C 147.296875 4.28125 150.019531 10.160156 150.019531 16.960938 C 150.019531 23.761719 147.417969 32.28125 144.976562 35.121094 C 144.9375 35.199219 144.378906 35.839844 144.378906 35.921875 C 144.378906 36.480469 144.9375 36.800781 145.457031 36.800781 Z M 145.457031 36.800781 "/>
<path style=" stroke:none;fill-rule:evenodd;fill:rgb(0%,0%,0%);fill-opacity:1;" d="M 173.230469 15.839844 L 190.03125 15.839844 C 190.671875 15.839844 191.3125 14.839844 191.3125 14.28125 C 191.3125 14.039062 190.992188 13.839844 190.75 13.839844 L 173.632812 13.839844 C 172.910156 13.839844 172.671875 15 172.671875 15.359375 C 172.671875 15.601562 172.949219 15.839844 173.230469 15.839844 Z M 173.230469 22.679688 L 190.03125 22.679688 C 190.671875 22.679688 191.3125 21.839844 191.3125 21.121094 C 191.3125 20.878906 190.992188 20.679688 190.75 20.679688 L 173.632812 20.679688 C 172.910156 20.679688 172.671875 21.839844 172.671875 22.199219 C 172.671875 22.441406 172.949219 22.679688 173.230469 22.679688 Z M 173.230469 22.679688 "/>
<path style=" stroke:none;fill-rule:evenodd;fill:rgb(0%,0%,0%);fill-opacity:1;" d="M 212.40625 28.960938 C 215.882812 28.960938 218.285156 26.960938 218.285156 24.078125 C 218.285156 21.601562 216.765625 20.359375 213.683594 18.601562 C 211.523438 17.359375 210.925781 16.558594 210.925781 15.320312 C 210.925781 13.800781 212.164062 12.960938 213.484375 12.960938 C 215.003906 12.960938 216.003906 13.921875 216.722656 15.679688 C 216.804688 15.878906 217.164062 16.039062 217.484375 16.039062 C 217.683594 16.039062 217.882812 15.960938 217.882812 15.761719 C 217.882812 14.640625 217.523438 13.199219 217.125 12.601562 C 216.605469 12.238281 215.523438 11.839844 213.925781 11.839844 C 210.324219 11.839844 208.523438 13.878906 208.523438 16.441406 C 208.523438 18.441406 209.605469 19.71875 212.324219 21.398438 C 214.722656 22.878906 215.5625 23.71875 215.5625 25.160156 C 215.5625 26.71875 214.324219 27.878906 212.765625 27.878906 C 211.203125 27.878906 209.484375 26.878906 208.804688 24.238281 C 208.765625 24.039062 208.523438 23.960938 208.324219 23.960938 C 208.042969 23.960938 207.804688 24.078125 207.804688 24.320312 C 207.84375 25.238281 207.964844 26.960938 208.246094 27.519531 C 209.246094 28.441406 210.765625 28.960938 212.40625 28.960938 Z M 212.40625 28.960938 "/>
<path style=" stroke:none;fill-rule:evenodd;fill:rgb(0%,0%,0%);fill-opacity:1;" d="M 224.523438 7.761719 C 225.683594 7.761719 226.5625 6.878906 226.5625 5.761719 C 226.5625 4.601562 225.683594 3.71875 224.523438 3.71875 C 223.40625 3.71875 222.523438 4.601562 222.523438 5.761719 C 222.523438 6.878906 223.40625 7.761719 224.523438 7.761719 Z M 221.324219 28.519531 C 222.882812 28.519531 223.164062 28.320312 224.5625 28.320312 C 225.964844 28.320312 226.285156 28.519531 227.804688 28.519531 C 228.324219 28.519531 228.605469 28.398438 228.605469 28.078125 C 228.605469 27.679688 228.125 27.558594 227.683594 27.441406 C 226.605469 27.160156 225.964844 26.839844 225.964844 25.921875 L 225.964844 16.640625 C 225.964844 14.839844 226.324219 11.878906 226.324219 11.238281 C 226.324219 11.121094 226.246094 11.039062 226.085938 11.039062 C 225.925781 11.039062 225.722656 11.160156 225.523438 11.320312 C 224.84375 11.878906 223.445312 12.839844 221.324219 13.320312 C 221.085938 13.359375 220.964844 13.519531 220.964844 13.800781 C 220.964844 14.121094 221.085938 14.28125 221.363281 14.320312 C 222.722656 14.519531 223.164062 15.800781 223.164062 17.238281 L 223.164062 25.921875 C 223.164062 26.878906 222.5625 27.160156 221.445312 27.441406 C 221.003906 27.558594 220.523438 27.679688 220.523438 28.078125 C 220.523438 28.398438 220.84375 28.519531 221.324219 28.519531 Z M 221.324219 28.519531 "/>
<path style=" stroke:none;fill-rule:evenodd;fill:rgb(0%,0%,0%);fill-opacity:1;" d="M 231.125 28.519531 C 232.722656 28.519531 232.964844 28.320312 234.363281 28.320312 C 235.765625 28.320312 236.003906 28.519531 237.605469 28.519531 C 238.125 28.519531 238.40625 28.398438 238.40625 28.078125 C 238.40625 27.761719 238.125 27.601562 237.484375 27.441406 C 236.683594 27.238281 235.765625 27 235.765625 25.921875 L 235.765625 16.28125 C 235.765625 15.960938 235.882812 15.558594 236.085938 15.359375 C 237.203125 14.441406 238.605469 13.761719 240.523438 13.761719 C 242.683594 13.800781 244.125 15.199219 244.125 17.519531 L 244.125 25.921875 C 244.125 27 243.203125 27.199219 242.40625 27.441406 C 241.964844 27.601562 241.484375 27.761719 241.484375 28.160156 C 241.484375 28.480469 242.003906 28.519531 242.285156 28.519531 C 243.882812 28.519531 244.164062 28.320312 245.566406 28.320312 C 246.964844 28.320312 247.164062 28.519531 248.765625 28.519531 C 249.085938 28.519531 249.566406 28.480469 249.566406 28.160156 C 249.566406 27.761719 249.085938 27.601562 248.644531 27.441406 C 247.84375 27.199219 246.925781 27 246.925781 25.921875 L 246.925781 17.398438 C 246.925781 14.28125 245.003906 11.839844 242.40625 11.839844 C 239.882812 11.839844 237.84375 12.71875 235.964844 14.519531 C 235.925781 14.480469 235.882812 14.28125 235.882812 14.039062 C 235.882812 13.28125 236.085938 11.839844 236.085938 11.480469 C 236.085938 11.320312 236.003906 11.199219 235.882812 11.199219 C 235.722656 11.199219 235.605469 11.28125 235.445312 11.398438 C 234.324219 12.238281 233.285156 12.960938 231.445312 13.441406 C 231.203125 13.480469 231.085938 13.640625 231.085938 13.921875 C 231.085938 14.238281 231.246094 14.359375 231.484375 14.441406 C 232.84375 14.800781 232.964844 15.878906 232.964844 17.320312 L 232.964844 25.921875 C 232.964844 27 232.042969 27.238281 231.246094 27.441406 C 230.644531 27.601562 230.324219 27.679688 230.324219 28.078125 C 230.324219 28.398438 230.644531 28.519531 231.125 28.519531 Z M 231.125 28.519531 "/>
<path style=" stroke:none;fill-rule:evenodd;fill:rgb(0%,0%,0%);fill-opacity:1;" d="M 262.363281 36.800781 C 262.882812 36.800781 263.445312 36.480469 263.445312 35.921875 C 263.445312 35.839844 262.882812 35.199219 262.84375 35.121094 C 260.40625 32.28125 257.804688 23.761719 257.804688 16.960938 C 257.804688 10.160156 260.523438 4.28125 262.964844 1.441406 C 263.042969 1.359375 263.484375 0.71875 263.484375 0.640625 C 263.484375 0.28125 262.882812 0 262.605469 0 C 262.203125 0 261.765625 0.238281 261.523438 0.480469 C 258.683594 3.320312 254.484375 10.640625 254.484375 17.441406 C 254.484375 24.238281 258.84375 33.640625 261.683594 36.480469 C 261.882812 36.679688 262.125 36.800781 262.363281 36.800781 Z M 262.363281 36.800781 "/>
<path style=" stroke:none;fill-rule:evenodd;fill:rgb(0%,0%,0%);fill-opacity:1;" d="M 270.605469 28.960938 C 276.085938 28.960938 283.246094 15.078125 283.246094 7.519531 C 283.246094 2.960938 282.246094 0.519531 279.804688 0.519531 C 273.964844 0.519531 267.566406 14.558594 267.566406 22.800781 C 267.566406 25.761719 269.003906 28.960938 270.605469 28.960938 Z M 272.003906 12.921875 C 271.644531 12.921875 271.644531 12.679688 271.765625 12.398438 C 274.84375 5.71875 277.40625 3.558594 279.042969 3.558594 C 281.125 3.558594 281.882812 4.480469 281.882812 6.28125 C 281.882812 7.519531 281.285156 10.398438 280.644531 12.398438 C 280.566406 12.679688 280.285156 12.921875 280.003906 12.921875 Z M 271.644531 25.71875 C 269.445312 25.71875 268.765625 24.71875 268.765625 23.121094 C 268.765625 20.800781 269.804688 17.441406 270.523438 15.441406 C 270.644531 15.160156 270.84375 14.839844 271.164062 14.839844 L 279.246094 14.878906 C 279.722656 14.878906 279.765625 15.039062 279.566406 15.480469 C 277.605469 20.480469 274.285156 25.71875 271.644531 25.71875 Z M 271.644531 25.71875 "/>
<path style=" stroke:none;fill-rule:evenodd;fill:rgb(0%,0%,0%);fill-opacity:1;" d="M 287.042969 36.800781 C 287.285156 36.800781 287.523438 36.679688 287.722656 36.480469 C 290.566406 33.640625 294.925781 24.238281 294.925781 17.441406 C 294.925781 10.640625 290.722656 3.320312 287.882812 0.480469 C 287.644531 0.238281 287.203125 0 286.804688 0 C 286.523438 0 285.925781 0.28125 285.925781 0.640625 C 285.925781 0.71875 286.363281 1.359375 286.445312 1.441406 C 288.882812 4.28125 291.605469 10.160156 291.605469 16.960938 C 291.605469 23.761719 289.003906 32.28125 286.566406 35.121094 C 286.523438 35.199219 285.964844 35.839844 285.964844 35.921875 C 285.964844 36.480469 286.523438 36.800781 287.042969 36.800781 Z M 287.042969 36.800781 "/>
<path style=" stroke:none;fill-rule:evenodd;fill:rgb(0%,0%,0%);fill-opacity:1;" d="M 314.109375 29 C 316.550781 29 318.589844 28.121094 319.871094 26.480469 C 320.269531 25.960938 320.472656 25.558594 320.472656 25.238281 C 320.472656 24.921875 320.269531 24.679688 320.03125 24.679688 C 319.910156 24.679688 319.75 24.761719 319.632812 24.878906 C 318.351562 26.160156 317.390625 26.601562 315.832031 26.601562 C 312.429688 26.601562 309.75 23.679688 309.75 19.921875 C 309.75 16 311.550781 13.320312 314.152344 13.320312 C 315.109375 13.320312 316.75 14.320312 317.910156 15.199219 C 318.230469 15.441406 318.472656 15.640625 318.75 15.640625 C 319.429688 15.640625 320.472656 14.679688 320.472656 14 C 320.472656 13.71875 320.3125 13.480469 319.992188 13.238281 C 318.710938 12.320312 317.152344 11.839844 315.429688 11.839844 C 310.75 11.839844 306.992188 16 306.992188 21.199219 C 306.992188 25.640625 310.070312 29 314.109375 29 Z M 314.109375 29 "/>
<path style=" stroke:none;fill-rule:evenodd;fill:rgb(0%,0%,0%);fill-opacity:1;" d="M 331.230469 28.960938 C 337.230469 28.960938 340.269531 24.558594 340.269531 19.878906 C 340.269531 15.558594 336.671875 11.839844 332.03125 11.839844 C 327.109375 11.839844 323.269531 16.480469 323.269531 20.921875 C 323.269531 25.601562 326.75 28.960938 331.230469 28.960938 Z M 332.070312 27.761719 C 328.871094 27.761719 326.550781 23.960938 326.550781 20 C 326.550781 18.078125 326.75 16.039062 327.832031 14.679688 C 328.792969 13.441406 329.910156 13.078125 331.351562 13.078125 C 334.75 13.078125 336.992188 17.039062 336.992188 20.839844 C 336.992188 22.398438 336.832031 24.320312 336.191406 25.558594 C 335.390625 27.121094 333.871094 27.761719 332.070312 27.761719 Z M 332.070312 27.761719 "/>
<path style=" stroke:none;fill-rule:evenodd;fill:rgb(0%,0%,0%);fill-opacity:1;" d="M 347.429688 28.960938 C 350.910156 28.960938 353.3125 26.960938 353.3125 24.078125 C 353.3125 21.601562 351.792969 20.359375 348.710938 18.601562 C 346.550781 17.359375 345.949219 16.558594 345.949219 15.320312 C 345.949219 13.800781 347.191406 12.960938 348.511719 12.960938 C 350.03125 12.960938 351.03125 13.921875 351.75 15.679688 C 351.832031 15.878906 352.191406 16.039062 352.511719 16.039062 C 352.710938 16.039062 352.910156 15.960938 352.910156 15.761719 C 352.910156 14.640625 352.550781 13.199219 352.152344 12.601562 C 351.632812 12.238281 350.550781 11.839844 348.949219 11.839844 C 345.351562 11.839844 343.550781 13.878906 343.550781 16.441406 C 343.550781 18.441406 344.632812 19.71875 347.351562 21.398438 C 349.75 22.878906 350.589844 23.71875 350.589844 25.160156 C 350.589844 26.71875 349.351562 27.878906 347.792969 27.878906 C 346.230469 27.878906 344.511719 26.878906 343.832031 24.238281 C 343.792969 24.039062 343.550781 23.960938 343.351562 23.960938 C 343.070312 23.960938 342.832031 24.078125 342.832031 24.320312 C 342.871094 25.238281 342.992188 26.960938 343.269531 27.519531 C 344.269531 28.441406 345.792969 28.960938 347.429688 28.960938 Z M 347.429688 28.960938 "/>
<path style=" stroke:none;fill-rule:evenodd;fill:rgb(0%,0%,0%);fill-opacity:1;" d="M 366.472656 36.800781 C 366.992188 36.800781 367.550781 36.480469 367.550781 35.921875 C 367.550781 35.839844 366.992188 35.199219 366.949219 35.121094 C 364.511719 32.28125 361.910156 23.761719 361.910156 16.960938 C 361.910156 10.160156 364.632812 4.28125 367.070312 1.441406 C 367.152344 1.359375 367.589844 0.71875 367.589844 0.640625 C 367.589844 0.28125 366.992188 0 366.710938 0 C 366.3125 0 365.871094 0.238281 365.632812 0.480469 C 362.792969 3.320312 358.589844 10.640625 358.589844 17.441406 C 358.589844 24.238281 362.949219 33.640625 365.792969 36.480469 C 365.992188 36.679688 366.230469 36.800781 366.472656 36.800781 Z M 366.472656 36.800781 "/>
<path style=" stroke:none;fill-rule:evenodd;fill:rgb(0%,0%,0%);fill-opacity:1;" d="M 374.109375 39.800781 C 374.871094 39.800781 375.429688 39.320312 375.429688 38.960938 C 375.429688 38.878906 376.070312 34.761719 377.632812 29.28125 C 384.832031 29.28125 391.191406 23.359375 391.191406 17.160156 C 391.191406 14.28125 390.230469 12.878906 388.550781 12.199219 C 388.710938 11.921875 388.75 11.679688 388.75 11.398438 C 388.75 10.519531 387.671875 9.480469 385.632812 9.480469 C 377.511719 9.480469 371.351562 15.761719 371.351562 22.320312 C 371.351562 25.480469 372.792969 28 376.152344 29.160156 C 374.871094 33 373.429688 37.078125 372.992188 38.199219 C 372.910156 38.398438 372.910156 38.601562 372.910156 38.839844 C 372.910156 39.519531 373.390625 39.800781 374.109375 39.800781 Z M 376.992188 26.398438 C 374.390625 26.039062 372.792969 24.679688 372.792969 21.320312 C 372.792969 17.160156 378.269531 12.039062 384.109375 12.039062 C 381.03125 14.679688 378.511719 21.640625 376.992188 26.398438 Z M 378.472656 26.480469 C 379.632812 22.761719 382.910156 13.519531 386.871094 13.519531 C 388.589844 13.519531 389.472656 15.640625 389.472656 17.878906 C 389.472656 22.441406 384.070312 26.480469 378.472656 26.480469 Z M 378.472656 26.480469 "/>
<path style=" stroke:none;fill-rule:evenodd;fill:rgb(0%,0%,0%);fill-opacity:1;" d="M 395.992188 36.800781 C 396.230469 36.800781 396.472656 36.679688 396.671875 36.480469 C 399.511719 33.640625 403.871094 24.238281 403.871094 17.441406 C 403.871094 10.640625 399.671875 3.320312 396.832031 0.480469 C 396.589844 0.238281 396.152344 0 395.75 0 C 395.472656 0 394.871094 0.28125 394.871094 0.640625 C 394.871094 0.71875 395.3125 1.359375 395.390625 1.441406 C 397.832031 4.28125 400.550781 10.160156 400.550781 16.960938 C 400.550781 23.761719 397.949219 32.28125 395.511719 35.121094 C 395.472656 35.199219 394.910156 35.839844 394.910156 35.921875 C 394.910156 36.480469 395.472656 36.800781 395.992188 36.800781 Z M 395.992188 36.800781 "/>
<path style=" stroke:none;fill-rule:evenodd;fill:rgb(0%,0%,0%);fill-opacity:1;" d="M 428.039062 28.71875 C 428.398438 28.71875 429.960938 28.601562 429.960938 27.761719 L 429.960938 19.679688 C 429.960938 19.558594 430 19.519531 430.121094 19.519531 L 437.519531 19.519531 C 438.28125 19.519531 438.761719 18.601562 438.761719 17.921875 C 438.761719 17.679688 438.519531 17.519531 438.238281 17.519531 L 430.039062 17.519531 C 429.960938 17.519531 429.960938 17.480469 429.960938 17.28125 L 429.960938 9.640625 C 429.960938 9.359375 429.679688 9.121094 429.398438 9.121094 C 429.160156 9.121094 427.558594 9.480469 427.558594 10.359375 L 427.558594 17.199219 C 427.558594 17.441406 427.519531 17.519531 427.28125 17.519531 L 419.71875 17.519531 C 419 17.519531 418.761719 18.679688 418.761719 19.039062 C 418.761719 19.28125 419.039062 19.519531 419.320312 19.519531 L 427.398438 19.519531 C 427.519531 19.519531 427.558594 19.601562 427.558594 19.71875 L 427.558594 28.160156 C 427.558594 28.441406 427.800781 28.71875 428.039062 28.71875 Z M 428.039062 28.71875 "/>
<path style=" stroke:none;fill-rule:evenodd;fill:rgb(0%,0%,0%);fill-opacity:1;" d="M 455.410156 28.960938 C 458.890625 28.960938 461.289062 26.960938 461.289062 24.078125 C 461.289062 21.601562 459.769531 20.359375 456.6875 18.601562 C 454.527344 17.359375 453.929688 16.558594 453.929688 15.320312 C 453.929688 13.800781 455.167969 12.960938 456.488281 12.960938 C 458.007812 12.960938 459.007812 13.921875 459.730469 15.679688 C 459.808594 15.878906 460.167969 16.039062 460.488281 16.039062 C 460.6875 16.039062 460.890625 15.960938 460.890625 15.761719 C 460.890625 14.640625 460.527344 13.199219 460.128906 12.601562 C 459.609375 12.238281 458.527344 11.839844 456.929688 11.839844 C 453.328125 11.839844 451.527344 13.878906 451.527344 16.441406 C 451.527344 18.441406 452.609375 19.71875 455.328125 21.398438 C 457.730469 22.878906 458.570312 23.71875 458.570312 25.160156 C 458.570312 26.71875 457.328125 27.878906 455.769531 27.878906 C 454.207031 27.878906 452.488281 26.878906 451.808594 24.238281 C 451.769531 24.039062 451.527344 23.960938 451.328125 23.960938 C 451.050781 23.960938 450.808594 24.078125 450.808594 24.320312 C 450.847656 25.238281 450.96875 26.960938 451.25 27.519531 C 452.25 28.441406 453.769531 28.960938 455.410156 28.960938 Z M 455.410156 28.960938 "/>
<path style=" stroke:none;fill-rule:evenodd;fill:rgb(0%,0%,0%);fill-opacity:1;" d="M 467.527344 7.761719 C 468.6875 7.761719 469.570312 6.878906 469.570312 5.761719 C 469.570312 4.601562 468.6875 3.71875 467.527344 3.71875 C 466.410156 3.71875 465.527344 4.601562 465.527344 5.761719 C 465.527344 6.878906 466.410156 7.761719 467.527344 7.761719 Z M 464.328125 28.519531 C 465.890625 28.519531 466.167969 28.320312 467.570312 28.320312 C 468.96875 28.320312 469.289062 28.519531 470.808594 28.519531 C 471.328125 28.519531 471.609375 28.398438 471.609375 28.078125 C 471.609375 27.679688 471.128906 27.558594 470.6875 27.441406 C 469.609375 27.160156 468.96875 26.839844 468.96875 25.921875 L 468.96875 16.640625 C 468.96875 14.839844 469.328125 11.878906 469.328125 11.238281 C 469.328125 11.121094 469.25 11.039062 469.089844 11.039062 C 468.929688 11.039062 468.730469 11.160156 468.527344 11.320312 C 467.847656 11.878906 466.449219 12.839844 464.328125 13.320312 C 464.089844 13.359375 463.96875 13.519531 463.96875 13.800781 C 463.96875 14.121094 464.089844 14.28125 464.367188 14.320312 C 465.730469 14.519531 466.167969 15.800781 466.167969 17.238281 L 466.167969 25.921875 C 466.167969 26.878906 465.570312 27.160156 464.449219 27.441406 C 464.007812 27.558594 463.527344 27.679688 463.527344 28.078125 C 463.527344 28.398438 463.847656 28.519531 464.328125 28.519531 Z M 464.328125 28.519531 "/>
<path style=" stroke:none;fill-rule:evenodd;fill:rgb(0%,0%,0%);fill-opacity:1;" d="M 474.128906 28.519531 C 475.730469 28.519531 475.96875 28.320312 477.367188 28.320312 C 478.769531 28.320312 479.007812 28.519531 480.609375 28.519531 C 481.128906 28.519531 481.410156 28.398438 481.410156 28.078125 C 481.410156 27.761719 481.128906 27.601562 480.488281 27.441406 C 479.6875 27.238281 478.769531 27 478.769531 25.921875 L 478.769531 16.28125 C 478.769531 15.960938 478.890625 15.558594 479.089844 15.359375 C 480.207031 14.441406 481.609375 13.761719 483.527344 13.761719 C 485.6875 13.800781 487.128906 15.199219 487.128906 17.519531 L 487.128906 25.921875 C 487.128906 27 486.207031 27.199219 485.410156 27.441406 C 484.96875 27.601562 484.488281 27.761719 484.488281 28.160156 C 484.488281 28.480469 485.007812 28.519531 485.289062 28.519531 C 486.890625 28.519531 487.167969 28.320312 488.570312 28.320312 C 489.96875 28.320312 490.167969 28.519531 491.769531 28.519531 C 492.089844 28.519531 492.570312 28.480469 492.570312 28.160156 C 492.570312 27.761719 492.089844 27.601562 491.648438 27.441406 C 490.847656 27.199219 489.929688 27 489.929688 25.921875 L 489.929688 17.398438 C 489.929688 14.28125 488.007812 11.839844 485.410156 11.839844 C 482.890625 11.839844 480.847656 12.71875 478.96875 14.519531 C 478.929688 14.480469 478.890625 14.28125 478.890625 14.039062 C 478.890625 13.28125 479.089844 11.839844 479.089844 11.480469 C 479.089844 11.320312 479.007812 11.199219 478.890625 11.199219 C 478.730469 11.199219 478.609375 11.28125 478.449219 11.398438 C 477.328125 12.238281 476.289062 12.960938 474.449219 13.441406 C 474.207031 13.480469 474.089844 13.640625 474.089844 13.921875 C 474.089844 14.238281 474.25 14.359375 474.488281 14.441406 C 475.847656 14.800781 475.96875 15.878906 475.96875 17.320312 L 475.96875 25.921875 C 475.96875 27 475.050781 27.238281 474.25 27.441406 C 473.648438 27.601562 473.328125 27.679688 473.328125 28.078125 C 473.328125 28.398438 473.648438 28.519531 474.128906 28.519531 Z M 474.128906 28.519531 "/>
<path style=" stroke:none;fill-rule:evenodd;fill:rgb(0%,0%,0%);fill-opacity:1;" d="M 505.367188 36.800781 C 505.890625 36.800781 506.449219 36.480469 506.449219 35.921875 C 506.449219 35.839844 505.890625 35.199219 505.847656 35.121094 C 503.410156 32.28125 500.808594 23.761719 500.808594 16.960938 C 500.808594 10.160156 503.527344 4.28125 505.96875 1.441406 C 506.050781 1.359375 506.488281 0.71875 506.488281 0.640625 C 506.488281 0.28125 505.890625 0 505.609375 0 C 505.207031 0 504.769531 0.238281 504.527344 0.480469 C 501.6875 3.320312 497.488281 10.640625 497.488281 17.441406 C 497.488281 24.238281 501.847656 33.640625 504.6875 36.480469 C 504.890625 36.679688 505.128906 36.800781 505.367188 36.800781 Z M 505.367188 36.800781 "/>
<path style=" stroke:none;fill-rule:evenodd;fill:rgb(0%,0%,0%);fill-opacity:1;" d="M 513.007812 39.800781 C 513.769531 39.800781 514.328125 39.320312 514.328125 38.960938 C 514.328125 38.878906 514.96875 34.761719 516.527344 29.28125 C 523.730469 29.28125 530.089844 23.359375 530.089844 17.160156 C 530.089844 14.28125 529.128906 12.878906 527.449219 12.199219 C 527.609375 11.921875 527.648438 11.679688 527.648438 11.398438 C 527.648438 10.519531 526.570312 9.480469 524.527344 9.480469 C 516.410156 9.480469 510.25 15.761719 510.25 22.320312 C 510.25 25.480469 511.6875 28 515.050781 29.160156 C 513.769531 33 512.328125 37.078125 511.890625 38.199219 C 511.808594 38.398438 511.808594 38.601562 511.808594 38.839844 C 511.808594 39.519531 512.289062 39.800781 513.007812 39.800781 Z M 515.890625 26.398438 C 513.289062 26.039062 511.6875 24.679688 511.6875 21.320312 C 511.6875 17.160156 517.167969 12.039062 523.007812 12.039062 C 519.929688 14.679688 517.410156 21.640625 515.890625 26.398438 Z M 517.367188 26.480469 C 518.527344 22.761719 521.808594 13.519531 525.769531 13.519531 C 527.488281 13.519531 528.367188 15.640625 528.367188 17.878906 C 528.367188 22.441406 522.96875 26.480469 517.367188 26.480469 Z M 517.367188 26.480469 "/>
<path style=" stroke:none;fill-rule:evenodd;fill:rgb(0%,0%,0%);fill-opacity:1;" d="M 534.890625 36.800781 C 535.128906 36.800781 535.367188 36.679688 535.570312 36.480469 C 538.410156 33.640625 542.769531 24.238281 542.769531 17.441406 C 542.769531 10.640625 538.570312 3.320312 535.730469 0.480469 C 535.488281 0.238281 535.050781 0 534.648438 0 C 534.367188 0 533.769531 0.28125 533.769531 0.640625 C 533.769531 0.71875 534.207031 1.359375 534.289062 1.441406 C 536.730469 4.28125 539.449219 10.160156 539.449219 16.960938 C 539.449219 23.761719 536.847656 32.28125 534.410156 35.121094 C 534.367188 35.199219 533.808594 35.839844 533.808594 35.921875 C 533.808594 36.480469 534.367188 36.800781 534.890625 36.800781 Z M 534.890625 36.800781 "/>
<path style=" stroke:none;fill-rule:evenodd;fill:rgb(0%,0%,0%);fill-opacity:1;" d="M 561.957031 29 C 564.394531 29 566.4375 28.121094 567.714844 26.480469 C 568.117188 25.960938 568.316406 25.558594 568.316406 25.238281 C 568.316406 24.921875 568.117188 24.679688 567.875 24.679688 C 567.753906 24.679688 567.59375 24.761719 567.476562 24.878906 C 566.195312 26.160156 565.234375 26.601562 563.675781 26.601562 C 560.277344 26.601562 557.59375 23.679688 557.59375 19.921875 C 557.59375 16 559.394531 13.320312 561.996094 13.320312 C 562.957031 13.320312 564.59375 14.320312 565.753906 15.199219 C 566.074219 15.441406 566.316406 15.640625 566.59375 15.640625 C 567.277344 15.640625 568.316406 14.679688 568.316406 14 C 568.316406 13.71875 568.15625 13.480469 567.835938 13.238281 C 566.554688 12.320312 564.996094 11.839844 563.277344 11.839844 C 558.59375 11.839844 554.835938 16 554.835938 21.199219 C 554.835938 25.640625 557.914062 29 561.957031 29 Z M 561.957031 29 "/>
<path style=" stroke:none;fill-rule:evenodd;fill:rgb(0%,0%,0%);fill-opacity:1;" d="M 579.074219 28.960938 C 585.074219 28.960938 588.117188 24.558594 588.117188 19.878906 C 588.117188 15.558594 584.515625 11.839844 579.875 11.839844 C 574.957031 11.839844 571.117188 16.480469 571.117188 20.921875 C 571.117188 25.601562 574.59375 28.960938 579.074219 28.960938 Z M 579.914062 27.761719 C 576.714844 27.761719 574.394531 23.960938 574.394531 20 C 574.394531 18.078125 574.59375 16.039062 575.675781 14.679688 C 576.636719 13.441406 577.753906 13.078125 579.195312 13.078125 C 582.59375 13.078125 584.835938 17.039062 584.835938 20.839844 C 584.835938 22.398438 584.675781 24.320312 584.035156 25.558594 C 583.234375 27.121094 581.714844 27.761719 579.914062 27.761719 Z M 579.914062 27.761719 "/>
<path style=" stroke:none;fill-rule:evenodd;fill:rgb(0%,0%,0%);fill-opacity:1;" d="M 595.277344 28.960938 C 598.753906 28.960938 601.15625 26.960938 601.15625 24.078125 C 601.15625 21.601562 599.636719 20.359375 596.554688 18.601562 C 594.394531 17.359375 593.796875 16.558594 593.796875 15.320312 C 593.796875 13.800781 595.035156 12.960938 596.355469 12.960938 C 597.875 12.960938 598.875 13.921875 599.59375 15.679688 C 599.675781 15.878906 600.035156 16.039062 600.355469 16.039062 C 600.554688 16.039062 600.753906 15.960938 600.753906 15.761719 C 600.753906 14.640625 600.394531 13.199219 599.996094 12.601562 C 599.476562 12.238281 598.394531 11.839844 596.796875 11.839844 C 593.195312 11.839844 591.394531 13.878906 591.394531 16.441406 C 591.394531 18.441406 592.476562 19.71875 595.195312 21.398438 C 597.59375 22.878906 598.4375 23.71875 598.4375 25.160156 C 598.4375 26.71875 597.195312 27.878906 595.636719 27.878906 C 594.074219 27.878906 592.355469 26.878906 591.675781 24.238281 C 591.636719 24.039062 591.394531 23.960938 591.195312 23.960938 C 590.914062 23.960938 590.675781 24.078125 590.675781 24.320312 C 590.714844 25.238281 590.835938 26.960938 591.117188 27.519531 C 592.117188 28.441406 593.636719 28.960938 595.277344 28.960938 Z M 595.277344 28.960938 "/>
<path style=" stroke:none;fill-rule:evenodd;fill:rgb(0%,0%,0%);fill-opacity:1;" d="M 614.316406 36.800781 C 614.835938 36.800781 615.394531 36.480469 615.394531 35.921875 C 615.394531 35.839844 614.835938 35.199219 614.796875 35.121094 C 612.355469 32.28125 609.753906 23.761719 609.753906 16.960938 C 609.753906 10.160156 612.476562 4.28125 614.914062 1.441406 C 614.996094 1.359375 615.4375 0.71875 615.4375 0.640625 C 615.4375 0.28125 614.835938 0 614.554688 0 C 614.15625 0 613.714844 0.238281 613.476562 0.480469 C 610.636719 3.320312 606.4375 10.640625 606.4375 17.441406 C 606.4375 24.238281 610.796875 33.640625 613.636719 36.480469 C 613.835938 36.679688 614.074219 36.800781 614.316406 36.800781 Z M 614.316406 36.800781 "/>
<path style=" stroke:none;fill-rule:evenodd;fill:rgb(0%,0%,0%);fill-opacity:1;" d="M 622.554688 28.960938 C 628.035156 28.960938 635.195312 15.078125 635.195312 7.519531 C 635.195312 2.960938 634.195312 0.519531 631.753906 0.519531 C 625.914062 0.519531 619.515625 14.558594 619.515625 22.800781 C 619.515625 25.761719 620.957031 28.960938 622.554688 28.960938 Z M 623.957031 12.921875 C 623.59375 12.921875 623.59375 12.679688 623.714844 12.398438 C 626.796875 5.71875 629.355469 3.558594 630.996094 3.558594 C 633.074219 3.558594 633.835938 4.480469 633.835938 6.28125 C 633.835938 7.519531 633.234375 10.398438 632.59375 12.398438 C 632.515625 12.679688 632.234375 12.921875 631.957031 12.921875 Z M 623.59375 25.71875 C 621.394531 25.71875 620.714844 24.71875 620.714844 23.121094 C 620.714844 20.800781 621.753906 17.441406 622.476562 15.441406 C 622.59375 15.160156 622.796875 14.839844 623.117188 14.839844 L 631.195312 14.878906 C 631.675781 14.878906 631.714844 15.039062 631.515625 15.480469 C 629.554688 20.480469 626.234375 25.71875 623.59375 25.71875 Z M 623.59375 25.71875 "/>
<path style=" stroke:none;fill-rule:evenodd;fill:rgb(0%,0%,0%);fill-opacity:1;" d="M 638.996094 36.800781 C 639.234375 36.800781 639.476562 36.679688 639.675781 36.480469 C 642.515625 33.640625 646.875 24.238281 646.875 17.441406 C 646.875 10.640625 642.675781 3.320312 639.835938 0.480469 C 639.59375 0.238281 639.15625 0 638.753906 0 C 638.476562 0 637.875 0.28125 637.875 0.640625 C 637.875 0.71875 638.316406 1.359375 638.394531 1.441406 C 640.835938 4.28125 643.554688 10.160156 643.554688 16.960938 C 643.554688 23.761719 640.957031 32.28125 638.515625 35.121094 C 638.476562 35.199219 637.914062 35.839844 637.914062 35.921875 C 637.914062 36.480469 638.476562 36.800781 638.996094 36.800781 Z M 638.996094 36.800781 "/>
</g>
</svg>
