<?xml version="1.0" encoding="UTF-8"?>
<svg xmlns="http://www.w3.org/2000/svg" xmlns:xlink="http://www.w3.org/1999/xlink" width="269.911121pt" height="81.632004pt" viewBox="0 0 269.911121 81.632004" version="1.1">
<g id="surface1">
<path style=" stroke:none;fill-rule:evenodd;fill:rgb(0%,0%,0%);fill-opacity:1;" d="M 5 53.832031 C 7.601562 53.832031 9.800781 52.390625 11.398438 49.792969 C 11.480469 49.671875 11.480469 49.550781 11.480469 49.472656 C 11.480469 49.230469 11.320312 49.070312 11.078125 49.070312 C 10.878906 49.070312 10.640625 49.191406 10.359375 49.511719 C 9.480469 50.472656 8.199219 51.671875 6.28125 51.671875 C 4.878906 51.671875 4.160156 50.632812 4.160156 48.753906 C 4.160156 47.511719 4.601562 46.03125 5 44.871094 C 5.121094 44.550781 5.28125 44.550781 5.601562 44.472656 C 10.039062 43.632812 14.71875 42.230469 14.71875 38.871094 C 14.71875 37.511719 13.640625 36.671875 11.761719 36.671875 C 6.078125 36.671875 1.320312 44.3125 1.320312 49.671875 C 1.320312 51.550781 3.28125 53.832031 5 53.832031 Z M 5.878906 43.550781 C 5.679688 43.550781 5.601562 43.550781 5.601562 43.3125 C 5.601562 42.113281 9.121094 37.671875 11.320312 37.671875 C 12 37.671875 12.398438 38.273438 12.398438 38.953125 C 12.398438 42.152344 7.078125 43.550781 5.878906 43.550781 Z M 5.878906 43.550781 "/>
<path style=" stroke:none;fill-rule:evenodd;fill:rgb(0%,0%,0%);fill-opacity:1;" d="M 31.054688 40.671875 L 47.851562 40.671875 C 48.492188 40.671875 49.132812 39.671875 49.132812 39.113281 C 49.132812 38.871094 48.8125 38.671875 48.574219 38.671875 L 31.453125 38.671875 C 30.734375 38.671875 30.492188 39.832031 30.492188 40.191406 C 30.492188 40.433594 30.773438 40.671875 31.054688 40.671875 Z M 31.054688 47.511719 L 47.851562 47.511719 C 48.492188 47.511719 49.132812 46.671875 49.132812 45.953125 C 49.132812 45.710938 48.8125 45.511719 48.574219 45.511719 L 31.453125 45.511719 C 30.734375 45.511719 30.492188 46.671875 30.492188 47.03125 C 30.492188 47.273438 30.773438 47.511719 31.054688 47.511719 Z M 31.054688 47.511719 "/>
<path style=" stroke:none;fill-rule:evenodd;fill:rgb(0%,0%,0%);fill-opacity:1;" d="M 71.582031 53.351562 C 73.140625 53.351562 73.421875 53.152344 74.820312 53.152344 C 76.21875 53.152344 76.5 53.351562 78.0625 53.351562 C 78.339844 53.351562 78.859375 53.3125 78.859375 52.992188 C 78.859375 52.59375 78.378906 52.433594 77.941406 52.273438 C 77.140625 52.03125 76.21875 51.832031 76.21875 50.753906 L 76.21875 30.753906 C 76.21875 27.152344 76.5 25.792969 76.5 25.3125 C 76.5 25.191406 76.421875 25.03125 76.300781 25.03125 C 76.21875 25.03125 76.140625 25.070312 76.0625 25.113281 C 74.78125 25.59375 73.582031 26.191406 71.539062 26.671875 C 71.378906 26.710938 71.261719 26.910156 71.261719 27.152344 C 71.261719 27.390625 71.378906 27.632812 71.582031 27.671875 C 72.902344 27.953125 73.421875 29.03125 73.421875 30.59375 L 73.421875 50.753906 C 73.421875 51.832031 72.5 52.03125 71.699219 52.273438 C 71.261719 52.433594 70.78125 52.59375 70.78125 52.992188 C 70.78125 53.3125 71.300781 53.351562 71.582031 53.351562 Z M 71.582031 53.351562 "/>
<path style=" stroke:none;fill-rule:evenodd;fill:rgb(0%,0%,0%);fill-opacity:1;" d="M 84.582031 32.59375 C 85.742188 32.59375 86.621094 31.710938 86.621094 30.59375 C 86.621094 29.433594 85.742188 28.550781 84.582031 28.550781 C 83.460938 28.550781 82.582031 29.433594 82.582031 30.59375 C 82.582031 31.710938 83.460938 32.59375 84.582031 32.59375 Z M 81.378906 53.351562 C 82.941406 53.351562 83.21875 53.152344 84.621094 53.152344 C 86.019531 53.152344 86.339844 53.351562 87.859375 53.351562 C 88.378906 53.351562 88.660156 53.230469 88.660156 52.910156 C 88.660156 52.511719 88.179688 52.390625 87.742188 52.273438 C 86.660156 51.992188 86.019531 51.671875 86.019531 50.753906 L 86.019531 41.472656 C 86.019531 39.671875 86.378906 36.710938 86.378906 36.070312 C 86.378906 35.953125 86.300781 35.871094 86.140625 35.871094 C 85.980469 35.871094 85.78125 35.992188 85.582031 36.152344 C 84.902344 36.710938 83.5 37.671875 81.378906 38.152344 C 81.140625 38.191406 81.019531 38.351562 81.019531 38.632812 C 81.019531 38.953125 81.140625 39.113281 81.421875 39.152344 C 82.78125 39.351562 83.21875 40.632812 83.21875 42.070312 L 83.21875 50.753906 C 83.21875 51.710938 82.621094 51.992188 81.5 52.273438 C 81.0625 52.390625 80.582031 52.511719 80.582031 52.910156 C 80.582031 53.230469 80.902344 53.351562 81.378906 53.351562 Z M 81.378906 53.351562 "/>
<path style=" stroke:none;fill-rule:evenodd;fill:rgb(0%,0%,0%);fill-opacity:1;" d="M 91.179688 53.351562 C 92.78125 53.351562 93.019531 53.152344 94.421875 53.152344 C 95.820312 53.152344 96.0625 53.351562 97.660156 53.351562 C 98.140625 53.351562 98.460938 53.230469 98.460938 52.910156 C 98.460938 52.511719 97.980469 52.433594 97.539062 52.273438 C 96.742188 52.03125 95.820312 51.832031 95.820312 50.753906 L 95.820312 42.511719 C 95.820312 41.152344 96.140625 40.191406 96.902344 39.632812 C 97.902344 38.832031 99.019531 38.550781 100.378906 38.550781 C 102.101562 38.550781 103.582031 40.433594 103.582031 42.351562 L 103.582031 50.753906 C 103.582031 51.832031 102.621094 52.03125 101.820312 52.273438 C 101.378906 52.433594 100.902344 52.511719 100.902344 52.910156 C 100.902344 53.230469 101.261719 53.351562 101.699219 53.351562 C 103.300781 53.351562 103.621094 53.152344 105.019531 53.152344 C 106.421875 53.152344 106.699219 53.351562 108.300781 53.351562 C 108.820312 53.351562 109.101562 53.230469 109.101562 52.910156 C 109.101562 52.550781 108.699219 52.390625 108.179688 52.273438 C 107.378906 52.070312 106.378906 51.832031 106.378906 50.753906 L 106.378906 42.511719 C 106.378906 41.113281 106.78125 40.191406 107.5 39.632812 C 108.5 38.832031 109.621094 38.550781 110.980469 38.550781 C 112.699219 38.550781 114.179688 40.433594 114.179688 42.351562 L 114.179688 50.753906 C 114.179688 51.832031 113.300781 52.070312 112.460938 52.273438 C 111.941406 52.390625 111.539062 52.511719 111.539062 52.910156 C 111.539062 53.230469 111.859375 53.351562 112.339844 53.351562 C 113.941406 53.351562 114.261719 53.152344 115.660156 53.152344 C 117.0625 53.152344 117.21875 53.351562 118.820312 53.351562 C 119.421875 53.351562 119.621094 53.230469 119.621094 52.910156 C 119.621094 52.550781 119.21875 52.433594 118.699219 52.273438 C 117.902344 52.03125 116.980469 51.832031 116.980469 50.753906 L 116.980469 42.230469 C 116.980469 39.433594 115.582031 36.671875 112.980469 36.671875 C 110.378906 36.671875 108.179688 37.910156 106.460938 39.433594 L 106.339844 39.433594 C 105.5 37.390625 104.261719 36.671875 102.339844 36.671875 C 99.261719 36.671875 97.300781 38.191406 96.101562 39.351562 L 96.019531 39.351562 C 95.980469 39.3125 95.941406 39.113281 95.941406 38.871094 C 95.941406 38.113281 96.140625 36.671875 96.140625 36.3125 C 96.140625 36.152344 96.019531 36.03125 95.902344 36.03125 C 95.742188 36.03125 95.621094 36.152344 95.539062 36.191406 C 94.101562 37.113281 93.621094 37.753906 91.460938 38.273438 C 91.261719 38.3125 91.140625 38.433594 91.140625 38.753906 C 91.140625 39.070312 91.261719 39.230469 91.5 39.273438 C 92.859375 39.511719 93.019531 40.710938 93.019531 42.152344 L 93.019531 50.753906 C 93.019531 51.832031 92.0625 52.03125 91.300781 52.273438 C 90.78125 52.433594 90.378906 52.550781 90.378906 52.910156 C 90.378906 53.273438 90.742188 53.351562 91.179688 53.351562 Z M 91.179688 53.351562 "/>
<path style=" stroke:none;fill-rule:evenodd;fill:rgb(0%,0%,0%);fill-opacity:1;" d="M 66.007812 71.121094 C 66.316406 71.121094 66.539062 70.867188 66.875 70.253906 C 68.695312 67.089844 71.019531 63.503906 71.886719 62.441406 C 73.117188 60.929688 74.097656 60.226562 74.714844 60.257812 C 75.246094 60.285156 75.527344 60.816406 74.9375 62.355469 C 73.957031 64.847656 72.839844 67.339844 71.746094 69.832031 C 71.464844 70.449219 72.109375 71.0625 72.613281 71.0625 C 74.378906 71.0625 76.199219 69.746094 77.65625 67.984375 C 77.710938 67.898438 77.765625 67.730469 77.765625 67.59375 C 77.765625 67.453125 77.65625 67.339844 77.542969 67.339844 C 77.515625 67.339844 77.488281 67.339844 77.457031 67.367188 C 77.179688 67.648438 75.164062 69.273438 74.265625 69.273438 C 73.929688 69.273438 73.820312 68.992188 74.125 68.265625 L 76.703125 62.160156 C 77.457031 60.394531 76.5625 59.078125 75.386719 59.078125 C 73.679688 59.078125 71.128906 61.234375 68.835938 65.15625 C 68.722656 65.351562 68.46875 65.324219 68.582031 65.042969 L 70.429688 60.285156 C 70.683594 59.613281 70.09375 59.078125 69.507812 59.078125 C 68.246094 59.109375 67.265625 59.640625 66.707031 60.480469 C 66.484375 60.816406 66.089844 61.542969 66.117188 61.878906 C 66.175781 62.160156 66.398438 62.160156 66.539062 61.992188 C 67.433594 60.816406 68.050781 60.703125 68.609375 60.703125 C 68.976562 60.703125 68.890625 61.125 68.554688 61.9375 L 65.308594 69.886719 C 65.109375 70.363281 65.558594 71.121094 66.007812 71.121094 Z M 66.007812 71.121094 "/>
<path style=" stroke:none;fill-rule:evenodd;fill:rgb(0%,0%,0%);fill-opacity:1;" d="M 98.851562 68.710938 C 99.101562 68.710938 99.4375 68.570312 99.605469 68.402344 C 101.203125 66.753906 102.796875 65.15625 104.953125 64.035156 C 105.320312 63.867188 105.320312 63.839844 105.320312 63.671875 C 105.320312 63.503906 105.234375 63.449219 104.984375 63.308594 C 102.828125 62.1875 101.230469 60.59375 99.632812 58.941406 C 99.464844 58.773438 99.128906 58.632812 98.878906 58.632812 C 98.65625 58.632812 98.542969 58.773438 98.765625 59.277344 C 99.269531 60.59375 100.195312 61.90625 101.089844 62.832031 C 101.203125 62.972656 101.175781 63.027344 101.007812 63.027344 L 80.988281 63.027344 C 80.511719 63.027344 80.117188 63.476562 80.117188 63.925781 C 80.117188 64.0625 80.175781 64.316406 80.484375 64.316406 L 101.007812 64.316406 C 101.175781 64.316406 101.203125 64.398438 101.089844 64.539062 C 100.195312 65.519531 99.214844 66.808594 98.597656 68.402344 C 98.570312 68.460938 98.570312 68.488281 98.570312 68.515625 C 98.570312 68.65625 98.683594 68.710938 98.851562 68.710938 Z M 98.851562 68.710938 "/>
<path style=" stroke:none;fill-rule:evenodd;fill:rgb(0%,0%,0%);fill-opacity:1;" d="M 112.039062 68.65625 C 114.503906 68.65625 115.820312 66.386719 116.601562 64.960938 C 116.742188 64.679688 116.855469 64.652344 116.996094 64.875 C 118.339844 67.003906 119.515625 68.65625 121.78125 68.65625 C 124.667969 68.65625 126.710938 65.882812 126.710938 63.140625 C 126.710938 60.5625 124.945312 58.183594 122.371094 58.183594 C 119.90625 58.183594 118.589844 60.394531 117.808594 61.824219 C 117.695312 62.019531 117.554688 62.132812 117.414062 61.90625 C 116.070312 59.78125 114.894531 58.183594 112.625 58.183594 C 109.742188 58.183594 107.699219 60.957031 107.699219 63.699219 C 107.699219 66.277344 109.460938 68.65625 112.039062 68.65625 Z M 112.488281 66.640625 C 110.46875 66.640625 108.511719 65.324219 108.511719 63.308594 C 108.511719 61.65625 110.050781 60.144531 111.84375 60.144531 C 113.578125 60.144531 115.035156 62.074219 116.15625 63.699219 C 116.324219 63.925781 116.433594 64.09375 116.433594 64.261719 C 116.433594 64.34375 116.378906 64.457031 116.265625 64.597656 C 115.285156 65.800781 114.277344 66.640625 112.488281 66.640625 Z M 122.679688 66.753906 C 120.941406 66.753906 119.457031 64.792969 118.339844 63.167969 C 118.171875 62.945312 118.058594 62.777344 118.058594 62.609375 C 118.058594 62.523438 118.113281 62.410156 118.226562 62.273438 C 119.207031 61.066406 120.128906 60.199219 121.921875 60.199219 C 123.9375 60.199219 125.898438 61.515625 125.898438 63.53125 C 125.898438 65.183594 124.441406 66.753906 122.679688 66.753906 Z M 122.679688 66.753906 "/>
<path style=" stroke:none;fill-rule:evenodd;fill:rgb(0%,0%,0%);fill-opacity:1;" d="M 146.242188 81.632812 C 146.761719 81.632812 147.320312 81.3125 147.320312 80.753906 C 147.320312 80.671875 146.761719 80.03125 146.722656 79.953125 C 143.722656 76.550781 140.082031 60.59375 140.082031 41.792969 C 140.082031 22.992188 143.839844 9.671875 146.839844 6.273438 C 146.921875 6.191406 147.363281 5.550781 147.363281 5.472656 C 147.363281 5.113281 146.761719 4.832031 146.480469 4.832031 C 146.082031 4.832031 145.640625 5.070312 145.402344 5.3125 C 142 8.710938 136.761719 23.472656 136.761719 42.273438 C 136.761719 61.070312 142.160156 77.910156 145.5625 81.3125 C 145.761719 81.511719 146 81.632812 146.242188 81.632812 Z M 146.242188 81.632812 "/>
<path style=" stroke:none;fill-rule:evenodd;fill:rgb(0%,0%,0%);fill-opacity:1;" d="M 153.5625 53.351562 C 155.722656 53.351562 157.402344 53.152344 159.5625 53.152344 C 161.679688 53.152344 163.160156 53.351562 165.441406 53.351562 C 165.761719 53.351562 166 53.152344 166 52.910156 C 166 52.671875 165.640625 52.472656 165.320312 52.390625 C 162.042969 51.59375 161.082031 51.390625 161.082031 49.351562 L 161.082031 30.953125 C 161.082031 29.832031 161.121094 28.910156 161.242188 28.113281 C 161.28125 27.910156 161 27.753906 160.761719 27.753906 C 160.679688 27.753906 160.601562 27.753906 160.5625 27.792969 C 158.761719 29.59375 156.960938 29.910156 154.5625 30.273438 C 154 30.351562 153.5625 30.632812 153.5625 30.992188 C 153.5625 31.433594 154.082031 31.632812 154.601562 31.671875 C 156.320312 31.792969 157.960938 32.070312 157.960938 33.59375 L 157.960938 48.871094 C 157.960938 51.230469 156.601562 51.59375 153.5625 52.351562 C 153.242188 52.433594 152.960938 52.671875 152.960938 52.871094 C 152.960938 53.113281 153.160156 53.351562 153.5625 53.351562 Z M 153.5625 53.351562 "/>
<path style=" stroke:none;fill-rule:evenodd;fill:rgb(0%,0%,0%);fill-opacity:1;" d="M 189.089844 53.550781 C 189.449219 53.550781 191.011719 53.433594 191.011719 52.59375 L 191.011719 44.511719 C 191.011719 44.390625 191.050781 44.351562 191.171875 44.351562 L 198.570312 44.351562 C 199.332031 44.351562 199.808594 43.433594 199.808594 42.753906 C 199.808594 42.511719 199.570312 42.351562 199.289062 42.351562 L 191.089844 42.351562 C 191.011719 42.351562 191.011719 42.3125 191.011719 42.113281 L 191.011719 34.472656 C 191.011719 34.191406 190.730469 33.953125 190.449219 33.953125 C 190.210938 33.953125 188.609375 34.3125 188.609375 35.191406 L 188.609375 42.03125 C 188.609375 42.273438 188.570312 42.351562 188.332031 42.351562 L 180.769531 42.351562 C 180.050781 42.351562 179.808594 43.511719 179.808594 43.871094 C 179.808594 44.113281 180.089844 44.351562 180.371094 44.351562 L 188.449219 44.351562 C 188.570312 44.351562 188.609375 44.433594 188.609375 44.550781 L 188.609375 52.992188 C 188.609375 53.273438 188.851562 53.550781 189.089844 53.550781 Z M 189.089844 53.550781 "/>
<path style=" stroke:none;fill-rule:evenodd;fill:rgb(0%,0%,0%);fill-opacity:1;" d="M 219.300781 27.992188 C 221.460938 27.992188 223.140625 27.792969 225.300781 27.792969 C 227.417969 27.792969 228.898438 27.992188 231.179688 27.992188 C 231.5 27.992188 231.738281 27.792969 231.738281 27.550781 C 231.738281 27.3125 231.378906 27.113281 231.058594 27.03125 C 227.777344 26.230469 226.820312 26.03125 226.820312 23.992188 L 226.820312 5.59375 C 226.820312 4.472656 226.859375 3.550781 226.980469 2.753906 C 227.019531 2.550781 226.738281 2.390625 226.5 2.390625 C 226.417969 2.390625 226.339844 2.390625 226.300781 2.433594 C 224.5 4.230469 222.699219 4.550781 220.300781 4.910156 C 219.738281 4.992188 219.300781 5.273438 219.300781 5.632812 C 219.300781 6.070312 219.820312 6.273438 220.339844 6.3125 C 222.058594 6.433594 223.699219 6.710938 223.699219 8.230469 L 223.699219 23.511719 C 223.699219 25.871094 222.339844 26.230469 219.300781 26.992188 C 218.980469 27.070312 218.699219 27.3125 218.699219 27.511719 C 218.699219 27.753906 218.898438 27.992188 219.300781 27.992188 Z M 219.300781 27.992188 "/>
<path style=" stroke:none;fill-rule:nonzero;fill:rgb(0%,0%,0%);fill-opacity:1;" d="M 214.699219 42.230469 L 235.058594 42.230469 L 235.058594 44.230469 L 214.699219 44.230469 Z M 214.699219 42.230469 "/>
<path style=" stroke:none;fill-rule:evenodd;fill:rgb(0%,0%,0%);fill-opacity:1;" d="M 216.898438 77.792969 C 217.339844 77.792969 217.660156 77.433594 218.140625 76.550781 C 220.738281 72.03125 224.058594 66.910156 225.300781 65.390625 C 227.058594 63.230469 228.460938 62.230469 229.339844 62.273438 C 230.097656 62.3125 230.5 63.070312 229.660156 65.273438 C 228.257812 68.832031 226.660156 72.390625 225.097656 75.953125 C 224.699219 76.832031 225.617188 77.710938 226.339844 77.710938 C 228.859375 77.710938 231.460938 75.832031 233.539062 73.3125 C 233.617188 73.191406 233.699219 72.953125 233.699219 72.753906 C 233.699219 72.550781 233.539062 72.390625 233.378906 72.390625 C 233.339844 72.390625 233.300781 72.390625 233.257812 72.433594 C 232.859375 72.832031 229.980469 75.152344 228.699219 75.152344 C 228.21875 75.152344 228.058594 74.753906 228.5 73.710938 L 232.179688 64.992188 C 233.257812 62.472656 231.980469 60.59375 230.300781 60.59375 C 227.859375 60.59375 224.21875 63.671875 220.9375 69.273438 C 220.777344 69.550781 220.417969 69.511719 220.578125 69.113281 L 223.21875 62.3125 C 223.578125 61.351562 222.738281 60.59375 221.898438 60.59375 C 220.097656 60.632812 218.699219 61.390625 217.898438 62.59375 C 217.578125 63.070312 217.019531 64.113281 217.058594 64.59375 C 217.140625 64.992188 217.460938 64.992188 217.660156 64.753906 C 218.9375 63.070312 219.820312 62.910156 220.617188 62.910156 C 221.140625 62.910156 221.019531 63.511719 220.539062 64.671875 L 215.898438 76.03125 C 215.617188 76.710938 216.257812 77.792969 216.898438 77.792969 Z M 216.898438 77.792969 "/>
<path style=" stroke:none;fill-rule:evenodd;fill:rgb(0%,0%,0%);fill-opacity:1;" d="M 242.179688 81.632812 C 242.417969 81.632812 242.660156 81.511719 242.859375 81.3125 C 246.257812 77.910156 251.660156 61.070312 251.660156 42.273438 C 251.660156 23.472656 246.417969 8.710938 243.019531 5.3125 C 242.777344 5.070312 242.339844 4.832031 241.9375 4.832031 C 241.660156 4.832031 241.058594 5.113281 241.058594 5.472656 C 241.058594 5.550781 241.5 6.191406 241.578125 6.273438 C 244.578125 9.671875 248.339844 22.992188 248.339844 41.792969 C 248.339844 60.59375 244.699219 76.550781 241.699219 79.953125 C 241.660156 80.03125 241.097656 80.671875 241.097656 80.753906 C 241.097656 81.3125 241.660156 81.632812 242.179688 81.632812 Z M 242.179688 81.632812 "/>
<path style=" stroke:none;fill-rule:evenodd;fill:rgb(0%,0%,0%);fill-opacity:1;" d="M 257.199219 12.039062 C 257.507812 12.039062 257.730469 11.789062 258.066406 11.171875 C 259.886719 8.007812 262.210938 4.425781 263.078125 3.359375 C 264.3125 1.847656 265.292969 1.148438 265.90625 1.175781 C 266.4375 1.203125 266.71875 1.734375 266.132812 3.277344 C 265.152344 5.769531 264.03125 8.261719 262.9375 10.753906 C 262.660156 11.367188 263.304688 11.984375 263.808594 11.984375 C 265.570312 11.984375 267.390625 10.667969 268.847656 8.902344 C 268.902344 8.820312 268.960938 8.652344 268.960938 8.511719 C 268.960938 8.371094 268.847656 8.261719 268.734375 8.261719 C 268.707031 8.261719 268.679688 8.261719 268.652344 8.289062 C 268.371094 8.566406 266.355469 10.191406 265.460938 10.191406 C 265.125 10.191406 265.011719 9.910156 265.320312 9.183594 L 267.894531 3.078125 C 268.652344 1.316406 267.753906 0 266.578125 0 C 264.871094 0 262.324219 2.15625 260.027344 6.074219 C 259.914062 6.273438 259.664062 6.242188 259.773438 5.964844 L 261.625 1.203125 C 261.875 0.53125 261.289062 0 260.699219 0 C 259.4375 0.0273438 258.460938 0.558594 257.898438 1.398438 C 257.675781 1.734375 257.28125 2.464844 257.3125 2.800781 C 257.367188 3.078125 257.589844 3.078125 257.730469 2.910156 C 258.628906 1.734375 259.242188 1.625 259.804688 1.625 C 260.167969 1.625 260.082031 2.042969 259.746094 2.855469 L 256.5 10.808594 C 256.304688 11.285156 256.75 12.039062 257.199219 12.039062 Z M 257.199219 12.039062 "/>
</g>
</svg>
