<?xml version="1.0" encoding="UTF-8"?>
<svg xmlns="http://www.w3.org/2000/svg" xmlns:xlink="http://www.w3.org/1999/xlink" width="107.964448pt" height="32.652802pt" viewBox="0 0 107.964448 32.652802" version="1.1">
<g id="surface1">
<path style=" stroke:none;fill-rule:evenodd;fill:rgb(0%,0%,0%);fill-opacity:1;" d="M 2 21.53125 C 3.039062 21.53125 3.921875 20.957031 4.558594 19.917969 C 4.59375 19.867188 4.59375 19.820312 4.59375 19.789062 C 4.59375 19.691406 4.527344 19.628906 4.433594 19.628906 C 4.351562 19.628906 4.257812 19.675781 4.144531 19.804688 C 3.792969 20.1875 3.28125 20.667969 2.511719 20.667969 C 1.953125 20.667969 1.664062 20.253906 1.664062 19.5 C 1.664062 19.003906 1.839844 18.414062 2 17.949219 C 2.046875 17.820312 2.113281 17.820312 2.238281 17.789062 C 4.015625 17.453125 5.886719 16.894531 5.886719 15.546875 C 5.886719 15.003906 5.457031 14.667969 4.703125 14.667969 C 2.433594 14.667969 0.527344 17.726562 0.527344 19.867188 C 0.527344 20.621094 1.3125 21.53125 2 21.53125 Z M 2.351562 17.421875 C 2.273438 17.421875 2.238281 17.421875 2.238281 17.324219 C 2.238281 16.84375 3.648438 15.070312 4.527344 15.070312 C 4.800781 15.070312 4.960938 15.308594 4.960938 15.582031 C 4.960938 16.859375 2.832031 17.421875 2.351562 17.421875 Z M 2.351562 17.421875 "/>
<path style=" stroke:none;fill-rule:evenodd;fill:rgb(0%,0%,0%);fill-opacity:1;" d="M 12.421875 16.269531 L 19.140625 16.269531 C 19.398438 16.269531 19.652344 15.867188 19.652344 15.644531 C 19.652344 15.546875 19.523438 15.46875 19.429688 15.46875 L 12.582031 15.46875 C 12.292969 15.46875 12.199219 15.933594 12.199219 16.078125 C 12.199219 16.171875 12.308594 16.269531 12.421875 16.269531 Z M 12.421875 19.003906 L 19.140625 19.003906 C 19.398438 19.003906 19.652344 18.667969 19.652344 18.378906 C 19.652344 18.285156 19.523438 18.203125 19.429688 18.203125 L 12.582031 18.203125 C 12.292969 18.203125 12.199219 18.667969 12.199219 18.8125 C 12.199219 18.910156 12.308594 19.003906 12.421875 19.003906 Z M 12.421875 19.003906 "/>
<path style=" stroke:none;fill-rule:evenodd;fill:rgb(0%,0%,0%);fill-opacity:1;" d="M 28.632812 21.339844 C 29.257812 21.339844 29.367188 21.261719 29.929688 21.261719 C 30.488281 21.261719 30.601562 21.339844 31.222656 21.339844 C 31.335938 21.339844 31.542969 21.324219 31.542969 21.195312 C 31.542969 21.035156 31.351562 20.972656 31.175781 20.910156 C 30.855469 20.8125 30.488281 20.734375 30.488281 20.300781 L 30.488281 12.300781 C 30.488281 10.859375 30.601562 10.316406 30.601562 10.125 C 30.601562 10.078125 30.566406 10.011719 30.519531 10.011719 C 30.488281 10.011719 30.457031 10.027344 30.425781 10.042969 C 29.914062 10.238281 29.433594 10.476562 28.617188 10.667969 C 28.550781 10.683594 28.503906 10.765625 28.503906 10.859375 C 28.503906 10.957031 28.550781 11.054688 28.632812 11.070312 C 29.160156 11.179688 29.367188 11.613281 29.367188 12.238281 L 29.367188 20.300781 C 29.367188 20.734375 29 20.8125 28.679688 20.910156 C 28.503906 20.972656 28.3125 21.035156 28.3125 21.195312 C 28.3125 21.324219 28.519531 21.339844 28.632812 21.339844 Z M 28.632812 21.339844 "/>
<path style=" stroke:none;fill-rule:evenodd;fill:rgb(0%,0%,0%);fill-opacity:1;" d="M 33.832031 13.035156 C 34.296875 13.035156 34.648438 12.683594 34.648438 12.238281 C 34.648438 11.773438 34.296875 11.421875 33.832031 11.421875 C 33.382812 11.421875 33.03125 11.773438 33.03125 12.238281 C 33.03125 12.683594 33.382812 13.035156 33.832031 13.035156 Z M 32.550781 21.339844 C 33.175781 21.339844 33.289062 21.261719 33.847656 21.261719 C 34.410156 21.261719 34.535156 21.339844 35.144531 21.339844 C 35.351562 21.339844 35.464844 21.292969 35.464844 21.164062 C 35.464844 21.003906 35.273438 20.957031 35.097656 20.910156 C 34.664062 20.796875 34.410156 20.667969 34.410156 20.300781 L 34.410156 16.589844 C 34.410156 15.867188 34.550781 14.683594 34.550781 14.429688 C 34.550781 14.378906 34.519531 14.347656 34.457031 14.347656 C 34.390625 14.347656 34.3125 14.398438 34.230469 14.460938 C 33.960938 14.683594 33.398438 15.070312 32.550781 15.261719 C 32.457031 15.277344 32.410156 15.339844 32.410156 15.453125 C 32.410156 15.582031 32.457031 15.644531 32.566406 15.660156 C 33.113281 15.742188 33.289062 16.253906 33.289062 16.828125 L 33.289062 20.300781 C 33.289062 20.683594 33.046875 20.796875 32.601562 20.910156 C 32.425781 20.957031 32.230469 21.003906 32.230469 21.164062 C 32.230469 21.292969 32.359375 21.339844 32.550781 21.339844 Z M 32.550781 21.339844 "/>
<path style=" stroke:none;fill-rule:evenodd;fill:rgb(0%,0%,0%);fill-opacity:1;" d="M 36.472656 21.339844 C 37.113281 21.339844 37.207031 21.261719 37.769531 21.261719 C 38.328125 21.261719 38.425781 21.339844 39.0625 21.339844 C 39.257812 21.339844 39.382812 21.292969 39.382812 21.164062 C 39.382812 21.003906 39.191406 20.972656 39.015625 20.910156 C 38.695312 20.8125 38.328125 20.734375 38.328125 20.300781 L 38.328125 17.003906 C 38.328125 16.460938 38.457031 16.078125 38.761719 15.851562 C 39.160156 15.53125 39.609375 15.421875 40.152344 15.421875 C 40.839844 15.421875 41.433594 16.171875 41.433594 16.941406 L 41.433594 20.300781 C 41.433594 20.734375 41.046875 20.8125 40.726562 20.910156 C 40.550781 20.972656 40.359375 21.003906 40.359375 21.164062 C 40.359375 21.292969 40.503906 21.339844 40.679688 21.339844 C 41.320312 21.339844 41.449219 21.261719 42.007812 21.261719 C 42.566406 21.261719 42.679688 21.339844 43.320312 21.339844 C 43.527344 21.339844 43.640625 21.292969 43.640625 21.164062 C 43.640625 21.019531 43.480469 20.957031 43.273438 20.910156 C 42.953125 20.828125 42.550781 20.734375 42.550781 20.300781 L 42.550781 17.003906 C 42.550781 16.445312 42.710938 16.078125 43 15.851562 C 43.398438 15.53125 43.847656 15.421875 44.390625 15.421875 C 45.082031 15.421875 45.671875 16.171875 45.671875 16.941406 L 45.671875 20.300781 C 45.671875 20.734375 45.320312 20.828125 44.984375 20.910156 C 44.777344 20.957031 44.617188 21.003906 44.617188 21.164062 C 44.617188 21.292969 44.746094 21.339844 44.9375 21.339844 C 45.578125 21.339844 45.703125 21.261719 46.265625 21.261719 C 46.824219 21.261719 46.886719 21.339844 47.527344 21.339844 C 47.769531 21.339844 47.847656 21.292969 47.847656 21.164062 C 47.847656 21.019531 47.6875 20.972656 47.480469 20.910156 C 47.160156 20.8125 46.792969 20.734375 46.792969 20.300781 L 46.792969 16.894531 C 46.792969 15.773438 46.230469 14.667969 45.191406 14.667969 C 44.152344 14.667969 43.273438 15.164062 42.585938 15.773438 L 42.535156 15.773438 C 42.199219 14.957031 41.703125 14.667969 40.9375 14.667969 C 39.703125 14.667969 38.921875 15.277344 38.441406 15.742188 L 38.410156 15.742188 C 38.390625 15.726562 38.375 15.644531 38.375 15.546875 C 38.375 15.246094 38.457031 14.667969 38.457031 14.523438 C 38.457031 14.460938 38.410156 14.414062 38.359375 14.414062 C 38.296875 14.414062 38.25 14.460938 38.214844 14.476562 C 37.640625 14.84375 37.449219 15.101562 36.585938 15.308594 C 36.503906 15.324219 36.457031 15.371094 36.457031 15.5 C 36.457031 15.628906 36.503906 15.691406 36.601562 15.707031 C 37.144531 15.804688 37.207031 16.285156 37.207031 16.859375 L 37.207031 20.300781 C 37.207031 20.734375 36.824219 20.8125 36.519531 20.910156 C 36.3125 20.972656 36.152344 21.019531 36.152344 21.164062 C 36.152344 21.308594 36.296875 21.339844 36.472656 21.339844 Z M 36.472656 21.339844 "/>
<path style=" stroke:none;fill-rule:evenodd;fill:rgb(0%,0%,0%);fill-opacity:1;" d="M 26.402344 28.449219 C 26.527344 28.449219 26.617188 28.347656 26.75 28.101562 C 27.476562 26.835938 28.40625 25.402344 28.753906 24.976562 C 29.246094 24.371094 29.640625 24.089844 29.886719 24.101562 C 30.097656 24.113281 30.210938 24.328125 29.976562 24.941406 C 29.582031 25.9375 29.136719 26.9375 28.699219 27.933594 C 28.585938 28.179688 28.84375 28.425781 29.046875 28.425781 C 29.75 28.425781 30.480469 27.898438 31.0625 27.195312 C 31.085938 27.160156 31.105469 27.09375 31.105469 27.035156 C 31.105469 26.980469 31.0625 26.9375 31.015625 26.9375 C 31.007812 26.9375 30.996094 26.9375 30.984375 26.945312 C 30.871094 27.058594 30.066406 27.707031 29.707031 27.707031 C 29.574219 27.707031 29.527344 27.597656 29.652344 27.304688 L 30.679688 24.863281 C 30.984375 24.160156 30.625 23.632812 30.15625 23.632812 C 29.472656 23.632812 28.453125 24.496094 27.535156 26.0625 C 27.488281 26.140625 27.386719 26.128906 27.433594 26.019531 L 28.171875 24.113281 C 28.273438 23.84375 28.039062 23.632812 27.800781 23.632812 C 27.296875 23.644531 26.90625 23.855469 26.683594 24.191406 C 26.59375 24.328125 26.4375 24.617188 26.449219 24.753906 C 26.46875 24.863281 26.558594 24.863281 26.617188 24.796875 C 26.972656 24.328125 27.21875 24.28125 27.445312 24.28125 C 27.589844 24.28125 27.554688 24.449219 27.421875 24.773438 L 26.121094 27.957031 C 26.042969 28.144531 26.222656 28.449219 26.402344 28.449219 Z M 26.402344 28.449219 "/>
<path style=" stroke:none;fill-rule:evenodd;fill:rgb(0%,0%,0%);fill-opacity:1;" d="M 39.539062 27.484375 C 39.640625 27.484375 39.777344 27.429688 39.84375 27.363281 C 40.480469 26.699219 41.121094 26.0625 41.980469 25.613281 C 42.128906 25.546875 42.128906 25.535156 42.128906 25.46875 C 42.128906 25.402344 42.09375 25.378906 41.992188 25.324219 C 41.128906 24.875 40.492188 24.238281 39.855469 23.574219 C 39.785156 23.507812 39.652344 23.453125 39.550781 23.453125 C 39.460938 23.453125 39.417969 23.507812 39.507812 23.710938 C 39.707031 24.238281 40.078125 24.761719 40.4375 25.132812 C 40.480469 25.1875 40.46875 25.210938 40.402344 25.210938 L 32.394531 25.210938 C 32.203125 25.210938 32.046875 25.390625 32.046875 25.570312 C 32.046875 25.625 32.070312 25.726562 32.191406 25.726562 L 40.402344 25.726562 C 40.46875 25.726562 40.480469 25.761719 40.4375 25.816406 C 40.078125 26.207031 39.6875 26.722656 39.441406 27.363281 C 39.429688 27.382812 39.429688 27.394531 39.429688 27.40625 C 39.429688 27.460938 39.472656 27.484375 39.539062 27.484375 Z M 39.539062 27.484375 "/>
<path style=" stroke:none;fill-rule:evenodd;fill:rgb(0%,0%,0%);fill-opacity:1;" d="M 44.816406 27.460938 C 45.800781 27.460938 46.328125 26.554688 46.640625 25.984375 C 46.695312 25.871094 46.742188 25.859375 46.796875 25.949219 C 47.335938 26.800781 47.804688 27.460938 48.714844 27.460938 C 49.867188 27.460938 50.683594 26.355469 50.683594 25.257812 C 50.683594 24.226562 49.980469 23.273438 48.949219 23.273438 C 47.960938 23.273438 47.4375 24.160156 47.121094 24.730469 C 47.078125 24.808594 47.023438 24.851562 46.964844 24.761719 C 46.429688 23.910156 45.957031 23.273438 45.050781 23.273438 C 43.898438 23.273438 43.078125 24.382812 43.078125 25.480469 C 43.078125 26.511719 43.785156 27.460938 44.816406 27.460938 Z M 44.996094 26.65625 C 44.1875 26.65625 43.402344 26.128906 43.402344 25.324219 C 43.402344 24.664062 44.019531 24.058594 44.738281 24.058594 C 45.429688 24.058594 46.015625 24.832031 46.460938 25.480469 C 46.527344 25.570312 46.574219 25.636719 46.574219 25.703125 C 46.574219 25.738281 46.550781 25.78125 46.507812 25.839844 C 46.113281 26.320312 45.710938 26.65625 44.996094 26.65625 Z M 49.070312 26.699219 C 48.378906 26.699219 47.785156 25.917969 47.335938 25.265625 C 47.269531 25.175781 47.222656 25.109375 47.222656 25.042969 C 47.222656 25.007812 47.246094 24.964844 47.289062 24.910156 C 47.683594 24.425781 48.050781 24.078125 48.769531 24.078125 C 49.574219 24.078125 50.359375 24.605469 50.359375 25.414062 C 50.359375 26.074219 49.777344 26.699219 49.070312 26.699219 Z M 49.070312 26.699219 "/>
<path style=" stroke:none;fill-rule:evenodd;fill:rgb(0%,0%,0%);fill-opacity:1;" d="M 58.496094 32.652344 C 58.703125 32.652344 58.929688 32.523438 58.929688 32.300781 C 58.929688 32.269531 58.703125 32.011719 58.6875 31.980469 C 57.488281 30.621094 56.03125 24.238281 56.03125 16.71875 C 56.03125 9.195312 57.535156 3.867188 58.738281 2.507812 C 58.769531 2.476562 58.945312 2.222656 58.945312 2.1875 C 58.945312 2.042969 58.703125 1.933594 58.59375 1.933594 C 58.433594 1.933594 58.257812 2.027344 58.160156 2.125 C 56.800781 3.484375 54.703125 9.390625 54.703125 16.910156 C 54.703125 24.429688 56.863281 31.164062 58.222656 32.523438 C 58.304688 32.605469 58.402344 32.652344 58.496094 32.652344 Z M 58.496094 32.652344 "/>
<path style=" stroke:none;fill-rule:evenodd;fill:rgb(0%,0%,0%);fill-opacity:1;" d="M 61.425781 21.339844 C 62.289062 21.339844 62.960938 21.261719 63.824219 21.261719 C 64.671875 21.261719 65.265625 21.339844 66.175781 21.339844 C 66.304688 21.339844 66.402344 21.261719 66.402344 21.164062 C 66.402344 21.070312 66.257812 20.988281 66.128906 20.957031 C 64.816406 20.636719 64.433594 20.558594 64.433594 19.742188 L 64.433594 12.378906 C 64.433594 11.933594 64.449219 11.566406 64.496094 11.246094 C 64.511719 11.164062 64.402344 11.101562 64.304688 11.101562 C 64.273438 11.101562 64.242188 11.101562 64.222656 11.117188 C 63.503906 11.835938 62.785156 11.964844 61.824219 12.109375 C 61.601562 12.140625 61.425781 12.253906 61.425781 12.398438 C 61.425781 12.574219 61.632812 12.652344 61.839844 12.667969 C 62.527344 12.71875 63.183594 12.828125 63.183594 13.4375 L 63.183594 19.546875 C 63.183594 20.492188 62.640625 20.636719 61.425781 20.941406 C 61.296875 20.972656 61.183594 21.070312 61.183594 21.148438 C 61.183594 21.246094 61.265625 21.339844 61.425781 21.339844 Z M 61.425781 21.339844 "/>
<path style=" stroke:none;fill-rule:evenodd;fill:rgb(0%,0%,0%);fill-opacity:1;" d="M 75.636719 21.421875 C 75.78125 21.421875 76.402344 21.371094 76.402344 21.035156 L 76.402344 17.804688 C 76.402344 17.757812 76.421875 17.742188 76.46875 17.742188 L 79.429688 17.742188 C 79.730469 17.742188 79.925781 17.371094 79.925781 17.101562 C 79.925781 17.003906 79.828125 16.941406 79.714844 16.941406 L 76.4375 16.941406 C 76.402344 16.941406 76.402344 16.925781 76.402344 16.84375 L 76.402344 13.789062 C 76.402344 13.675781 76.292969 13.582031 76.179688 13.582031 C 76.085938 13.582031 75.445312 13.726562 75.445312 14.078125 L 75.445312 16.8125 C 75.445312 16.910156 75.429688 16.941406 75.332031 16.941406 L 72.308594 16.941406 C 72.019531 16.941406 71.925781 17.40625 71.925781 17.546875 C 71.925781 17.644531 72.035156 17.742188 72.148438 17.742188 L 75.378906 17.742188 C 75.429688 17.742188 75.445312 17.773438 75.445312 17.820312 L 75.445312 21.195312 C 75.445312 21.308594 75.539062 21.421875 75.636719 21.421875 Z M 75.636719 21.421875 "/>
<path style=" stroke:none;fill-rule:evenodd;fill:rgb(0%,0%,0%);fill-opacity:1;" d="M 87.71875 11.195312 C 88.582031 11.195312 89.253906 11.117188 90.121094 11.117188 C 90.96875 11.117188 91.558594 11.195312 92.472656 11.195312 C 92.601562 11.195312 92.695312 11.117188 92.695312 11.019531 C 92.695312 10.925781 92.550781 10.84375 92.421875 10.8125 C 91.113281 10.492188 90.726562 10.414062 90.726562 9.597656 L 90.726562 2.238281 C 90.726562 1.789062 90.742188 1.421875 90.792969 1.101562 C 90.808594 1.019531 90.695312 0.957031 90.601562 0.957031 C 90.566406 0.957031 90.535156 0.957031 90.519531 0.972656 C 89.800781 1.691406 89.078125 1.820312 88.121094 1.964844 C 87.894531 1.996094 87.71875 2.109375 87.71875 2.253906 C 87.71875 2.429688 87.925781 2.507812 88.136719 2.523438 C 88.824219 2.574219 89.480469 2.683594 89.480469 3.292969 L 89.480469 9.40625 C 89.480469 10.347656 88.9375 10.492188 87.71875 10.796875 C 87.589844 10.828125 87.480469 10.925781 87.480469 11.003906 C 87.480469 11.101562 87.558594 11.195312 87.71875 11.195312 Z M 87.71875 11.195312 "/>
<path style=" stroke:none;fill-rule:nonzero;fill:rgb(0%,0%,0%);fill-opacity:1;" d="M 85.878906 16.894531 L 94.023438 16.894531 L 94.023438 17.695312 L 85.878906 17.695312 Z M 85.878906 16.894531 "/>
<path style=" stroke:none;fill-rule:evenodd;fill:rgb(0%,0%,0%);fill-opacity:1;" d="M 86.757812 31.117188 C 86.9375 31.117188 87.0625 30.972656 87.253906 30.621094 C 88.296875 28.8125 89.625 26.765625 90.121094 26.15625 C 90.824219 25.292969 91.382812 24.894531 91.734375 24.910156 C 92.039062 24.925781 92.199219 25.230469 91.863281 26.109375 C 91.304688 27.53125 90.664062 28.957031 90.039062 30.378906 C 89.878906 30.734375 90.246094 31.085938 90.535156 31.085938 C 91.542969 31.085938 92.582031 30.332031 93.414062 29.324219 C 93.449219 29.277344 93.480469 29.179688 93.480469 29.101562 C 93.480469 29.019531 93.414062 28.957031 93.351562 28.957031 C 93.335938 28.957031 93.320312 28.957031 93.304688 28.972656 C 93.144531 29.132812 91.992188 30.0625 91.480469 30.0625 C 91.289062 30.0625 91.222656 29.902344 91.398438 29.484375 L 92.871094 25.996094 C 93.304688 24.988281 92.792969 24.238281 92.121094 24.238281 C 91.144531 24.238281 89.6875 25.46875 88.375 27.707031 C 88.3125 27.820312 88.167969 27.804688 88.230469 27.644531 L 89.289062 24.925781 C 89.433594 24.539062 89.09375 24.238281 88.757812 24.238281 C 88.039062 24.253906 87.480469 24.558594 87.160156 25.035156 C 87.03125 25.230469 86.808594 25.644531 86.824219 25.835938 C 86.855469 25.996094 86.984375 25.996094 87.0625 25.902344 C 87.574219 25.230469 87.925781 25.164062 88.246094 25.164062 C 88.457031 25.164062 88.40625 25.40625 88.214844 25.867188 L 86.359375 30.414062 C 86.246094 30.683594 86.503906 31.117188 86.757812 31.117188 Z M 86.757812 31.117188 "/>
<path style=" stroke:none;fill-rule:evenodd;fill:rgb(0%,0%,0%);fill-opacity:1;" d="M 96.871094 32.652344 C 96.96875 32.652344 97.0625 32.605469 97.144531 32.523438 C 98.503906 31.164062 100.664062 24.429688 100.664062 16.910156 C 100.664062 9.390625 98.566406 3.484375 97.207031 2.125 C 97.113281 2.027344 96.9375 1.933594 96.777344 1.933594 C 96.664062 1.933594 96.421875 2.042969 96.421875 2.1875 C 96.421875 2.222656 96.601562 2.476562 96.632812 2.507812 C 97.832031 3.867188 99.335938 9.195312 99.335938 16.71875 C 99.335938 24.238281 97.878906 30.621094 96.679688 31.980469 C 96.664062 32.011719 96.441406 32.269531 96.441406 32.300781 C 96.441406 32.523438 96.664062 32.652344 96.871094 32.652344 Z M 96.871094 32.652344 "/>
<path style=" stroke:none;fill-rule:evenodd;fill:rgb(0%,0%,0%);fill-opacity:1;" d="M 102.878906 4.816406 C 103.003906 4.816406 103.09375 4.714844 103.226562 4.46875 C 103.953125 3.203125 104.882812 1.769531 105.230469 1.34375 C 105.722656 0.738281 106.117188 0.460938 106.363281 0.46875 C 106.574219 0.480469 106.6875 0.695312 106.453125 1.308594 C 106.058594 2.308594 105.613281 3.304688 105.175781 4.300781 C 105.0625 4.546875 105.320312 4.792969 105.523438 4.792969 C 106.226562 4.792969 106.957031 4.265625 107.539062 3.5625 C 107.5625 3.527344 107.582031 3.460938 107.582031 3.40625 C 107.582031 3.347656 107.539062 3.304688 107.492188 3.304688 C 107.484375 3.304688 107.472656 3.304688 107.460938 3.316406 C 107.347656 3.425781 106.542969 4.078125 106.183594 4.078125 C 106.050781 4.078125 106.003906 3.964844 106.128906 3.671875 L 107.15625 1.230469 C 107.460938 0.527344 107.101562 0 106.632812 0 C 105.949219 0 104.929688 0.863281 104.011719 2.429688 C 103.964844 2.507812 103.867188 2.496094 103.910156 2.386719 L 104.648438 0.480469 C 104.75 0.210938 104.515625 0 104.28125 0 C 103.777344 0.0117188 103.382812 0.222656 103.160156 0.558594 C 103.070312 0.695312 102.914062 0.984375 102.925781 1.121094 C 102.945312 1.230469 103.035156 1.230469 103.09375 1.164062 C 103.449219 0.695312 103.695312 0.648438 103.921875 0.648438 C 104.066406 0.648438 104.035156 0.816406 103.898438 1.140625 L 102.601562 4.324219 C 102.519531 4.511719 102.699219 4.816406 102.878906 4.816406 Z M 102.878906 4.816406 "/>
</g>
</svg>
