<?xml version="1.0" encoding="UTF-8"?>
<svg xmlns="http://www.w3.org/2000/svg" xmlns:xlink="http://www.w3.org/1999/xlink" width="400.200017pt" height="86.808004pt" viewBox="0 0 400.200017 86.808004" version="1.1">
<g id="surface1">
<path style=" stroke:none;fill-rule:evenodd;fill:rgb(0%,0%,0%);fill-opacity:1;" d="M -0.558594 63.648438 C 1.679688 63.648438 6.078125 60.726562 7.199219 56.449219 C 8.761719 50.40625 10.519531 44.246094 12.398438 38.207031 C 12.519531 37.726562 12.839844 37.566406 13.398438 37.566406 L 17.039062 37.527344 C 17.761719 37.527344 18.199219 36.726562 18.199219 36.367188 C 18.199219 36.046875 18.078125 35.929688 17.921875 35.929688 C 16.558594 35.929688 15.121094 36.046875 13.519531 36.046875 C 13.28125 36.046875 13.121094 35.96875 13.121094 35.6875 C 13.121094 35.40625 13.199219 35.289062 13.320312 34.886719 C 13.640625 33.847656 13.839844 32.96875 14.160156 31.929688 C 15.761719 26.6875 16.640625 25.449219 18.921875 25.449219 C 20.078125 25.449219 20.800781 26.007812 21.28125 27.089844 C 21.679688 27.96875 21.960938 28.648438 22.359375 28.648438 C 23.078125 28.648438 24 27.96875 24 26.609375 C 24 24.96875 22.601562 23.808594 20.238281 23.808594 C 17.441406 23.808594 13 26.449219 11.078125 34.046875 L 10.761719 35.328125 C 10.640625 35.808594 10.359375 36.089844 10 36.128906 L 7.199219 36.289062 C 6.800781 36.328125 6.441406 36.886719 6.441406 37.328125 C 6.441406 37.609375 6.601562 37.808594 6.960938 37.808594 L 9.441406 37.769531 C 10 37.769531 10.160156 37.96875 10 38.488281 L 4.640625 56.648438 C 3.320312 61.046875 2.558594 62.046875 1.039062 62.046875 C 0.078125 62.046875 -0.558594 61.609375 -1.039062 61.089844 C -1.558594 60.527344 -1.921875 59.96875 -2.320312 59.96875 C -2.839844 59.96875 -3.878906 60.847656 -3.878906 61.648438 C -3.878906 62.96875 -2.558594 63.648438 -0.558594 63.648438 Z M -0.558594 63.648438 "/>
<path style=" stroke:none;fill-rule:evenodd;fill:rgb(0%,0%,0%);fill-opacity:1;" d="M 34.960938 60.449219 C 35.480469 60.449219 36.039062 60.128906 36.039062 59.566406 C 36.039062 59.488281 35.480469 58.847656 35.441406 58.769531 C 33 55.929688 30.398438 47.40625 30.398438 40.609375 C 30.398438 33.808594 33.121094 27.929688 35.558594 25.089844 C 35.640625 25.007812 36.078125 24.367188 36.078125 24.289062 C 36.078125 23.929688 35.480469 23.648438 35.199219 23.648438 C 34.800781 23.648438 34.359375 23.886719 34.121094 24.128906 C 31.28125 26.96875 27.078125 34.289062 27.078125 41.089844 C 27.078125 47.886719 31.441406 57.289062 34.28125 60.128906 C 34.480469 60.328125 34.71875 60.449219 34.960938 60.449219 Z M 34.960938 60.449219 "/>
<path style=" stroke:none;fill-rule:evenodd;fill:rgb(0%,0%,0%);fill-opacity:1;" d="M 40 52.609375 C 40.960938 52.609375 41.839844 52.289062 42.960938 50.96875 C 44.28125 49.40625 45.558594 47.648438 46.839844 46.046875 C 47.160156 45.648438 47.320312 45.648438 47.480469 46.289062 L 48.359375 49.929688 C 48.839844 51.6875 49.398438 52.609375 50.878906 52.609375 C 53.199219 52.609375 55.039062 48.808594 55.039062 47.328125 C 55.039062 46.527344 54.878906 46.449219 54.679688 46.449219 C 54.480469 46.449219 54.320312 46.609375 54.160156 47.007812 C 53.359375 48.96875 52.28125 50.207031 51.519531 50.207031 C 51.238281 50.207031 50.878906 49.96875 50.679688 49.246094 L 49.320312 44.328125 C 49.121094 43.648438 49.199219 43.246094 49.398438 42.929688 C 50.398438 41.40625 51.28125 40.367188 52.039062 39.488281 C 52.960938 38.367188 53.679688 37.808594 54.320312 37.808594 C 54.679688 37.808594 54.921875 38.007812 55.199219 38.726562 C 55.359375 39.128906 55.601562 39.40625 55.921875 39.40625 C 56.601562 39.40625 57.601562 37.808594 57.558594 37.207031 C 57.519531 36.566406 56.558594 35.488281 55.519531 35.488281 C 54.078125 35.488281 52.71875 36.726562 51.921875 37.847656 L 49.121094 41.847656 C 48.839844 42.207031 48.640625 42.167969 48.558594 41.769531 L 47.558594 37.527344 C 47.199219 36.128906 46.71875 35.488281 45.878906 35.488281 C 44.121094 35.488281 41.601562 38.488281 41.601562 40.046875 C 41.601562 40.449219 41.679688 40.726562 41.878906 40.726562 C 42.238281 40.726562 42.441406 40.246094 42.558594 40.089844 C 43.558594 38.648438 44.398438 38.007812 44.800781 38.007812 C 45.121094 38.007812 45.238281 38.089844 45.398438 38.6875 L 46.921875 44.289062 C 47 44.527344 47 44.808594 46.800781 45.007812 C 45.121094 46.929688 44.238281 48.089844 42.640625 49.726562 C 42.320312 50.046875 41.921875 50.246094 41.558594 50.207031 C 41.238281 50.207031 40.960938 49.929688 40.800781 49.289062 C 40.71875 48.929688 40.558594 48.566406 40.160156 48.566406 C 39.480469 48.566406 38.359375 50.167969 38.359375 51.089844 C 38.359375 52.128906 39.199219 52.609375 40 52.609375 Z M 40 52.609375 "/>
<path style=" stroke:none;fill-rule:evenodd;fill:rgb(0%,0%,0%);fill-opacity:1;" d="M 61.121094 60.449219 C 61.359375 60.449219 61.601562 60.328125 61.800781 60.128906 C 64.640625 57.289062 69 47.886719 69 41.089844 C 69 34.289062 64.800781 26.96875 61.960938 24.128906 C 61.71875 23.886719 61.28125 23.648438 60.878906 23.648438 C 60.601562 23.648438 60 23.929688 60 24.289062 C 60 24.367188 60.441406 25.007812 60.519531 25.089844 C 62.960938 27.929688 65.679688 33.808594 65.679688 40.609375 C 65.679688 47.40625 63.078125 55.929688 60.640625 58.769531 C 60.601562 58.847656 60.039062 59.488281 60.039062 59.566406 C 60.039062 60.128906 60.601562 60.449219 61.121094 60.449219 Z M 61.121094 60.449219 "/>
<path style=" stroke:none;fill-rule:evenodd;fill:rgb(0%,0%,0%);fill-opacity:1;" d="M 88.894531 39.488281 L 105.691406 39.488281 C 106.332031 39.488281 106.972656 38.488281 106.972656 37.929688 C 106.972656 37.6875 106.652344 37.488281 106.414062 37.488281 L 89.292969 37.488281 C 88.574219 37.488281 88.332031 38.648438 88.332031 39.007812 C 88.332031 39.246094 88.613281 39.488281 88.894531 39.488281 Z M 88.894531 46.328125 L 105.691406 46.328125 C 106.332031 46.328125 106.972656 45.488281 106.972656 44.769531 C 106.972656 44.527344 106.652344 44.328125 106.414062 44.328125 L 89.292969 44.328125 C 88.574219 44.328125 88.332031 45.488281 88.332031 45.847656 C 88.332031 46.089844 88.613281 46.328125 88.894531 46.328125 Z M 88.894531 46.328125 "/>
<path style=" stroke:none;fill-rule:evenodd;fill:rgb(0%,0%,0%);fill-opacity:1;" d="M 130.308594 80.808594 C 134.546875 80.808594 140.347656 75.648438 140.90625 69.886719 C 141.707031 61.449219 146.308594 14.808594 146.507812 13.128906 C 146.988281 9.566406 149.226562 5.488281 151.667969 5.488281 C 152.867188 5.488281 153.945312 6.289062 154.746094 7.726562 C 155.386719 8.929688 155.90625 9.808594 156.464844 9.808594 C 157.347656 9.808594 158.386719 9.046875 158.386719 7.609375 C 158.386719 5.128906 156.226562 3.289062 152.785156 3.289062 C 147.707031 3.289062 143.785156 8.128906 142.828125 16.007812 L 137.507812 70.167969 C 136.867188 76.328125 134.226562 78.648438 132.1875 78.648438 C 130.90625 78.648438 129.988281 78.089844 129.226562 77.367188 C 128.425781 76.609375 127.90625 75.847656 127.347656 75.847656 C 126.707031 75.847656 125.507812 76.929688 125.507812 78.007812 C 125.507812 79.847656 127.546875 80.808594 130.308594 80.808594 Z M 130.308594 80.808594 "/>
<path style=" stroke:none;fill-rule:evenodd;fill:rgb(0%,0%,0%);fill-opacity:1;" d="M 166.90625 10.472656 C 169.371094 10.472656 170.6875 8.203125 171.46875 6.777344 C 171.609375 6.496094 171.722656 6.46875 171.863281 6.691406 C 173.207031 8.820312 174.382812 10.472656 176.652344 10.472656 C 179.535156 10.472656 181.578125 7.699219 181.578125 4.957031 C 181.578125 2.378906 179.816406 0 177.238281 0 C 174.773438 0 173.457031 2.210938 172.675781 3.640625 C 172.5625 3.835938 172.421875 3.949219 172.28125 3.722656 C 170.9375 1.597656 169.761719 0 167.496094 0 C 164.609375 0 162.566406 2.773438 162.566406 5.515625 C 162.566406 8.09375 164.332031 10.472656 166.90625 10.472656 Z M 167.355469 8.457031 C 165.339844 8.457031 163.378906 7.140625 163.378906 5.125 C 163.378906 3.472656 164.917969 1.960938 166.710938 1.960938 C 168.445312 1.960938 169.902344 3.890625 171.023438 5.515625 C 171.191406 5.738281 171.300781 5.90625 171.300781 6.074219 C 171.300781 6.160156 171.246094 6.273438 171.132812 6.410156 C 170.15625 7.617188 169.148438 8.457031 167.355469 8.457031 Z M 177.546875 8.566406 C 175.8125 8.566406 174.328125 6.609375 173.207031 4.984375 C 173.039062 4.761719 172.925781 4.59375 172.925781 4.425781 C 172.925781 4.339844 172.984375 4.226562 173.09375 4.089844 C 174.074219 2.882812 175 2.015625 176.789062 2.015625 C 178.808594 2.015625 180.765625 3.332031 180.765625 5.347656 C 180.765625 7 179.3125 8.566406 177.546875 8.566406 Z M 177.546875 8.566406 "/>
<path style=" stroke:none;fill-rule:evenodd;fill:rgb(0%,0%,0%);fill-opacity:1;" d="M 148.820312 80.59375 L 161.558594 80.59375 C 162.0625 80.59375 162.425781 79.863281 162.425781 79.246094 C 162.425781 79.078125 162.230469 78.910156 162.0625 78.910156 L 149.097656 78.910156 C 148.511719 78.910156 148.425781 80.003906 148.425781 80.257812 C 148.425781 80.425781 148.621094 80.59375 148.820312 80.59375 Z M 148.820312 80.59375 "/>
<path style=" stroke:none;fill-rule:evenodd;fill:rgb(0%,0%,0%);fill-opacity:1;" d="M 169.148438 84.792969 C 171.609375 84.792969 172.925781 82.523438 173.710938 81.097656 C 173.851562 80.816406 173.960938 80.789062 174.101562 81.011719 C 175.445312 83.140625 176.621094 84.792969 178.890625 84.792969 C 181.773438 84.792969 183.820312 82.019531 183.820312 79.277344 C 183.820312 76.699219 182.054688 74.320312 179.480469 74.320312 C 177.015625 74.320312 175.699219 76.53125 174.914062 77.960938 C 174.800781 78.15625 174.664062 78.269531 174.523438 78.042969 C 173.179688 75.914062 172.003906 74.320312 169.734375 74.320312 C 166.851562 74.320312 164.808594 77.09375 164.808594 79.835938 C 164.808594 82.410156 166.570312 84.792969 169.148438 84.792969 Z M 169.59375 82.777344 C 167.578125 82.777344 165.617188 81.460938 165.617188 79.445312 C 165.617188 77.792969 167.160156 76.28125 168.949219 76.28125 C 170.6875 76.28125 172.144531 78.210938 173.261719 79.835938 C 173.429688 80.058594 173.542969 80.226562 173.542969 80.394531 C 173.542969 80.480469 173.488281 80.59375 173.375 80.730469 C 172.394531 81.9375 171.386719 82.777344 169.59375 82.777344 Z M 179.785156 82.886719 C 178.050781 82.886719 176.566406 80.929688 175.445312 79.304688 C 175.277344 79.078125 175.167969 78.910156 175.167969 78.742188 C 175.167969 78.660156 175.222656 78.546875 175.335938 78.40625 C 176.316406 77.203125 177.238281 76.335938 179.03125 76.335938 C 181.046875 76.335938 183.007812 77.652344 183.007812 79.667969 C 183.007812 81.320312 181.550781 82.886719 179.785156 82.886719 Z M 179.785156 82.886719 "/>
<path style=" stroke:none;fill-rule:evenodd;fill:rgb(0%,0%,0%);fill-opacity:1;" d="M 220.429688 18.527344 L 209.828125 12.167969 C 209.148438 11.769531 208.429688 11.769531 207.75 12.167969 L 197.148438 18.527344 C 196.789062 18.769531 196.589844 19.289062 196.589844 19.6875 C 196.589844 19.808594 196.710938 19.847656 196.828125 19.808594 L 208.429688 14.96875 C 208.667969 14.847656 208.910156 14.847656 209.148438 14.96875 L 220.75 19.808594 C 220.871094 19.847656 220.988281 19.808594 220.988281 19.6875 C 220.988281 19.289062 220.789062 18.769531 220.429688 18.527344 Z M 220.429688 18.527344 "/>
<path style=" stroke:none;fill-rule:evenodd;fill:rgb(0%,0%,0%);fill-opacity:1;" d="M 189.308594 63.648438 C 191.550781 63.648438 195.949219 60.726562 197.070312 56.449219 C 198.628906 50.40625 200.390625 44.246094 202.269531 38.207031 C 202.390625 37.726562 202.710938 37.566406 203.269531 37.566406 L 206.910156 37.527344 C 207.628906 37.527344 208.070312 36.726562 208.070312 36.367188 C 208.070312 36.046875 207.949219 35.929688 207.789062 35.929688 C 206.429688 35.929688 204.988281 36.046875 203.390625 36.046875 C 203.148438 36.046875 202.988281 35.96875 202.988281 35.6875 C 202.988281 35.40625 203.070312 35.289062 203.1875 34.886719 C 203.507812 33.847656 203.710938 32.96875 204.03125 31.929688 C 205.628906 26.6875 206.507812 25.449219 208.789062 25.449219 C 209.949219 25.449219 210.667969 26.007812 211.148438 27.089844 C 211.550781 27.96875 211.828125 28.648438 212.230469 28.648438 C 212.949219 28.648438 213.871094 27.96875 213.871094 26.609375 C 213.871094 24.96875 212.46875 23.808594 210.109375 23.808594 C 207.308594 23.808594 202.871094 26.449219 200.949219 34.046875 L 200.628906 35.328125 C 200.507812 35.808594 200.230469 36.089844 199.871094 36.128906 L 197.070312 36.289062 C 196.667969 36.328125 196.308594 36.886719 196.308594 37.328125 C 196.308594 37.609375 196.46875 37.808594 196.828125 37.808594 L 199.308594 37.769531 C 199.871094 37.769531 200.03125 37.96875 199.871094 38.488281 L 194.507812 56.648438 C 193.1875 61.046875 192.429688 62.046875 190.910156 62.046875 C 189.949219 62.046875 189.308594 61.609375 188.828125 61.089844 C 188.308594 60.527344 187.949219 59.96875 187.550781 59.96875 C 187.03125 59.96875 185.988281 60.847656 185.988281 61.648438 C 185.988281 62.96875 187.308594 63.648438 189.308594 63.648438 Z M 189.308594 63.648438 "/>
<path style=" stroke:none;fill-rule:evenodd;fill:rgb(0%,0%,0%);fill-opacity:1;" d="M 232.871094 60.449219 C 233.390625 60.449219 233.949219 60.128906 233.949219 59.566406 C 233.949219 59.488281 233.390625 58.847656 233.347656 58.769531 C 230.910156 55.929688 228.308594 47.40625 228.308594 40.609375 C 228.308594 33.808594 231.03125 27.929688 233.46875 25.089844 C 233.550781 25.007812 233.988281 24.367188 233.988281 24.289062 C 233.988281 23.929688 233.390625 23.648438 233.109375 23.648438 C 232.710938 23.648438 232.269531 23.886719 232.03125 24.128906 C 229.1875 26.96875 224.988281 34.289062 224.988281 41.089844 C 224.988281 47.886719 229.347656 57.289062 232.1875 60.128906 C 232.390625 60.328125 232.628906 60.449219 232.871094 60.449219 Z M 232.871094 60.449219 "/>
<path style=" stroke:none;fill-rule:evenodd;fill:rgb(0%,0%,0%);fill-opacity:1;" d="M 240.347656 60.089844 C 244.269531 58.847656 248.75 55.726562 248.75 51.96875 C 248.75 50.847656 247.628906 48.769531 246.429688 48.769531 C 246.109375 48.769531 244.910156 48.886719 243.949219 48.929688 C 242.910156 49.007812 241.628906 49.046875 241.308594 49.046875 C 239.910156 49.046875 239.1875 48.648438 239.1875 47.40625 C 239.1875 44.449219 244.429688 40.527344 250.949219 39.007812 C 251.828125 38.808594 253.109375 37.527344 253.109375 36.847656 C 253.109375 36.246094 252.75 35.769531 251.828125 35.769531 C 250.789062 35.769531 248.148438 36.769531 246.589844 37.808594 C 244.988281 37.808594 244.308594 37.007812 244.308594 35.726562 C 244.308594 32.289062 248.429688 29.609375 251.269531 29.328125 C 255.710938 28.449219 256.230469 27.40625 256.230469 26.128906 C 256.230469 25.488281 255.949219 24.929688 255.46875 24.929688 C 254.308594 24.929688 250.75 26.40625 247.628906 28.648438 C 246.628906 28.488281 246.1875 27.648438 246.1875 26.648438 C 246.1875 25.527344 246.988281 24.207031 248.269531 23.726562 C 248.789062 23.527344 248.871094 23.40625 248.871094 23.207031 C 248.871094 22.929688 248.347656 22.769531 248.070312 22.769531 C 245.988281 22.769531 243.390625 24.566406 243.390625 26.96875 C 243.390625 28.6875 245.390625 29.367188 246.710938 29.328125 C 244.269531 31.289062 242.269531 33.726562 242.269531 36.328125 C 242.269531 37.566406 243.308594 38.207031 244.550781 38.769531 C 245.109375 39.007812 244.75 39.167969 244.347656 39.40625 C 241.75 41.167969 237.308594 45.007812 237.308594 49.207031 C 237.308594 50.527344 238.507812 52.289062 240.550781 52.289062 C 241.1875 52.289062 242.429688 52.128906 243.710938 52.007812 C 244.789062 51.886719 245.789062 51.769531 246.347656 51.769531 C 246.871094 51.769531 247.347656 51.929688 247.347656 52.367188 C 247.347656 53.328125 245.1875 55.289062 239.347656 57.246094 C 238.828125 57.40625 238.789062 57.886719 238.789062 58.328125 C 238.789062 59.167969 239.507812 60.367188 240.347656 60.089844 Z M 240.347656 60.089844 "/>
<path style=" stroke:none;fill-rule:evenodd;fill:rgb(0%,0%,0%);fill-opacity:1;" d="M 259.109375 60.449219 C 259.347656 60.449219 259.589844 60.328125 259.789062 60.128906 C 262.628906 57.289062 266.988281 47.886719 266.988281 41.089844 C 266.988281 34.289062 262.789062 26.96875 259.949219 24.128906 C 259.710938 23.886719 259.269531 23.648438 258.871094 23.648438 C 258.589844 23.648438 257.988281 23.929688 257.988281 24.289062 C 257.988281 24.367188 258.429688 25.007812 258.507812 25.089844 C 260.949219 27.929688 263.667969 33.808594 263.667969 40.609375 C 263.667969 47.40625 261.070312 55.929688 258.628906 58.769531 C 258.589844 58.847656 258.03125 59.488281 258.03125 59.566406 C 258.03125 60.128906 258.589844 60.449219 259.109375 60.449219 Z M 259.109375 60.449219 "/>
<path style=" stroke:none;fill-rule:evenodd;fill:rgb(0%,0%,0%);fill-opacity:1;" d="M 275.988281 52.648438 C 278.589844 52.648438 280.789062 51.207031 282.390625 48.609375 C 282.46875 48.488281 282.46875 48.367188 282.46875 48.289062 C 282.46875 48.046875 282.308594 47.886719 282.070312 47.886719 C 281.871094 47.886719 281.628906 48.007812 281.347656 48.328125 C 280.46875 49.289062 279.1875 50.488281 277.269531 50.488281 C 275.871094 50.488281 275.148438 49.449219 275.148438 47.566406 C 275.148438 46.328125 275.589844 44.847656 275.988281 43.6875 C 276.109375 43.367188 276.269531 43.367188 276.589844 43.289062 C 281.03125 42.449219 285.710938 41.046875 285.710938 37.6875 C 285.710938 36.328125 284.628906 35.488281 282.75 35.488281 C 277.070312 35.488281 272.308594 43.128906 272.308594 48.488281 C 272.308594 50.367188 274.269531 52.648438 275.988281 52.648438 Z M 276.871094 42.367188 C 276.667969 42.367188 276.589844 42.367188 276.589844 42.128906 C 276.589844 40.929688 280.109375 36.488281 282.308594 36.488281 C 282.988281 36.488281 283.390625 37.089844 283.390625 37.769531 C 283.390625 40.96875 278.070312 42.367188 276.871094 42.367188 Z M 276.871094 42.367188 "/>
<path style=" stroke:none;fill-rule:evenodd;fill:rgb(0%,0%,0%);fill-opacity:1;" d="M 297.460938 34.933594 C 297.65625 34.933594 297.964844 34.847656 298.078125 34.261719 C 298.355469 32.859375 298.917969 31.710938 298.917969 31.433594 C 298.917969 31.292969 298.890625 31.097656 298.722656 31.097656 C 298.414062 31.097656 298.160156 31.515625 298.019531 31.738281 C 297.320312 32.859375 296.957031 32.972656 295.363281 33.054688 C 294.351562 33.113281 293.234375 33.140625 292.167969 33.140625 C 291.132812 33.140625 290.320312 33.113281 289.707031 33.054688 C 289.480469 33.027344 289.3125 33 289.3125 32.859375 C 289.3125 32.71875 293.933594 28.238281 295.191406 26.726562 C 296.371094 25.300781 297.238281 23.339844 297.238281 21.828125 C 297.238281 19.113281 295.558594 17.207031 292.757812 17.207031 C 289.59375 17.207031 287.296875 19.953125 287.296875 20.820312 C 287.296875 21.324219 287.578125 21.660156 287.71875 21.660156 C 287.886719 21.660156 288.082031 21.492188 288.191406 21.269531 C 288.976562 19.925781 290.347656 19 291.890625 19 C 293.484375 19 294.886719 20.203125 294.886719 22.191406 C 294.886719 24.65625 293.511719 27.175781 291.636719 29.109375 L 286.847656 34.0625 C 286.679688 34.230469 286.625 34.261719 286.625 34.429688 C 286.625 34.597656 287.046875 34.902344 287.183594 34.902344 C 287.746094 34.902344 292.28125 34.765625 293.679688 34.765625 C 295.082031 34.765625 296.902344 34.933594 297.460938 34.933594 Z M 297.460938 34.933594 "/>
<path style=" stroke:none;fill-rule:evenodd;fill:rgb(0%,0%,0%);fill-opacity:1;" d="M 302.613281 35.210938 C 302.808594 35.210938 303.171875 34.875 303.480469 34.175781 C 304.433594 32.046875 305.832031 28.324219 307.148438 25.691406 C 307.289062 25.410156 307.484375 25.273438 307.738281 25.300781 L 309.726562 25.46875 C 309.921875 25.496094 310.089844 25.609375 309.976562 25.914062 C 309.390625 27.511719 307.542969 32.160156 307.261719 33.335938 C 307.039062 34.289062 307.457031 35.238281 308.296875 35.238281 C 309.640625 35.238281 312.582031 32.578125 312.582031 31.402344 C 312.582031 31.320312 312.496094 31.265625 312.414062 31.265625 C 312.355469 31.265625 312.328125 31.292969 312.300781 31.320312 C 311.238281 32.382812 310.144531 33 309.25 33 C 308.800781 33 308.6875 32.609375 308.886719 31.9375 C 309.304688 30.480469 310.171875 27.539062 310.929688 25.859375 C 311.042969 25.609375 311.179688 25.550781 311.265625 25.550781 C 311.683594 25.550781 312.21875 25.609375 312.554688 25.609375 C 314.175781 25.609375 315.71875 23.898438 315.71875 22.949219 C 315.71875 22.640625 315.578125 22.5 315.296875 22.5 C 315.183594 22.5 314.878906 22.976562 314.511719 23.199219 C 314.007812 23.507812 313.394531 23.535156 312.636719 23.535156 C 310.789062 23.535156 308.382812 23.367188 306.167969 23.367188 C 302.332031 23.367188 300.765625 25.46875 300.765625 27.34375 C 300.765625 27.734375 300.988281 28.15625 301.183594 28.15625 C 301.410156 28.15625 301.550781 27.902344 301.578125 27.652344 C 301.773438 25.972656 303.171875 24.90625 305.386719 25.074219 L 306.113281 25.132812 C 306.335938 25.160156 306.28125 25.355469 306.226562 25.496094 C 305.609375 27.0625 303.734375 30.59375 301.410156 33.839844 L 301.410156 34.398438 C 301.351562 34.679688 302.222656 35.210938 302.613281 35.210938 Z M 302.613281 35.210938 "/>
<path style=" stroke:none;fill-rule:evenodd;fill:rgb(0%,0%,0%);fill-opacity:1;" d="M 323.304688 20.484375 C 324.144531 20.484375 324.84375 19.726562 324.84375 18.886719 C 324.84375 18.300781 324.480469 17.683594 323.894531 17.683594 C 322.996094 17.683594 322.324219 18.496094 322.324219 19.390625 C 322.324219 19.953125 322.746094 20.484375 323.304688 20.484375 Z M 317.648438 35.238281 C 319.355469 35.238281 322.632812 32.273438 322.632812 31.097656 C 322.632812 31.011719 322.550781 30.957031 322.464844 30.957031 C 322.410156 30.957031 322.382812 30.984375 322.351562 31.011719 C 321.289062 32.074219 320.03125 33.390625 319.273438 33.390625 C 319.078125 33.390625 318.824219 33.335938 318.824219 33.054688 C 318.824219 32.832031 318.882812 32.550781 319.019531 32.242188 L 322.4375 24.152344 C 322.550781 23.871094 321.933594 23.058594 321.429688 23.285156 C 319.078125 24.347656 317.230469 25.972656 317.230469 26.449219 C 317.230469 26.644531 317.453125 26.726562 317.648438 26.589844 C 318.320312 26.085938 319.523438 25.523438 319.832031 25.523438 C 320.03125 25.523438 320.03125 25.691406 319.972656 25.859375 C 319.160156 27.902344 318.179688 30.761719 316.640625 33.839844 C 316.558594 34.007812 316.558594 34.148438 316.558594 34.289062 C 316.558594 34.734375 317.003906 35.238281 317.648438 35.238281 Z M 317.648438 35.238281 "/>
<path style=" stroke:none;fill-rule:evenodd;fill:rgb(0%,0%,0%);fill-opacity:1;" d="M 328.402344 40.476562 C 331.144531 39.609375 334.28125 37.425781 334.28125 34.792969 C 334.28125 34.007812 333.496094 32.550781 332.65625 32.550781 C 332.433594 32.550781 331.59375 32.636719 330.921875 32.664062 C 330.191406 32.71875 329.296875 32.746094 329.074219 32.746094 C 328.09375 32.746094 327.589844 32.46875 327.589844 31.601562 C 327.589844 29.527344 331.257812 26.785156 335.820312 25.71875 C 336.4375 25.578125 337.332031 24.683594 337.332031 24.207031 C 337.332031 23.789062 337.082031 23.453125 336.4375 23.453125 C 335.710938 23.453125 333.863281 24.152344 332.769531 24.878906 C 331.648438 24.878906 331.171875 24.320312 331.171875 23.425781 C 331.171875 21.015625 334.058594 19.140625 336.046875 18.945312 C 339.152344 18.328125 339.515625 17.601562 339.515625 16.703125 C 339.515625 16.257812 339.320312 15.863281 338.984375 15.863281 C 338.171875 15.863281 335.679688 16.898438 333.496094 18.46875 C 332.796875 18.355469 332.488281 17.769531 332.488281 17.066406 C 332.488281 16.285156 333.050781 15.359375 333.945312 15.023438 C 334.308594 14.882812 334.367188 14.800781 334.367188 14.660156 C 334.367188 14.464844 334 14.351562 333.804688 14.351562 C 332.347656 14.351562 330.53125 15.613281 330.53125 17.292969 C 330.53125 18.496094 331.929688 18.972656 332.851562 18.945312 C 331.144531 20.316406 329.746094 22.023438 329.746094 23.84375 C 329.746094 24.710938 330.472656 25.160156 331.339844 25.550781 C 331.734375 25.71875 331.480469 25.832031 331.203125 26 C 329.382812 27.230469 326.273438 29.921875 326.273438 32.859375 C 326.273438 33.785156 327.113281 35.015625 328.542969 35.015625 C 328.988281 35.015625 329.855469 34.902344 330.753906 34.820312 C 331.507812 34.734375 332.210938 34.652344 332.601562 34.652344 C 332.964844 34.652344 333.300781 34.765625 333.300781 35.070312 C 333.300781 35.742188 331.789062 37.117188 327.703125 38.488281 C 327.335938 38.601562 327.308594 38.9375 327.308594 39.242188 C 327.308594 39.832031 327.8125 40.671875 328.402344 40.476562 Z M 328.402344 40.476562 "/>
<path style=" stroke:none;fill-rule:evenodd;fill:rgb(0%,0%,0%);fill-opacity:1;" d="M 340.691406 35.238281 C 341.367188 35.238281 341.980469 35.015625 342.765625 34.09375 C 343.6875 33 344.585938 31.769531 345.480469 30.648438 C 345.707031 30.367188 345.816406 30.367188 345.929688 30.816406 L 346.546875 33.363281 C 346.882812 34.597656 347.273438 35.238281 348.308594 35.238281 C 349.933594 35.238281 351.222656 32.578125 351.222656 31.542969 C 351.222656 30.984375 351.109375 30.929688 350.96875 30.929688 C 350.828125 30.929688 350.71875 31.039062 350.605469 31.320312 C 350.046875 32.691406 349.289062 33.558594 348.757812 33.558594 C 348.5625 33.558594 348.308594 33.390625 348.167969 32.886719 L 347.21875 29.445312 C 347.078125 28.96875 347.132812 28.6875 347.273438 28.464844 C 347.972656 27.398438 348.589844 26.671875 349.121094 26.054688 C 349.765625 25.273438 350.269531 24.878906 350.71875 24.878906 C 350.96875 24.878906 351.136719 25.019531 351.332031 25.523438 C 351.445312 25.804688 351.613281 26 351.835938 26 C 352.3125 26 353.011719 24.878906 352.984375 24.460938 C 352.957031 24.011719 352.285156 23.257812 351.558594 23.257812 C 350.550781 23.257812 349.597656 24.125 349.039062 24.90625 L 347.078125 27.707031 C 346.882812 27.960938 346.742188 27.933594 346.683594 27.652344 L 345.984375 24.683594 C 345.734375 23.703125 345.398438 23.257812 344.808594 23.257812 C 343.578125 23.257812 341.8125 25.355469 341.8125 26.449219 C 341.8125 26.726562 341.871094 26.925781 342.007812 26.925781 C 342.261719 26.925781 342.402344 26.589844 342.484375 26.476562 C 343.183594 25.46875 343.773438 25.019531 344.054688 25.019531 C 344.277344 25.019531 344.363281 25.074219 344.472656 25.496094 L 345.539062 29.414062 C 345.59375 29.585938 345.59375 29.78125 345.453125 29.921875 C 344.277344 31.265625 343.660156 32.074219 342.542969 33.222656 C 342.316406 33.449219 342.039062 33.589844 341.785156 33.558594 C 341.5625 33.558594 341.367188 33.363281 341.253906 32.914062 C 341.199219 32.664062 341.085938 32.410156 340.804688 32.410156 C 340.328125 32.410156 339.546875 33.53125 339.546875 34.175781 C 339.546875 34.902344 340.132812 35.238281 340.691406 35.238281 Z M 340.691406 35.238281 "/>
<path style=" stroke:none;fill-rule:evenodd;fill:rgb(0%,0%,0%);fill-opacity:1;" d="M 374.238281 52.808594 C 374.398438 52.808594 374.441406 52.808594 374.878906 52.566406 C 376.761719 51.769531 378.078125 51.40625 379.558594 51.207031 C 379.839844 51.207031 380.121094 50.847656 380.121094 50.488281 C 380.121094 50.167969 379.921875 50.089844 379.398438 50.128906 C 378.71875 50.207031 377.960938 50.246094 377.679688 50.246094 C 377.078125 50.246094 376.839844 49.488281 376.839844 47.648438 L 376.839844 29.566406 C 376.839844 25.96875 377.121094 24.609375 377.121094 24.128906 C 377.078125 23.96875 377 23.886719 376.839844 23.886719 C 376.71875 23.886719 376.519531 23.929688 376.320312 24.007812 C 375.558594 24.328125 374.359375 24.886719 372 25.488281 C 371.761719 25.566406 371.679688 25.769531 371.679688 25.96875 C 371.679688 26.207031 371.800781 26.449219 372.039062 26.488281 C 373.320312 26.726562 374.039062 27.246094 374.039062 29.40625 L 374.039062 35.089844 C 374.039062 35.808594 373.878906 36.046875 373.761719 36.046875 C 373.640625 36.046875 373.480469 36.007812 373.238281 35.929688 C 372.640625 35.726562 371.441406 35.488281 370.359375 35.488281 C 364.761719 35.488281 361.359375 39.808594 361.359375 44.449219 C 361.359375 48.488281 364.199219 52.609375 368.761719 52.609375 C 371.398438 52.609375 373.199219 51.007812 374 49.769531 L 374 50.007812 C 374 50.6875 373.800781 51.886719 373.800781 52.40625 C 373.800781 52.527344 374.121094 52.808594 374.238281 52.808594 Z M 370.199219 50.527344 C 368.441406 50.527344 364.199219 49.566406 364.199219 43.527344 C 364.199219 38.207031 367.28125 36.886719 369.121094 36.886719 C 372.078125 36.886719 374.039062 39.207031 374.039062 41.367188 L 374 48.566406 C 373 49.726562 371.601562 50.527344 370.199219 50.527344 Z M 370.199219 50.527344 "/>
<path style=" stroke:none;fill-rule:evenodd;fill:rgb(0%,0%,0%);fill-opacity:1;" d="M 384.558594 60.089844 C 388.480469 58.847656 392.960938 55.726562 392.960938 51.96875 C 392.960938 50.847656 391.839844 48.769531 390.640625 48.769531 C 390.320312 48.769531 389.121094 48.886719 388.160156 48.929688 C 387.121094 49.007812 385.839844 49.046875 385.519531 49.046875 C 384.121094 49.046875 383.398438 48.648438 383.398438 47.40625 C 383.398438 44.449219 388.640625 40.527344 395.160156 39.007812 C 396.039062 38.808594 397.320312 37.527344 397.320312 36.847656 C 397.320312 36.246094 396.960938 35.769531 396.039062 35.769531 C 395 35.769531 392.359375 36.769531 390.800781 37.808594 C 389.199219 37.808594 388.519531 37.007812 388.519531 35.726562 C 388.519531 32.289062 392.640625 29.609375 395.480469 29.328125 C 399.921875 28.449219 400.441406 27.40625 400.441406 26.128906 C 400.441406 25.488281 400.160156 24.929688 399.679688 24.929688 C 398.519531 24.929688 394.960938 26.40625 391.839844 28.648438 C 390.839844 28.488281 390.398438 27.648438 390.398438 26.648438 C 390.398438 25.527344 391.199219 24.207031 392.480469 23.726562 C 393 23.527344 393.078125 23.40625 393.078125 23.207031 C 393.078125 22.929688 392.558594 22.769531 392.28125 22.769531 C 390.199219 22.769531 387.601562 24.566406 387.601562 26.96875 C 387.601562 28.6875 389.601562 29.367188 390.921875 29.328125 C 388.480469 31.289062 386.480469 33.726562 386.480469 36.328125 C 386.480469 37.566406 387.519531 38.207031 388.761719 38.769531 C 389.320312 39.007812 388.960938 39.167969 388.558594 39.40625 C 385.960938 41.167969 381.519531 45.007812 381.519531 49.207031 C 381.519531 50.527344 382.71875 52.289062 384.761719 52.289062 C 385.398438 52.289062 386.640625 52.128906 387.921875 52.007812 C 389 51.886719 390 51.769531 390.558594 51.769531 C 391.078125 51.769531 391.558594 51.929688 391.558594 52.367188 C 391.558594 53.328125 389.398438 55.289062 383.558594 57.246094 C 383.039062 57.40625 383 57.886719 383 58.328125 C 383 59.167969 383.71875 60.367188 384.558594 60.089844 Z M 384.558594 60.089844 "/>
</g>
</svg>
