<?xml version="1.0" encoding="UTF-8"?>
<svg xmlns="http://www.w3.org/2000/svg" xmlns:xlink="http://www.w3.org/1999/xlink" width="160.080007pt" height="34.723202pt" viewBox="0 0 160.080007 34.723202" version="1.1">
<g id="surface1">
<path style=" stroke:none;fill-rule:evenodd;fill:rgb(0%,0%,0%);fill-opacity:1;" d="M -0.222656 25.460938 C 0.671875 25.460938 2.433594 24.292969 2.878906 22.578125 C 3.503906 20.164062 4.207031 17.699219 4.960938 15.28125 C 5.007812 15.089844 5.136719 15.027344 5.359375 15.027344 L 6.816406 15.011719 C 7.105469 15.011719 7.28125 14.691406 7.28125 14.546875 C 7.28125 14.417969 7.230469 14.371094 7.167969 14.371094 C 6.625 14.371094 6.046875 14.417969 5.40625 14.417969 C 5.3125 14.417969 5.246094 14.386719 5.246094 14.273438 C 5.246094 14.164062 5.28125 14.113281 5.328125 13.957031 C 5.457031 13.539062 5.535156 13.1875 5.664062 12.769531 C 6.304688 10.675781 6.65625 10.179688 7.566406 10.179688 C 8.03125 10.179688 8.320312 10.402344 8.511719 10.835938 C 8.671875 11.1875 8.785156 11.460938 8.945312 11.460938 C 9.230469 11.460938 9.601562 11.1875 9.601562 10.644531 C 9.601562 9.988281 9.039062 9.523438 8.097656 9.523438 C 6.976562 9.523438 5.199219 10.578125 4.433594 13.621094 L 4.304688 14.132812 C 4.257812 14.324219 4.144531 14.433594 4 14.453125 L 2.878906 14.515625 C 2.71875 14.53125 2.574219 14.753906 2.574219 14.929688 C 2.574219 15.042969 2.640625 15.125 2.785156 15.125 L 3.777344 15.105469 C 4 15.105469 4.0625 15.1875 4 15.394531 L 1.855469 22.660156 C 1.328125 24.417969 1.023438 24.820312 0.414062 24.820312 C 0.03125 24.820312 -0.222656 24.644531 -0.414062 24.433594 C -0.625 24.210938 -0.769531 23.988281 -0.929688 23.988281 C -1.136719 23.988281 -1.550781 24.339844 -1.550781 24.660156 C -1.550781 25.1875 -1.023438 25.460938 -0.222656 25.460938 Z M -0.222656 25.460938 "/>
<path style=" stroke:none;fill-rule:evenodd;fill:rgb(0%,0%,0%);fill-opacity:1;" d="M 13.984375 24.179688 C 14.191406 24.179688 14.414062 24.050781 14.414062 23.828125 C 14.414062 23.796875 14.191406 23.539062 14.175781 23.507812 C 13.199219 22.371094 12.160156 18.964844 12.160156 16.242188 C 12.160156 13.523438 13.246094 11.171875 14.222656 10.035156 C 14.257812 10.003906 14.433594 9.746094 14.433594 9.714844 C 14.433594 9.570312 14.191406 9.460938 14.078125 9.460938 C 13.921875 9.460938 13.742188 9.554688 13.648438 9.652344 C 12.511719 10.789062 10.832031 13.714844 10.832031 16.433594 C 10.832031 19.15625 12.574219 22.914062 13.710938 24.050781 C 13.792969 24.132812 13.886719 24.179688 13.984375 24.179688 Z M 13.984375 24.179688 "/>
<path style=" stroke:none;fill-rule:evenodd;fill:rgb(0%,0%,0%);fill-opacity:1;" d="M 16 21.042969 C 16.382812 21.042969 16.734375 20.914062 17.183594 20.386719 C 17.710938 19.761719 18.222656 19.058594 18.734375 18.417969 C 18.863281 18.257812 18.929688 18.257812 18.992188 18.515625 L 19.34375 19.972656 C 19.535156 20.675781 19.761719 21.042969 20.351562 21.042969 C 21.28125 21.042969 22.015625 19.523438 22.015625 18.929688 C 22.015625 18.609375 21.953125 18.578125 21.871094 18.578125 C 21.792969 18.578125 21.726562 18.644531 21.664062 18.804688 C 21.34375 19.585938 20.910156 20.082031 20.609375 20.082031 C 20.496094 20.082031 20.351562 19.988281 20.273438 19.699219 L 19.726562 17.730469 C 19.648438 17.460938 19.679688 17.300781 19.761719 17.171875 C 20.160156 16.5625 20.511719 16.148438 20.816406 15.796875 C 21.183594 15.347656 21.472656 15.125 21.726562 15.125 C 21.871094 15.125 21.96875 15.203125 22.078125 15.492188 C 22.144531 15.652344 22.238281 15.761719 22.367188 15.761719 C 22.640625 15.761719 23.039062 15.125 23.023438 14.882812 C 23.007812 14.628906 22.625 14.195312 22.207031 14.195312 C 21.632812 14.195312 21.089844 14.691406 20.769531 15.140625 L 19.648438 16.738281 C 19.535156 16.882812 19.457031 16.867188 19.425781 16.707031 L 19.023438 15.011719 C 18.878906 14.453125 18.6875 14.195312 18.351562 14.195312 C 17.648438 14.195312 16.640625 15.394531 16.640625 16.019531 C 16.640625 16.179688 16.671875 16.292969 16.753906 16.292969 C 16.894531 16.292969 16.976562 16.097656 17.023438 16.035156 C 17.425781 15.460938 17.761719 15.203125 17.921875 15.203125 C 18.046875 15.203125 18.097656 15.234375 18.160156 15.476562 L 18.769531 17.714844 C 18.800781 17.8125 18.800781 17.921875 18.71875 18.003906 C 18.046875 18.769531 17.695312 19.234375 17.054688 19.890625 C 16.929688 20.019531 16.769531 20.097656 16.625 20.082031 C 16.496094 20.082031 16.382812 19.972656 16.320312 19.714844 C 16.289062 19.570312 16.222656 19.425781 16.0625 19.425781 C 15.792969 19.425781 15.34375 20.066406 15.34375 20.433594 C 15.34375 20.851562 15.679688 21.042969 16 21.042969 Z M 16 21.042969 "/>
<path style=" stroke:none;fill-rule:evenodd;fill:rgb(0%,0%,0%);fill-opacity:1;" d="M 24.449219 24.179688 C 24.542969 24.179688 24.640625 24.132812 24.71875 24.050781 C 25.855469 22.914062 27.601562 19.15625 27.601562 16.433594 C 27.601562 13.714844 25.921875 10.789062 24.785156 9.652344 C 24.6875 9.554688 24.511719 9.460938 24.351562 9.460938 C 24.238281 9.460938 24 9.570312 24 9.714844 C 24 9.746094 24.175781 10.003906 24.207031 10.035156 C 25.183594 11.171875 26.273438 13.523438 26.273438 16.242188 C 26.273438 18.964844 25.230469 22.371094 24.257812 23.507812 C 24.238281 23.539062 24.015625 23.796875 24.015625 23.828125 C 24.015625 24.050781 24.238281 24.179688 24.449219 24.179688 Z M 24.449219 24.179688 "/>
<path style=" stroke:none;fill-rule:evenodd;fill:rgb(0%,0%,0%);fill-opacity:1;" d="M 35.558594 15.796875 L 42.277344 15.796875 C 42.535156 15.796875 42.789062 15.394531 42.789062 15.171875 C 42.789062 15.074219 42.660156 14.996094 42.566406 14.996094 L 35.71875 14.996094 C 35.429688 14.996094 35.332031 15.460938 35.332031 15.601562 C 35.332031 15.699219 35.445312 15.796875 35.558594 15.796875 Z M 35.558594 18.53125 L 42.277344 18.53125 C 42.535156 18.53125 42.789062 18.195312 42.789062 17.90625 C 42.789062 17.8125 42.660156 17.730469 42.566406 17.730469 L 35.71875 17.730469 C 35.429688 17.730469 35.332031 18.195312 35.332031 18.339844 C 35.332031 18.433594 35.445312 18.53125 35.558594 18.53125 Z M 35.558594 18.53125 "/>
<path style=" stroke:none;fill-rule:evenodd;fill:rgb(0%,0%,0%);fill-opacity:1;" d="M 52.121094 32.324219 C 53.820312 32.324219 56.136719 30.257812 56.363281 27.957031 C 56.683594 24.578125 58.523438 5.921875 58.601562 5.25 C 58.792969 3.828125 59.691406 2.195312 60.667969 2.195312 C 61.148438 2.195312 61.578125 2.515625 61.898438 3.089844 C 62.15625 3.570312 62.363281 3.921875 62.585938 3.921875 C 62.9375 3.921875 63.355469 3.621094 63.355469 3.042969 C 63.355469 2.050781 62.492188 1.316406 61.113281 1.316406 C 59.082031 1.316406 57.515625 3.25 57.128906 6.402344 L 55.003906 28.066406 C 54.746094 30.53125 53.691406 31.460938 52.875 31.460938 C 52.363281 31.460938 51.996094 31.234375 51.691406 30.945312 C 51.371094 30.644531 51.164062 30.339844 50.9375 30.339844 C 50.683594 30.339844 50.203125 30.769531 50.203125 31.203125 C 50.203125 31.9375 51.019531 32.324219 52.121094 32.324219 Z M 52.121094 32.324219 "/>
<path style=" stroke:none;fill-rule:evenodd;fill:rgb(0%,0%,0%);fill-opacity:1;" d="M 66.761719 4.1875 C 67.75 4.1875 68.273438 3.28125 68.589844 2.710938 C 68.644531 2.597656 68.6875 2.585938 68.746094 2.675781 C 69.28125 3.527344 69.753906 4.1875 70.660156 4.1875 C 71.8125 4.1875 72.632812 3.078125 72.632812 1.980469 C 72.632812 0.953125 71.925781 0 70.894531 0 C 69.910156 0 69.382812 0.886719 69.070312 1.457031 C 69.023438 1.535156 68.96875 1.578125 68.914062 1.488281 C 68.375 0.636719 67.90625 0 66.996094 0 C 65.84375 0 65.027344 1.109375 65.027344 2.207031 C 65.027344 3.238281 65.730469 4.1875 66.761719 4.1875 Z M 66.941406 3.382812 C 66.136719 3.382812 65.351562 2.855469 65.351562 2.050781 C 65.351562 1.390625 65.96875 0.785156 66.683594 0.785156 C 67.378906 0.785156 67.960938 1.558594 68.410156 2.207031 C 68.476562 2.296875 68.519531 2.363281 68.519531 2.429688 C 68.519531 2.464844 68.5 2.507812 68.453125 2.566406 C 68.0625 3.046875 67.660156 3.382812 66.941406 3.382812 Z M 71.019531 3.425781 C 70.324219 3.425781 69.730469 2.644531 69.28125 1.992188 C 69.214844 1.902344 69.171875 1.835938 69.171875 1.769531 C 69.171875 1.734375 69.191406 1.691406 69.238281 1.636719 C 69.628906 1.152344 70 0.804688 70.714844 0.804688 C 71.523438 0.804688 72.308594 1.332031 72.308594 2.140625 C 72.308594 2.800781 71.722656 3.425781 71.019531 3.425781 Z M 71.019531 3.425781 "/>
<path style=" stroke:none;fill-rule:evenodd;fill:rgb(0%,0%,0%);fill-opacity:1;" d="M 59.527344 32.238281 L 64.625 32.238281 C 64.824219 32.238281 64.96875 31.945312 64.96875 31.699219 C 64.96875 31.632812 64.890625 31.566406 64.824219 31.566406 L 59.640625 31.566406 C 59.402344 31.566406 59.371094 32 59.371094 32.101562 C 59.371094 32.167969 59.449219 32.238281 59.527344 32.238281 Z M 59.527344 32.238281 "/>
<path style=" stroke:none;fill-rule:evenodd;fill:rgb(0%,0%,0%);fill-opacity:1;" d="M 67.660156 33.917969 C 68.644531 33.917969 69.171875 33.007812 69.484375 32.4375 C 69.539062 32.328125 69.585938 32.316406 69.640625 32.40625 C 70.179688 33.257812 70.648438 33.917969 71.554688 33.917969 C 72.710938 33.917969 73.527344 32.808594 73.527344 31.710938 C 73.527344 30.679688 72.820312 29.726562 71.792969 29.726562 C 70.804688 29.726562 70.28125 30.613281 69.964844 31.183594 C 69.921875 31.261719 69.863281 31.308594 69.808594 31.21875 C 69.269531 30.367188 68.800781 29.726562 67.894531 29.726562 C 66.742188 29.726562 65.921875 30.835938 65.921875 31.933594 C 65.921875 32.964844 66.628906 33.917969 67.660156 33.917969 Z M 67.835938 33.109375 C 67.03125 33.109375 66.246094 32.585938 66.246094 31.777344 C 66.246094 31.117188 66.863281 30.511719 67.582031 30.511719 C 68.273438 30.511719 68.855469 31.285156 69.304688 31.933594 C 69.371094 32.023438 69.417969 32.089844 69.417969 32.160156 C 69.417969 32.191406 69.394531 32.238281 69.351562 32.292969 C 68.957031 32.773438 68.554688 33.109375 67.835938 33.109375 Z M 71.914062 33.15625 C 71.21875 33.15625 70.625 32.371094 70.179688 31.722656 C 70.113281 31.632812 70.066406 31.566406 70.066406 31.496094 C 70.066406 31.464844 70.089844 31.417969 70.132812 31.363281 C 70.527344 30.882812 70.894531 30.535156 71.613281 30.535156 C 72.417969 30.535156 73.203125 31.0625 73.203125 31.867188 C 73.203125 32.527344 72.621094 33.15625 71.914062 33.15625 Z M 71.914062 33.15625 "/>
<path style=" stroke:none;fill-rule:evenodd;fill:rgb(0%,0%,0%);fill-opacity:1;" d="M 88.171875 7.410156 L 83.933594 4.867188 C 83.660156 4.707031 83.371094 4.707031 83.101562 4.867188 L 78.859375 7.410156 C 78.714844 7.507812 78.636719 7.714844 78.636719 7.875 C 78.636719 7.921875 78.683594 7.9375 78.730469 7.921875 L 83.371094 5.988281 C 83.46875 5.9375 83.5625 5.9375 83.660156 5.988281 L 88.300781 7.921875 C 88.347656 7.9375 88.394531 7.921875 88.394531 7.875 C 88.394531 7.714844 88.316406 7.507812 88.171875 7.410156 Z M 88.171875 7.410156 "/>
<path style=" stroke:none;fill-rule:evenodd;fill:rgb(0%,0%,0%);fill-opacity:1;" d="M 75.722656 25.460938 C 76.621094 25.460938 78.378906 24.292969 78.828125 22.578125 C 79.453125 20.164062 80.15625 17.699219 80.90625 15.28125 C 80.957031 15.089844 81.082031 15.027344 81.308594 15.027344 L 82.765625 15.011719 C 83.050781 15.011719 83.226562 14.691406 83.226562 14.546875 C 83.226562 14.417969 83.179688 14.371094 83.117188 14.371094 C 82.570312 14.371094 81.996094 14.417969 81.355469 14.417969 C 81.257812 14.417969 81.195312 14.386719 81.195312 14.273438 C 81.195312 14.164062 81.226562 14.113281 81.277344 13.957031 C 81.402344 13.539062 81.484375 13.1875 81.613281 12.769531 C 82.25 10.675781 82.605469 10.179688 83.515625 10.179688 C 83.980469 10.179688 84.269531 10.402344 84.460938 10.835938 C 84.621094 11.1875 84.730469 11.460938 84.890625 11.460938 C 85.179688 11.460938 85.546875 11.1875 85.546875 10.644531 C 85.546875 9.988281 84.988281 9.523438 84.042969 9.523438 C 82.921875 9.523438 81.148438 10.578125 80.378906 13.621094 L 80.25 14.132812 C 80.203125 14.324219 80.089844 14.433594 79.949219 14.453125 L 78.828125 14.515625 C 78.667969 14.53125 78.523438 14.753906 78.523438 14.929688 C 78.523438 15.042969 78.585938 15.125 78.730469 15.125 L 79.722656 15.105469 C 79.949219 15.105469 80.011719 15.1875 79.949219 15.394531 L 77.804688 22.660156 C 77.277344 24.417969 76.972656 24.820312 76.363281 24.820312 C 75.980469 24.820312 75.722656 24.644531 75.53125 24.433594 C 75.324219 24.210938 75.179688 23.988281 75.019531 23.988281 C 74.8125 23.988281 74.394531 24.339844 74.394531 24.660156 C 74.394531 25.1875 74.921875 25.460938 75.722656 25.460938 Z M 75.722656 25.460938 "/>
<path style=" stroke:none;fill-rule:evenodd;fill:rgb(0%,0%,0%);fill-opacity:1;" d="M 93.148438 24.179688 C 93.355469 24.179688 93.578125 24.050781 93.578125 23.828125 C 93.578125 23.796875 93.355469 23.539062 93.339844 23.507812 C 92.363281 22.371094 91.324219 18.964844 91.324219 16.242188 C 91.324219 13.523438 92.410156 11.171875 93.386719 10.035156 C 93.417969 10.003906 93.597656 9.746094 93.597656 9.714844 C 93.597656 9.570312 93.355469 9.460938 93.242188 9.460938 C 93.082031 9.460938 92.90625 9.554688 92.8125 9.652344 C 91.675781 10.789062 89.996094 13.714844 89.996094 16.433594 C 89.996094 19.15625 91.738281 22.914062 92.875 24.050781 C 92.957031 24.132812 93.050781 24.179688 93.148438 24.179688 Z M 93.148438 24.179688 "/>
<path style=" stroke:none;fill-rule:evenodd;fill:rgb(0%,0%,0%);fill-opacity:1;" d="M 96.140625 24.035156 C 97.707031 23.539062 99.5 22.292969 99.5 20.789062 C 99.5 20.339844 99.050781 19.507812 98.570312 19.507812 C 98.445312 19.507812 97.964844 19.554688 97.578125 19.570312 C 97.164062 19.601562 96.652344 19.621094 96.523438 19.621094 C 95.964844 19.621094 95.675781 19.460938 95.675781 18.964844 C 95.675781 17.777344 97.773438 16.210938 100.378906 15.601562 C 100.730469 15.523438 101.242188 15.011719 101.242188 14.738281 C 101.242188 14.5 101.101562 14.308594 100.730469 14.308594 C 100.316406 14.308594 99.257812 14.707031 98.636719 15.125 C 97.996094 15.125 97.722656 14.804688 97.722656 14.292969 C 97.722656 12.914062 99.371094 11.84375 100.507812 11.730469 C 102.285156 11.378906 102.492188 10.964844 102.492188 10.453125 C 102.492188 10.195312 102.378906 9.972656 102.1875 9.972656 C 101.722656 9.972656 100.300781 10.5625 99.050781 11.460938 C 98.652344 11.394531 98.476562 11.058594 98.476562 10.660156 C 98.476562 10.210938 98.796875 9.683594 99.308594 9.492188 C 99.515625 9.410156 99.546875 9.363281 99.546875 9.28125 C 99.546875 9.171875 99.339844 9.105469 99.226562 9.105469 C 98.394531 9.105469 97.355469 9.828125 97.355469 10.789062 C 97.355469 11.476562 98.15625 11.746094 98.683594 11.730469 C 97.707031 12.515625 96.90625 13.492188 96.90625 14.53125 C 96.90625 15.027344 97.324219 15.28125 97.820312 15.507812 C 98.042969 15.601562 97.898438 15.667969 97.738281 15.761719 C 96.699219 16.46875 94.921875 18.003906 94.921875 19.683594 C 94.921875 20.210938 95.402344 20.914062 96.21875 20.914062 C 96.476562 20.914062 96.972656 20.851562 97.484375 20.804688 C 97.914062 20.753906 98.316406 20.707031 98.539062 20.707031 C 98.746094 20.707031 98.941406 20.769531 98.941406 20.945312 C 98.941406 21.332031 98.074219 22.113281 95.738281 22.898438 C 95.53125 22.964844 95.515625 23.15625 95.515625 23.332031 C 95.515625 23.667969 95.804688 24.148438 96.140625 24.035156 Z M 96.140625 24.035156 "/>
<path style=" stroke:none;fill-rule:evenodd;fill:rgb(0%,0%,0%);fill-opacity:1;" d="M 103.644531 24.179688 C 103.738281 24.179688 103.835938 24.132812 103.914062 24.050781 C 105.050781 22.914062 106.796875 19.15625 106.796875 16.433594 C 106.796875 13.714844 105.117188 10.789062 103.980469 9.652344 C 103.882812 9.554688 103.707031 9.460938 103.546875 9.460938 C 103.4375 9.460938 103.195312 9.570312 103.195312 9.714844 C 103.195312 9.746094 103.371094 10.003906 103.402344 10.035156 C 104.378906 11.171875 105.46875 13.523438 105.46875 16.242188 C 105.46875 18.964844 104.429688 22.371094 103.453125 23.507812 C 103.4375 23.539062 103.210938 23.796875 103.210938 23.828125 C 103.210938 24.050781 103.4375 24.179688 103.644531 24.179688 Z M 103.644531 24.179688 "/>
<path style=" stroke:none;fill-rule:evenodd;fill:rgb(0%,0%,0%);fill-opacity:1;" d="M 110.394531 21.058594 C 111.4375 21.058594 112.316406 20.484375 112.957031 19.441406 C 112.988281 19.394531 112.988281 19.347656 112.988281 19.316406 C 112.988281 19.21875 112.921875 19.15625 112.828125 19.15625 C 112.746094 19.15625 112.652344 19.203125 112.539062 19.332031 C 112.1875 19.714844 111.675781 20.195312 110.90625 20.195312 C 110.347656 20.195312 110.058594 19.777344 110.058594 19.027344 C 110.058594 18.53125 110.234375 17.9375 110.394531 17.476562 C 110.445312 17.347656 110.507812 17.347656 110.636719 17.316406 C 112.410156 16.980469 114.285156 16.417969 114.285156 15.074219 C 114.285156 14.53125 113.851562 14.195312 113.101562 14.195312 C 110.828125 14.195312 108.921875 17.25 108.921875 19.394531 C 108.921875 20.148438 109.707031 21.058594 110.394531 21.058594 Z M 110.746094 16.945312 C 110.667969 16.945312 110.636719 16.945312 110.636719 16.851562 C 110.636719 16.371094 112.042969 14.59375 112.921875 14.59375 C 113.195312 14.59375 113.355469 14.835938 113.355469 15.105469 C 113.355469 16.386719 111.226562 16.945312 110.746094 16.945312 Z M 110.746094 16.945312 "/>
<path style=" stroke:none;fill-rule:evenodd;fill:rgb(0%,0%,0%);fill-opacity:1;" d="M 118.984375 13.972656 C 119.0625 13.972656 119.1875 13.9375 119.230469 13.703125 C 119.34375 13.144531 119.566406 12.683594 119.566406 12.574219 C 119.566406 12.515625 119.554688 12.4375 119.488281 12.4375 C 119.367188 12.4375 119.265625 12.605469 119.207031 12.695312 C 118.929688 13.144531 118.78125 13.1875 118.144531 13.222656 C 117.742188 13.246094 117.292969 13.257812 116.867188 13.257812 C 116.453125 13.257812 116.128906 13.246094 115.882812 13.222656 C 115.792969 13.210938 115.726562 13.199219 115.726562 13.144531 C 115.726562 13.089844 117.574219 11.296875 118.078125 10.691406 C 118.546875 10.121094 118.894531 9.335938 118.894531 8.730469 C 118.894531 7.644531 118.222656 6.882812 117.101562 6.882812 C 115.835938 6.882812 114.917969 7.980469 114.917969 8.328125 C 114.917969 8.53125 115.03125 8.664062 115.085938 8.664062 C 115.152344 8.664062 115.234375 8.597656 115.277344 8.507812 C 115.589844 7.96875 116.140625 7.601562 116.753906 7.601562 C 117.394531 7.601562 117.953125 8.082031 117.953125 8.875 C 117.953125 9.863281 117.40625 10.871094 116.65625 11.644531 L 114.738281 13.625 C 114.671875 13.691406 114.648438 13.703125 114.648438 13.769531 C 114.648438 13.839844 114.816406 13.960938 114.875 13.960938 C 115.097656 13.960938 116.914062 13.90625 117.472656 13.90625 C 118.03125 13.90625 118.761719 13.972656 118.984375 13.972656 Z M 118.984375 13.972656 "/>
<path style=" stroke:none;fill-rule:evenodd;fill:rgb(0%,0%,0%);fill-opacity:1;" d="M 121.046875 14.085938 C 121.125 14.085938 121.269531 13.949219 121.390625 13.671875 C 121.773438 12.820312 122.332031 11.328125 122.859375 10.277344 C 122.914062 10.164062 122.992188 10.109375 123.09375 10.121094 L 123.890625 10.1875 C 123.96875 10.199219 124.035156 10.242188 123.992188 10.367188 C 123.753906 11.003906 123.015625 12.863281 122.90625 13.335938 C 122.816406 13.714844 122.984375 14.097656 123.320312 14.097656 C 123.855469 14.097656 125.03125 13.03125 125.03125 12.5625 C 125.03125 12.527344 125 12.503906 124.964844 12.503906 C 124.941406 12.503906 124.933594 12.515625 124.921875 12.527344 C 124.496094 12.953125 124.058594 13.199219 123.699219 13.199219 C 123.519531 13.199219 123.476562 13.042969 123.554688 12.773438 C 123.722656 12.191406 124.070312 11.015625 124.371094 10.34375 C 124.417969 10.242188 124.472656 10.222656 124.507812 10.222656 C 124.675781 10.222656 124.886719 10.242188 125.019531 10.242188 C 125.671875 10.242188 126.285156 9.558594 126.285156 9.179688 C 126.285156 9.054688 126.230469 9 126.117188 9 C 126.074219 9 125.949219 9.191406 125.804688 9.28125 C 125.605469 9.402344 125.355469 9.414062 125.054688 9.414062 C 124.316406 9.414062 123.351562 9.347656 122.46875 9.347656 C 120.933594 9.347656 120.304688 10.1875 120.304688 10.9375 C 120.304688 11.09375 120.394531 11.261719 120.472656 11.261719 C 120.5625 11.261719 120.621094 11.160156 120.632812 11.0625 C 120.710938 10.390625 121.269531 9.964844 122.152344 10.03125 L 122.445312 10.054688 C 122.535156 10.0625 122.511719 10.140625 122.488281 10.199219 C 122.242188 10.824219 121.492188 12.238281 120.5625 13.535156 L 120.5625 13.761719 C 120.542969 13.871094 120.886719 14.085938 121.046875 14.085938 Z M 121.046875 14.085938 "/>
<path style=" stroke:none;fill-rule:evenodd;fill:rgb(0%,0%,0%);fill-opacity:1;" d="M 129.320312 8.195312 C 129.65625 8.195312 129.9375 7.890625 129.9375 7.554688 C 129.9375 7.320312 129.792969 7.074219 129.558594 7.074219 C 129.199219 7.074219 128.929688 7.398438 128.929688 7.757812 C 128.929688 7.980469 129.097656 8.195312 129.320312 8.195312 Z M 127.058594 14.097656 C 127.742188 14.097656 129.054688 12.910156 129.054688 12.4375 C 129.054688 12.40625 129.019531 12.382812 128.984375 12.382812 C 128.964844 12.382812 128.953125 12.394531 128.941406 12.40625 C 128.515625 12.832031 128.011719 13.355469 127.710938 13.355469 C 127.632812 13.355469 127.53125 13.335938 127.53125 13.222656 C 127.53125 13.132812 127.550781 13.019531 127.609375 12.898438 L 128.976562 9.660156 C 129.019531 9.546875 128.773438 9.222656 128.570312 9.3125 C 127.632812 9.738281 126.890625 10.390625 126.890625 10.578125 C 126.890625 10.65625 126.980469 10.691406 127.058594 10.636719 C 127.328125 10.433594 127.808594 10.210938 127.933594 10.210938 C 128.011719 10.210938 128.011719 10.277344 127.988281 10.34375 C 127.664062 11.160156 127.273438 12.304688 126.65625 13.535156 C 126.621094 13.601562 126.621094 13.660156 126.621094 13.714844 C 126.621094 13.894531 126.800781 14.097656 127.058594 14.097656 Z M 127.058594 14.097656 "/>
<path style=" stroke:none;fill-rule:evenodd;fill:rgb(0%,0%,0%);fill-opacity:1;" d="M 131.359375 16.191406 C 132.457031 15.84375 133.710938 14.96875 133.710938 13.917969 C 133.710938 13.601562 133.398438 13.019531 133.0625 13.019531 C 132.972656 13.019531 132.636719 13.054688 132.367188 13.066406 C 132.078125 13.089844 131.71875 13.097656 131.628906 13.097656 C 131.238281 13.097656 131.035156 12.988281 131.035156 12.640625 C 131.035156 11.8125 132.503906 10.714844 134.328125 10.289062 C 134.574219 10.230469 134.933594 9.875 134.933594 9.683594 C 134.933594 9.515625 134.832031 9.378906 134.574219 9.378906 C 134.285156 9.378906 133.542969 9.660156 133.109375 9.953125 C 132.660156 9.953125 132.46875 9.726562 132.46875 9.371094 C 132.46875 8.40625 133.621094 7.65625 134.417969 7.578125 C 135.660156 7.332031 135.808594 7.039062 135.808594 6.679688 C 135.808594 6.503906 135.730469 6.34375 135.59375 6.34375 C 135.269531 6.34375 134.273438 6.761719 133.398438 7.386719 C 133.117188 7.34375 132.996094 7.105469 132.996094 6.828125 C 132.996094 6.511719 133.21875 6.144531 133.578125 6.007812 C 133.722656 5.953125 133.746094 5.921875 133.746094 5.863281 C 133.746094 5.785156 133.601562 5.742188 133.523438 5.742188 C 132.941406 5.742188 132.210938 6.246094 132.210938 6.917969 C 132.210938 7.398438 132.773438 7.589844 133.140625 7.578125 C 132.457031 8.125 131.898438 8.808594 131.898438 9.539062 C 131.898438 9.886719 132.1875 10.0625 132.535156 10.222656 C 132.691406 10.289062 132.59375 10.332031 132.480469 10.398438 C 131.753906 10.894531 130.507812 11.96875 130.507812 13.144531 C 130.507812 13.511719 130.84375 14.007812 131.417969 14.007812 C 131.597656 14.007812 131.941406 13.960938 132.300781 13.929688 C 132.605469 13.894531 132.882812 13.859375 133.039062 13.859375 C 133.1875 13.859375 133.320312 13.90625 133.320312 14.027344 C 133.320312 14.296875 132.714844 14.847656 131.082031 15.394531 C 130.933594 15.441406 130.921875 15.574219 130.921875 15.699219 C 130.921875 15.933594 131.125 16.269531 131.359375 16.191406 Z M 131.359375 16.191406 "/>
<path style=" stroke:none;fill-rule:evenodd;fill:rgb(0%,0%,0%);fill-opacity:1;" d="M 136.277344 14.097656 C 136.546875 14.097656 136.792969 14.007812 137.105469 13.636719 C 137.476562 13.199219 137.835938 12.707031 138.191406 12.257812 C 138.28125 12.148438 138.328125 12.148438 138.371094 12.328125 L 138.617188 13.34375 C 138.753906 13.839844 138.910156 14.097656 139.324219 14.097656 C 139.972656 14.097656 140.488281 13.03125 140.488281 12.617188 C 140.488281 12.394531 140.445312 12.371094 140.386719 12.371094 C 140.332031 12.371094 140.285156 12.414062 140.242188 12.527344 C 140.019531 13.078125 139.714844 13.425781 139.503906 13.425781 C 139.425781 13.425781 139.324219 13.355469 139.269531 13.15625 L 138.886719 11.777344 C 138.832031 11.585938 138.851562 11.476562 138.910156 11.386719 C 139.1875 10.960938 139.4375 10.667969 139.648438 10.421875 C 139.90625 10.109375 140.109375 9.953125 140.285156 9.953125 C 140.386719 9.953125 140.453125 10.007812 140.535156 10.210938 C 140.578125 10.320312 140.644531 10.398438 140.734375 10.398438 C 140.925781 10.398438 141.207031 9.953125 141.195312 9.785156 C 141.183594 9.605469 140.914062 9.300781 140.621094 9.300781 C 140.21875 9.300781 139.839844 9.648438 139.613281 9.964844 L 138.832031 11.082031 C 138.753906 11.183594 138.695312 11.171875 138.675781 11.0625 L 138.394531 9.875 C 138.292969 9.480469 138.160156 9.300781 137.921875 9.300781 C 137.429688 9.300781 136.726562 10.140625 136.726562 10.578125 C 136.726562 10.691406 136.746094 10.769531 136.804688 10.769531 C 136.90625 10.769531 136.960938 10.636719 136.992188 10.589844 C 137.273438 10.1875 137.507812 10.007812 137.621094 10.007812 C 137.710938 10.007812 137.746094 10.03125 137.789062 10.199219 L 138.214844 11.765625 C 138.238281 11.832031 138.238281 11.910156 138.179688 11.96875 C 137.710938 12.503906 137.464844 12.832031 137.015625 13.289062 C 136.925781 13.378906 136.816406 13.433594 136.714844 13.425781 C 136.625 13.425781 136.546875 13.34375 136.5 13.167969 C 136.480469 13.066406 136.433594 12.964844 136.320312 12.964844 C 136.132812 12.964844 135.816406 13.414062 135.816406 13.671875 C 135.816406 13.960938 136.054688 14.097656 136.277344 14.097656 Z M 136.277344 14.097656 "/>
<path style=" stroke:none;fill-rule:evenodd;fill:rgb(0%,0%,0%);fill-opacity:1;" d="M 149.695312 21.125 C 149.761719 21.125 149.777344 21.125 149.953125 21.027344 C 150.703125 20.707031 151.230469 20.5625 151.824219 20.484375 C 151.9375 20.484375 152.046875 20.339844 152.046875 20.195312 C 152.046875 20.066406 151.96875 20.035156 151.761719 20.050781 C 151.488281 20.082031 151.183594 20.097656 151.070312 20.097656 C 150.832031 20.097656 150.734375 19.796875 150.734375 19.058594 L 150.734375 11.828125 C 150.734375 10.386719 150.847656 9.84375 150.847656 9.652344 C 150.832031 9.585938 150.800781 9.554688 150.734375 9.554688 C 150.6875 9.554688 150.609375 9.570312 150.527344 9.601562 C 150.222656 9.730469 149.742188 9.957031 148.800781 10.195312 C 148.703125 10.226562 148.671875 10.308594 148.671875 10.386719 C 148.671875 10.484375 148.71875 10.578125 148.816406 10.59375 C 149.328125 10.691406 149.617188 10.898438 149.617188 11.761719 L 149.617188 14.035156 C 149.617188 14.324219 149.550781 14.417969 149.503906 14.417969 C 149.457031 14.417969 149.390625 14.402344 149.296875 14.371094 C 149.054688 14.292969 148.574219 14.195312 148.144531 14.195312 C 145.902344 14.195312 144.542969 15.921875 144.542969 17.777344 C 144.542969 19.394531 145.679688 21.042969 147.503906 21.042969 C 148.558594 21.042969 149.28125 20.402344 149.601562 19.90625 L 149.601562 20.003906 C 149.601562 20.273438 149.519531 20.753906 149.519531 20.964844 C 149.519531 21.011719 149.648438 21.125 149.695312 21.125 Z M 148.078125 20.210938 C 147.375 20.210938 145.679688 19.828125 145.679688 17.410156 C 145.679688 15.28125 146.910156 14.753906 147.648438 14.753906 C 148.832031 14.753906 149.617188 15.683594 149.617188 16.546875 L 149.601562 19.425781 C 149.199219 19.890625 148.640625 20.210938 148.078125 20.210938 Z M 148.078125 20.210938 "/>
<path style=" stroke:none;fill-rule:evenodd;fill:rgb(0%,0%,0%);fill-opacity:1;" d="M 153.824219 24.035156 C 155.390625 23.539062 157.183594 22.292969 157.183594 20.789062 C 157.183594 20.339844 156.734375 19.507812 156.257812 19.507812 C 156.128906 19.507812 155.648438 19.554688 155.265625 19.570312 C 154.847656 19.601562 154.335938 19.621094 154.207031 19.621094 C 153.648438 19.621094 153.359375 19.460938 153.359375 18.964844 C 153.359375 17.777344 155.457031 16.210938 158.0625 15.601562 C 158.414062 15.523438 158.929688 15.011719 158.929688 14.738281 C 158.929688 14.5 158.785156 14.308594 158.414062 14.308594 C 158 14.308594 156.945312 14.707031 156.320312 15.125 C 155.679688 15.125 155.40625 14.804688 155.40625 14.292969 C 155.40625 12.914062 157.054688 11.84375 158.191406 11.730469 C 159.96875 11.378906 160.175781 10.964844 160.175781 10.453125 C 160.175781 10.195312 160.0625 9.972656 159.871094 9.972656 C 159.40625 9.972656 157.984375 10.5625 156.734375 11.460938 C 156.335938 11.394531 156.160156 11.058594 156.160156 10.660156 C 156.160156 10.210938 156.480469 9.683594 156.992188 9.492188 C 157.199219 9.410156 157.230469 9.363281 157.230469 9.28125 C 157.230469 9.171875 157.023438 9.105469 156.910156 9.105469 C 156.078125 9.105469 155.039062 9.828125 155.039062 10.789062 C 155.039062 11.476562 155.839844 11.746094 156.367188 11.730469 C 155.390625 12.515625 154.59375 13.492188 154.59375 14.53125 C 154.59375 15.027344 155.007812 15.28125 155.503906 15.507812 C 155.726562 15.601562 155.585938 15.667969 155.425781 15.761719 C 154.382812 16.46875 152.609375 18.003906 152.609375 19.683594 C 152.609375 20.210938 153.089844 20.914062 153.902344 20.914062 C 154.160156 20.914062 154.65625 20.851562 155.167969 20.804688 C 155.601562 20.753906 156 20.707031 156.222656 20.707031 C 156.433594 20.707031 156.625 20.769531 156.625 20.945312 C 156.625 21.332031 155.761719 22.113281 153.425781 22.898438 C 153.214844 22.964844 153.199219 23.15625 153.199219 23.332031 C 153.199219 23.667969 153.488281 24.148438 153.824219 24.035156 Z M 153.824219 24.035156 "/>
</g>
</svg>
