<?xml version="1.0" encoding="UTF-8"?>
<svg xmlns="http://www.w3.org/2000/svg" xmlns:xlink="http://www.w3.org/1999/xlink" width="163.681429pt" height="42.726402pt" viewBox="0 0 163.681429 42.726402" version="1.1">
<g id="surface1">
<path style=" stroke:none;fill-rule:evenodd;fill:rgb(50.196078%,50.196078%,50.196078%);fill-opacity:1;" d="M 73.433594 10.214844 C 73.847656 10.214844 74.320312 10.101562 74.746094 9.84375 C 74.914062 9.742188 74.945312 9.6875 74.945312 9.554688 C 74.945312 9.488281 74.890625 9.464844 74.824219 9.464844 C 74.757812 9.464844 74.679688 9.488281 74.609375 9.507812 C 74.511719 9.554688 74.253906 9.585938 73.984375 9.585938 C 73.109375 9.585938 72.550781 9.417969 71.800781 8.882812 C 71.238281 8.476562 70.8125 8.109375 70.378906 7.636719 C 70.34375 7.605469 70.332031 7.570312 70.332031 7.539062 C 70.332031 7.515625 70.34375 7.480469 70.421875 7.460938 C 72.203125 6.988281 73.144531 5.386719 73.144531 3.683594 C 73.144531 1.476562 71.398438 0 69.425781 0 C 66.9375 0 65.605469 1.894531 65.605469 3.910156 C 65.605469 5.746094 66.679688 6.753906 67.902344 7.324219 C 68.214844 7.46875 68.664062 7.605469 69.191406 8.042969 C 69.917969 8.644531 70.378906 8.960938 70.960938 9.375 C 71.675781 9.890625 72.359375 10.214844 73.433594 10.214844 Z M 69.492188 7.144531 C 67.621094 7.144531 66.679688 5.433594 66.679688 3.347656 C 66.679688 1.601562 67.554688 0.46875 69.246094 0.46875 C 71.117188 0.46875 72.070312 2.160156 72.070312 4.234375 C 72.070312 5.992188 71.207031 7.144531 69.492188 7.144531 Z M 69.492188 7.144531 "/>
<path style=" stroke:none;fill-rule:evenodd;fill:rgb(50.196078%,50.196078%,50.196078%);fill-opacity:1;" d="M 77.746094 7.648438 C 77.8125 7.648438 77.925781 7.605469 77.972656 7.582031 C 78.296875 7.449219 78.699219 7.28125 79.28125 7.203125 C 79.371094 7.191406 79.4375 7.167969 79.4375 7.042969 C 79.4375 6.910156 79.347656 6.898438 79.269531 6.898438 C 79.160156 6.898438 78.867188 6.933594 78.753906 6.933594 C 78.644531 6.933594 78.554688 6.777344 78.554688 6.371094 L 78.554688 3.785156 C 78.554688 3.605469 78.609375 3.089844 78.632812 3.011719 C 78.644531 2.96875 78.65625 2.933594 78.65625 2.910156 C 78.65625 2.832031 78.585938 2.789062 78.507812 2.789062 C 78.476562 2.789062 78.429688 2.800781 78.398438 2.8125 C 77.992188 2.921875 77.703125 2.980469 77.019531 2.992188 C 76.894531 2.992188 76.785156 3.023438 76.785156 3.160156 C 76.785156 3.316406 76.882812 3.347656 77.019531 3.347656 C 77.242188 3.347656 77.769531 3.449219 77.769531 3.910156 L 77.769531 5.957031 C 77.769531 6.417969 77.433594 6.675781 77.265625 6.796875 C 76.984375 7.011719 76.707031 7.023438 76.324219 7.023438 C 75.84375 7.023438 75.382812 6.539062 75.382812 6.003906 L 75.382812 3.820312 C 75.382812 3.484375 75.40625 3.304688 75.449219 2.957031 C 75.460938 2.832031 75.40625 2.800781 75.339844 2.800781 C 75.304688 2.800781 75.292969 2.800781 75.25 2.8125 C 74.835938 2.910156 74.644531 2.957031 74.140625 2.992188 C 74.050781 3 73.972656 3.035156 73.972656 3.167969 C 73.972656 3.292969 74.039062 3.328125 74.117188 3.347656 C 74.453125 3.484375 74.601562 3.664062 74.601562 3.988281 L 74.601562 6.261719 C 74.601562 7.132812 75.148438 7.59375 75.875 7.59375 C 76.570312 7.59375 77.140625 7.371094 77.726562 6.796875 L 77.726562 6.867188 C 77.726562 7.054688 77.667969 7.414062 77.667969 7.558594 C 77.667969 7.617188 77.691406 7.648438 77.746094 7.648438 Z M 77.746094 7.648438 "/>
<path style=" stroke:none;fill-rule:evenodd;fill:rgb(50.196078%,50.196078%,50.196078%);fill-opacity:1;" d="M 80.859375 7.59375 C 81.34375 7.59375 81.769531 7.414062 82.261719 7.011719 L 82.292969 7.011719 C 82.496094 7.402344 82.765625 7.59375 83.113281 7.59375 C 83.347656 7.59375 83.648438 7.4375 83.882812 7.203125 C 83.953125 7.132812 84.007812 7.023438 84.007812 6.957031 C 84.007812 6.886719 83.953125 6.832031 83.882812 6.832031 C 83.863281 6.832031 83.839844 6.84375 83.796875 6.886719 C 83.695312 6.976562 83.570312 7.011719 83.378906 7.011719 C 83.132812 7.011719 82.964844 6.796875 82.976562 6.484375 L 83.035156 3.796875 C 83.042969 3.226562 82.652344 2.800781 82.113281 2.800781 C 81.667969 2.800781 80.949219 3.136719 80.445312 3.59375 C 80.167969 3.839844 80 4.132812 80 4.367188 C 80 4.425781 80.042969 4.46875 80.121094 4.46875 C 80.34375 4.46875 80.859375 4.1875 80.859375 4.078125 L 80.847656 3.875 C 80.847656 3.742188 80.871094 3.617188 80.960938 3.550781 C 81.105469 3.425781 81.351562 3.347656 81.578125 3.347656 C 82.003906 3.347656 82.25 3.671875 82.238281 4.066406 L 82.214844 4.78125 C 82.203125 5.085938 82.195312 5.105469 81.902344 5.230469 L 80.761719 5.699219 C 80.210938 5.925781 79.964844 6.160156 79.964844 6.628906 C 79.964844 7.042969 80.457031 7.59375 80.859375 7.59375 Z M 81.386719 7.054688 C 81.117188 7.054688 80.839844 6.855469 80.839844 6.460938 C 80.839844 6.203125 81.097656 5.890625 81.890625 5.601562 C 82.015625 5.554688 82.082031 5.542969 82.113281 5.542969 C 82.203125 5.542969 82.226562 5.609375 82.214844 5.777344 L 82.195312 6.328125 C 82.183594 6.609375 82.125 6.707031 82.046875 6.789062 C 81.878906 6.957031 81.679688 7.054688 81.386719 7.054688 Z M 81.386719 7.054688 "/>
<path style=" stroke:none;fill-rule:evenodd;fill:rgb(50.196078%,50.196078%,50.196078%);fill-opacity:1;" d="M 84.566406 7.46875 C 85.015625 7.46875 85.082031 7.414062 85.476562 7.414062 C 85.867188 7.414062 86 7.46875 86.449219 7.46875 C 86.605469 7.46875 86.671875 7.4375 86.671875 7.347656 C 86.671875 7.246094 86.574219 7.210938 86.414062 7.167969 C 86.046875 7.054688 85.824219 6.945312 85.824219 6.742188 L 85.824219 4.480469 C 85.824219 3.730469 86.238281 3.539062 86.59375 3.539062 C 86.707031 3.539062 86.832031 3.59375 86.953125 3.640625 C 87.066406 3.695312 87.175781 3.742188 87.265625 3.742188 C 87.492188 3.742188 87.703125 3.382812 87.703125 3.160156 C 87.703125 2.957031 87.480469 2.800781 87.167969 2.800781 C 86.730469 2.800781 86.238281 3.125 85.878906 3.5625 C 85.867188 3.5625 85.855469 3.550781 85.855469 3.539062 C 85.878906 3.179688 85.890625 2.777344 85.890625 2.699219 C 85.890625 2.65625 85.867188 2.621094 85.832031 2.621094 C 85.800781 2.621094 85.753906 2.644531 85.664062 2.699219 C 85.429688 2.84375 84.949219 3.125 84.558594 3.246094 C 84.511719 3.257812 84.457031 3.316406 84.457031 3.382812 C 84.457031 3.449219 84.511719 3.515625 84.566406 3.527344 C 84.9375 3.605469 85.027344 3.929688 85.027344 4.335938 L 85.027344 6.742188 C 85.027344 6.957031 84.882812 7.101562 84.601562 7.167969 C 84.433594 7.210938 84.34375 7.234375 84.34375 7.347656 C 84.34375 7.4375 84.410156 7.46875 84.566406 7.46875 Z M 84.566406 7.46875 "/>
<path style=" stroke:none;fill-rule:evenodd;fill:rgb(50.196078%,50.196078%,50.196078%);fill-opacity:1;" d="M 89.875 7.59375 C 90.558594 7.59375 91.1875 7.035156 91.1875 6.910156 C 91.1875 6.832031 91.164062 6.753906 91.109375 6.753906 C 91.097656 6.753906 91.074219 6.765625 91.0625 6.777344 C 90.875 6.910156 90.671875 6.976562 90.234375 6.976562 C 89.753906 6.976562 89.496094 6.621094 89.496094 6.015625 L 89.496094 3.808594 C 89.496094 3.503906 89.5625 3.496094 89.945312 3.496094 L 91.050781 3.496094 C 91.109375 3.496094 91.164062 3.335938 91.164062 3.203125 C 91.164062 3.070312 91.109375 2.957031 91.050781 2.957031 L 89.777344 2.957031 C 89.585938 2.957031 89.484375 2.910156 89.507812 2.742188 L 89.5625 2.238281 C 89.574219 2.140625 89.484375 2.117188 89.417969 2.117188 C 89.339844 2.117188 89.292969 2.171875 89.226562 2.25 C 89.027344 2.496094 88.667969 2.84375 88.230469 3.148438 C 88.207031 3.160156 88.152344 3.238281 88.152344 3.269531 C 88.152344 3.382812 88.207031 3.496094 88.285156 3.496094 L 88.351562 3.496094 C 88.644531 3.496094 88.710938 3.539062 88.710938 3.664062 L 88.710938 6.261719 C 88.710938 7.144531 89.148438 7.59375 89.875 7.59375 Z M 89.875 7.59375 "/>
<path style=" stroke:none;fill-rule:evenodd;fill:rgb(50.196078%,50.196078%,50.196078%);fill-opacity:1;" d="M 92.664062 1.65625 C 92.992188 1.65625 93.238281 1.410156 93.238281 1.097656 C 93.238281 0.773438 92.992188 0.527344 92.664062 0.527344 C 92.351562 0.527344 92.105469 0.773438 92.105469 1.097656 C 92.105469 1.410156 92.351562 1.65625 92.664062 1.65625 Z M 91.769531 7.46875 C 92.207031 7.46875 92.285156 7.414062 92.675781 7.414062 C 93.070312 7.414062 93.160156 7.46875 93.582031 7.46875 C 93.730469 7.46875 93.808594 7.4375 93.808594 7.347656 C 93.808594 7.234375 93.671875 7.203125 93.550781 7.167969 C 93.246094 7.089844 93.070312 7 93.070312 6.742188 L 93.070312 4.144531 C 93.070312 3.640625 93.167969 2.8125 93.167969 2.632812 C 93.167969 2.597656 93.148438 2.574219 93.101562 2.574219 C 93.058594 2.574219 93 2.609375 92.945312 2.65625 C 92.753906 2.8125 92.363281 3.078125 91.769531 3.214844 C 91.703125 3.226562 91.667969 3.269531 91.667969 3.347656 C 91.667969 3.4375 91.703125 3.484375 91.78125 3.496094 C 92.160156 3.550781 92.285156 3.910156 92.285156 4.3125 L 92.285156 6.742188 C 92.285156 7.011719 92.117188 7.089844 91.804688 7.167969 C 91.679688 7.203125 91.546875 7.234375 91.546875 7.347656 C 91.546875 7.4375 91.636719 7.46875 91.769531 7.46875 Z M 91.769531 7.46875 "/>
<path style=" stroke:none;fill-rule:evenodd;fill:rgb(50.196078%,50.196078%,50.196078%);fill-opacity:1;" d="M 96.40625 7.605469 C 97.089844 7.605469 97.660156 7.359375 98.019531 6.898438 C 98.132812 6.753906 98.1875 6.640625 98.1875 6.550781 C 98.1875 6.460938 98.132812 6.394531 98.0625 6.394531 C 98.03125 6.394531 97.984375 6.417969 97.953125 6.453125 C 97.59375 6.808594 97.324219 6.933594 96.886719 6.933594 C 95.9375 6.933594 95.183594 6.113281 95.183594 5.0625 C 95.183594 3.964844 95.691406 3.214844 96.417969 3.214844 C 96.6875 3.214844 97.144531 3.496094 97.46875 3.742188 C 97.558594 3.808594 97.628906 3.863281 97.707031 3.863281 C 97.894531 3.863281 98.1875 3.59375 98.1875 3.40625 C 98.1875 3.328125 98.140625 3.257812 98.050781 3.191406 C 97.695312 2.933594 97.257812 2.800781 96.777344 2.800781 C 95.464844 2.800781 94.414062 3.964844 94.414062 5.421875 C 94.414062 6.664062 95.273438 7.605469 96.40625 7.605469 Z M 96.40625 7.605469 "/>
<path style=" stroke:none;fill-rule:evenodd;fill:rgb(50.196078%,50.196078%,50.196078%);fill-opacity:1;" d="M 23.730469 13.558594 C 15.136719 13.558594 14.6875 13.542969 6.015625 13.542969 C 3.519531 13.542969 0.0507812 14.726562 -0.0625 16.421875 C -0.0625 16.503906 0 16.550781 0.0820312 16.550781 C 0.195312 16.550781 0.195312 16.40625 0.210938 16.292969 C 0.480469 14.886719 3.664062 14.566406 5.96875 14.566406 C 14.625 14.566406 15.167969 14.582031 23.730469 14.582031 Z M 23.730469 13.558594 "/>
<path style=" stroke:none;fill-rule:evenodd;fill:rgb(50.196078%,50.196078%,50.196078%);fill-opacity:1;" d="M 20.304688 14.566406 C 28.960938 14.566406 27.746094 14.582031 36.304688 14.582031 L 36.304688 13.558594 C 27.714844 13.558594 28.976562 13.542969 20.304688 13.542969 Z M 20.304688 14.566406 "/>
<path style=" stroke:none;fill-rule:evenodd;fill:rgb(50.196078%,50.196078%,50.196078%);fill-opacity:1;" d="M 32.898438 14.566406 C 41.554688 14.566406 40.335938 14.582031 48.898438 14.582031 L 48.898438 13.558594 C 40.304688 13.558594 41.570312 13.542969 32.898438 13.542969 Z M 32.898438 14.566406 "/>
<path style=" stroke:none;fill-rule:evenodd;fill:rgb(50.196078%,50.196078%,50.196078%);fill-opacity:1;" d="M 45.488281 14.566406 C 54.144531 14.566406 52.929688 14.582031 61.488281 14.582031 L 61.488281 13.558594 C 52.898438 13.558594 54.160156 13.542969 45.488281 13.542969 Z M 45.488281 14.566406 "/>
<path style=" stroke:none;fill-rule:evenodd;fill:rgb(50.196078%,50.196078%,50.196078%);fill-opacity:1;" d="M 105.570312 13.558594 L 87.808594 13.558594 C 85.648438 13.558594 82.433594 13.175781 81.96875 11.992188 C 81.953125 11.910156 81.890625 11.8125 81.808594 11.8125 C 81.746094 11.8125 81.664062 11.878906 81.632812 12.023438 C 81.089844 13.300781 78 13.558594 75.839844 13.558594 L 58.082031 13.558594 L 58.082031 14.566406 C 66.738281 14.566406 67.183594 14.582031 75.746094 14.582031 C 77.984375 14.582031 81.027344 13.671875 81.792969 12.519531 C 81.808594 12.488281 81.824219 12.503906 81.839844 12.535156 C 82.351562 13.621094 85.664062 14.582031 87.90625 14.582031 C 96.464844 14.582031 96.914062 14.566406 105.570312 14.566406 Z M 105.570312 13.558594 "/>
<path style=" stroke:none;fill-rule:evenodd;fill:rgb(50.196078%,50.196078%,50.196078%);fill-opacity:1;" d="M 102.144531 14.566406 C 110.800781 14.566406 109.585938 14.582031 118.144531 14.582031 L 118.144531 13.558594 C 109.554688 13.558594 110.816406 13.542969 102.144531 13.542969 Z M 102.144531 14.566406 "/>
<path style=" stroke:none;fill-rule:evenodd;fill:rgb(50.196078%,50.196078%,50.196078%);fill-opacity:1;" d="M 114.738281 14.566406 C 123.394531 14.566406 122.175781 14.582031 130.738281 14.582031 L 130.738281 13.558594 C 122.144531 13.558594 123.410156 13.542969 114.738281 13.542969 Z M 114.738281 14.566406 "/>
<path style=" stroke:none;fill-rule:evenodd;fill:rgb(50.196078%,50.196078%,50.196078%);fill-opacity:1;" d="M 127.328125 14.566406 C 135.984375 14.566406 134.769531 14.582031 143.328125 14.582031 L 143.328125 13.558594 C 134.738281 13.558594 136 13.542969 127.328125 13.542969 Z M 127.328125 14.566406 "/>
<path style=" stroke:none;fill-rule:evenodd;fill:rgb(50.196078%,50.196078%,50.196078%);fill-opacity:1;" d="M 139.921875 14.582031 C 148.480469 14.582031 149.027344 14.566406 157.679688 14.566406 C 159.984375 14.566406 163.21875 14.871094 163.425781 16.277344 C 163.441406 16.390625 163.425781 16.519531 163.539062 16.519531 C 163.617188 16.519531 163.699219 16.421875 163.679688 16.34375 C 163.519531 14.644531 160.128906 13.542969 157.632812 13.542969 C 148.960938 13.542969 148.511719 13.558594 139.921875 13.558594 Z M 139.921875 14.582031 "/>
<path style=" stroke:none;fill-rule:evenodd;fill:rgb(50.196078%,50.196078%,50.196078%);fill-opacity:1;" d="M 1.902344 30.492188 C 3.199219 30.492188 4.351562 29.246094 4.351562 28.910156 C 4.351562 28.796875 4.320312 28.699219 4.222656 28.699219 C 4.097656 28.699219 4.046875 28.765625 3.902344 28.910156 C 3.488281 29.292969 3.167969 29.597656 2.480469 29.597656 C 2.015625 29.597656 1.710938 29.390625 1.710938 28.683594 C 1.710938 26.925781 3.070312 24.0625 4.097656 24.0625 C 4.449219 24.0625 4.625 24.300781 4.753906 24.539062 C 4.863281 24.75 4.960938 24.925781 5.136719 24.925781 C 5.359375 24.925781 5.617188 24.492188 5.617188 24.140625 C 5.617188 23.867188 5.3125 23.628906 4.734375 23.628906 C 2.015625 23.628906 0.59375 26.894531 0.558594 28.8125 C 0.542969 29.804688 1.328125 30.492188 1.902344 30.492188 Z M 1.902344 30.492188 "/>
<path style=" stroke:none;fill-rule:evenodd;fill:rgb(50.196078%,50.196078%,50.196078%);fill-opacity:1;" d="M 5.898438 35.40625 C 6.503906 35.40625 6.617188 35.351562 7.1875 35.351562 C 7.714844 35.351562 7.8125 35.40625 8.453125 35.40625 C 8.542969 35.40625 8.621094 35.351562 8.621094 35.28125 C 8.621094 35.214844 8.507812 35.148438 8.417969 35.125 C 7.8125 34.96875 7.667969 34.867188 7.667969 34.433594 L 7.667969 33.378906 C 7.667969 33.367188 7.757812 33.324219 7.8125 33.3125 C 7.902344 33.300781 8.027344 33.289062 8.160156 33.289062 C 8.339844 33.289062 8.542969 33.300781 8.710938 33.300781 C 8.753906 33.300781 8.945312 33.054688 8.945312 32.875 C 8.945312 32.832031 8.890625 32.785156 8.824219 32.785156 C 8.574219 32.796875 8.375 32.808594 8.160156 32.808594 C 8.027344 32.808594 7.882812 32.808594 7.714844 32.796875 C 7.679688 32.796875 7.65625 32.761719 7.65625 32.730469 L 7.65625 31.285156 C 7.65625 30.8125 7.65625 30.566406 7.488281 30.566406 C 7.390625 30.566406 7.085938 30.589844 6.863281 30.714844 C 6.773438 30.757812 6.761719 30.804688 6.761719 30.960938 L 6.761719 32.695312 C 6.761719 32.742188 6.683594 32.785156 6.628906 32.785156 L 4.691406 32.785156 C 4.644531 32.785156 4.667969 32.71875 4.691406 32.683594 L 7.714844 28.339844 C 7.714844 28.339844 7.804688 28.183594 7.734375 28.183594 L 7.5 28.183594 C 7.390625 28.183594 7.253906 28.363281 7.164062 28.496094 L 4.207031 32.742188 C 4.0625 32.941406 4.050781 32.921875 3.769531 33.265625 C 3.761719 33.277344 3.761719 33.289062 3.761719 33.300781 C 3.761719 33.34375 3.816406 33.414062 3.871094 33.414062 C 5.046875 33.402344 5.675781 33.335938 6.59375 33.335938 C 6.605469 33.335938 6.761719 33.367188 6.761719 33.433594 L 6.761719 34.476562 C 6.761719 34.835938 6.59375 35.035156 5.898438 35.125 C 5.808594 35.136719 5.699219 35.183594 5.699219 35.261719 C 5.699219 35.363281 5.820312 35.40625 5.898438 35.40625 Z M 5.898438 35.40625 "/>
<path style=" stroke:none;fill-rule:evenodd;fill:rgb(50.196078%,50.196078%,50.196078%);fill-opacity:1;" d="M 9.894531 30.476562 C 10.277344 30.476562 10.628906 30.347656 11.078125 29.820312 C 11.605469 29.195312 12.117188 28.492188 12.628906 27.851562 C 12.757812 27.691406 12.820312 27.691406 12.886719 27.949219 L 13.238281 29.40625 C 13.429688 30.109375 13.652344 30.476562 14.246094 30.476562 C 15.171875 30.476562 15.910156 28.957031 15.910156 28.363281 C 15.910156 28.042969 15.84375 28.011719 15.765625 28.011719 C 15.683594 28.011719 15.621094 28.078125 15.558594 28.238281 C 15.238281 29.019531 14.804688 29.515625 14.5 29.515625 C 14.390625 29.515625 14.246094 29.421875 14.164062 29.132812 L 13.621094 27.164062 C 13.539062 26.894531 13.574219 26.734375 13.652344 26.605469 C 14.054688 25.996094 14.40625 25.582031 14.707031 25.230469 C 15.078125 24.78125 15.363281 24.558594 15.621094 24.558594 C 15.765625 24.558594 15.859375 24.636719 15.972656 24.925781 C 16.035156 25.085938 16.132812 25.195312 16.261719 25.195312 C 16.53125 25.195312 16.933594 24.558594 16.917969 24.316406 C 16.902344 24.0625 16.515625 23.628906 16.101562 23.628906 C 15.523438 23.628906 14.980469 24.125 14.660156 24.574219 L 13.539062 26.171875 C 13.429688 26.316406 13.347656 26.300781 13.316406 26.140625 L 12.917969 24.445312 C 12.773438 23.886719 12.582031 23.628906 12.246094 23.628906 C 11.539062 23.628906 10.53125 24.828125 10.53125 25.453125 C 10.53125 25.613281 10.566406 25.726562 10.644531 25.726562 C 10.789062 25.726562 10.867188 25.53125 10.917969 25.46875 C 11.316406 24.894531 11.652344 24.636719 11.8125 24.636719 C 11.941406 24.636719 11.988281 24.667969 12.054688 24.910156 L 12.660156 27.148438 C 12.691406 27.246094 12.691406 27.355469 12.613281 27.4375 C 11.941406 28.203125 11.589844 28.667969 10.949219 29.324219 C 10.820312 29.453125 10.660156 29.53125 10.515625 29.515625 C 10.390625 29.515625 10.277344 29.40625 10.210938 29.148438 C 10.179688 29.003906 10.117188 28.859375 9.957031 28.859375 C 9.683594 28.859375 9.238281 29.5 9.238281 29.867188 C 9.238281 30.285156 9.574219 30.476562 9.894531 30.476562 Z M 9.894531 30.476562 "/>
<path style=" stroke:none;fill-rule:evenodd;fill:rgb(50.196078%,50.196078%,50.196078%);fill-opacity:1;" d="M 19.34375 25.488281 C 19.949219 25.488281 20.0625 25.429688 20.632812 25.429688 C 21.160156 25.429688 21.257812 25.488281 21.898438 25.488281 C 21.988281 25.488281 22.066406 25.429688 22.066406 25.363281 C 22.066406 25.296875 21.953125 25.230469 21.863281 25.207031 C 21.257812 25.050781 21.113281 24.949219 21.113281 24.511719 L 21.113281 23.460938 C 21.113281 23.449219 21.203125 23.402344 21.257812 23.390625 C 21.347656 23.378906 21.472656 23.371094 21.605469 23.371094 C 21.785156 23.371094 21.988281 23.378906 22.15625 23.378906 C 22.199219 23.378906 22.390625 23.132812 22.390625 22.957031 C 22.390625 22.910156 22.335938 22.867188 22.265625 22.867188 C 22.019531 22.875 21.820312 22.886719 21.605469 22.886719 C 21.472656 22.886719 21.328125 22.886719 21.160156 22.875 C 21.125 22.875 21.101562 22.84375 21.101562 22.808594 L 21.101562 21.363281 C 21.101562 20.894531 21.101562 20.648438 20.933594 20.648438 C 20.832031 20.648438 20.53125 20.671875 20.308594 20.792969 C 20.21875 20.839844 20.207031 20.882812 20.207031 21.039062 L 20.207031 22.777344 C 20.207031 22.820312 20.128906 22.867188 20.070312 22.867188 L 18.132812 22.867188 C 18.089844 22.867188 18.113281 22.796875 18.132812 22.765625 L 21.160156 18.417969 C 21.160156 18.417969 21.246094 18.261719 21.179688 18.261719 L 20.945312 18.261719 C 20.832031 18.261719 20.699219 18.441406 20.609375 18.574219 L 17.652344 22.820312 C 17.507812 23.023438 17.496094 23 17.214844 23.347656 C 17.203125 23.359375 17.203125 23.371094 17.203125 23.378906 C 17.203125 23.425781 17.261719 23.492188 17.316406 23.492188 C 18.492188 23.480469 19.121094 23.414062 20.039062 23.414062 C 20.050781 23.414062 20.207031 23.449219 20.207031 23.515625 L 20.207031 24.558594 C 20.207031 24.914062 20.039062 25.117188 19.34375 25.207031 C 19.253906 25.21875 19.140625 25.261719 19.140625 25.339844 C 19.140625 25.441406 19.265625 25.488281 19.34375 25.488281 Z M 19.34375 25.488281 "/>
<path style=" stroke:none;fill-rule:evenodd;fill:rgb(50.196078%,50.196078%,50.196078%);fill-opacity:1;" d="M 30.636719 30.378906 C 30.78125 30.378906 31.40625 30.332031 31.40625 29.996094 L 31.40625 26.765625 C 31.40625 26.71875 31.421875 26.699219 31.46875 26.699219 L 34.429688 26.699219 C 34.734375 26.699219 34.925781 26.332031 34.925781 26.0625 C 34.925781 25.964844 34.828125 25.902344 34.71875 25.902344 L 31.4375 25.902344 C 31.40625 25.902344 31.40625 25.886719 31.40625 25.804688 L 31.40625 22.75 C 31.40625 22.636719 31.292969 22.539062 31.179688 22.539062 C 31.085938 22.539062 30.445312 22.683594 30.445312 23.035156 L 30.445312 25.773438 C 30.445312 25.867188 30.429688 25.902344 30.332031 25.902344 L 27.308594 25.902344 C 27.019531 25.902344 26.925781 26.363281 26.925781 26.507812 C 26.925781 26.605469 27.039062 26.699219 27.148438 26.699219 L 30.382812 26.699219 C 30.429688 26.699219 30.445312 26.734375 30.445312 26.78125 L 30.445312 30.15625 C 30.445312 30.269531 30.542969 30.378906 30.636719 30.378906 Z M 30.636719 30.378906 "/>
<path style=" stroke:none;fill-rule:evenodd;fill:rgb(50.196078%,50.196078%,50.196078%);fill-opacity:1;" d="M 41.183594 30.492188 C 42.480469 30.492188 43.632812 29.246094 43.632812 28.910156 C 43.632812 28.796875 43.601562 28.699219 43.503906 28.699219 C 43.375 28.699219 43.328125 28.765625 43.183594 28.910156 C 42.769531 29.292969 42.449219 29.597656 41.761719 29.597656 C 41.296875 29.597656 40.992188 29.390625 40.992188 28.683594 C 40.992188 26.925781 42.351562 24.0625 43.375 24.0625 C 43.730469 24.0625 43.90625 24.300781 44.03125 24.539062 C 44.144531 24.75 44.242188 24.925781 44.417969 24.925781 C 44.640625 24.925781 44.898438 24.492188 44.898438 24.140625 C 44.898438 23.867188 44.59375 23.628906 44.015625 23.628906 C 41.296875 23.628906 39.871094 26.894531 39.839844 28.8125 C 39.824219 29.804688 40.609375 30.492188 41.183594 30.492188 Z M 41.183594 30.492188 "/>
<path style=" stroke:none;fill-rule:evenodd;fill:rgb(50.196078%,50.196078%,50.196078%);fill-opacity:1;" d="M 45.207031 35.796875 C 46.730469 35.796875 48.324219 34.777344 48.324219 33.097656 C 48.324219 32.148438 47.570312 31.339844 46.621094 31.339844 C 46.5625 31.339844 46.5625 31.296875 46.609375 31.273438 C 47.480469 30.769531 47.785156 30.132812 47.785156 29.59375 C 47.785156 28.832031 47.066406 28.316406 46.328125 28.316406 C 44.804688 28.316406 44.167969 29.378906 44.167969 29.773438 C 44.167969 29.886719 44.289062 29.984375 44.347656 29.984375 C 44.515625 29.984375 44.695312 28.988281 45.847656 28.988281 C 46.453125 28.988281 46.898438 29.539062 46.898438 30.152344 C 46.898438 30.949219 45.746094 31.53125 45.488281 31.65625 C 45.34375 31.722656 45.207031 31.84375 45.152344 32.035156 C 45.128906 32.113281 45.265625 32.179688 45.34375 32.136719 C 45.601562 31.992188 45.902344 31.96875 46.070312 31.96875 C 46.933594 31.96875 47.371094 32.875 47.371094 33.738281 C 47.371094 34.667969 46.550781 35.371094 45.734375 35.371094 C 45.320312 35.371094 45.085938 35.195312 44.894531 35.027344 C 44.75 34.914062 44.625 34.800781 44.457031 34.800781 C 44.289062 34.800781 43.964844 35.160156 43.964844 35.316406 C 43.964844 35.496094 44.683594 35.796875 45.207031 35.796875 Z M 45.207031 35.796875 "/>
<path style=" stroke:none;fill-rule:evenodd;fill:rgb(50.196078%,50.196078%,50.196078%);fill-opacity:1;" d="M 49.828125 30.476562 C 50.214844 30.476562 50.566406 30.347656 51.011719 29.820312 C 51.542969 29.195312 52.054688 28.492188 52.566406 27.851562 C 52.695312 27.691406 52.757812 27.691406 52.820312 27.949219 L 53.171875 29.40625 C 53.367188 30.109375 53.589844 30.476562 54.179688 30.476562 C 55.109375 30.476562 55.84375 28.957031 55.84375 28.363281 C 55.84375 28.042969 55.78125 28.011719 55.703125 28.011719 C 55.621094 28.011719 55.558594 28.078125 55.492188 28.238281 C 55.171875 29.019531 54.742188 29.515625 54.4375 29.515625 C 54.324219 29.515625 54.179688 29.421875 54.101562 29.132812 L 53.558594 27.164062 C 53.476562 26.894531 53.507812 26.734375 53.589844 26.605469 C 53.988281 25.996094 54.339844 25.582031 54.644531 25.230469 C 55.011719 24.78125 55.300781 24.558594 55.558594 24.558594 C 55.703125 24.558594 55.796875 24.636719 55.910156 24.925781 C 55.972656 25.085938 56.070312 25.195312 56.199219 25.195312 C 56.46875 25.195312 56.871094 24.558594 56.851562 24.316406 C 56.835938 24.0625 56.453125 23.628906 56.039062 23.628906 C 55.460938 23.628906 54.917969 24.125 54.597656 24.574219 L 53.476562 26.171875 C 53.367188 26.316406 53.285156 26.300781 53.253906 26.140625 L 52.851562 24.445312 C 52.710938 23.886719 52.515625 23.628906 52.179688 23.628906 C 51.476562 23.628906 50.46875 24.828125 50.46875 25.453125 C 50.46875 25.613281 50.5 25.726562 50.582031 25.726562 C 50.726562 25.726562 50.804688 25.53125 50.851562 25.46875 C 51.253906 24.894531 51.589844 24.636719 51.75 24.636719 C 51.878906 24.636719 51.925781 24.667969 51.988281 24.910156 L 52.597656 27.148438 C 52.628906 27.246094 52.628906 27.355469 52.550781 27.4375 C 51.878906 28.203125 51.527344 28.667969 50.886719 29.324219 C 50.757812 29.453125 50.597656 29.53125 50.453125 29.515625 C 50.324219 29.515625 50.214844 29.40625 50.148438 29.148438 C 50.117188 29.003906 50.054688 28.859375 49.894531 28.859375 C 49.621094 28.859375 49.171875 29.5 49.171875 29.867188 C 49.171875 30.285156 49.507812 30.476562 49.828125 30.476562 Z M 49.828125 30.476562 "/>
<path style=" stroke:none;fill-rule:evenodd;fill:rgb(50.196078%,50.196078%,50.196078%);fill-opacity:1;" d="M 58.652344 25.878906 C 60.175781 25.878906 61.765625 24.859375 61.765625 23.179688 C 61.765625 22.226562 61.015625 21.421875 60.066406 21.421875 C 60.007812 21.421875 60.007812 21.375 60.054688 21.355469 C 60.925781 20.847656 61.230469 20.210938 61.230469 19.671875 C 61.230469 18.910156 60.511719 18.398438 59.773438 18.398438 C 58.25 18.398438 57.613281 19.460938 57.613281 19.851562 C 57.613281 19.964844 57.734375 20.066406 57.792969 20.066406 C 57.960938 20.066406 58.136719 19.070312 59.292969 19.070312 C 59.898438 19.070312 60.34375 19.617188 60.34375 20.234375 C 60.34375 21.027344 59.191406 21.609375 58.933594 21.734375 C 58.789062 21.800781 58.652344 21.925781 58.597656 22.113281 C 58.574219 22.195312 58.710938 22.261719 58.789062 22.214844 C 59.046875 22.070312 59.347656 22.046875 59.515625 22.046875 C 60.378906 22.046875 60.816406 22.957031 60.816406 23.816406 C 60.816406 24.746094 59.996094 25.453125 59.179688 25.453125 C 58.765625 25.453125 58.53125 25.273438 58.339844 25.105469 C 58.195312 24.992188 58.070312 24.882812 57.902344 24.882812 C 57.734375 24.882812 57.410156 25.238281 57.410156 25.398438 C 57.410156 25.574219 58.128906 25.878906 58.652344 25.878906 Z M 58.652344 25.878906 "/>
<path style=" stroke:none;fill-rule:evenodd;fill:rgb(50.196078%,50.196078%,50.196078%);fill-opacity:1;" d="M 70.574219 30.378906 C 70.71875 30.378906 71.34375 30.332031 71.34375 29.996094 L 71.34375 26.765625 C 71.34375 26.71875 71.359375 26.699219 71.40625 26.699219 L 74.367188 26.699219 C 74.667969 26.699219 74.863281 26.332031 74.863281 26.0625 C 74.863281 25.964844 74.765625 25.902344 74.652344 25.902344 L 71.375 25.902344 C 71.34375 25.902344 71.34375 25.886719 71.34375 25.804688 L 71.34375 22.75 C 71.34375 22.636719 71.230469 22.539062 71.117188 22.539062 C 71.023438 22.539062 70.382812 22.683594 70.382812 23.035156 L 70.382812 25.773438 C 70.382812 25.867188 70.367188 25.902344 70.269531 25.902344 L 67.246094 25.902344 C 66.957031 25.902344 66.863281 26.363281 66.863281 26.507812 C 66.863281 26.605469 66.972656 26.699219 67.085938 26.699219 L 70.316406 26.699219 C 70.367188 26.699219 70.382812 26.734375 70.382812 26.78125 L 70.382812 30.15625 C 70.382812 30.269531 70.476562 30.378906 70.574219 30.378906 Z M 70.574219 30.378906 "/>
<path style=" stroke:none;fill-rule:evenodd;fill:rgb(50.196078%,50.196078%,50.196078%);fill-opacity:1;" d="M 81.121094 30.492188 C 82.417969 30.492188 83.570312 29.246094 83.570312 28.910156 C 83.570312 28.796875 83.539062 28.699219 83.441406 28.699219 C 83.3125 28.699219 83.265625 28.765625 83.121094 28.910156 C 82.707031 29.292969 82.386719 29.597656 81.699219 29.597656 C 81.234375 29.597656 80.929688 29.390625 80.929688 28.683594 C 80.929688 26.925781 82.289062 24.0625 83.3125 24.0625 C 83.664062 24.0625 83.839844 24.300781 83.96875 24.539062 C 84.082031 24.75 84.175781 24.925781 84.351562 24.925781 C 84.578125 24.925781 84.832031 24.492188 84.832031 24.140625 C 84.832031 23.867188 84.53125 23.628906 83.953125 23.628906 C 81.234375 23.628906 79.808594 26.894531 79.777344 28.8125 C 79.761719 29.804688 80.546875 30.492188 81.121094 30.492188 Z M 81.121094 30.492188 "/>
<path style=" stroke:none;fill-rule:evenodd;fill:rgb(50.196078%,50.196078%,50.196078%);fill-opacity:1;" d="M 87.964844 35.40625 C 88.042969 35.40625 88.167969 35.371094 88.210938 35.136719 C 88.324219 34.578125 88.546875 34.117188 88.546875 34.007812 C 88.546875 33.949219 88.539062 33.871094 88.46875 33.871094 C 88.347656 33.871094 88.246094 34.039062 88.191406 34.128906 C 87.910156 34.578125 87.765625 34.621094 87.125 34.65625 C 86.722656 34.679688 86.273438 34.691406 85.847656 34.691406 C 85.433594 34.691406 85.109375 34.679688 84.863281 34.65625 C 84.773438 34.644531 84.707031 34.632812 84.707031 34.578125 C 84.707031 34.523438 86.554688 32.730469 87.058594 32.125 C 87.53125 31.554688 87.875 30.769531 87.875 30.164062 C 87.875 29.078125 87.203125 28.316406 86.085938 28.316406 C 84.820312 28.316406 83.902344 29.414062 83.902344 29.761719 C 83.902344 29.964844 84.011719 30.097656 84.070312 30.097656 C 84.136719 30.097656 84.214844 30.03125 84.257812 29.941406 C 84.574219 29.402344 85.121094 29.035156 85.738281 29.035156 C 86.375 29.035156 86.9375 29.515625 86.9375 30.308594 C 86.9375 31.296875 86.386719 32.304688 85.636719 33.078125 L 83.722656 35.058594 C 83.652344 35.125 83.632812 35.136719 83.632812 35.203125 C 83.632812 35.273438 83.800781 35.394531 83.855469 35.394531 C 84.078125 35.394531 85.894531 35.339844 86.453125 35.339844 C 87.015625 35.339844 87.742188 35.40625 87.964844 35.40625 Z M 87.964844 35.40625 "/>
<path style=" stroke:none;fill-rule:evenodd;fill:rgb(50.196078%,50.196078%,50.196078%);fill-opacity:1;" d="M 89.6875 30.476562 C 90.070312 30.476562 90.421875 30.347656 90.871094 29.820312 C 91.398438 29.195312 91.910156 28.492188 92.421875 27.851562 C 92.550781 27.691406 92.613281 27.691406 92.679688 27.949219 L 93.03125 29.40625 C 93.222656 30.109375 93.445312 30.476562 94.039062 30.476562 C 94.964844 30.476562 95.703125 28.957031 95.703125 28.363281 C 95.703125 28.042969 95.636719 28.011719 95.558594 28.011719 C 95.476562 28.011719 95.414062 28.078125 95.351562 28.238281 C 95.03125 29.019531 94.597656 29.515625 94.292969 29.515625 C 94.183594 29.515625 94.039062 29.421875 93.957031 29.132812 L 93.414062 27.164062 C 93.335938 26.894531 93.367188 26.734375 93.445312 26.605469 C 93.847656 25.996094 94.199219 25.582031 94.503906 25.230469 C 94.871094 24.78125 95.160156 24.558594 95.414062 24.558594 C 95.558594 24.558594 95.652344 24.636719 95.765625 24.925781 C 95.832031 25.085938 95.925781 25.195312 96.054688 25.195312 C 96.328125 25.195312 96.726562 24.558594 96.710938 24.316406 C 96.695312 24.0625 96.308594 23.628906 95.894531 23.628906 C 95.316406 23.628906 94.773438 24.125 94.453125 24.574219 L 93.335938 26.171875 C 93.222656 26.316406 93.140625 26.300781 93.109375 26.140625 L 92.710938 24.445312 C 92.566406 23.886719 92.375 23.628906 92.039062 23.628906 C 91.335938 23.628906 90.328125 24.828125 90.328125 25.453125 C 90.328125 25.613281 90.359375 25.726562 90.4375 25.726562 C 90.582031 25.726562 90.664062 25.53125 90.710938 25.46875 C 91.109375 24.894531 91.445312 24.636719 91.605469 24.636719 C 91.734375 24.636719 91.78125 24.667969 91.847656 24.910156 L 92.453125 27.148438 C 92.484375 27.246094 92.484375 27.355469 92.40625 27.4375 C 91.734375 28.203125 91.382812 28.667969 90.742188 29.324219 C 90.613281 29.453125 90.453125 29.53125 90.308594 29.515625 C 90.183594 29.515625 90.070312 29.40625 90.007812 29.148438 C 89.972656 29.003906 89.910156 28.859375 89.75 28.859375 C 89.476562 28.859375 89.03125 29.5 89.03125 29.867188 C 89.03125 30.285156 89.367188 30.476562 89.6875 30.476562 Z M 89.6875 30.476562 "/>
<path style=" stroke:none;fill-rule:evenodd;fill:rgb(50.196078%,50.196078%,50.196078%);fill-opacity:1;" d="M 101.410156 25.488281 C 101.488281 25.488281 101.613281 25.453125 101.65625 25.21875 C 101.769531 24.65625 101.992188 24.199219 101.992188 24.085938 C 101.992188 24.03125 101.980469 23.953125 101.914062 23.953125 C 101.792969 23.953125 101.691406 24.121094 101.636719 24.210938 C 101.355469 24.65625 101.210938 24.703125 100.570312 24.734375 C 100.167969 24.757812 99.71875 24.769531 99.292969 24.769531 C 98.878906 24.769531 98.554688 24.757812 98.308594 24.734375 C 98.21875 24.726562 98.152344 24.714844 98.152344 24.65625 C 98.152344 24.601562 100 22.808594 100.503906 22.203125 C 100.972656 21.632812 101.320312 20.847656 101.320312 20.246094 C 101.320312 19.160156 100.648438 18.398438 99.53125 18.398438 C 98.265625 18.398438 97.34375 19.496094 97.34375 19.839844 C 97.34375 20.042969 97.457031 20.175781 97.511719 20.175781 C 97.582031 20.175781 97.660156 20.109375 97.703125 20.019531 C 98.015625 19.484375 98.566406 19.113281 99.183594 19.113281 C 99.820312 19.113281 100.378906 19.59375 100.378906 20.390625 C 100.378906 21.375 99.832031 22.382812 99.082031 23.15625 L 97.167969 25.140625 C 97.097656 25.207031 97.078125 25.21875 97.078125 25.285156 C 97.078125 25.351562 97.246094 25.476562 97.300781 25.476562 C 97.523438 25.476562 99.339844 25.417969 99.898438 25.417969 C 100.460938 25.417969 101.1875 25.488281 101.410156 25.488281 Z M 101.410156 25.488281 "/>
<path style=" stroke:none;fill-rule:evenodd;fill:rgb(50.196078%,50.196078%,50.196078%);fill-opacity:1;" d="M 110.429688 30.378906 C 110.574219 30.378906 111.199219 30.332031 111.199219 29.996094 L 111.199219 26.765625 C 111.199219 26.71875 111.214844 26.699219 111.261719 26.699219 L 114.222656 26.699219 C 114.527344 26.699219 114.71875 26.332031 114.71875 26.0625 C 114.71875 25.964844 114.621094 25.902344 114.511719 25.902344 L 111.230469 25.902344 C 111.199219 25.902344 111.199219 25.886719 111.199219 25.804688 L 111.199219 22.75 C 111.199219 22.636719 111.085938 22.539062 110.972656 22.539062 C 110.878906 22.539062 110.238281 22.683594 110.238281 23.035156 L 110.238281 25.773438 C 110.238281 25.867188 110.222656 25.902344 110.125 25.902344 L 107.101562 25.902344 C 106.816406 25.902344 106.71875 26.363281 106.71875 26.507812 C 106.71875 26.605469 106.832031 26.699219 106.941406 26.699219 L 110.175781 26.699219 C 110.222656 26.699219 110.238281 26.734375 110.238281 26.78125 L 110.238281 30.15625 C 110.238281 30.269531 110.335938 30.378906 110.429688 30.378906 Z M 110.429688 30.378906 "/>
<path style=" stroke:none;fill-rule:evenodd;fill:rgb(50.196078%,50.196078%,50.196078%);fill-opacity:1;" d="M 120.976562 30.492188 C 122.273438 30.492188 123.425781 29.246094 123.425781 28.910156 C 123.425781 28.796875 123.394531 28.699219 123.296875 28.699219 C 123.171875 28.699219 123.121094 28.765625 122.976562 28.910156 C 122.5625 29.292969 122.242188 29.597656 121.554688 29.597656 C 121.089844 29.597656 120.785156 29.390625 120.785156 28.683594 C 120.785156 26.925781 122.144531 24.0625 123.171875 24.0625 C 123.523438 24.0625 123.699219 24.300781 123.824219 24.539062 C 123.9375 24.75 124.035156 24.925781 124.210938 24.925781 C 124.433594 24.925781 124.691406 24.492188 124.691406 24.140625 C 124.691406 23.867188 124.386719 23.628906 123.808594 23.628906 C 121.089844 23.628906 119.667969 26.894531 119.632812 28.8125 C 119.617188 29.804688 120.402344 30.492188 120.976562 30.492188 Z M 120.976562 30.492188 "/>
<path style=" stroke:none;fill-rule:evenodd;fill:rgb(50.196078%,50.196078%,50.196078%);fill-opacity:1;" d="M 124.601562 35.40625 C 125.207031 35.40625 125.675781 35.351562 126.28125 35.351562 C 126.875 35.351562 127.289062 35.40625 127.929688 35.40625 C 128.019531 35.40625 128.085938 35.351562 128.085938 35.28125 C 128.085938 35.214844 127.984375 35.160156 127.894531 35.136719 C 126.976562 34.914062 126.707031 34.859375 126.707031 34.285156 L 126.707031 29.132812 C 126.707031 28.820312 126.71875 28.5625 126.753906 28.339844 C 126.765625 28.28125 126.683594 28.238281 126.617188 28.238281 C 126.597656 28.238281 126.574219 28.238281 126.5625 28.25 C 126.058594 28.753906 125.554688 28.84375 124.882812 28.945312 C 124.726562 28.964844 124.601562 29.042969 124.601562 29.144531 C 124.601562 29.269531 124.746094 29.324219 124.894531 29.335938 C 125.375 29.371094 125.835938 29.449219 125.835938 29.875 L 125.835938 34.152344 C 125.835938 34.8125 125.453125 34.914062 124.601562 35.125 C 124.511719 35.148438 124.433594 35.214844 124.433594 35.273438 C 124.433594 35.339844 124.488281 35.40625 124.601562 35.40625 Z M 124.601562 35.40625 "/>
<path style=" stroke:none;fill-rule:evenodd;fill:rgb(50.196078%,50.196078%,50.196078%);fill-opacity:1;" d="M 129.671875 30.476562 C 130.054688 30.476562 130.40625 30.347656 130.855469 29.820312 C 131.382812 29.195312 131.894531 28.492188 132.40625 27.851562 C 132.535156 27.691406 132.597656 27.691406 132.664062 27.949219 L 133.015625 29.40625 C 133.207031 30.109375 133.429688 30.476562 134.023438 30.476562 C 134.949219 30.476562 135.6875 28.957031 135.6875 28.363281 C 135.6875 28.042969 135.621094 28.011719 135.542969 28.011719 C 135.464844 28.011719 135.398438 28.078125 135.335938 28.238281 C 135.015625 29.019531 134.582031 29.515625 134.277344 29.515625 C 134.167969 29.515625 134.023438 29.421875 133.941406 29.132812 L 133.398438 27.164062 C 133.320312 26.894531 133.351562 26.734375 133.429688 26.605469 C 133.832031 25.996094 134.183594 25.582031 134.488281 25.230469 C 134.855469 24.78125 135.144531 24.558594 135.398438 24.558594 C 135.542969 24.558594 135.640625 24.636719 135.75 24.925781 C 135.816406 25.085938 135.910156 25.195312 136.039062 25.195312 C 136.3125 25.195312 136.710938 24.558594 136.695312 24.316406 C 136.679688 24.0625 136.296875 23.628906 135.878906 23.628906 C 135.304688 23.628906 134.757812 24.125 134.4375 24.574219 L 133.320312 26.171875 C 133.207031 26.316406 133.125 26.300781 133.09375 26.140625 L 132.695312 24.445312 C 132.550781 23.886719 132.359375 23.628906 132.023438 23.628906 C 131.320312 23.628906 130.3125 24.828125 130.3125 25.453125 C 130.3125 25.613281 130.34375 25.726562 130.421875 25.726562 C 130.566406 25.726562 130.648438 25.53125 130.695312 25.46875 C 131.09375 24.894531 131.429688 24.636719 131.589844 24.636719 C 131.71875 24.636719 131.765625 24.667969 131.832031 24.910156 L 132.4375 27.148438 C 132.472656 27.246094 132.472656 27.355469 132.390625 27.4375 C 131.71875 28.203125 131.367188 28.667969 130.726562 29.324219 C 130.597656 29.453125 130.4375 29.53125 130.296875 29.515625 C 130.167969 29.515625 130.054688 29.40625 129.992188 29.148438 C 129.957031 29.003906 129.894531 28.859375 129.734375 28.859375 C 129.464844 28.859375 129.015625 29.5 129.015625 29.867188 C 129.015625 30.285156 129.351562 30.476562 129.671875 30.476562 Z M 129.671875 30.476562 "/>
<path style=" stroke:none;fill-rule:evenodd;fill:rgb(50.196078%,50.196078%,50.196078%);fill-opacity:1;" d="M 144.9375 30.378906 C 145.082031 30.378906 145.707031 30.332031 145.707031 29.996094 L 145.707031 26.765625 C 145.707031 26.71875 145.722656 26.699219 145.769531 26.699219 L 148.730469 26.699219 C 149.035156 26.699219 149.226562 26.332031 149.226562 26.0625 C 149.226562 25.964844 149.128906 25.902344 149.019531 25.902344 L 145.738281 25.902344 C 145.707031 25.902344 145.707031 25.886719 145.707031 25.804688 L 145.707031 22.75 C 145.707031 22.636719 145.59375 22.539062 145.484375 22.539062 C 145.386719 22.539062 144.746094 22.683594 144.746094 23.035156 L 144.746094 25.773438 C 144.746094 25.867188 144.730469 25.902344 144.632812 25.902344 L 141.609375 25.902344 C 141.324219 25.902344 141.226562 26.363281 141.226562 26.507812 C 141.226562 26.605469 141.339844 26.699219 141.449219 26.699219 L 144.683594 26.699219 C 144.730469 26.699219 144.746094 26.734375 144.746094 26.78125 L 144.746094 30.15625 C 144.746094 30.269531 144.84375 30.378906 144.9375 30.378906 Z M 144.9375 30.378906 "/>
<path style=" stroke:none;fill-rule:evenodd;fill:rgb(50.196078%,50.196078%,50.196078%);fill-opacity:1;" d="M 155.484375 30.492188 C 156.78125 30.492188 157.933594 29.246094 157.933594 28.910156 C 157.933594 28.796875 157.902344 28.699219 157.804688 28.699219 C 157.679688 28.699219 157.628906 28.765625 157.484375 28.910156 C 157.070312 29.292969 156.75 29.597656 156.0625 29.597656 C 155.597656 29.597656 155.292969 29.390625 155.292969 28.683594 C 155.292969 26.925781 156.652344 24.0625 157.679688 24.0625 C 158.03125 24.0625 158.207031 24.300781 158.335938 24.539062 C 158.445312 24.75 158.542969 24.925781 158.71875 24.925781 C 158.941406 24.925781 159.199219 24.492188 159.199219 24.140625 C 159.199219 23.867188 158.894531 23.628906 158.316406 23.628906 C 155.597656 23.628906 154.175781 26.894531 154.140625 28.8125 C 154.125 29.804688 154.910156 30.492188 155.484375 30.492188 Z M 155.484375 30.492188 "/>
<path style=" stroke:none;fill-rule:evenodd;fill:rgb(50.196078%,50.196078%,50.196078%);fill-opacity:1;" d="M 160.828125 35.53125 C 162.488281 35.53125 163.183594 33.511719 163.183594 31.832031 C 163.183594 30.210938 162.464844 28.316406 160.941406 28.316406 C 159.285156 28.316406 158.589844 30.289062 158.589844 31.992188 C 158.589844 33.648438 159.308594 35.53125 160.828125 35.53125 Z M 161.019531 35.238281 C 160.011719 35.238281 159.519531 33.46875 159.519531 31.789062 C 159.519531 30.109375 159.832031 28.628906 160.730469 28.628906 C 161.738281 28.628906 162.261719 30.355469 162.261719 32.035156 C 162.261719 33.714844 161.917969 35.238281 161.019531 35.238281 Z M 161.019531 35.238281 "/>
</g>
</svg>
