<?xml version="1.0" encoding="UTF-8"?>
<svg xmlns="http://www.w3.org/2000/svg" xmlns:xlink="http://www.w3.org/1999/xlink" width="409.203573pt" height="106.816005pt" viewBox="0 0 409.203573 106.816005" version="1.1">
<g id="surface1">
<path style=" stroke:none;fill-rule:evenodd;fill:rgb(50.196078%,50.196078%,50.196078%);fill-opacity:1;" d="M 183.585938 25.535156 C 184.625 25.535156 185.800781 25.257812 186.863281 24.613281 C 187.285156 24.359375 187.367188 24.21875 187.367188 23.882812 C 187.367188 23.714844 187.226562 23.660156 187.058594 23.660156 C 186.890625 23.660156 186.695312 23.714844 186.527344 23.773438 C 186.277344 23.882812 185.632812 23.96875 184.960938 23.96875 C 182.777344 23.96875 181.375 23.546875 179.5 22.203125 C 178.101562 21.195312 177.035156 20.273438 175.945312 19.097656 C 175.859375 19.011719 175.832031 18.929688 175.832031 18.84375 C 175.832031 18.789062 175.859375 18.703125 176.054688 18.648438 C 180.507812 17.472656 182.859375 13.46875 182.859375 9.210938 C 182.859375 3.695312 178.492188 0 173.5625 0 C 167.347656 0 164.015625 4.730469 164.015625 9.773438 C 164.015625 14.363281 166.703125 16.882812 169.753906 18.3125 C 170.539062 18.675781 171.660156 19.011719 172.976562 20.105469 C 174.796875 21.617188 175.945312 22.398438 177.398438 23.4375 C 179.191406 24.722656 180.898438 25.535156 183.585938 25.535156 Z M 173.730469 17.863281 C 169.054688 17.863281 166.703125 13.578125 166.703125 8.371094 C 166.703125 4.003906 168.886719 1.175781 173.117188 1.175781 C 177.792969 1.175781 180.171875 5.402344 180.171875 10.585938 C 180.171875 14.980469 178.015625 17.863281 173.730469 17.863281 Z M 173.730469 17.863281 "/>
<path style=" stroke:none;fill-rule:evenodd;fill:rgb(50.196078%,50.196078%,50.196078%);fill-opacity:1;" d="M 194.367188 19.125 C 194.535156 19.125 194.816406 19.011719 194.929688 18.957031 C 195.738281 18.621094 196.746094 18.199219 198.203125 18.003906 C 198.429688 17.976562 198.597656 17.921875 198.597656 17.613281 C 198.597656 17.277344 198.371094 17.246094 198.175781 17.246094 C 197.894531 17.246094 197.167969 17.332031 196.886719 17.332031 C 196.609375 17.332031 196.382812 16.941406 196.382812 15.933594 L 196.382812 9.464844 C 196.382812 9.015625 196.523438 7.726562 196.578125 7.53125 C 196.609375 7.421875 196.636719 7.335938 196.636719 7.28125 C 196.636719 7.085938 196.46875 6.972656 196.273438 6.972656 C 196.1875 6.972656 196.074219 7 195.992188 7.027344 C 194.984375 7.308594 194.253906 7.449219 192.546875 7.476562 C 192.238281 7.476562 191.960938 7.558594 191.960938 7.894531 C 191.960938 8.289062 192.210938 8.371094 192.546875 8.371094 C 193.109375 8.371094 194.421875 8.625 194.421875 9.773438 L 194.421875 14.894531 C 194.421875 16.042969 193.582031 16.6875 193.164062 16.996094 C 192.464844 17.527344 191.765625 17.554688 190.8125 17.554688 C 189.609375 17.554688 188.460938 16.351562 188.460938 15.007812 L 188.460938 9.546875 C 188.460938 8.707031 188.515625 8.261719 188.628906 7.390625 C 188.65625 7.085938 188.515625 7 188.347656 7 C 188.265625 7 188.234375 7 188.125 7.027344 C 187.085938 7.28125 186.613281 7.390625 185.351562 7.476562 C 185.128906 7.503906 184.933594 7.589844 184.933594 7.925781 C 184.933594 8.230469 185.101562 8.316406 185.296875 8.371094 C 186.136719 8.707031 186.5 9.15625 186.5 9.96875 L 186.5 15.652344 C 186.5 17.835938 187.871094 18.984375 189.691406 18.984375 C 191.429688 18.984375 192.855469 18.425781 194.3125 16.996094 L 194.3125 17.164062 C 194.3125 17.640625 194.171875 18.535156 194.171875 18.898438 C 194.171875 19.039062 194.226562 19.125 194.367188 19.125 Z M 194.367188 19.125 "/>
<path style=" stroke:none;fill-rule:evenodd;fill:rgb(50.196078%,50.196078%,50.196078%);fill-opacity:1;" d="M 202.152344 18.984375 C 203.355469 18.984375 204.417969 18.535156 205.652344 17.527344 L 205.734375 17.527344 C 206.238281 18.507812 206.910156 18.984375 207.78125 18.984375 C 208.367188 18.984375 209.125 18.59375 209.710938 18.003906 C 209.878906 17.835938 210.019531 17.554688 210.019531 17.386719 C 210.019531 17.21875 209.878906 17.078125 209.710938 17.078125 C 209.65625 17.078125 209.601562 17.109375 209.488281 17.21875 C 209.234375 17.445312 208.929688 17.527344 208.453125 17.527344 C 207.835938 17.527344 207.414062 16.996094 207.445312 16.210938 L 207.582031 9.492188 C 207.613281 8.0625 206.632812 7 205.289062 7 C 204.167969 7 202.375 7.839844 201.117188 8.988281 C 200.414062 9.605469 199.996094 10.332031 199.996094 10.921875 C 199.996094 11.058594 200.109375 11.171875 200.304688 11.171875 C 200.863281 11.171875 202.152344 10.472656 202.152344 10.191406 L 202.125 9.6875 C 202.125 9.351562 202.179688 9.042969 202.402344 8.875 C 202.769531 8.566406 203.382812 8.371094 203.945312 8.371094 C 205.007812 8.371094 205.625 9.183594 205.597656 10.164062 L 205.539062 11.957031 C 205.511719 12.710938 205.484375 12.769531 204.753906 13.074219 L 201.898438 14.253906 C 200.527344 14.8125 199.910156 15.398438 199.910156 16.574219 C 199.910156 17.613281 201.144531 18.984375 202.152344 18.984375 Z M 203.46875 17.640625 C 202.796875 17.640625 202.097656 17.136719 202.097656 16.15625 C 202.097656 15.511719 202.738281 14.726562 204.726562 14 C 205.035156 13.886719 205.203125 13.859375 205.289062 13.859375 C 205.511719 13.859375 205.566406 14.027344 205.539062 14.449219 L 205.484375 15.820312 C 205.457031 16.519531 205.316406 16.773438 205.121094 16.96875 C 204.699219 17.386719 204.195312 17.640625 203.46875 17.640625 Z M 203.46875 17.640625 "/>
<path style=" stroke:none;fill-rule:evenodd;fill:rgb(50.196078%,50.196078%,50.196078%);fill-opacity:1;" d="M 211.417969 18.675781 C 212.539062 18.675781 212.707031 18.535156 213.6875 18.535156 C 214.667969 18.535156 215.003906 18.675781 216.125 18.675781 C 216.515625 18.675781 216.683594 18.59375 216.683594 18.367188 C 216.683594 18.117188 216.433594 18.03125 216.039062 17.921875 C 215.117188 17.640625 214.554688 17.359375 214.554688 16.855469 L 214.554688 11.199219 C 214.554688 9.324219 215.589844 8.847656 216.488281 8.847656 C 216.769531 8.847656 217.074219 8.988281 217.382812 9.101562 C 217.664062 9.238281 217.945312 9.351562 218.167969 9.351562 C 218.726562 9.351562 219.261719 8.457031 219.261719 7.894531 C 219.261719 7.390625 218.699219 7 217.914062 7 C 216.824219 7 215.589844 7.8125 214.695312 8.902344 C 214.667969 8.902344 214.640625 8.875 214.640625 8.847656 C 214.695312 7.953125 214.722656 6.945312 214.722656 6.746094 C 214.722656 6.636719 214.667969 6.550781 214.582031 6.550781 C 214.5 6.550781 214.386719 6.609375 214.164062 6.746094 C 213.574219 7.113281 212.371094 7.8125 211.390625 8.121094 C 211.28125 8.148438 211.140625 8.289062 211.140625 8.457031 C 211.140625 8.625 211.28125 8.792969 211.417969 8.820312 C 212.34375 9.015625 212.566406 9.828125 212.566406 10.835938 L 212.566406 16.855469 C 212.566406 17.386719 212.203125 17.753906 211.503906 17.921875 C 211.082031 18.03125 210.859375 18.089844 210.859375 18.367188 C 210.859375 18.59375 211.027344 18.675781 211.417969 18.675781 Z M 211.417969 18.675781 "/>
<path style=" stroke:none;fill-rule:evenodd;fill:rgb(50.196078%,50.196078%,50.196078%);fill-opacity:1;" d="M 224.691406 18.984375 C 226.398438 18.984375 227.96875 17.585938 227.96875 17.277344 C 227.96875 17.078125 227.910156 16.882812 227.773438 16.882812 C 227.742188 16.882812 227.6875 16.910156 227.660156 16.941406 C 227.183594 17.277344 226.679688 17.445312 225.585938 17.445312 C 224.382812 17.445312 223.738281 16.546875 223.738281 15.035156 L 223.738281 9.519531 C 223.738281 8.765625 223.90625 8.734375 224.859375 8.734375 L 227.632812 8.734375 C 227.773438 8.734375 227.910156 8.34375 227.910156 8.007812 C 227.910156 7.671875 227.773438 7.390625 227.632812 7.390625 L 224.441406 7.390625 C 223.964844 7.390625 223.710938 7.28125 223.769531 6.859375 L 223.90625 5.601562 C 223.9375 5.347656 223.710938 5.292969 223.542969 5.292969 C 223.347656 5.292969 223.234375 5.433594 223.066406 5.628906 C 222.5625 6.242188 221.667969 7.113281 220.574219 7.867188 C 220.519531 7.894531 220.378906 8.09375 220.378906 8.175781 C 220.378906 8.457031 220.519531 8.734375 220.714844 8.734375 L 220.882812 8.734375 C 221.613281 8.734375 221.78125 8.847656 221.78125 9.15625 L 221.78125 15.652344 C 221.78125 17.863281 222.871094 18.984375 224.691406 18.984375 Z M 224.691406 18.984375 "/>
<path style=" stroke:none;fill-rule:evenodd;fill:rgb(50.196078%,50.196078%,50.196078%);fill-opacity:1;" d="M 231.664062 4.144531 C 232.476562 4.144531 233.089844 3.527344 233.089844 2.742188 C 233.089844 1.933594 232.476562 1.316406 231.664062 1.316406 C 230.878906 1.316406 230.265625 1.933594 230.265625 2.742188 C 230.265625 3.527344 230.878906 4.144531 231.664062 4.144531 Z M 229.421875 18.675781 C 230.515625 18.675781 230.710938 18.535156 231.691406 18.535156 C 232.671875 18.535156 232.894531 18.675781 233.960938 18.675781 C 234.324219 18.675781 234.519531 18.59375 234.519531 18.367188 C 234.519531 18.089844 234.183594 18.003906 233.875 17.921875 C 233.121094 17.722656 232.671875 17.5 232.671875 16.855469 L 232.671875 10.359375 C 232.671875 9.101562 232.921875 7.027344 232.921875 6.578125 C 232.921875 6.496094 232.867188 6.441406 232.753906 6.441406 C 232.644531 6.441406 232.503906 6.523438 232.363281 6.636719 C 231.886719 7.027344 230.90625 7.699219 229.421875 8.035156 C 229.253906 8.0625 229.171875 8.175781 229.171875 8.371094 C 229.171875 8.597656 229.253906 8.707031 229.453125 8.734375 C 230.402344 8.875 230.710938 9.773438 230.710938 10.78125 L 230.710938 16.855469 C 230.710938 17.527344 230.292969 17.722656 229.507812 17.921875 C 229.199219 18.003906 228.863281 18.089844 228.863281 18.367188 C 228.863281 18.59375 229.085938 18.675781 229.421875 18.675781 Z M 229.421875 18.675781 "/>
<path style=" stroke:none;fill-rule:evenodd;fill:rgb(50.196078%,50.196078%,50.196078%);fill-opacity:1;" d="M 241.015625 19.011719 C 242.722656 19.011719 244.152344 18.394531 245.046875 17.246094 C 245.328125 16.882812 245.46875 16.605469 245.46875 16.378906 C 245.46875 16.15625 245.328125 15.988281 245.160156 15.988281 C 245.074219 15.988281 244.964844 16.042969 244.878906 16.128906 C 243.984375 17.023438 243.3125 17.332031 242.21875 17.332031 C 239.839844 17.332031 237.964844 15.289062 237.964844 12.65625 C 237.964844 9.910156 239.222656 8.035156 241.042969 8.035156 C 241.714844 8.035156 242.863281 8.734375 243.675781 9.351562 C 243.898438 9.519531 244.066406 9.660156 244.265625 9.660156 C 244.738281 9.660156 245.46875 8.988281 245.46875 8.511719 C 245.46875 8.316406 245.355469 8.148438 245.132812 7.980469 C 244.234375 7.335938 243.144531 7 241.941406 7 C 238.664062 7 236.03125 9.910156 236.03125 13.550781 C 236.03125 16.660156 238.1875 19.011719 241.015625 19.011719 Z M 241.015625 19.011719 "/>
<path style=" stroke:none;fill-rule:evenodd;fill:rgb(0%,0%,0%);fill-opacity:1;" d="M 59.324219 33.894531 C 37.84375 33.894531 36.722656 33.855469 15.042969 33.855469 C 8.804688 33.855469 0.125 36.816406 -0.15625 41.054688 C -0.15625 41.257812 0.00390625 41.375 0.203125 41.375 C 0.484375 41.375 0.484375 41.015625 0.523438 40.734375 C 1.203125 37.214844 9.164062 36.414062 14.921875 36.414062 C 36.5625 36.414062 37.921875 36.457031 59.324219 36.457031 Z M 59.324219 33.894531 "/>
<path style=" stroke:none;fill-rule:evenodd;fill:rgb(0%,0%,0%);fill-opacity:1;" d="M 50.761719 36.414062 C 72.402344 36.414062 69.363281 36.457031 90.761719 36.457031 L 90.761719 33.894531 C 69.285156 33.894531 72.445312 33.855469 50.761719 33.855469 Z M 50.761719 36.414062 "/>
<path style=" stroke:none;fill-rule:evenodd;fill:rgb(0%,0%,0%);fill-opacity:1;" d="M 82.242188 36.414062 C 103.882812 36.414062 100.84375 36.457031 122.242188 36.457031 L 122.242188 33.894531 C 100.761719 33.894531 103.921875 33.855469 82.242188 33.855469 Z M 82.242188 36.414062 "/>
<path style=" stroke:none;fill-rule:evenodd;fill:rgb(0%,0%,0%);fill-opacity:1;" d="M 113.722656 36.414062 C 135.363281 36.414062 132.324219 36.457031 153.722656 36.457031 L 153.722656 33.894531 C 132.242188 33.894531 135.402344 33.855469 113.722656 33.855469 Z M 113.722656 36.414062 "/>
<path style=" stroke:none;fill-rule:evenodd;fill:rgb(0%,0%,0%);fill-opacity:1;" d="M 263.921875 33.894531 L 219.523438 33.894531 C 214.125 33.894531 206.082031 32.9375 204.921875 29.976562 C 204.882812 29.777344 204.722656 29.535156 204.523438 29.535156 C 204.363281 29.535156 204.164062 29.695312 204.082031 30.054688 C 202.722656 33.257812 195.003906 33.894531 189.605469 33.894531 L 145.203125 33.894531 L 145.203125 36.414062 C 166.84375 36.414062 167.964844 36.457031 189.363281 36.457031 C 194.964844 36.457031 202.5625 34.175781 204.484375 31.296875 C 204.523438 31.214844 204.5625 31.257812 204.605469 31.335938 C 205.882812 34.054688 214.164062 36.457031 219.761719 36.457031 C 241.164062 36.457031 242.285156 36.414062 263.921875 36.414062 Z M 263.921875 33.894531 "/>
<path style=" stroke:none;fill-rule:evenodd;fill:rgb(0%,0%,0%);fill-opacity:1;" d="M 255.363281 36.414062 C 277.003906 36.414062 273.964844 36.457031 295.363281 36.457031 L 295.363281 33.894531 C 273.882812 33.894531 277.042969 33.855469 255.363281 33.855469 Z M 255.363281 36.414062 "/>
<path style=" stroke:none;fill-rule:evenodd;fill:rgb(0%,0%,0%);fill-opacity:1;" d="M 286.84375 36.414062 C 308.484375 36.414062 305.445312 36.457031 326.84375 36.457031 L 326.84375 33.894531 C 305.363281 33.894531 308.523438 33.855469 286.84375 33.855469 Z M 286.84375 36.414062 "/>
<path style=" stroke:none;fill-rule:evenodd;fill:rgb(0%,0%,0%);fill-opacity:1;" d="M 318.324219 36.414062 C 339.964844 36.414062 336.921875 36.457031 358.324219 36.457031 L 358.324219 33.894531 C 336.84375 33.894531 340.003906 33.855469 318.324219 33.855469 Z M 318.324219 36.414062 "/>
<path style=" stroke:none;fill-rule:evenodd;fill:rgb(0%,0%,0%);fill-opacity:1;" d="M 349.804688 36.457031 C 371.203125 36.457031 372.5625 36.414062 394.203125 36.414062 C 399.964844 36.414062 408.042969 37.175781 408.5625 40.695312 C 408.605469 40.976562 408.5625 41.296875 408.84375 41.296875 C 409.042969 41.296875 409.242188 41.054688 409.203125 40.855469 C 408.804688 36.617188 400.324219 33.855469 394.082031 33.855469 C 372.402344 33.855469 371.285156 33.894531 349.804688 33.894531 Z M 349.804688 36.457031 "/>
<path style=" stroke:none;fill-rule:evenodd;fill:rgb(0%,0%,0%);fill-opacity:1;" d="M 4.761719 76.230469 C 8 76.230469 10.878906 73.113281 10.878906 72.273438 C 10.878906 71.992188 10.800781 71.753906 10.558594 71.753906 C 10.238281 71.753906 10.121094 71.910156 9.761719 72.273438 C 8.71875 73.230469 7.921875 73.992188 6.199219 73.992188 C 5.039062 73.992188 4.28125 73.472656 4.28125 71.710938 C 4.28125 67.3125 7.679688 60.152344 10.238281 60.152344 C 11.121094 60.152344 11.558594 60.753906 11.878906 61.351562 C 12.160156 61.871094 12.398438 62.3125 12.839844 62.3125 C 13.398438 62.3125 14.039062 61.230469 14.039062 60.351562 C 14.039062 59.671875 13.28125 59.070312 11.839844 59.070312 C 5.039062 59.070312 1.480469 67.230469 1.398438 72.03125 C 1.359375 74.511719 3.320312 76.230469 4.761719 76.230469 Z M 4.761719 76.230469 "/>
<path style=" stroke:none;fill-rule:evenodd;fill:rgb(0%,0%,0%);fill-opacity:1;" d="M 14.746094 88.515625 C 16.261719 88.515625 16.539062 88.375 17.96875 88.375 C 19.285156 88.375 19.535156 88.515625 21.132812 88.515625 C 21.355469 88.515625 21.550781 88.375 21.550781 88.207031 C 21.550781 88.039062 21.273438 87.871094 21.046875 87.816406 C 19.535156 87.425781 19.171875 87.171875 19.171875 86.078125 L 19.171875 83.449219 C 19.171875 83.421875 19.394531 83.308594 19.535156 83.28125 C 19.761719 83.253906 20.066406 83.222656 20.402344 83.222656 C 20.851562 83.222656 21.355469 83.253906 21.777344 83.253906 C 21.886719 83.253906 22.363281 82.636719 22.363281 82.1875 C 22.363281 82.074219 22.222656 81.964844 22.054688 81.964844 C 21.441406 81.992188 20.9375 82.019531 20.402344 82.019531 C 20.066406 82.019531 19.703125 82.019531 19.285156 81.992188 C 19.199219 81.992188 19.144531 81.90625 19.144531 81.824219 L 19.144531 78.210938 C 19.144531 77.035156 19.144531 76.421875 18.722656 76.421875 C 18.472656 76.421875 17.714844 76.476562 17.15625 76.785156 C 16.933594 76.894531 16.902344 77.007812 16.902344 77.398438 L 16.902344 81.738281 C 16.902344 81.851562 16.707031 81.964844 16.566406 81.964844 L 11.722656 81.964844 C 11.613281 81.964844 11.667969 81.796875 11.722656 81.710938 L 19.285156 70.847656 C 19.285156 70.847656 19.507812 70.457031 19.339844 70.457031 L 18.753906 70.457031 C 18.472656 70.457031 18.136719 70.902344 17.910156 71.238281 L 10.519531 81.851562 C 10.15625 82.355469 10.128906 82.300781 9.429688 83.167969 C 9.398438 83.195312 9.398438 83.222656 9.398438 83.253906 C 9.398438 83.363281 9.539062 83.53125 9.679688 83.53125 C 12.621094 83.503906 14.1875 83.335938 16.484375 83.335938 C 16.511719 83.335938 16.902344 83.421875 16.902344 83.589844 L 16.902344 86.191406 C 16.902344 87.089844 16.484375 87.59375 14.746094 87.816406 C 14.523438 87.84375 14.242188 87.957031 14.242188 88.152344 C 14.242188 88.402344 14.550781 88.515625 14.746094 88.515625 Z M 14.746094 88.515625 "/>
<path style=" stroke:none;fill-rule:evenodd;fill:rgb(0%,0%,0%);fill-opacity:1;" d="M 24.730469 76.191406 C 25.691406 76.191406 26.570312 75.871094 27.691406 74.550781 C 29.011719 72.992188 30.292969 71.230469 31.570312 69.632812 C 31.890625 69.230469 32.050781 69.230469 32.210938 69.871094 L 33.09375 73.511719 C 33.570312 75.273438 34.132812 76.191406 35.613281 76.191406 C 37.933594 76.191406 39.773438 72.390625 39.773438 70.910156 C 39.773438 70.113281 39.613281 70.03125 39.410156 70.03125 C 39.210938 70.03125 39.050781 70.191406 38.890625 70.59375 C 38.09375 72.550781 37.011719 73.792969 36.253906 73.792969 C 35.972656 73.792969 35.613281 73.550781 35.410156 72.832031 L 34.050781 67.910156 C 33.851562 67.230469 33.933594 66.832031 34.132812 66.511719 C 35.132812 64.992188 36.011719 63.953125 36.773438 63.070312 C 37.691406 61.953125 38.410156 61.390625 39.050781 61.390625 C 39.410156 61.390625 39.652344 61.59375 39.933594 62.3125 C 40.09375 62.710938 40.332031 62.992188 40.652344 62.992188 C 41.332031 62.992188 42.332031 61.390625 42.292969 60.792969 C 42.253906 60.152344 41.292969 59.070312 40.253906 59.070312 C 38.8125 59.070312 37.453125 60.3125 36.652344 61.433594 L 33.851562 65.433594 C 33.570312 65.792969 33.371094 65.753906 33.292969 65.351562 L 32.292969 61.113281 C 31.933594 59.710938 31.453125 59.070312 30.613281 59.070312 C 28.851562 59.070312 26.332031 62.070312 26.332031 63.632812 C 26.332031 64.03125 26.410156 64.3125 26.613281 64.3125 C 26.972656 64.3125 27.171875 63.832031 27.292969 63.671875 C 28.292969 62.230469 29.132812 61.59375 29.53125 61.59375 C 29.851562 61.59375 29.972656 61.671875 30.132812 62.273438 L 31.652344 67.871094 C 31.730469 68.113281 31.730469 68.390625 31.53125 68.59375 C 29.851562 70.511719 28.972656 71.671875 27.371094 73.3125 C 27.050781 73.632812 26.652344 73.832031 26.292969 73.792969 C 25.972656 73.792969 25.691406 73.511719 25.53125 72.871094 C 25.453125 72.511719 25.292969 72.152344 24.890625 72.152344 C 24.210938 72.152344 23.09375 73.753906 23.09375 74.671875 C 23.09375 75.710938 23.933594 76.191406 24.730469 76.191406 Z M 24.730469 76.191406 "/>
<path style=" stroke:none;fill-rule:evenodd;fill:rgb(0%,0%,0%);fill-opacity:1;" d="M 48.359375 63.714844 C 49.871094 63.714844 50.152344 63.574219 51.578125 63.574219 C 52.894531 63.574219 53.148438 63.714844 54.742188 63.714844 C 54.96875 63.714844 55.164062 63.574219 55.164062 63.40625 C 55.164062 63.238281 54.882812 63.070312 54.660156 63.015625 C 53.148438 62.625 52.785156 62.371094 52.785156 61.28125 L 52.785156 58.648438 C 52.785156 58.621094 53.007812 58.507812 53.148438 58.480469 C 53.371094 58.453125 53.679688 58.425781 54.015625 58.425781 C 54.464844 58.425781 54.96875 58.453125 55.386719 58.453125 C 55.5 58.453125 55.976562 57.835938 55.976562 57.386719 C 55.976562 57.277344 55.835938 57.164062 55.667969 57.164062 C 55.050781 57.191406 54.546875 57.21875 54.015625 57.21875 C 53.679688 57.21875 53.316406 57.21875 52.894531 57.191406 C 52.8125 57.191406 52.757812 57.109375 52.757812 57.023438 L 52.757812 53.410156 C 52.757812 52.234375 52.757812 51.621094 52.335938 51.621094 C 52.085938 51.621094 51.328125 51.675781 50.769531 51.984375 C 50.542969 52.097656 50.515625 52.207031 50.515625 52.601562 L 50.515625 56.941406 C 50.515625 57.050781 50.320312 57.164062 50.179688 57.164062 L 45.335938 57.164062 C 45.222656 57.164062 45.28125 56.996094 45.335938 56.910156 L 52.894531 46.046875 C 52.894531 46.046875 53.121094 45.65625 52.953125 45.65625 L 52.363281 45.65625 C 52.085938 45.65625 51.746094 46.105469 51.523438 46.441406 L 44.132812 57.050781 C 43.769531 57.554688 43.738281 57.5 43.039062 58.367188 C 43.011719 58.394531 43.011719 58.425781 43.011719 58.453125 C 43.011719 58.5625 43.152344 58.730469 43.292969 58.730469 C 46.230469 58.703125 47.800781 58.535156 50.097656 58.535156 C 50.125 58.535156 50.515625 58.621094 50.515625 58.789062 L 50.515625 61.390625 C 50.515625 62.289062 50.097656 62.792969 48.359375 63.015625 C 48.136719 63.042969 47.855469 63.15625 47.855469 63.351562 C 47.855469 63.605469 48.164062 63.714844 48.359375 63.714844 Z M 48.359375 63.714844 "/>
<path style=" stroke:none;fill-rule:evenodd;fill:rgb(0%,0%,0%);fill-opacity:1;" d="M 76.59375 75.953125 C 76.953125 75.953125 78.511719 75.832031 78.511719 74.992188 L 78.511719 66.910156 C 78.511719 66.792969 78.554688 66.753906 78.671875 66.753906 L 86.074219 66.753906 C 86.832031 66.753906 87.3125 65.832031 87.3125 65.152344 C 87.3125 64.910156 87.074219 64.753906 86.792969 64.753906 L 78.59375 64.753906 C 78.511719 64.753906 78.511719 64.710938 78.511719 64.511719 L 78.511719 56.871094 C 78.511719 56.59375 78.234375 56.351562 77.953125 56.351562 C 77.714844 56.351562 76.113281 56.710938 76.113281 57.59375 L 76.113281 64.433594 C 76.113281 64.671875 76.074219 64.753906 75.832031 64.753906 L 68.273438 64.753906 C 67.554688 64.753906 67.3125 65.910156 67.3125 66.273438 C 67.3125 66.511719 67.59375 66.753906 67.871094 66.753906 L 75.953125 66.753906 C 76.074219 66.753906 76.113281 66.832031 76.113281 66.953125 L 76.113281 75.390625 C 76.113281 75.671875 76.351562 75.953125 76.59375 75.953125 Z M 76.59375 75.953125 "/>
<path style=" stroke:none;fill-rule:evenodd;fill:rgb(0%,0%,0%);fill-opacity:1;" d="M 102.960938 76.230469 C 106.203125 76.230469 109.082031 73.113281 109.082031 72.273438 C 109.082031 71.992188 109 71.753906 108.761719 71.753906 C 108.441406 71.753906 108.320312 71.910156 107.960938 72.273438 C 106.921875 73.230469 106.121094 73.992188 104.402344 73.992188 C 103.242188 73.992188 102.480469 73.472656 102.480469 71.710938 C 102.480469 67.3125 105.882812 60.152344 108.441406 60.152344 C 109.320312 60.152344 109.761719 60.753906 110.082031 61.351562 C 110.363281 61.871094 110.601562 62.3125 111.042969 62.3125 C 111.601562 62.3125 112.242188 61.230469 112.242188 60.351562 C 112.242188 59.671875 111.480469 59.070312 110.042969 59.070312 C 103.242188 59.070312 99.683594 67.230469 99.601562 72.03125 C 99.5625 74.511719 101.523438 76.230469 102.960938 76.230469 Z M 102.960938 76.230469 "/>
<path style=" stroke:none;fill-rule:evenodd;fill:rgb(0%,0%,0%);fill-opacity:1;" d="M 113.023438 89.496094 C 116.828125 89.496094 120.804688 86.949219 120.804688 82.746094 C 120.804688 80.367188 118.929688 78.351562 116.550781 78.351562 C 116.410156 78.351562 116.410156 78.238281 116.523438 78.183594 C 118.707031 76.925781 119.460938 75.328125 119.460938 73.984375 C 119.460938 72.078125 117.667969 70.792969 115.820312 70.792969 C 112.015625 70.792969 110.417969 73.453125 110.417969 74.433594 C 110.417969 74.710938 110.726562 74.964844 110.867188 74.964844 C 111.285156 74.964844 111.734375 72.472656 114.617188 72.472656 C 116.128906 72.472656 117.25 73.84375 117.25 75.382812 C 117.25 77.371094 114.367188 78.828125 113.722656 79.136719 C 113.359375 79.304688 113.023438 79.613281 112.882812 80.089844 C 112.824219 80.285156 113.160156 80.453125 113.359375 80.339844 C 114 79.976562 114.757812 79.921875 115.179688 79.921875 C 117.332031 79.921875 118.425781 82.1875 118.425781 84.34375 C 118.425781 86.667969 116.382812 88.433594 114.335938 88.433594 C 113.300781 88.433594 112.714844 87.984375 112.238281 87.5625 C 111.875 87.285156 111.566406 87.003906 111.144531 87.003906 C 110.726562 87.003906 109.914062 87.898438 109.914062 88.292969 C 109.914062 88.738281 111.707031 89.496094 113.023438 89.496094 Z M 113.023438 89.496094 "/>
<path style=" stroke:none;fill-rule:evenodd;fill:rgb(0%,0%,0%);fill-opacity:1;" d="M 124.574219 76.191406 C 125.535156 76.191406 126.414062 75.871094 127.535156 74.550781 C 128.855469 72.992188 130.132812 71.230469 131.414062 69.632812 C 131.734375 69.230469 131.894531 69.230469 132.054688 69.871094 L 132.933594 73.511719 C 133.414062 75.273438 133.972656 76.191406 135.453125 76.191406 C 137.773438 76.191406 139.613281 72.390625 139.613281 70.910156 C 139.613281 70.113281 139.453125 70.03125 139.253906 70.03125 C 139.054688 70.03125 138.894531 70.191406 138.734375 70.59375 C 137.933594 72.550781 136.855469 73.792969 136.09375 73.792969 C 135.8125 73.792969 135.453125 73.550781 135.253906 72.832031 L 133.894531 67.910156 C 133.695312 67.230469 133.773438 66.832031 133.972656 66.511719 C 134.972656 64.992188 135.855469 63.953125 136.613281 63.070312 C 137.535156 61.953125 138.253906 61.390625 138.894531 61.390625 C 139.253906 61.390625 139.492188 61.59375 139.773438 62.3125 C 139.933594 62.710938 140.171875 62.992188 140.492188 62.992188 C 141.171875 62.992188 142.171875 61.390625 142.132812 60.792969 C 142.09375 60.152344 141.132812 59.070312 140.09375 59.070312 C 138.652344 59.070312 137.292969 60.3125 136.492188 61.433594 L 133.695312 65.433594 C 133.414062 65.792969 133.214844 65.753906 133.132812 65.351562 L 132.132812 61.113281 C 131.773438 59.710938 131.292969 59.070312 130.453125 59.070312 C 128.695312 59.070312 126.171875 62.070312 126.171875 63.632812 C 126.171875 64.03125 126.253906 64.3125 126.453125 64.3125 C 126.8125 64.3125 127.015625 63.832031 127.132812 63.671875 C 128.132812 62.230469 128.972656 61.59375 129.375 61.59375 C 129.695312 61.59375 129.8125 61.671875 129.972656 62.273438 L 131.492188 67.871094 C 131.574219 68.113281 131.574219 68.390625 131.375 68.59375 C 129.695312 70.511719 128.8125 71.671875 127.214844 73.3125 C 126.894531 73.632812 126.492188 73.832031 126.132812 73.792969 C 125.8125 73.792969 125.535156 73.511719 125.375 72.871094 C 125.292969 72.511719 125.132812 72.152344 124.734375 72.152344 C 124.054688 72.152344 122.933594 73.753906 122.933594 74.671875 C 122.933594 75.710938 123.773438 76.191406 124.574219 76.191406 Z M 124.574219 76.191406 "/>
<path style=" stroke:none;fill-rule:evenodd;fill:rgb(0%,0%,0%);fill-opacity:1;" d="M 146.632812 64.695312 C 150.441406 64.695312 154.417969 62.148438 154.417969 57.949219 C 154.417969 55.566406 152.542969 53.550781 150.160156 53.550781 C 150.023438 53.550781 150.023438 53.441406 150.132812 53.382812 C 152.316406 52.125 153.074219 50.527344 153.074219 49.183594 C 153.074219 47.28125 151.28125 45.992188 149.433594 45.992188 C 145.625 45.992188 144.03125 48.652344 144.03125 49.632812 C 144.03125 49.910156 144.335938 50.164062 144.476562 50.164062 C 144.898438 50.164062 145.347656 47.671875 148.230469 47.671875 C 149.742188 47.671875 150.863281 49.042969 150.863281 50.585938 C 150.863281 52.570312 147.976562 54.027344 147.332031 54.335938 C 146.96875 54.503906 146.632812 54.8125 146.492188 55.289062 C 146.4375 55.484375 146.773438 55.652344 146.96875 55.539062 C 147.613281 55.175781 148.371094 55.121094 148.789062 55.121094 C 150.945312 55.121094 152.039062 57.386719 152.039062 59.542969 C 152.039062 61.867188 149.992188 63.632812 147.949219 63.632812 C 146.914062 63.632812 146.324219 63.183594 145.851562 62.765625 C 145.484375 62.484375 145.179688 62.203125 144.757812 62.203125 C 144.335938 62.203125 143.527344 63.101562 143.527344 63.492188 C 143.527344 63.941406 145.316406 64.695312 146.632812 64.695312 Z M 146.632812 64.695312 "/>
<path style=" stroke:none;fill-rule:evenodd;fill:rgb(0%,0%,0%);fill-opacity:1;" d="M 176.433594 75.953125 C 176.792969 75.953125 178.355469 75.832031 178.355469 74.992188 L 178.355469 66.910156 C 178.355469 66.792969 178.394531 66.753906 178.515625 66.753906 L 185.914062 66.753906 C 186.675781 66.753906 187.15625 65.832031 187.15625 65.152344 C 187.15625 64.910156 186.914062 64.753906 186.632812 64.753906 L 178.433594 64.753906 C 178.355469 64.753906 178.355469 64.710938 178.355469 64.511719 L 178.355469 56.871094 C 178.355469 56.59375 178.074219 56.351562 177.792969 56.351562 C 177.554688 56.351562 175.953125 56.710938 175.953125 57.59375 L 175.953125 64.433594 C 175.953125 64.671875 175.914062 64.753906 175.675781 64.753906 L 168.113281 64.753906 C 167.394531 64.753906 167.15625 65.910156 167.15625 66.273438 C 167.15625 66.511719 167.433594 66.753906 167.714844 66.753906 L 175.792969 66.753906 C 175.914062 66.753906 175.953125 66.832031 175.953125 66.953125 L 175.953125 75.390625 C 175.953125 75.671875 176.195312 75.953125 176.433594 75.953125 Z M 176.433594 75.953125 "/>
<path style=" stroke:none;fill-rule:evenodd;fill:rgb(0%,0%,0%);fill-opacity:1;" d="M 202.804688 76.230469 C 206.042969 76.230469 208.921875 73.113281 208.921875 72.273438 C 208.921875 71.992188 208.84375 71.753906 208.605469 71.753906 C 208.285156 71.753906 208.164062 71.910156 207.804688 72.273438 C 206.761719 73.230469 205.964844 73.992188 204.242188 73.992188 C 203.082031 73.992188 202.324219 73.472656 202.324219 71.710938 C 202.324219 67.3125 205.722656 60.152344 208.285156 60.152344 C 209.164062 60.152344 209.605469 60.753906 209.921875 61.351562 C 210.203125 61.871094 210.445312 62.3125 210.882812 62.3125 C 211.445312 62.3125 212.082031 61.230469 212.082031 60.351562 C 212.082031 59.671875 211.324219 59.070312 209.882812 59.070312 C 203.082031 59.070312 199.523438 67.230469 199.445312 72.03125 C 199.402344 74.511719 201.363281 76.230469 202.804688 76.230469 Z M 202.804688 76.230469 "/>
<path style=" stroke:none;fill-rule:evenodd;fill:rgb(0%,0%,0%);fill-opacity:1;" d="M 219.914062 88.515625 C 220.113281 88.515625 220.417969 88.433594 220.53125 87.84375 C 220.8125 86.445312 221.371094 85.296875 221.371094 85.015625 C 221.371094 84.875 221.34375 84.679688 221.175781 84.679688 C 220.867188 84.679688 220.617188 85.101562 220.476562 85.324219 C 219.777344 86.445312 219.410156 86.554688 217.816406 86.640625 C 216.808594 86.695312 215.6875 86.722656 214.625 86.722656 C 213.585938 86.722656 212.777344 86.695312 212.160156 86.640625 C 211.9375 86.613281 211.765625 86.585938 211.765625 86.445312 C 211.765625 86.304688 216.386719 81.824219 217.648438 80.3125 C 218.824219 78.882812 219.691406 76.925781 219.691406 75.410156 C 219.691406 72.695312 218.011719 70.792969 215.210938 70.792969 C 212.046875 70.792969 209.75 73.535156 209.75 74.402344 C 209.75 74.90625 210.03125 75.242188 210.171875 75.242188 C 210.339844 75.242188 210.535156 75.074219 210.648438 74.851562 C 211.429688 73.507812 212.804688 72.585938 214.34375 72.585938 C 215.941406 72.585938 217.339844 73.789062 217.339844 75.777344 C 217.339844 78.238281 215.96875 80.761719 214.089844 82.691406 L 209.304688 87.648438 C 209.136719 87.816406 209.078125 87.84375 209.078125 88.011719 C 209.078125 88.179688 209.5 88.488281 209.640625 88.488281 C 210.199219 88.488281 214.734375 88.347656 216.136719 88.347656 C 217.535156 88.347656 219.355469 88.515625 219.914062 88.515625 Z M 219.914062 88.515625 "/>
<path style=" stroke:none;fill-rule:evenodd;fill:rgb(0%,0%,0%);fill-opacity:1;" d="M 224.214844 76.191406 C 225.175781 76.191406 226.054688 75.871094 227.175781 74.550781 C 228.496094 72.992188 229.777344 71.230469 231.054688 69.632812 C 231.375 69.230469 231.535156 69.230469 231.695312 69.871094 L 232.574219 73.511719 C 233.054688 75.273438 233.617188 76.191406 235.09375 76.191406 C 237.414062 76.191406 239.253906 72.390625 239.253906 70.910156 C 239.253906 70.113281 239.09375 70.03125 238.894531 70.03125 C 238.695312 70.03125 238.535156 70.191406 238.375 70.59375 C 237.574219 72.550781 236.496094 73.792969 235.734375 73.792969 C 235.457031 73.792969 235.09375 73.550781 234.894531 72.832031 L 233.535156 67.910156 C 233.335938 67.230469 233.414062 66.832031 233.617188 66.511719 C 234.617188 64.992188 235.496094 63.953125 236.253906 63.070312 C 237.175781 61.953125 237.894531 61.390625 238.535156 61.390625 C 238.894531 61.390625 239.136719 61.59375 239.414062 62.3125 C 239.574219 62.710938 239.816406 62.992188 240.136719 62.992188 C 240.816406 62.992188 241.816406 61.390625 241.777344 60.792969 C 241.734375 60.152344 240.777344 59.070312 239.734375 59.070312 C 238.296875 59.070312 236.9375 60.3125 236.136719 61.433594 L 233.335938 65.433594 C 233.054688 65.792969 232.855469 65.753906 232.777344 65.351562 L 231.777344 61.113281 C 231.414062 59.710938 230.9375 59.070312 230.09375 59.070312 C 228.335938 59.070312 225.816406 62.070312 225.816406 63.632812 C 225.816406 64.03125 225.894531 64.3125 226.09375 64.3125 C 226.457031 64.3125 226.65625 63.832031 226.777344 63.671875 C 227.777344 62.230469 228.617188 61.59375 229.015625 61.59375 C 229.335938 61.59375 229.457031 61.671875 229.617188 62.273438 L 231.136719 67.871094 C 231.214844 68.113281 231.214844 68.390625 231.015625 68.59375 C 229.335938 70.511719 228.457031 71.671875 226.855469 73.3125 C 226.535156 73.632812 226.136719 73.832031 225.777344 73.792969 C 225.457031 73.792969 225.175781 73.511719 225.015625 72.871094 C 224.9375 72.511719 224.777344 72.152344 224.375 72.152344 C 223.695312 72.152344 222.574219 73.753906 222.574219 74.671875 C 222.574219 75.710938 223.414062 76.191406 224.214844 76.191406 Z M 224.214844 76.191406 "/>
<path style=" stroke:none;fill-rule:evenodd;fill:rgb(0%,0%,0%);fill-opacity:1;" d="M 253.527344 63.714844 C 253.722656 63.714844 254.03125 63.632812 254.144531 63.042969 C 254.421875 61.644531 254.984375 60.496094 254.984375 60.214844 C 254.984375 60.074219 254.957031 59.878906 254.789062 59.878906 C 254.480469 59.878906 254.226562 60.300781 254.085938 60.523438 C 253.386719 61.644531 253.023438 61.757812 251.425781 61.839844 C 250.417969 61.894531 249.300781 61.925781 248.234375 61.925781 C 247.199219 61.925781 246.386719 61.894531 245.773438 61.839844 C 245.546875 61.8125 245.378906 61.785156 245.378906 61.644531 C 245.378906 61.503906 250 57.023438 251.257812 55.511719 C 252.4375 54.085938 253.304688 52.125 253.304688 50.613281 C 253.304688 47.894531 251.625 45.992188 248.824219 45.992188 C 245.660156 45.992188 243.363281 48.734375 243.363281 49.605469 C 243.363281 50.109375 243.644531 50.445312 243.785156 50.445312 C 243.953125 50.445312 244.148438 50.277344 244.257812 50.050781 C 245.042969 48.707031 246.414062 47.785156 247.957031 47.785156 C 249.550781 47.785156 250.953125 48.988281 250.953125 50.976562 C 250.953125 53.441406 249.578125 55.960938 247.703125 57.890625 L 242.914062 62.847656 C 242.746094 63.015625 242.691406 63.042969 242.691406 63.210938 C 242.691406 63.378906 243.113281 63.6875 243.25 63.6875 C 243.8125 63.6875 248.347656 63.546875 249.746094 63.546875 C 251.148438 63.546875 252.96875 63.714844 253.527344 63.714844 Z M 253.527344 63.714844 "/>
<path style=" stroke:none;fill-rule:evenodd;fill:rgb(0%,0%,0%);fill-opacity:1;" d="M 276.078125 75.953125 C 276.4375 75.953125 277.996094 75.832031 277.996094 74.992188 L 277.996094 66.910156 C 277.996094 66.792969 278.035156 66.753906 278.15625 66.753906 L 285.554688 66.753906 C 286.316406 66.753906 286.796875 65.832031 286.796875 65.152344 C 286.796875 64.910156 286.554688 64.753906 286.277344 64.753906 L 278.078125 64.753906 C 277.996094 64.753906 277.996094 64.710938 277.996094 64.511719 L 277.996094 56.871094 C 277.996094 56.59375 277.714844 56.351562 277.4375 56.351562 C 277.195312 56.351562 275.597656 56.710938 275.597656 57.59375 L 275.597656 64.433594 C 275.597656 64.671875 275.554688 64.753906 275.316406 64.753906 L 267.757812 64.753906 C 267.035156 64.753906 266.796875 65.910156 266.796875 66.273438 C 266.796875 66.511719 267.078125 66.753906 267.355469 66.753906 L 275.4375 66.753906 C 275.554688 66.753906 275.597656 66.832031 275.597656 66.953125 L 275.597656 75.390625 C 275.597656 75.671875 275.835938 75.953125 276.078125 75.953125 Z M 276.078125 75.953125 "/>
<path style=" stroke:none;fill-rule:evenodd;fill:rgb(0%,0%,0%);fill-opacity:1;" d="M 302.445312 76.230469 C 305.683594 76.230469 308.566406 73.113281 308.566406 72.273438 C 308.566406 71.992188 308.484375 71.753906 308.246094 71.753906 C 307.925781 71.753906 307.804688 71.910156 307.445312 72.273438 C 306.40625 73.230469 305.605469 73.992188 303.886719 73.992188 C 302.726562 73.992188 301.964844 73.472656 301.964844 71.710938 C 301.964844 67.3125 305.367188 60.152344 307.925781 60.152344 C 308.804688 60.152344 309.246094 60.753906 309.566406 61.351562 C 309.84375 61.871094 310.085938 62.3125 310.523438 62.3125 C 311.085938 62.3125 311.726562 61.230469 311.726562 60.351562 C 311.726562 59.671875 310.964844 59.070312 309.523438 59.070312 C 302.726562 59.070312 299.164062 67.230469 299.085938 72.03125 C 299.046875 74.511719 301.003906 76.230469 302.445312 76.230469 Z M 302.445312 76.230469 "/>
<path style=" stroke:none;fill-rule:evenodd;fill:rgb(0%,0%,0%);fill-opacity:1;" d="M 311.503906 88.515625 C 313.015625 88.515625 314.191406 88.375 315.707031 88.375 C 317.1875 88.375 318.226562 88.515625 319.820312 88.515625 C 320.046875 88.515625 320.214844 88.375 320.214844 88.207031 C 320.214844 88.039062 319.960938 87.898438 319.738281 87.84375 C 317.441406 87.285156 316.769531 87.144531 316.769531 85.714844 L 316.769531 72.835938 C 316.769531 72.050781 316.796875 71.40625 316.882812 70.847656 C 316.910156 70.707031 316.714844 70.597656 316.546875 70.597656 C 316.488281 70.597656 316.433594 70.597656 316.40625 70.625 C 315.144531 71.882812 313.886719 72.109375 312.207031 72.359375 C 311.8125 72.414062 311.503906 72.613281 311.503906 72.863281 C 311.503906 73.171875 311.871094 73.3125 312.234375 73.339844 C 313.4375 73.425781 314.585938 73.621094 314.585938 74.683594 L 314.585938 85.378906 C 314.585938 87.03125 313.632812 87.285156 311.503906 87.816406 C 311.28125 87.871094 311.085938 88.039062 311.085938 88.179688 C 311.085938 88.347656 311.226562 88.515625 311.503906 88.515625 Z M 311.503906 88.515625 "/>
<path style=" stroke:none;fill-rule:evenodd;fill:rgb(0%,0%,0%);fill-opacity:1;" d="M 324.175781 76.191406 C 325.136719 76.191406 326.015625 75.871094 327.136719 74.550781 C 328.457031 72.992188 329.738281 71.230469 331.015625 69.632812 C 331.335938 69.230469 331.496094 69.230469 331.65625 69.871094 L 332.539062 73.511719 C 333.015625 75.273438 333.578125 76.191406 335.058594 76.191406 C 337.378906 76.191406 339.21875 72.390625 339.21875 70.910156 C 339.21875 70.113281 339.058594 70.03125 338.855469 70.03125 C 338.65625 70.03125 338.496094 70.191406 338.335938 70.59375 C 337.539062 72.550781 336.457031 73.792969 335.699219 73.792969 C 335.417969 73.792969 335.058594 73.550781 334.855469 72.832031 L 333.496094 67.910156 C 333.296875 67.230469 333.378906 66.832031 333.578125 66.511719 C 334.578125 64.992188 335.457031 63.953125 336.21875 63.070312 C 337.136719 61.953125 337.855469 61.390625 338.496094 61.390625 C 338.855469 61.390625 339.097656 61.59375 339.378906 62.3125 C 339.539062 62.710938 339.777344 62.992188 340.097656 62.992188 C 340.777344 62.992188 341.777344 61.390625 341.738281 60.792969 C 341.699219 60.152344 340.738281 59.070312 339.699219 59.070312 C 338.257812 59.070312 336.898438 60.3125 336.097656 61.433594 L 333.296875 65.433594 C 333.015625 65.792969 332.816406 65.753906 332.738281 65.351562 L 331.738281 61.113281 C 331.378906 59.710938 330.898438 59.070312 330.058594 59.070312 C 328.296875 59.070312 325.777344 62.070312 325.777344 63.632812 C 325.777344 64.03125 325.855469 64.3125 326.058594 64.3125 C 326.417969 64.3125 326.617188 63.832031 326.738281 63.671875 C 327.738281 62.230469 328.578125 61.59375 328.976562 61.59375 C 329.296875 61.59375 329.417969 61.671875 329.578125 62.273438 L 331.097656 67.871094 C 331.175781 68.113281 331.175781 68.390625 330.976562 68.59375 C 329.296875 70.511719 328.417969 71.671875 326.816406 73.3125 C 326.496094 73.632812 326.097656 73.832031 325.738281 73.792969 C 325.417969 73.792969 325.136719 73.511719 324.976562 72.871094 C 324.898438 72.511719 324.738281 72.152344 324.335938 72.152344 C 323.65625 72.152344 322.539062 73.753906 322.539062 74.671875 C 322.539062 75.710938 323.378906 76.191406 324.175781 76.191406 Z M 324.175781 76.191406 "/>
<path style=" stroke:none;fill-rule:evenodd;fill:rgb(0%,0%,0%);fill-opacity:1;" d="M 362.347656 75.953125 C 362.707031 75.953125 364.265625 75.832031 364.265625 74.992188 L 364.265625 66.910156 C 364.265625 66.792969 364.304688 66.753906 364.425781 66.753906 L 371.828125 66.753906 C 372.585938 66.753906 373.066406 65.832031 373.066406 65.152344 C 373.066406 64.910156 372.828125 64.753906 372.546875 64.753906 L 364.347656 64.753906 C 364.265625 64.753906 364.265625 64.710938 364.265625 64.511719 L 364.265625 56.871094 C 364.265625 56.59375 363.984375 56.351562 363.707031 56.351562 C 363.464844 56.351562 361.867188 56.710938 361.867188 57.59375 L 361.867188 64.433594 C 361.867188 64.671875 361.828125 64.753906 361.585938 64.753906 L 354.027344 64.753906 C 353.304688 64.753906 353.066406 65.910156 353.066406 66.273438 C 353.066406 66.511719 353.347656 66.753906 353.625 66.753906 L 361.707031 66.753906 C 361.828125 66.753906 361.867188 66.832031 361.867188 66.953125 L 361.867188 75.390625 C 361.867188 75.671875 362.105469 75.953125 362.347656 75.953125 Z M 362.347656 75.953125 "/>
<path style=" stroke:none;fill-rule:evenodd;fill:rgb(0%,0%,0%);fill-opacity:1;" d="M 388.714844 76.230469 C 391.957031 76.230469 394.835938 73.113281 394.835938 72.273438 C 394.835938 71.992188 394.753906 71.753906 394.515625 71.753906 C 394.195312 71.753906 394.074219 71.910156 393.714844 72.273438 C 392.675781 73.230469 391.875 73.992188 390.15625 73.992188 C 388.996094 73.992188 388.234375 73.472656 388.234375 71.710938 C 388.234375 67.3125 391.636719 60.152344 394.195312 60.152344 C 395.074219 60.152344 395.515625 60.753906 395.835938 61.351562 C 396.113281 61.871094 396.355469 62.3125 396.796875 62.3125 C 397.355469 62.3125 397.996094 61.230469 397.996094 60.351562 C 397.996094 59.671875 397.234375 59.070312 395.796875 59.070312 C 388.996094 59.070312 385.433594 67.230469 385.355469 72.03125 C 385.316406 74.511719 387.273438 76.230469 388.714844 76.230469 Z M 388.714844 76.230469 "/>
<path style=" stroke:none;fill-rule:evenodd;fill:rgb(0%,0%,0%);fill-opacity:1;" d="M 402.074219 88.824219 C 406.21875 88.824219 407.957031 83.785156 407.957031 79.585938 C 407.957031 75.523438 406.164062 70.792969 402.355469 70.792969 C 398.210938 70.792969 396.476562 75.71875 396.476562 79.976562 C 396.476562 84.121094 398.265625 88.824219 402.074219 88.824219 Z M 402.550781 88.097656 C 400.03125 88.097656 398.800781 83.671875 398.800781 79.472656 C 398.800781 75.273438 399.582031 71.574219 401.824219 71.574219 C 404.34375 71.574219 405.660156 75.886719 405.660156 80.089844 C 405.660156 84.289062 404.792969 88.097656 402.550781 88.097656 Z M 402.550781 88.097656 "/>
</g>
</svg>
