<?xml version="1.0" encoding="UTF-8"?>
<svg xmlns="http://www.w3.org/2000/svg" xmlns:xlink="http://www.w3.org/1999/xlink" width="583.017802pt" height="101.816005pt" viewBox="0 0 583.017802 101.816005" version="1.1">
<g id="surface1">
<path style=" stroke:none;fill-rule:evenodd;fill:rgb(0%,0%,0%);fill-opacity:1;" d="M 9.839844 34 C 12 34 13.679688 33.800781 15.839844 33.800781 C 17.960938 33.800781 19.441406 34 21.71875 34 C 22.039062 34 22.28125 33.800781 22.28125 33.558594 C 22.28125 33.320312 21.921875 33.121094 21.601562 33.039062 C 18.320312 32.238281 17.359375 32.039062 17.359375 30 L 17.359375 11.601562 C 17.359375 10.480469 17.398438 9.558594 17.519531 8.761719 C 17.558594 8.558594 17.28125 8.398438 17.039062 8.398438 C 16.960938 8.398438 16.878906 8.398438 16.839844 8.441406 C 15.039062 10.238281 13.238281 10.558594 10.839844 10.921875 C 10.28125 11 9.839844 11.28125 9.839844 11.640625 C 9.839844 12.078125 10.359375 12.28125 10.878906 12.320312 C 12.601562 12.441406 14.238281 12.71875 14.238281 14.238281 L 14.238281 29.519531 C 14.238281 31.878906 12.878906 32.238281 9.839844 33 C 9.519531 33.078125 9.238281 33.320312 9.238281 33.519531 C 9.238281 33.761719 9.441406 34 9.839844 34 Z M 9.839844 34 "/>
<path style=" stroke:none;fill-rule:nonzero;fill:rgb(0%,0%,0%);fill-opacity:1;" d="M 4 48.238281 L 26.839844 48.238281 L 26.839844 50.238281 L 4 50.238281 Z M 4 48.238281 "/>
<path style=" stroke:none;fill-rule:evenodd;fill:rgb(0%,0%,0%);fill-opacity:1;" d="M 7.960938 83.679688 C 8.238281 83.679688 8.761719 83.199219 9.199219 82.199219 C 10.558594 79.160156 12.558594 73.839844 14.441406 70.078125 C 14.640625 69.679688 14.921875 69.480469 15.28125 69.519531 L 18.121094 69.761719 C 18.398438 69.800781 18.640625 69.960938 18.480469 70.398438 C 17.640625 72.679688 15 79.320312 14.601562 81 C 14.28125 82.359375 14.878906 83.71875 16.078125 83.71875 C 18 83.71875 22.199219 79.921875 22.199219 78.238281 C 22.199219 78.121094 22.078125 78.039062 21.960938 78.039062 C 21.878906 78.039062 21.839844 78.078125 21.800781 78.121094 C 20.28125 79.640625 18.71875 80.519531 17.441406 80.519531 C 16.800781 80.519531 16.640625 79.960938 16.921875 79 C 17.519531 76.921875 18.761719 72.71875 19.839844 70.320312 C 20 69.960938 20.199219 69.878906 20.320312 69.878906 C 20.921875 69.878906 21.679688 69.960938 22.160156 69.960938 C 24.480469 69.960938 26.679688 67.519531 26.679688 66.160156 C 26.679688 65.71875 26.480469 65.519531 26.078125 65.519531 C 25.921875 65.519531 25.480469 66.199219 24.960938 66.519531 C 24.238281 66.960938 23.359375 67 22.28125 67 C 19.640625 67 16.199219 66.761719 13.039062 66.761719 C 7.558594 66.761719 5.320312 69.761719 5.320312 72.441406 C 5.320312 73 5.640625 73.601562 5.921875 73.601562 C 6.238281 73.601562 6.441406 73.238281 6.480469 72.878906 C 6.761719 70.480469 8.761719 68.960938 11.921875 69.199219 L 12.960938 69.28125 C 13.28125 69.320312 13.199219 69.601562 13.121094 69.800781 C 12.238281 72.039062 9.558594 77.078125 6.238281 81.71875 L 6.238281 82.519531 C 6.160156 82.921875 7.398438 83.679688 7.960938 83.679688 Z M 7.960938 83.679688 "/>
<path style=" stroke:none;fill-rule:evenodd;fill:rgb(0%,0%,0%);fill-opacity:1;" d="M 46.734375 46.679688 L 63.535156 46.679688 C 64.171875 46.679688 64.8125 45.679688 64.8125 45.121094 C 64.8125 44.878906 64.492188 44.679688 64.253906 44.679688 L 47.132812 44.679688 C 46.414062 44.679688 46.171875 45.839844 46.171875 46.199219 C 46.171875 46.441406 46.453125 46.679688 46.734375 46.679688 Z M 46.734375 53.519531 L 63.535156 53.519531 C 64.171875 53.519531 64.8125 52.679688 64.8125 51.960938 C 64.8125 51.71875 64.492188 51.519531 64.253906 51.519531 L 47.132812 51.519531 C 46.414062 51.519531 46.171875 52.679688 46.171875 53.039062 C 46.171875 53.28125 46.453125 53.519531 46.734375 53.519531 Z M 46.734375 53.519531 "/>
<path style=" stroke:none;fill-rule:evenodd;fill:rgb(0%,0%,0%);fill-opacity:1;" d="M 109.027344 34 C 109.308594 34 109.746094 33.878906 109.90625 33.039062 C 110.308594 31.039062 111.105469 29.398438 111.105469 29 C 111.105469 28.800781 111.066406 28.519531 110.828125 28.519531 C 110.386719 28.519531 110.027344 29.121094 109.828125 29.441406 C 108.828125 31.039062 108.308594 31.199219 106.027344 31.320312 C 104.585938 31.398438 102.988281 31.441406 101.464844 31.441406 C 99.988281 31.441406 98.828125 31.398438 97.945312 31.320312 C 97.625 31.28125 97.386719 31.238281 97.386719 31.039062 C 97.386719 30.839844 103.988281 24.441406 105.785156 22.28125 C 107.464844 20.238281 108.707031 17.441406 108.707031 15.28125 C 108.707031 11.398438 106.308594 8.679688 102.308594 8.679688 C 97.785156 8.679688 94.507812 12.601562 94.507812 13.839844 C 94.507812 14.558594 94.90625 15.039062 95.105469 15.039062 C 95.347656 15.039062 95.625 14.800781 95.785156 14.480469 C 96.90625 12.558594 98.867188 11.238281 101.066406 11.238281 C 103.347656 11.238281 105.347656 12.960938 105.347656 15.800781 C 105.347656 19.320312 103.386719 22.921875 100.707031 25.679688 L 93.867188 32.761719 C 93.625 33 93.546875 33.039062 93.546875 33.28125 C 93.546875 33.519531 94.148438 33.960938 94.347656 33.960938 C 95.148438 33.960938 101.625 33.761719 103.625 33.761719 C 105.625 33.761719 108.226562 34 109.027344 34 Z M 109.027344 34 "/>
<path style=" stroke:none;fill-rule:evenodd;fill:rgb(0%,0%,0%);fill-opacity:1;" d="M 134.265625 2 C 135.066406 2 135.507812 1.320312 135.507812 0.519531 C 135.507812 0.28125 135.1875 0 134.867188 0 L 133.1875 0 C 132.386719 0 131.867188 0.320312 131.667969 1.078125 L 123.308594 33.679688 C 123.226562 33.921875 123.1875 33.921875 123.105469 33.679688 L 120.148438 24.679688 C 119.90625 23.921875 119.386719 23.519531 118.585938 23.519531 L 114.867188 23.519531 C 114.1875 23.519531 113.828125 24.199219 113.828125 24.839844 C 113.828125 25.078125 114.105469 25.28125 114.386719 25.28125 L 116.066406 25.28125 C 116.347656 25.28125 116.507812 25.441406 116.585938 25.679688 L 120.507812 37.558594 C 120.867188 38.679688 122.148438 39.28125 123.265625 39.28125 C 123.625 39.28125 124.148438 38.800781 124.265625 38.359375 L 133.464844 2.398438 C 133.546875 2.160156 133.707031 2 133.988281 2 Z M 134.265625 2 "/>
<path style=" stroke:none;fill-rule:nonzero;fill:rgb(0%,0%,0%);fill-opacity:1;" d="M 134.105469 0 L 153.664062 0 L 153.664062 2 L 134.105469 2 Z M 134.105469 0 "/>
<path style=" stroke:none;fill-rule:evenodd;fill:rgb(0%,0%,0%);fill-opacity:1;" d="M 150.265625 34 C 150.546875 34 150.988281 33.878906 151.148438 33.039062 C 151.546875 31.039062 152.347656 29.398438 152.347656 29 C 152.347656 28.800781 152.308594 28.519531 152.066406 28.519531 C 151.625 28.519531 151.265625 29.121094 151.066406 29.441406 C 150.066406 31.039062 149.546875 31.199219 147.265625 31.320312 C 145.828125 31.398438 144.226562 31.441406 142.707031 31.441406 C 141.226562 31.441406 140.066406 31.398438 139.1875 31.320312 C 138.867188 31.28125 138.625 31.238281 138.625 31.039062 C 138.625 30.839844 145.226562 24.441406 147.027344 22.28125 C 148.707031 20.238281 149.945312 17.441406 149.945312 15.28125 C 149.945312 11.398438 147.546875 8.679688 143.546875 8.679688 C 139.027344 8.679688 135.746094 12.601562 135.746094 13.839844 C 135.746094 14.558594 136.148438 15.039062 136.347656 15.039062 C 136.585938 15.039062 136.867188 14.800781 137.027344 14.480469 C 138.148438 12.558594 140.105469 11.238281 142.308594 11.238281 C 144.585938 11.238281 146.585938 12.960938 146.585938 15.800781 C 146.585938 19.320312 144.625 22.921875 141.945312 25.679688 L 135.105469 32.761719 C 134.867188 33 134.785156 33.039062 134.785156 33.28125 C 134.785156 33.519531 135.386719 33.960938 135.585938 33.960938 C 136.386719 33.960938 142.867188 33.761719 144.867188 33.761719 C 146.867188 33.761719 149.464844 34 150.265625 34 Z M 150.265625 34 "/>
<path style=" stroke:none;fill-rule:nonzero;fill:rgb(0%,0%,0%);fill-opacity:1;" d="M 84.148438 48.238281 L 162.386719 48.238281 L 162.386719 50.238281 L 84.148438 50.238281 Z M 84.148438 48.238281 "/>
<path style=" stroke:none;fill-rule:evenodd;fill:rgb(0%,0%,0%);fill-opacity:1;" d="M 86.105469 84.398438 C 88.90625 84.398438 93.265625 82.878906 96.1875 79.679688 C 99.828125 75.71875 101.945312 72.160156 101.945312 67.160156 C 101.945312 62.558594 98.148438 58 94.265625 58 C 89.425781 58 86.027344 62.320312 86.027344 65.960938 C 86.027344 68.839844 88.867188 71 91.625 71 C 93.105469 71 94.707031 70.121094 95.308594 69.679688 C 95.746094 69.359375 96.347656 68.800781 96.625 68.28125 C 96.707031 68.121094 96.546875 67.761719 96.347656 67.839844 C 95.347656 68.320312 94.785156 68.878906 93.148438 68.878906 C 91.027344 68.878906 89.027344 66.320312 89.027344 63.878906 C 89.027344 61.921875 90.347656 59.441406 92.945312 59.441406 C 95.867188 59.441406 98.546875 63.761719 98.546875 67.601562 C 98.546875 71.480469 97.546875 74.480469 94.988281 77.800781 C 92.425781 81.078125 88.507812 83.679688 86.105469 83.679688 C 85.828125 83.679688 85.546875 83.800781 85.546875 84.078125 C 85.546875 84.238281 85.667969 84.398438 86.105469 84.398438 Z M 86.105469 84.398438 "/>
<path style=" stroke:none;fill-rule:evenodd;fill:rgb(0%,0%,0%);fill-opacity:1;" d="M 113.105469 83.71875 C 117.027344 83.71875 120.988281 80.761719 120.988281 76.601562 C 120.988281 73.519531 118.828125 71.761719 115.828125 69.679688 C 115.386719 69.398438 115.347656 69.320312 116.027344 68.839844 C 116.945312 68.160156 117.386719 67.800781 118.148438 67.160156 C 119.066406 66.359375 120.265625 65.238281 120.265625 63.320312 C 120.265625 60.078125 117.105469 57.960938 113.90625 57.960938 C 110.347656 57.960938 106.625 60.480469 106.625 63.601562 C 106.625 67 108.867188 68.519531 111.265625 70.558594 C 111.585938 70.839844 111.746094 70.878906 111.386719 71.078125 C 109.347656 72.199219 106.027344 74 106.027344 77.519531 C 106.027344 81.199219 109.425781 83.71875 113.105469 83.71875 Z M 114.945312 68.839844 C 114.785156 68.960938 114.546875 68.839844 114.386719 68.71875 C 111.585938 66.441406 109.707031 65.878906 109.707031 62.800781 C 109.707031 60.640625 111.867188 58.921875 113.707031 58.921875 C 116.027344 58.921875 117.1875 60.800781 117.1875 63.039062 C 117.1875 65.480469 116.785156 67.320312 114.945312 68.839844 Z M 113.667969 82.558594 C 110.867188 82.558594 109.226562 79.679688 109.226562 76.878906 C 109.226562 74.320312 110.066406 73.199219 111.785156 71.800781 C 111.988281 71.640625 112.148438 71.558594 112.265625 71.558594 C 112.507812 71.558594 112.746094 71.71875 113.066406 71.960938 C 115.386719 73.558594 117.785156 75.71875 117.785156 78.199219 C 117.785156 80.558594 116.027344 82.558594 113.667969 82.558594 Z M 113.667969 82.558594 "/>
<path style=" stroke:none;fill-rule:evenodd;fill:rgb(0%,0%,0%);fill-opacity:1;" d="M 132.867188 83.71875 C 138.785156 83.71875 141.265625 76.519531 141.265625 70.519531 C 141.265625 64.71875 138.707031 57.960938 133.265625 57.960938 C 127.347656 57.960938 124.867188 65 124.867188 71.078125 C 124.867188 77 127.425781 83.71875 132.867188 83.71875 Z M 133.546875 82.679688 C 129.945312 82.679688 128.1875 76.359375 128.1875 70.359375 C 128.1875 64.359375 129.308594 59.078125 132.507812 59.078125 C 136.105469 59.078125 137.988281 65.238281 137.988281 71.238281 C 137.988281 77.238281 136.746094 82.679688 133.546875 82.679688 Z M 133.546875 82.679688 "/>
<path style=" stroke:none;fill-rule:evenodd;fill:rgb(0%,0%,0%);fill-opacity:1;" d="M 147.027344 83.28125 C 149.1875 83.28125 150.867188 83.078125 153.027344 83.078125 C 155.148438 83.078125 156.625 83.28125 158.90625 83.28125 C 159.226562 83.28125 159.464844 83.078125 159.464844 82.839844 C 159.464844 82.601562 159.105469 82.398438 158.785156 82.320312 C 155.507812 81.519531 154.546875 81.320312 154.546875 79.28125 L 154.546875 60.878906 C 154.546875 59.761719 154.585938 58.839844 154.707031 58.039062 C 154.746094 57.839844 154.464844 57.679688 154.226562 57.679688 C 154.148438 57.679688 154.066406 57.679688 154.027344 57.71875 C 152.226562 59.519531 150.425781 59.839844 148.027344 60.199219 C 147.464844 60.28125 147.027344 60.558594 147.027344 60.921875 C 147.027344 61.359375 147.546875 61.558594 148.066406 61.601562 C 149.785156 61.71875 151.425781 62 151.425781 63.519531 L 151.425781 78.800781 C 151.425781 81.160156 150.066406 81.519531 147.027344 82.28125 C 146.707031 82.359375 146.425781 82.601562 146.425781 82.800781 C 146.425781 83.039062 146.625 83.28125 147.027344 83.28125 Z M 147.027344 83.28125 "/>
<path style=" stroke:none;fill-rule:evenodd;fill:rgb(0%,0%,0%);fill-opacity:1;" d="M 193.726562 15.144531 C 196.1875 15.144531 197.503906 12.875 198.289062 11.449219 C 198.429688 11.167969 198.542969 11.140625 198.679688 11.363281 C 200.023438 13.492188 201.203125 15.144531 203.46875 15.144531 C 206.351562 15.144531 208.398438 12.371094 208.398438 9.628906 C 208.398438 7.050781 206.632812 4.671875 204.058594 4.671875 C 201.59375 4.671875 200.277344 6.882812 199.492188 8.3125 C 199.382812 8.507812 199.242188 8.621094 199.101562 8.394531 C 197.757812 6.269531 196.582031 4.671875 194.3125 4.671875 C 191.429688 4.671875 189.386719 7.445312 189.386719 10.1875 C 189.386719 12.765625 191.148438 15.144531 193.726562 15.144531 Z M 194.171875 13.128906 C 192.15625 13.128906 190.199219 11.8125 190.199219 9.796875 C 190.199219 8.144531 191.738281 6.632812 193.53125 6.632812 C 195.265625 6.632812 196.722656 8.5625 197.839844 10.1875 C 198.007812 10.410156 198.121094 10.578125 198.121094 10.746094 C 198.121094 10.832031 198.066406 10.945312 197.953125 11.085938 C 196.972656 12.289062 195.964844 13.128906 194.171875 13.128906 Z M 204.367188 13.238281 C 202.628906 13.238281 201.144531 11.28125 200.023438 9.65625 C 199.855469 9.433594 199.746094 9.265625 199.746094 9.097656 C 199.746094 9.011719 199.800781 8.898438 199.914062 8.761719 C 200.894531 7.554688 201.816406 6.6875 203.609375 6.6875 C 205.625 6.6875 207.585938 8.003906 207.585938 10.019531 C 207.585938 11.671875 206.128906 13.238281 204.367188 13.238281 Z M 204.367188 13.238281 "/>
<path style=" stroke:none;fill-rule:evenodd;fill:rgb(0%,0%,0%);fill-opacity:1;" d="M 176.894531 22.679688 C 176.894531 23.160156 195.8125 45 199.332031 49.398438 C 199.453125 49.558594 199.492188 49.679688 199.375 49.839844 C 196.09375 53.761719 176.253906 76.320312 176.253906 76.71875 C 176.253906 77.121094 176.734375 77.320312 177.09375 77.320312 C 179.011719 77.320312 179.574219 77.121094 181.574219 77.078125 C 183.011719 77.039062 196.691406 77.039062 198.375 77.039062 C 200.652344 77.039062 211.253906 77.039062 213.8125 77.078125 C 214.933594 77.078125 215.8125 77.28125 217.011719 77.28125 C 217.414062 77.28125 217.492188 76.960938 217.574219 76.601562 C 217.773438 75.601562 219.171875 71.078125 219.894531 69.039062 C 219.894531 69 219.933594 68.921875 219.933594 68.878906 C 219.933594 68.679688 219.773438 68.519531 219.574219 68.519531 C 219.054688 68.519531 218.691406 69.160156 218.332031 69.800781 C 217.214844 71.921875 215.851562 73.558594 213.574219 73.558594 C 210.09375 73.558594 184.652344 73.71875 182.253906 73.398438 C 181.8125 73.359375 181.652344 73.039062 181.933594 72.71875 L 202.894531 48.398438 C 203.054688 48.199219 203.332031 47.921875 202.933594 47.519531 C 200.332031 44.679688 186.09375 28.078125 183.332031 24.558594 C 183.253906 24.441406 183.171875 24.320312 183.171875 24.199219 C 183.171875 24.039062 183.332031 23.921875 183.933594 23.921875 C 186.613281 23.921875 209.292969 24 211.691406 24.160156 C 212.972656 24.238281 214.453125 25.601562 215.171875 27.558594 C 215.375 28.039062 215.453125 28.839844 216.054688 28.839844 C 216.375 28.839844 216.453125 28.558594 216.453125 28.199219 C 216.453125 27.921875 216.414062 27.601562 216.375 27.320312 C 216.214844 26.398438 215.652344 23.519531 215.414062 21.839844 C 215.332031 21.238281 215.011719 21.160156 214.8125 21.160156 C 214.613281 21.160156 214.214844 21.398438 213.8125 21.71875 C 213.492188 21.960938 212.054688 22.039062 210.894531 22.039062 C 208.691406 22.078125 198.332031 22.078125 196.375 22.078125 C 192.8125 22.078125 180.492188 22.039062 177.535156 21.960938 C 177.292969 21.960938 176.894531 22.160156 176.894531 22.679688 Z M 176.894531 22.679688 "/>
<path style=" stroke:none;fill-rule:evenodd;fill:rgb(0%,0%,0%);fill-opacity:1;" d="M 185.128906 101.675781 C 185.996094 101.675781 188.292969 99.519531 188.292969 98.34375 C 188.292969 98.203125 188.179688 98.007812 188.125 98.007812 C 187.984375 98.007812 187.875 98.035156 187.675781 98.371094 C 187.171875 99.183594 186.417969 99.996094 185.71875 99.996094 C 185.296875 99.996094 184.960938 99.574219 184.792969 99.183594 L 183.503906 96.132812 C 183.421875 95.9375 183.449219 95.878906 183.644531 95.824219 C 185.550781 95.292969 189.355469 92.6875 189.355469 90.726562 C 189.355469 89.886719 188.460938 89.46875 187.707031 89.46875 C 185.828125 89.46875 183.394531 91.203125 181.488281 93.863281 C 181.347656 94.058594 181.097656 94.171875 181.238281 93.753906 L 185.015625 82.242188 C 185.101562 81.992188 185.101562 81.90625 185.101562 81.601562 C 185.101562 81.320312 184.820312 81.320312 184.652344 81.320312 C 184.207031 81.320312 182.328125 81.9375 181.488281 82.355469 C 181.378906 82.410156 181.320312 82.523438 181.320312 82.664062 C 181.320312 82.777344 181.683594 82.914062 182.050781 83.054688 C 182.441406 83.195312 182.664062 83.390625 182.664062 83.617188 C 182.664062 84.0625 182.609375 84.511719 182.386719 85.210938 L 177.710938 99.714844 C 177.542969 100.277344 177.484375 100.722656 177.484375 100.890625 C 177.484375 101.226562 177.933594 101.507812 178.214844 101.507812 C 178.660156 101.507812 178.71875 101.257812 178.941406 100.640625 C 179.136719 100.109375 180.035156 97.8125 180.257812 97.28125 C 180.425781 96.886719 180.761719 96.105469 181.011719 96.105469 C 181.628906 96.105469 182.078125 96.71875 182.300781 97.335938 L 183.367188 100.304688 C 183.757812 101.199219 184.234375 101.675781 185.128906 101.675781 Z M 182.1875 95.402344 C 181.964844 95.402344 181.851562 95.152344 181.851562 94.929688 C 181.851562 94.144531 184.820312 90.671875 186.390625 90.671875 C 187.0625 90.671875 187.398438 91.007812 187.398438 91.566406 C 187.398438 92.800781 184.511719 95.402344 182.1875 95.402344 Z M 182.1875 95.402344 "/>
<path style=" stroke:none;fill-rule:evenodd;fill:rgb(0%,0%,0%);fill-opacity:1;" d="M 191.738281 92.296875 L 203.496094 92.296875 C 203.945312 92.296875 204.394531 91.597656 204.394531 91.203125 C 204.394531 91.035156 204.167969 90.894531 204 90.894531 L 192.015625 90.894531 C 191.511719 90.894531 191.34375 91.707031 191.34375 91.960938 C 191.34375 92.128906 191.542969 92.296875 191.738281 92.296875 Z M 191.738281 97.085938 L 203.496094 97.085938 C 203.945312 97.085938 204.394531 96.496094 204.394531 95.992188 C 204.394531 95.824219 204.167969 95.683594 204 95.683594 L 192.015625 95.683594 C 191.511719 95.683594 191.34375 96.496094 191.34375 96.746094 C 191.34375 96.914062 191.542969 97.085938 191.738281 97.085938 Z M 191.738281 97.085938 "/>
<path style=" stroke:none;fill-rule:evenodd;fill:rgb(0%,0%,0%);fill-opacity:1;" d="M 212.511719 101.480469 C 216.65625 101.480469 218.394531 96.441406 218.394531 92.238281 C 218.394531 88.179688 216.601562 83.449219 212.792969 83.449219 C 208.648438 83.449219 206.914062 88.375 206.914062 92.632812 C 206.914062 96.777344 208.707031 101.480469 212.511719 101.480469 Z M 212.988281 100.753906 C 210.46875 100.753906 209.238281 96.328125 209.238281 92.128906 C 209.238281 87.929688 210.019531 84.230469 212.261719 84.230469 C 214.78125 84.230469 216.097656 88.542969 216.097656 92.742188 C 216.097656 96.945312 215.230469 100.753906 212.988281 100.753906 Z M 212.988281 100.753906 "/>
<path style=" stroke:none;fill-rule:evenodd;fill:rgb(0%,0%,0%);fill-opacity:1;" d="M 245.679688 42.238281 C 246.199219 42.238281 246.761719 41.921875 246.761719 41.359375 C 246.761719 41.28125 246.199219 40.640625 246.160156 40.558594 C 243.71875 37.71875 241.121094 29.199219 241.121094 22.398438 C 241.121094 15.601562 243.839844 9.71875 246.28125 6.878906 C 246.359375 6.800781 246.800781 6.160156 246.800781 6.078125 C 246.800781 5.71875 246.199219 5.441406 245.921875 5.441406 C 245.519531 5.441406 245.078125 5.679688 244.839844 5.921875 C 242 8.761719 237.800781 16.078125 237.800781 22.878906 C 237.800781 29.679688 242.160156 39.078125 245 41.921875 C 245.199219 42.121094 245.441406 42.238281 245.679688 42.238281 Z M 245.679688 42.238281 "/>
<path style=" stroke:none;fill-rule:evenodd;fill:rgb(0%,0%,0%);fill-opacity:1;" d="M 256.839844 33.960938 C 259 33.960938 259.398438 33.761719 261.441406 33.761719 C 263.320312 33.761719 263.679688 33.960938 265.960938 33.960938 C 266.28125 33.960938 266.558594 33.761719 266.558594 33.519531 C 266.558594 33.28125 266.160156 33.039062 265.839844 32.960938 C 263.679688 32.398438 263.160156 32.039062 263.160156 30.480469 L 263.160156 26.71875 C 263.160156 26.679688 263.480469 26.519531 263.679688 26.480469 C 264 26.441406 264.441406 26.398438 264.921875 26.398438 C 265.558594 26.398438 266.28125 26.441406 266.878906 26.441406 C 267.039062 26.441406 267.71875 25.558594 267.71875 24.921875 C 267.71875 24.761719 267.519531 24.601562 267.28125 24.601562 C 266.398438 24.640625 265.679688 24.679688 264.921875 24.679688 C 264.441406 24.679688 263.921875 24.679688 263.320312 24.640625 C 263.199219 24.640625 263.121094 24.519531 263.121094 24.398438 L 263.121094 19.238281 C 263.121094 17.558594 263.121094 16.679688 262.519531 16.679688 C 262.160156 16.679688 261.078125 16.761719 260.28125 17.199219 C 259.960938 17.359375 259.921875 17.519531 259.921875 18.078125 L 259.921875 24.28125 C 259.921875 24.441406 259.640625 24.601562 259.441406 24.601562 L 252.519531 24.601562 C 252.359375 24.601562 252.441406 24.359375 252.519531 24.238281 L 263.320312 8.71875 C 263.320312 8.71875 263.640625 8.160156 263.398438 8.160156 L 262.558594 8.160156 C 262.160156 8.160156 261.679688 8.800781 261.359375 9.28125 L 250.800781 24.441406 C 250.28125 25.160156 250.238281 25.078125 249.238281 26.320312 C 249.199219 26.359375 249.199219 26.398438 249.199219 26.441406 C 249.199219 26.601562 249.398438 26.839844 249.601562 26.839844 C 253.800781 26.800781 256.039062 26.558594 259.320312 26.558594 C 259.359375 26.558594 259.921875 26.679688 259.921875 26.921875 L 259.921875 30.640625 C 259.921875 31.921875 259.320312 32.640625 256.839844 32.960938 C 256.519531 33 256.121094 33.160156 256.121094 33.441406 C 256.121094 33.800781 256.558594 33.960938 256.839844 33.960938 Z M 256.839844 33.960938 "/>
<path style=" stroke:none;fill-rule:evenodd;fill:rgb(0%,0%,0%);fill-opacity:1;" d="M 280.398438 34.679688 C 281.640625 34.679688 284.921875 31.601562 284.921875 29.921875 C 284.921875 29.71875 284.761719 29.441406 284.679688 29.441406 C 284.480469 29.441406 284.320312 29.480469 284.039062 29.960938 C 283.320312 31.121094 282.238281 32.28125 281.238281 32.28125 C 280.640625 32.28125 280.160156 31.679688 279.921875 31.121094 L 278.078125 26.761719 C 277.960938 26.480469 278 26.398438 278.28125 26.320312 C 281 25.558594 286.441406 21.839844 286.441406 19.039062 C 286.441406 17.839844 285.160156 17.238281 284.078125 17.238281 C 281.398438 17.238281 277.921875 19.71875 275.199219 23.519531 C 275 23.800781 274.640625 23.960938 274.839844 23.359375 L 280.238281 6.921875 C 280.359375 6.558594 280.359375 6.441406 280.359375 6 C 280.359375 5.601562 279.960938 5.601562 279.71875 5.601562 C 279.078125 5.601562 276.398438 6.480469 275.199219 7.078125 C 275.039062 7.160156 274.960938 7.320312 274.960938 7.519531 C 274.960938 7.679688 275.480469 7.878906 276 8.078125 C 276.558594 8.28125 276.878906 8.558594 276.878906 8.878906 C 276.878906 9.519531 276.800781 10.160156 276.480469 11.160156 L 269.800781 31.878906 C 269.558594 32.679688 269.480469 33.320312 269.480469 33.558594 C 269.480469 34.039062 270.121094 34.441406 270.519531 34.441406 C 271.160156 34.441406 271.238281 34.078125 271.558594 33.199219 C 271.839844 32.441406 273.121094 29.160156 273.441406 28.398438 C 273.679688 27.839844 274.160156 26.71875 274.519531 26.71875 C 275.398438 26.71875 276.039062 27.601562 276.359375 28.480469 L 277.878906 32.71875 C 278.441406 34 279.121094 34.679688 280.398438 34.679688 Z M 276.199219 25.71875 C 275.878906 25.71875 275.71875 25.359375 275.71875 25.039062 C 275.71875 23.921875 279.960938 18.960938 282.199219 18.960938 C 283.160156 18.960938 283.640625 19.441406 283.640625 20.238281 C 283.640625 22 279.519531 25.71875 276.199219 25.71875 Z M 276.199219 25.71875 "/>
<path style=" stroke:none;fill-rule:evenodd;fill:rgb(0%,0%,0%);fill-opacity:1;" d="M 290.398438 42.238281 C 290.640625 42.238281 290.878906 42.121094 291.078125 41.921875 C 293.921875 39.078125 298.28125 29.679688 298.28125 22.878906 C 298.28125 16.078125 294.078125 8.761719 291.238281 5.921875 C 291 5.679688 290.558594 5.441406 290.160156 5.441406 C 289.878906 5.441406 289.28125 5.71875 289.28125 6.078125 C 289.28125 6.160156 289.71875 6.800781 289.800781 6.878906 C 292.238281 9.71875 294.960938 15.601562 294.960938 22.398438 C 294.960938 29.199219 292.359375 37.71875 289.921875 40.558594 C 289.878906 40.640625 289.320312 41.28125 289.320312 41.359375 C 289.320312 41.921875 289.878906 42.238281 290.398438 42.238281 Z M 290.398438 42.238281 "/>
<path style=" stroke:none;fill-rule:evenodd;fill:rgb(0%,0%,0%);fill-opacity:1;" d="M 307.199219 25.640625 C 307.601562 25.640625 307.839844 24.960938 307.921875 24.078125 C 308.398438 19.558594 309.121094 12.601562 309.121094 10.078125 C 309.121094 8.921875 308.398438 7.878906 307.320312 7.878906 C 306.238281 7.878906 305.441406 8.921875 305.441406 10.078125 C 305.441406 12.601562 306 19.519531 306.480469 24.078125 C 306.601562 25.238281 306.800781 25.640625 307.199219 25.640625 Z M 307.28125 34.398438 C 308.601562 34.398438 309.679688 33.320312 309.679688 32 C 309.679688 30.679688 308.601562 29.601562 307.28125 29.601562 C 305.960938 29.601562 304.878906 30.679688 304.878906 32 C 304.878906 33.320312 305.960938 34.398438 307.28125 34.398438 Z M 307.28125 34.398438 "/>
<path style=" stroke:none;fill-rule:evenodd;fill:rgb(0%,0%,0%);fill-opacity:1;" d="M 324.160156 42.238281 C 324.679688 42.238281 325.238281 41.921875 325.238281 41.359375 C 325.238281 41.28125 324.679688 40.640625 324.640625 40.558594 C 322.199219 37.71875 319.601562 29.199219 319.601562 22.398438 C 319.601562 15.601562 322.320312 9.71875 324.761719 6.878906 C 324.839844 6.800781 325.28125 6.160156 325.28125 6.078125 C 325.28125 5.71875 324.679688 5.441406 324.398438 5.441406 C 324 5.441406 323.558594 5.679688 323.320312 5.921875 C 320.480469 8.761719 316.28125 16.078125 316.28125 22.878906 C 316.28125 29.679688 320.640625 39.078125 323.480469 41.921875 C 323.679688 42.121094 323.921875 42.238281 324.160156 42.238281 Z M 324.160156 42.238281 "/>
<path style=" stroke:none;fill-rule:evenodd;fill:rgb(0%,0%,0%);fill-opacity:1;" d="M 331.480469 33.960938 C 333.640625 33.960938 335.320312 33.761719 337.480469 33.761719 C 339.601562 33.761719 341.078125 33.960938 343.359375 33.960938 C 343.679688 33.960938 343.921875 33.761719 343.921875 33.519531 C 343.921875 33.28125 343.558594 33.078125 343.238281 33 C 339.960938 32.199219 339 32 339 29.960938 L 339 11.558594 C 339 10.441406 339.039062 9.519531 339.160156 8.71875 C 339.199219 8.519531 338.921875 8.359375 338.679688 8.359375 C 338.601562 8.359375 338.519531 8.359375 338.480469 8.398438 C 336.679688 10.199219 334.878906 10.519531 332.480469 10.878906 C 331.921875 10.960938 331.480469 11.238281 331.480469 11.601562 C 331.480469 12.039062 332 12.238281 332.519531 12.28125 C 334.238281 12.398438 335.878906 12.679688 335.878906 14.199219 L 335.878906 29.480469 C 335.878906 31.839844 334.519531 32.199219 331.480469 32.960938 C 331.160156 33.039062 330.878906 33.28125 330.878906 33.480469 C 330.878906 33.71875 331.078125 33.960938 331.480469 33.960938 Z M 331.480469 33.960938 "/>
<path style=" stroke:none;fill-rule:evenodd;fill:rgb(0%,0%,0%);fill-opacity:1;" d="M 351.039062 33.960938 C 353.199219 33.960938 354.878906 33.761719 357.039062 33.761719 C 359.160156 33.761719 360.640625 33.960938 362.921875 33.960938 C 363.238281 33.960938 363.480469 33.761719 363.480469 33.519531 C 363.480469 33.28125 363.121094 33.078125 362.800781 33 C 359.519531 32.199219 358.558594 32 358.558594 29.960938 L 358.558594 11.558594 C 358.558594 10.441406 358.601562 9.519531 358.71875 8.71875 C 358.761719 8.519531 358.480469 8.359375 358.238281 8.359375 C 358.160156 8.359375 358.078125 8.359375 358.039062 8.398438 C 356.238281 10.199219 354.441406 10.519531 352.039062 10.878906 C 351.480469 10.960938 351.039062 11.238281 351.039062 11.601562 C 351.039062 12.039062 351.558594 12.238281 352.078125 12.28125 C 353.800781 12.398438 355.441406 12.679688 355.441406 14.199219 L 355.441406 29.480469 C 355.441406 31.839844 354.078125 32.199219 351.039062 32.960938 C 350.71875 33.039062 350.441406 33.28125 350.441406 33.480469 C 350.441406 33.71875 350.640625 33.960938 351.039062 33.960938 Z M 351.039062 33.960938 "/>
<path style=" stroke:none;fill-rule:evenodd;fill:rgb(0%,0%,0%);fill-opacity:1;" d="M 376 34.398438 C 381.921875 34.398438 384.398438 27.199219 384.398438 21.199219 C 384.398438 15.398438 381.839844 8.640625 376.398438 8.640625 C 370.480469 8.640625 368 15.679688 368 21.761719 C 368 27.679688 370.558594 34.398438 376 34.398438 Z M 376.679688 33.359375 C 373.078125 33.359375 371.320312 27.039062 371.320312 21.039062 C 371.320312 15.039062 372.441406 9.761719 375.640625 9.761719 C 379.238281 9.761719 381.121094 15.921875 381.121094 21.921875 C 381.121094 27.921875 379.878906 33.359375 376.679688 33.359375 Z M 376.679688 33.359375 "/>
<path style=" stroke:none;fill-rule:evenodd;fill:rgb(0%,0%,0%);fill-opacity:1;" d="M 391.761719 35.359375 C 397.199219 35.359375 402.878906 31.71875 402.878906 25.71875 C 402.878906 22.320312 400.199219 19.441406 396.800781 19.441406 C 396.601562 19.441406 396.601562 19.28125 396.761719 19.199219 C 399.878906 17.398438 400.960938 15.121094 400.960938 13.199219 C 400.960938 10.480469 398.398438 8.640625 395.761719 8.640625 C 390.320312 8.640625 388.039062 12.441406 388.039062 13.839844 C 388.039062 14.238281 388.480469 14.601562 388.679688 14.601562 C 389.28125 14.601562 389.921875 11.039062 394.039062 11.039062 C 396.199219 11.039062 397.800781 13 397.800781 15.199219 C 397.800781 18.039062 393.679688 20.121094 392.761719 20.558594 C 392.238281 20.800781 391.761719 21.238281 391.558594 21.921875 C 391.480469 22.199219 391.960938 22.441406 392.238281 22.28125 C 393.160156 21.761719 394.238281 21.679688 394.839844 21.679688 C 397.921875 21.679688 399.480469 24.921875 399.480469 28 C 399.480469 31.320312 396.558594 33.839844 393.640625 33.839844 C 392.160156 33.839844 391.320312 33.199219 390.640625 32.601562 C 390.121094 32.199219 389.679688 31.800781 389.078125 31.800781 C 388.480469 31.800781 387.320312 33.078125 387.320312 33.640625 C 387.320312 34.28125 389.878906 35.359375 391.761719 35.359375 Z M 391.761719 35.359375 "/>
<path style=" stroke:none;fill-rule:evenodd;fill:rgb(0%,0%,0%);fill-opacity:1;" d="M 425.6875 34.160156 C 426.050781 34.160156 427.609375 34.039062 427.609375 33.199219 L 427.609375 25.121094 C 427.609375 25 427.648438 24.960938 427.769531 24.960938 L 435.167969 24.960938 C 435.929688 24.960938 436.410156 24.039062 436.410156 23.359375 C 436.410156 23.121094 436.167969 22.960938 435.890625 22.960938 L 427.6875 22.960938 C 427.609375 22.960938 427.609375 22.921875 427.609375 22.71875 L 427.609375 15.078125 C 427.609375 14.800781 427.328125 14.558594 427.050781 14.558594 C 426.808594 14.558594 425.207031 14.921875 425.207031 15.800781 L 425.207031 22.640625 C 425.207031 22.878906 425.167969 22.960938 424.929688 22.960938 L 417.367188 22.960938 C 416.648438 22.960938 416.410156 24.121094 416.410156 24.480469 C 416.410156 24.71875 416.6875 24.960938 416.96875 24.960938 L 425.050781 24.960938 C 425.167969 24.960938 425.207031 25.039062 425.207031 25.160156 L 425.207031 33.601562 C 425.207031 33.878906 425.449219 34.160156 425.6875 34.160156 Z M 425.6875 34.160156 "/>
<path style=" stroke:none;fill-rule:evenodd;fill:rgb(0%,0%,0%);fill-opacity:1;" d="M 463.457031 33.960938 C 463.738281 33.960938 464.179688 33.839844 464.335938 33 C 464.738281 31 465.539062 29.359375 465.539062 28.960938 C 465.539062 28.761719 465.496094 28.480469 465.257812 28.480469 C 464.816406 28.480469 464.457031 29.078125 464.257812 29.398438 C 463.257812 31 462.738281 31.160156 460.457031 31.28125 C 459.019531 31.359375 457.417969 31.398438 455.898438 31.398438 C 454.417969 31.398438 453.257812 31.359375 452.378906 31.28125 C 452.058594 31.238281 451.816406 31.199219 451.816406 31 C 451.816406 30.800781 458.417969 24.398438 460.21875 22.238281 C 461.898438 20.199219 463.136719 17.398438 463.136719 15.238281 C 463.136719 11.359375 460.738281 8.640625 456.738281 8.640625 C 452.21875 8.640625 448.9375 12.558594 448.9375 13.800781 C 448.9375 14.519531 449.335938 15 449.539062 15 C 449.777344 15 450.058594 14.761719 450.21875 14.441406 C 451.335938 12.519531 453.296875 11.199219 455.496094 11.199219 C 457.777344 11.199219 459.777344 12.921875 459.777344 15.761719 C 459.777344 19.28125 457.816406 22.878906 455.136719 25.640625 L 448.296875 32.71875 C 448.058594 32.960938 447.976562 33 447.976562 33.238281 C 447.976562 33.480469 448.578125 33.921875 448.777344 33.921875 C 449.578125 33.921875 456.058594 33.71875 458.058594 33.71875 C 460.058594 33.71875 462.65625 33.960938 463.457031 33.960938 Z M 463.457031 33.960938 "/>
<path style=" stroke:none;fill-rule:evenodd;fill:rgb(0%,0%,0%);fill-opacity:1;" d="M 476.699219 34.480469 C 480.578125 34.480469 484.898438 31.238281 484.898438 26.238281 C 484.898438 23.359375 482.417969 21.320312 479.65625 21.320312 C 478.179688 21.320312 476.335938 22.199219 475.738281 22.640625 C 475.296875 22.960938 475.058594 23.160156 474.65625 23.601562 C 474.378906 23.921875 474.457031 24.28125 474.9375 24.039062 C 475.859375 23.558594 476.738281 23.441406 478.136719 23.441406 C 480.257812 23.441406 481.777344 25.71875 481.777344 28.160156 C 481.777344 31.480469 479.816406 33 477.65625 32.960938 C 475.019531 32.921875 472.019531 30.480469 471.9375 26.039062 C 471.9375 21.878906 474.296875 17.519531 475.617188 15.601562 C 477.65625 12.679688 480.097656 10.839844 483.699219 9.28125 C 483.976562 9.160156 484.496094 8.960938 484.738281 8.480469 C 484.816406 8.320312 484.496094 8.078125 484.019531 8.199219 C 479.097656 9.519531 475.335938 12.71875 473.335938 14.761719 C 471.816406 16.28125 468.496094 20.160156 468.496094 26.121094 C 468.496094 31.71875 472.578125 34.480469 476.699219 34.480469 Z M 476.699219 34.480469 "/>
<path style=" stroke:none;fill-rule:evenodd;fill:rgb(0%,0%,0%);fill-opacity:1;" d="M 492.21875 35.359375 C 497.65625 35.359375 503.335938 31.71875 503.335938 25.71875 C 503.335938 22.320312 500.65625 19.441406 497.257812 19.441406 C 497.058594 19.441406 497.058594 19.28125 497.21875 19.199219 C 500.335938 17.398438 501.417969 15.121094 501.417969 13.199219 C 501.417969 10.480469 498.859375 8.640625 496.21875 8.640625 C 490.777344 8.640625 488.496094 12.441406 488.496094 13.839844 C 488.496094 14.238281 488.9375 14.601562 489.136719 14.601562 C 489.738281 14.601562 490.378906 11.039062 494.496094 11.039062 C 496.65625 11.039062 498.257812 13 498.257812 15.199219 C 498.257812 18.039062 494.136719 20.121094 493.21875 20.558594 C 492.699219 20.800781 492.21875 21.238281 492.019531 21.921875 C 491.9375 22.199219 492.417969 22.441406 492.699219 22.28125 C 493.617188 21.761719 494.699219 21.679688 495.296875 21.679688 C 498.378906 21.679688 499.9375 24.921875 499.9375 28 C 499.9375 31.320312 497.019531 33.839844 494.097656 33.839844 C 492.617188 33.839844 491.777344 33.199219 491.097656 32.601562 C 490.578125 32.199219 490.136719 31.800781 489.539062 31.800781 C 488.9375 31.800781 487.777344 33.078125 487.777344 33.640625 C 487.777344 34.28125 490.335938 35.359375 492.21875 35.359375 Z M 492.21875 35.359375 "/>
<path style=" stroke:none;fill-rule:evenodd;fill:rgb(0%,0%,0%);fill-opacity:1;" d="M 507.9375 35.078125 C 510.738281 35.078125 515.097656 33.558594 518.019531 30.359375 C 521.65625 26.398438 523.777344 22.839844 523.777344 17.839844 C 523.777344 13.238281 519.976562 8.679688 516.097656 8.679688 C 511.257812 8.679688 507.859375 13 507.859375 16.640625 C 507.859375 19.519531 510.699219 21.679688 513.457031 21.679688 C 514.9375 21.679688 516.539062 20.800781 517.136719 20.359375 C 517.578125 20.039062 518.179688 19.480469 518.457031 18.960938 C 518.539062 18.800781 518.378906 18.441406 518.179688 18.519531 C 517.179688 19 516.617188 19.558594 514.976562 19.558594 C 512.859375 19.558594 510.859375 17 510.859375 14.558594 C 510.859375 12.601562 512.179688 10.121094 514.777344 10.121094 C 517.699219 10.121094 520.378906 14.441406 520.378906 18.28125 C 520.378906 22.160156 519.378906 25.160156 516.816406 28.480469 C 514.257812 31.761719 510.335938 34.359375 507.9375 34.359375 C 507.65625 34.359375 507.378906 34.480469 507.378906 34.761719 C 507.378906 34.921875 507.496094 35.078125 507.9375 35.078125 Z M 507.9375 35.078125 "/>
<path style=" stroke:none;fill-rule:evenodd;fill:rgb(0%,0%,0%);fill-opacity:1;" d="M 535.136719 34.398438 C 541.058594 34.398438 543.539062 27.199219 543.539062 21.199219 C 543.539062 15.398438 540.976562 8.640625 535.539062 8.640625 C 529.617188 8.640625 527.136719 15.679688 527.136719 21.761719 C 527.136719 27.679688 529.699219 34.398438 535.136719 34.398438 Z M 535.816406 33.359375 C 532.21875 33.359375 530.457031 27.039062 530.457031 21.039062 C 530.457031 15.039062 531.578125 9.761719 534.777344 9.761719 C 538.378906 9.761719 540.257812 15.921875 540.257812 21.921875 C 540.257812 27.921875 539.019531 33.359375 535.816406 33.359375 Z M 535.816406 33.359375 "/>
<path style=" stroke:none;fill-rule:evenodd;fill:rgb(0%,0%,0%);fill-opacity:1;" d="M 557.136719 34.679688 C 558.378906 34.679688 561.65625 31.601562 561.65625 29.921875 C 561.65625 29.71875 561.496094 29.441406 561.417969 29.441406 C 561.21875 29.441406 561.058594 29.480469 560.777344 29.960938 C 560.058594 31.121094 558.976562 32.28125 557.976562 32.28125 C 557.378906 32.28125 556.898438 31.679688 556.65625 31.121094 L 554.816406 26.761719 C 554.699219 26.480469 554.738281 26.398438 555.019531 26.320312 C 557.738281 25.558594 563.179688 21.839844 563.179688 19.039062 C 563.179688 17.839844 561.898438 17.238281 560.816406 17.238281 C 558.136719 17.238281 554.65625 19.71875 551.9375 23.519531 C 551.738281 23.800781 551.378906 23.960938 551.578125 23.359375 L 556.976562 6.921875 C 557.097656 6.558594 557.097656 6.441406 557.097656 6 C 557.097656 5.601562 556.699219 5.601562 556.457031 5.601562 C 555.816406 5.601562 553.136719 6.480469 551.9375 7.078125 C 551.777344 7.160156 551.699219 7.320312 551.699219 7.519531 C 551.699219 7.679688 552.21875 7.878906 552.738281 8.078125 C 553.296875 8.28125 553.617188 8.558594 553.617188 8.878906 C 553.617188 9.519531 553.539062 10.160156 553.21875 11.160156 L 546.539062 31.878906 C 546.296875 32.679688 546.21875 33.320312 546.21875 33.558594 C 546.21875 34.039062 546.859375 34.441406 547.257812 34.441406 C 547.898438 34.441406 547.976562 34.078125 548.296875 33.199219 C 548.578125 32.441406 549.859375 29.160156 550.179688 28.398438 C 550.417969 27.839844 550.898438 26.71875 551.257812 26.71875 C 552.136719 26.71875 552.777344 27.601562 553.097656 28.480469 L 554.617188 32.71875 C 555.179688 34 555.859375 34.679688 557.136719 34.679688 Z M 552.9375 25.71875 C 552.617188 25.71875 552.457031 25.359375 552.457031 25.039062 C 552.457031 23.921875 556.699219 18.960938 558.9375 18.960938 C 559.898438 18.960938 560.378906 19.441406 560.378906 20.238281 C 560.378906 22 556.257812 25.71875 552.9375 25.71875 Z M 552.9375 25.71875 "/>
<path style=" stroke:none;fill-rule:evenodd;fill:rgb(0%,0%,0%);fill-opacity:1;" d="M 567.136719 42.238281 C 567.378906 42.238281 567.617188 42.121094 567.816406 41.921875 C 570.65625 39.078125 575.019531 29.679688 575.019531 22.878906 C 575.019531 16.078125 570.816406 8.761719 567.976562 5.921875 C 567.738281 5.679688 567.296875 5.441406 566.898438 5.441406 C 566.617188 5.441406 566.019531 5.71875 566.019531 6.078125 C 566.019531 6.160156 566.457031 6.800781 566.539062 6.878906 C 568.976562 9.71875 571.699219 15.601562 571.699219 22.398438 C 571.699219 29.199219 569.097656 37.71875 566.65625 40.558594 C 566.617188 40.640625 566.058594 41.28125 566.058594 41.359375 C 566.058594 41.921875 566.617188 42.238281 567.136719 42.238281 Z M 567.136719 42.238281 "/>
<path style=" stroke:none;fill-rule:nonzero;fill:rgb(0%,0%,0%);fill-opacity:1;" d="M 233.800781 48.238281 L 579.019531 48.238281 L 579.019531 50.238281 L 233.800781 50.238281 Z M 233.800781 48.238281 "/>
<path style=" stroke:none;fill-rule:evenodd;fill:rgb(0%,0%,0%);fill-opacity:1;" d="M 339.175781 101.816406 C 339.695312 101.816406 340.253906 101.496094 340.253906 100.9375 C 340.253906 100.855469 339.695312 100.214844 339.65625 100.136719 C 337.214844 97.296875 334.613281 88.777344 334.613281 81.976562 C 334.613281 75.175781 337.335938 69.296875 339.773438 66.457031 C 339.855469 66.375 340.292969 65.734375 340.292969 65.65625 C 340.292969 65.296875 339.695312 65.015625 339.414062 65.015625 C 339.015625 65.015625 338.574219 65.257812 338.335938 65.496094 C 335.496094 68.335938 331.292969 75.65625 331.292969 82.457031 C 331.292969 89.257812 335.65625 98.65625 338.496094 101.496094 C 338.695312 101.695312 338.933594 101.816406 339.175781 101.816406 Z M 339.175781 101.816406 "/>
<path style=" stroke:none;fill-rule:evenodd;fill:rgb(0%,0%,0%);fill-opacity:1;" d="M 354.335938 94.257812 C 355.574219 94.257812 358.855469 91.175781 358.855469 89.496094 C 358.855469 89.296875 358.695312 89.015625 358.613281 89.015625 C 358.414062 89.015625 358.253906 89.054688 357.976562 89.535156 C 357.253906 90.695312 356.175781 91.855469 355.175781 91.855469 C 354.574219 91.855469 354.09375 91.257812 353.855469 90.695312 L 352.015625 86.335938 C 351.894531 86.054688 351.933594 85.976562 352.214844 85.894531 C 354.933594 85.136719 360.375 81.414062 360.375 78.617188 C 360.375 77.414062 359.09375 76.816406 358.015625 76.816406 C 355.335938 76.816406 351.855469 79.296875 349.136719 83.097656 C 348.933594 83.375 348.574219 83.535156 348.773438 82.9375 L 354.175781 66.496094 C 354.292969 66.136719 354.292969 66.015625 354.292969 65.574219 C 354.292969 65.175781 353.894531 65.175781 353.65625 65.175781 C 353.015625 65.175781 350.335938 66.054688 349.136719 66.65625 C 348.976562 66.734375 348.894531 66.894531 348.894531 67.097656 C 348.894531 67.257812 349.414062 67.457031 349.933594 67.65625 C 350.496094 67.855469 350.816406 68.136719 350.816406 68.457031 C 350.816406 69.097656 350.734375 69.734375 350.414062 70.734375 L 343.734375 91.457031 C 343.496094 92.257812 343.414062 92.894531 343.414062 93.136719 C 343.414062 93.617188 344.054688 94.015625 344.453125 94.015625 C 345.09375 94.015625 345.175781 93.65625 345.496094 92.777344 C 345.773438 92.015625 347.054688 88.734375 347.375 87.976562 C 347.613281 87.414062 348.09375 86.296875 348.453125 86.296875 C 349.335938 86.296875 349.976562 87.175781 350.292969 88.054688 L 351.816406 92.296875 C 352.375 93.574219 353.054688 94.257812 354.335938 94.257812 Z M 350.136719 85.296875 C 349.816406 85.296875 349.65625 84.9375 349.65625 84.617188 C 349.65625 83.496094 353.894531 78.535156 356.136719 78.535156 C 357.09375 78.535156 357.574219 79.015625 357.574219 79.816406 C 357.574219 81.574219 353.453125 85.296875 350.136719 85.296875 Z M 350.136719 85.296875 "/>
<path style=" stroke:none;fill-rule:evenodd;fill:rgb(0%,0%,0%);fill-opacity:1;" d="M 366.136719 85.214844 C 366.535156 85.214844 366.773438 84.535156 366.855469 83.65625 C 367.335938 79.136719 368.054688 72.175781 368.054688 69.65625 C 368.054688 68.496094 367.335938 67.457031 366.253906 67.457031 C 365.175781 67.457031 364.375 68.496094 364.375 69.65625 C 364.375 72.175781 364.933594 79.097656 365.414062 83.65625 C 365.535156 84.816406 365.734375 85.214844 366.136719 85.214844 Z M 366.214844 93.976562 C 367.535156 93.976562 368.613281 92.894531 368.613281 91.574219 C 368.613281 90.257812 367.535156 89.175781 366.214844 89.175781 C 364.894531 89.175781 363.816406 90.257812 363.816406 91.574219 C 363.816406 92.894531 364.894531 93.976562 366.214844 93.976562 Z M 366.214844 93.976562 "/>
<path style=" stroke:none;fill-rule:evenodd;fill:rgb(0%,0%,0%);fill-opacity:1;" d="M 374.335938 101.816406 C 374.574219 101.816406 374.816406 101.695312 375.015625 101.496094 C 377.855469 98.65625 382.214844 89.257812 382.214844 82.457031 C 382.214844 75.65625 378.015625 68.335938 375.175781 65.496094 C 374.933594 65.257812 374.496094 65.015625 374.09375 65.015625 C 373.816406 65.015625 373.214844 65.296875 373.214844 65.65625 C 373.214844 65.734375 373.65625 66.375 373.734375 66.457031 C 376.175781 69.296875 378.894531 75.175781 378.894531 81.976562 C 378.894531 88.777344 376.292969 97.296875 373.855469 100.136719 C 373.816406 100.214844 373.253906 100.855469 373.253906 100.9375 C 373.253906 101.496094 373.816406 101.816406 374.335938 101.816406 Z M 374.335938 101.816406 "/>
<path style=" stroke:none;fill-rule:evenodd;fill:rgb(0%,0%,0%);fill-opacity:1;" d="M 391.84375 74.300781 C 393.355469 74.300781 393.636719 74.160156 395.0625 74.160156 C 396.378906 74.160156 396.632812 74.300781 398.226562 74.300781 C 398.449219 74.300781 398.648438 74.160156 398.648438 73.992188 C 398.648438 73.824219 398.367188 73.65625 398.144531 73.601562 C 396.632812 73.207031 396.265625 72.957031 396.265625 71.863281 L 396.265625 69.230469 C 396.265625 69.203125 396.492188 69.09375 396.632812 69.0625 C 396.855469 69.035156 397.164062 69.007812 397.5 69.007812 C 397.945312 69.007812 398.449219 69.035156 398.871094 69.035156 C 398.984375 69.035156 399.457031 68.421875 399.457031 67.972656 C 399.457031 67.859375 399.320312 67.746094 399.152344 67.746094 C 398.535156 67.777344 398.03125 67.804688 397.5 67.804688 C 397.164062 67.804688 396.800781 67.804688 396.378906 67.777344 C 396.292969 67.777344 396.238281 67.691406 396.238281 67.609375 L 396.238281 63.996094 C 396.238281 62.820312 396.238281 62.203125 395.820312 62.203125 C 395.566406 62.203125 394.8125 62.261719 394.25 62.566406 C 394.027344 62.679688 394 62.792969 394 63.183594 L 394 67.523438 C 394 67.636719 393.804688 67.746094 393.664062 67.746094 L 388.820312 67.746094 C 388.707031 67.746094 388.761719 67.578125 388.820312 67.496094 L 396.378906 56.632812 C 396.378906 56.632812 396.601562 56.238281 396.433594 56.238281 L 395.847656 56.238281 C 395.566406 56.238281 395.230469 56.6875 395.007812 57.023438 L 387.613281 67.636719 C 387.25 68.140625 387.222656 68.085938 386.523438 68.953125 C 386.496094 68.980469 386.496094 69.007812 386.496094 69.035156 C 386.496094 69.148438 386.636719 69.316406 386.773438 69.316406 C 389.714844 69.289062 391.28125 69.121094 393.578125 69.121094 C 393.605469 69.121094 394 69.203125 394 69.371094 L 394 71.976562 C 394 72.871094 393.578125 73.375 391.84375 73.601562 C 391.617188 73.628906 391.339844 73.738281 391.339844 73.9375 C 391.339844 74.1875 391.648438 74.300781 391.84375 74.300781 Z M 391.84375 74.300781 "/>
<path style=" stroke:none;fill-rule:evenodd;fill:rgb(0%,0%,0%);fill-opacity:1;" d="M 405.707031 94.9375 C 411.148438 94.9375 416.828125 91.296875 416.828125 85.296875 C 416.828125 81.894531 414.148438 79.015625 410.746094 79.015625 C 410.546875 79.015625 410.546875 78.855469 410.707031 78.777344 C 413.828125 76.976562 414.90625 74.695312 414.90625 72.777344 C 414.90625 70.054688 412.347656 68.214844 409.707031 68.214844 C 404.265625 68.214844 401.988281 72.015625 401.988281 73.414062 C 401.988281 73.816406 402.425781 74.175781 402.625 74.175781 C 403.226562 74.175781 403.867188 70.617188 407.988281 70.617188 C 410.148438 70.617188 411.746094 72.574219 411.746094 74.777344 C 411.746094 77.617188 407.625 79.695312 406.707031 80.136719 C 406.1875 80.375 405.707031 80.816406 405.507812 81.496094 C 405.425781 81.777344 405.90625 82.015625 406.1875 81.855469 C 407.105469 81.335938 408.1875 81.257812 408.785156 81.257812 C 411.867188 81.257812 413.425781 84.496094 413.425781 87.574219 C 413.425781 90.894531 410.507812 93.414062 407.585938 93.414062 C 406.105469 93.414062 405.265625 92.777344 404.585938 92.175781 C 404.066406 91.777344 403.625 91.375 403.027344 91.375 C 402.425781 91.375 401.265625 92.65625 401.265625 93.214844 C 401.265625 93.855469 403.828125 94.9375 405.707031 94.9375 Z M 405.707031 94.9375 "/>
<path style=" stroke:none;fill-rule:evenodd;fill:rgb(0%,0%,0%);fill-opacity:1;" d="M 421.425781 94.65625 C 424.226562 94.65625 428.585938 93.136719 431.507812 89.9375 C 435.148438 85.976562 437.265625 82.414062 437.265625 77.414062 C 437.265625 72.816406 433.46875 68.257812 429.585938 68.257812 C 424.746094 68.257812 421.347656 72.574219 421.347656 76.214844 C 421.347656 79.097656 424.1875 81.257812 426.945312 81.257812 C 428.425781 81.257812 430.027344 80.375 430.625 79.9375 C 431.066406 79.617188 431.667969 79.054688 431.945312 78.535156 C 432.027344 78.375 431.867188 78.015625 431.667969 78.097656 C 430.667969 78.574219 430.105469 79.136719 428.46875 79.136719 C 426.347656 79.136719 424.347656 76.574219 424.347656 74.136719 C 424.347656 72.175781 425.667969 69.695312 428.265625 69.695312 C 431.1875 69.695312 433.867188 74.015625 433.867188 77.855469 C 433.867188 81.734375 432.867188 84.734375 430.308594 88.054688 C 427.746094 91.335938 423.828125 93.9375 421.425781 93.9375 C 421.148438 93.9375 420.867188 94.054688 420.867188 94.335938 C 420.867188 94.496094 420.988281 94.65625 421.425781 94.65625 Z M 421.425781 94.65625 "/>
<path style=" stroke:none;fill-rule:evenodd;fill:rgb(0%,0%,0%);fill-opacity:1;" d="M 448.867188 94.054688 C 452.746094 94.054688 457.066406 90.816406 457.066406 85.816406 C 457.066406 82.9375 454.585938 80.894531 451.828125 80.894531 C 450.347656 80.894531 448.507812 81.777344 447.90625 82.214844 C 447.46875 82.535156 447.226562 82.734375 446.828125 83.175781 C 446.546875 83.496094 446.625 83.855469 447.105469 83.617188 C 448.027344 83.136719 448.90625 83.015625 450.308594 83.015625 C 452.425781 83.015625 453.945312 85.296875 453.945312 87.734375 C 453.945312 91.054688 451.988281 92.574219 449.828125 92.535156 C 447.1875 92.496094 444.1875 90.054688 444.105469 85.617188 C 444.105469 81.457031 446.46875 77.097656 447.785156 75.175781 C 449.828125 72.257812 452.265625 70.414062 455.867188 68.855469 C 456.148438 68.734375 456.667969 68.535156 456.90625 68.054688 C 456.988281 67.894531 456.667969 67.65625 456.1875 67.777344 C 451.265625 69.097656 447.507812 72.296875 445.507812 74.335938 C 443.988281 75.855469 440.667969 79.734375 440.667969 85.695312 C 440.667969 91.296875 444.746094 94.054688 448.867188 94.054688 Z M 448.867188 94.054688 "/>
<path style=" stroke:none;fill-rule:evenodd;fill:rgb(0%,0%,0%);fill-opacity:1;" d="M 464.214844 76.941406 C 465.726562 76.941406 466.007812 76.800781 467.433594 76.800781 C 468.75 76.800781 469.003906 76.941406 470.597656 76.941406 C 470.824219 76.941406 471.019531 76.800781 471.019531 76.632812 C 471.019531 76.464844 470.738281 76.296875 470.515625 76.238281 C 469.003906 75.847656 468.640625 75.597656 468.640625 74.503906 L 468.640625 71.871094 C 468.640625 71.84375 468.863281 71.730469 469.003906 71.703125 C 469.226562 71.675781 469.535156 71.648438 469.871094 71.648438 C 470.320312 71.648438 470.824219 71.675781 471.242188 71.675781 C 471.355469 71.675781 471.832031 71.058594 471.832031 70.613281 C 471.832031 70.5 471.691406 70.386719 471.523438 70.386719 C 470.90625 70.414062 470.402344 70.445312 469.871094 70.445312 C 469.535156 70.445312 469.171875 70.445312 468.75 70.414062 C 468.667969 70.414062 468.609375 70.332031 468.609375 70.246094 L 468.609375 66.636719 C 468.609375 65.460938 468.609375 64.84375 468.191406 64.84375 C 467.9375 64.84375 467.183594 64.898438 466.621094 65.207031 C 466.398438 65.320312 466.371094 65.433594 466.371094 65.824219 L 466.371094 70.164062 C 466.371094 70.277344 466.175781 70.386719 466.035156 70.386719 L 461.191406 70.386719 C 461.078125 70.386719 461.136719 70.21875 461.191406 70.136719 L 468.75 59.273438 C 468.75 59.273438 468.976562 58.878906 468.808594 58.878906 L 468.21875 58.878906 C 467.9375 58.878906 467.601562 59.328125 467.378906 59.664062 L 459.988281 70.277344 C 459.621094 70.78125 459.59375 70.722656 458.894531 71.59375 C 458.867188 71.621094 458.867188 71.648438 458.867188 71.675781 C 458.867188 71.789062 459.007812 71.957031 459.148438 71.957031 C 462.085938 71.929688 463.65625 71.761719 465.949219 71.761719 C 465.980469 71.761719 466.371094 71.84375 466.371094 72.011719 L 466.371094 74.617188 C 466.371094 75.511719 465.949219 76.015625 464.214844 76.238281 C 463.992188 76.269531 463.710938 76.378906 463.710938 76.574219 C 463.710938 76.828125 464.019531 76.941406 464.214844 76.941406 Z M 464.214844 76.941406 "/>
<path style=" stroke:none;fill-rule:evenodd;fill:rgb(0%,0%,0%);fill-opacity:1;" d="M 480.707031 77.445312 C 481.574219 77.445312 483.871094 75.289062 483.871094 74.113281 C 483.871094 73.972656 483.757812 73.777344 483.703125 73.777344 C 483.5625 73.777344 483.449219 73.804688 483.253906 74.140625 C 482.75 74.953125 481.996094 75.765625 481.292969 75.765625 C 480.875 75.765625 480.539062 75.34375 480.371094 74.953125 L 479.082031 71.898438 C 479 71.703125 479.027344 71.648438 479.222656 71.59375 C 481.125 71.058594 484.933594 68.457031 484.933594 66.496094 C 484.933594 65.65625 484.039062 65.234375 483.28125 65.234375 C 481.40625 65.234375 478.972656 66.972656 477.066406 69.632812 C 476.925781 69.828125 476.675781 69.941406 476.816406 69.519531 L 480.59375 58.011719 C 480.679688 57.761719 480.679688 57.675781 480.679688 57.367188 C 480.679688 57.089844 480.398438 57.089844 480.230469 57.089844 C 479.78125 57.089844 477.90625 57.703125 477.066406 58.125 C 476.953125 58.179688 476.898438 58.292969 476.898438 58.433594 C 476.898438 58.542969 477.261719 58.683594 477.625 58.824219 C 478.019531 58.964844 478.242188 59.160156 478.242188 59.382812 C 478.242188 59.832031 478.1875 60.28125 477.964844 60.980469 L 473.285156 75.484375 C 473.117188 76.042969 473.0625 76.492188 473.0625 76.660156 C 473.0625 76.996094 473.511719 77.277344 473.789062 77.277344 C 474.238281 77.277344 474.292969 77.023438 474.519531 76.40625 C 474.714844 75.875 475.609375 73.578125 475.835938 73.046875 C 476.003906 72.65625 476.339844 71.871094 476.589844 71.871094 C 477.207031 71.871094 477.65625 72.488281 477.878906 73.105469 L 478.941406 76.070312 C 479.335938 76.96875 479.8125 77.445312 480.707031 77.445312 Z M 477.765625 71.171875 C 477.542969 71.171875 477.429688 70.921875 477.429688 70.695312 C 477.429688 69.910156 480.398438 66.441406 481.96875 66.441406 C 482.640625 66.441406 482.976562 66.777344 482.976562 67.335938 C 482.976562 68.566406 480.089844 71.171875 477.765625 71.171875 Z M 477.765625 71.171875 "/>
</g>
</svg>
