<?xml version="1.0" encoding="UTF-8"?>
<svg xmlns="http://www.w3.org/2000/svg" xmlns:xlink="http://www.w3.org/1999/xlink" width="233.207121pt" height="40.726402pt" viewBox="0 0 233.207121 40.726402" version="1.1">
<g id="surface1">
<path style=" stroke:none;fill-rule:evenodd;fill:rgb(0%,0%,0%);fill-opacity:1;" d="M 3.9375 13.601562 C 4.800781 13.601562 5.472656 13.519531 6.335938 13.519531 C 7.183594 13.519531 7.777344 13.601562 8.6875 13.601562 C 8.816406 13.601562 8.910156 13.519531 8.910156 13.425781 C 8.910156 13.328125 8.769531 13.246094 8.640625 13.214844 C 7.328125 12.894531 6.945312 12.816406 6.945312 12 L 6.945312 4.640625 C 6.945312 4.191406 6.960938 3.824219 7.007812 3.503906 C 7.023438 3.425781 6.910156 3.359375 6.816406 3.359375 C 6.785156 3.359375 6.753906 3.359375 6.734375 3.375 C 6.015625 4.097656 5.296875 4.222656 4.335938 4.367188 C 4.113281 4.398438 3.9375 4.511719 3.9375 4.65625 C 3.9375 4.832031 4.144531 4.910156 4.351562 4.929688 C 5.039062 4.976562 5.695312 5.089844 5.695312 5.695312 L 5.695312 11.808594 C 5.695312 12.753906 5.152344 12.894531 3.9375 13.199219 C 3.808594 13.230469 3.695312 13.328125 3.695312 13.40625 C 3.695312 13.503906 3.777344 13.601562 3.9375 13.601562 Z M 3.9375 13.601562 "/>
<path style=" stroke:none;fill-rule:nonzero;fill:rgb(0%,0%,0%);fill-opacity:1;" d="M 1.601562 19.296875 L 10.738281 19.296875 L 10.738281 20.097656 L 1.601562 20.097656 Z M 1.601562 19.296875 "/>
<path style=" stroke:none;fill-rule:evenodd;fill:rgb(0%,0%,0%);fill-opacity:1;" d="M 3.183594 33.472656 C 3.296875 33.472656 3.503906 33.28125 3.679688 32.878906 C 4.222656 31.664062 5.023438 29.535156 5.777344 28.03125 C 5.855469 27.871094 5.96875 27.792969 6.113281 27.808594 L 7.246094 27.902344 C 7.359375 27.921875 7.457031 27.984375 7.390625 28.160156 C 7.054688 29.070312 6 31.726562 5.839844 32.398438 C 5.710938 32.945312 5.953125 33.488281 6.433594 33.488281 C 7.199219 33.488281 8.878906 31.96875 8.878906 31.296875 C 8.878906 31.246094 8.832031 31.214844 8.785156 31.214844 C 8.753906 31.214844 8.734375 31.230469 8.71875 31.246094 C 8.113281 31.855469 7.488281 32.207031 6.976562 32.207031 C 6.71875 32.207031 6.65625 31.984375 6.769531 31.601562 C 7.007812 30.769531 7.503906 29.089844 7.9375 28.128906 C 8 27.984375 8.078125 27.953125 8.128906 27.953125 C 8.367188 27.953125 8.671875 27.984375 8.863281 27.984375 C 9.792969 27.984375 10.671875 27.007812 10.671875 26.464844 C 10.671875 26.289062 10.59375 26.207031 10.433594 26.207031 C 10.367188 26.207031 10.191406 26.480469 9.984375 26.609375 C 9.695312 26.785156 9.34375 26.800781 8.910156 26.800781 C 7.855469 26.800781 6.480469 26.703125 5.214844 26.703125 C 3.023438 26.703125 2.128906 27.902344 2.128906 28.976562 C 2.128906 29.199219 2.257812 29.441406 2.367188 29.441406 C 2.496094 29.441406 2.574219 29.296875 2.59375 29.152344 C 2.703125 28.191406 3.503906 27.585938 4.769531 27.679688 L 5.183594 27.710938 C 5.3125 27.726562 5.28125 27.839844 5.246094 27.921875 C 4.894531 28.816406 3.824219 30.832031 2.496094 32.6875 L 2.496094 33.007812 C 2.464844 33.167969 2.960938 33.472656 3.183594 33.472656 Z M 3.183594 33.472656 "/>
<path style=" stroke:none;fill-rule:evenodd;fill:rgb(0%,0%,0%);fill-opacity:1;" d="M 18.691406 18.671875 L 25.414062 18.671875 C 25.667969 18.671875 25.925781 18.273438 25.925781 18.046875 C 25.925781 17.953125 25.796875 17.871094 25.703125 17.871094 L 18.851562 17.871094 C 18.566406 17.871094 18.46875 18.335938 18.46875 18.480469 C 18.46875 18.574219 18.582031 18.671875 18.691406 18.671875 Z M 18.691406 21.40625 L 25.414062 21.40625 C 25.667969 21.40625 25.925781 21.070312 25.925781 20.785156 C 25.925781 20.6875 25.796875 20.609375 25.703125 20.609375 L 18.851562 20.609375 C 18.566406 20.609375 18.46875 21.070312 18.46875 21.214844 C 18.46875 21.3125 18.582031 21.40625 18.691406 21.40625 Z M 18.691406 21.40625 "/>
<path style=" stroke:none;fill-rule:evenodd;fill:rgb(0%,0%,0%);fill-opacity:1;" d="M 43.609375 13.601562 C 43.722656 13.601562 43.898438 13.550781 43.960938 13.214844 C 44.121094 12.414062 44.441406 11.761719 44.441406 11.601562 C 44.441406 11.519531 44.425781 11.40625 44.332031 11.40625 C 44.15625 11.40625 44.011719 11.648438 43.929688 11.777344 C 43.53125 12.414062 43.324219 12.480469 42.410156 12.527344 C 41.835938 12.558594 41.195312 12.574219 40.585938 12.574219 C 39.996094 12.574219 39.53125 12.558594 39.179688 12.527344 C 39.050781 12.511719 38.953125 12.496094 38.953125 12.414062 C 38.953125 12.335938 41.59375 9.777344 42.316406 8.910156 C 42.988281 8.097656 43.484375 6.976562 43.484375 6.113281 C 43.484375 4.558594 42.523438 3.472656 40.921875 3.472656 C 39.113281 3.472656 37.800781 5.039062 37.800781 5.535156 C 37.800781 5.824219 37.960938 6.015625 38.042969 6.015625 C 38.136719 6.015625 38.25 5.921875 38.316406 5.792969 C 38.761719 5.023438 39.546875 4.496094 40.425781 4.496094 C 41.339844 4.496094 42.136719 5.183594 42.136719 6.320312 C 42.136719 7.726562 41.355469 9.167969 40.28125 10.273438 L 37.546875 13.105469 C 37.449219 13.199219 37.417969 13.214844 37.417969 13.3125 C 37.417969 13.40625 37.660156 13.585938 37.738281 13.585938 C 38.058594 13.585938 40.652344 13.503906 41.449219 13.503906 C 42.25 13.503906 43.289062 13.601562 43.609375 13.601562 Z M 43.609375 13.601562 "/>
<path style=" stroke:none;fill-rule:evenodd;fill:rgb(0%,0%,0%);fill-opacity:1;" d="M 53.707031 0.800781 C 54.027344 0.800781 54.203125 0.527344 54.203125 0.207031 C 54.203125 0.113281 54.074219 0 53.945312 0 L 53.273438 0 C 52.953125 0 52.746094 0.128906 52.667969 0.433594 L 49.324219 13.472656 C 49.289062 13.566406 49.273438 13.566406 49.242188 13.472656 L 48.058594 9.871094 C 47.960938 9.566406 47.753906 9.40625 47.433594 9.40625 L 45.945312 9.40625 C 45.675781 9.40625 45.53125 9.679688 45.53125 9.9375 C 45.53125 10.03125 45.644531 10.113281 45.753906 10.113281 L 46.425781 10.113281 C 46.539062 10.113281 46.601562 10.175781 46.632812 10.273438 L 48.203125 15.023438 C 48.347656 15.472656 48.859375 15.710938 49.308594 15.710938 C 49.449219 15.710938 49.660156 15.519531 49.707031 15.34375 L 53.386719 0.960938 C 53.417969 0.863281 53.484375 0.800781 53.59375 0.800781 Z M 53.707031 0.800781 "/>
<path style=" stroke:none;fill-rule:nonzero;fill:rgb(0%,0%,0%);fill-opacity:1;" d="M 53.644531 0 L 61.46875 0 L 61.46875 0.800781 L 53.644531 0.800781 Z M 53.644531 0 "/>
<path style=" stroke:none;fill-rule:evenodd;fill:rgb(0%,0%,0%);fill-opacity:1;" d="M 60.105469 13.601562 C 60.21875 13.601562 60.394531 13.550781 60.457031 13.214844 C 60.617188 12.414062 60.9375 11.761719 60.9375 11.601562 C 60.9375 11.519531 60.921875 11.40625 60.828125 11.40625 C 60.652344 11.40625 60.507812 11.648438 60.425781 11.777344 C 60.027344 12.414062 59.820312 12.480469 58.90625 12.527344 C 58.332031 12.558594 57.691406 12.574219 57.082031 12.574219 C 56.492188 12.574219 56.027344 12.558594 55.675781 12.527344 C 55.546875 12.511719 55.449219 12.496094 55.449219 12.414062 C 55.449219 12.335938 58.089844 9.777344 58.8125 8.910156 C 59.484375 8.097656 59.980469 6.976562 59.980469 6.113281 C 59.980469 4.558594 59.019531 3.472656 57.417969 3.472656 C 55.609375 3.472656 54.296875 5.039062 54.296875 5.535156 C 54.296875 5.824219 54.457031 6.015625 54.539062 6.015625 C 54.632812 6.015625 54.746094 5.921875 54.8125 5.792969 C 55.257812 5.023438 56.042969 4.496094 56.921875 4.496094 C 57.835938 4.496094 58.632812 5.183594 58.632812 6.320312 C 58.632812 7.726562 57.851562 9.167969 56.777344 10.273438 L 54.042969 13.105469 C 53.945312 13.199219 53.914062 13.214844 53.914062 13.3125 C 53.914062 13.40625 54.15625 13.585938 54.234375 13.585938 C 54.554688 13.585938 57.148438 13.503906 57.945312 13.503906 C 58.746094 13.503906 59.785156 13.601562 60.105469 13.601562 Z M 60.105469 13.601562 "/>
<path style=" stroke:none;fill-rule:nonzero;fill:rgb(0%,0%,0%);fill-opacity:1;" d="M 33.660156 19.296875 L 64.957031 19.296875 L 64.957031 20.097656 L 33.660156 20.097656 Z M 33.660156 19.296875 "/>
<path style=" stroke:none;fill-rule:evenodd;fill:rgb(0%,0%,0%);fill-opacity:1;" d="M 34.441406 33.761719 C 35.5625 33.761719 37.308594 33.152344 38.476562 31.871094 C 39.929688 30.289062 40.777344 28.863281 40.777344 26.863281 C 40.777344 25.023438 39.257812 23.199219 37.707031 23.199219 C 35.769531 23.199219 34.410156 24.929688 34.410156 26.382812 C 34.410156 27.535156 35.546875 28.398438 36.652344 28.398438 C 37.242188 28.398438 37.882812 28.046875 38.121094 27.871094 C 38.296875 27.742188 38.539062 27.519531 38.652344 27.3125 C 38.683594 27.246094 38.617188 27.105469 38.539062 27.136719 C 38.136719 27.328125 37.914062 27.550781 37.257812 27.550781 C 36.410156 27.550781 35.609375 26.527344 35.609375 25.550781 C 35.609375 24.769531 36.136719 23.777344 37.179688 23.777344 C 38.347656 23.777344 39.417969 25.503906 39.417969 27.039062 C 39.417969 28.59375 39.019531 29.792969 37.996094 31.121094 C 36.96875 32.433594 35.402344 33.472656 34.441406 33.472656 C 34.332031 33.472656 34.21875 33.519531 34.21875 33.632812 C 34.21875 33.695312 34.265625 33.761719 34.441406 33.761719 Z M 34.441406 33.761719 "/>
<path style=" stroke:none;fill-rule:evenodd;fill:rgb(0%,0%,0%);fill-opacity:1;" d="M 45.242188 33.488281 C 46.8125 33.488281 48.394531 32.304688 48.394531 30.640625 C 48.394531 29.40625 47.53125 28.703125 46.332031 27.871094 C 46.15625 27.761719 46.136719 27.726562 46.410156 27.535156 C 46.777344 27.265625 46.953125 27.121094 47.257812 26.863281 C 47.625 26.542969 48.105469 26.097656 48.105469 25.328125 C 48.105469 24.03125 46.84375 23.183594 45.5625 23.183594 C 44.136719 23.183594 42.652344 24.191406 42.652344 25.441406 C 42.652344 26.800781 43.546875 27.40625 44.507812 28.222656 C 44.632812 28.335938 44.699219 28.351562 44.554688 28.433594 C 43.738281 28.878906 42.410156 29.601562 42.410156 31.007812 C 42.410156 32.480469 43.769531 33.488281 45.242188 33.488281 Z M 45.980469 27.535156 C 45.914062 27.585938 45.820312 27.535156 45.753906 27.488281 C 44.632812 26.574219 43.882812 26.351562 43.882812 25.121094 C 43.882812 24.257812 44.746094 23.566406 45.484375 23.566406 C 46.410156 23.566406 46.875 24.320312 46.875 25.214844 C 46.875 26.191406 46.714844 26.929688 45.980469 27.535156 Z M 45.464844 33.023438 C 44.347656 33.023438 43.691406 31.871094 43.691406 30.753906 C 43.691406 29.726562 44.027344 29.28125 44.714844 28.71875 C 44.792969 28.65625 44.859375 28.625 44.90625 28.625 C 45.003906 28.625 45.097656 28.6875 45.226562 28.785156 C 46.15625 29.425781 47.113281 30.289062 47.113281 31.28125 C 47.113281 32.222656 46.410156 33.023438 45.464844 33.023438 Z M 45.464844 33.023438 "/>
<path style=" stroke:none;fill-rule:evenodd;fill:rgb(0%,0%,0%);fill-opacity:1;" d="M 53.148438 33.488281 C 55.515625 33.488281 56.507812 30.609375 56.507812 28.207031 C 56.507812 25.886719 55.484375 23.183594 53.308594 23.183594 C 50.9375 23.183594 49.945312 26 49.945312 28.433594 C 49.945312 30.800781 50.96875 33.488281 53.148438 33.488281 Z M 53.417969 33.070312 C 51.980469 33.070312 51.273438 30.542969 51.273438 28.144531 C 51.273438 25.742188 51.722656 23.632812 53.003906 23.632812 C 54.441406 23.632812 55.195312 26.097656 55.195312 28.496094 C 55.195312 30.894531 54.699219 33.070312 53.417969 33.070312 Z M 53.417969 33.070312 "/>
<path style=" stroke:none;fill-rule:evenodd;fill:rgb(0%,0%,0%);fill-opacity:1;" d="M 58.8125 33.3125 C 59.675781 33.3125 60.347656 33.230469 61.210938 33.230469 C 62.058594 33.230469 62.652344 33.3125 63.5625 33.3125 C 63.691406 33.3125 63.785156 33.230469 63.785156 33.136719 C 63.785156 33.039062 63.644531 32.960938 63.515625 32.929688 C 62.203125 32.609375 61.820312 32.527344 61.820312 31.710938 L 61.820312 24.351562 C 61.820312 23.902344 61.835938 23.535156 61.882812 23.214844 C 61.898438 23.136719 61.785156 23.070312 61.691406 23.070312 C 61.660156 23.070312 61.625 23.070312 61.609375 23.089844 C 60.890625 23.808594 60.171875 23.9375 59.210938 24.078125 C 58.988281 24.113281 58.8125 24.222656 58.8125 24.367188 C 58.8125 24.542969 59.019531 24.625 59.226562 24.640625 C 59.914062 24.6875 60.570312 24.800781 60.570312 25.40625 L 60.570312 31.519531 C 60.570312 32.464844 60.027344 32.609375 58.8125 32.910156 C 58.683594 32.945312 58.570312 33.039062 58.570312 33.121094 C 58.570312 33.214844 58.652344 33.3125 58.8125 33.3125 Z M 58.8125 33.3125 "/>
<path style=" stroke:none;fill-rule:evenodd;fill:rgb(0%,0%,0%);fill-opacity:1;" d="M 77.488281 6.058594 C 78.476562 6.058594 79.003906 5.152344 79.316406 4.578125 C 79.371094 4.46875 79.417969 4.457031 79.472656 4.546875 C 80.011719 5.398438 80.480469 6.058594 81.386719 6.058594 C 82.542969 6.058594 83.359375 4.949219 83.359375 3.851562 C 83.359375 2.820312 82.652344 1.867188 81.621094 1.867188 C 80.636719 1.867188 80.109375 2.753906 79.796875 3.324219 C 79.753906 3.402344 79.695312 3.449219 79.640625 3.359375 C 79.101562 2.507812 78.632812 1.867188 77.726562 1.867188 C 76.570312 1.867188 75.753906 2.976562 75.753906 4.074219 C 75.753906 5.105469 76.460938 6.058594 77.488281 6.058594 Z M 77.667969 5.25 C 76.863281 5.25 76.078125 4.726562 76.078125 3.917969 C 76.078125 3.257812 76.695312 2.652344 77.410156 2.652344 C 78.105469 2.652344 78.6875 3.425781 79.136719 4.074219 C 79.203125 4.164062 79.25 4.230469 79.25 4.300781 C 79.25 4.332031 79.226562 4.378906 79.179688 4.433594 C 78.789062 4.914062 78.386719 5.25 77.667969 5.25 Z M 81.746094 5.296875 C 81.050781 5.296875 80.457031 4.511719 80.011719 3.863281 C 79.941406 3.773438 79.898438 3.707031 79.898438 3.636719 C 79.898438 3.605469 79.921875 3.558594 79.964844 3.503906 C 80.355469 3.023438 80.726562 2.675781 81.445312 2.675781 C 82.25 2.675781 83.035156 3.203125 83.035156 4.007812 C 83.035156 4.667969 82.453125 5.296875 81.746094 5.296875 Z M 81.746094 5.296875 "/>
<path style=" stroke:none;fill-rule:evenodd;fill:rgb(0%,0%,0%);fill-opacity:1;" d="M 70.757812 9.070312 C 70.757812 9.265625 78.324219 18 79.734375 19.761719 C 79.78125 19.824219 79.796875 19.871094 79.75 19.9375 C 78.4375 21.503906 70.5 30.527344 70.5 30.6875 C 70.5 30.847656 70.691406 30.929688 70.835938 30.929688 C 71.605469 30.929688 71.828125 30.847656 72.628906 30.832031 C 73.207031 30.816406 78.675781 30.816406 79.347656 30.816406 C 80.261719 30.816406 84.5 30.816406 85.523438 30.832031 C 85.972656 30.832031 86.324219 30.910156 86.804688 30.910156 C 86.964844 30.910156 86.996094 30.785156 87.03125 30.640625 C 87.109375 30.238281 87.667969 28.433594 87.957031 27.617188 C 87.957031 27.601562 87.972656 27.566406 87.972656 27.550781 C 87.972656 27.472656 87.910156 27.40625 87.828125 27.40625 C 87.621094 27.40625 87.476562 27.664062 87.332031 27.921875 C 86.886719 28.769531 86.339844 29.425781 85.429688 29.425781 C 84.039062 29.425781 73.863281 29.488281 72.902344 29.359375 C 72.726562 29.34375 72.660156 29.214844 72.773438 29.089844 L 81.15625 19.359375 C 81.222656 19.28125 81.332031 19.167969 81.171875 19.007812 C 80.132812 17.871094 74.4375 11.230469 73.332031 9.824219 C 73.300781 9.777344 73.269531 9.726562 73.269531 9.679688 C 73.269531 9.617188 73.332031 9.566406 73.574219 9.566406 C 74.644531 9.566406 83.71875 9.601562 84.675781 9.664062 C 85.1875 9.695312 85.78125 10.238281 86.070312 11.023438 C 86.148438 11.214844 86.179688 11.535156 86.421875 11.535156 C 86.550781 11.535156 86.582031 11.425781 86.582031 11.28125 C 86.582031 11.167969 86.566406 11.039062 86.550781 10.929688 C 86.484375 10.558594 86.261719 9.40625 86.164062 8.734375 C 86.132812 8.496094 86.003906 8.464844 85.925781 8.464844 C 85.84375 8.464844 85.683594 8.558594 85.523438 8.6875 C 85.398438 8.785156 84.820312 8.816406 84.355469 8.816406 C 83.476562 8.832031 79.332031 8.832031 78.550781 8.832031 C 77.125 8.832031 72.199219 8.816406 71.011719 8.785156 C 70.917969 8.785156 70.757812 8.863281 70.757812 9.070312 Z M 70.757812 9.070312 "/>
<path style=" stroke:none;fill-rule:evenodd;fill:rgb(0%,0%,0%);fill-opacity:1;" d="M 74.050781 40.671875 C 74.398438 40.671875 75.316406 39.808594 75.316406 39.335938 C 75.316406 39.28125 75.273438 39.203125 75.25 39.203125 C 75.195312 39.203125 75.148438 39.214844 75.070312 39.347656 C 74.871094 39.671875 74.566406 40 74.285156 40 C 74.117188 40 73.984375 39.832031 73.917969 39.671875 L 73.402344 38.453125 C 73.367188 38.375 73.378906 38.351562 73.457031 38.328125 C 74.21875 38.117188 75.742188 37.074219 75.742188 36.292969 C 75.742188 35.957031 75.382812 35.789062 75.082031 35.789062 C 74.332031 35.789062 73.355469 36.480469 72.597656 37.546875 C 72.539062 37.625 72.4375 37.667969 72.496094 37.5 L 74.007812 32.898438 C 74.039062 32.796875 74.039062 32.761719 74.039062 32.640625 C 74.039062 32.527344 73.929688 32.527344 73.863281 32.527344 C 73.683594 32.527344 72.933594 32.773438 72.597656 32.941406 C 72.550781 32.964844 72.527344 33.007812 72.527344 33.066406 C 72.527344 33.109375 72.675781 33.167969 72.820312 33.222656 C 72.976562 33.277344 73.066406 33.355469 73.066406 33.445312 C 73.066406 33.625 73.042969 33.804688 72.953125 34.085938 L 71.082031 39.886719 C 71.015625 40.109375 70.992188 40.289062 70.992188 40.355469 C 70.992188 40.492188 71.171875 40.601562 71.285156 40.601562 C 71.464844 40.601562 71.488281 40.503906 71.578125 40.257812 C 71.65625 40.042969 72.011719 39.125 72.101562 38.910156 C 72.171875 38.753906 72.304688 38.441406 72.40625 38.441406 C 72.652344 38.441406 72.832031 38.6875 72.921875 38.933594 L 73.347656 40.121094 C 73.503906 40.480469 73.691406 40.671875 74.050781 40.671875 Z M 72.875 38.160156 C 72.785156 38.160156 72.742188 38.0625 72.742188 37.972656 C 72.742188 37.65625 73.929688 36.269531 74.554688 36.269531 C 74.824219 36.269531 74.957031 36.402344 74.957031 36.628906 C 74.957031 37.121094 73.804688 38.160156 72.875 38.160156 Z M 72.875 38.160156 "/>
<path style=" stroke:none;fill-rule:evenodd;fill:rgb(0%,0%,0%);fill-opacity:1;" d="M 76.695312 36.917969 L 81.398438 36.917969 C 81.578125 36.917969 81.757812 36.636719 81.757812 36.480469 C 81.757812 36.414062 81.667969 36.359375 81.601562 36.359375 L 76.808594 36.359375 C 76.605469 36.359375 76.539062 36.683594 76.539062 36.785156 C 76.539062 36.851562 76.617188 36.917969 76.695312 36.917969 Z M 76.695312 38.832031 L 81.398438 38.832031 C 81.578125 38.832031 81.757812 38.597656 81.757812 38.398438 C 81.757812 38.328125 81.667969 38.273438 81.601562 38.273438 L 76.808594 38.273438 C 76.605469 38.273438 76.539062 38.597656 76.539062 38.699219 C 76.539062 38.765625 76.617188 38.832031 76.695312 38.832031 Z M 76.695312 38.832031 "/>
<path style=" stroke:none;fill-rule:evenodd;fill:rgb(0%,0%,0%);fill-opacity:1;" d="M 85.003906 40.59375 C 86.664062 40.59375 87.355469 38.574219 87.355469 36.894531 C 87.355469 35.273438 86.640625 33.378906 85.117188 33.378906 C 83.460938 33.378906 82.765625 35.351562 82.765625 37.054688 C 82.765625 38.710938 83.480469 40.59375 85.003906 40.59375 Z M 85.195312 40.300781 C 84.1875 40.300781 83.695312 38.53125 83.695312 36.851562 C 83.695312 35.171875 84.007812 33.691406 84.90625 33.691406 C 85.914062 33.691406 86.4375 35.417969 86.4375 37.097656 C 86.4375 38.777344 86.089844 40.300781 85.195312 40.300781 Z M 85.195312 40.300781 "/>
<path style=" stroke:none;fill-rule:evenodd;fill:rgb(0%,0%,0%);fill-opacity:1;" d="M 98.273438 16.894531 C 98.480469 16.894531 98.703125 16.769531 98.703125 16.542969 C 98.703125 16.511719 98.480469 16.257812 98.464844 16.222656 C 97.488281 15.089844 96.449219 11.679688 96.449219 8.960938 C 96.449219 6.238281 97.535156 3.886719 98.511719 2.753906 C 98.542969 2.71875 98.71875 2.464844 98.71875 2.433594 C 98.71875 2.289062 98.480469 2.175781 98.367188 2.175781 C 98.207031 2.175781 98.03125 2.273438 97.9375 2.367188 C 96.800781 3.503906 95.121094 6.433594 95.121094 9.152344 C 95.121094 11.871094 96.863281 15.632812 98 16.769531 C 98.078125 16.847656 98.175781 16.894531 98.273438 16.894531 Z M 98.273438 16.894531 "/>
<path style=" stroke:none;fill-rule:evenodd;fill:rgb(0%,0%,0%);fill-opacity:1;" d="M 102.734375 13.585938 C 103.601562 13.585938 103.761719 13.503906 104.574219 13.503906 C 105.328125 13.503906 105.472656 13.585938 106.382812 13.585938 C 106.511719 13.585938 106.625 13.503906 106.625 13.40625 C 106.625 13.3125 106.464844 13.214844 106.335938 13.183594 C 105.472656 12.960938 105.265625 12.816406 105.265625 12.191406 L 105.265625 10.6875 C 105.265625 10.671875 105.390625 10.609375 105.472656 10.59375 C 105.601562 10.574219 105.777344 10.558594 105.96875 10.558594 C 106.222656 10.558594 106.511719 10.574219 106.753906 10.574219 C 106.816406 10.574219 107.089844 10.222656 107.089844 9.96875 C 107.089844 9.902344 107.007812 9.839844 106.910156 9.839844 C 106.558594 9.855469 106.273438 9.871094 105.96875 9.871094 C 105.777344 9.871094 105.566406 9.871094 105.328125 9.855469 C 105.28125 9.855469 105.246094 9.808594 105.246094 9.761719 L 105.246094 7.695312 C 105.246094 7.023438 105.246094 6.671875 105.007812 6.671875 C 104.863281 6.671875 104.433594 6.703125 104.113281 6.878906 C 103.984375 6.945312 103.96875 7.007812 103.96875 7.230469 L 103.96875 9.710938 C 103.96875 9.777344 103.855469 9.839844 103.777344 9.839844 L 101.007812 9.839844 C 100.945312 9.839844 100.976562 9.742188 101.007812 9.695312 L 105.328125 3.488281 C 105.328125 3.488281 105.457031 3.265625 105.359375 3.265625 L 105.023438 3.265625 C 104.863281 3.265625 104.671875 3.519531 104.542969 3.710938 L 100.320312 9.777344 C 100.113281 10.0625 100.097656 10.03125 99.695312 10.527344 C 99.679688 10.542969 99.679688 10.558594 99.679688 10.574219 C 99.679688 10.640625 99.761719 10.734375 99.839844 10.734375 C 101.519531 10.71875 102.414062 10.625 103.726562 10.625 C 103.742188 10.625 103.96875 10.671875 103.96875 10.769531 L 103.96875 12.257812 C 103.96875 12.769531 103.726562 13.054688 102.734375 13.183594 C 102.609375 13.199219 102.449219 13.265625 102.449219 13.375 C 102.449219 13.519531 102.625 13.585938 102.734375 13.585938 Z M 102.734375 13.585938 "/>
<path style=" stroke:none;fill-rule:evenodd;fill:rgb(0%,0%,0%);fill-opacity:1;" d="M 112.160156 13.871094 C 112.65625 13.871094 113.96875 12.640625 113.96875 11.96875 C 113.96875 11.886719 113.902344 11.777344 113.871094 11.777344 C 113.792969 11.777344 113.726562 11.792969 113.617188 11.984375 C 113.328125 12.449219 112.894531 12.910156 112.496094 12.910156 C 112.257812 12.910156 112.0625 12.671875 111.96875 12.449219 L 111.230469 10.703125 C 111.183594 10.59375 111.199219 10.558594 111.3125 10.527344 C 112.398438 10.222656 114.574219 8.734375 114.574219 7.617188 C 114.574219 7.136719 114.0625 6.894531 113.632812 6.894531 C 112.558594 6.894531 111.167969 7.886719 110.078125 9.40625 C 110 9.519531 109.855469 9.585938 109.9375 9.34375 L 112.097656 2.769531 C 112.144531 2.625 112.144531 2.574219 112.144531 2.398438 C 112.144531 2.238281 111.984375 2.238281 111.886719 2.238281 C 111.632812 2.238281 110.558594 2.59375 110.078125 2.832031 C 110.015625 2.863281 109.984375 2.929688 109.984375 3.007812 C 109.984375 3.070312 110.191406 3.152344 110.398438 3.230469 C 110.625 3.3125 110.753906 3.425781 110.753906 3.550781 C 110.753906 3.808594 110.71875 4.0625 110.59375 4.464844 L 107.921875 12.753906 C 107.824219 13.070312 107.792969 13.328125 107.792969 13.425781 C 107.792969 13.617188 108.046875 13.777344 108.207031 13.777344 C 108.464844 13.777344 108.496094 13.632812 108.625 13.28125 C 108.734375 12.976562 109.246094 11.664062 109.375 11.359375 C 109.472656 11.136719 109.664062 10.6875 109.808594 10.6875 C 110.160156 10.6875 110.414062 11.039062 110.542969 11.390625 L 111.152344 13.089844 C 111.375 13.601562 111.648438 13.871094 112.160156 13.871094 Z M 110.480469 10.289062 C 110.351562 10.289062 110.289062 10.144531 110.289062 10.015625 C 110.289062 9.566406 111.984375 7.585938 112.878906 7.585938 C 113.265625 7.585938 113.457031 7.777344 113.457031 8.097656 C 113.457031 8.800781 111.808594 10.289062 110.480469 10.289062 Z M 110.480469 10.289062 "/>
<path style=" stroke:none;fill-rule:evenodd;fill:rgb(0%,0%,0%);fill-opacity:1;" d="M 116.160156 16.894531 C 116.257812 16.894531 116.351562 16.847656 116.433594 16.769531 C 117.566406 15.632812 119.3125 11.871094 119.3125 9.152344 C 119.3125 6.433594 117.632812 3.503906 116.496094 2.367188 C 116.398438 2.273438 116.222656 2.175781 116.0625 2.175781 C 115.953125 2.175781 115.710938 2.289062 115.710938 2.433594 C 115.710938 2.464844 115.886719 2.71875 115.921875 2.753906 C 116.894531 3.886719 117.984375 6.238281 117.984375 8.960938 C 117.984375 11.679688 116.945312 15.089844 115.96875 16.222656 C 115.953125 16.257812 115.726562 16.511719 115.726562 16.542969 C 115.726562 16.769531 115.953125 16.894531 116.160156 16.894531 Z M 116.160156 16.894531 "/>
<path style=" stroke:none;fill-rule:evenodd;fill:rgb(0%,0%,0%);fill-opacity:1;" d="M 122.878906 10.257812 C 123.039062 10.257812 123.136719 9.984375 123.167969 9.632812 C 123.359375 7.824219 123.648438 5.039062 123.648438 4.03125 C 123.648438 3.566406 123.359375 3.152344 122.929688 3.152344 C 122.496094 3.152344 122.175781 3.566406 122.175781 4.03125 C 122.175781 5.039062 122.398438 7.808594 122.59375 9.632812 C 122.640625 10.097656 122.71875 10.257812 122.878906 10.257812 Z M 122.910156 13.761719 C 123.441406 13.761719 123.871094 13.328125 123.871094 12.800781 C 123.871094 12.273438 123.441406 11.839844 122.910156 11.839844 C 122.382812 11.839844 121.953125 12.273438 121.953125 12.800781 C 121.953125 13.328125 122.382812 13.761719 122.910156 13.761719 Z M 122.910156 13.761719 "/>
<path style=" stroke:none;fill-rule:evenodd;fill:rgb(0%,0%,0%);fill-opacity:1;" d="M 129.664062 16.894531 C 129.871094 16.894531 130.097656 16.769531 130.097656 16.542969 C 130.097656 16.511719 129.871094 16.257812 129.855469 16.222656 C 128.878906 15.089844 127.839844 11.679688 127.839844 8.960938 C 127.839844 6.238281 128.929688 3.886719 129.902344 2.753906 C 129.9375 2.71875 130.113281 2.464844 130.113281 2.433594 C 130.113281 2.289062 129.871094 2.175781 129.761719 2.175781 C 129.601562 2.175781 129.425781 2.273438 129.328125 2.367188 C 128.191406 3.503906 126.511719 6.433594 126.511719 9.152344 C 126.511719 11.871094 128.257812 15.632812 129.390625 16.769531 C 129.472656 16.847656 129.566406 16.894531 129.664062 16.894531 Z M 129.664062 16.894531 "/>
<path style=" stroke:none;fill-rule:evenodd;fill:rgb(0%,0%,0%);fill-opacity:1;" d="M 132.59375 13.585938 C 133.457031 13.585938 134.128906 13.503906 134.992188 13.503906 C 135.839844 13.503906 136.433594 13.585938 137.34375 13.585938 C 137.472656 13.585938 137.566406 13.503906 137.566406 13.40625 C 137.566406 13.3125 137.425781 13.230469 137.296875 13.199219 C 135.984375 12.878906 135.601562 12.800781 135.601562 11.984375 L 135.601562 4.625 C 135.601562 4.175781 135.617188 3.808594 135.664062 3.488281 C 135.679688 3.40625 135.566406 3.34375 135.472656 3.34375 C 135.441406 3.34375 135.40625 3.34375 135.390625 3.359375 C 134.671875 4.078125 133.953125 4.207031 132.992188 4.351562 C 132.769531 4.382812 132.59375 4.496094 132.59375 4.640625 C 132.59375 4.816406 132.800781 4.894531 133.007812 4.910156 C 133.695312 4.960938 134.351562 5.070312 134.351562 5.679688 L 134.351562 11.792969 C 134.351562 12.734375 133.808594 12.878906 132.59375 13.183594 C 132.464844 13.214844 132.351562 13.3125 132.351562 13.390625 C 132.351562 13.488281 132.433594 13.585938 132.59375 13.585938 Z M 132.59375 13.585938 "/>
<path style=" stroke:none;fill-rule:evenodd;fill:rgb(0%,0%,0%);fill-opacity:1;" d="M 140.414062 13.585938 C 141.28125 13.585938 141.953125 13.503906 142.816406 13.503906 C 143.664062 13.503906 144.257812 13.585938 145.167969 13.585938 C 145.296875 13.585938 145.390625 13.503906 145.390625 13.40625 C 145.390625 13.3125 145.246094 13.230469 145.121094 13.199219 C 143.808594 12.878906 143.425781 12.800781 143.425781 11.984375 L 143.425781 4.625 C 143.425781 4.175781 143.441406 3.808594 143.488281 3.488281 C 143.503906 3.40625 143.390625 3.34375 143.296875 3.34375 C 143.265625 3.34375 143.230469 3.34375 143.214844 3.359375 C 142.496094 4.078125 141.777344 4.207031 140.816406 4.351562 C 140.59375 4.382812 140.414062 4.496094 140.414062 4.640625 C 140.414062 4.816406 140.625 4.894531 140.832031 4.910156 C 141.519531 4.960938 142.175781 5.070312 142.175781 5.679688 L 142.175781 11.792969 C 142.175781 12.734375 141.632812 12.878906 140.414062 13.183594 C 140.289062 13.214844 140.175781 13.3125 140.175781 13.390625 C 140.175781 13.488281 140.257812 13.585938 140.414062 13.585938 Z M 140.414062 13.585938 "/>
<path style=" stroke:none;fill-rule:evenodd;fill:rgb(0%,0%,0%);fill-opacity:1;" d="M 150.398438 13.761719 C 152.769531 13.761719 153.761719 10.878906 153.761719 8.480469 C 153.761719 6.160156 152.734375 3.457031 150.558594 3.457031 C 148.191406 3.457031 147.199219 6.273438 147.199219 8.703125 C 147.199219 11.070312 148.222656 13.761719 150.398438 13.761719 Z M 150.671875 13.34375 C 149.230469 13.34375 148.527344 10.816406 148.527344 8.414062 C 148.527344 6.015625 148.976562 3.902344 150.257812 3.902344 C 151.695312 3.902344 152.449219 6.367188 152.449219 8.769531 C 152.449219 11.167969 151.953125 13.34375 150.671875 13.34375 Z M 150.671875 13.34375 "/>
<path style=" stroke:none;fill-rule:evenodd;fill:rgb(0%,0%,0%);fill-opacity:1;" d="M 156.703125 14.144531 C 158.878906 14.144531 161.152344 12.6875 161.152344 10.289062 C 161.152344 8.929688 160.078125 7.777344 158.71875 7.777344 C 158.640625 7.777344 158.640625 7.710938 158.703125 7.679688 C 159.953125 6.960938 160.382812 6.046875 160.382812 5.28125 C 160.382812 4.191406 159.359375 3.457031 158.304688 3.457031 C 156.128906 3.457031 155.214844 4.976562 155.214844 5.535156 C 155.214844 5.695312 155.390625 5.839844 155.472656 5.839844 C 155.710938 5.839844 155.96875 4.414062 157.617188 4.414062 C 158.480469 4.414062 159.121094 5.199219 159.121094 6.078125 C 159.121094 7.214844 157.472656 8.046875 157.105469 8.222656 C 156.894531 8.320312 156.703125 8.496094 156.625 8.769531 C 156.59375 8.878906 156.785156 8.976562 156.894531 8.910156 C 157.265625 8.703125 157.695312 8.671875 157.9375 8.671875 C 159.167969 8.671875 159.792969 9.96875 159.792969 11.199219 C 159.792969 12.527344 158.625 13.535156 157.457031 13.535156 C 156.863281 13.535156 156.527344 13.28125 156.257812 13.039062 C 156.046875 12.878906 155.871094 12.71875 155.632812 12.71875 C 155.390625 12.71875 154.929688 13.230469 154.929688 13.457031 C 154.929688 13.710938 155.953125 14.144531 156.703125 14.144531 Z M 156.703125 14.144531 "/>
<path style=" stroke:none;fill-rule:evenodd;fill:rgb(0%,0%,0%);fill-opacity:1;" d="M 170.277344 13.664062 C 170.417969 13.664062 171.042969 13.617188 171.042969 13.28125 L 171.042969 10.046875 C 171.042969 10 171.058594 9.984375 171.109375 9.984375 L 174.066406 9.984375 C 174.371094 9.984375 174.5625 9.617188 174.5625 9.34375 C 174.5625 9.246094 174.46875 9.183594 174.355469 9.183594 L 171.074219 9.183594 C 171.042969 9.183594 171.042969 9.167969 171.042969 9.089844 L 171.042969 6.03125 C 171.042969 5.921875 170.929688 5.824219 170.820312 5.824219 C 170.722656 5.824219 170.082031 5.96875 170.082031 6.320312 L 170.082031 9.054688 C 170.082031 9.152344 170.066406 9.183594 169.972656 9.183594 L 166.949219 9.183594 C 166.660156 9.183594 166.5625 9.648438 166.5625 9.792969 C 166.5625 9.886719 166.675781 9.984375 166.789062 9.984375 L 170.019531 9.984375 C 170.066406 9.984375 170.082031 10.015625 170.082031 10.0625 L 170.082031 13.441406 C 170.082031 13.550781 170.179688 13.664062 170.277344 13.664062 Z M 170.277344 13.664062 "/>
<path style=" stroke:none;fill-rule:evenodd;fill:rgb(0%,0%,0%);fill-opacity:1;" d="M 185.382812 13.585938 C 185.496094 13.585938 185.671875 13.535156 185.734375 13.199219 C 185.894531 12.398438 186.214844 11.742188 186.214844 11.585938 C 186.214844 11.503906 186.199219 11.390625 186.101562 11.390625 C 185.925781 11.390625 185.78125 11.632812 185.703125 11.761719 C 185.304688 12.398438 185.09375 12.464844 184.183594 12.511719 C 183.605469 12.542969 182.96875 12.558594 182.359375 12.558594 C 181.765625 12.558594 181.304688 12.542969 180.949219 12.511719 C 180.824219 12.496094 180.726562 12.480469 180.726562 12.398438 C 180.726562 12.320312 183.367188 9.761719 184.085938 8.894531 C 184.757812 8.078125 185.253906 6.960938 185.253906 6.097656 C 185.253906 4.542969 184.296875 3.457031 182.695312 3.457031 C 180.886719 3.457031 179.574219 5.023438 179.574219 5.519531 C 179.574219 5.808594 179.734375 6 179.816406 6 C 179.910156 6 180.023438 5.902344 180.085938 5.777344 C 180.535156 5.007812 181.320312 4.480469 182.199219 4.480469 C 183.109375 4.480469 183.910156 5.167969 183.910156 6.304688 C 183.910156 7.710938 183.128906 9.152344 182.054688 10.257812 L 179.320312 13.089844 C 179.222656 13.183594 179.191406 13.199219 179.191406 13.296875 C 179.191406 13.390625 179.429688 13.566406 179.511719 13.566406 C 179.832031 13.566406 182.421875 13.488281 183.222656 13.488281 C 184.023438 13.488281 185.0625 13.585938 185.382812 13.585938 Z M 185.382812 13.585938 "/>
<path style=" stroke:none;fill-rule:evenodd;fill:rgb(0%,0%,0%);fill-opacity:1;" d="M 190.679688 13.792969 C 192.230469 13.792969 193.960938 12.496094 193.960938 10.496094 C 193.960938 9.34375 192.96875 8.527344 191.863281 8.527344 C 191.269531 8.527344 190.535156 8.878906 190.296875 9.054688 C 190.117188 9.183594 190.023438 9.265625 189.863281 9.441406 C 189.75 9.566406 189.78125 9.710938 189.976562 9.617188 C 190.34375 9.425781 190.695312 9.375 191.253906 9.375 C 192.101562 9.375 192.710938 10.289062 192.710938 11.265625 C 192.710938 12.59375 191.925781 13.199219 191.0625 13.183594 C 190.007812 13.167969 188.808594 12.191406 188.773438 10.414062 C 188.773438 8.753906 189.71875 7.007812 190.246094 6.238281 C 191.0625 5.070312 192.039062 4.335938 193.480469 3.710938 C 193.589844 3.664062 193.800781 3.585938 193.894531 3.390625 C 193.925781 3.328125 193.800781 3.230469 193.605469 3.28125 C 191.640625 3.808594 190.136719 5.089844 189.335938 5.902344 C 188.726562 6.511719 187.398438 8.0625 187.398438 10.449219 C 187.398438 12.6875 189.03125 13.792969 190.679688 13.792969 Z M 190.679688 13.792969 "/>
<path style=" stroke:none;fill-rule:evenodd;fill:rgb(0%,0%,0%);fill-opacity:1;" d="M 196.886719 14.144531 C 199.0625 14.144531 201.335938 12.6875 201.335938 10.289062 C 201.335938 8.929688 200.261719 7.777344 198.902344 7.777344 C 198.824219 7.777344 198.824219 7.710938 198.886719 7.679688 C 200.136719 6.960938 200.566406 6.046875 200.566406 5.28125 C 200.566406 4.191406 199.542969 3.457031 198.488281 3.457031 C 196.3125 3.457031 195.398438 4.976562 195.398438 5.535156 C 195.398438 5.695312 195.574219 5.839844 195.65625 5.839844 C 195.894531 5.839844 196.152344 4.414062 197.800781 4.414062 C 198.664062 4.414062 199.304688 5.199219 199.304688 6.078125 C 199.304688 7.214844 197.65625 8.046875 197.289062 8.222656 C 197.078125 8.320312 196.886719 8.496094 196.808594 8.769531 C 196.773438 8.878906 196.96875 8.976562 197.078125 8.910156 C 197.445312 8.703125 197.878906 8.671875 198.117188 8.671875 C 199.351562 8.671875 199.976562 9.96875 199.976562 11.199219 C 199.976562 12.527344 198.808594 13.535156 197.640625 13.535156 C 197.046875 13.535156 196.710938 13.28125 196.4375 13.039062 C 196.230469 12.878906 196.054688 12.71875 195.816406 12.71875 C 195.574219 12.71875 195.109375 13.230469 195.109375 13.457031 C 195.109375 13.710938 196.136719 14.144531 196.886719 14.144531 Z M 196.886719 14.144531 "/>
<path style=" stroke:none;fill-rule:evenodd;fill:rgb(0%,0%,0%);fill-opacity:1;" d="M 203.175781 14.03125 C 204.296875 14.03125 206.039062 13.425781 207.207031 12.144531 C 208.664062 10.558594 209.511719 9.136719 209.511719 7.136719 C 209.511719 5.296875 207.992188 3.472656 206.4375 3.472656 C 204.503906 3.472656 203.144531 5.199219 203.144531 6.65625 C 203.144531 7.808594 204.277344 8.671875 205.382812 8.671875 C 205.976562 8.671875 206.613281 8.320312 206.855469 8.144531 C 207.03125 8.015625 207.269531 7.792969 207.382812 7.585938 C 207.414062 7.519531 207.351562 7.375 207.269531 7.40625 C 206.871094 7.601562 206.648438 7.824219 205.992188 7.824219 C 205.144531 7.824219 204.34375 6.800781 204.34375 5.824219 C 204.34375 5.039062 204.871094 4.046875 205.910156 4.046875 C 207.078125 4.046875 208.152344 5.777344 208.152344 7.3125 C 208.152344 8.863281 207.75 10.0625 206.726562 11.390625 C 205.703125 12.703125 204.136719 13.742188 203.175781 13.742188 C 203.0625 13.742188 202.949219 13.792969 202.949219 13.902344 C 202.949219 13.96875 203 14.03125 203.175781 14.03125 Z M 203.175781 14.03125 "/>
<path style=" stroke:none;fill-rule:evenodd;fill:rgb(0%,0%,0%);fill-opacity:1;" d="M 214.054688 13.761719 C 216.421875 13.761719 217.414062 10.878906 217.414062 8.480469 C 217.414062 6.160156 216.390625 3.457031 214.214844 3.457031 C 211.847656 3.457031 210.855469 6.273438 210.855469 8.703125 C 210.855469 11.070312 211.878906 13.761719 214.054688 13.761719 Z M 214.328125 13.34375 C 212.886719 13.34375 212.183594 10.816406 212.183594 8.414062 C 212.183594 6.015625 212.632812 3.902344 213.910156 3.902344 C 215.351562 3.902344 216.101562 6.367188 216.101562 8.769531 C 216.101562 11.167969 215.605469 13.34375 214.328125 13.34375 Z M 214.328125 13.34375 "/>
<path style=" stroke:none;fill-rule:evenodd;fill:rgb(0%,0%,0%);fill-opacity:1;" d="M 222.855469 13.871094 C 223.351562 13.871094 224.664062 12.640625 224.664062 11.96875 C 224.664062 11.886719 224.597656 11.777344 224.566406 11.777344 C 224.488281 11.777344 224.421875 11.792969 224.3125 11.984375 C 224.023438 12.449219 223.589844 12.910156 223.191406 12.910156 C 222.949219 12.910156 222.757812 12.671875 222.664062 12.449219 L 221.925781 10.703125 C 221.878906 10.59375 221.894531 10.558594 222.007812 10.527344 C 223.09375 10.222656 225.269531 8.734375 225.269531 7.617188 C 225.269531 7.136719 224.757812 6.894531 224.328125 6.894531 C 223.253906 6.894531 221.863281 7.886719 220.773438 9.40625 C 220.695312 9.519531 220.550781 9.585938 220.632812 9.34375 L 222.792969 2.769531 C 222.839844 2.625 222.839844 2.574219 222.839844 2.398438 C 222.839844 2.238281 222.679688 2.238281 222.582031 2.238281 C 222.328125 2.238281 221.253906 2.59375 220.773438 2.832031 C 220.710938 2.863281 220.679688 2.929688 220.679688 3.007812 C 220.679688 3.070312 220.886719 3.152344 221.09375 3.230469 C 221.320312 3.3125 221.445312 3.425781 221.445312 3.550781 C 221.445312 3.808594 221.414062 4.0625 221.289062 4.464844 L 218.613281 12.753906 C 218.519531 13.070312 218.488281 13.328125 218.488281 13.425781 C 218.488281 13.617188 218.742188 13.777344 218.902344 13.777344 C 219.160156 13.777344 219.191406 13.632812 219.320312 13.28125 C 219.429688 12.976562 219.941406 11.664062 220.070312 11.359375 C 220.167969 11.136719 220.359375 10.6875 220.503906 10.6875 C 220.855469 10.6875 221.109375 11.039062 221.238281 11.390625 L 221.847656 13.089844 C 222.070312 13.601562 222.34375 13.871094 222.855469 13.871094 Z M 221.175781 10.289062 C 221.046875 10.289062 220.984375 10.144531 220.984375 10.015625 C 220.984375 9.566406 222.679688 7.585938 223.574219 7.585938 C 223.960938 7.585938 224.152344 7.777344 224.152344 8.097656 C 224.152344 8.800781 222.503906 10.289062 221.175781 10.289062 Z M 221.175781 10.289062 "/>
<path style=" stroke:none;fill-rule:evenodd;fill:rgb(0%,0%,0%);fill-opacity:1;" d="M 226.855469 16.894531 C 226.949219 16.894531 227.046875 16.847656 227.128906 16.769531 C 228.261719 15.632812 230.007812 11.871094 230.007812 9.152344 C 230.007812 6.433594 228.328125 3.503906 227.191406 2.367188 C 227.09375 2.273438 226.917969 2.175781 226.757812 2.175781 C 226.648438 2.175781 226.40625 2.289062 226.40625 2.433594 C 226.40625 2.464844 226.582031 2.71875 226.613281 2.753906 C 227.589844 3.886719 228.679688 6.238281 228.679688 8.960938 C 228.679688 11.679688 227.640625 15.089844 226.664062 16.222656 C 226.648438 16.257812 226.421875 16.511719 226.421875 16.542969 C 226.421875 16.769531 226.648438 16.894531 226.855469 16.894531 Z M 226.855469 16.894531 "/>
<path style=" stroke:none;fill-rule:nonzero;fill:rgb(0%,0%,0%);fill-opacity:1;" d="M 93.519531 19.296875 L 231.605469 19.296875 L 231.605469 20.097656 L 93.519531 20.097656 Z M 93.519531 19.296875 "/>
<path style=" stroke:none;fill-rule:evenodd;fill:rgb(0%,0%,0%);fill-opacity:1;" d="M 135.671875 40.726562 C 135.878906 40.726562 136.101562 40.597656 136.101562 40.375 C 136.101562 40.34375 135.878906 40.085938 135.863281 40.054688 C 134.886719 38.917969 133.847656 35.511719 133.847656 32.789062 C 133.847656 30.070312 134.933594 27.71875 135.910156 26.582031 C 135.941406 26.550781 136.117188 26.292969 136.117188 26.261719 C 136.117188 26.117188 135.878906 26.007812 135.765625 26.007812 C 135.605469 26.007812 135.429688 26.101562 135.332031 26.199219 C 134.199219 27.335938 132.519531 30.261719 132.519531 32.980469 C 132.519531 35.703125 134.261719 39.460938 135.398438 40.597656 C 135.476562 40.679688 135.574219 40.726562 135.671875 40.726562 Z M 135.671875 40.726562 "/>
<path style=" stroke:none;fill-rule:evenodd;fill:rgb(0%,0%,0%);fill-opacity:1;" d="M 141.734375 37.703125 C 142.230469 37.703125 143.542969 36.46875 143.542969 35.796875 C 143.542969 35.71875 143.476562 35.605469 143.445312 35.605469 C 143.367188 35.605469 143.300781 35.621094 143.191406 35.8125 C 142.902344 36.277344 142.46875 36.742188 142.070312 36.742188 C 141.828125 36.742188 141.636719 36.503906 141.542969 36.277344 L 140.804688 34.535156 C 140.757812 34.421875 140.773438 34.390625 140.886719 34.359375 C 141.972656 34.054688 144.148438 32.566406 144.148438 31.445312 C 144.148438 30.964844 143.636719 30.726562 143.207031 30.726562 C 142.132812 30.726562 140.742188 31.71875 139.652344 33.238281 C 139.574219 33.351562 139.429688 33.414062 139.511719 33.175781 L 141.671875 26.597656 C 141.71875 26.453125 141.71875 26.40625 141.71875 26.230469 C 141.71875 26.070312 141.558594 26.070312 141.460938 26.070312 C 141.207031 26.070312 140.132812 26.421875 139.652344 26.664062 C 139.589844 26.695312 139.558594 26.757812 139.558594 26.839844 C 139.558594 26.902344 139.765625 26.980469 139.972656 27.0625 C 140.199219 27.140625 140.324219 27.253906 140.324219 27.382812 C 140.324219 27.636719 140.292969 27.894531 140.164062 28.292969 L 137.492188 36.582031 C 137.398438 36.902344 137.367188 37.160156 137.367188 37.253906 C 137.367188 37.445312 137.621094 37.605469 137.78125 37.605469 C 138.039062 37.605469 138.070312 37.460938 138.199219 37.109375 C 138.308594 36.804688 138.820312 35.496094 138.949219 35.191406 C 139.046875 34.964844 139.238281 34.519531 139.382812 34.519531 C 139.734375 34.519531 139.988281 34.871094 140.117188 35.222656 L 140.726562 36.917969 C 140.949219 37.429688 141.222656 37.703125 141.734375 37.703125 Z M 140.054688 34.117188 C 139.925781 34.117188 139.863281 33.972656 139.863281 33.847656 C 139.863281 33.398438 141.558594 31.414062 142.453125 31.414062 C 142.839844 31.414062 143.03125 31.605469 143.03125 31.925781 C 143.03125 32.628906 141.382812 34.117188 140.054688 34.117188 Z M 140.054688 34.117188 "/>
<path style=" stroke:none;fill-rule:evenodd;fill:rgb(0%,0%,0%);fill-opacity:1;" d="M 146.453125 34.085938 C 146.613281 34.085938 146.710938 33.8125 146.742188 33.460938 C 146.933594 31.65625 147.222656 28.871094 147.222656 27.863281 C 147.222656 27.398438 146.933594 26.980469 146.503906 26.980469 C 146.070312 26.980469 145.75 27.398438 145.75 27.863281 C 145.75 28.871094 145.972656 31.636719 146.164062 33.460938 C 146.214844 33.925781 146.292969 34.085938 146.453125 34.085938 Z M 146.484375 37.589844 C 147.015625 37.589844 147.445312 37.160156 147.445312 36.628906 C 147.445312 36.101562 147.015625 35.671875 146.484375 35.671875 C 145.957031 35.671875 145.527344 36.101562 145.527344 36.628906 C 145.527344 37.160156 145.957031 37.589844 146.484375 37.589844 Z M 146.484375 37.589844 "/>
<path style=" stroke:none;fill-rule:evenodd;fill:rgb(0%,0%,0%);fill-opacity:1;" d="M 149.734375 40.726562 C 149.828125 40.726562 149.925781 40.679688 150.007812 40.597656 C 151.140625 39.460938 152.886719 35.703125 152.886719 32.980469 C 152.886719 30.261719 151.207031 27.335938 150.070312 26.199219 C 149.972656 26.101562 149.796875 26.007812 149.636719 26.007812 C 149.527344 26.007812 149.285156 26.117188 149.285156 26.261719 C 149.285156 26.292969 149.460938 26.550781 149.492188 26.582031 C 150.46875 27.71875 151.558594 30.070312 151.558594 32.789062 C 151.558594 35.511719 150.519531 38.917969 149.542969 40.054688 C 149.527344 40.085938 149.300781 40.34375 149.300781 40.375 C 149.300781 40.597656 149.527344 40.726562 149.734375 40.726562 Z M 149.734375 40.726562 "/>
<path style=" stroke:none;fill-rule:evenodd;fill:rgb(0%,0%,0%);fill-opacity:1;" d="M 156.738281 29.71875 C 157.34375 29.71875 157.453125 29.664062 158.023438 29.664062 C 158.550781 29.664062 158.652344 29.71875 159.289062 29.71875 C 159.378906 29.71875 159.457031 29.664062 159.457031 29.597656 C 159.457031 29.53125 159.347656 29.460938 159.257812 29.441406 C 158.652344 29.28125 158.507812 29.183594 158.507812 28.746094 L 158.507812 27.691406 C 158.507812 27.679688 158.597656 27.636719 158.652344 27.625 C 158.742188 27.613281 158.863281 27.601562 159 27.601562 C 159.179688 27.601562 159.378906 27.613281 159.546875 27.613281 C 159.59375 27.613281 159.785156 27.367188 159.785156 27.1875 C 159.785156 27.144531 159.726562 27.097656 159.660156 27.097656 C 159.414062 27.109375 159.210938 27.121094 159 27.121094 C 158.863281 27.121094 158.71875 27.121094 158.550781 27.109375 C 158.519531 27.109375 158.496094 27.078125 158.496094 27.042969 L 158.496094 25.597656 C 158.496094 25.128906 158.496094 24.882812 158.328125 24.882812 C 158.226562 24.882812 157.925781 24.902344 157.699219 25.027344 C 157.609375 25.070312 157.597656 25.117188 157.597656 25.273438 L 157.597656 27.007812 C 157.597656 27.054688 157.519531 27.097656 157.464844 27.097656 L 155.527344 27.097656 C 155.484375 27.097656 155.503906 27.03125 155.527344 27 L 158.550781 22.652344 C 158.550781 22.652344 158.640625 22.496094 158.574219 22.496094 L 158.339844 22.496094 C 158.226562 22.496094 158.09375 22.675781 158.003906 22.808594 L 155.046875 27.054688 C 154.898438 27.257812 154.890625 27.234375 154.609375 27.582031 C 154.597656 27.59375 154.597656 27.601562 154.597656 27.613281 C 154.597656 27.660156 154.652344 27.726562 154.710938 27.726562 C 155.886719 27.714844 156.511719 27.648438 157.429688 27.648438 C 157.441406 27.648438 157.597656 27.679688 157.597656 27.75 L 157.597656 28.789062 C 157.597656 29.148438 157.429688 29.351562 156.738281 29.441406 C 156.648438 29.453125 156.535156 29.496094 156.535156 29.574219 C 156.535156 29.675781 156.660156 29.71875 156.738281 29.71875 Z M 156.738281 29.71875 "/>
<path style=" stroke:none;fill-rule:evenodd;fill:rgb(0%,0%,0%);fill-opacity:1;" d="M 162.28125 37.972656 C 164.457031 37.972656 166.730469 36.519531 166.730469 34.117188 C 166.730469 32.757812 165.660156 31.605469 164.296875 31.605469 C 164.21875 31.605469 164.21875 31.542969 164.28125 31.511719 C 165.53125 30.789062 165.960938 29.878906 165.960938 29.109375 C 165.960938 28.023438 164.9375 27.285156 163.882812 27.285156 C 161.707031 27.285156 160.792969 28.804688 160.792969 29.367188 C 160.792969 29.527344 160.972656 29.671875 161.050781 29.671875 C 161.289062 29.671875 161.546875 28.246094 163.195312 28.246094 C 164.058594 28.246094 164.699219 29.03125 164.699219 29.910156 C 164.699219 31.046875 163.050781 31.878906 162.683594 32.054688 C 162.476562 32.152344 162.28125 32.328125 162.203125 32.597656 C 162.171875 32.710938 162.363281 32.804688 162.476562 32.742188 C 162.84375 32.535156 163.273438 32.503906 163.515625 32.503906 C 164.746094 32.503906 165.371094 33.796875 165.371094 35.03125 C 165.371094 36.359375 164.203125 37.367188 163.035156 37.367188 C 162.441406 37.367188 162.105469 37.109375 161.835938 36.871094 C 161.625 36.710938 161.449219 36.550781 161.210938 36.550781 C 160.972656 36.550781 160.507812 37.0625 160.507812 37.285156 C 160.507812 37.542969 161.53125 37.972656 162.28125 37.972656 Z M 162.28125 37.972656 "/>
<path style=" stroke:none;fill-rule:evenodd;fill:rgb(0%,0%,0%);fill-opacity:1;" d="M 168.570312 37.863281 C 169.691406 37.863281 171.433594 37.253906 172.601562 35.972656 C 174.058594 34.390625 174.90625 32.964844 174.90625 30.964844 C 174.90625 29.125 173.386719 27.300781 171.835938 27.300781 C 169.898438 27.300781 168.539062 29.03125 168.539062 30.488281 C 168.539062 31.636719 169.675781 32.503906 170.777344 32.503906 C 171.371094 32.503906 172.011719 32.152344 172.25 31.972656 C 172.425781 31.847656 172.667969 31.621094 172.777344 31.414062 C 172.8125 31.351562 172.746094 31.207031 172.667969 31.238281 C 172.265625 31.429688 172.042969 31.65625 171.386719 31.65625 C 170.539062 31.65625 169.738281 30.628906 169.738281 29.65625 C 169.738281 28.871094 170.265625 27.878906 171.308594 27.878906 C 172.476562 27.878906 173.546875 29.605469 173.546875 31.140625 C 173.546875 32.695312 173.148438 33.894531 172.121094 35.222656 C 171.097656 36.535156 169.53125 37.574219 168.570312 37.574219 C 168.457031 37.574219 168.347656 37.621094 168.347656 37.734375 C 168.347656 37.796875 168.394531 37.863281 168.570312 37.863281 Z M 168.570312 37.863281 "/>
<path style=" stroke:none;fill-rule:evenodd;fill:rgb(0%,0%,0%);fill-opacity:1;" d="M 179.546875 37.621094 C 181.097656 37.621094 182.828125 36.328125 182.828125 34.328125 C 182.828125 33.175781 181.835938 32.359375 180.730469 32.359375 C 180.140625 32.359375 179.402344 32.710938 179.164062 32.886719 C 178.988281 33.015625 178.890625 33.09375 178.730469 33.269531 C 178.617188 33.398438 178.652344 33.542969 178.84375 33.445312 C 179.210938 33.253906 179.5625 33.207031 180.121094 33.207031 C 180.972656 33.207031 181.578125 34.117188 181.578125 35.09375 C 181.578125 36.421875 180.792969 37.03125 179.929688 37.015625 C 178.875 37 177.675781 36.023438 177.644531 34.246094 C 177.644531 32.582031 178.585938 30.839844 179.113281 30.070312 C 179.929688 28.902344 180.90625 28.167969 182.347656 27.542969 C 182.457031 27.496094 182.667969 27.414062 182.761719 27.222656 C 182.792969 27.160156 182.667969 27.0625 182.476562 27.109375 C 180.507812 27.636719 179.003906 28.917969 178.203125 29.734375 C 177.59375 30.34375 176.265625 31.894531 176.265625 34.277344 C 176.265625 36.519531 177.898438 37.621094 179.546875 37.621094 Z M 179.546875 37.621094 "/>
<path style=" stroke:none;fill-rule:evenodd;fill:rgb(0%,0%,0%);fill-opacity:1;" d="M 185.6875 30.777344 C 186.289062 30.777344 186.402344 30.71875 186.972656 30.71875 C 187.5 30.71875 187.601562 30.777344 188.238281 30.777344 C 188.328125 30.777344 188.40625 30.71875 188.40625 30.652344 C 188.40625 30.585938 188.296875 30.519531 188.207031 30.496094 C 187.601562 30.339844 187.457031 30.238281 187.457031 29.800781 L 187.457031 28.75 C 187.457031 28.738281 187.546875 28.691406 187.601562 28.679688 C 187.691406 28.671875 187.8125 28.660156 187.949219 28.660156 C 188.128906 28.660156 188.328125 28.671875 188.496094 28.671875 C 188.542969 28.671875 188.730469 28.425781 188.730469 28.246094 C 188.730469 28.199219 188.675781 28.15625 188.609375 28.15625 C 188.363281 28.167969 188.160156 28.175781 187.949219 28.175781 C 187.8125 28.175781 187.667969 28.175781 187.5 28.167969 C 187.464844 28.167969 187.445312 28.132812 187.445312 28.097656 L 187.445312 26.65625 C 187.445312 26.183594 187.445312 25.9375 187.277344 25.9375 C 187.175781 25.9375 186.875 25.960938 186.648438 26.082031 C 186.558594 26.128906 186.546875 26.171875 186.546875 26.328125 L 186.546875 28.066406 C 186.546875 28.109375 186.46875 28.15625 186.414062 28.15625 L 184.476562 28.15625 C 184.429688 28.15625 184.453125 28.089844 184.476562 28.054688 L 187.5 23.707031 C 187.5 23.707031 187.589844 23.550781 187.523438 23.550781 L 187.289062 23.550781 C 187.175781 23.550781 187.042969 23.730469 186.953125 23.867188 L 183.996094 28.109375 C 183.847656 28.3125 183.839844 28.289062 183.558594 28.636719 C 183.546875 28.648438 183.546875 28.660156 183.546875 28.671875 C 183.546875 28.714844 183.601562 28.78125 183.660156 28.78125 C 184.835938 28.769531 185.460938 28.703125 186.378906 28.703125 C 186.390625 28.703125 186.546875 28.738281 186.546875 28.804688 L 186.546875 29.847656 C 186.546875 30.203125 186.378906 30.40625 185.6875 30.496094 C 185.597656 30.507812 185.484375 30.550781 185.484375 30.628906 C 185.484375 30.730469 185.609375 30.777344 185.6875 30.777344 Z M 185.6875 30.777344 "/>
<path style=" stroke:none;fill-rule:evenodd;fill:rgb(0%,0%,0%);fill-opacity:1;" d="M 192.28125 30.976562 C 192.628906 30.976562 193.546875 30.113281 193.546875 29.644531 C 193.546875 29.589844 193.503906 29.511719 193.480469 29.511719 C 193.425781 29.511719 193.378906 29.523438 193.300781 29.65625 C 193.101562 29.980469 192.796875 30.304688 192.519531 30.304688 C 192.351562 30.304688 192.214844 30.136719 192.148438 29.980469 L 191.632812 28.761719 C 191.597656 28.679688 191.609375 28.660156 191.6875 28.636719 C 192.449219 28.425781 193.972656 27.382812 193.972656 26.597656 C 193.972656 26.261719 193.617188 26.09375 193.3125 26.09375 C 192.5625 26.09375 191.589844 26.789062 190.828125 27.851562 C 190.769531 27.929688 190.671875 27.976562 190.726562 27.808594 L 192.238281 23.203125 C 192.273438 23.105469 192.273438 23.070312 192.273438 22.945312 C 192.273438 22.835938 192.160156 22.835938 192.09375 22.835938 C 191.914062 22.835938 191.164062 23.082031 190.828125 23.25 C 190.78125 23.273438 190.757812 23.316406 190.757812 23.371094 C 190.757812 23.417969 190.90625 23.472656 191.050781 23.53125 C 191.207031 23.585938 191.296875 23.664062 191.296875 23.753906 C 191.296875 23.933594 191.273438 24.113281 191.183594 24.390625 L 189.316406 30.195312 C 189.246094 30.417969 189.226562 30.597656 189.226562 30.664062 C 189.226562 30.796875 189.40625 30.910156 189.515625 30.910156 C 189.695312 30.910156 189.71875 30.808594 189.808594 30.5625 C 189.886719 30.351562 190.246094 29.433594 190.332031 29.21875 C 190.402344 29.0625 190.535156 28.75 190.636719 28.75 C 190.882812 28.75 191.0625 28.996094 191.152344 29.242188 L 191.578125 30.429688 C 191.734375 30.789062 191.925781 30.976562 192.28125 30.976562 Z M 191.105469 28.46875 C 191.015625 28.46875 190.972656 28.367188 190.972656 28.277344 C 190.972656 27.964844 192.160156 26.574219 192.785156 26.574219 C 193.054688 26.574219 193.191406 26.710938 193.191406 26.933594 C 193.191406 27.425781 192.035156 28.46875 191.105469 28.46875 Z M 191.105469 28.46875 "/>
</g>
</svg>
