<?xml version="1.0" encoding="UTF-8"?>
<svg xmlns="http://www.w3.org/2000/svg" xmlns:xlink="http://www.w3.org/1999/xlink" width="330.683124pt" height="114.880005pt" viewBox="0 0 330.683124 114.880005" version="1.1">
<g id="surface1">
<path style=" stroke:none;fill-rule:evenodd;fill:rgb(0%,0%,0%);fill-opacity:1;" d="M 5 69.203125 C 10.558594 69.203125 14.28125 61.203125 14.28125 57.484375 C 14.28125 57.042969 13.71875 55.882812 13.601562 55.445312 C 13.519531 55.125 13.601562 54.882812 13.878906 54.882812 C 14.160156 54.882812 18.121094 55.003906 18.679688 55.003906 C 19.519531 55.003906 20.960938 52.042969 20.960938 51.484375 C 20.960938 51.285156 20.601562 51.085938 20.359375 51.085938 C 20.238281 51.085938 20.039062 51.402344 19.71875 51.722656 C 19.441406 51.964844 19.039062 52.242188 18.601562 52.242188 C 16.519531 52.242188 12.039062 52.085938 10.359375 52.085938 C 5.480469 52.085938 1.441406 59.683594 1.441406 64.683594 C 1.441406 66.644531 3.480469 69.203125 5 69.203125 Z M 5.121094 66.164062 C 3.921875 66.164062 2.839844 64.84375 2.800781 63.683594 C 2.761719 60.445312 6.238281 55.003906 11.238281 55.003906 C 12.359375 55.003906 12.761719 55.324219 12.761719 56.445312 C 12.761719 60.242188 8.441406 66.164062 5.121094 66.164062 Z M 5.121094 66.164062 "/>
<path style=" stroke:none;fill-rule:evenodd;fill:rgb(0%,0%,0%);fill-opacity:1;" d="M 36.972656 56.085938 L 53.773438 56.085938 C 54.414062 56.085938 55.054688 55.085938 55.054688 54.523438 C 55.054688 54.285156 54.734375 54.085938 54.492188 54.085938 L 37.375 54.085938 C 36.652344 54.085938 36.414062 55.242188 36.414062 55.605469 C 36.414062 55.84375 36.691406 56.085938 36.972656 56.085938 Z M 36.972656 62.925781 L 53.773438 62.925781 C 54.414062 62.925781 55.054688 62.085938 55.054688 61.363281 C 55.054688 61.125 54.734375 60.925781 54.492188 60.925781 L 37.375 60.925781 C 36.652344 60.925781 36.414062 62.085938 36.414062 62.445312 C 36.414062 62.683594 36.691406 62.925781 36.972656 62.925781 Z M 36.972656 62.925781 "/>
<path style=" stroke:none;fill-rule:evenodd;fill:rgb(0%,0%,0%);fill-opacity:1;" d="M 98.507812 2 C 99.308594 2 99.785156 1.320312 99.785156 0.519531 C 99.785156 0.28125 99.425781 0 99.105469 0 L 97.1875 0 C 96.386719 0 95.945312 0.320312 95.867188 1.121094 L 83.386719 103.679688 C 83.347656 103.960938 83.347656 103.960938 83.308594 103.679688 L 78.066406 63.921875 C 77.945312 63.121094 77.507812 62.71875 76.707031 62.71875 L 72.828125 62.71875 C 72.148438 62.71875 71.785156 63.398438 71.785156 64.039062 C 71.785156 64.28125 72.066406 64.480469 72.347656 64.480469 L 74.027344 64.480469 C 74.308594 64.480469 74.464844 64.601562 74.507812 64.878906 L 80.785156 113.039062 C 80.945312 114.238281 82.1875 114.878906 83.347656 114.878906 C 83.746094 114.878906 84.1875 114.398438 84.226562 113.921875 L 97.785156 2.398438 C 97.828125 2.121094 97.945312 2 98.226562 2 Z M 98.507812 2 "/>
<path style=" stroke:none;fill-rule:nonzero;fill:rgb(0%,0%,0%);fill-opacity:1;" d="M 98.347656 0 L 330.683594 0 L 330.683594 2 L 98.347656 2 Z M 98.347656 0 "/>
<path style=" stroke:none;fill-rule:evenodd;fill:rgb(0%,0%,0%);fill-opacity:1;" d="M 113.925781 43.402344 C 116.085938 43.402344 117.765625 43.203125 119.925781 43.203125 C 122.046875 43.203125 123.527344 43.402344 125.808594 43.402344 C 126.125 43.402344 126.367188 43.203125 126.367188 42.964844 C 126.367188 42.722656 126.007812 42.523438 125.6875 42.445312 C 122.40625 41.644531 121.445312 41.445312 121.445312 39.402344 L 121.445312 21.003906 C 121.445312 19.882812 121.488281 18.964844 121.605469 18.164062 C 121.648438 17.964844 121.367188 17.804688 121.125 17.804688 C 121.046875 17.804688 120.964844 17.804688 120.925781 17.84375 C 119.125 19.644531 117.328125 19.964844 114.925781 20.324219 C 114.367188 20.402344 113.925781 20.683594 113.925781 21.042969 C 113.925781 21.484375 114.445312 21.683594 114.964844 21.722656 C 116.6875 21.84375 118.328125 22.125 118.328125 23.644531 L 118.328125 38.925781 C 118.328125 41.285156 116.964844 41.644531 113.925781 42.402344 C 113.605469 42.484375 113.328125 42.722656 113.328125 42.925781 C 113.328125 43.164062 113.527344 43.402344 113.925781 43.402344 Z M 113.925781 43.402344 "/>
<path style=" stroke:none;fill-rule:nonzero;fill:rgb(0%,0%,0%);fill-opacity:1;" d="M 102.347656 57.644531 L 136.667969 57.644531 L 136.667969 59.644531 L 102.347656 59.644531 Z M 102.347656 57.644531 "/>
<path style=" stroke:none;fill-rule:evenodd;fill:rgb(0%,0%,0%);fill-opacity:1;" d="M 102.464844 92.765625 C 104.464844 92.765625 105.105469 92.5625 106.746094 92.5625 C 108.105469 92.5625 108.707031 92.765625 110.707031 92.765625 C 111.347656 92.765625 111.90625 92.644531 111.90625 92.324219 C 111.90625 91.964844 111.546875 91.804688 110.746094 91.644531 C 108.707031 91.242188 107.90625 90.242188 108.265625 88.722656 C 109.667969 82.925781 111.785156 76.324219 112.867188 72.363281 C 113.105469 71.484375 113.546875 71.003906 113.828125 71.003906 C 114.105469 71.003906 114.464844 71.363281 114.785156 71.964844 C 117.90625 77.804688 120.988281 85.683594 123.867188 91.722656 C 124.265625 92.5625 124.707031 92.765625 125.546875 92.765625 C 126.226562 92.765625 127.148438 92.5625 128.625 92.5625 C 128.785156 92.5625 128.945312 92.5625 128.945312 92.324219 C 128.945312 91.804688 128.625 91.5625 128.1875 91.242188 C 127.746094 90.925781 127.1875 90.683594 126.867188 89.925781 C 126.585938 89.285156 126.464844 88.882812 126.707031 88.042969 C 127.226562 86.242188 132.308594 71.324219 132.707031 70.363281 C 133.585938 68.285156 133.988281 67.84375 136.027344 67.683594 C 136.945312 67.605469 137.507812 67.242188 137.507812 66.882812 C 137.507812 66.5625 137.226562 66.445312 136.585938 66.445312 C 134.308594 66.445312 133.546875 66.683594 131.988281 66.683594 C 130.425781 66.683594 129.148438 66.523438 127.707031 66.523438 C 127.066406 66.523438 126.386719 66.683594 126.386719 67.003906 C 126.386719 67.363281 126.667969 67.644531 127.464844 67.765625 C 130.027344 68.164062 131.027344 68.925781 130.585938 70.804688 C 130.308594 72.042969 126.507812 84.644531 125.828125 86.363281 C 125.585938 86.964844 125.507812 87.164062 125.308594 87.164062 C 125.027344 87.164062 124.625 86.644531 124.507812 86.402344 L 115.347656 67.125 C 115.148438 66.722656 114.746094 66.445312 114.308594 66.445312 C 112.945312 66.445312 111.308594 66.242188 109.148438 66.242188 C 108.867188 66.242188 108.148438 66.285156 108.148438 66.804688 C 108.148438 67.242188 108.785156 67.484375 109.707031 67.5625 C 112.746094 67.765625 112.667969 69.125 111.90625 71.523438 L 106.347656 88.765625 C 105.945312 90.042969 105.1875 91.042969 102.667969 91.605469 C 101.746094 91.804688 101.507812 91.964844 101.507812 92.324219 C 101.507812 92.644531 101.828125 92.765625 102.464844 92.765625 Z M 102.464844 92.765625 "/>
<path style=" stroke:none;fill-rule:evenodd;fill:rgb(0%,0%,0%);fill-opacity:1;" d="M 160.445312 26.5625 C 161.84375 26.5625 162.292969 26.425781 163.441406 26.425781 C 164.394531 26.425781 164.8125 26.5625 166.214844 26.5625 C 166.660156 26.5625 167.054688 26.480469 167.054688 26.257812 C 167.054688 26.003906 166.800781 25.890625 166.242188 25.78125 C 164.8125 25.5 164.253906 24.800781 164.503906 23.734375 C 165.484375 19.675781 166.96875 15.054688 167.726562 12.285156 C 167.894531 11.667969 168.203125 11.332031 168.398438 11.332031 C 168.59375 11.332031 168.84375 11.585938 169.070312 12.003906 C 171.253906 16.09375 173.410156 21.609375 175.425781 25.835938 C 175.707031 26.425781 176.011719 26.5625 176.601562 26.5625 C 177.078125 26.5625 177.722656 26.425781 178.757812 26.425781 C 178.871094 26.425781 178.980469 26.425781 178.980469 26.257812 C 178.980469 25.890625 178.757812 25.722656 178.449219 25.5 C 178.140625 25.277344 177.75 25.109375 177.523438 24.574219 C 177.328125 24.128906 177.246094 23.847656 177.414062 23.261719 C 177.777344 22 181.332031 11.554688 181.613281 10.882812 C 182.230469 9.429688 182.507812 9.121094 183.9375 9.007812 C 184.582031 8.953125 184.972656 8.699219 184.972656 8.449219 C 184.972656 8.222656 184.777344 8.140625 184.328125 8.140625 C 182.734375 8.140625 182.203125 8.308594 181.109375 8.308594 C 180.015625 8.308594 179.121094 8.195312 178.113281 8.195312 C 177.664062 8.195312 177.1875 8.308594 177.1875 8.53125 C 177.1875 8.785156 177.386719 8.980469 177.945312 9.0625 C 179.738281 9.34375 180.4375 9.875 180.128906 11.191406 C 179.933594 12.058594 177.273438 20.878906 176.796875 22.085938 C 176.628906 22.503906 176.574219 22.644531 176.433594 22.644531 C 176.238281 22.644531 175.957031 22.28125 175.875 22.113281 L 169.460938 8.617188 C 169.320312 8.335938 169.042969 8.140625 168.734375 8.140625 C 167.78125 8.140625 166.632812 8 165.121094 8 C 164.925781 8 164.421875 8.027344 164.421875 8.390625 C 164.421875 8.699219 164.871094 8.867188 165.511719 8.925781 C 167.640625 9.0625 167.585938 10.015625 167.054688 11.695312 L 163.160156 23.765625 C 162.882812 24.660156 162.347656 25.359375 160.585938 25.753906 C 159.941406 25.890625 159.773438 26.003906 159.773438 26.257812 C 159.773438 26.480469 159.996094 26.5625 160.445312 26.5625 Z M 160.445312 26.5625 "/>
<path style=" stroke:none;fill-rule:evenodd;fill:rgb(0%,0%,0%);fill-opacity:1;" d="M 151.171875 32.085938 C 151.171875 32.5625 170.09375 54.402344 173.613281 58.804688 C 173.734375 58.964844 173.773438 59.085938 173.652344 59.242188 C 170.375 63.164062 150.535156 85.722656 150.535156 86.125 C 150.535156 86.523438 151.011719 86.722656 151.375 86.722656 C 153.292969 86.722656 153.851562 86.523438 155.851562 86.484375 C 157.292969 86.445312 170.972656 86.445312 172.652344 86.445312 C 174.933594 86.445312 185.535156 86.445312 188.09375 86.484375 C 189.214844 86.484375 190.09375 86.683594 191.292969 86.683594 C 191.691406 86.683594 191.773438 86.363281 191.851562 86.003906 C 192.054688 85.003906 193.453125 80.484375 194.171875 78.445312 C 194.171875 78.402344 194.214844 78.324219 194.214844 78.285156 C 194.214844 78.085938 194.054688 77.925781 193.851562 77.925781 C 193.332031 77.925781 192.972656 78.5625 192.613281 79.203125 C 191.492188 81.324219 190.132812 82.964844 187.851562 82.964844 C 184.375 82.964844 158.933594 83.125 156.535156 82.804688 C 156.09375 82.765625 155.933594 82.445312 156.214844 82.125 L 177.171875 57.804688 C 177.332031 57.605469 177.613281 57.324219 177.214844 56.925781 C 174.613281 54.085938 160.375 37.484375 157.613281 33.964844 C 157.535156 33.84375 157.453125 33.722656 157.453125 33.605469 C 157.453125 33.445312 157.613281 33.324219 158.214844 33.324219 C 160.894531 33.324219 183.574219 33.402344 185.972656 33.5625 C 187.253906 33.644531 188.734375 35.003906 189.453125 36.964844 C 189.652344 37.445312 189.734375 38.242188 190.332031 38.242188 C 190.652344 38.242188 190.734375 37.964844 190.734375 37.605469 C 190.734375 37.324219 190.691406 37.003906 190.652344 36.722656 C 190.492188 35.804688 189.933594 32.925781 189.691406 31.242188 C 189.613281 30.644531 189.292969 30.5625 189.09375 30.5625 C 188.894531 30.5625 188.492188 30.804688 188.09375 31.125 C 187.773438 31.363281 186.332031 31.445312 185.171875 31.445312 C 182.972656 31.484375 172.613281 31.484375 170.652344 31.484375 C 167.09375 31.484375 154.773438 31.445312 151.8125 31.363281 C 151.574219 31.363281 151.171875 31.5625 151.171875 32.085938 Z M 151.171875 32.085938 "/>
<path style=" stroke:none;fill-rule:evenodd;fill:rgb(0%,0%,0%);fill-opacity:1;" d="M 160.320312 94.195312 C 161.160156 94.195312 161.859375 93.441406 161.859375 92.601562 C 161.859375 92.011719 161.496094 91.394531 160.90625 91.394531 C 160.011719 91.394531 159.339844 92.207031 159.339844 93.105469 C 159.339844 93.664062 159.757812 94.195312 160.320312 94.195312 Z M 154.664062 108.953125 C 156.371094 108.953125 159.648438 105.984375 159.648438 104.808594 C 159.648438 104.722656 159.5625 104.667969 159.480469 104.667969 C 159.421875 104.667969 159.394531 104.695312 159.367188 104.722656 C 158.304688 105.789062 157.042969 107.105469 156.289062 107.105469 C 156.089844 107.105469 155.839844 107.046875 155.839844 106.769531 C 155.839844 106.542969 155.894531 106.265625 156.035156 105.957031 L 159.453125 97.863281 C 159.5625 97.585938 158.949219 96.773438 158.441406 96.996094 C 156.089844 98.058594 154.242188 99.683594 154.242188 100.160156 C 154.242188 100.355469 154.46875 100.441406 154.664062 100.300781 C 155.335938 99.796875 156.539062 99.234375 156.847656 99.234375 C 157.042969 99.234375 157.042969 99.402344 156.988281 99.570312 C 156.175781 101.617188 155.195312 104.472656 153.65625 107.550781 C 153.570312 107.71875 153.570312 107.859375 153.570312 108 C 153.570312 108.449219 154.019531 108.953125 154.664062 108.953125 Z M 154.664062 108.953125 "/>
<path style=" stroke:none;fill-rule:evenodd;fill:rgb(0%,0%,0%);fill-opacity:1;" d="M 164.15625 99.769531 L 175.914062 99.769531 C 176.363281 99.769531 176.8125 99.066406 176.8125 98.675781 C 176.8125 98.507812 176.585938 98.367188 176.417969 98.367188 L 164.433594 98.367188 C 163.929688 98.367188 163.761719 99.179688 163.761719 99.433594 C 163.761719 99.601562 163.960938 99.769531 164.15625 99.769531 Z M 164.15625 104.554688 L 175.914062 104.554688 C 176.363281 104.554688 176.8125 103.96875 176.8125 103.464844 C 176.8125 103.296875 176.585938 103.15625 176.417969 103.15625 L 164.433594 103.15625 C 163.929688 103.15625 163.761719 103.96875 163.761719 104.21875 C 163.761719 104.386719 163.960938 104.554688 164.15625 104.554688 Z M 164.15625 104.554688 "/>
<path style=" stroke:none;fill-rule:evenodd;fill:rgb(0%,0%,0%);fill-opacity:1;" d="M 181.152344 108.644531 C 182.664062 108.644531 183.839844 108.503906 185.351562 108.503906 C 186.835938 108.503906 187.871094 108.644531 189.46875 108.644531 C 189.691406 108.644531 189.859375 108.503906 189.859375 108.335938 C 189.859375 108.167969 189.605469 108.027344 189.382812 107.972656 C 187.085938 107.410156 186.414062 107.273438 186.414062 105.84375 L 186.414062 92.964844 C 186.414062 92.179688 186.441406 91.535156 186.527344 90.976562 C 186.554688 90.835938 186.359375 90.722656 186.191406 90.722656 C 186.136719 90.722656 186.078125 90.722656 186.050781 90.753906 C 184.792969 92.011719 183.53125 92.234375 181.851562 92.488281 C 181.460938 92.542969 181.152344 92.738281 181.152344 92.992188 C 181.152344 93.300781 181.515625 93.441406 181.878906 93.46875 C 183.082031 93.550781 184.230469 93.746094 184.230469 94.8125 L 184.230469 105.507812 C 184.230469 107.160156 183.28125 107.410156 181.152344 107.945312 C 180.925781 108 180.730469 108.167969 180.730469 108.308594 C 180.730469 108.476562 180.871094 108.644531 181.152344 108.644531 Z M 181.152344 108.644531 "/>
<path style=" stroke:none;fill-rule:evenodd;fill:rgb(0%,0%,0%);fill-opacity:1;" d="M 209.292969 77.042969 C 209.8125 77.042969 210.375 76.722656 210.375 76.164062 C 210.375 76.085938 209.8125 75.445312 209.773438 75.363281 C 207.332031 72.523438 204.734375 64.003906 204.734375 57.203125 C 204.734375 50.402344 207.453125 44.523438 209.894531 41.683594 C 209.972656 41.605469 210.414062 40.964844 210.414062 40.882812 C 210.414062 40.523438 209.8125 40.242188 209.535156 40.242188 C 209.132812 40.242188 208.691406 40.484375 208.453125 40.722656 C 205.613281 43.5625 201.414062 50.882812 201.414062 57.683594 C 201.414062 64.484375 205.773438 73.882812 208.613281 76.722656 C 208.8125 76.925781 209.054688 77.042969 209.292969 77.042969 Z M 209.292969 77.042969 "/>
<path style=" stroke:none;fill-rule:evenodd;fill:rgb(0%,0%,0%);fill-opacity:1;" d="M 214.332031 69.203125 C 215.292969 69.203125 216.171875 68.882812 217.292969 67.5625 C 218.613281 66.003906 219.894531 64.242188 221.171875 62.644531 C 221.492188 62.242188 221.652344 62.242188 221.8125 62.882812 L 222.691406 66.523438 C 223.171875 68.285156 223.734375 69.203125 225.214844 69.203125 C 227.535156 69.203125 229.375 65.402344 229.375 63.925781 C 229.375 63.125 229.214844 63.042969 229.011719 63.042969 C 228.8125 63.042969 228.652344 63.203125 228.492188 63.605469 C 227.691406 65.5625 226.613281 66.804688 225.851562 66.804688 C 225.574219 66.804688 225.214844 66.5625 225.011719 65.84375 L 223.652344 60.925781 C 223.453125 60.242188 223.535156 59.84375 223.734375 59.523438 C 224.734375 58.003906 225.613281 56.964844 226.375 56.085938 C 227.292969 54.964844 228.011719 54.402344 228.652344 54.402344 C 229.011719 54.402344 229.253906 54.605469 229.535156 55.324219 C 229.691406 55.722656 229.933594 56.003906 230.253906 56.003906 C 230.933594 56.003906 231.933594 54.402344 231.894531 53.804688 C 231.851562 53.164062 230.894531 52.085938 229.851562 52.085938 C 228.414062 52.085938 227.054688 53.324219 226.253906 54.445312 L 223.453125 58.445312 C 223.171875 58.804688 222.972656 58.765625 222.894531 58.363281 L 221.894531 54.125 C 221.535156 52.722656 221.054688 52.085938 220.214844 52.085938 C 218.453125 52.085938 215.933594 55.085938 215.933594 56.644531 C 215.933594 57.042969 216.011719 57.324219 216.214844 57.324219 C 216.574219 57.324219 216.773438 56.84375 216.894531 56.683594 C 217.894531 55.242188 218.734375 54.605469 219.132812 54.605469 C 219.453125 54.605469 219.574219 54.683594 219.734375 55.285156 L 221.253906 60.882812 C 221.332031 61.125 221.332031 61.402344 221.132812 61.605469 C 219.453125 63.523438 218.574219 64.683594 216.972656 66.324219 C 216.652344 66.644531 216.253906 66.84375 215.894531 66.804688 C 215.574219 66.804688 215.292969 66.523438 215.132812 65.882812 C 215.054688 65.523438 214.894531 65.164062 214.492188 65.164062 C 213.8125 65.164062 212.691406 66.765625 212.691406 67.683594 C 212.691406 68.722656 213.535156 69.203125 214.332031 69.203125 Z M 214.332031 69.203125 "/>
<path style=" stroke:none;fill-rule:evenodd;fill:rgb(0%,0%,0%);fill-opacity:1;" d="M 236.648438 67.078125 C 237.488281 67.078125 238.1875 66.324219 238.1875 65.484375 C 238.1875 64.894531 237.824219 64.28125 237.238281 64.28125 C 236.339844 64.28125 235.667969 65.09375 235.667969 65.988281 C 235.667969 66.546875 236.089844 67.078125 236.648438 67.078125 Z M 230.992188 81.835938 C 232.703125 81.835938 235.976562 78.867188 235.976562 77.691406 C 235.976562 77.609375 235.894531 77.550781 235.808594 77.550781 C 235.753906 77.550781 235.726562 77.578125 235.699219 77.609375 C 234.632812 78.671875 233.375 79.988281 232.617188 79.988281 C 232.421875 79.988281 232.167969 79.933594 232.167969 79.652344 C 232.167969 79.429688 232.226562 79.148438 232.367188 78.839844 L 235.78125 70.746094 C 235.894531 70.46875 235.277344 69.65625 234.773438 69.878906 C 232.421875 70.945312 230.574219 72.566406 230.574219 73.042969 C 230.574219 73.238281 230.796875 73.324219 230.992188 73.183594 C 231.664062 72.679688 232.871094 72.121094 233.175781 72.121094 C 233.375 72.121094 233.375 72.289062 233.316406 72.457031 C 232.503906 74.5 231.523438 77.355469 229.984375 80.4375 C 229.902344 80.605469 229.902344 80.742188 229.902344 80.882812 C 229.902344 81.332031 230.347656 81.835938 230.992188 81.835938 Z M 230.992188 81.835938 "/>
<path style=" stroke:none;fill-rule:evenodd;fill:rgb(0%,0%,0%);fill-opacity:1;" d="M 250.140625 59.765625 L 268.34375 59.765625 C 269.0625 59.765625 269.582031 58.722656 269.582031 57.84375 C 269.582031 57.605469 269.300781 57.363281 269.0625 57.363281 L 250.542969 57.363281 C 249.703125 57.363281 249.582031 58.925781 249.582031 59.285156 C 249.582031 59.523438 249.863281 59.765625 250.140625 59.765625 Z M 250.140625 59.765625 "/>
<path style=" stroke:none;fill-rule:evenodd;fill:rgb(0%,0%,0%);fill-opacity:1;" d="M 281.632812 80.042969 C 282.351562 80.042969 284.589844 78.242188 284.589844 77.402344 C 284.589844 77.125 284.191406 76.882812 283.75 76.363281 C 283.3125 75.765625 282.75 74.882812 282.75 73.285156 C 282.75 71.804688 283.511719 68.242188 283.910156 67.085938 C 284.191406 66.242188 284.550781 65.5625 284.832031 65.5625 C 285.109375 65.5625 285.230469 65.925781 285.351562 66.242188 C 285.871094 67.644531 286.511719 69.203125 288.070312 69.203125 C 290.070312 69.203125 293.152344 64.683594 293.632812 64.042969 L 293.710938 64.042969 C 293.429688 64.722656 293.152344 65.5625 293.109375 66.242188 C 293.03125 67.925781 293.632812 69.203125 295.230469 69.203125 C 297.070312 69.203125 299.351562 67.285156 300.511719 64.402344 C 300.589844 64.203125 300.390625 64.042969 300.191406 64.042969 C 299.871094 64.042969 297.992188 66.164062 296.511719 66.164062 C 294.710938 66.164062 294.03125 64.644531 294.511719 63.164062 C 296.109375 61.042969 299.3125 55.324219 299.832031 53.84375 C 300.03125 53.285156 298.710938 52.085938 297.671875 52.085938 C 297.351562 52.085938 297.03125 52.125 296.832031 52.5625 C 295.230469 56.085938 294.230469 58.644531 293.191406 61.605469 C 290.3125 65.402344 288.949219 66.5625 287.910156 66.5625 C 286.792969 66.5625 285.832031 65.683594 285.832031 64.445312 C 285.832031 64.003906 285.832031 63.363281 286.152344 62.644531 C 288.75 57.683594 290.75 54.925781 290.75 53.363281 C 290.75 52.882812 289.511719 52.085938 288.191406 52.085938 C 287.632812 52.085938 287.390625 52.445312 287.191406 53.042969 C 286.429688 55.363281 284.152344 63.644531 283.75 64.964844 C 283.351562 66.242188 282.550781 67.964844 282.3125 68.644531 C 281.390625 71.644531 280.03125 75.402344 280.03125 78.003906 C 280.03125 79.242188 280.792969 80.042969 281.632812 80.042969 Z M 281.632812 80.042969 "/>
<path style=" stroke:none;fill-rule:evenodd;fill:rgb(0%,0%,0%);fill-opacity:1;" d="M 305.109375 77.042969 C 305.351562 77.042969 305.589844 76.925781 305.792969 76.722656 C 308.632812 73.882812 312.992188 64.484375 312.992188 57.683594 C 312.992188 50.882812 308.792969 43.5625 305.949219 40.722656 C 305.710938 40.484375 305.269531 40.242188 304.871094 40.242188 C 304.589844 40.242188 303.992188 40.523438 303.992188 40.882812 C 303.992188 40.964844 304.429688 41.605469 304.511719 41.683594 C 306.949219 44.523438 309.671875 50.402344 309.671875 57.203125 C 309.671875 64.003906 307.070312 72.523438 304.632812 75.363281 C 304.589844 75.445312 304.03125 76.085938 304.03125 76.164062 C 304.03125 76.722656 304.589844 77.042969 305.109375 77.042969 Z M 305.109375 77.042969 "/>
<path style=" stroke:none;fill-rule:evenodd;fill:rgb(0%,0%,0%);fill-opacity:1;" d="M 328.304688 49.527344 C 328.5 49.527344 328.808594 49.445312 328.917969 48.855469 C 329.199219 47.457031 329.757812 46.308594 329.757812 46.027344 C 329.757812 45.886719 329.730469 45.691406 329.5625 45.691406 C 329.253906 45.691406 329.003906 46.113281 328.863281 46.335938 C 328.164062 47.457031 327.800781 47.566406 326.203125 47.652344 C 325.195312 47.707031 324.074219 47.734375 323.011719 47.734375 C 321.976562 47.734375 321.164062 47.707031 320.546875 47.652344 C 320.324219 47.625 320.15625 47.597656 320.15625 47.457031 C 320.15625 47.316406 324.773438 42.835938 326.035156 41.324219 C 327.210938 39.894531 328.078125 37.9375 328.078125 36.425781 C 328.078125 33.707031 326.398438 31.804688 323.597656 31.804688 C 320.433594 31.804688 318.140625 34.546875 318.140625 35.414062 C 318.140625 35.921875 318.417969 36.257812 318.558594 36.257812 C 318.726562 36.257812 318.921875 36.089844 319.035156 35.863281 C 319.820312 34.519531 321.191406 33.597656 322.730469 33.597656 C 324.328125 33.597656 325.726562 34.800781 325.726562 36.789062 C 325.726562 39.253906 324.355469 41.773438 322.480469 43.703125 L 317.691406 48.660156 C 317.523438 48.828125 317.46875 48.855469 317.46875 49.023438 C 317.46875 49.191406 317.886719 49.5 318.027344 49.5 C 318.585938 49.5 323.125 49.359375 324.523438 49.359375 C 325.921875 49.359375 327.742188 49.527344 328.304688 49.527344 Z M 328.304688 49.527344 "/>
</g>
</svg>
