<?xml version="1.0" encoding="UTF-8"?>
<svg xmlns="http://www.w3.org/2000/svg" xmlns:xlink="http://www.w3.org/1999/xlink" width="132.27325pt" height="45.952002pt" viewBox="0 0 132.27325 45.952002" version="1.1">
<g id="surface1">
<path style=" stroke:none;fill-rule:evenodd;fill:rgb(0%,0%,0%);fill-opacity:1;" d="M 2 27.679688 C 4.222656 27.679688 5.710938 24.480469 5.710938 22.992188 C 5.710938 22.816406 5.488281 22.355469 5.441406 22.175781 C 5.40625 22.050781 5.441406 21.953125 5.550781 21.953125 C 5.664062 21.953125 7.246094 22 7.472656 22 C 7.808594 22 8.382812 20.816406 8.382812 20.59375 C 8.382812 20.511719 8.238281 20.433594 8.144531 20.433594 C 8.097656 20.433594 8.015625 20.5625 7.886719 20.691406 C 7.777344 20.785156 7.617188 20.898438 7.441406 20.898438 C 6.609375 20.898438 4.816406 20.832031 4.144531 20.832031 C 2.191406 20.832031 0.574219 23.875 0.574219 25.875 C 0.574219 26.65625 1.390625 27.679688 2 27.679688 Z M 2.046875 26.464844 C 1.566406 26.464844 1.136719 25.9375 1.121094 25.472656 C 1.105469 24.175781 2.496094 22 4.496094 22 C 4.945312 22 5.105469 22.128906 5.105469 22.578125 C 5.105469 24.097656 3.375 26.464844 2.046875 26.464844 Z M 2.046875 26.464844 "/>
<path style=" stroke:none;fill-rule:evenodd;fill:rgb(0%,0%,0%);fill-opacity:1;" d="M 14.789062 22.433594 L 21.507812 22.433594 C 21.765625 22.433594 22.019531 22.035156 22.019531 21.808594 C 22.019531 21.714844 21.894531 21.632812 21.796875 21.632812 L 14.949219 21.632812 C 14.660156 21.632812 14.566406 22.097656 14.566406 22.242188 C 14.566406 22.335938 14.675781 22.433594 14.789062 22.433594 Z M 14.789062 25.167969 L 21.507812 25.167969 C 21.765625 25.167969 22.019531 24.832031 22.019531 24.546875 C 22.019531 24.449219 21.894531 24.371094 21.796875 24.371094 L 14.949219 24.371094 C 14.660156 24.371094 14.566406 24.832031 14.566406 24.976562 C 14.566406 25.074219 14.675781 25.167969 14.789062 25.167969 Z M 14.789062 25.167969 "/>
<path style=" stroke:none;fill-rule:evenodd;fill:rgb(0%,0%,0%);fill-opacity:1;" d="M 39.402344 0.800781 C 39.722656 0.800781 39.914062 0.527344 39.914062 0.207031 C 39.914062 0.113281 39.769531 0 39.644531 0 L 38.875 0 C 38.554688 0 38.378906 0.128906 38.347656 0.449219 L 33.355469 41.472656 C 33.339844 41.585938 33.339844 41.585938 33.324219 41.472656 L 31.226562 25.566406 C 31.179688 25.246094 31.003906 25.089844 30.683594 25.089844 L 29.128906 25.089844 C 28.859375 25.089844 28.714844 25.359375 28.714844 25.617188 C 28.714844 25.710938 28.828125 25.792969 28.9375 25.792969 L 29.609375 25.792969 C 29.722656 25.792969 29.785156 25.839844 29.800781 25.953125 L 32.316406 45.214844 C 32.378906 45.695312 32.875 45.953125 33.339844 45.953125 C 33.5 45.953125 33.675781 45.761719 33.691406 45.566406 L 39.113281 0.960938 C 39.128906 0.847656 39.179688 0.800781 39.289062 0.800781 Z M 39.402344 0.800781 "/>
<path style=" stroke:none;fill-rule:nonzero;fill:rgb(0%,0%,0%);fill-opacity:1;" d="M 39.339844 0 L 132.273438 0 L 132.273438 0.800781 L 39.339844 0.800781 Z M 39.339844 0 "/>
<path style=" stroke:none;fill-rule:evenodd;fill:rgb(0%,0%,0%);fill-opacity:1;" d="M 45.570312 17.363281 C 46.433594 17.363281 47.105469 17.28125 47.96875 17.28125 C 48.820312 17.28125 49.410156 17.363281 50.324219 17.363281 C 50.449219 17.363281 50.546875 17.28125 50.546875 17.1875 C 50.546875 17.089844 50.402344 17.007812 50.273438 16.976562 C 48.960938 16.65625 48.578125 16.578125 48.578125 15.761719 L 48.578125 8.402344 C 48.578125 7.953125 48.59375 7.585938 48.644531 7.265625 C 48.660156 7.1875 48.546875 7.121094 48.449219 7.121094 C 48.417969 7.121094 48.386719 7.121094 48.371094 7.136719 C 47.652344 7.859375 46.929688 7.984375 45.96875 8.128906 C 45.746094 8.160156 45.570312 8.273438 45.570312 8.417969 C 45.570312 8.59375 45.777344 8.671875 45.988281 8.691406 C 46.675781 8.738281 47.332031 8.847656 47.332031 9.457031 L 47.332031 15.570312 C 47.332031 16.511719 46.785156 16.65625 45.570312 16.960938 C 45.441406 16.992188 45.332031 17.089844 45.332031 17.167969 C 45.332031 17.265625 45.410156 17.363281 45.570312 17.363281 Z M 45.570312 17.363281 "/>
<path style=" stroke:none;fill-rule:nonzero;fill:rgb(0%,0%,0%);fill-opacity:1;" d="M 40.9375 23.058594 L 54.664062 23.058594 L 54.664062 23.859375 L 40.9375 23.859375 Z M 40.9375 23.058594 "/>
<path style=" stroke:none;fill-rule:evenodd;fill:rgb(0%,0%,0%);fill-opacity:1;" d="M 40.988281 37.105469 C 41.785156 37.105469 42.042969 37.027344 42.699219 37.027344 C 43.242188 37.027344 43.484375 37.105469 44.28125 37.105469 C 44.539062 37.105469 44.761719 37.058594 44.761719 36.929688 C 44.761719 36.785156 44.617188 36.722656 44.296875 36.65625 C 43.484375 36.496094 43.164062 36.097656 43.308594 35.488281 C 43.867188 33.167969 44.714844 30.53125 45.148438 28.945312 C 45.242188 28.59375 45.417969 28.402344 45.53125 28.402344 C 45.644531 28.402344 45.785156 28.546875 45.914062 28.785156 C 47.164062 31.121094 48.394531 34.273438 49.546875 36.691406 C 49.707031 37.027344 49.882812 37.105469 50.21875 37.105469 C 50.492188 37.105469 50.859375 37.027344 51.449219 37.027344 C 51.515625 37.027344 51.578125 37.027344 51.578125 36.929688 C 51.578125 36.722656 51.449219 36.625 51.273438 36.496094 C 51.097656 36.371094 50.875 36.273438 50.746094 35.96875 C 50.632812 35.714844 50.585938 35.554688 50.683594 35.21875 C 50.890625 34.496094 52.921875 28.53125 53.082031 28.144531 C 53.433594 27.3125 53.59375 27.136719 54.410156 27.074219 C 54.777344 27.042969 55.003906 26.898438 55.003906 26.753906 C 55.003906 26.625 54.890625 26.578125 54.632812 26.578125 C 53.722656 26.578125 53.417969 26.671875 52.792969 26.671875 C 52.171875 26.671875 51.660156 26.609375 51.082031 26.609375 C 50.828125 26.609375 50.554688 26.671875 50.554688 26.800781 C 50.554688 26.945312 50.667969 27.058594 50.988281 27.105469 C 52.011719 27.265625 52.410156 27.570312 52.234375 28.320312 C 52.121094 28.816406 50.601562 33.859375 50.332031 34.546875 C 50.234375 34.785156 50.203125 34.867188 50.121094 34.867188 C 50.011719 34.867188 49.851562 34.65625 49.800781 34.5625 L 46.136719 26.847656 C 46.058594 26.691406 45.898438 26.578125 45.722656 26.578125 C 45.179688 26.578125 44.523438 26.496094 43.660156 26.496094 C 43.546875 26.496094 43.257812 26.511719 43.257812 26.722656 C 43.257812 26.898438 43.515625 26.992188 43.882812 27.027344 C 45.097656 27.105469 45.066406 27.648438 44.761719 28.609375 L 42.539062 35.503906 C 42.378906 36.019531 42.074219 36.417969 41.066406 36.640625 C 40.699219 36.722656 40.601562 36.785156 40.601562 36.929688 C 40.601562 37.058594 40.730469 37.105469 40.988281 37.105469 Z M 40.988281 37.105469 "/>
<path style=" stroke:none;fill-rule:evenodd;fill:rgb(0%,0%,0%);fill-opacity:1;" d="M 64.179688 10.625 C 64.738281 10.625 64.917969 10.570312 65.375 10.570312 C 65.757812 10.570312 65.925781 10.625 66.484375 10.625 C 66.664062 10.625 66.820312 10.59375 66.820312 10.503906 C 66.820312 10.402344 66.71875 10.355469 66.496094 10.3125 C 65.925781 10.199219 65.703125 9.921875 65.800781 9.496094 C 66.195312 7.871094 66.789062 6.023438 67.089844 4.914062 C 67.15625 4.667969 67.28125 4.53125 67.359375 4.53125 C 67.4375 4.53125 67.539062 4.632812 67.628906 4.800781 C 68.5 6.4375 69.363281 8.644531 70.171875 10.335938 C 70.28125 10.570312 70.40625 10.625 70.640625 10.625 C 70.832031 10.625 71.089844 10.570312 71.503906 10.570312 C 71.546875 10.570312 71.59375 10.570312 71.59375 10.503906 C 71.59375 10.355469 71.503906 10.289062 71.378906 10.199219 C 71.257812 10.109375 71.101562 10.042969 71.011719 9.832031 C 70.933594 9.652344 70.898438 9.539062 70.964844 9.304688 C 71.109375 8.800781 72.535156 4.621094 72.644531 4.355469 C 72.890625 3.769531 73.003906 3.648438 73.574219 3.601562 C 73.832031 3.582031 73.988281 3.480469 73.988281 3.378906 C 73.988281 3.289062 73.910156 3.257812 73.730469 3.257812 C 73.09375 3.257812 72.878906 3.324219 72.445312 3.324219 C 72.007812 3.324219 71.648438 3.277344 71.246094 3.277344 C 71.066406 3.277344 70.875 3.324219 70.875 3.414062 C 70.875 3.511719 70.953125 3.59375 71.179688 3.625 C 71.894531 3.738281 72.175781 3.949219 72.050781 4.476562 C 71.972656 4.824219 70.910156 8.351562 70.71875 8.832031 C 70.652344 9 70.628906 9.058594 70.574219 9.058594 C 70.496094 9.058594 70.382812 8.910156 70.347656 8.84375 L 67.785156 3.445312 C 67.730469 3.335938 67.617188 3.257812 67.492188 3.257812 C 67.113281 3.257812 66.652344 3.199219 66.046875 3.199219 C 65.96875 3.199219 65.769531 3.210938 65.769531 3.355469 C 65.769531 3.480469 65.949219 3.546875 66.207031 3.570312 C 67.054688 3.625 67.035156 4.007812 66.820312 4.679688 L 65.265625 9.503906 C 65.152344 9.863281 64.941406 10.144531 64.234375 10.300781 C 63.976562 10.355469 63.910156 10.402344 63.910156 10.503906 C 63.910156 10.59375 64 10.625 64.179688 10.625 Z M 64.179688 10.625 "/>
<path style=" stroke:none;fill-rule:evenodd;fill:rgb(0%,0%,0%);fill-opacity:1;" d="M 60.46875 12.832031 C 60.46875 13.027344 68.039062 21.761719 69.445312 23.523438 C 69.492188 23.585938 69.507812 23.632812 69.460938 23.699219 C 68.148438 25.265625 60.214844 34.289062 60.214844 34.449219 C 60.214844 34.609375 60.40625 34.691406 60.550781 34.691406 C 61.316406 34.691406 61.542969 34.609375 62.339844 34.59375 C 62.917969 34.578125 68.390625 34.578125 69.0625 34.578125 C 69.972656 34.578125 74.214844 34.578125 75.238281 34.59375 C 75.683594 34.59375 76.039062 34.671875 76.515625 34.671875 C 76.675781 34.671875 76.710938 34.546875 76.742188 34.402344 C 76.820312 34 77.382812 32.195312 77.667969 31.378906 C 77.667969 31.363281 77.683594 31.328125 77.683594 31.3125 C 77.683594 31.234375 77.621094 31.167969 77.542969 31.167969 C 77.332031 31.167969 77.1875 31.425781 77.046875 31.679688 C 76.597656 32.53125 76.054688 33.1875 75.140625 33.1875 C 73.75 33.1875 63.574219 33.25 62.613281 33.121094 C 62.4375 33.105469 62.375 32.976562 62.484375 32.847656 L 70.871094 23.121094 C 70.933594 23.042969 71.046875 22.929688 70.886719 22.769531 C 69.84375 21.632812 64.148438 14.992188 63.046875 13.585938 C 63.011719 13.539062 62.980469 13.488281 62.980469 13.441406 C 62.980469 13.378906 63.046875 13.328125 63.285156 13.328125 C 64.355469 13.328125 73.429688 13.363281 74.390625 13.425781 C 74.902344 13.457031 75.492188 14 75.78125 14.785156 C 75.863281 14.976562 75.894531 15.296875 76.132812 15.296875 C 76.261719 15.296875 76.292969 15.1875 76.292969 15.042969 C 76.292969 14.929688 76.277344 14.800781 76.261719 14.691406 C 76.199219 14.320312 75.972656 13.167969 75.878906 12.496094 C 75.84375 12.257812 75.71875 12.226562 75.636719 12.226562 C 75.558594 12.226562 75.398438 12.320312 75.238281 12.449219 C 75.109375 12.546875 74.535156 12.578125 74.070312 12.578125 C 73.1875 12.59375 69.046875 12.59375 68.261719 12.59375 C 66.835938 12.59375 61.910156 12.578125 60.726562 12.546875 C 60.628906 12.546875 60.46875 12.625 60.46875 12.832031 Z M 60.46875 12.832031 "/>
<path style=" stroke:none;fill-rule:evenodd;fill:rgb(0%,0%,0%);fill-opacity:1;" d="M 64.128906 37.679688 C 64.464844 37.679688 64.742188 37.375 64.742188 37.039062 C 64.742188 36.804688 64.597656 36.558594 64.363281 36.558594 C 64.003906 36.558594 63.734375 36.882812 63.734375 37.242188 C 63.734375 37.464844 63.902344 37.679688 64.128906 37.679688 Z M 61.867188 43.582031 C 62.546875 43.582031 63.859375 42.394531 63.859375 41.921875 C 63.859375 41.890625 63.824219 41.867188 63.792969 41.867188 C 63.769531 41.867188 63.757812 41.878906 63.746094 41.890625 C 63.320312 42.316406 62.816406 42.839844 62.515625 42.839844 C 62.4375 42.839844 62.335938 42.820312 62.335938 42.707031 C 62.335938 42.617188 62.359375 42.503906 62.414062 42.382812 L 63.78125 39.144531 C 63.824219 39.035156 63.578125 38.707031 63.378906 38.796875 C 62.4375 39.222656 61.699219 39.875 61.699219 40.0625 C 61.699219 40.140625 61.785156 40.175781 61.867188 40.121094 C 62.132812 39.917969 62.617188 39.695312 62.738281 39.695312 C 62.816406 39.695312 62.816406 39.761719 62.796875 39.828125 C 62.46875 40.644531 62.078125 41.789062 61.460938 43.019531 C 61.429688 43.089844 61.429688 43.144531 61.429688 43.199219 C 61.429688 43.378906 61.609375 43.582031 61.867188 43.582031 Z M 61.867188 43.582031 "/>
<path style=" stroke:none;fill-rule:evenodd;fill:rgb(0%,0%,0%);fill-opacity:1;" d="M 65.664062 39.90625 L 70.367188 39.90625 C 70.546875 39.90625 70.722656 39.628906 70.722656 39.46875 C 70.722656 39.402344 70.636719 39.347656 70.566406 39.347656 L 65.773438 39.347656 C 65.574219 39.347656 65.503906 39.671875 65.503906 39.773438 C 65.503906 39.839844 65.582031 39.90625 65.664062 39.90625 Z M 65.664062 41.824219 L 70.367188 41.824219 C 70.546875 41.824219 70.722656 41.585938 70.722656 41.386719 C 70.722656 41.320312 70.636719 41.261719 70.566406 41.261719 L 65.773438 41.261719 C 65.574219 41.261719 65.503906 41.585938 65.503906 41.6875 C 65.503906 41.753906 65.582031 41.824219 65.664062 41.824219 Z M 65.664062 41.824219 "/>
<path style=" stroke:none;fill-rule:evenodd;fill:rgb(0%,0%,0%);fill-opacity:1;" d="M 72.460938 43.457031 C 73.066406 43.457031 73.535156 43.402344 74.140625 43.402344 C 74.734375 43.402344 75.148438 43.457031 75.785156 43.457031 C 75.875 43.457031 75.945312 43.402344 75.945312 43.335938 C 75.945312 43.265625 75.84375 43.210938 75.753906 43.1875 C 74.835938 42.964844 74.566406 42.910156 74.566406 42.335938 L 74.566406 37.1875 C 74.566406 36.871094 74.578125 36.613281 74.609375 36.390625 C 74.621094 36.335938 74.542969 36.289062 74.476562 36.289062 C 74.453125 36.289062 74.433594 36.289062 74.421875 36.300781 C 73.917969 36.804688 73.414062 36.894531 72.742188 36.996094 C 72.582031 37.019531 72.460938 37.097656 72.460938 37.195312 C 72.460938 37.320312 72.605469 37.375 72.75 37.386719 C 73.234375 37.421875 73.691406 37.5 73.691406 37.925781 L 73.691406 42.203125 C 73.691406 42.863281 73.3125 42.964844 72.460938 43.175781 C 72.371094 43.199219 72.292969 43.265625 72.292969 43.324219 C 72.292969 43.390625 72.347656 43.457031 72.460938 43.457031 Z M 72.460938 43.457031 "/>
<path style=" stroke:none;fill-rule:evenodd;fill:rgb(0%,0%,0%);fill-opacity:1;" d="M 83.71875 30.816406 C 83.925781 30.816406 84.148438 30.691406 84.148438 30.464844 C 84.148438 30.433594 83.925781 30.175781 83.910156 30.144531 C 82.933594 29.007812 81.894531 25.601562 81.894531 22.882812 C 81.894531 20.160156 82.980469 17.808594 83.957031 16.671875 C 83.988281 16.640625 84.164062 16.386719 84.164062 16.355469 C 84.164062 16.210938 83.925781 16.097656 83.8125 16.097656 C 83.652344 16.097656 83.476562 16.195312 83.382812 16.289062 C 82.246094 17.425781 80.566406 20.355469 80.566406 23.074219 C 80.566406 25.792969 82.308594 29.554688 83.445312 30.691406 C 83.523438 30.769531 83.621094 30.816406 83.71875 30.816406 Z M 83.71875 30.816406 "/>
<path style=" stroke:none;fill-rule:evenodd;fill:rgb(0%,0%,0%);fill-opacity:1;" d="M 85.734375 27.679688 C 86.117188 27.679688 86.46875 27.554688 86.917969 27.027344 C 87.445312 26.402344 87.957031 25.699219 88.46875 25.058594 C 88.597656 24.898438 88.660156 24.898438 88.726562 25.152344 L 89.078125 26.609375 C 89.269531 27.3125 89.492188 27.679688 90.085938 27.679688 C 91.011719 27.679688 91.75 26.160156 91.75 25.570312 C 91.75 25.25 91.683594 25.21875 91.605469 25.21875 C 91.523438 25.21875 91.460938 25.28125 91.398438 25.441406 C 91.078125 26.226562 90.644531 26.722656 90.339844 26.722656 C 90.230469 26.722656 90.085938 26.625 90.003906 26.335938 L 89.460938 24.371094 C 89.382812 24.097656 89.414062 23.9375 89.492188 23.808594 C 89.894531 23.203125 90.246094 22.785156 90.550781 22.433594 C 90.917969 21.984375 91.207031 21.761719 91.460938 21.761719 C 91.605469 21.761719 91.703125 21.839844 91.8125 22.128906 C 91.878906 22.289062 91.972656 22.402344 92.101562 22.402344 C 92.375 22.402344 92.773438 21.761719 92.757812 21.523438 C 92.742188 21.265625 92.355469 20.832031 91.941406 20.832031 C 91.367188 20.832031 90.820312 21.328125 90.5 21.777344 L 89.382812 23.378906 C 89.269531 23.523438 89.1875 23.503906 89.15625 23.34375 L 88.757812 21.648438 C 88.613281 21.089844 88.421875 20.832031 88.085938 20.832031 C 87.382812 20.832031 86.375 22.035156 86.375 22.65625 C 86.375 22.816406 86.40625 22.929688 86.484375 22.929688 C 86.628906 22.929688 86.710938 22.738281 86.757812 22.671875 C 87.15625 22.097656 87.492188 21.839844 87.652344 21.839844 C 87.78125 21.839844 87.828125 21.875 87.894531 22.113281 L 88.5 24.355469 C 88.535156 24.449219 88.535156 24.5625 88.453125 24.640625 C 87.78125 25.410156 87.429688 25.875 86.789062 26.53125 C 86.660156 26.65625 86.5 26.738281 86.355469 26.722656 C 86.230469 26.722656 86.117188 26.609375 86.054688 26.355469 C 86.019531 26.210938 85.957031 26.066406 85.796875 26.066406 C 85.523438 26.066406 85.078125 26.707031 85.078125 27.074219 C 85.078125 27.488281 85.414062 27.679688 85.734375 27.679688 Z M 85.734375 27.679688 "/>
<path style=" stroke:none;fill-rule:evenodd;fill:rgb(0%,0%,0%);fill-opacity:1;" d="M 94.660156 26.832031 C 94.996094 26.832031 95.277344 26.53125 95.277344 26.195312 C 95.277344 25.957031 95.128906 25.710938 94.894531 25.710938 C 94.535156 25.710938 94.269531 26.035156 94.269531 26.394531 C 94.269531 26.621094 94.4375 26.832031 94.660156 26.832031 Z M 92.398438 32.734375 C 93.082031 32.734375 94.390625 31.546875 94.390625 31.078125 C 94.390625 31.042969 94.355469 31.019531 94.324219 31.019531 C 94.300781 31.019531 94.289062 31.03125 94.277344 31.042969 C 93.851562 31.46875 93.347656 31.996094 93.046875 31.996094 C 92.96875 31.996094 92.867188 31.972656 92.867188 31.859375 C 92.867188 31.769531 92.890625 31.660156 92.945312 31.535156 L 94.3125 28.300781 C 94.355469 28.1875 94.109375 27.863281 93.910156 27.953125 C 92.96875 28.378906 92.230469 29.027344 92.230469 29.21875 C 92.230469 29.296875 92.320312 29.328125 92.398438 29.273438 C 92.667969 29.070312 93.148438 28.847656 93.269531 28.847656 C 93.347656 28.847656 93.347656 28.914062 93.328125 28.980469 C 93.003906 29.800781 92.609375 30.941406 91.992188 32.175781 C 91.960938 32.242188 91.960938 32.296875 91.960938 32.355469 C 91.960938 32.53125 92.140625 32.734375 92.398438 32.734375 Z M 92.398438 32.734375 "/>
<path style=" stroke:none;fill-rule:evenodd;fill:rgb(0%,0%,0%);fill-opacity:1;" d="M 100.058594 23.90625 L 107.335938 23.90625 C 107.625 23.90625 107.832031 23.488281 107.832031 23.136719 C 107.832031 23.042969 107.722656 22.945312 107.625 22.945312 L 100.21875 22.945312 C 99.882812 22.945312 99.832031 23.570312 99.832031 23.714844 C 99.832031 23.808594 99.945312 23.90625 100.058594 23.90625 Z M 100.058594 23.90625 "/>
<path style=" stroke:none;fill-rule:evenodd;fill:rgb(0%,0%,0%);fill-opacity:1;" d="M 112.652344 32.019531 C 112.941406 32.019531 113.835938 31.296875 113.835938 30.960938 C 113.835938 30.847656 113.675781 30.753906 113.5 30.546875 C 113.324219 30.304688 113.101562 29.953125 113.101562 29.3125 C 113.101562 28.722656 113.40625 27.296875 113.5625 26.832031 C 113.675781 26.496094 113.820312 26.226562 113.933594 26.226562 C 114.042969 26.226562 114.09375 26.371094 114.140625 26.496094 C 114.347656 27.058594 114.605469 27.679688 115.226562 27.679688 C 116.027344 27.679688 117.261719 25.875 117.453125 25.617188 L 117.484375 25.617188 C 117.371094 25.890625 117.261719 26.226562 117.246094 26.496094 C 117.210938 27.167969 117.453125 27.679688 118.09375 27.679688 C 118.828125 27.679688 119.742188 26.914062 120.203125 25.761719 C 120.238281 25.679688 120.15625 25.617188 120.078125 25.617188 C 119.949219 25.617188 119.195312 26.464844 118.605469 26.464844 C 117.882812 26.464844 117.613281 25.859375 117.804688 25.265625 C 118.445312 24.417969 119.722656 22.128906 119.933594 21.539062 C 120.011719 21.3125 119.484375 20.832031 119.070312 20.832031 C 118.941406 20.832031 118.8125 20.847656 118.734375 21.027344 C 118.09375 22.433594 117.691406 23.457031 117.277344 24.640625 C 116.125 26.160156 115.582031 26.625 115.164062 26.625 C 114.714844 26.625 114.332031 26.273438 114.332031 25.777344 C 114.332031 25.601562 114.332031 25.34375 114.460938 25.058594 C 115.5 23.074219 116.300781 21.96875 116.300781 21.34375 C 116.300781 21.152344 115.804688 20.832031 115.277344 20.832031 C 115.050781 20.832031 114.957031 20.976562 114.875 21.21875 C 114.574219 22.144531 113.660156 25.457031 113.5 25.984375 C 113.339844 26.496094 113.019531 27.1875 112.925781 27.457031 C 112.554688 28.65625 112.011719 30.160156 112.011719 31.203125 C 112.011719 31.699219 112.316406 32.019531 112.652344 32.019531 Z M 112.652344 32.019531 "/>
<path style=" stroke:none;fill-rule:evenodd;fill:rgb(0%,0%,0%);fill-opacity:1;" d="M 122.042969 30.816406 C 122.140625 30.816406 122.238281 30.769531 122.316406 30.691406 C 123.453125 29.554688 125.195312 25.792969 125.195312 23.074219 C 125.195312 20.355469 123.515625 17.425781 122.378906 16.289062 C 122.285156 16.195312 122.109375 16.097656 121.949219 16.097656 C 121.835938 16.097656 121.597656 16.210938 121.597656 16.355469 C 121.597656 16.386719 121.773438 16.640625 121.804688 16.671875 C 122.78125 17.808594 123.867188 20.160156 123.867188 22.882812 C 123.867188 25.601562 122.828125 29.007812 121.851562 30.144531 C 121.835938 30.175781 121.613281 30.433594 121.613281 30.464844 C 121.613281 30.691406 121.835938 30.816406 122.042969 30.816406 Z M 122.042969 30.816406 "/>
<path style=" stroke:none;fill-rule:evenodd;fill:rgb(0%,0%,0%);fill-opacity:1;" d="M 131.320312 19.8125 C 131.398438 19.8125 131.523438 19.777344 131.566406 19.542969 C 131.679688 18.980469 131.902344 18.523438 131.902344 18.410156 C 131.902344 18.355469 131.890625 18.277344 131.824219 18.277344 C 131.703125 18.277344 131.601562 18.445312 131.546875 18.535156 C 131.265625 18.980469 131.121094 19.027344 130.480469 19.0625 C 130.078125 19.082031 129.628906 19.09375 129.203125 19.09375 C 128.789062 19.09375 128.464844 19.082031 128.21875 19.0625 C 128.128906 19.050781 128.0625 19.039062 128.0625 18.980469 C 128.0625 18.925781 129.910156 17.132812 130.414062 16.53125 C 130.882812 15.957031 131.230469 15.175781 131.230469 14.570312 C 131.230469 13.484375 130.558594 12.722656 129.441406 12.722656 C 128.175781 12.722656 127.253906 13.820312 127.253906 14.167969 C 127.253906 14.367188 127.367188 14.503906 127.421875 14.503906 C 127.492188 14.503906 127.570312 14.433594 127.613281 14.34375 C 127.925781 13.808594 128.476562 13.4375 129.09375 13.4375 C 129.730469 13.4375 130.289062 13.921875 130.289062 14.714844 C 130.289062 15.699219 129.742188 16.707031 128.992188 17.480469 L 127.078125 19.464844 C 127.007812 19.53125 126.988281 19.542969 126.988281 19.609375 C 126.988281 19.675781 127.15625 19.800781 127.210938 19.800781 C 127.433594 19.800781 129.25 19.742188 129.808594 19.742188 C 130.371094 19.742188 131.097656 19.8125 131.320312 19.8125 Z M 131.320312 19.8125 "/>
</g>
</svg>
