<?xml version="1.0" encoding="UTF-8"?>
<svg xmlns="http://www.w3.org/2000/svg" xmlns:xlink="http://www.w3.org/1999/xlink" width="124.509693pt" height="37.856002pt" viewBox="0 0 124.509693 37.856002" version="1.1">
<g id="surface1">
<path style=" stroke:none;fill-rule:evenodd;fill:rgb(0%,0%,0%);fill-opacity:1;" d="M 0.769531 28.289062 C 1.152344 28.289062 1.503906 28.160156 1.953125 27.632812 C 2.480469 27.007812 2.992188 26.304688 3.503906 25.664062 C 3.632812 25.503906 3.695312 25.503906 3.761719 25.761719 L 4.113281 27.214844 C 4.304688 27.921875 4.527344 28.289062 5.121094 28.289062 C 6.046875 28.289062 6.785156 26.769531 6.785156 26.175781 C 6.785156 25.855469 6.71875 25.824219 6.640625 25.824219 C 6.558594 25.824219 6.496094 25.886719 6.433594 26.046875 C 6.113281 26.832031 5.679688 27.328125 5.375 27.328125 C 5.265625 27.328125 5.121094 27.230469 5.039062 26.945312 L 4.496094 24.976562 C 4.414062 24.703125 4.449219 24.542969 4.527344 24.414062 C 4.929688 23.808594 5.28125 23.390625 5.585938 23.039062 C 5.953125 22.59375 6.238281 22.367188 6.496094 22.367188 C 6.640625 22.367188 6.734375 22.449219 6.847656 22.734375 C 6.910156 22.894531 7.007812 23.007812 7.136719 23.007812 C 7.40625 23.007812 7.808594 22.367188 7.792969 22.128906 C 7.777344 21.871094 7.390625 21.441406 6.976562 21.441406 C 6.398438 21.441406 5.855469 21.9375 5.535156 22.382812 L 4.414062 23.984375 C 4.304688 24.128906 4.222656 24.113281 4.191406 23.953125 L 3.792969 22.257812 C 3.648438 21.695312 3.457031 21.441406 3.121094 21.441406 C 2.414062 21.441406 1.40625 22.640625 1.40625 23.265625 C 1.40625 23.425781 1.441406 23.535156 1.519531 23.535156 C 1.664062 23.535156 1.742188 23.34375 1.792969 23.28125 C 2.191406 22.703125 2.527344 22.449219 2.6875 22.449219 C 2.816406 22.449219 2.863281 22.480469 2.929688 22.71875 L 3.535156 24.960938 C 3.566406 25.054688 3.566406 25.167969 3.488281 25.246094 C 2.816406 26.015625 2.464844 26.480469 1.824219 27.136719 C 1.695312 27.265625 1.535156 27.34375 1.390625 27.328125 C 1.265625 27.328125 1.152344 27.214844 1.089844 26.960938 C 1.054688 26.816406 0.992188 26.671875 0.832031 26.671875 C 0.558594 26.671875 0.113281 27.3125 0.113281 27.679688 C 0.113281 28.097656 0.449219 28.289062 0.769531 28.289062 Z M 0.769531 28.289062 "/>
<path style=" stroke:none;fill-rule:evenodd;fill:rgb(0%,0%,0%);fill-opacity:1;" d="M 14.324219 23.039062 L 21.046875 23.039062 C 21.300781 23.039062 21.558594 22.640625 21.558594 22.414062 C 21.558594 22.320312 21.429688 22.238281 21.332031 22.238281 L 14.484375 22.238281 C 14.199219 22.238281 14.101562 22.703125 14.101562 22.847656 C 14.101562 22.945312 14.214844 23.039062 14.324219 23.039062 Z M 14.324219 25.777344 L 21.046875 25.777344 C 21.300781 25.777344 21.558594 25.441406 21.558594 25.152344 C 21.558594 25.054688 21.429688 24.976562 21.332031 24.976562 L 14.484375 24.976562 C 14.199219 24.976562 14.101562 25.441406 14.101562 25.585938 C 14.101562 25.679688 14.214844 25.777344 14.324219 25.777344 Z M 14.324219 25.777344 "/>
<path style=" stroke:none;fill-rule:evenodd;fill:rgb(0%,0%,0%);fill-opacity:1;" d="M 30.316406 14.367188 L 37.59375 14.367188 C 37.882812 14.367188 38.089844 13.953125 38.089844 13.601562 C 38.089844 13.503906 37.980469 13.40625 37.882812 13.40625 L 30.476562 13.40625 C 30.136719 13.40625 30.089844 14.03125 30.089844 14.175781 C 30.089844 14.273438 30.203125 14.367188 30.316406 14.367188 Z M 30.316406 14.367188 "/>
<path style=" stroke:none;fill-rule:evenodd;fill:rgb(0%,0%,0%);fill-opacity:1;" d="M 40.90625 18.046875 C 43.066406 18.046875 45.800781 14.929688 45.800781 12.480469 C 45.800781 11.792969 45.308594 11.296875 44.617188 11.296875 C 43.820312 11.296875 42.652344 12.222656 41.386719 13.886719 C 41.242188 14.078125 41.113281 14.03125 41.195312 13.808594 C 41.644531 12.398438 43.019531 8.382812 43.433594 7.296875 C 43.515625 7.070312 43.546875 6.960938 43.546875 6.769531 C 43.546875 6.65625 43.464844 6.609375 43.289062 6.609375 C 43.097656 6.609375 41.929688 6.929688 41.449219 7.105469 C 41.257812 7.167969 41.195312 7.230469 41.195312 7.328125 C 41.195312 7.390625 41.386719 7.488281 41.691406 7.566406 C 41.980469 7.648438 42.089844 7.726562 42.089844 7.839844 C 42.089844 8.113281 42.042969 8.398438 41.929688 8.703125 L 39.914062 14.800781 C 39.675781 15.503906 39.546875 16.207031 39.546875 16.734375 C 39.546875 17.535156 40.074219 18.046875 40.90625 18.046875 Z M 41.324219 17.535156 C 40.875 17.535156 40.492188 17.039062 40.492188 16.464844 C 40.492188 16.0625 40.953125 15.167969 41.660156 14.175781 C 42.777344 12.640625 43.609375 11.902344 44.28125 11.902344 C 44.539062 11.902344 44.746094 12.175781 44.746094 12.542969 C 44.746094 13.3125 44.121094 14.785156 43.355469 15.808594 C 42.601562 16.800781 41.738281 17.535156 41.324219 17.535156 Z M 41.324219 17.535156 "/>
<path style=" stroke:none;fill-rule:evenodd;fill:rgb(0%,0%,0%);fill-opacity:1;" d="M 50.863281 18.046875 L 58.140625 18.046875 C 58.429688 18.046875 58.636719 17.792969 58.636719 17.441406 C 58.636719 17.34375 58.527344 17.246094 58.429688 17.246094 L 55.117188 17.246094 L 55.117188 14.273438 C 55.117188 14.222656 55.132812 14.207031 55.183594 14.207031 L 58.140625 14.207031 C 58.445312 14.207031 58.636719 13.839844 58.636719 13.566406 C 58.636719 13.472656 58.542969 13.40625 58.429688 13.40625 L 55.148438 13.40625 C 55.117188 13.40625 55.117188 13.390625 55.117188 13.3125 L 55.117188 10.414062 C 55.117188 10.304688 55.007812 10.207031 54.894531 10.207031 C 54.796875 10.207031 54.160156 10.351562 54.160156 10.703125 L 54.160156 13.28125 C 54.160156 13.375 54.140625 13.40625 54.046875 13.40625 L 51.023438 13.40625 C 50.734375 13.40625 50.636719 13.871094 50.636719 14.015625 C 50.636719 14.113281 50.75 14.207031 50.863281 14.207031 L 54.09375 14.207031 C 54.140625 14.207031 54.160156 14.238281 54.160156 14.289062 L 54.160156 17.246094 L 51.023438 17.246094 C 50.6875 17.246094 50.636719 17.710938 50.636719 17.855469 C 50.636719 17.953125 50.75 18.046875 50.863281 18.046875 Z M 50.863281 18.046875 "/>
<path style=" stroke:none;fill-rule:evenodd;fill:rgb(0%,0%,0%);fill-opacity:1;" d="M 72.082031 0.800781 C 72.402344 0.800781 72.59375 0.527344 72.59375 0.207031 C 72.59375 0.113281 72.449219 0 72.320312 0 L 71.617188 0 C 71.296875 0 71.105469 0.113281 71.042969 0.433594 L 67.472656 17.359375 C 67.457031 17.472656 67.425781 17.457031 67.394531 17.359375 L 66.082031 12.113281 C 66 11.808594 65.792969 11.648438 65.472656 11.648438 L 63.96875 11.648438 C 63.699219 11.648438 63.554688 11.921875 63.554688 12.175781 C 63.554688 12.273438 63.664062 12.351562 63.777344 12.351562 L 64.449219 12.351562 C 64.5625 12.351562 64.625 12.414062 64.65625 12.511719 L 66.371094 19.328125 C 66.480469 19.777344 67.011719 20.03125 67.457031 20.03125 C 67.601562 20.03125 67.808594 19.855469 67.839844 19.664062 L 71.777344 0.960938 C 71.792969 0.847656 71.859375 0.800781 71.96875 0.800781 Z M 72.082031 0.800781 "/>
<path style=" stroke:none;fill-rule:nonzero;fill:rgb(0%,0%,0%);fill-opacity:1;" d="M 72.019531 0 L 122.910156 0 L 122.910156 0.800781 L 72.019531 0.800781 Z M 72.019531 0 "/>
<path style=" stroke:none;fill-rule:evenodd;fill:rgb(0%,0%,0%);fill-opacity:1;" d="M 74.035156 18.046875 C 76.195312 18.046875 78.929688 14.929688 78.929688 12.480469 C 78.929688 11.792969 78.433594 11.296875 77.746094 11.296875 C 76.945312 11.296875 75.777344 12.222656 74.515625 13.886719 C 74.371094 14.078125 74.242188 14.03125 74.320312 13.808594 C 74.769531 12.398438 76.144531 8.382812 76.5625 7.296875 C 76.640625 7.070312 76.671875 6.960938 76.671875 6.769531 C 76.671875 6.65625 76.59375 6.609375 76.417969 6.609375 C 76.226562 6.609375 75.058594 6.929688 74.578125 7.105469 C 74.386719 7.167969 74.320312 7.230469 74.320312 7.328125 C 74.320312 7.390625 74.515625 7.488281 74.816406 7.566406 C 75.105469 7.648438 75.21875 7.726562 75.21875 7.839844 C 75.21875 8.113281 75.167969 8.398438 75.058594 8.703125 L 73.042969 14.800781 C 72.800781 15.503906 72.671875 16.207031 72.671875 16.734375 C 72.671875 17.535156 73.203125 18.046875 74.035156 18.046875 Z M 74.449219 17.535156 C 74 17.535156 73.617188 17.039062 73.617188 16.464844 C 73.617188 16.0625 74.082031 15.167969 74.785156 14.175781 C 75.90625 12.640625 76.738281 11.902344 77.410156 11.902344 C 77.664062 11.902344 77.875 12.175781 77.875 12.542969 C 77.875 13.3125 77.25 14.785156 76.480469 15.808594 C 75.730469 16.800781 74.867188 17.535156 74.449219 17.535156 Z M 74.449219 17.535156 "/>
<path style=" stroke:none;fill-rule:evenodd;fill:rgb(0%,0%,0%);fill-opacity:1;" d="M 83.933594 10.320312 C 84.011719 10.320312 84.136719 10.289062 84.179688 10.054688 C 84.292969 9.492188 84.515625 9.035156 84.515625 8.921875 C 84.515625 8.867188 84.503906 8.789062 84.4375 8.789062 C 84.316406 8.789062 84.214844 8.957031 84.160156 9.042969 C 83.878906 9.492188 83.734375 9.539062 83.09375 9.570312 C 82.691406 9.59375 82.242188 9.605469 81.816406 9.605469 C 81.402344 9.605469 81.078125 9.59375 80.832031 9.570312 C 80.742188 9.558594 80.675781 9.546875 80.675781 9.492188 C 80.675781 9.4375 82.523438 7.644531 83.027344 7.039062 C 83.496094 6.46875 83.84375 5.683594 83.84375 5.078125 C 83.84375 3.992188 83.171875 3.230469 82.054688 3.230469 C 80.789062 3.230469 79.867188 4.328125 79.867188 4.675781 C 79.867188 4.878906 79.980469 5.011719 80.035156 5.011719 C 80.105469 5.011719 80.183594 4.945312 80.226562 4.855469 C 80.539062 4.320312 81.089844 3.949219 81.707031 3.949219 C 82.34375 3.949219 82.902344 4.429688 82.902344 5.226562 C 82.902344 6.210938 82.355469 7.21875 81.605469 7.992188 L 79.691406 9.972656 C 79.621094 10.042969 79.601562 10.054688 79.601562 10.121094 C 79.601562 10.1875 79.769531 10.308594 79.824219 10.308594 C 80.046875 10.308594 81.863281 10.253906 82.421875 10.253906 C 82.984375 10.253906 83.710938 10.320312 83.933594 10.320312 Z M 83.933594 10.320312 "/>
<path style=" stroke:none;fill-rule:evenodd;fill:rgb(0%,0%,0%);fill-opacity:1;" d="M 89.464844 14.367188 L 96.746094 14.367188 C 97.035156 14.367188 97.242188 13.953125 97.242188 13.601562 C 97.242188 13.503906 97.128906 13.40625 97.035156 13.40625 L 89.625 13.40625 C 89.289062 13.40625 89.242188 14.03125 89.242188 14.175781 C 89.242188 14.273438 89.355469 14.367188 89.464844 14.367188 Z M 89.464844 14.367188 "/>
<path style=" stroke:none;fill-rule:evenodd;fill:rgb(0%,0%,0%);fill-opacity:1;" d="M 104.8125 17.96875 C 105.675781 17.96875 105.835938 17.886719 106.652344 17.886719 C 107.40625 17.886719 107.550781 17.96875 108.460938 17.96875 C 108.589844 17.96875 108.703125 17.886719 108.703125 17.792969 C 108.703125 17.695312 108.542969 17.601562 108.414062 17.566406 C 107.550781 17.34375 107.339844 17.199219 107.339844 16.574219 L 107.339844 15.070312 C 107.339844 15.054688 107.46875 14.992188 107.550781 14.976562 C 107.675781 14.960938 107.855469 14.945312 108.046875 14.945312 C 108.300781 14.945312 108.589844 14.960938 108.828125 14.960938 C 108.894531 14.960938 109.164062 14.609375 109.164062 14.351562 C 109.164062 14.289062 109.085938 14.222656 108.988281 14.222656 C 108.636719 14.238281 108.351562 14.257812 108.046875 14.257812 C 107.855469 14.257812 107.644531 14.257812 107.40625 14.238281 C 107.359375 14.238281 107.324219 14.191406 107.324219 14.144531 L 107.324219 12.078125 C 107.324219 11.40625 107.324219 11.054688 107.085938 11.054688 C 106.941406 11.054688 106.507812 11.089844 106.191406 11.265625 C 106.0625 11.328125 106.046875 11.390625 106.046875 11.617188 L 106.046875 14.097656 C 106.046875 14.160156 105.933594 14.222656 105.855469 14.222656 L 103.085938 14.222656 C 103.023438 14.222656 103.054688 14.128906 103.085938 14.078125 L 107.40625 7.871094 C 107.40625 7.871094 107.535156 7.648438 107.4375 7.648438 L 107.101562 7.648438 C 106.941406 7.648438 106.75 7.902344 106.621094 8.097656 L 102.398438 14.160156 C 102.191406 14.449219 102.171875 14.414062 101.773438 14.910156 C 101.757812 14.929688 101.757812 14.945312 101.757812 14.960938 C 101.757812 15.023438 101.835938 15.121094 101.917969 15.121094 C 103.597656 15.105469 104.492188 15.007812 105.804688 15.007812 C 105.820312 15.007812 106.046875 15.054688 106.046875 15.152344 L 106.046875 16.640625 C 106.046875 17.152344 105.804688 17.441406 104.8125 17.566406 C 104.6875 17.585938 104.527344 17.648438 104.527344 17.761719 C 104.527344 17.902344 104.703125 17.96875 104.8125 17.96875 Z M 104.8125 17.96875 "/>
<path style=" stroke:none;fill-rule:evenodd;fill:rgb(0%,0%,0%);fill-opacity:1;" d="M 110.492188 18.144531 C 111.453125 18.144531 112.445312 17.40625 114.398438 15.230469 C 114.527344 15.089844 114.542969 15.246094 114.429688 15.472656 C 114.109375 16.144531 113.484375 17.535156 113.675781 17.152344 C 113.613281 17.28125 113.582031 17.425781 113.582031 17.519531 C 113.582031 17.824219 113.933594 18.144531 114.269531 18.144531 C 114.78125 18.144531 115.40625 17.839844 116.015625 17.28125 C 116.332031 16.960938 116.703125 16.414062 116.703125 16.273438 C 116.703125 16.144531 116.667969 16.097656 116.589844 16.097656 C 116.542969 16.097656 116.476562 16.128906 116.445312 16.175781 C 116.046875 16.71875 115.421875 17.136719 115.039062 17.136719 C 114.78125 17.136719 114.703125 16.929688 114.828125 16.59375 L 116.621094 11.839844 C 116.703125 11.617188 116.734375 11.503906 116.734375 11.441406 C 116.734375 11.28125 116.414062 11.105469 116.125 11.105469 C 116.0625 11.105469 115.996094 11.152344 115.933594 11.265625 C 115.871094 11.359375 115.773438 11.550781 115.660156 11.742188 C 115.613281 11.808594 115.597656 11.839844 115.566406 11.839844 C 115.550781 11.839844 115.484375 11.761719 115.375 11.601562 C 115.261719 11.472656 115.085938 11.375 114.925781 11.375 C 114.589844 11.375 113.871094 11.871094 112.71875 12.878906 C 110.910156 14.464844 109.675781 16.304688 109.675781 17.441406 C 109.675781 17.792969 110.09375 18.144531 110.492188 18.144531 Z M 111.390625 17.136719 C 111.117188 17.136719 110.925781 16.910156 110.925781 16.59375 C 110.925781 15.855469 111.933594 14.289062 113.003906 13.246094 C 113.550781 12.71875 114.332031 12.273438 114.71875 12.273438 C 114.828125 12.273438 114.988281 12.351562 115.117188 12.449219 C 115.230469 12.542969 115.324219 12.671875 115.324219 12.753906 C 115.324219 13.136719 114.8125 13.984375 114.015625 14.929688 C 112.84375 16.320312 111.855469 17.136719 111.390625 17.136719 Z M 111.390625 17.136719 "/>
<path style=" stroke:none;fill-rule:evenodd;fill:rgb(0%,0%,0%);fill-opacity:1;" d="M 119.164062 18.160156 C 120.460938 18.160156 121.613281 16.910156 121.613281 16.574219 C 121.613281 16.464844 121.582031 16.367188 121.484375 16.367188 C 121.359375 16.367188 121.308594 16.433594 121.164062 16.574219 C 120.75 16.960938 120.429688 17.265625 119.742188 17.265625 C 119.277344 17.265625 118.972656 17.054688 118.972656 16.351562 C 118.972656 14.59375 120.332031 11.726562 121.359375 11.726562 C 121.710938 11.726562 121.886719 11.96875 122.015625 12.207031 C 122.125 12.414062 122.222656 12.59375 122.398438 12.59375 C 122.621094 12.59375 122.878906 12.160156 122.878906 11.808594 C 122.878906 11.535156 122.574219 11.296875 121.996094 11.296875 C 119.277344 11.296875 117.855469 14.558594 117.820312 16.480469 C 117.804688 17.472656 118.589844 18.160156 119.164062 18.160156 Z M 119.164062 18.160156 "/>
<path style=" stroke:none;fill-rule:nonzero;fill:rgb(0%,0%,0%);fill-opacity:1;" d="M 29.289062 23.664062 L 122.90625 23.664062 L 122.90625 24.464844 L 29.289062 24.464844 Z M 29.289062 23.664062 "/>
<path style=" stroke:none;fill-rule:evenodd;fill:rgb(0%,0%,0%);fill-opacity:1;" d="M 74.730469 37.679688 C 74.84375 37.679688 75.019531 37.632812 75.085938 37.296875 C 75.246094 36.496094 75.5625 35.839844 75.5625 35.679688 C 75.5625 35.601562 75.546875 35.488281 75.453125 35.488281 C 75.277344 35.488281 75.132812 35.726562 75.050781 35.855469 C 74.652344 36.496094 74.445312 36.558594 73.53125 36.609375 C 72.957031 36.640625 72.316406 36.65625 71.707031 36.65625 C 71.117188 36.65625 70.652344 36.640625 70.300781 36.609375 C 70.171875 36.59375 70.078125 36.574219 70.078125 36.496094 C 70.078125 36.414062 72.714844 33.855469 73.4375 32.992188 C 74.109375 32.175781 74.605469 31.054688 74.605469 30.191406 C 74.605469 28.640625 73.644531 27.550781 72.042969 27.550781 C 70.234375 27.550781 68.925781 29.121094 68.925781 29.617188 C 68.925781 29.902344 69.085938 30.097656 69.164062 30.097656 C 69.261719 30.097656 69.371094 30 69.4375 29.871094 C 69.882812 29.105469 70.667969 28.574219 71.546875 28.574219 C 72.460938 28.574219 73.261719 29.265625 73.261719 30.398438 C 73.261719 31.808594 72.476562 33.246094 71.402344 34.351562 L 68.667969 37.183594 C 68.570312 37.28125 68.539062 37.296875 68.539062 37.390625 C 68.539062 37.488281 68.78125 37.664062 68.859375 37.664062 C 69.179688 37.664062 71.773438 37.585938 72.570312 37.585938 C 73.371094 37.585938 74.414062 37.679688 74.730469 37.679688 Z M 74.730469 37.679688 "/>
<path style=" stroke:none;fill-rule:evenodd;fill:rgb(0%,0%,0%);fill-opacity:1;" d="M 77.164062 37.855469 C 78.125 37.855469 79.117188 37.121094 81.066406 34.945312 C 81.195312 34.800781 81.210938 34.960938 81.101562 35.183594 C 80.78125 35.855469 80.15625 37.246094 80.347656 36.863281 C 80.285156 36.992188 80.253906 37.136719 80.253906 37.230469 C 80.253906 37.535156 80.605469 37.855469 80.941406 37.855469 C 81.453125 37.855469 82.078125 37.550781 82.683594 36.992188 C 83.003906 36.671875 83.371094 36.128906 83.371094 35.984375 C 83.371094 35.855469 83.339844 35.808594 83.261719 35.808594 C 83.210938 35.808594 83.148438 35.839844 83.117188 35.886719 C 82.714844 36.433594 82.09375 36.847656 81.707031 36.847656 C 81.453125 36.847656 81.371094 36.640625 81.5 36.304688 L 83.292969 31.550781 C 83.371094 31.328125 83.402344 31.214844 83.402344 31.152344 C 83.402344 30.992188 83.085938 30.816406 82.796875 30.816406 C 82.730469 30.816406 82.667969 30.863281 82.605469 30.976562 C 82.539062 31.070312 82.445312 31.265625 82.332031 31.457031 C 82.285156 31.519531 82.269531 31.550781 82.234375 31.550781 C 82.21875 31.550781 82.15625 31.472656 82.042969 31.3125 C 81.933594 31.183594 81.757812 31.089844 81.597656 31.089844 C 81.261719 31.089844 80.539062 31.585938 79.386719 32.59375 C 77.582031 34.175781 76.347656 36.015625 76.347656 37.152344 C 76.347656 37.503906 76.765625 37.855469 77.164062 37.855469 Z M 78.058594 36.847656 C 77.789062 36.847656 77.597656 36.625 77.597656 36.304688 C 77.597656 35.566406 78.605469 34 79.675781 32.960938 C 80.21875 32.433594 81.003906 31.984375 81.386719 31.984375 C 81.5 31.984375 81.660156 32.0625 81.789062 32.160156 C 81.898438 32.257812 81.996094 32.382812 81.996094 32.464844 C 81.996094 32.847656 81.484375 33.695312 80.683594 34.640625 C 79.515625 36.03125 78.523438 36.847656 78.058594 36.847656 Z M 78.058594 36.847656 "/>
</g>
</svg>
