<?xml version="1.0" encoding="UTF-8"?>
<svg xmlns="http://www.w3.org/2000/svg" xmlns:xlink="http://www.w3.org/1999/xlink" width="311.274234pt" height="94.640004pt" viewBox="0 0 311.274234 94.640004" version="1.1">
<g id="surface1">
<path style=" stroke:none;fill-rule:evenodd;fill:rgb(0%,0%,0%);fill-opacity:1;" d="M 1.921875 70.71875 C 2.878906 70.71875 3.761719 70.398438 4.878906 69.078125 C 6.199219 67.519531 7.480469 65.761719 8.761719 64.160156 C 9.078125 63.761719 9.238281 63.761719 9.398438 64.398438 L 10.28125 68.039062 C 10.761719 69.800781 11.320312 70.71875 12.800781 70.71875 C 15.121094 70.71875 16.960938 66.921875 16.960938 65.441406 C 16.960938 64.640625 16.800781 64.558594 16.601562 64.558594 C 16.398438 64.558594 16.238281 64.71875 16.078125 65.121094 C 15.28125 67.078125 14.199219 68.320312 13.441406 68.320312 C 13.160156 68.320312 12.800781 68.078125 12.601562 67.359375 L 11.238281 62.441406 C 11.039062 61.761719 11.121094 61.359375 11.320312 61.039062 C 12.320312 59.519531 13.199219 58.480469 13.960938 57.601562 C 14.878906 56.480469 15.601562 55.921875 16.238281 55.921875 C 16.601562 55.921875 16.839844 56.121094 17.121094 56.839844 C 17.28125 57.238281 17.519531 57.519531 17.839844 57.519531 C 18.519531 57.519531 19.519531 55.921875 19.480469 55.320312 C 19.441406 54.679688 18.480469 53.601562 17.441406 53.601562 C 16 53.601562 14.640625 54.839844 13.839844 55.960938 L 11.039062 59.960938 C 10.761719 60.320312 10.558594 60.28125 10.480469 59.878906 L 9.480469 55.640625 C 9.121094 54.238281 8.640625 53.601562 7.800781 53.601562 C 6.039062 53.601562 3.519531 56.601562 3.519531 58.160156 C 3.519531 58.558594 3.601562 58.839844 3.800781 58.839844 C 4.160156 58.839844 4.359375 58.359375 4.480469 58.199219 C 5.480469 56.761719 6.320312 56.121094 6.71875 56.121094 C 7.039062 56.121094 7.160156 56.199219 7.320312 56.800781 L 8.839844 62.398438 C 8.921875 62.640625 8.921875 62.921875 8.71875 63.121094 C 7.039062 65.039062 6.160156 66.199219 4.558594 67.839844 C 4.238281 68.160156 3.839844 68.359375 3.480469 68.320312 C 3.160156 68.320312 2.878906 68.039062 2.71875 67.398438 C 2.640625 67.039062 2.480469 66.679688 2.078125 66.679688 C 1.398438 66.679688 0.28125 68.28125 0.28125 69.199219 C 0.28125 70.238281 1.121094 70.71875 1.921875 70.71875 Z M 1.921875 70.71875 "/>
<path style=" stroke:none;fill-rule:evenodd;fill:rgb(0%,0%,0%);fill-opacity:1;" d="M 35.8125 57.601562 L 52.613281 57.601562 C 53.253906 57.601562 53.894531 56.601562 53.894531 56.039062 C 53.894531 55.800781 53.574219 55.601562 53.332031 55.601562 L 36.214844 55.601562 C 35.492188 55.601562 35.253906 56.761719 35.253906 57.121094 C 35.253906 57.359375 35.535156 57.601562 35.8125 57.601562 Z M 35.8125 64.441406 L 52.613281 64.441406 C 53.253906 64.441406 53.894531 63.601562 53.894531 62.878906 C 53.894531 62.640625 53.574219 62.441406 53.332031 62.441406 L 36.214844 62.441406 C 35.492188 62.441406 35.253906 63.601562 35.253906 63.960938 C 35.253906 64.199219 35.535156 64.441406 35.8125 64.441406 Z M 35.8125 64.441406 "/>
<path style=" stroke:none;fill-rule:evenodd;fill:rgb(0%,0%,0%);fill-opacity:1;" d="M 75.785156 35.921875 L 93.988281 35.921875 C 94.707031 35.921875 95.226562 34.878906 95.226562 34 C 95.226562 33.761719 94.945312 33.519531 94.707031 33.519531 L 76.1875 33.519531 C 75.347656 33.519531 75.226562 35.078125 75.226562 35.441406 C 75.226562 35.679688 75.507812 35.921875 75.785156 35.921875 Z M 75.785156 35.921875 "/>
<path style=" stroke:none;fill-rule:evenodd;fill:rgb(0%,0%,0%);fill-opacity:1;" d="M 102.265625 45.121094 C 107.667969 45.121094 114.507812 37.320312 114.507812 31.199219 C 114.507812 29.480469 113.265625 28.238281 111.546875 28.238281 C 109.546875 28.238281 106.625 30.558594 103.464844 34.71875 C 103.105469 35.199219 102.785156 35.078125 102.988281 34.519531 C 104.105469 31 107.546875 20.960938 108.585938 18.238281 C 108.785156 17.679688 108.867188 17.398438 108.867188 16.921875 C 108.867188 16.640625 108.667969 16.519531 108.226562 16.519531 C 107.746094 16.519531 104.828125 17.320312 103.625 17.761719 C 103.148438 17.921875 102.988281 18.078125 102.988281 18.320312 C 102.988281 18.480469 103.464844 18.71875 104.226562 18.921875 C 104.945312 19.121094 105.226562 19.320312 105.226562 19.601562 C 105.226562 20.28125 105.105469 21 104.828125 21.761719 L 99.785156 37 C 99.1875 38.761719 98.867188 40.519531 98.867188 41.839844 C 98.867188 43.839844 100.1875 45.121094 102.265625 45.121094 Z M 103.308594 43.839844 C 102.1875 43.839844 101.226562 42.601562 101.226562 41.160156 C 101.226562 40.160156 102.386719 37.921875 104.148438 35.441406 C 106.945312 31.601562 109.027344 29.761719 110.707031 29.761719 C 111.347656 29.761719 111.867188 30.441406 111.867188 31.359375 C 111.867188 33.28125 110.308594 36.960938 108.386719 39.519531 C 106.507812 42 104.347656 43.839844 103.308594 43.839844 Z M 103.308594 43.839844 "/>
<path style=" stroke:none;fill-rule:evenodd;fill:rgb(0%,0%,0%);fill-opacity:1;" d="M 127.15625 45.121094 L 145.355469 45.121094 C 146.074219 45.121094 146.59375 44.480469 146.59375 43.601562 C 146.59375 43.359375 146.316406 43.121094 146.074219 43.121094 L 137.796875 43.121094 L 137.796875 35.679688 C 137.796875 35.558594 137.835938 35.519531 137.957031 35.519531 L 145.355469 35.519531 C 146.117188 35.519531 146.59375 34.601562 146.59375 33.921875 C 146.59375 33.679688 146.355469 33.519531 146.074219 33.519531 L 137.875 33.519531 C 137.796875 33.519531 137.796875 33.480469 137.796875 33.28125 L 137.796875 26.039062 C 137.796875 25.761719 137.515625 25.519531 137.234375 25.519531 C 136.996094 25.519531 135.394531 25.878906 135.394531 26.761719 L 135.394531 33.199219 C 135.394531 33.441406 135.355469 33.519531 135.117188 33.519531 L 127.554688 33.519531 C 126.835938 33.519531 126.59375 34.679688 126.59375 35.039062 C 126.59375 35.28125 126.875 35.519531 127.15625 35.519531 L 135.234375 35.519531 C 135.355469 35.519531 135.394531 35.601562 135.394531 35.71875 L 135.394531 43.121094 L 127.554688 43.121094 C 126.714844 43.121094 126.59375 44.28125 126.59375 44.640625 C 126.59375 44.878906 126.875 45.121094 127.15625 45.121094 Z M 127.15625 45.121094 "/>
<path style=" stroke:none;fill-rule:evenodd;fill:rgb(0%,0%,0%);fill-opacity:1;" d="M 180.203125 2 C 181.003906 2 181.484375 1.320312 181.484375 0.519531 C 181.484375 0.28125 181.125 0 180.804688 0 L 179.042969 0 C 178.246094 0 177.765625 0.28125 177.605469 1.078125 L 168.683594 43.398438 C 168.644531 43.679688 168.5625 43.640625 168.484375 43.398438 L 165.203125 30.28125 C 165.003906 29.519531 164.484375 29.121094 163.683594 29.121094 L 159.925781 29.121094 C 159.246094 29.121094 158.882812 29.800781 158.882812 30.441406 C 158.882812 30.679688 159.164062 30.878906 159.445312 30.878906 L 161.125 30.878906 C 161.40625 30.878906 161.5625 31.039062 161.644531 31.28125 L 165.925781 48.320312 C 166.203125 49.441406 167.523438 50.078125 168.644531 50.078125 C 169.003906 50.078125 169.523438 49.640625 169.605469 49.160156 L 179.445312 2.398438 C 179.484375 2.121094 179.644531 2 179.925781 2 Z M 180.203125 2 "/>
<path style=" stroke:none;fill-rule:nonzero;fill:rgb(0%,0%,0%);fill-opacity:1;" d="M 180.042969 0 L 307.273438 0 L 307.273438 2 L 180.042969 2 Z M 180.042969 0 "/>
<path style=" stroke:none;fill-rule:evenodd;fill:rgb(0%,0%,0%);fill-opacity:1;" d="M 185.085938 45.121094 C 190.484375 45.121094 197.324219 37.320312 197.324219 31.199219 C 197.324219 29.480469 196.085938 28.238281 194.363281 28.238281 C 192.363281 28.238281 189.445312 30.558594 186.285156 34.71875 C 185.925781 35.199219 185.605469 35.078125 185.804688 34.519531 C 186.925781 31 190.363281 20.960938 191.40625 18.238281 C 191.605469 17.679688 191.683594 17.398438 191.683594 16.921875 C 191.683594 16.640625 191.484375 16.519531 191.042969 16.519531 C 190.5625 16.519531 187.644531 17.320312 186.445312 17.761719 C 185.964844 17.921875 185.804688 18.078125 185.804688 18.320312 C 185.804688 18.480469 186.285156 18.71875 187.042969 18.921875 C 187.765625 19.121094 188.042969 19.320312 188.042969 19.601562 C 188.042969 20.28125 187.925781 21 187.644531 21.761719 L 182.605469 37 C 182.003906 38.761719 181.683594 40.519531 181.683594 41.839844 C 181.683594 43.839844 183.003906 45.121094 185.085938 45.121094 Z M 186.125 43.839844 C 185.003906 43.839844 184.042969 42.601562 184.042969 41.160156 C 184.042969 40.160156 185.203125 37.921875 186.964844 35.441406 C 189.765625 31.601562 191.84375 29.761719 193.523438 29.761719 C 194.164062 29.761719 194.683594 30.441406 194.683594 31.359375 C 194.683594 33.28125 193.125 36.960938 191.203125 39.519531 C 189.324219 42 187.164062 43.839844 186.125 43.839844 Z M 186.125 43.839844 "/>
<path style=" stroke:none;fill-rule:evenodd;fill:rgb(0%,0%,0%);fill-opacity:1;" d="M 209.835938 25.804688 C 210.03125 25.804688 210.339844 25.71875 210.453125 25.132812 C 210.734375 23.730469 211.292969 22.585938 211.292969 22.304688 C 211.292969 22.164062 211.265625 21.96875 211.097656 21.96875 C 210.789062 21.96875 210.535156 22.386719 210.394531 22.613281 C 209.695312 23.730469 209.332031 23.84375 207.738281 23.929688 C 206.726562 23.984375 205.609375 24.011719 204.542969 24.011719 C 203.507812 24.011719 202.695312 23.984375 202.082031 23.929688 C 201.855469 23.898438 201.6875 23.871094 201.6875 23.730469 C 201.6875 23.59375 206.308594 19.113281 207.570312 17.601562 C 208.746094 16.171875 209.613281 14.210938 209.613281 12.699219 C 209.613281 9.984375 207.933594 8.078125 205.132812 8.078125 C 201.96875 8.078125 199.671875 10.824219 199.671875 11.691406 C 199.671875 12.195312 199.953125 12.53125 200.09375 12.53125 C 200.261719 12.53125 200.457031 12.363281 200.570312 12.140625 C 201.351562 10.796875 202.722656 9.871094 204.265625 9.871094 C 205.859375 9.871094 207.261719 11.074219 207.261719 13.0625 C 207.261719 15.527344 205.886719 18.046875 204.011719 19.980469 L 199.222656 24.9375 C 199.054688 25.105469 199 25.132812 199 25.300781 C 199 25.46875 199.421875 25.777344 199.558594 25.777344 C 200.121094 25.777344 204.65625 25.636719 206.054688 25.636719 C 207.457031 25.636719 209.277344 25.804688 209.835938 25.804688 Z M 209.835938 25.804688 "/>
<path style=" stroke:none;fill-rule:evenodd;fill:rgb(0%,0%,0%);fill-opacity:1;" d="M 223.664062 35.921875 L 241.867188 35.921875 C 242.585938 35.921875 243.105469 34.878906 243.105469 34 C 243.105469 33.761719 242.824219 33.519531 242.585938 33.519531 L 224.066406 33.519531 C 223.226562 33.519531 223.105469 35.078125 223.105469 35.441406 C 223.105469 35.679688 223.386719 35.921875 223.664062 35.921875 Z M 223.664062 35.921875 "/>
<path style=" stroke:none;fill-rule:evenodd;fill:rgb(0%,0%,0%);fill-opacity:1;" d="M 262.035156 44.921875 C 264.195312 44.921875 264.59375 44.71875 266.632812 44.71875 C 268.515625 44.71875 268.875 44.921875 271.152344 44.921875 C 271.472656 44.921875 271.753906 44.71875 271.753906 44.480469 C 271.753906 44.238281 271.355469 44 271.035156 43.921875 C 268.875 43.359375 268.355469 43 268.355469 41.441406 L 268.355469 37.679688 C 268.355469 37.640625 268.675781 37.480469 268.875 37.441406 C 269.195312 37.398438 269.632812 37.359375 270.113281 37.359375 C 270.753906 37.359375 271.472656 37.398438 272.074219 37.398438 C 272.234375 37.398438 272.914062 36.519531 272.914062 35.878906 C 272.914062 35.71875 272.714844 35.558594 272.472656 35.558594 C 271.59375 35.601562 270.875 35.640625 270.113281 35.640625 C 269.632812 35.640625 269.113281 35.640625 268.515625 35.601562 C 268.394531 35.601562 268.3125 35.480469 268.3125 35.359375 L 268.3125 30.199219 C 268.3125 28.519531 268.3125 27.640625 267.714844 27.640625 C 267.355469 27.640625 266.273438 27.71875 265.472656 28.160156 C 265.152344 28.320312 265.113281 28.480469 265.113281 29.039062 L 265.113281 35.238281 C 265.113281 35.398438 264.835938 35.558594 264.632812 35.558594 L 257.714844 35.558594 C 257.554688 35.558594 257.632812 35.320312 257.714844 35.199219 L 268.515625 19.679688 C 268.515625 19.679688 268.835938 19.121094 268.59375 19.121094 L 267.753906 19.121094 C 267.355469 19.121094 266.875 19.761719 266.554688 20.238281 L 255.996094 35.398438 C 255.472656 36.121094 255.433594 36.039062 254.433594 37.28125 C 254.394531 37.320312 254.394531 37.359375 254.394531 37.398438 C 254.394531 37.558594 254.59375 37.800781 254.792969 37.800781 C 258.996094 37.761719 261.234375 37.519531 264.515625 37.519531 C 264.554688 37.519531 265.113281 37.640625 265.113281 37.878906 L 265.113281 41.601562 C 265.113281 42.878906 264.515625 43.601562 262.035156 43.921875 C 261.714844 43.960938 261.3125 44.121094 261.3125 44.398438 C 261.3125 44.761719 261.753906 44.921875 262.035156 44.921875 Z M 262.035156 44.921875 "/>
<path style=" stroke:none;fill-rule:evenodd;fill:rgb(0%,0%,0%);fill-opacity:1;" d="M 276.234375 45.359375 C 278.632812 45.359375 281.113281 43.519531 285.996094 38.078125 C 286.3125 37.71875 286.355469 38.121094 286.074219 38.679688 C 285.273438 40.359375 283.714844 43.839844 284.195312 42.878906 C 284.035156 43.199219 283.953125 43.558594 283.953125 43.800781 C 283.953125 44.558594 284.835938 45.359375 285.675781 45.359375 C 286.953125 45.359375 288.515625 44.601562 290.035156 43.199219 C 290.835938 42.398438 291.753906 41.039062 291.753906 40.679688 C 291.753906 40.359375 291.675781 40.238281 291.472656 40.238281 C 291.355469 40.238281 291.195312 40.320312 291.113281 40.441406 C 290.113281 41.800781 288.554688 42.839844 287.59375 42.839844 C 286.953125 42.839844 286.753906 42.320312 287.074219 41.480469 L 291.554688 29.601562 C 291.753906 29.039062 291.835938 28.761719 291.835938 28.601562 C 291.835938 28.199219 291.035156 27.761719 290.3125 27.761719 C 290.152344 27.761719 289.996094 27.878906 289.835938 28.160156 C 289.675781 28.398438 289.433594 28.878906 289.152344 29.359375 C 289.035156 29.519531 288.996094 29.601562 288.914062 29.601562 C 288.875 29.601562 288.714844 29.398438 288.433594 29 C 288.152344 28.679688 287.714844 28.441406 287.3125 28.441406 C 286.472656 28.441406 284.675781 29.679688 281.792969 32.199219 C 277.273438 36.160156 274.195312 40.761719 274.195312 43.601562 C 274.195312 44.480469 275.234375 45.359375 276.234375 45.359375 Z M 278.472656 42.839844 C 277.792969 42.839844 277.3125 42.28125 277.3125 41.480469 C 277.3125 39.640625 279.835938 35.71875 282.515625 33.121094 C 283.875 31.800781 285.835938 30.679688 286.792969 30.679688 C 287.074219 30.679688 287.472656 30.878906 287.792969 31.121094 C 288.074219 31.359375 288.3125 31.679688 288.3125 31.878906 C 288.3125 32.839844 287.035156 34.960938 285.035156 37.320312 C 282.113281 40.800781 279.632812 42.839844 278.472656 42.839844 Z M 278.472656 42.839844 "/>
<path style=" stroke:none;fill-rule:evenodd;fill:rgb(0%,0%,0%);fill-opacity:1;" d="M 297.914062 45.398438 C 301.152344 45.398438 304.035156 42.28125 304.035156 41.441406 C 304.035156 41.160156 303.953125 40.921875 303.714844 40.921875 C 303.394531 40.921875 303.273438 41.078125 302.914062 41.441406 C 301.875 42.398438 301.074219 43.160156 299.355469 43.160156 C 298.195312 43.160156 297.433594 42.640625 297.433594 40.878906 C 297.433594 36.480469 300.835938 29.320312 303.394531 29.320312 C 304.273438 29.320312 304.714844 29.921875 305.035156 30.519531 C 305.3125 31.039062 305.554688 31.480469 305.996094 31.480469 C 306.554688 31.480469 307.195312 30.398438 307.195312 29.519531 C 307.195312 28.839844 306.433594 28.238281 304.996094 28.238281 C 298.195312 28.238281 294.632812 36.398438 294.554688 41.199219 C 294.515625 43.679688 296.472656 45.398438 297.914062 45.398438 Z M 297.914062 45.398438 "/>
<path style=" stroke:none;fill-rule:nonzero;fill:rgb(0%,0%,0%);fill-opacity:1;" d="M 73.226562 59.160156 L 307.273438 59.160156 L 307.273438 61.160156 L 73.226562 61.160156 Z M 73.226562 59.160156 "/>
<path style=" stroke:none;fill-rule:evenodd;fill:rgb(0%,0%,0%);fill-opacity:1;" d="M 186.832031 94.199219 C 187.109375 94.199219 187.550781 94.078125 187.710938 93.238281 C 188.109375 91.238281 188.910156 89.601562 188.910156 89.199219 C 188.910156 89 188.871094 88.71875 188.628906 88.71875 C 188.191406 88.71875 187.832031 89.320312 187.628906 89.640625 C 186.628906 91.238281 186.109375 91.398438 183.832031 91.519531 C 182.390625 91.601562 180.789062 91.640625 179.269531 91.640625 C 177.789062 91.640625 176.628906 91.601562 175.75 91.519531 C 175.429688 91.480469 175.191406 91.441406 175.191406 91.238281 C 175.191406 91.039062 181.789062 84.640625 183.589844 82.480469 C 185.269531 80.441406 186.511719 77.640625 186.511719 75.480469 C 186.511719 71.601562 184.109375 68.878906 180.109375 68.878906 C 175.589844 68.878906 172.308594 72.800781 172.308594 74.039062 C 172.308594 74.761719 172.710938 75.238281 172.910156 75.238281 C 173.152344 75.238281 173.429688 75 173.589844 74.679688 C 174.710938 72.761719 176.671875 71.441406 178.871094 71.441406 C 181.152344 71.441406 183.152344 73.160156 183.152344 76 C 183.152344 79.519531 181.191406 83.121094 178.511719 85.878906 L 171.671875 92.960938 C 171.429688 93.199219 171.351562 93.238281 171.351562 93.480469 C 171.351562 93.71875 171.949219 94.160156 172.152344 94.160156 C 172.949219 94.160156 179.429688 93.960938 181.429688 93.960938 C 183.429688 93.960938 186.03125 94.199219 186.832031 94.199219 Z M 186.832031 94.199219 "/>
<path style=" stroke:none;fill-rule:evenodd;fill:rgb(0%,0%,0%);fill-opacity:1;" d="M 192.910156 94.640625 C 195.308594 94.640625 197.789062 92.800781 202.671875 87.359375 C 202.992188 87 203.03125 87.398438 202.75 87.960938 C 201.949219 89.640625 200.390625 93.121094 200.871094 92.160156 C 200.710938 92.480469 200.628906 92.839844 200.628906 93.078125 C 200.628906 93.839844 201.511719 94.640625 202.351562 94.640625 C 203.628906 94.640625 205.191406 93.878906 206.710938 92.480469 C 207.511719 91.679688 208.429688 90.320312 208.429688 89.960938 C 208.429688 89.640625 208.351562 89.519531 208.152344 89.519531 C 208.03125 89.519531 207.871094 89.601562 207.789062 89.71875 C 206.789062 91.078125 205.230469 92.121094 204.269531 92.121094 C 203.628906 92.121094 203.429688 91.601562 203.75 90.761719 L 208.230469 78.878906 C 208.429688 78.320312 208.511719 78.039062 208.511719 77.878906 C 208.511719 77.480469 207.710938 77.039062 206.992188 77.039062 C 206.832031 77.039062 206.671875 77.160156 206.511719 77.441406 C 206.351562 77.679688 206.109375 78.160156 205.832031 78.640625 C 205.710938 78.800781 205.671875 78.878906 205.589844 78.878906 C 205.550781 78.878906 205.390625 78.679688 205.109375 78.28125 C 204.832031 77.960938 204.390625 77.71875 203.992188 77.71875 C 203.152344 77.71875 201.351562 78.960938 198.46875 81.480469 C 193.949219 85.441406 190.871094 90.039062 190.871094 92.878906 C 190.871094 93.761719 191.910156 94.640625 192.910156 94.640625 Z M 195.152344 92.121094 C 194.46875 92.121094 193.992188 91.558594 193.992188 90.761719 C 193.992188 88.921875 196.511719 85 199.191406 82.398438 C 200.550781 81.078125 202.511719 79.960938 203.46875 79.960938 C 203.75 79.960938 204.152344 80.160156 204.46875 80.398438 C 204.75 80.640625 204.992188 80.960938 204.992188 81.160156 C 204.992188 82.121094 203.710938 84.238281 201.710938 86.601562 C 198.789062 90.078125 196.308594 92.121094 195.152344 92.121094 Z M 195.152344 92.121094 "/>
</g>
</svg>
